<svg width="25" height="25" viewBox="0 0 25 25" fill="none" xmlns="http://www.w3.org/2000/svg">
<g id="Frame">
<path id="Vector" d="M18.1128 8.5C19.7696 8.5 21.1128 7.15685 21.1128 5.5C21.1128 3.84315 19.7696 2.5 18.1128 2.5C16.4559 2.5 15.1128 3.84315 15.1128 5.5C15.1128 7.15685 16.4559 8.5 18.1128 8.5Z" stroke="#333333" stroke-linecap="round" stroke-linejoin="round"/>
<path id="Vector_2" d="M18.1128 22.5C19.7696 22.5 21.1128 21.1569 21.1128 19.5C21.1128 17.8431 19.7696 16.5 18.1128 16.5C16.4559 16.5 15.1128 17.8431 15.1128 19.5C15.1128 21.1569 16.4559 22.5 18.1128 22.5Z" stroke="#333333" stroke-linecap="round" stroke-linejoin="round"/>
<path id="Vector_3" d="M6.11279 15.5C7.76965 15.5 9.11279 14.1569 9.11279 12.5C9.11279 10.8431 7.76965 9.5 6.11279 9.5C4.45594 9.5 3.11279 10.8431 3.11279 12.5C3.11279 14.1569 4.45594 15.5 6.11279 15.5Z" stroke="#333333" stroke-linecap="round" stroke-linejoin="round"/>
<path id="Vector_4" d="M15.521 7.01196L8.70703 10.987M15.521 17.988L8.70703 14.013" stroke="#333333" stroke-linecap="round" stroke-linejoin="round"/>
</g>
</svg>
