<svg width="122" height="33" viewBox="0 0 122 33" fill="none" xmlns="http://www.w3.org/2000/svg">
<g id="PayPal 1" clip-path="url(#clip0_3569_9764)">
<g id="Group">
<path id="Vector" d="M39.2904 7.36328C39.0412 7.36328 38.8295 7.54362 38.7905 7.78919L35.906 26.0247C35.8956 26.0913 35.8997 26.1594 35.9181 26.2243C35.9365 26.2892 35.9689 26.3493 36.0128 26.4005C36.0568 26.4518 36.1113 26.4929 36.1728 26.5211C36.2342 26.5493 36.301 26.564 36.3687 26.564H39.7895C40.0383 26.564 40.2503 26.3833 40.2893 26.1381L41.1366 20.7831C41.1752 20.5378 41.3872 20.3571 41.6364 20.3571H44.7465C48.3804 20.3571 51.4651 17.714 52.0285 14.1325C52.5966 10.5207 49.7661 7.37112 45.7544 7.36328H39.2904ZM42.6157 11.4342H45.104C47.1526 11.4342 47.8198 12.6392 47.6088 13.9718C47.3979 15.3072 46.3618 16.2909 44.3801 16.2909H41.8473L42.6157 11.4342ZM58.9859 12.6737C58.1221 12.6769 57.1282 12.8534 56.0124 13.3167C53.4529 14.3802 52.2237 16.5782 51.7018 18.1806C51.7018 18.1806 50.0403 23.0694 53.794 25.7553C53.794 25.7553 57.2752 28.341 61.194 25.596L61.1264 26.0247C61.1159 26.0913 61.12 26.1593 61.1384 26.2241C61.1568 26.2889 61.189 26.349 61.2329 26.4003C61.2768 26.4515 61.3313 26.4927 61.3926 26.5209C61.454 26.5492 61.5207 26.5639 61.5883 26.564H64.8357C65.0849 26.564 65.2965 26.3833 65.3355 26.1381L67.3108 13.6503C67.3214 13.5837 67.3174 13.5156 67.2991 13.4507C67.2807 13.3858 67.2485 13.3256 67.2046 13.2743C67.1607 13.223 67.1062 13.1817 67.0448 13.1534C66.9834 13.1251 66.9166 13.1104 66.8489 13.1103H63.6015C63.3523 13.1103 63.1403 13.291 63.1017 13.5362L62.9955 14.2084C62.9955 14.2084 61.5776 12.6641 58.9859 12.6737ZM59.0921 16.6181C59.465 16.6181 59.8061 16.6694 60.1121 16.7674C61.5132 17.2158 62.3077 18.5577 62.0778 20.0121C61.7943 21.8031 60.3209 23.1218 58.4314 23.1218C58.0589 23.1218 57.7178 23.0708 57.4114 22.9728C56.0106 22.5245 55.2112 21.1826 55.4411 19.7281C55.7246 17.9371 57.2026 16.6181 59.0921 16.6181Z" fill="#003087"/>
<path id="Vector_2" d="M86.054 7.36328C85.8048 7.36328 85.5932 7.54362 85.5542 7.78919L82.6697 26.0247C82.6592 26.0913 82.6634 26.1594 82.6818 26.2243C82.7002 26.2892 82.7325 26.3493 82.7765 26.4005C82.8205 26.4518 82.875 26.4929 82.9365 26.5211C82.9979 26.5493 83.0647 26.564 83.1324 26.564H86.5531C86.802 26.564 87.014 26.3833 87.0529 26.1381L87.9003 20.7831C87.9389 20.5378 88.1509 20.3571 88.4001 20.3571H91.5102C95.144 20.3571 98.2284 17.714 98.7915 14.1325C99.36 10.5207 96.5298 7.37112 92.518 7.36328H86.054ZM89.3794 11.4342H91.8677C93.9163 11.4342 94.5835 12.6392 94.3725 13.9718C94.1616 15.3072 93.1258 16.2909 91.1437 16.2909H88.611L89.3794 11.4342ZM105.749 12.6737C104.885 12.6769 103.892 12.8534 102.776 13.3167C100.216 14.3802 98.987 16.5782 98.4651 18.1806C98.4651 18.1806 96.8044 23.0694 100.558 25.7553C100.558 25.7553 104.038 28.341 107.958 25.596L107.89 26.0247C107.88 26.0913 107.884 26.1594 107.902 26.2243C107.921 26.2892 107.953 26.3493 107.997 26.4005C108.041 26.4518 108.095 26.4929 108.157 26.5211C108.218 26.5493 108.285 26.564 108.353 26.564H111.6C111.849 26.564 112.061 26.3833 112.1 26.1381L114.076 13.6503C114.086 13.5836 114.082 13.5155 114.064 13.4505C114.045 13.3855 114.013 13.3253 113.969 13.274C113.925 13.2227 113.871 13.1815 113.809 13.1532C113.748 13.125 113.681 13.1103 113.613 13.1103H110.366C110.116 13.1103 109.904 13.291 109.866 13.5362L109.76 14.2084C109.76 14.2084 108.341 12.6641 105.749 12.6737ZM105.855 16.6181C106.228 16.6181 106.569 16.6694 106.875 16.7674C108.277 17.2158 109.071 18.5577 108.841 20.0121C108.558 21.8031 107.084 23.1218 105.195 23.1218C104.822 23.1218 104.481 23.0708 104.175 22.9728C102.774 22.5245 101.975 21.1826 102.204 19.7281C102.488 17.9371 103.966 16.6181 105.855 16.6181Z" fill="#0070E0"/>
<path id="Vector_3" d="M68.8509 13.1117C68.5935 13.1117 68.4105 13.3622 68.4891 13.6064L72.0493 24.6197L68.8302 29.8097C68.674 30.0617 68.8556 30.3871 69.1527 30.3871H72.9574C73.0662 30.387 73.1732 30.3589 73.268 30.3056C73.3627 30.2523 73.4421 30.1755 73.4984 30.0827L83.4414 13.6855C83.5941 13.4335 83.4118 13.1113 83.1165 13.1113H79.3121C79.2022 13.1114 79.0942 13.14 78.9988 13.1943C78.9034 13.2486 78.8238 13.3268 78.7679 13.421L74.8541 20.0081L72.8674 13.4699C72.8026 13.2571 72.6056 13.1113 72.3829 13.1113L68.8509 13.1117Z" fill="#003087"/>
<path id="Vector_4" d="M117.766 7.36328C117.517 7.36328 117.305 7.54398 117.266 7.78919L114.381 26.024C114.37 26.0907 114.374 26.1588 114.393 26.2238C114.411 26.2888 114.443 26.349 114.487 26.4003C114.531 26.4516 114.586 26.4928 114.647 26.5211C114.709 26.5493 114.776 26.564 114.843 26.564H118.264C118.513 26.564 118.725 26.3833 118.764 26.1381L121.648 7.90252C121.659 7.83597 121.655 7.76795 121.636 7.70312C121.618 7.6383 121.586 7.57821 121.542 7.52698C121.498 7.47575 121.444 7.43459 121.382 7.40634C121.321 7.37808 121.254 7.36339 121.187 7.36328H117.766Z" fill="#0070E0"/>
<path id="Vector_5" d="M10.7721 7.36328C10.5517 7.36346 10.3386 7.44198 10.1711 7.58472C10.0036 7.72745 9.89268 7.92506 9.85822 8.14203L8.33984 17.7422C8.41063 17.2938 8.79818 16.9634 9.25366 16.9634H13.703C18.181 16.9634 21.9807 13.707 22.675 9.29394C22.7267 8.96447 22.756 8.6319 22.7627 8.29849C21.6247 7.70365 20.2879 7.36328 18.8231 7.36328H10.7721Z" fill="#001C64"/>
<path id="Vector_6" d="M22.7633 8.29883C22.7567 8.63223 22.7274 8.9648 22.6757 9.29427C21.9814 13.7073 18.1813 16.9638 13.7037 16.9638H9.25433C8.7992 16.9638 8.4113 17.2938 8.34051 17.7425L6.94437 26.5643L6.06988 32.0986C6.05281 32.2055 6.05921 32.3149 6.08864 32.4191C6.11808 32.5233 6.16986 32.6199 6.24039 32.7022C6.31092 32.7846 6.39852 32.8507 6.49716 32.896C6.5958 32.9413 6.70313 32.9647 6.81174 32.9647H11.6412C11.8615 32.9645 12.0746 32.886 12.2421 32.7432C12.4096 32.6005 12.5205 32.4029 12.555 32.1859L13.827 24.1429C13.8615 23.9258 13.9726 23.7281 14.1402 23.5853C14.3079 23.4426 14.5211 23.3641 14.7416 23.3641H17.585C22.0629 23.3641 25.8627 20.1076 26.557 15.6946C27.05 12.5625 25.4676 9.71234 22.7633 8.29883Z" fill="#0070E0"/>
<path id="Vector_7" d="M5.28516 0.964844C4.83004 0.964844 4.44213 1.29488 4.37134 1.74288L0.581593 25.6991C0.509731 26.1539 0.862257 26.5652 1.32418 26.5652H6.94407L8.33949 17.7434L9.85787 8.14323C9.89232 7.92626 10.0033 7.72865 10.1708 7.58591C10.3383 7.44317 10.5513 7.36466 10.7717 7.36448H18.8228C20.2879 7.36448 21.6243 7.7052 22.7623 8.29969C22.8402 4.28192 19.5146 0.964844 14.9422 0.964844H5.28516Z" fill="#003087"/>
</g>
</g>
<defs>
<clipPath id="clip0_3569_9764">
<rect width="121.081" height="32" fill="white" transform="translate(0.572266 0.964844)"/>
</clipPath>
</defs>
</svg>
