<svg width="74" height="71" viewBox="0 0 74 71" fill="none" xmlns="http://www.w3.org/2000/svg">
<g clip-path="url(#clip0_4045_1461)">
<path d="M29.6931 67.6895L28.4606 68.9229L22.7449 74.8633L3.24219 63.9912L9.18343 55.1366L14.2272 49.4203L15.2351 38.8844L19.8298 24.5378L25.0983 23.6416L38.5478 27.7886L40.5649 44.7127C33.8029 41.4996 21.2427 36.2839 25.0983 41.1259C28.954 45.9679 28.9464 55.1739 28.4606 59.1716H45.9459C42.5385 66.1656 33.6909 67.7644 29.6931 67.6895Z" fill="url(#paint0_linear_4045_1461)"/>
<rect x="50.1406" y="29.665" width="11.411" height="18.2939" transform="rotate(-7.72565 50.1406 29.665)" fill="url(#paint1_linear_4045_1461)"/>
<rect x="53.3574" y="21.2471" width="10.7773" height="5.14258" transform="rotate(-31.4456 53.3574 21.2471)" fill="url(#paint2_linear_4045_1461)"/>
<path d="M26.0006 2.81445H56.4889V57.7939H29.0006L25.2539 39.1095L26.0006 2.81445Z" fill="url(#paint3_linear_4045_1461)"/>
<path d="M27.8973 61.9114C27.8282 61.9115 27.7592 61.9053 27.6912 61.893C27.5442 61.8661 27.4038 61.8105 27.2782 61.7294C27.1527 61.6483 27.0443 61.5433 26.9593 61.4203C26.8743 61.2973 26.8144 61.1588 26.7829 61.0126C26.7515 60.8664 26.7491 60.7155 26.776 60.5685C29.0166 48.298 24.1008 41.1126 24.0516 41.0415C23.9209 40.8552 23.8491 40.6339 23.8454 40.4063C23.8417 40.1788 23.9063 39.9553 24.0308 39.7648C24.7597 38.6498 25.2879 35.4171 25.3143 31.9035C25.3479 27.5578 24.6387 25.4641 24.31 25.1761C23.9005 24.8963 23.4282 24.7221 22.9351 24.6689C22.4421 24.6157 21.9435 24.6851 21.4837 24.871C21.1335 25.0086 20.8268 25.2381 20.596 25.5353C20.3652 25.8325 20.2187 26.1864 20.172 26.5598C19.9506 28.0004 19.265 30.0417 18.4707 32.4053C17.5948 35.013 16.6018 37.969 16.1343 40.4837C15.6013 43.5118 15.3455 46.5821 15.3698 49.6566C15.3768 49.9459 15.2735 50.2269 15.0807 50.4427L10.6203 55.4353C10.5207 55.5468 10.4001 55.6376 10.2655 55.7025C10.1308 55.7674 9.98466 55.8051 9.8354 55.8136C9.68614 55.822 9.53669 55.801 9.39556 55.7516C9.25444 55.7023 9.12442 55.6257 9.01291 55.5261C8.90141 55.4265 8.81061 55.3059 8.74571 55.1713C8.6808 55.0366 8.64305 54.8904 8.63462 54.7412C8.62619 54.5919 8.64724 54.4425 8.69657 54.3013C8.74591 54.1602 8.82255 54.0302 8.92213 53.9187L13.0871 49.2554C13.0864 46.1749 13.3569 43.1003 13.8957 40.0673C14.3928 37.3953 15.4128 34.359 16.3127 31.6804C17.0415 29.5104 17.73 27.4611 17.9221 26.2134C18.0289 25.4548 18.3331 24.7375 18.8042 24.1334C19.2752 23.5292 19.8967 23.0593 20.6063 22.7707C21.4272 22.4351 22.3191 22.3111 23.2004 22.41C24.0816 22.509 24.9239 22.8277 25.6499 23.337C28.3435 25.2825 27.9807 36.4453 26.2925 40.334C27.5091 42.4067 31.0767 49.6905 29.0154 60.9791C28.9673 61.2407 28.8291 61.4771 28.6249 61.6474C28.4206 61.8177 28.1632 61.9111 27.8973 61.9114Z" fill="#FFFAE3"/>
<path d="M25.9543 72.141C25.731 72.1409 25.5127 72.0751 25.3265 71.9519C25.1403 71.8287 24.9945 71.6534 24.9072 71.448C24.8198 71.2425 24.7948 71.0159 24.8352 70.7964C24.8757 70.5768 24.9798 70.374 25.1346 70.2131L29.0173 66.1808C29.1481 66.0447 29.3107 65.9434 29.4905 65.8859C29.6703 65.8284 29.8615 65.8166 30.047 65.8515C30.0894 65.8595 34.5151 66.6438 38.2887 64.7575C42.2195 62.7921 44.2287 61.3481 45.0173 58.4569C45.0991 58.1684 45.2913 57.9239 45.5524 57.7763C45.8134 57.6287 46.1221 57.5901 46.4114 57.6688C46.7008 57.7475 46.9473 57.9372 47.0976 58.1967C47.2479 58.4562 47.2898 58.7644 47.2141 59.0546C46.2092 62.7383 43.6598 64.6161 39.307 66.7923C35.7027 68.5947 31.7571 68.359 30.2524 68.1789L26.7742 71.7923C26.6681 71.9028 26.5408 71.9906 26.3999 72.0505C26.259 72.1104 26.1074 72.1412 25.9543 72.141Z" fill="#FFFAE3"/>
<path d="M57.6196 49.2376C57.3243 49.2378 57.0404 49.1232 56.8279 48.918C56.6155 48.7128 56.4911 48.4331 56.4811 48.1379C56.4711 47.8427 56.5762 47.5551 56.7743 47.336C56.9723 47.1168 57.2478 46.9833 57.5425 46.9635L60.6776 46.748C61.2338 46.6982 61.7477 46.4305 62.1074 46.0033C62.4671 45.5762 62.6433 45.0242 62.5978 44.4676C62.5522 43.9111 62.2886 43.3951 61.8642 43.0321C61.4399 42.6691 60.8893 42.4886 60.3324 42.5298L58.3425 42.6872C58.1931 42.6997 58.0427 42.6825 57.9 42.6367C57.7572 42.5909 57.625 42.5174 57.5107 42.4203C57.3965 42.3232 57.3025 42.2046 57.2343 42.0711C57.166 41.9376 57.1248 41.792 57.113 41.6426C57.1011 41.4931 57.1189 41.3428 57.1654 41.2003C57.2118 41.0577 57.2859 40.9258 57.3835 40.8119C57.481 40.6981 57.6001 40.6047 57.7339 40.537C57.8676 40.4693 58.0134 40.4287 58.1629 40.4176L60.1528 40.2602C61.3091 40.1776 62.4512 40.5554 63.3302 41.3114C64.2091 42.0673 64.7536 43.14 64.845 44.2956C64.9364 45.4513 64.5673 46.5963 63.8181 47.4809C63.0689 48.3656 62.0004 48.9183 60.8455 49.0185L57.6988 49.2348C57.6723 49.2368 57.6458 49.2376 57.6196 49.2376Z" fill="#FFFAE3"/>
<path d="M57.6198 42.6903C57.3245 42.689 57.0413 42.5731 56.8299 42.3669C56.6185 42.1608 56.4955 41.8806 56.4868 41.5854C56.4781 41.2903 56.5845 41.0033 56.7834 40.7851C56.9823 40.5669 57.2582 40.4345 57.5529 40.4159L60.1748 40.2585C60.7309 40.2072 61.2441 39.9383 61.6027 39.5103C61.9613 39.0823 62.1362 38.5299 62.0893 37.9735C62.0424 37.417 61.7775 36.9017 61.3523 36.5398C60.9272 36.1778 60.3761 35.9986 59.8194 36.0411L57.8295 36.1985C57.5285 36.2223 57.2304 36.1256 57.0007 35.9296C56.771 35.7335 56.6286 35.4543 56.6048 35.1533C56.581 34.8523 56.6777 34.5542 56.8737 34.3245C57.0697 34.0948 57.3489 33.9524 57.6499 33.9286L59.6401 33.7715C60.8015 33.6797 61.9518 34.053 62.8379 34.8093C63.7241 35.5656 64.2735 36.6429 64.3653 37.8043C64.4571 38.9657 64.0838 40.116 63.3275 41.0021C62.5712 41.8883 61.4939 42.4377 60.3325 42.5295L57.6881 42.6886C57.6659 42.6886 57.6428 42.6903 57.6198 42.6903Z" fill="#FFFAE3"/>
<path d="M57.7377 36.2013C57.4434 36.2015 57.1604 36.0877 56.9482 35.8837C56.736 35.6797 56.611 35.4015 56.5995 35.1074C56.588 34.8133 56.6909 34.5261 56.8866 34.3062C57.0822 34.0863 57.3555 33.9508 57.6489 33.928L59.6391 33.7709C59.9161 33.749 60.1861 33.6728 60.4336 33.5466C60.6812 33.4204 60.9014 33.2466 61.0818 33.0353C61.2622 32.8239 61.3992 32.5791 61.485 32.3148C61.5708 32.0505 61.6037 31.7719 61.5818 31.4949C61.56 31.2179 61.4837 30.9479 61.3575 30.7003C61.2313 30.4528 61.0575 30.2325 60.8462 30.0521C60.6348 29.8717 60.39 29.7347 60.1257 29.6489C59.8614 29.5631 59.5828 29.5302 59.3058 29.5521L57.7095 29.6782C57.4093 29.7006 57.1124 29.6032 56.8839 29.4073C56.6553 29.2114 56.5136 28.9329 56.4899 28.6328C56.4661 28.3327 56.5622 28.0354 56.7572 27.8059C56.9521 27.5765 57.23 27.4336 57.53 27.4086L59.1262 27.2822C60.2877 27.1904 61.438 27.5638 62.3241 28.3201C63.2103 29.0765 63.7597 30.1539 63.8515 31.3153C63.9432 32.4767 63.5699 33.627 62.8135 34.5132C62.0572 35.3993 60.9798 35.9487 59.8184 36.0405L57.8285 36.1979C57.7981 36.1993 57.7676 36.2013 57.7377 36.2013Z" fill="#FFFAE3"/>
<path d="M57.6216 27.1517C57.3816 27.1519 57.1476 27.0763 56.9531 26.9356C56.7586 26.7949 56.6135 26.5963 56.5387 26.3682C56.4638 26.1402 56.463 25.8942 56.5363 25.6656C56.6096 25.4371 56.7533 25.2375 56.9469 25.0955L62.8917 20.7296C63.3193 20.374 63.5897 19.8645 63.6445 19.3111C63.6993 18.7578 63.534 18.2051 63.1845 17.7726C62.835 17.3401 62.3293 17.0626 61.7767 17.0001C61.2242 16.9376 60.6692 17.0951 60.2319 17.4385L58.373 19.0755C58.2616 19.1792 58.1307 19.2594 57.9878 19.3116C57.8449 19.3638 57.693 19.3868 57.5411 19.3792C57.3892 19.3717 57.2403 19.3338 57.1033 19.2678C56.9662 19.2018 56.8438 19.109 56.7433 18.9949C56.6427 18.8807 56.566 18.7476 56.5178 18.6034C56.4695 18.4591 56.4507 18.3067 56.4623 18.155C56.474 18.0034 56.5159 17.8556 56.5857 17.7204C56.6554 17.5852 56.7515 17.4654 56.8683 17.368L58.7466 15.7131C58.7586 15.7023 58.7711 15.692 58.7836 15.6818C59.69 14.9496 60.85 14.6075 62.0086 14.7307C62.5823 14.7917 63.1383 14.9651 63.645 15.241C64.1517 15.5168 64.599 15.8898 64.9615 16.3386C65.3241 16.7874 65.5946 17.3032 65.7578 17.8565C65.921 18.4098 65.9736 18.9899 65.9126 19.5636C65.8516 20.1373 65.6782 20.6933 65.4024 21.2C65.1265 21.7066 64.7535 22.154 64.3047 22.5165C64.2913 22.5276 64.2777 22.5381 64.2637 22.5487L58.2956 26.9314C58.1002 27.0749 57.8641 27.1521 57.6216 27.1517Z" fill="#FFFAE3"/>
<path d="M57.6211 49.3752C57.3192 49.3752 57.0297 49.2552 56.8162 49.0418C56.6027 48.8283 56.4828 48.5387 56.4828 48.2368V5.72537C56.4828 4.21703 55.0282 2.99158 53.2401 2.99158H29.3629C27.5745 2.99158 26.1185 4.21788 26.1185 5.72537V24.2583C26.1185 24.5602 25.9986 24.8497 25.7851 25.0632C25.5716 25.2767 25.2821 25.3966 24.9802 25.3966C24.6782 25.3966 24.3887 25.2767 24.1752 25.0632C23.9617 24.8497 23.8418 24.5602 23.8418 24.2583V5.72537C23.8418 2.96255 26.3177 0.714844 29.3629 0.714844H53.2401C56.2835 0.714844 58.7595 2.96312 58.7595 5.72537V48.2368C58.7595 48.5387 58.6396 48.8283 58.4261 49.0418C58.2126 49.2552 57.923 49.3752 57.6211 49.3752Z" fill="#FFFAE3"/>
<path d="M53.2392 59.729H28.6306C28.3286 59.729 28.0391 59.609 27.8256 59.3956C27.6121 59.1821 27.4922 58.8925 27.4922 58.5906C27.4922 58.2887 27.6121 57.9992 27.8256 57.7857C28.0391 57.5722 28.3286 57.4522 28.6306 57.4522H53.2392C55.0273 57.4522 56.4818 56.2254 56.4818 54.7173V47.8649C56.4818 47.563 56.6018 47.2735 56.8153 47.06C57.0287 46.8465 57.3183 46.7266 57.6202 46.7266C57.9221 46.7266 58.2117 46.8465 58.4251 47.06C58.6386 47.2735 58.7586 47.563 58.7586 47.8649V54.7173C58.7586 57.4807 56.2826 59.729 53.2392 59.729Z" fill="#FFFAE3"/>
<path d="M57.4419 9.12439H25.0641C24.7622 9.12439 24.4727 9.00445 24.2592 8.79097C24.0457 8.57748 23.9258 8.28794 23.9258 7.98602C23.9258 7.68411 24.0457 7.39456 24.2592 7.18108C24.4727 6.96759 24.7622 6.84766 25.0641 6.84766H57.4419C57.7438 6.84766 58.0333 6.96759 58.2468 7.18108C58.4603 7.39456 58.5802 7.68411 58.5802 7.98602C58.5802 8.28794 58.4603 8.57748 58.2468 8.79097C58.0333 9.00445 57.7438 9.12439 57.4419 9.12439Z" fill="#FFFAE3"/>
<path d="M57.622 53.2572H28.8845C28.5825 53.2572 28.293 53.1373 28.0795 52.9238C27.866 52.7103 27.7461 52.4207 27.7461 52.1188C27.7461 51.8169 27.866 51.5274 28.0795 51.3139C28.293 51.1004 28.5825 50.9805 28.8845 50.9805H57.622C57.9239 50.9805 58.2134 51.1004 58.4269 51.3139C58.6404 51.5274 58.7603 51.8169 58.7603 52.1188C58.7603 52.4207 58.6404 52.7103 58.4269 52.9238C58.2134 53.1373 57.9239 53.2572 57.622 53.2572Z" fill="#FFFAE3"/>
</g>
<defs>
<linearGradient id="paint0_linear_4045_1461" x1="3.24219" y1="49.2524" x2="45.9459" y2="49.2524" gradientUnits="userSpaceOnUse">
<stop stop-color="#FFDE00"/>
<stop offset="1" stop-color="#FD5900"/>
</linearGradient>
<linearGradient id="paint1_linear_4045_1461" x1="50.1406" y1="38.812" x2="61.5516" y2="38.812" gradientUnits="userSpaceOnUse">
<stop stop-color="#FFDE00"/>
<stop offset="1" stop-color="#FD5900"/>
</linearGradient>
<linearGradient id="paint2_linear_4045_1461" x1="53.3574" y1="23.8184" x2="64.1348" y2="23.8184" gradientUnits="userSpaceOnUse">
<stop stop-color="#FFDE00"/>
<stop offset="1" stop-color="#FD5900"/>
</linearGradient>
<linearGradient id="paint3_linear_4045_1461" x1="25.2539" y1="30.3042" x2="56.4889" y2="30.3042" gradientUnits="userSpaceOnUse">
<stop stop-color="#FFDE00"/>
<stop offset="1" stop-color="#FD5900"/>
</linearGradient>
<clipPath id="clip0_4045_1461">
<rect width="72.8555" height="72.8555" fill="white" transform="translate(0.855469)"/>
</clipPath>
</defs>
</svg>
