<svg width="40" height="40" viewBox="0 0 40 40" fill="none" xmlns="http://www.w3.org/2000/svg">
<g id="vuesax/linear/call-calling">
<g id="call-calling">
<g id="call-calling_2">
<path id="Vector" d="M36.6168 30.5507C36.6168 31.1507 36.4835 31.7673 36.2002 32.3673C35.9168 32.9673 35.5502 33.534 35.0668 34.0673C34.2502 34.9673 33.3502 35.6173 32.3335 36.034C31.3335 36.4507 30.2502 36.6673 29.0835 36.6673C27.3835 36.6673 25.5668 36.2673 23.6502 35.4507C21.7335 34.634 19.8168 33.534 17.9168 32.1507C16.0002 30.7507 14.1835 29.2006 12.4502 27.484C10.7335 25.7507 9.1835 23.934 7.80016 22.034C6.4335 20.134 5.3335 18.234 4.5335 16.3507C3.7335 14.4507 3.3335 12.634 3.3335 10.9007C3.3335 9.76732 3.5335 8.68398 3.9335 7.68398C4.3335 6.66732 4.96683 5.73398 5.85016 4.90065C6.91683 3.85065 8.0835 3.33398 9.31683 3.33398C9.7835 3.33398 10.2502 3.43398 10.6668 3.63398C11.1002 3.83398 11.4835 4.13398 11.7835 4.56732L15.6502 10.0173C15.9502 10.434 16.1668 10.8173 16.3168 11.184C16.4668 11.534 16.5502 11.884 16.5502 12.2007C16.5502 12.6007 16.4335 13.0007 16.2002 13.384C15.9835 13.7673 15.6668 14.1673 15.2668 14.5673L14.0002 15.884C13.8168 16.0673 13.7335 16.284 13.7335 16.5507C13.7335 16.684 13.7502 16.8007 13.7835 16.934C13.8335 17.0673 13.8835 17.1673 13.9168 17.2673C14.2168 17.8173 14.7335 18.534 15.4668 19.4007C16.2168 20.2673 17.0168 21.1507 17.8835 22.034C18.7835 22.9173 19.6502 23.734 20.5335 24.484C21.4002 25.2173 22.1168 25.7173 22.6835 26.0173C22.7668 26.0506 22.8668 26.1006 22.9835 26.1506C23.1168 26.2006 23.2502 26.2173 23.4002 26.2173C23.6835 26.2173 23.9002 26.1173 24.0835 25.934L25.3502 24.684C25.7668 24.2673 26.1668 23.9507 26.5502 23.7507C26.9335 23.5173 27.3168 23.4007 27.7335 23.4007C28.0502 23.4007 28.3835 23.4673 28.7502 23.6173C29.1168 23.7673 29.5002 23.984 29.9168 24.2673L35.4335 28.184C35.8668 28.484 36.1668 28.834 36.3502 29.2506C36.5168 29.6673 36.6168 30.084 36.6168 30.5507Z" stroke="#292D32" stroke-width="2.5" stroke-miterlimit="10"/>
<path id="Vector_2" d="M30.8333 15.0013C30.8333 14.0013 30.05 12.468 28.8833 11.218C27.8167 10.068 26.4 9.16797 25 9.16797" stroke="#292D32" stroke-width="2.5" stroke-linecap="round" stroke-linejoin="round"/>
<path id="Vector_3" d="M36.6667 15.0007C36.6667 8.55065 31.45 3.33398 25 3.33398" stroke="#292D32" stroke-width="2.5" stroke-linecap="round" stroke-linejoin="round"/>
</g>
</g>
</g>
</svg>
