<svg width="156" height="38" viewBox="0 0 156 38" fill="none" xmlns="http://www.w3.org/2000/svg">
<path d="M58.2296 9.49897C59.1456 9.33024 60.1941 9.19766 61.3752 9.10125C62.5805 9.00483 63.6772 8.95662 64.6655 8.95662C65.7743 8.95662 66.8229 9.07714 67.8111 9.31819C68.8235 9.55923 69.7034 9.95696 70.4506 10.5114C71.2219 11.0658 71.8366 11.7889 72.2946 12.6808C72.7526 13.5726 72.9816 14.6573 72.9816 15.9349C72.9816 17.9115 72.4392 19.5144 71.3545 20.7437C70.2698 21.9731 68.8959 22.7926 67.2326 23.2024L68.9682 24.5402L75.2595 34.5557H71.7522L64.774 23.6363L61.2306 23.0939V34.5557H58.2296V9.49897ZM64.7378 11.5599C64.4245 11.5599 64.099 11.5599 63.7616 11.5599C63.4241 11.5599 63.0987 11.572 62.7853 11.5961C62.472 11.6202 62.1707 11.6443 61.8814 11.6684C61.6163 11.6925 61.3993 11.7286 61.2306 11.7769V21.1053H64.0508C65.714 21.1053 67.088 20.6955 68.1727 19.876C69.2574 19.0564 69.7998 17.7789 69.7998 16.0434C69.7998 14.7417 69.3538 13.6691 68.462 12.8254C67.5701 11.9817 66.3287 11.5599 64.7378 11.5599ZM79.0099 9.49897C79.9259 9.33024 80.9744 9.19766 82.1555 9.10125C83.3608 9.00483 84.4575 8.95662 85.4458 8.95662C86.5546 8.95662 87.6032 9.07714 88.5914 9.31819C89.6038 9.55923 90.4836 9.95696 91.2309 10.5114C92.0022 11.0658 92.6169 11.7889 93.0749 12.6808C93.5329 13.5726 93.7619 14.6573 93.7619 15.9349C93.7619 17.9115 93.2195 19.5144 92.1348 20.7437C91.0501 21.9731 89.6761 22.7926 88.0129 23.2024L89.7485 24.5402L96.0398 34.5557H92.5325L85.5543 23.6363L82.0109 23.0939V34.5557H79.0099V9.49897ZM85.5181 11.5599C85.2048 11.5599 84.8793 11.5599 84.5419 11.5599C84.2044 11.5599 83.879 11.572 83.5656 11.5961C83.2523 11.6202 82.951 11.6443 82.6617 11.6684C82.3966 11.6925 82.1796 11.7286 82.0109 11.7769V21.1053H84.8311C86.4943 21.1053 87.8683 20.6955 88.953 19.876C90.0377 19.0564 90.5801 17.7789 90.5801 16.0434C90.5801 14.7417 90.1341 13.6691 89.2423 12.8254C88.3504 11.9817 87.109 11.5599 85.5181 11.5599ZM100.477 9.24587H103.478V34.5557H100.477V9.24587ZM114.145 17.9958L112.193 14.344H112.048L112.409 17.9958V34.5557H109.589V8.84815H111.18L123.293 25.7334L125.173 29.2045H125.354L124.956 25.7334V9.24587H127.776V34.9534H126.185L114.145 17.9958ZM144.62 28.1197C144.62 27.1074 144.319 26.2878 143.716 25.6611C143.113 25.0103 142.354 24.4438 141.438 23.9617C140.546 23.4555 139.57 22.9855 138.509 22.5516C137.449 22.1177 136.46 21.5995 135.544 20.9968C134.653 20.3701 133.905 19.6108 133.303 18.719C132.7 17.803 132.399 16.646 132.399 15.2479C132.399 13.2713 133.086 11.7045 134.46 10.5475C135.834 9.3905 137.786 8.81199 140.317 8.81199C141.788 8.81199 143.125 8.92046 144.331 9.1374C145.536 9.35435 146.476 9.63155 147.151 9.96901L146.247 12.6085C145.693 12.3433 144.873 12.0902 143.788 11.8492C142.728 11.6081 141.522 11.4876 140.173 11.4876C138.582 11.4876 137.388 11.8492 136.593 12.5723C135.798 13.2713 135.4 14.1029 135.4 15.0671C135.4 16.0072 135.701 16.7906 136.304 17.4173C136.906 18.044 137.654 18.6105 138.546 19.1167C139.461 19.5988 140.45 20.0809 141.51 20.563C142.571 21.0451 143.547 21.6115 144.439 22.2623C145.355 22.8891 146.114 23.6483 146.717 24.5402C147.32 25.4321 147.621 26.5409 147.621 27.8666C147.621 28.9514 147.428 29.9276 147.042 30.7954C146.657 31.6631 146.09 32.4104 145.343 33.0371C144.596 33.6638 143.692 34.1459 142.631 34.4834C141.571 34.8208 140.365 34.9895 139.016 34.9895C137.208 34.9895 135.713 34.8449 134.532 34.5557C133.351 34.2905 132.435 33.9892 131.784 33.6517L132.797 30.94C133.351 31.2533 134.171 31.5667 135.255 31.8801C136.34 32.1693 137.557 32.3139 138.907 32.3139C139.703 32.3139 140.45 32.2416 141.149 32.097C141.848 31.9283 142.45 31.6752 142.957 31.3377C143.463 30.9761 143.861 30.5302 144.15 29.9999C144.463 29.4696 144.62 28.8429 144.62 28.1197Z" fill="#222222"/>
<path d="M23.5861 11.9215H15.704V34.5557H12.7029V11.9215H4.82075V9.24587H23.5861V11.9215Z" fill="#222222"/>
<circle cx="37.7437" cy="23.0593" r="12.1353" stroke="#FFC444" stroke-width="2.73671"/>
<line x1="21.1893" y1="17.4196" x2="54.0085" y2="17.4196" stroke="#FFC444" stroke-width="0.684179"/>
<line x1="21.1893" y1="22.7165" x2="54.0085" y2="22.7165" stroke="#FFC444" stroke-width="0.684179"/>
<line x1="21.1893" y1="27.8884" x2="54.0085" y2="27.8884" stroke="#FFC444" stroke-width="0.684179"/>
<g clip-path="url(#clip0_5326_120)">
<path d="M42.7398 19.1519C39.201 18.2037 34.5145 16.2603 31.9726 13.6493C30.9114 12.5594 30.452 11.4952 30.6064 10.4856C30.8046 9.19058 31.9647 8.30893 32.6384 7.89867L33.1402 7.59625L33.0417 8.06751C33.0767 8.39175 33.1925 8.74317 33.3873 9.11188C34.733 11.6686 39.5572 14.5777 43.045 15.5894C43.1728 15.6264 43.2996 15.6618 43.4267 15.6959C46.4582 16.5082 49.2554 16.4942 50.7275 15.6597C50.8527 15.5889 50.9659 15.5125 51.0639 15.4322L51.2392 15.05L51.4735 15.531C51.8251 16.2925 51.7201 17.3216 51.2067 18.1526C50.8165 18.7842 49.8473 19.8532 47.7375 19.9144C46.4859 19.9509 44.7108 19.6801 42.7398 19.1519Z" fill="#F2F0F0"/>
<path d="M51.2061 18.1537C50.8165 18.7856 49.8448 19.8536 47.7375 19.9151C46.4842 19.9512 44.7106 19.6809 42.7416 19.1533C39.2011 18.2047 34.512 16.2613 31.9706 13.6486C30.9109 12.56 30.4517 11.4958 30.6049 10.4856C30.6488 10.1937 30.7457 9.92365 30.8707 9.67631C30.8328 10.6036 31.2983 11.5708 32.2609 12.565C34.8033 15.1742 39.4923 17.1176 43.0329 18.0663C45.0019 18.5939 46.7755 18.8641 48.0288 18.828C50.1361 18.7665 51.1078 17.6985 51.4974 17.0667C51.5597 16.9619 51.6175 16.856 51.6707 16.7488C51.6315 17.224 51.4749 17.7172 51.2061 18.1537Z" fill="#E2E0E0"/>
<path d="M43.4401 15.7147C43.3081 15.6793 43.175 15.6422 43.041 15.6033C39.5488 14.5904 34.7181 11.6772 33.3697 9.11587C32.8954 8.21454 32.8935 7.43848 33.3633 6.8094C35.2562 4.27785 43.535 0.0617367 48.2904 1.33594C48.4706 1.38423 48.6453 1.44068 48.8102 1.50357C53.4113 3.26254 56.1918 8.90873 56.9343 10.5974L57.0615 10.8866L56.6926 10.8319C55.8818 10.7119 55.1032 10.9195 54.6097 11.3871L54.3733 11.6107L54.1993 11.3144C53.7736 10.5905 52.8893 9.75944 51.9021 8.97496L51.8922 9.05863C51.8499 9.42349 51.4804 12.6724 51.6025 14.3564C51.6403 14.8757 51.3415 15.3305 50.7393 15.6721C49.6353 16.2982 47.061 16.6849 43.4401 15.7147Z" fill="#D81D1D"/>
<path d="M50.74 15.6723C49.6369 16.299 47.0604 16.6864 43.4376 15.7157C43.3097 15.6814 43.1736 15.6412 43.042 15.6021C39.5479 14.5899 34.7166 11.6787 33.371 9.11689C33.1756 8.74954 33.0635 8.4007 33.028 8.07619C34.9203 10.3518 38.9703 12.6704 42.0059 13.5483C42.142 13.5886 42.2735 13.6276 42.406 13.6631C46.0288 14.6338 48.6007 14.2452 49.7039 13.6185C50.3098 13.2761 50.3748 12.7774 50.5707 12.3023C51.2528 10.652 51.8034 9.45606 51.8925 9.03211L51.8904 9.05813C51.8513 9.42337 51.4805 12.6714 51.6023 14.3549C51.6386 14.877 51.3404 15.3322 50.74 15.6723Z" fill="#C61A1A"/>
<path d="M55.4892 14.2112C54.4881 13.943 53.8981 12.8879 54.1737 11.8594C54.4493 10.8308 55.4878 10.2123 56.4888 10.4805C57.4902 10.7489 58.0803 11.8037 57.8047 12.8323C57.5291 13.8609 56.4906 14.4795 55.4892 14.2112Z" fill="#F2F0F0"/>
<path d="M50.6664 5.42188L51.8219 9.68664L51.9021 8.97486C51.8144 7.08607 50.6664 5.42188 50.6664 5.42188Z" fill="#C41616"/>
</g>
<defs>
<clipPath id="clip0_5326_120">
<rect width="29" height="26" fill="white" transform="translate(30 1)"/>
</clipPath>
</defs>
</svg>
