<svg width="31" height="30" viewBox="0 0 31 30" fill="none" xmlns="http://www.w3.org/2000/svg">
<g id="Group 1410083661">
<circle id="Ellipse 3659" cx="15.5" cy="15" r="15" fill="url(#paint0_linear_1776_50376)"/>
<path id="Vector" d="M14.7595 7.50639C15.0155 6.8312 15.9843 6.8312 16.2411 7.50639L17.8971 12.0935C18.0131 12.3975 18.3083 12.5999 18.6379 12.5999H22.7074C23.4594 12.5999 23.7874 13.5359 23.1962 13.9943L20.3003 16.5999C20.1705 16.6996 20.0757 16.8378 20.0295 16.9948C19.9832 17.1517 19.9878 17.3193 20.0427 17.4734L21.1002 21.9558C21.3578 22.6758 20.5243 23.2942 19.8939 22.851L15.9603 20.355C15.8256 20.2603 15.665 20.2095 15.5003 20.2095C15.3357 20.2095 15.175 20.2603 15.0403 20.355L11.1068 22.851C10.4772 23.2942 9.64282 22.675 9.90042 21.9558L10.958 17.4734C11.0129 17.3193 11.0175 17.1517 10.9712 16.9948C10.9249 16.8378 10.8301 16.6996 10.7004 16.5999L7.80445 13.9943C7.21246 13.5359 7.54205 12.5999 8.29244 12.5999H12.362C12.5222 12.6004 12.6788 12.5523 12.8111 12.4619C12.9434 12.3715 13.0451 12.243 13.1028 12.0935L14.7587 7.50639H14.7595Z" fill="white"/>
</g>
<defs>
<linearGradient id="paint0_linear_1776_50376" x1="15.5" y1="0" x2="15.5" y2="30" gradientUnits="userSpaceOnUse">
<stop stop-color="#FFC544"/>
<stop offset="1" stop-color="#C18E1E"/>
</linearGradient>
</defs>
</svg>
