<svg width="24" height="24" viewBox="0 0 24 24" fill="none" xmlns="http://www.w3.org/2000/svg">
<path d="M16.6052 3.86749V14.336C16.6052 15.5075 15.6517 16.461 14.4802 16.461H4.01172C2.84025 16.461 1.88672 15.5075 1.88672 14.336V3.86749C1.88672 2.69603 2.84025 1.74249 4.01172 1.74249H14.4802C15.6517 1.74249 16.6052 2.69603 16.6052 3.86749ZM3.13672 3.86749V14.336C3.13672 14.8185 3.52918 15.211 4.01172 15.211H14.4802C14.9628 15.211 15.3552 14.8185 15.3552 14.336V3.86749C15.3552 3.38496 14.9628 2.99249 14.4802 2.99249H4.01172C3.52918 2.99249 3.13672 3.38496 3.13672 3.86749ZM18.1657 7.53899H19.9887C21.1602 7.53899 22.1137 8.49253 22.1137 9.66399V20.1325C22.1137 21.304 21.1602 22.2575 19.9887 22.2575H9.52072C8.34926 22.2575 7.39572 21.304 7.39572 20.1325V18.059C7.39572 17.714 7.67531 17.434 8.02072 17.434C8.36613 17.434 8.64572 17.714 8.64572 18.059V20.1325C8.64572 20.615 9.03818 21.0075 9.52072 21.0075H19.9887C20.4713 21.0075 20.8637 20.615 20.8637 20.1325V9.66399C20.8637 9.18146 20.4713 8.78899 19.9887 8.78899H18.1657C17.8207 8.78899 17.5407 8.5094 17.5407 8.16399C17.5407 7.81858 17.8207 7.53899 18.1657 7.53899Z" fill="#333333" stroke="white" stroke-width="0.25"/>
</svg>
