<svg width="24" height="24" viewBox="0 0 24 24" fill="none" xmlns="http://www.w3.org/2000/svg">
<g id="vuesax/linear/like">
<g id="vuesax/linear/like_2">
<g id="like">
<path id="Vector" d="M16.5195 5.64954L13.4195 3.24954C13.0195 2.84954 12.1195 2.64954 11.5195 2.64954L7.71953 2.64954C6.51953 2.64954 5.21953 3.54954 4.91953 4.74954L2.51953 12.0495C2.01953 13.4495 2.91953 14.6495 4.41953 14.6495L8.41953 14.6495C9.01953 14.6495 9.51953 15.1495 9.41953 15.8495L8.91953 19.0495C8.71953 19.9495 9.31953 20.9495 10.2195 21.2495C11.0195 21.5495 12.0195 21.1495 12.4195 20.5495L16.5195 14.4495" fill="#FF4F44"/>
<path id="Vector_2" d="M21.6191 5.64961L21.6191 15.4496C21.6191 16.8496 21.0191 17.3496 19.6191 17.3496L18.6191 17.3496C17.2191 17.3496 16.6191 16.8496 16.6191 15.4496L16.6191 5.64961C16.6191 4.24961 17.2191 3.74961 18.6191 3.74961L19.6191 3.74961C21.0191 3.74961 21.6191 4.24961 21.6191 5.64961Z" fill="#FF4F44"/>
</g>
</g>
</g>
</svg>
