<svg width="81" height="80" viewBox="0 0 81 80" fill="none" xmlns="http://www.w3.org/2000/svg">
<rect x="0.605469" width="79.7871" height="79.7871" rx="39.8936" fill="#FEEC9A" fill-opacity="0.28"/>
<path fill-rule="evenodd" clip-rule="evenodd" d="M63.0149 27.1727C63.0171 27.2188 63.0183 27.2651 63.0183 27.3117V51.9554C63.0183 52.0378 63.0146 52.1192 63.0077 52.1999L48.0772 40.3305L63.0149 27.1727ZM46.537 41.6874L62.0859 54.0484C61.5839 54.508 60.9145 54.7868 60.1841 54.7868H20.8732C20.1428 54.7868 19.4733 54.508 18.9687 54.0484L34.52 41.687L39.193 45.8034C39.9564 46.4757 41.1007 46.4757 41.8643 45.8034L46.537 41.6874ZM32.9796 40.3303L18.0494 52.1979C18.0426 52.1179 18.0391 52.037 18.0391 51.9554V27.3117C18.0391 27.2651 18.0402 27.2188 18.0425 27.1727L32.9796 40.3303ZM20.8732 24.4775H60.1841C60.9358 24.4775 61.6238 24.7751 62.1311 25.2585L40.5287 44.287L18.9262 25.2585C19.4335 24.7751 20.1214 24.4775 20.8732 24.4775Z" fill="url(#paint0_linear_3968_1180)"/>
<defs>
<linearGradient id="paint0_linear_3968_1180" x1="18.0403" y1="27.5884" x2="78.6589" y2="27.5884" gradientUnits="userSpaceOnUse">
<stop stop-color="#FFDE00"/>
<stop offset="1" stop-color="#FD5900"/>
</linearGradient>
</defs>
</svg>
