<svg width="80" height="80" viewBox="0 0 80 80" fill="none" xmlns="http://www.w3.org/2000/svg">
<rect width="79.7871" height="79.7871" rx="39.8936" fill="#FEEC9A" fill-opacity="0.28"/>
<path fill-rule="evenodd" clip-rule="evenodd" d="M62.6415 38.7881C62.6438 38.8342 62.6449 38.8806 62.6449 38.9272V63.5709C62.6449 63.6532 62.6413 63.7347 62.6343 63.8154L47.7039 51.946L62.6415 38.7881ZM46.1636 53.3029L61.7126 65.6639C61.2106 66.1234 60.5412 66.4023 59.8108 66.4023H20.4999C19.7695 66.4023 19.1 66.1234 18.5953 65.6639L34.1467 53.3025L38.8197 57.4188C39.5831 58.0912 40.7274 58.0912 41.491 57.4188L46.1636 53.3029ZM32.6063 51.9458L17.6761 63.8133C17.6693 63.7334 17.6657 63.6525 17.6657 63.5709V38.9272C17.6657 38.8806 17.6669 38.8342 17.6691 38.7881L32.6063 51.9458ZM20.4999 36.093H59.8108C60.5624 36.093 61.2505 36.3905 61.7578 36.874L40.1553 55.9025L18.5529 36.874C19.0602 36.3905 19.7481 36.093 20.4999 36.093ZM22.5047 27.3435H20.0078C18.6875 27.3435 17.6172 26.2732 17.6172 24.953V16.6366C17.6172 15.3164 18.6875 14.2461 20.0078 14.2461H60.2059C61.5261 14.2461 62.5964 15.3164 62.5964 16.6366V24.953C62.5964 26.2732 61.5261 27.3435 60.2059 27.3435H30.9731L25.0676 33.249C24.9081 33.4085 24.6756 33.4708 24.4576 33.4124C24.2398 33.3541 24.0695 33.1838 24.0112 32.966L22.5047 27.3435ZM48.3896 19.0449L47.3265 18.4312C46.8437 18.1523 46.2252 18.318 45.9464 18.8009C45.6677 19.2839 45.8333 19.9023 46.3163 20.181L47.3792 20.7948L46.3163 21.4086C45.8333 21.6874 45.6677 22.3057 45.9464 22.7886C46.2252 23.2716 46.8437 23.4373 47.3265 23.1584L48.3896 22.5448V23.772C48.3896 24.3297 48.8422 24.7824 49.3999 24.7824C49.9574 24.7824 50.4102 24.3297 50.4102 23.772V22.5446L51.4731 23.1584C51.9561 23.4373 52.5745 23.2716 52.8534 22.7886C53.1321 22.3057 52.9664 21.6874 52.4834 21.4086L51.4205 20.7948L52.4834 20.181C52.9664 19.9023 53.1321 19.2839 52.8534 18.8009C52.5745 18.318 51.9561 18.1523 51.4731 18.4312L50.4102 19.0449V17.8174C50.4102 17.2598 49.9574 16.8071 49.3999 16.8071C48.8422 16.8071 48.3896 17.2598 48.3896 17.8174V19.0449ZM29.8034 19.0449L28.7404 18.4312C28.2575 18.1523 27.6392 18.318 27.3604 18.8009C27.0815 19.2839 27.2472 19.9023 27.7301 20.181L28.7932 20.7948L27.7301 21.4086C27.2472 21.6874 27.0815 22.3057 27.3604 22.7886C27.6392 23.2716 28.2575 23.4373 28.7404 23.1584L29.8034 22.5448V23.772C29.8034 24.3297 30.2561 24.7824 30.8137 24.7824C31.3714 24.7824 31.824 24.3297 31.824 23.772V22.5446L32.8871 23.1584C33.3701 23.4373 33.9884 23.2716 34.2672 22.7886C34.546 22.3057 34.3804 21.6874 33.8974 21.4086L32.8343 20.7948L33.8974 20.181C34.3804 19.9023 34.546 19.2839 34.2672 18.8009C33.9884 18.318 33.3701 18.1523 32.8871 18.4312L31.824 19.0449V17.8174C31.824 17.2598 31.3714 16.8071 30.8137 16.8071C30.2561 16.8071 29.8034 17.2598 29.8034 17.8174V19.0449ZM39.0965 19.0449L38.0335 18.4312C37.5506 18.1523 36.9321 18.318 36.6534 18.8009C36.3746 19.2839 36.5403 19.9023 37.0232 20.181L38.0862 20.7948L37.0232 21.4086C36.5403 21.6874 36.3746 22.3057 36.6534 22.7886C36.9321 23.2716 37.5506 23.4373 38.0335 23.1584L39.0965 22.5448V23.772C39.0965 24.3297 39.5492 24.7824 40.1068 24.7824C40.6644 24.7824 41.1171 24.3297 41.1171 23.772V22.5446L42.1802 23.1584C42.663 23.4373 43.2814 23.2716 43.5603 22.7886C43.839 22.3057 43.6733 21.6874 43.1905 21.4086L42.1274 20.7948L43.1905 20.181C43.6733 19.9023 43.839 19.2839 43.5603 18.8009C43.2814 18.318 42.663 18.1523 42.1802 18.4312L41.1171 19.0449V17.8174C41.1171 17.2598 40.6644 16.8071 40.1068 16.8071C39.5492 16.8071 39.0965 17.2598 39.0965 17.8174V19.0449Z" fill="url(#paint0_linear_4080_1629)"/>
<rect x="50.8945" y="50" width="28" height="28" rx="14" fill="url(#paint1_linear_4080_1629)"/>
<path d="M60.1055 63.4231L63.6823 67L69.6823 61" stroke="white" stroke-width="1.5" stroke-linecap="round" stroke-linejoin="round"/>
<defs>
<linearGradient id="paint0_linear_4080_1629" x1="17.6653" y1="39.2036" x2="78.2839" y2="39.2036" gradientUnits="userSpaceOnUse">
<stop stop-color="#FFDE00"/>
<stop offset="1" stop-color="#FD5900"/>
</linearGradient>
<linearGradient id="paint1_linear_4080_1629" x1="70.9893" y1="53.8659" x2="53.5523" y2="53.8659" gradientUnits="userSpaceOnUse">
<stop stop-color="#54D262"/>
<stop offset="0.989" stop-color="#4DAA57"/>
</linearGradient>
</defs>
</svg>
