<svg width="29" height="29" viewBox="0 0 29 29" fill="none" xmlns="http://www.w3.org/2000/svg">
<g id="fi_992650" opacity="0.1" clip-path="url(#clip0_1126_5720)">
<g id="Group">
<g id="Group_2">
<path id="Vector" d="M14.5 0C6.50421 0 0 6.50421 0 14.5C0 22.4958 6.50421 29 14.5 29C22.4958 29 29 22.4947 29 14.5C29 6.50535 22.4958 0 14.5 0ZM14.5 26.7537C7.74419 26.7537 2.24631 21.2569 2.24631 14.5C2.24631 7.74306 7.74419 2.24631 14.5 2.24631C21.2569 2.24631 26.7537 7.74306 26.7537 14.5C26.7537 21.2569 21.2558 26.7537 14.5 26.7537Z" fill="black"/>
</g>
</g>
<g id="Group_3">
<g id="Group_4">
<path id="Vector_2" d="M21.1529 9.45703C20.6958 9.04145 19.9848 9.07402 19.567 9.53338L12.7157 17.0777L9.40575 13.7127C8.96882 13.2702 8.259 13.2634 7.8176 13.6992C7.37507 14.1339 7.36833 14.8449 7.80412 15.2874L11.9474 19.4992C12.1597 19.7149 12.4472 19.8351 12.7482 19.8351C12.755 19.8351 12.7628 19.8351 12.7696 19.8362C13.0796 19.8295 13.3716 19.6969 13.5794 19.4678L21.2292 11.0441C21.646 10.5836 21.6123 9.87373 21.1529 9.45703Z" fill="black"/>
</g>
</g>
</g>
<defs>
<clipPath id="clip0_1126_5720">
<rect width="29" height="29" fill="white"/>
</clipPath>
</defs>
</svg>
