<svg width="24" height="25" viewBox="0 0 24 25" fill="none" xmlns="http://www.w3.org/2000/svg">
<path d="M14 19.5C17.771 19.5 19.657 19.5 20.828 18.328C22 17.157 22 15.271 22 11.5C22 7.729 22 5.843 20.828 4.672C19.657 3.5 17.771 3.5 14 3.5H10C6.229 3.5 4.343 3.5 3.172 4.672C2 5.843 2 7.729 2 11.5C2 15.271 2 17.157 3.172 18.328C3.825 18.982 4.7 19.271 6 19.398" fill="#DFA935"/>
<path d="M14 19.5C12.764 19.5 11.402 20 10.159 20.645C8.161 21.682 7.162 22.201 6.67 21.87C6.178 21.54 6.271 20.515 6.458 18.466L6.5 18" fill="#DFA935"/>
</svg>
