<svg width="360" height="84" viewBox="0 0 360 84" fill="none" xmlns="http://www.w3.org/2000/svg">
<path d="M446.181 54.4918C446.181 54.4918 444.578 59.2528 441.857 69.8944C439.136 80.5237 438.32 82.3199 434.51 82.3199C419.665 82.3199 422.658 10.0923 408.236 10.0923C393.814 10.0923 394.237 57.8749 381.72 57.8749C369.203 57.8749 380.087 13.4017 364.305 13.4017C348.522 13.4017 362.944 59.5235 348.522 59.5235C334.1 59.5235 341.991 42.3985 331.651 42.3985C321.311 42.3985 324.576 81.8893 312.603 81.065C300.63 80.2408 309.066 29.2718 297.365 29.4194C285.664 29.5547 294.644 82.7259 280.766 82.0369C266.888 81.348 276.956 15.8867 263.351 15.8867C249.745 15.8867 262.806 71.6783 245.663 71.9489C228.52 72.2196 238.588 28.8658 225.799 28.8658C213.009 28.8658 207.295 27.4879 207.295 32.4581C207.295 37.4283 205.39 43.5057 194.234 43.5057C183.077 43.5057 185.526 65.3302 177.363 65.0473C169.199 64.7643 173.281 22.2348 162.668 22.3701C152.056 22.5055 158.587 28.5829 144.981 28.7182C131.375 28.8535 140.627 56.6078 128.11 56.6078C115.593 56.6078 118.858 82.5659 107.157 82.5659C95.4563 82.5659 104.164 38.9292 89.4698 38.9292C74.7756 38.9292 82.3948 4.96219 73.143 4.96219C63.8911 4.96219 72.8708 48.5989 53.2786 48.5989C33.6864 48.5989 52.1902 66.5482 37.496 66.5482C22.8019 66.5482 34.7749 20.8323 23.8904 20.8323C13.0058 20.8323 22.2577 35.6075 3.75393 35.6075C-14.7498 35.6075 2.39336 0.250357 -13.3892 1.64053C-29.2021 3.04301 -18.5896 80.2531 -38.4539 79.6871C-58.3183 79.1335 -39.8145 18.1012 -53.1481 18.1012C-66.4817 18.1012 -49.5955 51.6253 -86.1797 54.418" stroke="url(#paint0_radial_1776_63890)" stroke-width="2" stroke-miterlimit="10"/>
<defs>
<radialGradient id="paint0_radial_1776_63890" cx="0" cy="0" r="1" gradientUnits="userSpaceOnUse" gradientTransform="translate(180.001 42.0833) scale(167.918 100.447)">
<stop offset="0.384" stop-color="white"/>
<stop offset="1" stop-color="white" stop-opacity="0"/>
</radialGradient>
</defs>
</svg>
