<svg width="25" height="25" viewBox="0 0 25 25" fill="none" xmlns="http://www.w3.org/2000/svg">
<g id="icons8-google 1">
<path id="Vector" d="M21.8407 10.4399H21.0352V10.3984H12.0352V14.3984H17.6867C16.8622 16.7269 14.6467 18.3984 12.0352 18.3984C8.72166 18.3984 6.03516 15.7119 6.03516 12.3984C6.03516 9.08494 8.72166 6.39844 12.0352 6.39844C13.5647 6.39844 14.9562 6.97544 16.0157 7.91794L18.8442 5.08944C17.0582 3.42494 14.6692 2.39844 12.0352 2.39844C6.51266 2.39844 2.03516 6.87594 2.03516 12.3984C2.03516 17.9209 6.51266 22.3984 12.0352 22.3984C17.5577 22.3984 22.0352 17.9209 22.0352 12.3984C22.0352 11.7279 21.9662 11.0734 21.8407 10.4399Z" fill="#FFC107"/>
<path id="Vector_2" d="M3.18848 7.74394L6.47398 10.1534C7.36298 7.95244 9.51598 6.39844 12.0355 6.39844C13.565 6.39844 14.9565 6.97544 16.016 7.91794L18.8445 5.08944C17.0585 3.42494 14.6695 2.39844 12.0355 2.39844C8.19448 2.39844 4.86348 4.56694 3.18848 7.74394Z" fill="#FF3D00"/>
<path id="Vector_3" d="M12.0353 22.3988C14.6183 22.3988 16.9653 21.4103 18.7398 19.8028L15.6448 17.1838C14.6408 17.9443 13.3928 18.3988 12.0353 18.3988C9.43431 18.3988 7.22581 16.7403 6.39381 14.4258L3.13281 16.9383C4.78781 20.1768 8.14881 22.3988 12.0353 22.3988Z" fill="#4CAF50"/>
<path id="Vector_4" d="M21.8407 10.4399H21.0352V10.3984H12.0352V14.3984H17.6867C17.2907 15.5169 16.5712 16.4814 15.6432 17.1839L15.6447 17.1829L18.7397 19.8019C18.5207 20.0009 22.0352 17.3984 22.0352 12.3984C22.0352 11.7279 21.9662 11.0734 21.8407 10.4399Z" fill="#1976D2"/>
</g>
</svg>
