<svg width="1366" height="110" viewBox="0 0 1366 110" fill="none" xmlns="http://www.w3.org/2000/svg">
<path opacity="0.2" fill-rule="evenodd" clip-rule="evenodd" d="M433.372 0.5C436.134 0.5 438.372 2.73858 438.372 5.5V130.918H443.734V5.5C443.734 2.73858 445.973 0.5 448.734 0.5C451.496 0.5 453.734 2.73858 453.734 5.5V130.918H462.936V32.3508C462.936 29.5894 465.175 27.3508 467.936 27.3508C470.698 27.3508 472.936 29.5894 472.936 32.3508V130.918H478.298V59.2014C478.298 56.44 480.536 54.2014 483.298 54.2014C486.059 54.2014 488.298 56.44 488.298 59.2014V130.918H493.66V93.7239C493.66 90.9625 495.898 88.7239 498.66 88.7239C501.421 88.7239 503.66 90.9625 503.66 93.7239V130.918H512.862V97.5597C512.862 94.7983 515.1 92.5597 517.862 92.5597C520.623 92.5597 522.862 94.7983 522.862 97.5597V130.918H528.223V82.2164C528.223 79.455 530.462 77.2164 533.223 77.2164C535.985 77.2164 538.223 79.455 538.223 82.2164V130.918H543.585V59.2014C543.585 56.44 545.824 54.2014 548.585 54.2014C551.346 54.2014 553.585 56.44 553.585 59.2014V130.918H562.787V47.6941C562.787 44.9327 565.026 42.6941 567.787 42.6941C570.549 42.6941 572.787 44.9327 572.787 47.6941V130.918H578.149V13.1716C578.149 10.4102 580.388 8.17163 583.149 8.17163C585.91 8.17163 588.149 10.4102 588.149 13.1716V130.918H593.511V32.3508C593.511 29.5894 595.749 27.3508 598.511 27.3508C601.272 27.3508 603.511 29.5894 603.511 32.3508V130.918H612.713V59.2014C612.713 56.44 614.951 54.2014 617.713 54.2014C620.474 54.2014 622.713 56.44 622.713 59.2014V130.918H628.074V78.3806C628.074 75.6192 630.313 73.3806 633.074 73.3806C635.836 73.3806 638.074 75.6192 638.074 78.3806V130.918H643.436V13.1716C643.436 10.4102 645.675 8.17163 648.436 8.17163C651.197 8.17163 653.436 10.4102 653.436 13.1716V130.918H662.638V43.8582C662.638 41.0967 664.877 38.8582 667.638 38.8582C670.4 38.8582 672.638 41.0967 672.638 43.8582V130.918H678V66.873C678 64.1116 680.239 61.873 683 61.873C685.761 61.873 688 64.1116 688 66.873V130.918H693.362V70.709C693.362 67.9476 695.6 65.709 698.362 65.709C701.123 65.709 703.362 67.9476 703.362 70.709V130.918H712.564V86.0522C712.564 83.2908 714.802 81.0522 717.564 81.0522C720.325 81.0522 722.564 83.2908 722.564 86.0522V130.918H727.926V74.5448C727.926 71.7834 730.164 69.5448 732.926 69.5448C735.687 69.5448 737.926 71.7834 737.926 74.5448V130.918H743.287V82.2164C743.287 79.455 745.526 77.2164 748.287 77.2164C751.049 77.2164 753.287 79.455 753.287 82.2164V130.918H762.489V82.2164C762.489 79.455 764.728 77.2164 767.489 77.2164C770.251 77.2164 772.489 79.455 772.489 82.2164V130.918H777.851V51.5298C777.851 48.7684 780.09 46.5298 782.851 46.5298C785.612 46.5298 787.851 48.7684 787.851 51.5298V130.918H793.213V63.0374C793.213 60.2759 795.451 58.0374 798.213 58.0374C800.974 58.0374 803.213 60.2759 803.213 63.0374V130.918H812.415V28.5149C812.415 25.7535 814.653 23.5149 817.415 23.5149C820.176 23.5149 822.415 25.7535 822.415 28.5149V130.918H827.777V9.33582C827.777 6.57439 830.015 4.33582 832.777 4.33582C835.538 4.33582 837.777 6.57439 837.777 9.33582V130.918H843.138V32.3508C843.138 29.5894 845.377 27.3508 848.138 27.3508C850.9 27.3508 853.138 29.5894 853.138 32.3508V130.918H862.34V13.1716C862.34 10.4102 864.579 8.17163 867.34 8.17163C870.102 8.17163 872.34 10.4102 872.34 13.1716V130.918H877.702V66.873C877.702 64.1116 879.941 61.873 882.702 61.873C885.464 61.873 887.702 64.1116 887.702 66.873V130.918H893.064V89.8881C893.064 87.1266 895.302 84.8881 898.064 84.8881C900.825 84.8881 903.064 87.1266 903.064 89.8881V130.918H912.266V74.5448C912.266 71.7834 914.504 69.5448 917.266 69.5448C920.027 69.5448 922.266 71.7834 922.266 74.5448V130.918H927.628V43.8582C927.628 41.0967 929.866 38.8582 932.628 38.8582C935.389 38.8582 937.628 41.0967 937.628 43.8582V130.918H942.989V5.5C942.989 2.73858 945.228 0.5 947.989 0.5C950.751 0.5 952.989 2.73858 952.989 5.5V130.918H962.191V5.5C962.191 2.73858 964.43 0.5 967.191 0.5C969.953 0.5 972.191 2.73858 972.191 5.5V130.918H977.553V32.3508C977.553 29.5894 979.792 27.3508 982.553 27.3508C985.315 27.3508 987.553 29.5894 987.553 32.3508V130.918H992.915V59.2014C992.915 56.44 995.153 54.2014 997.915 54.2014C1000.68 54.2014 1002.91 56.44 1002.91 59.2014V130.918H1012.12V93.7239C1012.12 90.9625 1014.36 88.7239 1017.12 88.7239C1019.88 88.7239 1022.12 90.9625 1022.12 93.7239V130.918H1027.48V97.5597C1027.48 94.7983 1029.72 92.5597 1032.48 92.5597C1035.24 92.5597 1037.48 94.7983 1037.48 97.5597V130.918H1046.68V82.2164C1046.68 79.455 1048.92 77.2164 1051.68 77.2164C1054.44 77.2164 1056.68 79.455 1056.68 82.2164V130.918H1062.04V59.2014C1062.04 56.44 1064.28 54.2014 1067.04 54.2014C1069.8 54.2014 1072.04 56.44 1072.04 59.2014V130.918H1077.4V47.6941C1077.4 44.9327 1079.64 42.6941 1082.4 42.6941C1085.17 42.6941 1087.4 44.9327 1087.4 47.6941V130.918H1096.61V13.1716C1096.61 10.4102 1098.84 8.17163 1101.61 8.17163C1104.37 8.17163 1106.61 10.4102 1106.61 13.1716V130.918H1111.97V32.3508C1111.97 29.5894 1114.21 27.3508 1116.97 27.3508C1119.73 27.3508 1121.97 29.5894 1121.97 32.3508V130.918H1127.33V59.2014C1127.33 56.44 1129.57 54.2014 1132.33 54.2014C1135.09 54.2014 1137.33 56.44 1137.33 59.2014V130.918H1146.53V78.3806C1146.53 75.6192 1148.77 73.3806 1151.53 73.3806C1154.29 73.3806 1156.53 75.6192 1156.53 78.3806V130.918H1161.89V13.1716C1161.89 10.4102 1164.13 8.17163 1166.89 8.17163C1169.66 8.17163 1171.89 10.4102 1171.89 13.1716V130.918H1177.26V43.8582C1177.26 41.0967 1179.49 38.8582 1182.26 38.8582C1185.02 38.8582 1187.26 41.0967 1187.26 43.8582V130.918H1196.46V66.873C1196.46 64.1116 1198.7 61.873 1201.46 61.873C1204.22 61.873 1206.46 64.1116 1206.46 66.873V130.918H1211.82V70.709C1211.82 67.9476 1214.06 65.709 1216.82 65.709C1219.58 65.709 1221.82 67.9476 1221.82 70.709V130.918H1227.18V86.0522C1227.18 83.2908 1229.42 81.0522 1232.18 81.0522C1234.94 81.0522 1237.18 83.2908 1237.18 86.0522V130.918H1246.38V74.5448C1246.38 71.7834 1248.62 69.5448 1251.38 69.5448C1254.14 69.5448 1256.38 71.7834 1256.38 74.5448V130.918H1261.74V82.2164C1261.74 79.455 1263.98 77.2164 1266.74 77.2164C1269.51 77.2164 1271.74 79.455 1271.74 82.2164V130.918H1277.11V82.2164C1277.11 79.455 1279.34 77.2164 1282.11 77.2164C1284.87 77.2164 1287.11 79.455 1287.11 82.2164V130.918H1296.31V51.5298C1296.31 48.7684 1298.55 46.5298 1301.31 46.5298C1304.07 46.5298 1306.31 48.7684 1306.31 51.5298V130.918H1311.67V24.6791C1311.67 21.9177 1313.91 19.6791 1316.67 19.6791C1319.43 19.6791 1321.67 21.9177 1321.67 24.6791V130.918H1327.03V28.5149C1327.03 25.7535 1329.27 23.5149 1332.03 23.5149C1334.79 23.5149 1337.03 25.7535 1337.03 28.5149V130.918H1346.23V51.5298C1346.23 48.7684 1348.47 46.5298 1351.23 46.5298C1354 46.5298 1356.23 48.7684 1356.23 51.5298V130.918H1361.6V101.396C1361.6 98.6341 1363.83 96.3955 1366.6 96.3955C1369.36 96.3955 1371.6 98.6341 1371.6 101.396V130.918H1405C1407.76 130.918 1410 133.157 1410 135.918C1410 138.679 1407.76 140.918 1405 140.918H1371.6V170.44C1371.6 173.202 1369.36 175.44 1366.6 175.44C1363.83 175.44 1361.6 173.202 1361.6 170.44V140.918H1356.23V216.47C1356.23 219.232 1354 221.47 1351.23 221.47C1348.47 221.47 1346.23 219.232 1346.23 216.47V140.918H1337.03V239.485C1337.03 242.246 1334.79 244.485 1332.03 244.485C1329.27 244.485 1327.03 242.246 1327.03 239.485V140.918H1321.67V243.321C1321.67 246.082 1319.43 248.321 1316.67 248.321C1313.91 248.321 1311.67 246.082 1311.67 243.321V140.918H1306.31V216.47C1306.31 219.232 1304.07 221.47 1301.31 221.47C1298.55 221.47 1296.31 219.232 1296.31 216.47V140.918H1287.11V189.619C1287.11 192.381 1284.87 194.619 1282.11 194.619C1279.34 194.619 1277.11 192.381 1277.11 189.619V140.918H1271.74V189.619C1271.74 192.381 1269.51 194.619 1266.74 194.619C1263.98 194.619 1261.74 192.381 1261.74 189.619V140.918H1256.38V197.291C1256.38 200.052 1254.14 202.291 1251.38 202.291C1248.62 202.291 1246.38 200.052 1246.38 197.291V140.918H1237.18V185.784C1237.18 188.545 1234.94 190.784 1232.18 190.784C1229.42 190.784 1227.18 188.545 1227.18 185.784V140.918H1221.82V201.127C1221.82 203.888 1219.58 206.127 1216.82 206.127C1214.06 206.127 1211.82 203.888 1211.82 201.127V140.918H1206.46V204.963C1206.46 207.724 1204.22 209.963 1201.46 209.963C1198.7 209.963 1196.46 207.724 1196.46 204.963V140.918H1187.26V224.142C1187.26 226.903 1185.02 229.142 1182.26 229.142C1179.49 229.142 1177.26 226.903 1177.26 224.142V140.918H1171.89V254.828C1171.89 257.59 1169.66 259.828 1166.89 259.828C1164.13 259.828 1161.89 257.59 1161.89 254.828V140.918H1156.53V193.455C1156.53 196.217 1154.29 198.455 1151.53 198.455C1148.77 198.455 1146.53 196.217 1146.53 193.455V140.918H1137.33V212.634C1137.33 215.396 1135.09 217.634 1132.33 217.634C1129.57 217.634 1127.33 215.396 1127.33 212.634V140.918H1121.97V235.649C1121.97 238.411 1119.73 240.649 1116.97 240.649C1114.21 240.649 1111.97 238.411 1111.97 235.649V140.918H1106.61V254.828C1106.61 257.59 1104.37 259.828 1101.61 259.828C1098.84 259.828 1096.61 257.59 1096.61 254.828V140.918H1087.4V220.306C1087.4 223.067 1085.17 225.306 1082.4 225.306C1079.64 225.306 1077.4 223.067 1077.4 220.306V140.918H1072.04V212.634C1072.04 215.396 1069.8 217.634 1067.04 217.634C1064.28 217.634 1062.04 215.396 1062.04 212.634V140.918H1056.68V189.619C1056.68 192.381 1054.44 194.619 1051.68 194.619C1048.92 194.619 1046.68 192.381 1046.68 189.619V140.918H1037.48V174.276C1037.48 177.038 1035.24 179.276 1032.48 179.276C1029.72 179.276 1027.48 177.038 1027.48 174.276V140.918H1022.12V178.112C1022.12 180.873 1019.88 183.112 1017.12 183.112C1014.36 183.112 1012.12 180.873 1012.12 178.112V140.918H1002.91V212.634C1002.91 215.396 1000.68 217.634 997.915 217.634C995.153 217.634 992.915 215.396 992.915 212.634V140.918H987.553V235.649C987.553 238.411 985.315 240.649 982.553 240.649C979.792 240.649 977.553 238.411 977.553 235.649V140.918H972.191V262.5C972.191 265.261 969.953 267.5 967.191 267.5C964.43 267.5 962.191 265.261 962.191 262.5V140.918H952.989V262.5C952.989 265.261 950.751 267.5 947.989 267.5C945.228 267.5 942.989 265.261 942.989 262.5V140.918H937.628V224.142C937.628 226.903 935.389 229.142 932.628 229.142C929.866 229.142 927.628 226.903 927.628 224.142V140.918H922.266V197.291C922.266 200.052 920.027 202.291 917.266 202.291C914.504 202.291 912.266 200.052 912.266 197.291V140.918H903.064V181.948C903.064 184.709 900.825 186.948 898.064 186.948C895.302 186.948 893.064 184.709 893.064 181.948V140.918H887.702V204.963C887.702 207.724 885.464 209.963 882.702 209.963C879.941 209.963 877.702 207.724 877.702 204.963V140.918H872.34V254.828C872.34 257.59 870.102 259.828 867.34 259.828C864.579 259.828 862.34 257.59 862.34 254.828V140.918H853.138V235.649C853.138 238.411 850.9 240.649 848.138 240.649C845.377 240.649 843.138 238.411 843.138 235.649V140.918H837.777V258.664C837.777 261.426 835.538 263.664 832.777 263.664C830.015 263.664 827.777 261.426 827.777 258.664V140.918H822.415V239.485C822.415 242.246 820.176 244.485 817.415 244.485C814.653 244.485 812.415 242.246 812.415 239.485V140.918H803.213V208.799C803.213 211.56 800.974 213.799 798.213 213.799C795.451 213.799 793.213 211.56 793.213 208.799V140.918H787.851V216.47C787.851 219.232 785.612 221.47 782.851 221.47C780.09 221.47 777.851 219.232 777.851 216.47V140.918H772.489V189.619C772.489 192.381 770.251 194.619 767.489 194.619C764.728 194.619 762.489 192.381 762.489 189.619V140.918H753.287V189.619C753.287 192.381 751.049 194.619 748.287 194.619C745.526 194.619 743.287 192.381 743.287 189.619V140.918H737.926V197.291C737.926 200.052 735.687 202.291 732.926 202.291C730.164 202.291 727.926 200.052 727.926 197.291V140.918H722.564V185.784C722.564 188.545 720.325 190.784 717.564 190.784C714.802 190.784 712.564 188.545 712.564 185.784V140.918H703.362V201.127C703.362 203.888 701.123 206.127 698.362 206.127C695.6 206.127 693.362 203.888 693.362 201.127V140.918H688V204.963C688 207.724 685.761 209.963 683 209.963C680.239 209.963 678 207.724 678 204.963V140.918H672.638V224.142C672.638 226.903 670.4 229.142 667.638 229.142C664.877 229.142 662.638 226.903 662.638 224.142V140.918H653.436V254.828C653.436 257.59 651.197 259.828 648.436 259.828C645.675 259.828 643.436 257.59 643.436 254.828V140.918H638.074V193.455C638.074 196.217 635.836 198.455 633.074 198.455C630.313 198.455 628.074 196.217 628.074 193.455V140.918H622.713V212.634C622.713 215.396 620.474 217.634 617.713 217.634C614.951 217.634 612.713 215.396 612.713 212.634V140.918H603.511V235.649C603.511 238.411 601.272 240.649 598.511 240.649C595.749 240.649 593.511 238.411 593.511 235.649V140.918H588.149V254.828C588.149 257.59 585.91 259.828 583.149 259.828C580.388 259.828 578.149 257.59 578.149 254.828V140.918H572.787V220.306C572.787 223.067 570.549 225.306 567.787 225.306C565.026 225.306 562.787 223.067 562.787 220.306V140.918H553.585V212.634C553.585 215.396 551.346 217.634 548.585 217.634C545.824 217.634 543.585 215.396 543.585 212.634V140.918H538.223V189.619C538.223 192.381 535.985 194.619 533.223 194.619C530.462 194.619 528.223 192.381 528.223 189.619V140.918H522.862V174.276C522.862 177.038 520.623 179.276 517.862 179.276C515.1 179.276 512.862 177.038 512.862 174.276V140.918H503.66V178.112C503.66 180.873 501.421 183.112 498.66 183.112C495.898 183.112 493.66 180.873 493.66 178.112V140.918H488.298V212.634C488.298 215.396 486.059 217.634 483.298 217.634C480.536 217.634 478.298 215.396 478.298 212.634V140.918H472.936V235.649C472.936 238.411 470.698 240.649 467.936 240.649C465.175 240.649 462.936 238.411 462.936 235.649V140.918H453.734V262.5C453.734 265.261 451.496 267.5 448.734 267.5C445.973 267.5 443.734 265.261 443.734 262.5V140.918H438.372V262.5C438.372 265.261 436.134 267.5 433.372 267.5C430.611 267.5 428.372 265.261 428.372 262.5V140.918H423.011V224.142C423.011 226.903 420.772 229.142 418.011 229.142C415.249 229.142 413.011 226.903 413.011 224.142V140.918H403.809V197.291C403.809 200.052 401.57 202.291 398.809 202.291C396.047 202.291 393.809 200.052 393.809 197.291V140.918H388.447V181.948C388.447 184.709 386.208 186.948 383.447 186.948C380.685 186.948 378.447 184.709 378.447 181.948V140.918H373.085V204.963C373.085 207.724 370.847 209.963 368.085 209.963C365.324 209.963 363.085 207.724 363.085 204.963V140.918H353.883V254.828C353.883 257.59 351.644 259.828 348.883 259.828C346.122 259.828 343.883 257.59 343.883 254.828V140.918H338.521V235.649C338.521 238.411 336.283 240.649 333.521 240.649C330.76 240.649 328.521 238.411 328.521 235.649V140.918H319.319V258.664C319.319 261.426 317.081 263.664 314.319 263.664C311.558 263.664 309.319 261.426 309.319 258.664V140.918H303.958V239.485C303.958 242.246 301.719 244.485 298.958 244.485C296.196 244.485 293.958 242.246 293.958 239.485V140.918H288.596V208.799C288.596 211.56 286.357 213.799 283.596 213.799C280.834 213.799 278.596 211.56 278.596 208.799V140.918H269.394V216.47C269.394 219.232 267.155 221.47 264.394 221.47C261.632 221.47 259.394 219.232 259.394 216.47V140.918H254.032V189.619C254.032 192.381 251.793 194.619 249.032 194.619C246.271 194.619 244.032 192.381 244.032 189.619V140.918H238.67V189.619C238.67 192.381 236.432 194.619 233.67 194.619C230.909 194.619 228.67 192.381 228.67 189.619V140.918H219.468V197.291C219.468 200.052 217.229 202.291 214.468 202.291C211.707 202.291 209.468 200.052 209.468 197.291V140.918H204.106V185.784C204.106 188.545 201.868 190.784 199.106 190.784C196.345 190.784 194.106 188.545 194.106 185.784V140.918H188.745V201.127C188.745 203.888 186.506 206.127 183.745 206.127C180.983 206.127 178.745 203.888 178.745 201.127V140.918H169.542V204.963C169.542 207.724 167.304 209.963 164.542 209.963C161.781 209.963 159.542 207.724 159.542 204.963V140.918H154.181V224.142C154.181 226.903 151.942 229.142 149.181 229.142C146.419 229.142 144.181 226.903 144.181 224.142V140.918H138.819V254.828C138.819 257.59 136.581 259.828 133.819 259.828C131.058 259.828 128.819 257.59 128.819 254.828V140.918H119.617V193.455C119.617 196.217 117.378 198.455 114.617 198.455C111.856 198.455 109.617 196.217 109.617 193.455V140.918H104.255V212.634C104.255 215.396 102.017 217.634 99.2554 217.634C96.4939 217.634 94.2554 215.396 94.2554 212.634V140.918H88.8936V235.649C88.8936 238.411 86.655 240.649 83.8936 240.649C81.1321 240.649 78.8936 238.411 78.8936 235.649V140.918H69.6914V254.828C69.6914 257.59 67.4528 259.828 64.6914 259.828C61.93 259.828 59.6914 257.59 59.6914 254.828V140.918H54.3298V220.306C54.3298 223.067 52.0913 225.306 49.3298 225.306C46.5684 225.306 44.3298 223.067 44.3298 220.306V140.918H38.968V212.634C38.968 215.396 36.7294 217.634 33.968 217.634C31.2066 217.634 28.968 215.396 28.968 212.634V140.918H19.7659V189.619C19.7659 192.381 17.5273 194.619 14.7659 194.619C12.0044 194.619 9.76587 192.381 9.76587 189.619V140.918H4.4043V174.276C4.4043 177.038 2.16572 179.276 -0.595703 179.276C-3.35713 179.276 -5.5957 177.038 -5.5957 174.276V140.918H-39C-41.7614 140.918 -44 138.679 -44 135.918C-44 133.157 -41.7614 130.918 -39 130.918H-5.5957V97.5597C-5.5957 94.7983 -3.35713 92.5597 -0.595703 92.5597C2.16572 92.5597 4.4043 94.7983 4.4043 97.5597V130.918H9.76587V82.2164C9.76587 79.455 12.0044 77.2164 14.7659 77.2164C17.5273 77.2164 19.7659 79.455 19.7659 82.2164V130.918H28.968V59.2014C28.968 56.44 31.2066 54.2014 33.968 54.2014C36.7294 54.2014 38.968 56.44 38.968 59.2014V130.918H44.3298V47.6941C44.3298 44.9327 46.5684 42.6941 49.3298 42.6941C52.0913 42.6941 54.3298 44.9327 54.3298 47.6941V130.918H59.6914V13.1716C59.6914 10.4102 61.93 8.17163 64.6914 8.17163C67.4528 8.17163 69.6914 10.4102 69.6914 13.1716V130.918H78.8936V32.3508C78.8936 29.5894 81.1321 27.3508 83.8936 27.3508C86.655 27.3508 88.8936 29.5894 88.8936 32.3508V130.918H94.2554V59.2014C94.2554 56.44 96.4939 54.2014 99.2554 54.2014C102.017 54.2014 104.255 56.44 104.255 59.2014V130.918H109.617V78.3806C109.617 75.6192 111.856 73.3806 114.617 73.3806C117.378 73.3806 119.617 75.6192 119.617 78.3806V130.918H128.819V13.1716C128.819 10.4102 131.058 8.17163 133.819 8.17163C136.581 8.17163 138.819 10.4102 138.819 13.1716V130.918H144.181V43.8582C144.181 41.0967 146.419 38.8582 149.181 38.8582C151.942 38.8582 154.181 41.0967 154.181 43.8582V130.918H159.542V66.873C159.542 64.1116 161.781 61.873 164.542 61.873C167.304 61.873 169.542 64.1116 169.542 66.873V130.918H178.745V70.709C178.745 67.9476 180.983 65.709 183.745 65.709C186.506 65.709 188.745 67.9476 188.745 70.709V130.918H194.106V86.0522C194.106 83.2908 196.345 81.0522 199.106 81.0522C201.868 81.0522 204.106 83.2908 204.106 86.0522V130.918H209.468V74.5448C209.468 71.7834 211.707 69.5448 214.468 69.5448C217.229 69.5448 219.468 71.7834 219.468 74.5448V130.918H228.67V82.2164C228.67 79.455 230.909 77.2164 233.67 77.2164C236.432 77.2164 238.67 79.455 238.67 82.2164V130.918H244.032V82.2164C244.032 79.455 246.271 77.2164 249.032 77.2164C251.793 77.2164 254.032 79.455 254.032 82.2164V130.918H259.394V51.5298C259.394 48.7684 261.632 46.5298 264.394 46.5298C267.155 46.5298 269.394 48.7684 269.394 51.5298V130.918H278.596V63.0374C278.596 60.2759 280.834 58.0374 283.596 58.0374C286.357 58.0374 288.596 60.2759 288.596 63.0374V130.918H293.958V28.5149C293.958 25.7535 296.196 23.5149 298.958 23.5149C301.719 23.5149 303.958 25.7535 303.958 28.5149V130.918H309.319V9.33582C309.319 6.57439 311.558 4.33582 314.319 4.33582C317.081 4.33582 319.319 6.57439 319.319 9.33582V130.918H328.521V32.3508C328.521 29.5894 330.76 27.3508 333.521 27.3508C336.283 27.3508 338.521 29.5894 338.521 32.3508V130.918H343.883V13.1716C343.883 10.4102 346.122 8.17163 348.883 8.17163C351.644 8.17163 353.883 10.4102 353.883 13.1716V130.918H363.085V66.873C363.085 64.1116 365.324 61.873 368.085 61.873C370.847 61.873 373.085 64.1116 373.085 66.873V130.918H378.447V89.8881C378.447 87.1266 380.685 84.8881 383.447 84.8881C386.208 84.8881 388.447 87.1266 388.447 89.8881V130.918H393.809V74.5448C393.809 71.7834 396.047 69.5448 398.809 69.5448C401.57 69.5448 403.809 71.7834 403.809 74.5448V130.918H413.011V43.8582C413.011 41.0967 415.249 38.8582 418.011 38.8582C420.772 38.8582 423.011 41.0967 423.011 43.8582V130.918H428.372V5.5C428.372 2.73858 430.611 0.5 433.372 0.5Z" fill="url(#paint0_linear_2648_21934)"/>
<defs>
<linearGradient id="paint0_linear_2648_21934" x1="-39" y1="136.418" x2="1405" y2="136.418" gradientUnits="userSpaceOnUse">
<stop stop-color="#FF6767"/>
<stop offset="0.175" stop-color="#E0E323"/>
<stop offset="0.36" stop-color="#2CD948"/>
<stop offset="0.52" stop-color="#21CCE3"/>
<stop offset="0.685" stop-color="#4B51D4"/>
<stop offset="0.825" stop-color="#C14BD4"/>
<stop offset="1" stop-color="#D44B54"/>
</linearGradient>
</defs>
</svg>
