<svg width="19" height="19" viewBox="0 0 19 19" fill="none" xmlns="http://www.w3.org/2000/svg">
<g id="ph:guitar-thin" clip-path="url(#clip0_1776_50636)">
<path id="Vector" d="M17.2379 3.92617L14.9879 1.67617C14.9618 1.65004 14.9307 1.62931 14.8966 1.61517C14.8625 1.60103 14.8259 1.59375 14.7889 1.59375C14.752 1.59375 14.7154 1.60103 14.6812 1.61517C14.6471 1.62931 14.6161 1.65004 14.5899 1.67617C14.5638 1.7023 14.5431 1.73333 14.5289 1.76747C14.5148 1.80161 14.5075 1.8382 14.5075 1.87516C14.5075 1.91211 14.5148 1.9487 14.5289 1.98285C14.5431 2.01699 14.5638 2.04801 14.5899 2.07414L14.6722 2.15641L10.0956 6.73375C8.55501 5.85203 6.7986 5.8682 5.75938 6.90742C5.49953 7.16785 5.29608 7.479 5.16173 7.82148C5.09603 7.97524 4.98696 8.10653 4.84786 8.1993C4.70876 8.29208 4.54564 8.34233 4.37844 8.34391C3.42571 8.37625 2.60024 8.71516 1.98782 9.32406C1.20594 10.1116 0.874069 11.2485 1.05688 12.5282C1.23547 13.7777 1.88657 15.0187 2.89063 16.0234C3.89469 17.0282 5.13641 17.6786 6.38587 17.8572C6.60917 17.8896 6.83451 17.9061 7.06016 17.9064C8.06212 17.9064 8.94383 17.5675 9.59141 16.922C10.2003 16.3124 10.5392 15.487 10.5716 14.5314C10.5733 14.3641 10.6237 14.2008 10.7168 14.0617C10.8098 13.9226 10.9414 13.8136 11.0954 13.7481C11.4379 13.6138 11.749 13.4103 12.0095 13.1505C13.0487 12.1113 13.0641 10.3548 12.1831 8.8143L16.7577 4.24188L16.8399 4.32414C16.8927 4.37691 16.9643 4.40656 17.0389 4.40656C17.1135 4.40656 17.1851 4.37691 17.2379 4.32414C17.2907 4.27137 17.3203 4.19979 17.3203 4.12516C17.3203 4.05052 17.2907 3.97895 17.2379 3.92617ZM11.6087 12.7567C11.4026 12.9626 11.156 13.1235 10.8845 13.2292C10.629 13.3354 10.4101 13.5138 10.2544 13.7424C10.0987 13.971 10.013 14.2401 10.0077 14.5166C9.98094 15.3245 9.69899 16.0192 9.19204 16.5255C8.53532 17.1822 7.56782 17.4578 6.46743 17.2989C5.33751 17.1379 4.20969 16.543 3.29071 15.6241C2.37172 14.7051 1.77688 13.5773 1.61587 12.4473C1.45837 11.347 1.73399 10.3795 2.3893 9.72273C2.89555 9.21578 3.59024 8.93383 4.39813 8.90711C4.67494 8.90164 4.94415 8.81559 5.1728 8.65949C5.40146 8.50339 5.57965 8.28401 5.68555 8.0282C5.79124 7.7567 5.95214 7.51009 6.15805 7.30398C6.98774 6.4743 8.3968 6.46024 9.68352 7.14438L7.91938 8.90852C7.54119 8.93225 7.17788 9.06462 6.87307 9.28975C6.56826 9.51487 6.33489 9.82318 6.20098 10.1777C6.06707 10.5321 6.0383 10.9177 6.11813 11.2882C6.19797 11.6586 6.38301 11.9981 6.65105 12.266C6.91909 12.5338 7.25873 12.7187 7.62921 12.7982C7.9997 12.8778 8.38528 12.8488 8.73967 12.7147C9.09407 12.5805 9.40222 12.3469 9.62714 12.042C9.85205 11.737 9.98418 11.3736 10.0077 10.9954L11.7655 9.23125C12.4552 10.518 12.4384 11.9298 11.6087 12.7567ZM8.03891 9.46891C8.41187 9.46891 8.76956 9.61706 9.03328 9.88079C9.297 10.1445 9.44516 10.5022 9.44516 10.8752C9.44516 11.1533 9.36269 11.4252 9.20817 11.6564C9.05365 11.8877 8.83402 12.0679 8.57706 12.1744C8.3201 12.2808 8.03735 12.3086 7.76457 12.2544C7.49178 12.2001 7.24121 12.0662 7.04454 11.8695C6.84788 11.6729 6.71394 11.4223 6.65968 11.1495C6.60542 10.8767 6.63327 10.594 6.73971 10.337C6.84614 10.08 7.02638 9.86042 7.25764 9.7059C7.4889 9.55138 7.76078 9.46891 8.03891 9.46891ZM9.91696 10.2866C9.82163 9.9838 9.65463 9.70844 9.43013 9.48394C9.20563 9.25944 8.93027 9.09244 8.62743 8.99711L10.1743 7.45023C10.6765 7.80153 11.1132 8.23823 11.4645 8.74047L9.91696 10.2866ZM11.2733 7.64078C11.0575 7.42464 10.8247 7.22619 10.5772 7.04734L12.5389 5.08492L13.8284 6.37516L11.8688 8.33477C11.6892 8.08786 11.4901 7.85579 11.2733 7.64078ZM14.2264 5.9793L12.9369 4.68766L15.0702 2.55438L16.3597 3.84391L14.2264 5.9793ZM6.5511 14.613C6.57723 14.6391 6.59796 14.6701 6.6121 14.7043C6.62624 14.7384 6.63352 14.775 6.63352 14.812C6.63352 14.8489 6.62624 14.8855 6.6121 14.9196C6.59796 14.9538 6.57723 14.9848 6.5511 15.0109C6.52497 15.0371 6.49395 15.0578 6.45981 15.0719C6.42566 15.0861 6.38907 15.0934 6.35212 15.0934C6.31516 15.0934 6.27857 15.0861 6.24443 15.0719C6.21028 15.0578 6.17926 15.0371 6.15313 15.0109L3.90313 12.7609C3.85036 12.7082 3.82071 12.6366 3.82071 12.562C3.82071 12.4873 3.85036 12.4157 3.90313 12.363C3.9559 12.3102 4.02748 12.2805 4.10212 12.2805C4.17675 12.2805 4.24833 12.3102 4.3011 12.363L6.5511 14.613Z" fill="black" stroke="black" stroke-width="0.3"/>
</g>
<defs>
<clipPath id="clip0_1776_50636">
<rect width="18" height="18" fill="white" transform="translate(0.164062 0.75)"/>
</clipPath>
</defs>
</svg>
