<svg width="114" height="114" viewBox="0 0 114 114" fill="none" xmlns="http://www.w3.org/2000/svg">
<circle opacity="0.1" cx="57" cy="57" r="57" fill="#141413"/>
<g clip-path="url(#clip0_1452_270)">
<path d="M66.0504 86.0104L59.4202 79.3802C59.0952 79.0433 58.8761 78.6185 58.7899 78.1583C58.7038 77.6982 58.7544 77.2229 58.9355 76.7912C59.1166 76.3595 59.4202 75.9904 59.8089 75.7294C60.1976 75.4685 60.6542 75.3271 61.1223 75.3229H66.0702C66.0702 73.8916 66.6381 72.5188 67.6493 71.5058C68.6604 70.4928 70.0322 69.9224 71.4634 69.9198H98.489C99.922 69.9198 101.296 70.4891 102.31 71.5023C103.323 72.5156 103.892 73.8899 103.892 75.3229V100.28C103.893 100.99 103.755 101.693 103.483 102.349C103.212 103.006 102.814 103.602 102.312 104.104C101.81 104.606 101.214 105.004 100.558 105.275C99.9021 105.546 99.1989 105.685 98.489 105.683H71.4437C70.7346 105.683 70.0324 105.544 69.3775 105.272C68.7225 105 68.1275 104.602 67.6266 104.1C67.1256 103.598 66.7286 103.003 66.4581 102.347C66.1877 101.692 66.0491 100.989 66.0504 100.28V86.0104Z" fill="#00A98C"/>
<path d="M66.0499 86.0105L59.4197 79.3803C59.1421 79.1034 58.9367 78.7627 58.8215 78.3879C58.7063 78.0131 58.6849 77.6158 58.7592 77.2308C58.8334 76.8459 59.0011 76.485 59.2474 76.18C59.4937 75.8749 59.8111 75.635 60.1718 75.4813L66.0499 81.3495V86.0105Z" fill="#008B8C"/>
<path d="M103.892 95.6292V100.28C103.893 100.99 103.754 101.693 103.483 102.349C103.212 103.006 102.814 103.602 102.312 104.104C101.81 104.606 101.214 105.004 100.558 105.275C99.9015 105.546 99.1983 105.685 98.4884 105.683H71.4431C70.734 105.683 70.0319 105.544 69.3769 105.272C68.7219 105 68.127 104.602 67.626 104.1C67.1251 103.598 66.728 103.003 66.4576 102.347C66.1871 101.692 66.0486 100.989 66.0499 100.28V95.6292C66.046 96.34 66.1826 97.0445 66.4519 97.7022C66.7212 98.36 67.1178 98.9581 67.619 99.462C68.1202 99.966 68.7161 100.366 69.3723 100.639C70.0286 100.912 70.7324 101.052 71.4431 101.052H98.4884C99.2 101.053 99.9048 100.914 100.562 100.642C101.22 100.369 101.817 99.9696 102.319 99.4655C102.821 98.9614 103.219 98.3629 103.489 97.7045C103.759 97.0461 103.895 96.3408 103.892 95.6292Z" fill="#008B8C"/>
<path d="M84.8814 100.795C91.9535 100.795 97.6866 95.0617 97.6866 87.9895C97.6866 80.9174 91.9535 75.1843 84.8814 75.1843C77.8093 75.1843 72.0762 80.9174 72.0762 87.9895C72.0762 95.0617 77.8093 100.795 84.8814 100.795Z" fill="#75AA2B"/>
<path d="M84.8816 97.9942C82.9029 97.9942 80.9686 97.4075 79.3233 96.3082C77.6781 95.2088 76.3958 93.6463 75.6385 91.8182C74.8813 89.9901 74.6832 87.9785 75.0692 86.0377C75.4552 84.097 76.4081 82.3144 77.8073 80.9152C79.2064 79.516 80.9891 78.5631 82.9298 78.1771C84.8706 77.7911 86.8822 77.9892 88.7103 78.7464C90.5384 79.5037 92.1009 80.786 93.2002 82.4312C94.2996 84.0765 94.8863 86.0108 94.8863 87.9896C94.8837 90.6422 93.8288 93.1854 91.9531 95.061C90.0775 96.9367 87.5343 97.9916 84.8816 97.9942Z" fill="#8DC63F"/>
<path d="M66.8807 13.2957L89.7301 58.3119C89.9999 58.8595 90.1243 59.4673 90.0916 60.077C90.0588 60.6866 89.8699 61.2775 89.5431 61.7932C89.2162 62.3088 88.7623 62.7318 88.225 63.0215C87.6876 63.3112 87.0848 63.458 86.4744 63.4478C76.2718 63.1806 69.5228 62.765 58.9244 64.8233C47.3859 67.0697 47.7718 67.3962 31.3645 75.7087C30.6622 76.0657 29.8964 76.2808 29.1108 76.3418C28.3253 76.4027 27.5355 76.3082 26.7865 76.0638C26.0375 75.8193 25.3441 75.4296 24.7457 74.9171C24.1474 74.4045 23.6559 73.779 23.2994 73.0764L15.7093 58.1931C14.9901 56.7712 14.8633 55.1224 15.3566 53.6073C15.8499 52.0922 16.9232 50.8341 18.3416 50.1082C29.8406 44.2697 34.8182 42.2608 40.7952 36.729C51.1562 27.14 52.6702 24.6363 60.7848 12.8801C61.1365 12.3752 61.6129 11.9701 62.1676 11.704C62.7224 11.438 63.3366 11.3202 63.9504 11.362C64.5642 11.4039 65.1568 11.604 65.6703 11.9428C66.1838 12.2817 66.6008 12.7478 66.8807 13.2957Z" fill="#FF7D3F"/>
<path d="M66.8814 13.2957L84.4465 47.9311C84.7263 48.4796 84.8587 49.0914 84.8308 49.7064C84.8029 50.3215 84.6156 50.9187 84.2873 51.4396C83.959 51.9604 83.501 52.387 82.9581 52.6776C82.4153 52.9681 81.8063 53.1125 81.1908 53.0968C70.9882 52.8296 64.2392 52.4238 53.6408 54.4822L53.1658 54.5712C52.3021 54.74 51.4068 54.6227 50.6158 54.237C49.8247 53.8512 49.1809 53.2182 48.7819 52.4337L41.6668 38.4806C41.4114 37.9699 41.3282 37.3901 41.4299 36.8281C41.5316 36.2661 41.8126 35.7523 42.2309 35.3634C51.1668 27.14 53.908 22.8749 60.7856 12.8801C61.1372 12.3752 61.6136 11.9701 62.1684 11.704C62.7232 11.438 63.3374 11.3202 63.9512 11.362C64.565 11.4039 65.1575 11.604 65.671 11.9428C66.1846 12.2817 66.6016 12.7478 66.8814 13.2957Z" fill="#FFBA4E"/>
<path d="M50.6227 33.7605C48.5248 35.9574 46.6643 37.7188 45.1701 39.0746C44.866 39.3552 44.6618 39.7274 44.5886 40.1346C44.5154 40.5418 44.5771 40.9619 44.7643 41.3308L45.6253 42.9636C45.7243 43.2142 45.8734 43.4419 46.0635 43.6328C46.2536 43.8237 46.4807 43.9738 46.7309 44.0738C46.981 44.1739 47.249 44.2218 47.5183 44.2147C47.7876 44.2076 48.0526 44.1455 48.2971 44.0324L54.7492 40.7569C54.9221 40.6698 55.0759 40.5494 55.202 40.4026C55.328 40.2558 55.4237 40.0854 55.4835 39.9014C55.5433 39.7174 55.5661 39.5233 55.5504 39.3304C55.5348 39.1376 55.4811 38.9497 55.3925 38.7777L52.9977 34.0376C52.8839 33.8337 52.7233 33.6598 52.5292 33.5301C52.3351 33.4005 52.1129 33.3187 51.881 33.2917C51.6491 33.2646 51.4141 33.293 51.1954 33.3745C50.9766 33.456 50.7803 33.5883 50.6227 33.7605Z" fill="#FFDD67"/>
<path d="M54.6797 30.2474L58.4104 37.6099C58.4786 37.7444 58.5726 37.8642 58.6871 37.9624C58.8016 38.0606 58.9343 38.1353 59.0777 38.1822C59.2211 38.229 59.3723 38.2472 59.5226 38.2356C59.673 38.224 59.8197 38.1829 59.9541 38.1146L61.7255 37.2141C61.861 37.1469 61.9817 37.0534 62.0807 36.9391C62.1796 36.8247 62.2548 36.6918 62.3017 36.5481C62.3487 36.4043 62.3666 36.2527 62.3543 36.102C62.342 35.9513 62.2998 35.8045 62.2302 35.6703L58.1036 27.526C58.0167 27.3548 57.8883 27.2081 57.73 27.0994C57.5717 26.9906 57.3887 26.9233 57.1977 26.9036C57.0067 26.8839 56.8138 26.9125 56.6367 26.9866C56.4595 27.0608 56.3038 27.1782 56.1838 27.3281C55.7286 27.9021 55.2734 28.4661 54.8182 29.0005C54.6743 29.1713 54.5843 29.3809 54.5596 29.6029C54.535 29.8249 54.5767 30.0492 54.6797 30.2474Z" fill="#FFDD67"/>
<path d="M52.7399 33.5428L53.1556 34.3641C53.2535 34.561 53.2889 34.7831 53.257 35.0006C53.2252 35.2181 53.1276 35.4208 52.9774 35.5813C50.4936 38.2532 48.2967 40.3115 46.5847 41.8948C46.463 42.0056 46.3174 42.0868 46.1592 42.132C46.0009 42.1772 45.8344 42.1853 45.6726 42.1556C45.5107 42.1259 45.3579 42.0593 45.226 41.9608C45.0941 41.8624 44.9868 41.7348 44.9123 41.5881L44.4769 40.6876C44.3697 40.4792 44.3339 40.2415 44.375 40.0108C44.4161 39.7802 44.5319 39.5694 44.7045 39.411C46.3571 37.9068 48.5342 35.898 51.0082 33.2657C51.1288 33.1438 51.2767 33.0525 51.4396 32.9992C51.6026 32.9459 51.7759 32.9323 51.9452 32.9593C52.1145 32.9864 52.2749 33.0535 52.4131 33.155C52.5513 33.2564 52.6634 33.3894 52.7399 33.5428Z" fill="white"/>
<path d="M33.3046 42.3599L46.4562 68.2672C44.2989 69.1479 44.1109 69.2567 31.3651 75.7682C30.6627 76.1252 29.8969 76.3403 29.1114 76.4012C28.3259 76.4621 27.5361 76.3677 26.7871 76.1232C26.0381 75.8787 25.3446 75.4891 24.7463 74.9765C24.1479 74.464 23.6565 73.8385 23.3 73.1359L15.7098 58.1932C14.9934 56.7709 14.868 55.123 15.361 53.6087C15.8541 52.0943 16.9256 50.8362 18.3421 50.1083C31.9885 43.1812 31.4145 43.5177 33.3046 42.3599Z" fill="#64A6EE"/>
<path d="M18.6592 49.95C17.3437 50.5487 16.2892 51.6032 15.6904 52.9187L19.5597 60.5385C19.8067 61.033 20.1649 61.4637 20.6061 61.7967C21.0473 62.1298 21.5596 62.3562 22.1029 62.4583C22.4028 62.5108 22.7113 62.479 22.9942 62.3664C23.277 62.2538 23.5229 62.0648 23.7046 61.8205C23.8863 61.5763 23.9965 61.2863 24.023 60.983C24.0494 60.6798 23.9911 60.3751 23.8545 60.1031L18.6592 49.95Z" fill="#87CEFF"/>
<path d="M18.9942 52.7346L17.114 53.6894C16.6412 53.9296 16.4525 54.5076 16.6926 54.9805L17.262 56.1015C17.5021 56.5744 18.0801 56.7631 18.553 56.5229L20.4332 55.5681C20.9061 55.3279 21.0947 54.7499 20.8546 54.277L20.2853 53.156C20.0451 52.6831 19.4671 52.4944 18.9942 52.7346Z" fill="white"/>
<path d="M25.3086 61.7162L28.7227 59.9745C27.4362 60.6276 25.6055 61.5578 25.3086 61.726V61.7162Z" fill="#64A6EE"/>
<path d="M41.3691 58.2526L46.4556 68.2671C44.2983 69.1479 44.1103 69.2567 31.3645 75.7682C30.6621 76.1252 29.8963 76.3403 29.1108 76.4012C28.3253 76.4621 27.5355 76.3677 26.7865 76.1232C26.0375 75.8787 25.344 75.4891 24.7457 74.9765C24.1473 74.4639 23.6559 73.8385 23.2993 73.1359L18.2129 63.1213C18.9349 64.541 20.1911 65.6158 21.7054 66.1094C23.2196 66.603 24.868 66.475 26.2879 65.7536C39.9243 58.8265 39.3207 59.0937 41.3691 58.2526Z" fill="#4B79DF"/>
<path d="M36.408 37.8602L33.8129 39.1782C32.8866 39.6486 32.5171 40.7808 32.9875 41.7071L46.808 68.9209C47.2784 69.8472 48.4106 70.2168 49.3369 69.7464L51.932 68.4284C52.8583 67.958 53.2278 66.8258 52.7574 65.8995L38.9369 38.6856C38.4665 37.7594 37.3343 37.3898 36.408 37.8602Z" fill="#352D5B"/>
<path d="M36.412 37.8646L33.8168 39.1826C32.8905 39.653 32.521 40.7852 32.9914 41.7114L43.9653 63.3201C44.4357 64.2464 45.5679 64.616 46.4942 64.1456L49.0894 62.8276C50.0156 62.3572 50.3852 61.225 49.9148 60.2987L38.9408 38.69C38.4704 37.7638 37.3382 37.3942 36.412 37.8646Z" fill="#3F416A"/>
<path d="M37.3196 41.4607L36.1809 42.0389C35.7763 42.2444 35.6148 42.739 35.8203 43.1437L39.7742 50.9291C39.9796 51.3338 40.4742 51.4952 40.8789 51.2897L42.0176 50.7114C42.4222 50.5059 42.5836 50.0113 42.3781 49.6067L38.4243 41.8212C38.2188 41.4166 37.7242 41.2552 37.3196 41.4607Z" fill="#536997"/>
<path d="M38.5706 43.9266L37.4319 44.5049C37.0272 44.7104 36.8658 45.205 37.0713 45.6096L38.3354 48.0988C38.5409 48.5035 39.0355 48.6649 39.4402 48.4594L40.5789 47.8811C40.9835 47.6756 41.1449 47.181 40.9394 46.7764L39.6753 44.2872C39.4698 43.8825 38.9752 43.7211 38.5706 43.9266Z" fill="#6291C9"/>
<path d="M20.5088 49.0343L27.2792 45.596L40.3107 71.2563L33.5403 74.6946L20.5088 49.0343Z" fill="#8C97E4"/>
<path d="M20.4941 49.0303L27.2645 45.592L35.2708 61.3571L28.5004 64.7954L20.4941 49.0303Z" fill="#E1E7F8"/>
<path d="M15.7094 58.1931L23.2995 73.1358L16.6198 73.5416C16.1918 73.5736 15.764 73.4778 15.3905 73.2664C15.017 73.055 14.7147 72.7375 14.5219 72.3541L11.1672 65.7238C10.9723 65.3424 10.8937 64.9121 10.9412 64.4863C10.9887 64.0606 11.1602 63.6582 11.4344 63.3291L15.7094 58.1931Z" fill="#FF7D3F"/>
<path d="M14.1656 60.0437L11.4344 63.3291C11.1602 63.6583 10.9887 64.0607 10.9412 64.4864C10.8937 64.9121 10.9723 65.3424 11.1672 65.7239L11.8896 67.1588C12.0742 67.5457 12.369 67.8695 12.7369 68.0896C13.1049 68.3096 13.5296 68.4161 13.9578 68.3958L15.4125 68.3067C15.7247 68.2887 16.0273 68.1919 16.292 68.0253C16.5567 67.8587 16.7748 67.6277 16.926 67.354C17.0772 67.0802 17.1566 66.7726 17.1567 66.4598C17.1568 66.1471 17.0776 65.8394 16.9266 65.5656L14.1656 60.0437Z" fill="#FFBA4E"/>
<path d="M39.9053 55.3177L45.8547 52.2963L48.8358 58.1663L42.8863 61.1878L39.9053 55.3177Z" fill="#4E5FB6"/>
<path d="M39.9082 55.3265L45.8577 52.3051L47.4446 55.4299L41.4951 58.4513L39.9082 55.3265Z" fill="#6782CF"/>
<path d="M84.5059 40.0244L81.7845 42.6666L74.8574 28.9509L78.5881 28.3176C79.2156 28.2095 79.8612 28.3061 80.4296 28.593C80.998 28.8798 81.4592 29.3419 81.7449 29.9108L85.1095 36.541C85.3956 37.1097 85.4914 37.7552 85.3827 38.3824C85.274 39.0095 84.9666 39.5852 84.5059 40.0244Z" fill="#FF2353"/>
<path d="M32.253 75.342L43.3663 69.6981L45.5449 73.9881C45.7185 74.3299 45.7492 74.7266 45.6302 75.091C45.5113 75.4555 45.2524 75.7577 44.9106 75.9313L36.366 80.2707C36.0242 80.4442 35.6275 80.4749 35.2631 80.356C34.8986 80.237 34.5964 79.9782 34.4228 79.6364L32.2441 75.3464L32.253 75.342Z" fill="#3F416A"/>
<path d="M32.2549 75.3492L43.377 69.7009L44.6501 72.2078L33.528 77.8561L32.2549 75.3492Z" fill="#3A3256"/>
<path d="M57.312 88.1875C57.6645 88.8704 57.8035 89.6436 57.7107 90.4066C57.618 91.1695 57.2978 91.8869 56.7918 92.4654C56.2859 93.044 55.6176 93.4569 54.8738 93.6505C54.13 93.8441 53.3452 93.8095 52.6214 93.551C45.9975 91.0042 40.5464 86.1028 37.3125 79.7859L44.1109 76.3125C46.4809 80.9628 50.4839 84.5748 55.3526 86.4557C56.1928 86.7785 56.8885 87.3933 57.312 88.1875Z" fill="#4E5FB6"/>
<path d="M57.312 88.1875C57.6645 88.8704 57.8035 89.6436 57.7107 90.4066C57.618 91.1695 57.2978 91.8869 56.7918 92.4654C56.2859 93.044 55.6176 93.4569 54.8738 93.6505C54.13 93.8441 53.3452 93.8095 52.6214 93.551C45.9975 91.0042 40.5464 86.1028 37.3125 79.7859L44.1109 76.3125C46.4809 80.9628 50.4839 84.5748 55.3526 86.4557C56.1928 86.7785 56.8885 87.3933 57.312 88.1875Z" fill="#E1E7F8"/>
<path d="M55.0659 89.8302C54.3222 90.0242 53.5363 89.9792 52.8195 89.7016C47.2742 87.5602 42.5256 83.7585 39.2227 78.8161L44.1112 76.3125C46.4811 80.9628 50.4842 84.5748 55.3529 86.4557C55.6937 86.6067 55.979 86.8602 56.1689 87.181C56.3589 87.5018 56.444 87.8738 56.4124 88.2453C56.3808 88.6167 56.2341 88.9691 55.9927 89.2532C55.7513 89.5373 55.4273 89.739 55.0659 89.8302Z" fill="#C8CEF8"/>
<path d="M71.564 30.6089L69.7015 31.5548C69.0336 31.894 68.7672 32.7104 69.1063 33.3783L74.8399 44.6681C75.179 45.336 75.9954 45.6024 76.6633 45.2633L78.5258 44.3174C79.1937 43.9782 79.4602 43.1618 79.121 42.4939L73.3875 31.2041C73.0483 30.5362 72.2319 30.2697 71.564 30.6089Z" fill="#FFD36C"/>
<path d="M28.9883 44.7166L31.6364 43.3717L37.4641 54.8469C37.5425 55.0014 37.5564 55.1808 37.5026 55.3455C37.4489 55.5103 37.3319 55.6469 37.1773 55.7254L35.7032 56.474C35.5487 56.5525 35.3694 56.5663 35.2046 56.5126C35.0399 56.4588 34.9032 56.3418 34.8248 56.1873L28.9971 44.7121L28.9883 44.7166Z" fill="#87CEFF"/>
<path d="M30.8486 46.7033L32.1285 46.0532C32.3064 45.9629 32.513 45.9469 32.7027 46.0088C32.8924 46.0707 33.0497 46.2055 33.1401 46.3834L34.2608 48.5902C34.3392 48.7447 34.3531 48.924 34.2993 49.0888C34.2456 49.2535 34.1286 49.3902 33.9741 49.4686L32.5176 50.2083C32.3631 50.2868 32.1837 50.3006 32.019 50.2469C31.8542 50.1931 31.7176 50.0761 31.6391 49.9216L30.5184 47.7148C30.4281 47.5369 30.4121 47.3304 30.474 47.1406C30.5359 46.9509 30.6707 46.7936 30.8486 46.7033Z" fill="white"/>
<path d="M72.601 50.1083C72.6562 50.2272 72.7345 50.3339 72.8312 50.4222C72.928 50.5106 73.0414 50.5788 73.1647 50.623C73.2881 50.6672 73.419 50.6864 73.5499 50.6796C73.6807 50.6728 73.8089 50.6401 73.927 50.5833C74.0456 50.5213 74.1503 50.4359 74.2349 50.3322C74.3195 50.2286 74.3822 50.1088 74.4192 49.9802C74.4562 49.8517 74.4667 49.7169 74.4502 49.5842C74.4336 49.4514 74.3903 49.3234 74.3229 49.2078L64.2984 29.4854C64.1745 29.2598 63.9676 29.0914 63.7215 29.0158C63.4755 28.9402 63.2097 28.9635 62.9805 29.0806C62.7514 29.1978 62.5769 29.3996 62.494 29.6433C62.4112 29.887 62.4266 30.1534 62.5369 30.3859L72.601 50.1083Z" fill="#302D3D"/>
<path d="M55.8274 85.5255C51.5204 83.8463 47.9193 80.7412 45.6248 76.7281C46.1525 76.4116 46.5408 75.907 46.7116 75.3158C46.8823 74.7246 46.8229 74.0907 46.5451 73.5416L44.8134 70.1671C45.2488 69.9593 45.6842 69.7416 46.1295 69.5437C46.4735 70.1759 47.0517 70.6482 47.7399 70.8591C48.4281 71.07 49.1715 71.0027 49.8107 70.6718L52.5519 69.2666C52.9999 69.0424 53.3779 68.6997 53.6449 68.2758C53.9118 67.8518 54.0574 67.3628 54.066 66.8619C54.6102 66.7333 55.1743 66.6145 55.7285 66.5057C69.9191 63.7447 72.5514 64.0614 86.5639 64.3979C87.3511 64.4174 88.1299 64.232 88.8238 63.8598C89.5177 63.4876 90.103 62.9414 90.5221 62.2748C90.9413 61.6081 91.1799 60.844 91.2146 60.0573C91.2493 59.2706 91.0789 58.4884 90.7201 57.7874L83.0311 42.7952L85.2081 40.6874C85.8147 40.097 86.216 39.3276 86.3532 38.4923C86.4903 37.657 86.3561 36.7997 85.9701 36.0463L82.5857 29.4161C82.2024 28.6611 81.587 28.049 80.83 27.6696C80.073 27.2902 79.2143 27.1636 78.38 27.3083L75.3816 27.8229L67.7321 12.8109C67.3756 12.1075 66.8422 11.5091 66.1842 11.0745C65.5263 10.6399 64.7665 10.384 63.9797 10.3321C63.1929 10.2802 62.4062 10.434 61.6968 10.7784C60.9875 11.1228 60.38 11.6459 59.9342 12.2963C52.0175 23.7458 50.5925 26.2791 40.1425 36.0463C39.7269 36.4322 39.3014 36.8182 38.866 37.1843C38.4544 36.9014 37.9739 36.7355 37.4755 36.7041C36.9771 36.6728 36.4795 36.7771 36.0357 37.0062L33.2847 38.4114C32.642 38.7349 32.151 39.2966 31.9162 39.9768C31.6815 40.657 31.7216 41.402 32.0279 42.0531C30.7019 42.8249 31.1175 42.5973 17.9363 49.3265C16.3873 50.1195 15.1888 51.4605 14.5742 53.0885C13.9595 54.7165 13.9728 56.515 14.6113 58.1338L10.7321 62.7848C10.3364 63.2632 10.089 63.8468 10.0205 64.4639C9.9519 65.081 10.0651 65.7047 10.3462 66.2583L13.7206 72.8786C14.0041 73.4312 14.4423 73.8892 14.9818 74.1968C15.5214 74.5043 16.1388 74.648 16.7587 74.6103L22.8248 74.2145C23.7574 75.6776 25.2004 76.7419 26.8736 77.2009C28.5468 77.6599 30.3309 77.4808 31.8795 76.6984L33.6212 80.1124C33.7724 80.4041 33.9812 80.6621 34.2349 80.871C34.4885 81.0798 34.7818 81.2352 35.0971 81.3276C35.4124 81.4201 35.7432 81.4478 36.0695 81.409C36.3957 81.3702 36.7108 81.2658 36.9956 81.102C40.3862 87.2478 45.8401 91.9972 52.3936 94.5109C53.5851 94.9662 54.9087 94.9296 56.0733 94.409C57.2378 93.8885 58.1478 92.9266 58.6032 91.7351C59.0586 90.5435 59.0219 89.2199 58.5014 88.0554C57.9808 86.8908 57.019 85.9808 55.8274 85.5255ZM78.7363 29.2281C79.1547 29.155 79.5856 29.2185 79.9652 29.4092C80.3447 29.5998 80.6529 29.9076 80.8441 30.2869L84.2186 36.9171C84.4121 37.2949 84.4791 37.7249 84.4096 38.1436C84.3401 38.5623 84.1378 38.9476 83.8326 39.2426L82.0811 40.9447L76.3019 29.6437L78.7363 29.2281ZM51.5623 67.515L48.8311 68.9104C48.6817 68.9862 48.5121 69.0126 48.3467 68.986C48.1814 68.9593 48.0287 68.8808 47.9108 68.7619C47.7821 68.6729 48.0691 69.1874 44.2097 61.627L48.4352 59.4895C51.9581 66.4166 51.3446 65.1796 51.968 66.4166C52.0158 66.515 52.0432 66.622 52.0486 66.7313C52.054 66.8405 52.0372 66.9497 51.9993 67.0523C51.9614 67.1549 51.9032 67.2488 51.8281 67.3283C51.753 67.4078 51.6626 67.4713 51.5623 67.515ZM47.4951 57.738L43.3488 59.8656L41.2607 55.7687L45.4368 53.6411L47.4951 57.738ZM41.4587 37.4713C48.0988 31.3161 51.8988 27.4666 57.1535 19.8369L59.479 24.4484C59.6029 24.674 59.8098 24.8424 60.0558 24.918C60.3019 24.9936 60.5677 24.9703 60.7968 24.8532C61.026 24.736 61.2005 24.5342 61.2833 24.2905C61.3662 24.0468 61.3508 23.7804 61.2404 23.5479L58.43 17.9765L61.567 13.4145C61.8207 13.0495 62.1645 12.7564 62.5652 12.5639C62.9658 12.3713 63.4094 12.2858 63.8529 12.3157C64.2964 12.3456 64.7246 12.4899 65.0957 12.7345C65.4668 12.9791 65.7683 13.3156 65.9706 13.7114L88.9191 58.688C89.1313 59.0848 89.2353 59.5306 89.2206 59.9804C89.2059 60.4303 89.073 60.8683 88.8353 61.2504C88.5976 61.6326 88.2634 61.9454 87.8664 62.1575C87.4694 62.3695 87.0236 62.4732 86.5738 62.4583L81.0321 62.3296L78.0634 56.59C77.9395 56.3644 77.7326 56.196 77.4865 56.1204C77.2405 56.0448 76.9747 56.0681 76.7455 56.1852C76.5163 56.3024 76.3418 56.5043 76.259 56.7479C76.1762 56.9916 76.1916 57.258 76.3019 57.4906L78.7462 62.2702C72.0454 62.0722 65.3436 62.6265 58.7665 63.9229C54.9863 64.665 54.4816 64.7442 53.4128 65.0213L51.4337 61.063C55.8985 60.017 60.4274 59.2665 64.991 58.8166C65.1209 58.8043 65.2472 58.7664 65.3625 58.7053C65.4778 58.6442 65.58 58.5609 65.6632 58.4603C65.7463 58.3597 65.8089 58.2436 65.8472 58.1189C65.8855 57.9941 65.8989 57.863 65.8865 57.733C65.8742 57.6031 65.8364 57.4768 65.7752 57.3615C65.7141 57.2461 65.6308 57.144 65.5302 57.0608C65.4296 56.9776 65.3136 56.9151 65.1888 56.8768C65.064 56.8385 64.9329 56.8251 64.8029 56.8374C59.992 57.3237 55.2162 58.1104 50.5035 59.1926L40.0634 38.7083C40.5482 38.3223 41.0232 37.9067 41.4884 37.4713H41.4587ZM33.7498 40.6083C33.8686 40.1827 33.9477 40.2421 36.867 38.7577C36.9607 38.7043 37.0643 38.6703 37.1714 38.6578C37.2786 38.6454 37.3872 38.6546 37.4907 38.6851C37.5942 38.7156 37.6904 38.7667 37.7737 38.8353C37.857 38.9039 37.9256 38.9886 37.9753 39.0843C38.6285 40.3411 37.7081 38.5499 44.5066 51.8697L40.3206 54.0072C33.2451 40.0541 33.641 41.0437 33.7498 40.6083ZM32.879 43.7848L45.1696 67.7921C43.7347 68.4156 42.6462 68.9994 40.7956 69.9395L28.6139 46.0609C30.5436 45.0812 31.7113 44.5072 32.9186 43.7848H32.879ZM26.8227 46.9713L28.5743 50.4051L23.6066 52.9583L21.8748 49.5244L26.8227 46.9713ZM29.4748 52.1666L31.1967 55.5312L26.1894 58.0843L24.5071 54.7692L29.4748 52.1666ZM32.0675 57.2432L33.7498 60.5583L28.8019 63.1114L27.1097 59.7963L32.0675 57.2432ZM34.7394 62.3197L36.4217 65.6348L31.4738 68.188L29.7816 64.8728L34.7394 62.3197ZM37.2727 67.4062L39.0342 70.8499L34.0269 73.4031L32.2753 69.9593L37.2727 67.4062ZM16.6399 72.6312C16.4054 72.6482 16.1711 72.5952 15.9668 72.4789C15.7624 72.3627 15.5972 72.1883 15.492 71.9781L12.1076 65.3577C12.0014 65.1478 11.9589 64.9113 11.9852 64.6775C12.0116 64.4437 12.1057 64.2226 12.2561 64.0416L15.5613 60.0833L21.8154 72.3244L16.6399 72.6312ZM24.2696 72.74L16.6498 57.8072C16.0477 56.6217 15.9398 55.246 16.3497 53.9812C16.7596 52.7163 17.6538 51.6653 18.8368 51.0583L20.0837 50.4249L32.2654 74.3333L31.0087 74.9765C30.4213 75.2821 29.7786 75.4668 29.1185 75.5195C28.4585 75.5722 27.7946 75.4919 27.1662 75.2834C26.5378 75.0748 25.9576 74.7422 25.46 74.3054C24.9625 73.8685 24.5577 73.3362 24.2696 72.74ZM35.3826 79.2119L33.6509 75.8077L42.9925 71.038L44.7243 74.4421C44.753 74.4951 44.7708 74.5534 44.7763 74.6134C44.7819 74.6734 44.7752 74.7339 44.7567 74.7913C44.7382 74.8486 44.7083 74.9016 44.6687 74.9471C44.6291 74.9925 44.5807 75.0295 44.5264 75.0557L35.9962 79.4098C35.8881 79.4625 35.7639 79.4713 35.6495 79.4344C35.5352 79.3975 35.4395 79.3178 35.3826 79.2119ZM56.817 90.5624C56.7412 90.9612 56.5795 91.3388 56.3433 91.6689C56.1071 91.9991 55.8019 92.2739 55.4489 92.4744C55.0959 92.6749 54.7036 92.7963 54.299 92.8301C53.8945 92.8639 53.4874 92.8094 53.1061 92.6702C47.0201 90.3425 41.9427 85.9549 38.7571 80.2708L43.7941 77.6781C46.3329 82.1292 50.3324 85.5658 55.1149 87.4057C55.728 87.643 56.2363 88.0914 56.5483 88.6701C56.8603 89.2487 56.9556 89.9198 56.817 90.5624Z" fill="#302D3D"/>
<path d="M98.6072 68.8906H71.5619C70.033 68.8946 68.5561 69.4456 67.3981 70.4438C66.2401 71.4421 65.4776 72.8217 65.2484 74.3333H61.29C60.6194 74.3335 59.9639 74.5323 59.4061 74.9046C58.8484 75.277 58.4134 75.8062 58.1562 76.4255C57.8989 77.0449 57.8309 77.7265 57.9606 78.3844C58.0904 79.0424 58.4122 79.6471 58.8853 80.1224L65.2286 86.4557V100.31C65.2286 102.004 65.9007 103.628 67.0974 104.827C68.2942 106.025 69.9176 106.7 71.6114 106.703H98.6072C99.4488 106.701 100.282 106.534 101.059 106.211C101.836 105.887 102.541 105.413 103.135 104.817C103.729 104.22 104.199 103.513 104.519 102.734C104.839 101.956 105.003 101.122 105 100.28V75.3229C105.004 74.4805 104.841 73.6455 104.522 72.8659C104.203 72.0863 103.733 71.3774 103.139 70.7799C102.545 70.1823 101.839 69.7079 101.061 69.3837C100.284 69.0595 99.4497 68.8919 98.6072 68.8906ZM103.021 100.28C103.021 101.451 102.556 102.573 101.728 103.401C100.9 104.229 99.7778 104.694 98.6072 104.694H71.5619C70.3931 104.691 69.273 104.225 68.4474 103.398C67.6219 102.57 67.1582 101.449 67.1583 100.28V86.0104C67.1577 85.8795 67.1312 85.75 67.0802 85.6294C67.0293 85.5088 66.9549 85.3995 66.8614 85.3078L60.2411 78.6776C60.0428 78.4816 59.9073 78.2311 59.8517 77.9579C59.7962 77.6847 59.8232 77.4012 59.9293 77.1434C60.0354 76.8856 60.2158 76.6651 60.4475 76.5101C60.6793 76.3551 60.9519 76.2726 61.2306 76.2729H66.1786C66.441 76.2729 66.6927 76.1687 66.8783 75.9831C67.0639 75.7975 67.1681 75.5458 67.1681 75.2833C67.1681 74.1145 67.6318 72.9934 68.4573 72.166C69.2829 71.3386 70.403 70.8724 71.5718 70.8698H98.6072C99.1902 70.8698 99.7673 70.9852 100.305 71.2095C100.843 71.4338 101.332 71.7624 101.742 72.1765C102.152 72.5905 102.477 73.0817 102.696 73.6218C102.916 74.1618 103.026 74.74 103.021 75.3229V100.28Z" fill="#302D3D"/>
<path d="M85 73.9871C82.2693 73.9871 79.5999 74.7969 77.3295 76.3143C75.0591 77.8316 73.2897 79.9882 72.2452 82.5112C71.2006 85.0343 70.9278 87.8104 71.4613 90.4885C71.9948 93.1667 73.3105 95.6264 75.2421 97.5566C77.1737 99.4869 79.6344 100.801 82.3129 101.332C84.9914 101.864 87.7674 101.589 90.2897 100.543C92.812 99.4964 94.9673 97.7255 96.483 95.454C97.9987 93.1825 98.8066 90.5126 98.8047 87.7818C98.789 84.1263 97.3293 80.6252 94.7435 78.0412C92.1577 75.4573 88.6555 74.0001 85 73.9871ZM85 99.6074C82.6632 99.6074 80.3789 98.915 78.4353 97.6178C76.4917 96.3206 74.9759 94.4766 74.0795 92.3186C73.183 90.1607 72.9459 87.7855 73.3982 85.4929C73.8505 83.2004 74.9719 81.0932 76.6208 79.4374C78.2696 77.7816 80.3721 76.6515 82.6628 76.1896C84.9534 75.7278 87.3296 75.9549 89.4913 76.8424C91.6529 77.7298 93.5032 79.2378 94.8086 81.176C96.1139 83.1142 96.8157 85.3956 96.8255 87.7324C96.8256 90.8733 95.5812 93.8862 93.3649 96.1118C91.1486 98.3374 88.1409 99.5943 85 99.6074Z" fill="#302D3D"/>
<path d="M83.3694 92.26C83.2342 92.2543 83.1016 92.2212 82.9795 92.1628C82.8575 92.1043 82.7486 92.0217 82.6594 91.92L79.7094 88.63C79.533 88.4311 79.4429 88.1702 79.4588 87.9049C79.4748 87.6395 79.5955 87.3914 79.7944 87.215C79.9933 87.0386 80.2541 86.9485 80.5195 86.9644C80.7849 86.9804 81.033 87.1011 81.2094 87.3L83.4294 89.81L89.7594 83.65C89.8506 83.5468 89.9621 83.4635 90.087 83.4055C90.2118 83.3474 90.3473 83.3157 90.485 83.3124C90.6227 83.3091 90.7595 83.3343 90.887 83.3864C91.0145 83.4385 91.1298 83.5164 91.2258 83.6151C91.3218 83.7139 91.3964 83.8314 91.4448 83.9603C91.4933 84.0892 91.5146 84.2267 91.5074 84.3642C91.5002 84.5018 91.4647 84.6363 91.4031 84.7595C91.3415 84.8827 91.2551 84.9918 91.1494 85.08L84.0694 92C83.8784 92.1738 83.6275 92.267 83.3694 92.26Z" fill="white"/>
</g>
<defs>
<clipPath id="clip0_1452_270">
<rect width="95" height="95" fill="white" transform="translate(10 11)"/>
</clipPath>
</defs>
</svg>
