<svg width="18" height="18" viewBox="0 0 18 18" fill="none" xmlns="http://www.w3.org/2000/svg">
<g id="ph:link">
<path id="Vector" d="M16.8754 6.20366C16.8472 7.18287 16.4445 8.11397 15.7504 8.80522L13.307 11.25C12.9512 11.6078 12.5279 11.8915 12.0616 12.0846C11.5954 12.2777 11.0955 12.3764 10.5909 12.375H10.5874C10.0741 12.3746 9.56612 12.2714 9.09343 12.0714C8.62073 11.8714 8.19291 11.5788 7.83523 11.2107C7.47755 10.8426 7.19727 10.4065 7.01094 9.92826C6.82462 9.45002 6.73603 8.93929 6.7504 8.42623C6.7546 8.27705 6.81788 8.13564 6.92634 8.03312C7.0348 7.9306 7.17954 7.87536 7.32872 7.87955C7.47791 7.88375 7.61931 7.94704 7.72184 8.05549C7.82436 8.16395 7.8796 8.30869 7.8754 8.45787C7.86516 8.82064 7.92773 9.18177 8.05943 9.51994C8.19112 9.8581 8.38927 10.1664 8.64215 10.4267C8.89503 10.687 9.19753 10.894 9.53175 11.0354C9.86598 11.1768 10.2252 11.2498 10.5881 11.25C10.9448 11.2509 11.2982 11.181 11.6278 11.0445C11.9574 10.908 12.2566 10.7076 12.5083 10.4548L14.9517 8.01139C15.4558 7.50093 15.7374 6.81175 15.7352 6.09433C15.733 5.3769 15.447 4.6895 14.9397 4.1822C14.4324 3.6749 13.745 3.38891 13.0275 3.38667C12.3101 3.38442 11.6209 3.6661 11.1105 4.17022L10.337 4.94366C10.2307 5.04469 10.0891 5.10019 9.94241 5.09831C9.79573 5.09643 9.65559 5.03733 9.55186 4.9336C9.44813 4.82988 9.38903 4.68974 9.38715 4.54306C9.38528 4.39638 9.44077 4.25477 9.54181 4.14842L10.3152 3.37498C10.6721 3.01803 11.0957 2.73487 11.562 2.54168C12.0283 2.34849 12.5281 2.24905 13.0328 2.24905C13.5375 2.24905 14.0373 2.34849 14.5036 2.54168C14.9699 2.73487 15.3936 3.01803 15.7504 3.37498C16.12 3.7455 16.4103 4.18735 16.6037 4.67365C16.7972 5.15994 16.8896 5.68051 16.8754 6.20366ZM7.66446 13.0542L6.89103 13.8276C6.63879 14.0816 6.33856 14.2829 6.00782 14.4198C5.67707 14.5567 5.32241 14.6264 4.96446 14.625C4.42749 14.6246 3.90269 14.465 3.45638 14.1664C3.01006 13.8678 2.66226 13.4437 2.45692 12.9475C2.25158 12.4513 2.19791 11.9054 2.30269 11.3788C2.40748 10.8521 2.66601 10.3684 3.04564 9.98858L5.48478 7.54522C5.86895 7.15901 6.36038 6.89725 6.89524 6.79392C7.43009 6.69059 7.98366 6.75048 8.48405 6.96579C8.98443 7.18111 9.40851 7.54191 9.70122 8.00134C9.99392 8.46077 10.1417 8.99759 10.1254 9.54209C10.1212 9.69128 10.1764 9.83602 10.279 9.94447C10.3815 10.0529 10.5229 10.1162 10.6721 10.1204C10.8213 10.1246 10.966 10.0694 11.0745 9.96685C11.1829 9.86433 11.2462 9.72292 11.2504 9.57373C11.2639 9.0514 11.1712 8.53177 10.9778 8.04638C10.7844 7.56098 10.4944 7.11993 10.1254 6.74998C9.40483 6.02972 8.4277 5.62511 7.40888 5.62511C6.39005 5.62511 5.41293 6.02972 4.69235 6.74998L2.2504 9.19334C1.71338 9.73015 1.34753 10.4141 1.1991 11.1588C1.05066 11.9034 1.1263 12.6754 1.41646 13.3771C1.70662 14.0788 2.19827 14.6787 2.82928 15.101C3.46029 15.5234 4.20234 15.7492 4.96165 15.75C5.4664 15.7514 5.96643 15.6528 6.43279 15.4597C6.89914 15.2665 7.32256 14.9828 7.67853 14.625L8.45196 13.8515C8.54299 13.7443 8.59055 13.6069 8.58526 13.4663C8.57996 13.3258 8.5222 13.1923 8.42337 13.0922C8.32453 12.9922 8.19178 12.9327 8.05131 12.9257C7.91083 12.9187 7.77281 12.9645 7.66446 13.0542Z" fill="black"/>
</g>
</svg>
