<svg width="20" height="21" viewBox="0 0 20 21" fill="none" xmlns="http://www.w3.org/2000/svg">
<g id="Frame">
<path id="Vector" d="M10 11.333C11.3807 11.333 12.5 10.2137 12.5 8.83301C12.5 7.4523 11.3807 6.33301 10 6.33301C8.61929 6.33301 7.5 7.4523 7.5 8.83301C7.5 10.2137 8.61929 11.333 10 11.333Z" stroke="#FFC444" stroke-linecap="round" stroke-linejoin="round"/>
<path id="Vector_2" d="M9.9987 2.16699C8.23059 2.16699 6.5349 2.86937 5.28465 4.11961C4.03441 5.36986 3.33203 7.06555 3.33203 8.83366C3.33203 10.4103 3.66703 11.442 4.58203 12.5837L9.9987 18.8337L15.4154 12.5837C16.3304 11.442 16.6654 10.4103 16.6654 8.83366C16.6654 7.06555 15.963 5.36986 14.7127 4.11961C13.4625 2.86937 11.7668 2.16699 9.9987 2.16699Z" stroke="#FFC444" stroke-linecap="round" stroke-linejoin="round"/>
</g>
</svg>
