<svg width="28" height="29" viewBox="0 0 28 29" fill="none" xmlns="http://www.w3.org/2000/svg">
<path d="M10.5 13.3332V12.1665C10.5 10.2298 11.0833 8.6665 14 8.6665C16.9167 8.6665 17.5 10.2298 17.5 12.1665V13.3332" stroke="#292D32" stroke-width="1.75" stroke-linecap="round" stroke-linejoin="round"/>
<path d="M14.0005 17.5338C14.3871 17.5338 14.7005 17.2204 14.7005 16.8338C14.7005 16.4472 14.3871 16.1338 14.0005 16.1338C13.6139 16.1338 13.3005 16.4472 13.3005 16.8338C13.3005 17.2204 13.6139 17.5338 14.0005 17.5338Z" stroke="#292D32" stroke-width="1.75" stroke-linecap="round" stroke-linejoin="round"/>
<path d="M16.9167 20.3335H11.0834C8.75008 20.3335 8.16675 19.7502 8.16675 17.4168V16.2502C8.16675 13.9168 8.75008 13.3335 11.0834 13.3335H16.9167C19.2501 13.3335 19.8334 13.9168 19.8334 16.2502V17.4168C19.8334 19.7502 19.2501 20.3335 16.9167 20.3335Z" stroke="#292D32" stroke-width="1.75" stroke-linecap="round" stroke-linejoin="round"/>
<path d="M13.9999 26.1668C20.4432 26.1668 25.6666 20.9435 25.6666 14.5002C25.6666 8.05684 20.4432 2.8335 13.9999 2.8335C7.5566 2.8335 2.33325 8.05684 2.33325 14.5002C2.33325 20.9435 7.5566 26.1668 13.9999 26.1668Z" stroke="#292D32" stroke-width="1.75" stroke-linecap="round" stroke-linejoin="round"/>
</svg>
