<svg width="1366" height="549" viewBox="0 0 1366 549" fill="none" xmlns="http://www.w3.org/2000/svg">
<g opacity="0.2" clip-path="url(#clip0_4465_10406)">
<path d="M5.17064 616.822C20.5546 529.456 65.8163 440.827 114.231 375.914C163.426 309.802 216.005 263.573 263.415 231.79C360.089 169.704 435.633 159.163 488.477 159.976C592.759 164.496 613.637 215.769 629.279 262.426C646.289 311.184 660.003 356.367 768.066 340.517C823.052 333.006 904.826 310.731 1022.98 285.79C1082.03 274.276 1148.78 261.685 1223.62 255.438C1297.85 249.732 1379.26 249.124 1454.57 275.021" stroke="url(#paint0_radial_4465_10406)" stroke-width="1.6045" stroke-miterlimit="10"/>
<path d="M-6.56853 591.277C11.9004 502.866 58.7517 414.847 108.097 350.727C158.209 285.463 211.03 240.282 258.526 209.395C355.269 149.125 430.293 139.912 482.975 141.672C586.863 148.142 608.054 199.831 623.981 246.724C641.295 295.735 655.363 341.114 763.937 327.235C819.177 320.682 901.177 299.818 1019.75 276.511C1079.07 265.792 1146.08 254.051 1221.47 248.566C1296.23 243.639 1378.38 243.691 1454.53 270.406" stroke="url(#paint1_radial_4465_10406)" stroke-width="1.6045" stroke-miterlimit="10"/>
<path d="M-17.7949 565.537C3.69731 476.265 52.0522 388.933 102.278 325.662C153.253 261.267 206.259 217.102 253.787 187.079C350.504 128.558 424.968 120.602 477.433 123.312C580.852 131.685 602.339 183.807 618.533 230.938C636.15 280.202 650.521 325.798 759.589 313.91C815.084 308.333 897.275 288.9 1016.28 267.225C1075.85 257.321 1143.17 246.428 1219.1 241.722C1294.42 237.592 1377.33 238.285 1454.34 265.779" stroke="url(#paint2_radial_4465_10406)" stroke-width="1.6045" stroke-miterlimit="10"/>
<path d="M-28.4685 539.669C-4.03168 449.739 45.7769 363.169 96.8283 300.733C148.595 237.228 201.766 194.044 249.271 164.869C345.886 108.03 419.712 101.247 471.942 104.889C574.797 115.097 596.583 167.69 613.025 215.059C630.912 264.597 645.604 310.445 755.112 300.549C810.826 295.951 893.209 277.967 1012.67 257.96C1072.5 248.87 1140.12 238.842 1216.65 234.931C1292.51 231.598 1376.24 232.947 1454.15 261.218" stroke="url(#paint3_radial_4465_10406)" stroke-width="1.6045" stroke-miterlimit="10"/>
<path d="M-38.5853 513.737C-11.2668 423.314 39.9265 337.564 91.7151 276.004C144.222 213.41 197.483 171.177 244.943 142.797C341.361 87.5543 414.493 81.8931 466.447 86.3989C568.682 98.3911 590.749 151.473 607.423 199.099C625.578 248.911 640.538 295.014 750.471 287.167C806.405 283.565 888.943 267.031 1008.87 248.71C1068.96 240.452 1136.9 231.306 1214.01 228.172C1290.47 225.635 1375.01 227.639 1453.84 256.668" stroke="url(#paint4_radial_4465_10406)" stroke-width="1.6045" stroke-miterlimit="10"/>
<path d="M188.141 327.852L173.223 283.147L171.92 283.58L170.124 284.173L142.002 293.514L138.891 294.541L143.647 308.8L152.205 334.451C150.336 333.784 148.251 333.714 146.232 334.38C141.42 335.981 138.822 341.151 140.426 345.947C142.018 350.743 147.215 353.328 152.027 351.726C156.839 350.124 159.436 344.954 157.832 340.158C157.6 339.456 157.276 338.808 156.907 338.209L146.745 307.762L174.868 298.42L183.426 324.072C181.569 323.404 179.472 323.335 177.453 324C172.64 325.602 170.043 330.772 171.647 335.567C173.251 340.363 178.435 342.948 183.248 341.346C188.06 339.744 190.657 334.574 189.053 329.779C188.835 329.1 188.51 328.451 188.141 327.852Z" fill="#FFC444"/>
<path d="M433.45 89.5378L412.434 60.6098L411.589 61.2191L410.423 62.064L392.218 75.2115L390.207 76.6657L396.913 85.8858L408.967 102.479C407.468 102.421 405.941 102.844 404.636 103.788C401.528 106.037 400.825 110.371 403.08 113.468C405.335 116.573 409.682 117.262 412.79 115.012C415.898 112.762 416.601 108.428 414.346 105.332C414.021 104.88 413.644 104.486 413.234 104.14L398.915 84.4412L417.12 71.2936L429.175 87.8871C427.675 87.8293 426.149 88.2521 424.843 89.1954C421.735 91.4451 421.033 95.7792 423.287 98.8756C425.542 101.972 429.89 102.669 432.998 100.42C436.106 98.1699 436.808 93.8358 434.553 90.7394C434.237 90.2787 433.86 89.8847 433.45 89.5378Z" fill="#FFC444"/>
<path d="M319.68 222.77L321.083 247.153C320.12 246.434 318.905 246.036 317.608 246.111C314.672 246.281 312.449 248.787 312.616 251.696C312.784 254.605 315.298 256.837 318.216 256.668C321.134 256.499 323.375 253.992 323.207 251.083L321.571 222.661L319.68 222.77Z" fill="#FFC444"/>
<path d="M81.4789 373.411L82.8834 397.811C81.9203 397.092 80.7047 396.694 79.4079 396.769C76.472 396.939 74.2489 399.446 74.4163 402.355C74.5837 405.263 77.0977 407.496 80.0155 407.327C82.9334 407.158 85.1745 404.65 85.0071 401.742L83.3711 373.319L81.4799 373.429L81.4789 373.411Z" fill="#FFC444"/>
<path d="M172.806 180.931L175.087 220.575C173.52 219.405 171.549 218.762 169.424 218.885C164.669 219.16 161.036 223.226 161.309 227.966C161.581 232.706 165.657 236.325 170.412 236.05C175.167 235.775 178.8 231.709 178.528 226.969L175.868 180.753L172.806 180.931Z" fill="#B5A98E"/>
<path d="M82.7274 208.149L85.0093 247.794C83.442 246.623 81.4713 245.981 79.346 246.104C74.5909 246.379 70.9576 250.444 71.2304 255.185C71.5033 259.925 75.5789 263.544 80.3339 263.269C85.089 262.994 88.7223 258.928 88.4495 254.188L85.7894 207.972L82.7274 208.149Z" fill="#F4E7CB"/>
<path d="M371.259 97.1338L373.541 136.778C371.973 135.608 370.003 134.965 367.877 135.088C363.122 135.363 359.489 139.429 359.762 144.169C360.035 148.909 364.11 152.528 368.865 152.253C373.62 151.978 377.254 147.913 376.981 143.172L374.321 96.9566L371.259 97.1338Z" fill="#FFC444"/>
<path d="M358.758 172.468L377.089 207.725C375.166 207.296 373.1 207.505 371.222 208.479C366.993 210.669 365.339 215.845 367.533 220.059C369.728 224.274 374.937 225.918 379.148 223.729C383.378 221.538 385.032 216.363 382.837 212.148L361.478 171.049L358.758 172.468Z" fill="#F4E7CB"/>
<path d="M221.087 237.079L223.369 276.723C221.801 275.553 219.831 274.911 217.705 275.034C212.95 275.309 209.317 279.374 209.59 284.114C209.863 288.854 213.938 292.474 218.693 292.198C223.448 291.923 227.082 287.858 226.809 283.118L224.149 236.902L221.087 237.079Z" fill="#F4E7CB"/>
<path d="M259.143 159.396L257.416 129.393L256.536 129.444L255.325 129.514L236.448 130.607L234.37 130.727L234.921 140.293L235.912 157.512C234.877 156.802 233.603 156.399 232.246 156.477C229.018 156.664 226.552 159.423 226.737 162.641C226.922 165.858 229.689 168.314 232.916 168.127C236.144 167.941 238.61 165.181 238.425 161.964C238.398 161.489 238.311 161.042 238.175 160.609L236.999 140.173L255.876 139.08L256.867 156.3C255.832 155.589 254.558 155.186 253.201 155.265C249.973 155.451 247.507 158.211 247.692 161.428C247.877 164.645 250.644 167.101 253.872 166.915C257.099 166.728 259.565 163.968 259.38 160.751C259.353 160.276 259.266 159.829 259.143 159.396Z" fill="#EF9B4A"/>
<path d="M538.69 173.548L540.972 213.192C539.405 212.022 537.434 211.379 535.309 211.502C530.554 211.778 526.92 215.843 527.193 220.583C527.466 225.323 531.542 228.942 536.297 228.667C541.052 228.392 544.685 224.327 544.412 219.586L541.752 173.371L538.69 173.548Z" fill="#F4E7CB"/>
<path d="M1140.24 222.424L1095.99 200.764L1095.36 202.047L1094.48 203.812L1080.83 231.494L1079.32 234.551L1093.43 241.461L1118.82 253.89C1116.95 254.787 1115.37 256.282 1114.39 258.266C1112.05 263.005 1114 268.713 1118.75 271.034C1123.49 273.364 1129.23 271.404 1131.56 266.665C1133.9 261.925 1131.95 256.217 1127.2 253.896C1126.5 253.554 1125.78 253.32 1125.07 253.155L1094.93 238.405L1108.58 210.723L1133.97 223.152C1132.11 224.04 1130.52 225.544 1129.53 227.527C1127.2 232.267 1129.15 237.975 1133.9 240.296C1138.65 242.617 1144.38 240.666 1146.71 235.926C1149.04 231.187 1147.09 225.478 1142.34 223.158C1141.67 222.832 1140.96 222.588 1140.24 222.424Z" fill="#FFC444"/>
<path d="M747.259 363.142L754.629 326.018L753.551 325.81L752.052 325.519L728.708 320.943L726.13 320.443L723.775 332.272L719.541 353.559C718.496 352.358 717.072 351.486 715.408 351.15C711.423 350.372 707.541 352.956 706.758 356.929C705.974 360.902 708.565 364.769 712.55 365.548C716.535 366.326 720.416 363.741 721.2 359.768C721.311 359.185 721.35 358.607 721.336 358.049L726.352 332.771L749.696 337.347L745.481 358.633C744.454 357.432 743.012 356.56 741.348 356.224C737.363 355.446 733.481 358.031 732.697 362.003C731.914 365.976 734.504 369.844 738.489 370.622C742.474 371.4 746.356 368.816 747.14 364.843C747.252 364.278 747.291 363.699 747.259 363.142Z" fill="#FFC444"/>
<path d="M761.741 213.543L763.144 237.926C762.181 237.207 760.965 236.809 759.669 236.884C756.733 237.054 754.51 239.561 754.677 242.469C754.844 245.378 757.358 247.611 760.276 247.442C763.194 247.273 765.435 244.765 765.268 241.856L763.632 213.434L761.741 213.543Z" fill="#FFC444"/>
<path d="M775.575 358.223L776.979 382.624C776.016 381.905 774.8 381.507 773.504 381.582C770.568 381.752 768.345 384.258 768.512 387.167C768.679 390.076 771.193 392.308 774.111 392.139C777.029 391.97 779.27 389.463 779.103 386.554L777.467 358.132L775.576 358.241L775.575 358.223Z" fill="#FFC444"/>
<path d="M785.129 278.731L786.534 303.132C785.571 302.413 784.355 302.015 783.058 302.09C780.122 302.26 777.899 304.766 778.067 307.675C778.234 310.584 780.748 312.816 783.666 312.647C786.584 312.478 788.825 309.971 788.657 307.062L787.022 278.639L785.13 278.749L785.129 278.731Z" fill="#FFC444"/>
<path d="M871.877 304.473L873.282 328.874C872.319 328.155 871.103 327.757 869.806 327.832C866.87 328.002 864.647 330.508 864.815 333.417C864.982 336.326 867.496 338.558 870.414 338.389C873.332 338.22 875.573 335.713 875.405 332.804L873.77 304.382L871.878 304.491L871.877 304.473Z" fill="#FFC444"/>
<path d="M645.438 306.985L647.721 346.648C646.154 345.477 644.183 344.835 642.058 344.958C637.303 345.233 633.67 349.298 633.942 354.038C634.215 358.779 638.291 362.398 643.046 362.123C647.801 361.847 651.434 357.782 651.161 353.042L648.501 306.826L645.439 307.003L645.438 306.985Z" fill="#B5A98E"/>
<path d="M1295.78 174.962L1298.06 214.606C1296.49 213.436 1294.52 212.793 1292.4 212.916C1287.64 213.192 1284.01 217.257 1284.28 221.997C1284.56 226.737 1288.63 230.356 1293.39 230.081C1298.14 229.806 1301.78 225.741 1301.5 221.001L1298.84 174.785L1295.78 174.962Z" fill="#B5A98E"/>
<path d="M827.153 232.587L829.436 272.249C827.869 271.079 825.898 270.436 823.773 270.559C819.018 270.835 815.384 274.9 815.657 279.64C815.93 284.38 820.006 287.999 824.761 287.724C829.516 287.449 833.149 283.384 832.876 278.643L830.216 232.428L827.154 232.605L827.153 232.587Z" fill="#F4E7CB"/>
<path d="M814.652 307.921L832.983 343.178C831.061 342.749 828.995 342.958 827.117 343.932C822.887 346.122 821.233 351.298 823.428 355.513C825.622 359.727 830.831 361.371 835.043 359.182C839.272 356.992 840.926 351.816 838.732 347.601L817.372 306.502L814.652 307.921Z" fill="#F4E7CB"/>
<path d="M1308.47 259.398L1296.27 280.607C1295.86 279.477 1295.06 278.479 1293.92 277.842C1291.38 276.386 1288.14 277.258 1286.68 279.793C1285.21 282.327 1286.1 285.555 1288.65 287.011C1291.19 288.467 1294.43 287.577 1295.89 285.06L1310.12 260.348L1308.47 259.398Z" fill="#FFC444"/>
<path d="M1344.15 206.271L1340.15 245.793C1338.79 244.395 1336.94 243.439 1334.83 243.237C1330.09 242.773 1325.86 246.206 1325.39 250.935C1324.92 255.664 1328.36 259.878 1333.11 260.343C1337.85 260.807 1342.08 257.373 1342.55 252.644L1347.2 206.581L1344.15 206.271Z" fill="#F4E7CB"/>
<path d="M1363.52 230.241L1381.85 265.498C1379.93 265.069 1377.86 265.279 1375.98 266.252C1371.75 268.442 1370.1 273.618 1372.3 277.833C1374.49 282.048 1379.7 283.692 1383.91 281.502C1388.14 279.312 1389.79 274.136 1387.6 269.921L1366.24 228.823L1363.52 230.241Z" fill="#FFC444"/>
<path d="M1185.98 192.063L1188.26 231.726C1186.69 230.555 1184.72 229.913 1182.6 230.036C1177.84 230.311 1174.21 234.377 1174.48 239.117C1174.75 243.857 1178.83 247.476 1183.59 247.201C1188.34 246.926 1191.97 242.86 1191.7 238.12L1189.04 191.886L1185.98 192.063Z" fill="#F4E7CB"/>
<path d="M714.765 291.445L712.221 247.239L710.942 247.313L709.159 247.416L681.344 249.026L678.282 249.203L679.093 263.298L680.554 288.669C679.029 287.623 677.152 287.029 675.152 287.145C670.396 287.42 666.762 291.485 667.035 296.226C667.308 300.966 671.384 304.585 676.14 304.31C680.896 304.035 684.53 299.969 684.257 295.229C684.216 294.529 684.088 293.87 683.889 293.233L682.156 263.121L709.97 261.511L711.43 286.882C709.906 285.836 708.028 285.242 706.028 285.357C701.273 285.633 697.639 289.698 697.912 294.439C698.184 299.179 702.261 302.798 707.016 302.523C711.772 302.248 715.406 298.182 715.133 293.442C715.094 292.76 714.965 292.083 714.765 291.445Z" fill="#EF9B4A"/>
<path d="M994.585 308.993L996.868 348.655C995.3 347.485 993.33 346.843 991.204 346.966C986.449 347.241 982.816 351.306 983.089 356.046C983.362 360.786 987.437 364.406 992.192 364.13C996.948 363.855 1000.58 359.79 1000.31 355.05L997.648 308.834L994.586 309.011L994.585 308.993Z" fill="#F4E7CB"/>
<path d="M941.425 290.606L939.758 261.655L938.921 261.704L937.753 261.771L919.537 262.826L917.532 262.942L918.063 272.173L919.019 288.788C918.021 288.103 916.791 287.714 915.482 287.79C912.367 287.97 909.987 290.633 910.166 293.737C910.345 296.842 913.014 299.212 916.129 299.032C919.243 298.851 921.623 296.189 921.444 293.084C921.418 292.626 921.334 292.194 921.204 291.777L920.069 272.057L938.284 271.002L939.24 287.618C938.242 286.933 937.012 286.544 935.703 286.619C932.588 286.8 930.208 289.462 930.387 292.567C930.566 295.671 933.235 298.042 936.35 297.861C939.465 297.681 941.844 295.018 941.666 291.914C941.639 291.455 941.555 291.024 941.425 290.606Z" fill="#EF9B4A"/>
</g>
<defs>
<radialGradient id="paint0_radial_4465_10406" cx="0" cy="0" r="1" gradientUnits="userSpaceOnUse" gradientTransform="translate(724.943 360.231) rotate(86.7097) scale(214.526 733.313)">
<stop stop-color="white"/>
<stop offset="1" stop-color="#EF9B4A"/>
</radialGradient>
<radialGradient id="paint1_radial_4465_10406" cx="0" cy="0" r="1" gradientUnits="userSpaceOnUse" gradientTransform="translate(718.641 337.925) rotate(86.7097) scale(210.979 738.555)">
<stop stop-color="white"/>
<stop offset="1" stop-color="#EF9B4A"/>
</radialGradient>
<radialGradient id="paint2_radial_4465_10406" cx="0" cy="0" r="1" gradientUnits="userSpaceOnUse" gradientTransform="translate(712.511 315.452) rotate(86.7096) scale(207.423 743.456)">
<stop stop-color="white"/>
<stop offset="1" stop-color="#EF9B4A"/>
</radialGradient>
<radialGradient id="paint3_radial_4465_10406" cx="0" cy="0" r="1" gradientUnits="userSpaceOnUse" gradientTransform="translate(706.653 292.848) rotate(86.7096) scale(203.886 748.076)">
<stop stop-color="white"/>
<stop offset="1" stop-color="#EF9B4A"/>
</radialGradient>
<radialGradient id="paint4_radial_4465_10406" cx="0" cy="0" r="1" gradientUnits="userSpaceOnUse" gradientTransform="translate(701.016 270.166) rotate(86.7096) scale(200.382 752.362)">
<stop stop-color="white"/>
<stop offset="1" stop-color="#EF9B4A"/>
</radialGradient>
<clipPath id="clip0_4465_10406">
<rect width="1515" height="549" fill="white" transform="translate(-74)"/>
</clipPath>
</defs>
</svg>
