<svg width="42" height="33" viewBox="0 0 42 33" fill="none" xmlns="http://www.w3.org/2000/svg">
<g id="logos:mastercard" clip-path="url(#clip0_3_16890)">
<path id="Vector" d="M8.24596 32.3773V30.2547C8.24596 29.4409 7.75056 28.9103 6.90143 28.9103C6.47694 28.9103 6.01699 29.0518 5.69855 29.5118C5.45101 29.1226 5.09727 28.9103 4.56658 28.9103C4.21268 28.9103 3.8591 29.0164 3.57594 29.4056V28.9811H2.83301V32.3773H3.57594V30.5023C3.57594 29.901 3.89439 29.6178 4.38979 29.6178C4.88486 29.6178 5.13272 29.9363 5.13272 30.5023V32.3773H5.87566V30.5023C5.87566 29.901 6.22924 29.6178 6.68918 29.6178C7.18458 29.6178 7.43212 29.9363 7.43212 30.5023V32.3773H8.24596ZM19.2483 28.9811H18.0456V27.9552H17.3027V28.9811H16.6305V29.6531H17.3025V31.2099C17.3025 31.9883 17.621 32.4481 18.4701 32.4481C18.7886 32.4481 19.1421 32.342 19.39 32.2005L19.1776 31.5636C18.9653 31.7051 18.7178 31.7406 18.5409 31.7406C18.1871 31.7406 18.0456 31.5283 18.0456 31.1744V29.6531H19.2483V28.9811ZM25.5457 28.9102C25.1212 28.9102 24.8382 29.1226 24.6613 29.4056V28.9811H23.9184V32.3773H24.6613V30.467C24.6613 29.901 24.9088 29.5825 25.3688 29.5825C25.5103 29.5825 25.6872 29.618 25.8287 29.6533L26.041 28.9458C25.8995 28.9103 25.6872 28.9103 25.5457 28.9103V28.9102ZM16.0291 29.2641C15.6752 29.0164 15.1799 28.9103 14.6492 28.9103C13.8003 28.9103 13.2343 29.3348 13.2343 30.007C13.2343 30.5732 13.6588 30.8915 14.4017 30.9977L14.7554 31.0331C15.1446 31.1037 15.3569 31.2099 15.3569 31.3869C15.3569 31.6344 15.0739 31.8113 14.5785 31.8113C14.0832 31.8113 13.694 31.6344 13.4463 31.4576L13.0926 32.0236C13.4818 32.3066 14.0125 32.4481 14.543 32.4481C15.5337 32.4481 16.0998 31.9883 16.0998 31.3514C16.0998 30.75 15.6399 30.4315 14.9322 30.3255L14.5785 30.29C14.26 30.2546 14.0125 30.184 14.0125 29.9717C14.0125 29.724 14.26 29.5825 14.6492 29.5825C15.0739 29.5825 15.4984 29.7593 15.7106 29.8655L16.0291 29.2641ZM35.77 28.9103C35.3454 28.9103 35.0624 29.1226 34.8854 29.4056V28.9811H34.1425V32.3773H34.8854V30.467C34.8854 29.901 35.1331 29.5825 35.5929 29.5825C35.7346 29.5825 35.9115 29.618 36.053 29.6533L36.2653 28.9458C36.1238 28.9103 35.9115 28.9103 35.77 28.9103ZM26.2887 30.6792C26.2887 31.7051 26.9961 32.4481 28.093 32.4481C28.5882 32.4481 28.942 32.342 29.2957 32.059L28.942 31.4576C28.659 31.6698 28.376 31.7759 28.0575 31.7759C27.4561 31.7759 27.0316 31.3514 27.0316 30.6792C27.0316 30.0425 27.4561 29.6178 28.0575 29.5825C28.376 29.5825 28.659 29.6886 28.942 29.901L29.2957 29.2995C28.942 29.0164 28.5882 28.9103 28.093 28.9103C26.9961 28.9103 26.2887 29.6533 26.2887 30.6792ZM33.152 30.6792V28.9811H32.4091V29.4056C32.1614 29.0873 31.8077 28.9103 31.3477 28.9103C30.3925 28.9103 29.6496 29.6533 29.6496 30.6792C29.6496 31.7051 30.3925 32.4481 31.3477 32.4481C31.8429 32.4481 32.1968 32.2713 32.4091 31.9528V32.3773H33.152V30.6792ZM30.4278 30.6792C30.4278 30.0778 30.817 29.5825 31.4538 29.5825C32.0552 29.5825 32.4798 30.0425 32.4798 30.6792C32.4798 31.2806 32.0552 31.7759 31.4538 31.7759C30.817 31.7404 30.4278 31.2806 30.4278 30.6792ZM21.5481 28.9103C20.5574 28.9103 19.8498 29.6178 19.8498 30.6792C19.8498 31.7406 20.5573 32.4481 21.5833 32.4481C22.0786 32.4481 22.574 32.3066 22.9632 31.9883L22.6093 31.4576C22.3263 31.6698 21.9725 31.8113 21.6188 31.8113C21.1589 31.8113 20.6989 31.5991 20.5927 30.9975H23.1047V30.7147C23.1401 29.6178 22.5034 28.9103 21.5481 28.9103ZM21.5481 29.5471C22.0078 29.5471 22.3264 29.8302 22.397 30.3609H20.6282C20.6989 29.901 21.0174 29.5471 21.5481 29.5471ZM39.9799 30.6792V27.6367H39.237V29.4056C38.9893 29.0873 38.6356 28.9103 38.1756 28.9103C37.2204 28.9103 36.4775 29.6533 36.4775 30.6792C36.4775 31.7051 37.2204 32.4481 38.1756 32.4481C38.671 32.4481 39.0248 32.2713 39.237 31.9528V32.3773H39.9799V30.6792ZM37.2559 30.6792C37.2559 30.0778 37.6449 29.5825 38.2818 29.5825C38.8833 29.5825 39.3078 30.0425 39.3078 30.6792C39.3078 31.2806 38.8833 31.7759 38.2818 31.7759C37.6449 31.7404 37.2559 31.2806 37.2559 30.6792ZM12.4204 30.6792V28.9811H11.6775V29.4056C11.4298 29.0873 11.076 28.9103 10.6161 28.9103C9.66092 28.9103 8.91799 29.6533 8.91799 30.6792C8.91799 31.7051 9.66092 32.4481 10.6161 32.4481C11.1115 32.4481 11.4652 32.2713 11.6775 31.9528V32.3773H12.4204V30.6792ZM9.66092 30.6792C9.66092 30.0778 10.0501 29.5825 10.6869 29.5825C11.2883 29.5825 11.7129 30.0425 11.7129 30.6792C11.7129 31.2806 11.2883 31.7759 10.6869 31.7759C10.0501 31.7404 9.66092 31.2806 9.66092 30.6792Z" fill="black"/>
<path id="Vector_2" d="M15.7812 3.1875H26.9253V23.2115H15.7812V3.1875Z" fill="#FF5F00"/>
<path id="Vector_3" d="M16.4894 13.2009C16.4894 9.13253 18.3998 5.5239 21.336 3.18889C19.1781 1.49077 16.4541 0.464844 13.4824 0.464844C6.44188 0.464844 0.746094 6.16063 0.746094 13.2009C0.746094 20.2411 6.44188 25.9371 13.4822 25.9371C16.4539 25.9371 19.178 24.9111 21.336 23.2129C18.3998 20.9133 16.4894 17.2694 16.4894 13.2009Z" fill="#EB001B"/>
<path id="Vector_4" d="M41.9601 13.2009C41.9601 20.2411 36.2643 25.9371 29.224 25.9371C26.2522 25.9371 23.5282 24.9111 21.3701 23.2129C24.3419 20.878 26.2169 17.2694 26.2169 13.2009C26.2169 9.13253 24.3064 5.5239 21.3701 3.18889C23.528 1.49077 26.2522 0.464844 29.224 0.464844C36.2643 0.464844 41.9601 6.19608 41.9601 13.2009Z" fill="#F79E1B"/>
</g>
<defs>
<clipPath id="clip0_3_16890">
<rect width="41.2563" height="32.0703" fill="white" transform="translate(0.744141 0.464844)"/>
</clipPath>
</defs>
</svg>
