<svg width="90" height="18" viewBox="0 0 90 18" fill="none" xmlns="http://www.w3.org/2000/svg">
<path d="M31.9211 1.52835C32.4599 1.42909 33.0767 1.35111 33.7715 1.29439C34.4805 1.23768 35.1256 1.20932 35.707 1.20932C36.3592 1.20932 36.976 1.28021 37.5573 1.422C38.1529 1.5638 38.6704 1.79775 39.11 2.12387C39.5637 2.44999 39.9253 2.87537 40.1947 3.4C40.4641 3.92462 40.5988 4.56269 40.5988 5.31418C40.5988 6.47687 40.2797 7.41979 39.6417 8.14292C39.0036 8.86606 38.1954 9.34815 37.217 9.5892L38.2379 10.3761L41.9387 16.2676H39.8756L35.7708 9.84442L33.6864 9.52539V16.2676H31.9211V1.52835ZM35.7495 2.74066C35.5652 2.74066 35.3737 2.74066 35.1752 2.74066C34.9767 2.74066 34.7853 2.74775 34.601 2.76193C34.4167 2.77611 34.2394 2.79029 34.0693 2.80447C33.9133 2.81865 33.7857 2.83992 33.6864 2.86828V8.35561H35.3454C36.3238 8.35561 37.132 8.11456 37.77 7.63247C38.4081 7.15038 38.7271 6.39889 38.7271 5.37799C38.7271 4.61231 38.4648 3.98134 37.9402 3.48507C37.4155 2.9888 36.6853 2.74066 35.7495 2.74066ZM44.1448 1.52835C44.6836 1.42909 45.3004 1.35111 45.9952 1.29439C46.7042 1.23768 47.3493 1.20932 47.9307 1.20932C48.5829 1.20932 49.1997 1.28021 49.781 1.422C50.3766 1.5638 50.8941 1.79775 51.3337 2.12387C51.7874 2.44999 52.149 2.87537 52.4184 3.4C52.6878 3.92462 52.8225 4.56269 52.8225 5.31418C52.8225 6.47687 52.5034 7.41979 51.8654 8.14292C51.2273 8.86606 50.4191 9.34815 49.4407 9.5892L50.4616 10.3761L54.1624 16.2676H52.0993L47.9945 9.84442L45.9101 9.52539V16.2676H44.1448V1.52835ZM47.9732 2.74066C47.7889 2.74066 47.5975 2.74066 47.3989 2.74066C47.2004 2.74066 47.009 2.74775 46.8247 2.76193C46.6404 2.77611 46.4631 2.79029 46.293 2.80447C46.137 2.81865 46.0094 2.83992 45.9101 2.86828V8.35561H47.5691C48.5475 8.35561 49.3557 8.11456 49.9937 7.63247C50.6318 7.15038 50.9508 6.39889 50.9508 5.37799C50.9508 4.61231 50.6885 3.98134 50.1639 3.48507C49.6392 2.9888 48.909 2.74066 47.9732 2.74066ZM56.7726 1.37947H58.5379V16.2676H56.7726V1.37947ZM64.8125 6.5265L63.664 4.37836H63.579L63.7916 6.5265V16.2676H62.1327V1.14551H63.0685L70.1935 11.078L71.2995 13.1198H71.4059L71.1719 11.078V1.37947H72.8309V16.5015H71.895L64.8125 6.5265ZM82.7389 12.4817C82.7389 11.8862 82.5617 11.4041 82.2072 11.0355C81.8527 10.6526 81.4061 10.3194 80.8673 10.0358C80.3427 9.73808 79.7684 9.46158 79.1445 9.20636C78.5206 8.95113 77.9393 8.64628 77.4005 8.2918C76.8759 7.92315 76.4363 7.4765 76.0818 6.95187C75.7273 6.41307 75.5501 5.73247 75.5501 4.91008C75.5501 3.74738 75.9542 2.82574 76.7624 2.14514C77.5706 1.46454 78.7191 1.12424 80.208 1.12424C81.0729 1.12424 81.8598 1.18805 82.5688 1.31566C83.2777 1.44327 83.8307 1.60633 84.2277 1.80484L83.696 3.35746C83.3699 3.20149 82.8878 3.05261 82.2498 2.91082C81.6259 2.76902 80.9169 2.69813 80.1229 2.69813C79.1871 2.69813 78.4852 2.91082 78.0173 3.33619C77.5494 3.74738 77.3154 4.23657 77.3154 4.80373C77.3154 5.35672 77.4926 5.81754 77.8471 6.1862C78.2016 6.55486 78.6412 6.88807 79.1658 7.18583C79.7046 7.46941 80.2859 7.753 80.9098 8.03658C81.5337 8.32016 82.108 8.65337 82.6326 9.03621C83.1714 9.40487 83.618 9.85151 83.9725 10.3761C84.327 10.9008 84.5042 11.553 84.5042 12.3329C84.5042 12.9709 84.3908 13.5452 84.1639 14.0556C83.9371 14.5661 83.6039 15.0056 83.1643 15.3743C82.7248 15.7429 82.193 16.0265 81.5692 16.225C80.9453 16.4235 80.2363 16.5228 79.4423 16.5228C78.3788 16.5228 77.4997 16.4377 76.805 16.2676C76.1102 16.1116 75.5714 15.9344 75.1885 15.7359L75.7841 14.1407C76.1102 14.325 76.5923 14.5094 77.2303 14.6937C77.8684 14.8638 78.5844 14.9489 79.3785 14.9489C79.8464 14.9489 80.2859 14.9064 80.6971 14.8213C81.1083 14.7221 81.4628 14.5732 81.7606 14.3747C82.0583 14.162 82.2923 13.8997 82.4624 13.5877C82.6468 13.2758 82.7389 12.9071 82.7389 12.4817Z" fill="#222222"/>
<path d="M11.5424 2.95335H6.90582V16.2676H5.14051V2.95335H0.503931V1.37947H11.5424V2.95335Z" fill="#222222"/>
<circle cx="19.8691" cy="9.21088" r="7.13839" stroke="#FFC444" stroke-width="1.60983"/>
<line x1="10.1328" y1="5.8935" x2="29.4382" y2="5.8935" stroke="#222222" stroke-width="0.402458"/>
<line x1="10.1328" y1="9.00971" x2="29.4382" y2="9.00971" stroke="#222222" stroke-width="0.402458"/>
<line x1="10.1328" y1="12.0519" x2="29.4382" y2="12.0519" stroke="#222222" stroke-width="0.402458"/>
</svg>
