<svg width="93" height="20" viewBox="0 0 93 20" fill="none" xmlns="http://www.w3.org/2000/svg">
<path d="M34.9211 3.52835C35.4599 3.42909 36.0767 3.35111 36.7715 3.29439C37.4805 3.23768 38.1256 3.20932 38.707 3.20932C39.3592 3.20932 39.976 3.28021 40.5573 3.422C41.1529 3.5638 41.6704 3.79775 42.11 4.12387C42.5637 4.44999 42.9253 4.87537 43.1947 5.4C43.4641 5.92462 43.5988 6.56269 43.5988 7.31418C43.5988 8.47687 43.2797 9.41979 42.6417 10.1429C42.0036 10.8661 41.1954 11.3482 40.217 11.5892L41.2379 12.3761L44.9387 18.2676H42.8756L38.7708 11.8444L36.6864 11.5254V18.2676H34.9211V3.52835ZM38.7495 4.74066C38.5652 4.74066 38.3737 4.74066 38.1752 4.74066C37.9767 4.74066 37.7853 4.74775 37.601 4.76193C37.4167 4.77611 37.2394 4.79029 37.0693 4.80447C36.9133 4.81865 36.7857 4.83992 36.6864 4.86828V10.3556H38.3454C39.3238 10.3556 40.132 10.1146 40.77 9.63247C41.4081 9.15038 41.7271 8.39889 41.7271 7.37799C41.7271 6.61231 41.4648 5.98134 40.9402 5.48507C40.4155 4.9888 39.6853 4.74066 38.7495 4.74066ZM47.1448 3.52835C47.6836 3.42909 48.3004 3.35111 48.9952 3.29439C49.7042 3.23768 50.3493 3.20932 50.9307 3.20932C51.5829 3.20932 52.1997 3.28021 52.781 3.422C53.3766 3.5638 53.8941 3.79775 54.3337 4.12387C54.7874 4.44999 55.149 4.87537 55.4184 5.4C55.6878 5.92462 55.8225 6.56269 55.8225 7.31418C55.8225 8.47687 55.5034 9.41979 54.8654 10.1429C54.2273 10.8661 53.4191 11.3482 52.4407 11.5892L53.4616 12.3761L57.1624 18.2676H55.0993L50.9945 11.8444L48.9101 11.5254V18.2676H47.1448V3.52835ZM50.9732 4.74066C50.7889 4.74066 50.5975 4.74066 50.3989 4.74066C50.2004 4.74066 50.009 4.74775 49.8247 4.76193C49.6404 4.77611 49.4631 4.79029 49.293 4.80447C49.137 4.81865 49.0094 4.83992 48.9101 4.86828V10.3556H50.5691C51.5475 10.3556 52.3557 10.1146 52.9937 9.63247C53.6318 9.15038 53.9508 8.39889 53.9508 7.37799C53.9508 6.61231 53.6885 5.98134 53.1639 5.48507C52.6392 4.9888 51.909 4.74066 50.9732 4.74066ZM59.7726 3.37947H61.5379V18.2676H59.7726V3.37947ZM67.8125 8.5265L66.664 6.37836H66.579L66.7916 8.5265V18.2676H65.1327V3.14551H66.0685L73.1935 13.078L74.2995 15.1198H74.4059L74.1719 13.078V3.37947H75.8309V18.5015H74.895L67.8125 8.5265ZM85.7389 14.4817C85.7389 13.8862 85.5617 13.4041 85.2072 13.0355C84.8527 12.6526 84.4061 12.3194 83.8673 12.0358C83.3427 11.7381 82.7684 11.4616 82.1445 11.2064C81.5206 10.9511 80.9393 10.6463 80.4005 10.2918C79.8759 9.92315 79.4363 9.4765 79.0818 8.95187C78.7273 8.41307 78.5501 7.73247 78.5501 6.91008C78.5501 5.74738 78.9542 4.82574 79.7624 4.14514C80.5706 3.46454 81.7191 3.12424 83.208 3.12424C84.0729 3.12424 84.8598 3.18805 85.5688 3.31566C86.2777 3.44327 86.8307 3.60633 87.2277 3.80484L86.696 5.35746C86.3699 5.20149 85.8878 5.05261 85.2498 4.91082C84.6259 4.76902 83.9169 4.69813 83.1229 4.69813C82.1871 4.69813 81.4852 4.91082 81.0173 5.33619C80.5494 5.74738 80.3154 6.23657 80.3154 6.80373C80.3154 7.35672 80.4926 7.81754 80.8471 8.1862C81.2016 8.55486 81.6412 8.88807 82.1658 9.18583C82.7046 9.46941 83.2859 9.753 83.9098 10.0366C84.5337 10.3202 85.108 10.6534 85.6326 11.0362C86.1714 11.4049 86.618 11.8515 86.9725 12.3761C87.327 12.9008 87.5042 13.553 87.5042 14.3329C87.5042 14.9709 87.3908 15.5452 87.1639 16.0556C86.9371 16.5661 86.6039 17.0056 86.1643 17.3743C85.7248 17.7429 85.193 18.0265 84.5692 18.225C83.9453 18.4235 83.2363 18.5228 82.4423 18.5228C81.3788 18.5228 80.4997 18.4377 79.805 18.2676C79.1102 18.1116 78.5714 17.9344 78.1885 17.7359L78.7841 16.1407C79.1102 16.325 79.5923 16.5094 80.2303 16.6937C80.8684 16.8638 81.5844 16.9489 82.3785 16.9489C82.8464 16.9489 83.2859 16.9064 83.6971 16.8213C84.1083 16.7221 84.4628 16.5732 84.7606 16.3747C85.0583 16.162 85.2923 15.8997 85.4624 15.5877C85.6468 15.2758 85.7389 14.9071 85.7389 14.4817Z" fill="#222222"/>
<path d="M14.5424 4.95335H9.90582V18.2676H8.14051V4.95335H3.50393V3.37947H14.5424V4.95335Z" fill="#222222"/>
<circle cx="22.8691" cy="11.2109" r="7.13839" stroke="#FFC444" stroke-width="1.60983"/>
<line x1="13.1328" y1="7.8935" x2="32.4382" y2="7.8935" stroke="#222222" stroke-width="0.402458"/>
<line x1="13.1328" y1="11.0097" x2="32.4382" y2="11.0097" stroke="#222222" stroke-width="0.402458"/>
<line x1="13.1328" y1="14.0519" x2="32.4382" y2="14.0519" stroke="#222222" stroke-width="0.402458"/>
</svg>
