<svg width="90" height="17" viewBox="0 0 90 17" fill="none" xmlns="http://www.w3.org/2000/svg">
<path d="M32.2532 1.02835C32.792 0.929093 33.4088 0.851108 34.1035 0.794391C34.8125 0.737675 35.4576 0.709317 36.039 0.709317C36.6912 0.709317 37.308 0.780213 37.8894 0.922004C38.4849 1.0638 39.0024 1.29775 39.442 1.62387C39.8957 1.94999 40.2573 2.37537 40.5267 2.9C40.7961 3.42462 40.9308 4.06269 40.9308 4.81418C40.9308 5.97687 40.6118 6.91979 39.9737 7.64292C39.3356 8.36606 38.5274 8.84815 37.5491 9.0892L38.57 9.87614L42.2707 15.7676H40.2077L36.1028 9.34442L34.0185 9.02539V15.7676H32.2532V1.02835ZM36.0815 2.24066C35.8972 2.24066 35.7058 2.24066 35.5073 2.24066C35.3088 2.24066 35.1173 2.24775 34.933 2.26193C34.7487 2.27611 34.5714 2.29029 34.4013 2.30447C34.2453 2.31865 34.1177 2.33992 34.0185 2.36828V7.85561H35.6774C36.6558 7.85561 37.464 7.61456 38.1021 7.13247C38.7401 6.65038 39.0591 5.89889 39.0591 4.87799C39.0591 4.11231 38.7968 3.48134 38.2722 2.98507C37.7476 2.4888 37.0174 2.24066 36.0815 2.24066ZM44.4769 1.02835C45.0157 0.929093 45.6325 0.851108 46.3272 0.794391C47.0362 0.737675 47.6813 0.709317 48.2627 0.709317C48.9149 0.709317 49.5317 0.780213 50.1131 0.922004C50.7086 1.0638 51.2261 1.29775 51.6657 1.62387C52.1194 1.94999 52.481 2.37537 52.7504 2.9C53.0198 3.42462 53.1545 4.06269 53.1545 4.81418C53.1545 5.97687 52.8355 6.91979 52.1974 7.64292C51.5593 8.36606 50.7511 8.84815 49.7728 9.0892L50.7937 9.87614L54.4944 15.7676H52.4314L48.3265 9.34442L46.2422 9.02539V15.7676H44.4769V1.02835ZM48.3052 2.24066C48.1209 2.24066 47.9295 2.24066 47.731 2.24066C47.5325 2.24066 47.341 2.24775 47.1567 2.26193C46.9724 2.27611 46.7951 2.29029 46.625 2.30447C46.469 2.31865 46.3414 2.33992 46.2422 2.36828V7.85561H47.9011C48.8795 7.85561 49.6877 7.61456 50.3258 7.13247C50.9638 6.65038 51.2829 5.89889 51.2829 4.87799C51.2829 4.11231 51.0205 3.48134 50.4959 2.98507C49.9713 2.4888 49.2411 2.24066 48.3052 2.24066ZM57.1047 0.879466H58.87V15.7676H57.1047V0.879466ZM65.1446 6.0265L63.9961 3.87836H63.911L64.1237 6.0265V15.7676H62.4647V0.64551H63.4005L70.5256 10.578L71.6315 12.6198H71.7379L71.5039 10.578V0.879466H73.1629V16.0015H72.2271L65.1446 6.0265ZM83.071 11.9817C83.071 11.3862 82.8937 10.9041 82.5392 10.5355C82.1848 10.1526 81.7381 9.81942 81.1993 9.53584C80.6747 9.23808 80.1004 8.96158 79.4765 8.70636C78.8527 8.45113 78.2713 8.14628 77.7325 7.7918C77.2079 7.42315 76.7683 6.9765 76.4139 6.45187C76.0594 5.91307 75.8821 5.23247 75.8821 4.41008C75.8821 3.24738 76.2862 2.32574 77.0944 1.64514C77.9027 0.964542 79.0512 0.624242 80.54 0.624242C81.4049 0.624242 82.1919 0.688048 82.9008 0.815661C83.6098 0.943273 84.1628 1.10633 84.5598 1.30484L84.0281 2.85746C83.7019 2.70149 83.2198 2.55261 82.5818 2.41082C81.9579 2.26902 81.2489 2.19813 80.4549 2.19813C79.5191 2.19813 78.8172 2.41082 78.3493 2.83619C77.8814 3.24738 77.6474 3.73657 77.6474 4.30373C77.6474 4.85672 77.8247 5.31754 78.1792 5.6862C78.5336 6.05486 78.9732 6.38807 79.4978 6.68583C80.0366 6.96941 80.618 7.253 81.2419 7.53658C81.8657 7.82016 82.44 8.15337 82.9646 8.53621C83.5034 8.90487 83.9501 9.35151 84.3045 9.87614C84.659 10.4008 84.8363 11.053 84.8363 11.8329C84.8363 12.4709 84.7228 13.0452 84.496 13.5556C84.2691 14.0661 83.9359 14.5056 83.4963 14.8743C83.0568 15.2429 82.5251 15.5265 81.9012 15.725C81.2773 15.9235 80.5683 16.0228 79.7743 16.0228C78.7109 16.0228 77.8318 15.9377 77.137 15.7676C76.4422 15.6116 75.9034 15.4344 75.5206 15.2359L76.1161 13.6407C76.4422 13.825 76.9243 14.0094 77.5624 14.1937C78.2004 14.3638 78.9165 14.4489 79.7105 14.4489C80.1784 14.4489 80.618 14.4064 81.0292 14.3213C81.4404 14.2221 81.7948 14.0732 82.0926 13.8747C82.3904 13.662 82.6243 13.3997 82.7945 13.0877C82.9788 12.7758 83.071 12.4071 83.071 11.9817Z" fill="white"/>
<path d="M11.8744 2.45335H7.23785V15.7676H5.47255V2.45335H0.835962V0.879466H11.8744V2.45335Z" fill="white"/>
<circle cx="20.2011" cy="8.71088" r="7.13839" stroke="#FFC444" stroke-width="1.60983"/>
<line x1="10.4648" y1="5.3935" x2="29.7703" y2="5.3935" stroke="white" stroke-width="0.402458"/>
<line x1="10.4648" y1="8.50971" x2="29.7703" y2="8.50971" stroke="white" stroke-width="0.402458"/>
<line x1="10.4648" y1="11.5519" x2="29.7703" y2="11.5519" stroke="white" stroke-width="0.402458"/>
</svg>
