<svg width="24" height="25" viewBox="0 0 24 25" fill="none" xmlns="http://www.w3.org/2000/svg">
<g id="Frame">
<path id="Vector" d="M2 6.5C2 5.96957 2.21071 5.46086 2.58579 5.08579C2.96086 4.71071 3.46957 4.5 4 4.5H20C20.5304 4.5 21.0391 4.71071 21.4142 5.08579C21.7893 5.46086 22 5.96957 22 6.5V18.5C22 19.0304 21.7893 19.5391 21.4142 19.9142C21.0391 20.2893 20.5304 20.5 20 20.5H4C3.46957 20.5 2.96086 20.2893 2.58579 19.9142C2.21071 19.5391 2 19.0304 2 18.5V6.5Z" stroke="#FFC444" stroke-linecap="round" stroke-linejoin="round"/>
<path id="Vector_2" d="M2 8.5L9.501 14.501C10.2103 15.0685 11.0916 15.3777 12 15.3777C12.9084 15.3777 13.7897 15.0685 14.499 14.501L22 8.5" stroke="#FFC444" stroke-linecap="round" stroke-linejoin="round"/>
</g>
</svg>
