<svg width="28" height="28" viewBox="0 0 28 28" fill="none" xmlns="http://www.w3.org/2000/svg">
<g id="vuesax/linear/wallet-3">
<path id="Vector" d="M15.1665 13.0088H8.1665" stroke="#292D32" stroke-width="1.75" stroke-linecap="round" stroke-linejoin="round"/>
<path id="Vector_2" d="M2.3335 13.008V7.61799C2.3335 5.23799 4.2585 3.31299 6.6385 3.31299H13.1952C15.5752 3.31299 17.5002 4.79465 17.5002 7.17465" stroke="#292D32" stroke-width="1.75" stroke-linecap="round" stroke-linejoin="round"/>
<path id="Vector_3" d="M20.3935 14.2336C19.8101 14.7936 19.5302 15.6569 19.7635 16.5436C20.0552 17.6286 21.1285 18.3169 22.2485 18.3169H23.3335V20.0086C23.3335 22.587 21.2452 24.6753 18.6668 24.6753H7.00016C4.42183 24.6753 2.3335 22.587 2.3335 20.0086V11.842C2.3335 9.26363 4.42183 7.17529 7.00016 7.17529H18.6668C21.2335 7.17529 23.3335 9.27529 23.3335 11.842V13.5336H22.0735C21.4201 13.5336 20.8251 13.7903 20.3935 14.2336Z" stroke="#292D32" stroke-width="1.75" stroke-linecap="round" stroke-linejoin="round"/>
<path id="Vector_4" d="M25.6671 14.7227V17.1261C25.6671 17.7794 25.1304 18.3161 24.4654 18.3161H22.2137C20.9537 18.3161 19.7988 17.3944 19.6938 16.1344C19.6238 15.3994 19.9037 14.7111 20.3937 14.2328C20.8254 13.7894 21.4204 13.5327 22.0737 13.5327H24.4654C25.1304 13.5327 25.6671 14.0694 25.6671 14.7227Z" stroke="#292D32" stroke-width="1.75" stroke-linecap="round" stroke-linejoin="round"/>
</g>
</svg>
