<svg width="24" height="25" viewBox="0 0 24 25" fill="none" xmlns="http://www.w3.org/2000/svg">
<g id="Frame">
<path id="Vector" d="M2 8.5L3.304 9.543C3.75828 9.90635 4.28636 10.1662 4.85139 10.3046C5.41643 10.4429 6.00484 10.4563 6.57559 10.3438C7.14634 10.2314 7.6857 9.99583 8.15606 9.65355C8.62642 9.31126 9.01647 8.8705 9.299 8.362L12 3.5L14.701 8.362C14.9836 8.87042 15.3737 9.31109 15.8441 9.65328C16.3145 9.99546 16.8539 10.2309 17.4247 10.3433C17.9954 10.4556 18.5838 10.4421 19.1488 10.3037C19.7138 10.1653 20.2418 9.90539 20.696 9.542L22 8.5L20.246 17.27C20.1694 17.6527 20.0065 18.0129 19.7696 18.3231C19.5327 18.6333 19.2281 18.8854 18.879 19.06C16.7432 20.128 14.388 20.684 12 20.684C9.61202 20.684 7.25684 20.128 5.121 19.06C4.77193 18.8854 4.46733 18.6333 4.23043 18.3231C3.99353 18.0129 3.83058 17.6527 3.754 17.27L2 8.5Z" fill="#DFA935"/>
<g id="Vector_2">
<path d="M8 15.5C10.596 16.833 13.404 16.833 16 15.5H8Z" fill="#DFA935"/>
<path d="M8 15.5C10.596 16.833 13.404 16.833 16 15.5" stroke="white" stroke-linecap="round" stroke-linejoin="round"/>
</g>
</g>
</svg>
