<svg width="2840" height="130" viewBox="0 0 2840 130" fill="none" xmlns="http://www.w3.org/2000/svg">
<g clip-path="url(#clip0_1082_32025)">
<path opacity="0.2" fill-rule="evenodd" clip-rule="evenodd" d="M477.372 0C480.134 0 482.372 2.23858 482.372 5V130H487.734V5C487.734 2.23858 489.973 0 492.734 0C495.496 0 497.734 2.23858 497.734 5V130H506.936V31.8516C506.936 29.0901 509.175 26.8516 511.936 26.8516C514.698 26.8516 516.936 29.0901 516.936 31.8516V130H522.298V58.7031C522.298 55.9417 524.536 53.7031 527.298 53.7031C530.059 53.7031 532.298 55.9417 532.298 58.7031V130H537.66V93.2227C537.66 90.4612 539.898 88.2227 542.66 88.2227C545.421 88.2227 547.66 90.4612 547.66 93.2227V130H556.862V97.0586C556.862 94.2972 559.1 92.0586 561.862 92.0586C564.623 92.0586 566.862 94.2972 566.862 97.0586V130H572.223V81.7148C572.223 78.9534 574.462 76.7148 577.223 76.7148C579.985 76.7148 582.223 78.9534 582.223 81.7148V130H587.585V58.7031C587.585 55.9417 589.824 53.7031 592.585 53.7031C595.346 53.7031 597.585 55.9417 597.585 58.7031V130H606.787V47.1953C606.787 44.4339 609.026 42.1953 611.787 42.1953C614.549 42.1953 616.787 44.4339 616.787 47.1953V130H622.149V12.6719C622.149 9.91045 624.388 7.67188 627.149 7.67188C629.91 7.67188 632.149 9.91045 632.149 12.6719V130H637.511V31.8516C637.511 29.0901 639.749 26.8516 642.511 26.8516C645.272 26.8516 647.511 29.0901 647.511 31.8516V130H656.713V58.7031C656.713 55.9417 658.951 53.7031 661.713 53.7031C664.474 53.7031 666.713 55.9417 666.713 58.7031V130H672.074V77.8789C672.074 75.1175 674.313 72.8789 677.074 72.8789C679.836 72.8789 682.074 75.1175 682.074 77.8789V130H687.436V12.6719C687.436 9.91045 689.675 7.67188 692.436 7.67188C695.197 7.67188 697.436 9.91045 697.436 12.6719V130H706.638V43.3594C706.638 40.5979 708.877 38.3594 711.638 38.3594C714.4 38.3594 716.638 40.5979 716.638 43.3594V130H722V66.375C722 63.6136 724.239 61.375 727 61.375C729.761 61.375 732 63.6136 732 66.375V130H737.362V70.2109C737.362 67.4495 739.6 65.2109 742.362 65.2109C745.123 65.2109 747.362 67.4495 747.362 70.2109V130H756.564V85.5508C756.564 82.7894 758.802 80.5508 761.564 80.5508C764.325 80.5508 766.564 82.7894 766.564 85.5508V130H771.926V74.043C771.926 71.2815 774.164 69.043 776.926 69.043C779.687 69.043 781.926 71.2815 781.926 74.043V130H787.287V81.7148C787.287 78.9534 789.526 76.7148 792.287 76.7148C795.049 76.7148 797.287 78.9534 797.287 81.7148V130H806.489V81.7148C806.489 78.9534 808.728 76.7148 811.489 76.7148C814.251 76.7148 816.489 78.9534 816.489 81.7148V130H821.851V51.0312C821.851 48.2698 824.09 46.0312 826.851 46.0312C829.612 46.0312 831.851 48.2698 831.851 51.0312V130H837.213V62.5391C837.213 59.7776 839.451 57.5391 842.213 57.5391C844.974 57.5391 847.213 59.7776 847.213 62.5391V130H856.415V28.0156C856.415 25.2542 858.653 23.0156 861.415 23.0156C864.176 23.0156 866.415 25.2542 866.415 28.0156V130H871.777V8.83582C871.777 6.07439 874.015 3.83582 876.777 3.83582C879.538 3.83582 881.777 6.07439 881.777 8.83582V130H887.138V31.8516C887.138 29.0901 889.377 26.8516 892.138 26.8516C894.9 26.8516 897.138 29.0901 897.138 31.8516V130H906.34V12.6719C906.34 9.91045 908.579 7.67188 911.34 7.67188C914.102 7.67188 916.34 9.91045 916.34 12.6719V130H921.702V66.375C921.702 63.6136 923.941 61.375 926.702 61.375C929.464 61.375 931.702 63.6136 931.702 66.375V130H937.064V89.3867C937.064 86.6253 939.302 84.3867 942.064 84.3867C944.825 84.3867 947.064 86.6253 947.064 89.3867V130H956.266V74.043C956.266 71.2815 958.504 69.043 961.266 69.043C964.027 69.043 966.266 71.2815 966.266 74.043V130H971.628V43.3594C971.628 40.5979 973.866 38.3594 976.628 38.3594C979.389 38.3594 981.628 40.5979 981.628 43.3594V130H986.989V5C986.989 2.23858 989.228 0 991.989 0C994.751 0 996.989 2.23858 996.989 5V130H1006.19V5C1006.19 2.23858 1008.43 0 1011.19 0C1013.95 0 1016.19 2.23858 1016.19 5V130H1021.55V31.8516C1021.55 29.0901 1023.79 26.8516 1026.55 26.8516C1029.31 26.8516 1031.55 29.0901 1031.55 31.8516V130H1036.91V58.7031C1036.91 55.9417 1039.15 53.7031 1041.91 53.7031C1044.68 53.7031 1046.91 55.9417 1046.91 58.7031V130H1056.12V93.2227C1056.12 90.4612 1058.36 88.2227 1061.12 88.2227C1063.88 88.2227 1066.12 90.4612 1066.12 93.2227V130H1071.48V97.0586C1071.48 94.2972 1073.72 92.0586 1076.48 92.0586C1079.24 92.0586 1081.48 94.2972 1081.48 97.0586V130H1090.68V81.7148C1090.68 78.9534 1092.92 76.7148 1095.68 76.7148C1098.44 76.7148 1100.68 78.9534 1100.68 81.7148V130H1106.04V58.7031C1106.04 55.9417 1108.28 53.7031 1111.04 53.7031C1113.8 53.7031 1116.04 55.9417 1116.04 58.7031V130H1121.4V47.1953C1121.4 44.4339 1123.64 42.1953 1126.4 42.1953C1129.17 42.1953 1131.4 44.4339 1131.4 47.1953V130H1140.61V12.6719C1140.61 9.91045 1142.84 7.67188 1145.61 7.67188C1148.37 7.67188 1150.61 9.91045 1150.61 12.6719V130H1155.97V31.8516C1155.97 29.0901 1158.21 26.8516 1160.97 26.8516C1163.73 26.8516 1165.97 29.0901 1165.97 31.8516V130H1171.33V58.7031C1171.33 55.9417 1173.57 53.7031 1176.33 53.7031C1179.09 53.7031 1181.33 55.9417 1181.33 58.7031V130H1190.53V77.8789C1190.53 75.1175 1192.77 72.8789 1195.53 72.8789C1198.29 72.8789 1200.53 75.1175 1200.53 77.8789V130H1205.89V12.6719C1205.89 9.91045 1208.13 7.67188 1210.89 7.67188C1213.66 7.67188 1215.89 9.91045 1215.89 12.6719V130H1221.26V43.3594C1221.26 40.5979 1223.49 38.3594 1226.26 38.3594C1229.02 38.3594 1231.26 40.5979 1231.26 43.3594V130H1240.46V66.375C1240.46 63.6136 1242.7 61.375 1245.46 61.375C1248.22 61.375 1250.46 63.6136 1250.46 66.375V130H1255.82V70.2109C1255.82 67.4495 1258.06 65.2109 1260.82 65.2109C1263.58 65.2109 1265.82 67.4495 1265.82 70.2109V130H1271.18V85.5508C1271.18 82.7894 1273.42 80.5508 1276.18 80.5508C1278.94 80.5508 1281.18 82.7894 1281.18 85.5508V130H1290.38V74.043C1290.38 71.2815 1292.62 69.043 1295.38 69.043C1298.14 69.043 1300.38 71.2815 1300.38 74.043V130H1305.74V81.7148C1305.74 78.9534 1307.98 76.7148 1310.74 76.7148C1313.51 76.7148 1315.74 78.9534 1315.74 81.7148V130H1321.11V81.7148C1321.11 78.9534 1323.34 76.7148 1326.11 76.7148C1328.87 76.7148 1331.11 78.9534 1331.11 81.7148V130H1340.31V51.0312C1340.31 48.2698 1342.55 46.0312 1345.31 46.0312C1348.07 46.0312 1350.31 48.2698 1350.31 51.0312V130H1355.67V24.1797C1355.67 21.4183 1357.91 19.1797 1360.67 19.1797C1363.43 19.1797 1365.67 21.4183 1365.67 24.1797V130H1371.03V28.0156C1371.03 25.2542 1373.27 23.0156 1376.03 23.0156C1378.79 23.0156 1381.03 25.2542 1381.03 28.0156V130H1390.23V51.0312C1390.23 48.2698 1392.47 46.0312 1395.23 46.0312C1398 46.0312 1400.23 48.2698 1400.23 51.0312V130H1405.6V100.895C1405.6 98.1331 1407.83 95.8945 1410.6 95.8945C1413.36 95.8945 1415.6 98.1331 1415.6 100.895V130H1418V140H1415.6V169.939C1415.6 172.701 1413.36 174.939 1410.6 174.939C1407.83 174.939 1405.6 172.701 1405.6 169.939V140H1400.23V215.972C1400.23 218.733 1398 220.972 1395.23 220.972C1392.47 220.972 1390.23 218.733 1390.23 215.972V140H1381.03V238.986C1381.03 241.747 1378.79 243.986 1376.03 243.986C1373.27 243.986 1371.03 241.747 1371.03 238.986V140H1365.67V242.821C1365.67 245.583 1363.43 247.821 1360.67 247.821C1357.91 247.821 1355.67 245.583 1355.67 242.821V140H1350.31V215.972C1350.31 218.733 1348.07 220.972 1345.31 220.972C1342.55 220.972 1340.31 218.733 1340.31 215.972V140H1331.11V189.118C1331.11 191.879 1328.87 194.118 1326.11 194.118C1323.34 194.118 1321.11 191.879 1321.11 189.118V140H1315.74V189.118C1315.74 191.879 1313.51 194.118 1310.74 194.118C1307.98 194.118 1305.74 191.879 1305.74 189.118V140H1300.38V196.789C1300.38 199.551 1298.14 201.789 1295.38 201.789C1292.62 201.789 1290.38 199.551 1290.38 196.789V140H1281.18V185.282C1281.18 188.044 1278.94 190.282 1276.18 190.282C1273.42 190.282 1271.18 188.044 1271.18 185.282V140H1265.82V200.629C1265.82 203.39 1263.58 205.629 1260.82 205.629C1258.06 205.629 1255.82 203.39 1255.82 200.629V140H1250.46V204.465C1250.46 207.226 1248.22 209.465 1245.46 209.465C1242.7 209.465 1240.46 207.226 1240.46 204.465V140H1231.26V223.643C1231.26 226.404 1229.02 228.643 1226.26 228.643C1223.49 228.643 1221.26 226.404 1221.26 223.643V140H1215.89V254.329C1215.89 257.09 1213.66 259.329 1210.89 259.329C1208.13 259.329 1205.89 257.09 1205.89 254.329V140H1200.53V192.954C1200.53 195.715 1198.29 197.954 1195.53 197.954C1192.77 197.954 1190.53 195.715 1190.53 192.954V140H1181.33V212.136C1181.33 214.897 1179.09 217.136 1176.33 217.136C1173.57 217.136 1171.33 214.897 1171.33 212.136V140H1165.97V235.15C1165.97 237.911 1163.73 240.15 1160.97 240.15C1158.21 240.15 1155.97 237.911 1155.97 235.15V140H1150.61V254.329C1150.61 257.09 1148.37 259.329 1145.61 259.329C1142.84 259.329 1140.61 257.09 1140.61 254.329V140H1131.4V219.807C1131.4 222.569 1129.17 224.807 1126.4 224.807C1123.64 224.807 1121.4 222.569 1121.4 219.807V140H1116.04V212.136C1116.04 214.897 1113.8 217.136 1111.04 217.136C1108.28 217.136 1106.04 214.897 1106.04 212.136V140H1100.68V189.118C1100.68 191.879 1098.44 194.118 1095.68 194.118C1092.92 194.118 1090.68 191.879 1090.68 189.118V140H1081.48V173.775C1081.48 176.536 1079.24 178.775 1076.48 178.775C1073.72 178.775 1071.48 176.536 1071.48 173.775V140H1066.12V177.611C1066.12 180.372 1063.88 182.611 1061.12 182.611C1058.36 182.611 1056.12 180.372 1056.12 177.611V140H1046.91V212.136C1046.91 214.897 1044.68 217.136 1041.91 217.136C1039.15 217.136 1036.91 214.897 1036.91 212.136V140H1031.55V235.15C1031.55 237.911 1029.31 240.15 1026.55 240.15C1023.79 240.15 1021.55 237.911 1021.55 235.15V140H1016.19V262C1016.19 264.761 1013.95 267 1011.19 267C1008.43 267 1006.19 264.761 1006.19 262V140H996.989V262C996.989 264.761 994.751 267 991.989 267C989.228 267 986.989 264.761 986.989 262V140H981.628V223.643C981.628 226.404 979.389 228.643 976.628 228.643C973.866 228.643 971.628 226.404 971.628 223.643V140H966.266V196.789C966.266 199.551 964.027 201.789 961.266 201.789C958.504 201.789 956.266 199.551 956.266 196.789V140H947.064V181.446C947.064 184.208 944.825 186.446 942.064 186.446C939.302 186.446 937.064 184.208 937.064 181.446V140H931.702V204.465C931.702 207.226 929.464 209.465 926.702 209.465C923.941 209.465 921.702 207.226 921.702 204.465V140H916.34V254.329C916.34 257.09 914.102 259.329 911.34 259.329C908.579 259.329 906.34 257.09 906.34 254.329V140H897.138V235.15C897.138 237.911 894.9 240.15 892.138 240.15C889.377 240.15 887.138 237.911 887.138 235.15V140H881.777V258.164C881.777 260.926 879.538 263.164 876.777 263.164C874.015 263.164 871.777 260.926 871.777 258.164V140H866.415V238.986C866.415 241.747 864.176 243.986 861.415 243.986C858.653 243.986 856.415 241.747 856.415 238.986V140H847.213V208.3C847.213 211.062 844.974 213.3 842.213 213.3C839.451 213.3 837.213 211.062 837.213 208.3V140H831.851V215.972C831.851 218.733 829.612 220.972 826.851 220.972C824.09 220.972 821.851 218.733 821.851 215.972V140H816.489V189.118C816.489 191.879 814.251 194.118 811.489 194.118C808.728 194.118 806.489 191.879 806.489 189.118V140H797.287V189.118C797.287 191.879 795.049 194.118 792.287 194.118C789.526 194.118 787.287 191.879 787.287 189.118V140H781.926V196.789C781.926 199.551 779.687 201.789 776.926 201.789C774.164 201.789 771.926 199.551 771.926 196.789V140H766.564V185.282C766.564 188.044 764.325 190.282 761.564 190.282C758.802 190.282 756.564 188.044 756.564 185.282V140H747.362V200.629C747.362 203.39 745.123 205.629 742.362 205.629C739.6 205.629 737.362 203.39 737.362 200.629V140H732V204.465C732 207.226 729.761 209.465 727 209.465C724.239 209.465 722 207.226 722 204.465V140H716.638V223.643C716.638 226.404 714.4 228.643 711.638 228.643C708.877 228.643 706.638 226.404 706.638 223.643V140H697.436V254.329C697.436 257.09 695.197 259.329 692.436 259.329C689.675 259.329 687.436 257.09 687.436 254.329V140H682.074V192.954C682.074 195.715 679.836 197.954 677.074 197.954C674.313 197.954 672.074 195.715 672.074 192.954V140H666.713V212.136C666.713 214.897 664.474 217.136 661.713 217.136C658.951 217.136 656.713 214.897 656.713 212.136V140H647.511V235.15C647.511 237.911 645.272 240.15 642.511 240.15C639.749 240.15 637.511 237.911 637.511 235.15V140H632.149V254.329C632.149 257.09 629.91 259.329 627.149 259.329C624.388 259.329 622.149 257.09 622.149 254.329V140H616.787V219.807C616.787 222.569 614.549 224.807 611.787 224.807C609.026 224.807 606.787 222.569 606.787 219.807V140H597.585V212.136C597.585 214.897 595.346 217.136 592.585 217.136C589.824 217.136 587.585 214.897 587.585 212.136V140H582.223V189.118C582.223 191.879 579.985 194.118 577.223 194.118C574.462 194.118 572.223 191.879 572.223 189.118V140H566.862V173.775C566.862 176.536 564.623 178.775 561.862 178.775C559.1 178.775 556.862 176.536 556.862 173.775V140H547.66V177.611C547.66 180.372 545.421 182.611 542.66 182.611C539.898 182.611 537.66 180.372 537.66 177.611V140H532.298V212.136C532.298 214.897 530.059 217.136 527.298 217.136C524.536 217.136 522.298 214.897 522.298 212.136V140H516.936V235.15C516.936 237.911 514.698 240.15 511.936 240.15C509.175 240.15 506.936 237.911 506.936 235.15V140H497.734V262C497.734 264.761 495.496 267 492.734 267C489.973 267 487.734 264.761 487.734 262V140H482.372V262C482.372 264.761 480.134 267 477.372 267C474.611 267 472.372 264.761 472.372 262V140H467.011V223.643C467.011 226.404 464.772 228.643 462.011 228.643C459.249 228.643 457.011 226.404 457.011 223.643V140H447.809V196.789C447.809 199.551 445.57 201.789 442.809 201.789C440.047 201.789 437.809 199.551 437.809 196.789V140H432.447V181.446C432.447 184.208 430.208 186.446 427.447 186.446C424.685 186.446 422.447 184.208 422.447 181.446V140H417.085V204.465C417.085 207.226 414.847 209.465 412.085 209.465C409.324 209.465 407.085 207.226 407.085 204.465V140H397.883V254.329C397.883 257.09 395.644 259.329 392.883 259.329C390.122 259.329 387.883 257.09 387.883 254.329V140H382.521V235.15C382.521 237.911 380.283 240.15 377.521 240.15C374.76 240.15 372.521 237.911 372.521 235.15V140H363.319V258.164C363.319 260.926 361.081 263.164 358.319 263.164C355.558 263.164 353.319 260.926 353.319 258.164V140H347.958V238.986C347.958 241.747 345.719 243.986 342.958 243.986C340.196 243.986 337.958 241.747 337.958 238.986V140H332.596V208.3C332.596 211.062 330.357 213.3 327.596 213.3C324.834 213.3 322.596 211.062 322.596 208.3V140H313.394V215.972C313.394 218.733 311.155 220.972 308.394 220.972C305.632 220.972 303.394 218.733 303.394 215.972V140H298.032V189.118C298.032 191.879 295.793 194.118 293.032 194.118C290.271 194.118 288.032 191.879 288.032 189.118V140H282.67V189.118C282.67 191.879 280.432 194.118 277.67 194.118C274.909 194.118 272.67 191.879 272.67 189.118V140H263.468V196.789C263.468 199.551 261.229 201.789 258.468 201.789C255.707 201.789 253.468 199.551 253.468 196.789V140H248.106V185.282C248.106 188.044 245.868 190.282 243.106 190.282C240.345 190.282 238.106 188.044 238.106 185.282V140H232.745V200.629C232.745 203.39 230.506 205.629 227.745 205.629C224.983 205.629 222.745 203.39 222.745 200.629V140H213.542V204.465C213.542 207.226 211.304 209.465 208.542 209.465C205.781 209.465 203.542 207.226 203.542 204.465V140H198.181V223.643C198.181 226.404 195.942 228.643 193.181 228.643C190.419 228.643 188.181 226.404 188.181 223.643V140H182.819V254.329C182.819 257.09 180.581 259.329 177.819 259.329C175.058 259.329 172.819 257.09 172.819 254.329V140H163.617V192.954C163.617 195.715 161.378 197.954 158.617 197.954C155.856 197.954 153.617 195.715 153.617 192.954V140H148.255V212.136C148.255 214.897 146.017 217.136 143.255 217.136C140.494 217.136 138.255 214.897 138.255 212.136V140H132.894V235.15C132.894 237.911 130.655 240.15 127.894 240.15C125.132 240.15 122.894 237.911 122.894 235.15V140H113.691V254.329C113.691 257.09 111.453 259.329 108.691 259.329C105.93 259.329 103.691 257.09 103.691 254.329V140H98.3298V219.807C98.3298 222.569 96.0913 224.807 93.3298 224.807C90.5684 224.807 88.3298 222.569 88.3298 219.807V140H82.968V212.136C82.968 214.897 80.7294 217.136 77.968 217.136C75.2066 217.136 72.968 214.897 72.968 212.136V140H63.7659V189.118C63.7659 191.879 61.5273 194.118 58.7659 194.118C56.0044 194.118 53.7659 191.879 53.7659 189.118V140H48.4043V173.775C48.4043 176.536 46.1657 178.775 43.4043 178.775C40.6429 178.775 38.4043 176.536 38.4043 173.775V140H5H0V130H5H38.4043V97.0586C38.4043 94.2972 40.6429 92.0586 43.4043 92.0586C46.1657 92.0586 48.4043 94.2972 48.4043 97.0586V130H53.7659V81.7148C53.7659 78.9534 56.0044 76.7148 58.7659 76.7148C61.5273 76.7148 63.7659 78.9534 63.7659 81.7148V130H72.968V58.7031C72.968 55.9417 75.2066 53.7031 77.968 53.7031C80.7294 53.7031 82.968 55.9417 82.968 58.7031V130H88.3298V47.1953C88.3298 44.4339 90.5684 42.1953 93.3298 42.1953C96.0913 42.1953 98.3298 44.4339 98.3298 47.1953V130H103.691V12.6719C103.691 9.91045 105.93 7.67188 108.691 7.67188C111.453 7.67188 113.691 9.91045 113.691 12.6719V130H122.894V31.8516C122.894 29.0901 125.132 26.8516 127.894 26.8516C130.655 26.8516 132.894 29.0901 132.894 31.8516V130H138.255V58.7031C138.255 55.9417 140.494 53.7031 143.255 53.7031C146.017 53.7031 148.255 55.9417 148.255 58.7031V130H153.617V77.8789C153.617 75.1175 155.856 72.8789 158.617 72.8789C161.378 72.8789 163.617 75.1175 163.617 77.8789V130H172.819V12.6719C172.819 9.91045 175.058 7.67188 177.819 7.67188C180.581 7.67188 182.819 9.91045 182.819 12.6719V130H188.181V43.3594C188.181 40.5979 190.419 38.3594 193.181 38.3594C195.942 38.3594 198.181 40.5979 198.181 43.3594V130H203.542V66.375C203.542 63.6136 205.781 61.375 208.542 61.375C211.304 61.375 213.542 63.6136 213.542 66.375V130H222.745V70.2109C222.745 67.4495 224.983 65.2109 227.745 65.2109C230.506 65.2109 232.745 67.4495 232.745 70.2109V130H238.106V85.5508C238.106 82.7894 240.345 80.5508 243.106 80.5508C245.868 80.5508 248.106 82.7894 248.106 85.5508V130H253.468V74.043C253.468 71.2815 255.707 69.043 258.468 69.043C261.229 69.043 263.468 71.2815 263.468 74.043V130H272.67V81.7148C272.67 78.9534 274.909 76.7148 277.67 76.7148C280.432 76.7148 282.67 78.9534 282.67 81.7148V130H288.032V81.7148C288.032 78.9534 290.271 76.7148 293.032 76.7148C295.793 76.7148 298.032 78.9534 298.032 81.7148V130H303.394V51.0312C303.394 48.2698 305.632 46.0312 308.394 46.0312C311.155 46.0312 313.394 48.2698 313.394 51.0312V130H322.596V62.5391C322.596 59.7776 324.834 57.5391 327.596 57.5391C330.357 57.5391 332.596 59.7776 332.596 62.5391V130H337.958V28.0156C337.958 25.2542 340.196 23.0156 342.958 23.0156C345.719 23.0156 347.958 25.2542 347.958 28.0156V130H353.319V8.83582C353.319 6.07439 355.558 3.83582 358.319 3.83582C361.081 3.83582 363.319 6.07439 363.319 8.83582V130H372.521V31.8516C372.521 29.0901 374.76 26.8516 377.521 26.8516C380.283 26.8516 382.521 29.0901 382.521 31.8516V130H387.883V12.6719C387.883 9.91045 390.122 7.67188 392.883 7.67188C395.644 7.67188 397.883 9.91045 397.883 12.6719V130H407.085V66.375C407.085 63.6136 409.324 61.375 412.085 61.375C414.847 61.375 417.085 63.6136 417.085 66.375V130H422.447V89.3867C422.447 86.6253 424.685 84.3867 427.447 84.3867C430.208 84.3867 432.447 86.6253 432.447 89.3867V130H437.809V74.043C437.809 71.2815 440.047 69.043 442.809 69.043C445.57 69.043 447.809 71.2815 447.809 74.043V130H457.011V43.3594C457.011 40.5979 459.249 38.3594 462.011 38.3594C464.772 38.3594 467.011 40.5979 467.011 43.3594V130H472.372V5C472.372 2.23858 474.611 0 477.372 0Z" fill="url(#paint0_linear_1082_32025)"/>
<path opacity="0.2" fill-rule="evenodd" clip-rule="evenodd" d="M2362.63 270C2359.87 270 2357.63 267.761 2357.63 265L2357.63 140L2352.27 140L2352.27 265C2352.27 267.761 2350.03 270 2347.27 270C2344.5 270 2342.27 267.761 2342.27 265L2342.27 140L2333.06 140L2333.06 238.148C2333.06 240.91 2330.83 243.148 2328.06 243.148C2325.3 243.148 2323.06 240.91 2323.06 238.148L2323.06 140L2317.7 140L2317.7 211.297C2317.7 214.058 2315.46 216.297 2312.7 216.297C2309.94 216.297 2307.7 214.058 2307.7 211.297L2307.7 140L2302.34 140L2302.34 176.777C2302.34 179.539 2300.1 181.777 2297.34 181.777C2294.58 181.777 2292.34 179.539 2292.34 176.777L2292.34 140L2283.14 140L2283.14 172.941C2283.14 175.703 2280.9 177.941 2278.14 177.941C2275.38 177.941 2273.14 175.703 2273.14 172.941L2273.14 140L2267.78 140L2267.78 188.285C2267.78 191.047 2265.54 193.285 2262.78 193.285C2260.02 193.285 2257.78 191.047 2257.78 188.285L2257.78 140L2252.42 140L2252.42 211.297C2252.42 214.058 2250.18 216.297 2247.42 216.297C2244.65 216.297 2242.42 214.058 2242.42 211.297L2242.42 140L2233.21 140L2233.21 222.805C2233.21 225.566 2230.97 227.805 2228.21 227.805C2225.45 227.805 2223.21 225.566 2223.21 222.805L2223.21 140L2217.85 140L2217.85 257.328C2217.85 260.09 2215.61 262.328 2212.85 262.328C2210.09 262.328 2207.85 260.09 2207.85 257.328L2207.85 140L2202.49 140L2202.49 238.148C2202.49 240.91 2200.25 243.148 2197.49 243.148C2194.73 243.148 2192.49 240.91 2192.49 238.148L2192.49 140L2183.29 140L2183.29 211.297C2183.29 214.058 2181.05 216.297 2178.29 216.297C2175.53 216.297 2173.29 214.058 2173.29 211.297L2173.29 140L2167.93 140L2167.93 192.121C2167.93 194.883 2165.69 197.121 2162.93 197.121C2160.16 197.121 2157.93 194.883 2157.93 192.121L2157.93 140L2152.56 140L2152.56 257.328C2152.56 260.09 2150.33 262.328 2147.56 262.328C2144.8 262.328 2142.56 260.09 2142.56 257.328L2142.56 140L2133.36 140L2133.36 226.641C2133.36 229.402 2131.12 231.641 2128.36 231.641C2125.6 231.641 2123.36 229.402 2123.36 226.641L2123.36 140L2118 140L2118 203.625C2118 206.386 2115.76 208.625 2113 208.625C2110.24 208.625 2108 206.386 2108 203.625L2108 140L2102.64 140L2102.64 199.789C2102.64 202.55 2100.4 204.789 2097.64 204.789C2094.88 204.789 2092.64 202.55 2092.64 199.789L2092.64 140L2083.44 140L2083.44 184.449C2083.44 187.211 2081.2 189.449 2078.44 189.449C2075.67 189.449 2073.44 187.211 2073.44 184.449L2073.44 140L2068.07 140L2068.07 195.957C2068.07 198.718 2065.84 200.957 2063.07 200.957C2060.31 200.957 2058.07 198.718 2058.07 195.957L2058.07 140L2052.71 140L2052.71 188.285C2052.71 191.047 2050.47 193.285 2047.71 193.285C2044.95 193.285 2042.71 191.047 2042.71 188.285L2042.71 140L2033.51 140L2033.51 188.285C2033.51 191.047 2031.27 193.285 2028.51 193.285C2025.75 193.285 2023.51 191.047 2023.51 188.285L2023.51 140L2018.15 140L2018.15 218.969C2018.15 221.73 2015.91 223.969 2013.15 223.969C2010.39 223.969 2008.15 221.73 2008.15 218.969L2008.15 140L2002.79 140L2002.79 207.461C2002.79 210.222 2000.55 212.461 1997.79 212.461C1995.03 212.461 1992.79 210.222 1992.79 207.461L1992.79 140L1983.59 140L1983.59 241.984C1983.59 244.746 1981.35 246.984 1978.59 246.984C1975.82 246.984 1973.59 244.746 1973.59 241.984L1973.59 140L1968.22 140L1968.22 261.164C1968.22 263.926 1965.98 266.164 1963.22 266.164C1960.46 266.164 1958.22 263.926 1958.22 261.164L1958.22 140L1952.86 140L1952.86 238.148C1952.86 240.91 1950.62 243.148 1947.86 243.148C1945.1 243.148 1942.86 240.91 1942.86 238.148L1942.86 140L1933.66 140L1933.66 257.328C1933.66 260.09 1931.42 262.328 1928.66 262.328C1925.9 262.328 1923.66 260.09 1923.66 257.328L1923.66 140L1918.3 140L1918.3 203.625C1918.3 206.386 1916.06 208.625 1913.3 208.625C1910.54 208.625 1908.3 206.386 1908.3 203.625L1908.3 140L1902.94 140L1902.94 180.613C1902.94 183.375 1900.7 185.613 1897.94 185.613C1895.17 185.613 1892.94 183.375 1892.94 180.613L1892.94 140L1883.73 140L1883.73 195.957C1883.73 198.718 1881.5 200.957 1878.73 200.957C1875.97 200.957 1873.73 198.718 1873.73 195.957L1873.73 140L1868.37 140L1868.37 226.641C1868.37 229.402 1866.13 231.641 1863.37 231.641C1860.61 231.641 1858.37 229.402 1858.37 226.641L1858.37 140L1853.01 140L1853.01 265C1853.01 267.761 1850.77 270 1848.01 270C1845.25 270 1843.01 267.761 1843.01 265L1843.01 140L1833.81 140L1833.81 265C1833.81 267.761 1831.57 270 1828.81 270C1826.05 270 1823.81 267.761 1823.81 265L1823.81 140L1818.45 140L1818.45 238.148C1818.45 240.91 1816.21 243.148 1813.45 243.148C1810.69 243.148 1808.45 240.91 1808.45 238.148L1808.45 140L1803.09 140L1803.09 211.297C1803.09 214.058 1800.85 216.297 1798.09 216.297C1795.32 216.297 1793.09 214.058 1793.09 211.297L1793.09 140L1783.88 140L1783.88 176.777C1783.88 179.539 1781.64 181.777 1778.88 181.777C1776.12 181.777 1773.88 179.539 1773.88 176.777L1773.88 140L1768.52 140L1768.52 172.941C1768.52 175.703 1766.28 177.941 1763.52 177.941C1760.76 177.941 1758.52 175.703 1758.52 172.941L1758.52 140L1749.32 140L1749.32 188.285C1749.32 191.047 1747.08 193.285 1744.32 193.285C1741.56 193.285 1739.32 191.047 1739.32 188.285L1739.32 140L1733.96 140L1733.96 211.297C1733.96 214.058 1731.72 216.297 1728.96 216.297C1726.2 216.297 1723.96 214.058 1723.96 211.297L1723.96 140L1718.6 140L1718.6 222.805C1718.6 225.566 1716.36 227.805 1713.6 227.805C1710.83 227.805 1708.6 225.566 1708.6 222.805L1708.6 140L1699.39 140L1699.39 257.328C1699.39 260.09 1697.16 262.328 1694.39 262.328C1691.63 262.328 1689.39 260.09 1689.39 257.328L1689.39 140L1684.03 140L1684.03 238.148C1684.03 240.91 1681.79 243.148 1679.03 243.148C1676.27 243.148 1674.03 240.91 1674.03 238.148L1674.03 140L1668.67 140L1668.67 211.297C1668.67 214.058 1666.43 216.297 1663.67 216.297C1660.91 216.297 1658.67 214.058 1658.67 211.297L1658.67 140L1649.47 140L1649.47 192.121C1649.47 194.883 1647.23 197.121 1644.47 197.121C1641.71 197.121 1639.47 194.883 1639.47 192.121L1639.47 140L1634.11 140L1634.11 257.328C1634.11 260.09 1631.87 262.328 1629.11 262.328C1626.34 262.328 1624.11 260.09 1624.11 257.328L1624.11 140L1618.74 140L1618.74 226.641C1618.74 229.402 1616.51 231.641 1613.74 231.641C1610.98 231.641 1608.74 229.402 1608.74 226.641L1608.74 140L1599.54 140L1599.54 203.625C1599.54 206.386 1597.3 208.625 1594.54 208.625C1591.78 208.625 1589.54 206.386 1589.54 203.625L1589.54 140L1584.18 140L1584.18 199.789C1584.18 202.55 1581.94 204.789 1579.18 204.789C1576.42 204.789 1574.18 202.55 1574.18 199.789L1574.18 140L1568.82 140L1568.82 184.449C1568.82 187.211 1566.58 189.449 1563.82 189.449C1561.06 189.449 1558.82 187.211 1558.82 184.449L1558.82 140L1549.62 140L1549.62 195.957C1549.62 198.718 1547.38 200.957 1544.62 200.957C1541.86 200.957 1539.62 198.718 1539.62 195.957L1539.62 140L1534.26 140L1534.26 188.285C1534.26 191.047 1532.02 193.285 1529.26 193.285C1526.49 193.285 1524.26 191.047 1524.26 188.285L1524.26 140L1518.89 140L1518.89 188.285C1518.89 191.047 1516.66 193.285 1513.89 193.285C1511.13 193.285 1508.89 191.047 1508.89 188.285L1508.89 140L1499.69 140L1499.69 218.969C1499.69 221.73 1497.45 223.969 1494.69 223.969C1491.93 223.969 1489.69 221.73 1489.69 218.969L1489.69 140L1484.33 140L1484.33 245.82C1484.33 248.582 1482.09 250.82 1479.33 250.82C1476.57 250.82 1474.33 248.582 1474.33 245.82L1474.33 140L1468.97 140L1468.97 241.984C1468.97 244.746 1466.73 246.984 1463.97 246.984C1461.21 246.984 1458.97 244.746 1458.97 241.984L1458.97 140L1449.77 140L1449.77 218.969C1449.77 221.73 1447.53 223.969 1444.77 223.969C1442 223.969 1439.77 221.73 1439.77 218.969L1439.77 140L1434.4 140L1434.4 169.105C1434.4 171.867 1432.17 174.105 1429.4 174.105C1426.64 174.105 1424.4 171.867 1424.4 169.105L1424.4 140L1423 140L1418 140L1418 130L1423 130L1424.4 130L1424.4 100.061C1424.4 97.2993 1426.64 95.0607 1429.4 95.0607C1432.17 95.0607 1434.4 97.2993 1434.4 100.061L1434.4 130L1439.77 130L1439.77 54.0285C1439.77 51.267 1442 49.0285 1444.77 49.0285C1447.53 49.0285 1449.77 51.267 1449.77 54.0285L1449.77 130L1458.97 130L1458.97 31.0142C1458.97 28.2528 1461.21 26.0142 1463.97 26.0142C1466.73 26.0142 1468.97 28.2528 1468.97 31.0142L1468.97 130L1474.33 130L1474.33 27.1785C1474.33 24.4171 1476.57 22.1785 1479.33 22.1785C1482.09 22.1785 1484.33 24.4171 1484.33 27.1785L1484.33 130L1489.69 130L1489.69 54.0285C1489.69 51.267 1491.93 49.0285 1494.69 49.0285C1497.45 49.0285 1499.69 51.267 1499.69 54.0285L1499.69 130L1508.89 130L1508.89 80.8822C1508.89 78.1207 1511.13 75.8822 1513.89 75.8822C1516.66 75.8822 1518.89 78.1207 1518.89 80.8822L1518.89 130L1524.26 130L1524.26 80.8822C1524.26 78.1207 1526.49 75.8822 1529.26 75.8822C1532.02 75.8822 1534.26 78.1208 1534.26 80.8822L1534.26 130L1539.62 130L1539.62 73.2108C1539.62 70.4493 1541.86 68.2108 1544.62 68.2108C1547.38 68.2108 1549.62 70.4494 1549.62 73.2108L1549.62 130L1558.82 130L1558.82 84.7179C1558.82 81.9565 1561.06 79.7179 1563.82 79.7179C1566.58 79.7179 1568.82 81.9565 1568.82 84.7179L1568.82 130L1574.18 130L1574.18 69.3712C1574.18 66.6097 1576.42 64.3712 1579.18 64.3712C1581.94 64.3712 1584.18 66.6097 1584.18 69.3712L1584.18 130L1589.54 130L1589.54 65.5354C1589.54 62.774 1591.78 60.5354 1594.54 60.5354C1597.3 60.5354 1599.54 62.774 1599.54 65.5354L1599.54 130L1608.74 130L1608.74 46.357C1608.74 43.5956 1610.98 41.357 1613.74 41.357C1616.51 41.357 1618.74 43.5956 1618.74 46.357L1618.74 130L1624.11 130L1624.11 15.6715C1624.11 12.9101 1626.35 10.6715 1629.11 10.6715C1631.87 10.6715 1634.11 12.9101 1634.11 15.6715L1634.11 130L1639.47 130L1639.47 77.0465C1639.47 74.2851 1641.71 72.0465 1644.47 72.0465C1647.23 72.0465 1649.47 74.2851 1649.47 77.0465L1649.47 130L1658.67 130L1658.67 57.864C1658.67 55.1026 1660.91 52.864 1663.67 52.864C1666.43 52.864 1668.67 55.1026 1668.67 57.864L1668.67 130L1674.03 130L1674.03 34.8499C1674.03 32.0885 1676.27 29.8499 1679.03 29.8499C1681.79 29.8499 1684.03 32.0885 1684.03 34.8499L1684.03 130L1689.39 130L1689.39 15.6715C1689.39 12.9101 1691.63 10.6715 1694.39 10.6715C1697.16 10.6715 1699.39 12.9101 1699.39 15.6715L1699.39 130L1708.6 130L1708.6 50.1927C1708.6 47.4313 1710.83 45.1927 1713.6 45.1927C1716.36 45.1927 1718.6 47.4313 1718.6 50.1927L1718.6 130L1723.96 130L1723.96 57.864C1723.96 55.1026 1726.2 52.864 1728.96 52.864C1731.72 52.864 1733.96 55.1026 1733.96 57.864L1733.96 130L1739.32 130L1739.32 80.8822C1739.32 78.1208 1741.56 75.8822 1744.32 75.8822C1747.08 75.8822 1749.32 78.1208 1749.32 80.8822L1749.32 130L1758.52 130L1758.52 96.225C1758.52 93.4636 1760.76 91.225 1763.52 91.225C1766.28 91.225 1768.52 93.4636 1768.52 96.225L1768.52 130L1773.88 130L1773.88 92.3893C1773.88 89.6279 1776.12 87.3893 1778.88 87.3893C1781.64 87.3893 1783.88 89.6279 1783.88 92.3893L1783.88 130L1793.09 130L1793.09 57.864C1793.09 55.1026 1795.32 52.864 1798.09 52.864C1800.85 52.864 1803.09 55.1026 1803.09 57.864L1803.09 130L1808.45 130L1808.45 34.8499C1808.45 32.0885 1810.69 29.8499 1813.45 29.8499C1816.21 29.8499 1818.45 32.0885 1818.45 34.8499L1818.45 130L1823.81 130L1823.81 7.99991C1823.81 5.2385 1826.05 2.99991 1828.81 2.99991C1831.57 2.99991 1833.81 5.2385 1833.81 7.99991L1833.81 130L1843.01 130L1843.01 7.99991C1843.01 5.2385 1845.25 2.99991 1848.01 2.99991C1850.77 2.99991 1853.01 5.2385 1853.01 7.99991L1853.01 130L1858.37 130L1858.37 46.357C1858.37 43.5956 1860.61 41.357 1863.37 41.357C1866.13 41.357 1868.37 43.5956 1868.37 46.357L1868.37 130L1873.73 130L1873.73 73.2108C1873.73 70.4493 1875.97 68.2108 1878.73 68.2108C1881.5 68.2108 1883.73 70.4493 1883.73 73.2108L1883.73 130L1892.94 130L1892.94 88.5536C1892.94 85.7922 1895.17 83.5536 1897.94 83.5536C1900.7 83.5536 1902.94 85.7922 1902.94 88.5536L1902.94 130L1908.3 130L1908.3 65.5354C1908.3 62.774 1910.54 60.5354 1913.3 60.5354C1916.06 60.5354 1918.3 62.774 1918.3 65.5354L1918.3 130L1923.66 130L1923.66 15.6716C1923.66 12.9101 1925.9 10.6716 1928.66 10.6716C1931.42 10.6716 1933.66 12.9101 1933.66 15.6716L1933.66 130L1942.86 130L1942.86 34.8499C1942.86 32.0885 1945.1 29.8499 1947.86 29.8499C1950.62 29.8499 1952.86 32.0885 1952.86 34.8499L1952.86 130L1958.22 130L1958.22 11.8357C1958.22 9.07432 1960.46 6.83574 1963.22 6.83574C1965.98 6.83574 1968.22 9.07433 1968.22 11.8357L1968.22 130L1973.59 130L1973.59 31.0142C1973.59 28.2528 1975.82 26.0142 1978.59 26.0142C1981.35 26.0142 1983.59 28.2528 1983.59 31.0142L1983.59 130L1992.79 130L1992.79 61.6997C1992.79 58.9383 1995.03 56.6997 1997.79 56.6997C2000.55 56.6997 2002.79 58.9383 2002.79 61.6997L2002.79 130L2008.15 130L2008.15 54.0285C2008.15 51.267 2010.39 49.0285 2013.15 49.0285C2015.91 49.0285 2018.15 51.267 2018.15 54.0285L2018.15 130L2023.51 130L2023.51 80.8822C2023.51 78.1207 2025.75 75.8822 2028.51 75.8822C2031.27 75.8822 2033.51 78.1207 2033.51 80.8822L2033.51 130L2042.71 130L2042.71 80.8822C2042.71 78.1207 2044.95 75.8822 2047.71 75.8822C2050.47 75.8822 2052.71 78.1208 2052.71 80.8822L2052.71 130L2058.07 130L2058.07 73.2108C2058.07 70.4493 2060.31 68.2108 2063.07 68.2108C2065.84 68.2108 2068.07 70.4493 2068.07 73.2108L2068.07 130L2073.44 130L2073.44 84.7179C2073.44 81.9564 2075.67 79.7179 2078.44 79.7179C2081.2 79.7179 2083.44 81.9564 2083.44 84.7179L2083.44 130L2092.64 130L2092.64 69.3712C2092.64 66.6097 2094.88 64.3712 2097.64 64.3712C2100.4 64.3712 2102.64 66.6097 2102.64 69.3712L2102.64 130L2108 130L2108 65.5354C2108 62.774 2110.24 60.5354 2113 60.5354C2115.76 60.5354 2118 62.774 2118 65.5354L2118 130L2123.36 130L2123.36 46.357C2123.36 43.5956 2125.6 41.357 2128.36 41.357C2131.12 41.357 2133.36 43.5956 2133.36 46.357L2133.36 130L2142.56 130L2142.56 15.6716C2142.56 12.9102 2144.8 10.6716 2147.56 10.6716C2150.33 10.6716 2152.56 12.9102 2152.56 15.6716L2152.56 130L2157.93 130L2157.93 77.0465C2157.93 74.2851 2160.16 72.0465 2162.93 72.0465C2165.69 72.0465 2167.93 74.2851 2167.93 77.0465L2167.93 130L2173.29 130L2173.29 57.864C2173.29 55.1026 2175.53 52.864 2178.29 52.864C2181.05 52.864 2183.29 55.1026 2183.29 57.864L2183.29 130L2192.49 130L2192.49 34.8499C2192.49 32.0885 2194.73 29.8499 2197.49 29.8499C2200.25 29.8499 2202.49 32.0885 2202.49 34.8499L2202.49 130L2207.85 130L2207.85 15.6716C2207.85 12.9102 2210.09 10.6716 2212.85 10.6716C2215.61 10.6716 2217.85 12.9102 2217.85 15.6716L2217.85 130L2223.21 130L2223.21 50.1928C2223.21 47.4313 2225.45 45.1928 2228.21 45.1928C2230.97 45.1928 2233.21 47.4313 2233.21 50.1928L2233.21 130L2242.42 130L2242.42 57.8641C2242.42 55.1026 2244.65 52.8641 2247.42 52.8641C2250.18 52.8641 2252.42 55.1026 2252.42 57.8641L2252.42 130L2257.78 130L2257.78 80.8822C2257.78 78.1208 2260.02 75.8822 2262.78 75.8822C2265.54 75.8822 2267.78 78.1208 2267.78 80.8822L2267.78 130L2273.14 130L2273.14 96.225C2273.14 93.4636 2275.38 91.225 2278.14 91.225C2280.9 91.225 2283.14 93.4636 2283.14 96.225L2283.14 130L2292.34 130L2292.34 92.3893C2292.34 89.6279 2294.58 87.3893 2297.34 87.3893C2300.1 87.3893 2302.34 89.6279 2302.34 92.3893L2302.34 130L2307.7 130L2307.7 57.864C2307.7 55.1026 2309.94 52.864 2312.7 52.864C2315.46 52.864 2317.7 55.1026 2317.7 57.864L2317.7 130L2323.06 130L2323.06 34.8499C2323.06 32.0885 2325.3 29.8499 2328.06 29.8499C2330.83 29.8499 2333.06 32.0885 2333.06 34.8499L2333.06 130L2342.27 130L2342.27 7.99996C2342.27 5.23854 2344.5 2.99996 2347.27 2.99996C2350.03 2.99996 2352.27 5.23854 2352.27 7.99996L2352.27 130L2357.63 130L2357.63 7.99996C2357.63 5.23854 2359.87 2.99996 2362.63 2.99996C2365.39 2.99996 2367.63 5.23855 2367.63 7.99996L2367.63 130L2372.99 130L2372.99 46.357C2372.99 43.5956 2375.23 41.357 2377.99 41.357C2380.75 41.357 2382.99 43.5956 2382.99 46.357L2382.99 130L2392.19 130L2392.19 73.2108C2392.19 70.4493 2394.43 68.2108 2397.19 68.2108C2399.95 68.2108 2402.19 70.4493 2402.19 73.2108L2402.19 130L2407.55 130L2407.55 88.5536C2407.55 85.7922 2409.79 83.5536 2412.55 83.5536C2415.31 83.5536 2417.55 85.7922 2417.55 88.5536L2417.55 130L2422.91 130L2422.91 65.5355C2422.91 62.774 2425.15 60.5355 2427.91 60.5355C2430.68 60.5355 2432.91 62.774 2432.91 65.5355L2432.91 130L2442.12 130L2442.12 15.6716C2442.12 12.9102 2444.36 10.6716 2447.12 10.6716C2449.88 10.6716 2452.12 12.9102 2452.12 15.6716L2452.12 130L2457.48 130L2457.48 34.8499C2457.48 32.0885 2459.72 29.8499 2462.48 29.8499C2465.24 29.8499 2467.48 32.0885 2467.48 34.8499L2467.48 130L2476.68 130L2476.68 11.8358C2476.68 9.07437 2478.92 6.83578 2481.68 6.83578C2484.44 6.83578 2486.68 9.07437 2486.68 11.8358L2486.68 130L2492.04 130L2492.04 31.0142C2492.04 28.2528 2494.28 26.0142 2497.04 26.0142C2499.8 26.0142 2502.04 28.2528 2502.04 31.0142L2502.04 130L2507.4 130L2507.4 61.6997C2507.4 58.9383 2509.64 56.6997 2512.4 56.6997C2515.17 56.6997 2517.4 58.9383 2517.4 61.6997L2517.4 130L2526.61 130L2526.61 54.0285C2526.61 51.267 2528.85 49.0285 2531.61 49.0285C2534.37 49.0285 2536.61 51.267 2536.61 54.0285L2536.61 130L2541.97 130L2541.97 80.8822C2541.97 78.1207 2544.21 75.8822 2546.97 75.8822C2549.73 75.8822 2551.97 78.1207 2551.97 80.8822L2551.97 130L2557.33 130L2557.33 80.8822C2557.33 78.1207 2559.57 75.8822 2562.33 75.8822C2565.09 75.8822 2567.33 78.1207 2567.33 80.8822L2567.33 130L2576.53 130L2576.53 73.2108C2576.53 70.4493 2578.77 68.2108 2581.53 68.2108C2584.29 68.2108 2586.53 70.4493 2586.53 73.2108L2586.53 130L2591.89 130L2591.89 84.7179C2591.89 81.9565 2594.13 79.7179 2596.89 79.7179C2599.66 79.7179 2601.89 81.9565 2601.89 84.7179L2601.89 130L2607.26 130L2607.26 69.3712C2607.26 66.6097 2609.49 64.3712 2612.26 64.3712C2615.02 64.3712 2617.26 66.6097 2617.26 69.3712L2617.26 130L2626.46 130L2626.46 65.5354C2626.46 62.774 2628.7 60.5354 2631.46 60.5354C2634.22 60.5354 2636.46 62.774 2636.46 65.5354L2636.46 130L2641.82 130L2641.82 46.357C2641.82 43.5956 2644.06 41.357 2646.82 41.357C2649.58 41.357 2651.82 43.5956 2651.82 46.357L2651.82 130L2657.18 130L2657.18 15.6716C2657.18 12.9102 2659.42 10.6716 2662.18 10.6716C2664.94 10.6716 2667.18 12.9102 2667.18 15.6716L2667.18 130L2676.38 130L2676.38 77.0465C2676.38 74.2851 2678.62 72.0465 2681.38 72.0465C2684.14 72.0465 2686.38 74.2851 2686.38 77.0465L2686.38 130L2691.74 130L2691.74 57.864C2691.74 55.1026 2693.98 52.864 2696.74 52.864C2699.51 52.864 2701.74 55.1026 2701.74 57.864L2701.74 130L2707.11 130L2707.11 34.8499C2707.11 32.0885 2709.35 29.8499 2712.11 29.8499C2714.87 29.8499 2717.11 32.0885 2717.11 34.8499L2717.11 130L2726.31 130L2726.31 15.6716C2726.31 12.9102 2728.55 10.6716 2731.31 10.6716C2734.07 10.6716 2736.31 12.9102 2736.31 15.6716L2736.31 130L2741.67 130L2741.67 50.1927C2741.67 47.4313 2743.91 45.1927 2746.67 45.1927C2749.43 45.1927 2751.67 47.4313 2751.67 50.1927L2751.67 130L2757.03 130L2757.03 57.864C2757.03 55.1026 2759.27 52.864 2762.03 52.864C2764.79 52.864 2767.03 55.1026 2767.03 57.864L2767.03 130L2776.23 130L2776.23 80.8822C2776.23 78.1208 2778.47 75.8822 2781.23 75.8822C2784 75.8822 2786.23 78.1208 2786.23 80.8822L2786.23 130L2791.6 130L2791.6 96.225C2791.6 93.4636 2793.83 91.225 2796.6 91.225C2799.36 91.225 2801.6 93.4636 2801.6 96.225L2801.6 130L2835 130L2840 130L2840 140L2835 140L2801.6 140L2801.6 172.941C2801.6 175.703 2799.36 177.941 2796.6 177.941C2793.83 177.941 2791.6 175.703 2791.6 172.941L2791.6 140L2786.23 140L2786.23 188.285C2786.23 191.047 2784 193.285 2781.23 193.285C2778.47 193.285 2776.23 191.047 2776.23 188.285L2776.23 140L2767.03 140L2767.03 211.297C2767.03 214.058 2764.79 216.297 2762.03 216.297C2759.27 216.297 2757.03 214.058 2757.03 211.297L2757.03 140L2751.67 140L2751.67 222.805C2751.67 225.566 2749.43 227.805 2746.67 227.805C2743.91 227.805 2741.67 225.566 2741.67 222.805L2741.67 140L2736.31 140L2736.31 257.328C2736.31 260.09 2734.07 262.328 2731.31 262.328C2728.55 262.328 2726.31 260.09 2726.31 257.328L2726.31 140L2717.11 140L2717.11 238.148C2717.11 240.91 2714.87 243.148 2712.11 243.148C2709.35 243.148 2707.11 240.91 2707.11 238.148L2707.11 140L2701.74 140L2701.74 211.297C2701.74 214.058 2699.51 216.297 2696.74 216.297C2693.98 216.297 2691.74 214.058 2691.74 211.297L2691.74 140L2686.38 140L2686.38 192.121C2686.38 194.883 2684.14 197.121 2681.38 197.121C2678.62 197.121 2676.38 194.883 2676.38 192.121L2676.38 140L2667.18 140L2667.18 257.328C2667.18 260.09 2664.94 262.328 2662.18 262.328C2659.42 262.328 2657.18 260.09 2657.18 257.328L2657.18 140L2651.82 140L2651.82 226.641C2651.82 229.402 2649.58 231.641 2646.82 231.641C2644.06 231.641 2641.82 229.402 2641.82 226.641L2641.82 140L2636.46 140L2636.46 203.625C2636.46 206.386 2634.22 208.625 2631.46 208.625C2628.7 208.625 2626.46 206.386 2626.46 203.625L2626.46 140L2617.26 140L2617.26 199.789C2617.26 202.55 2615.02 204.789 2612.26 204.789C2609.49 204.789 2607.26 202.55 2607.26 199.789L2607.26 140L2601.89 140L2601.89 184.449C2601.89 187.211 2599.66 189.449 2596.89 189.449C2594.13 189.449 2591.89 187.211 2591.89 184.449L2591.89 140L2586.53 140L2586.53 195.957C2586.53 198.718 2584.29 200.957 2581.53 200.957C2578.77 200.957 2576.53 198.718 2576.53 195.957L2576.53 140L2567.33 140L2567.33 188.285C2567.33 191.047 2565.09 193.285 2562.33 193.285C2559.57 193.285 2557.33 191.047 2557.33 188.285L2557.33 140L2551.97 140L2551.97 188.285C2551.97 191.047 2549.73 193.285 2546.97 193.285C2544.21 193.285 2541.97 191.047 2541.97 188.285L2541.97 140L2536.61 140L2536.61 218.969C2536.61 221.73 2534.37 223.969 2531.61 223.969C2528.85 223.969 2526.61 221.73 2526.61 218.969L2526.61 140L2517.4 140L2517.4 207.461C2517.4 210.222 2515.17 212.461 2512.4 212.461C2509.64 212.461 2507.4 210.222 2507.4 207.461L2507.4 140L2502.04 140L2502.04 241.984C2502.04 244.746 2499.8 246.984 2497.04 246.984C2494.28 246.984 2492.04 244.746 2492.04 241.984L2492.04 140L2486.68 140L2486.68 261.164C2486.68 263.926 2484.44 266.164 2481.68 266.164C2478.92 266.164 2476.68 263.926 2476.68 261.164L2476.68 140L2467.48 140L2467.48 238.148C2467.48 240.91 2465.24 243.148 2462.48 243.148C2459.72 243.148 2457.48 240.91 2457.48 238.148L2457.48 140L2452.12 140L2452.12 257.328C2452.12 260.09 2449.88 262.328 2447.12 262.328C2444.36 262.328 2442.12 260.09 2442.12 257.328L2442.12 140L2432.91 140L2432.91 203.625C2432.91 206.386 2430.68 208.625 2427.91 208.625C2425.15 208.625 2422.91 206.386 2422.91 203.625L2422.91 140L2417.55 140L2417.55 180.613C2417.55 183.375 2415.31 185.613 2412.55 185.613C2409.79 185.613 2407.55 183.375 2407.55 180.613L2407.55 140L2402.19 140L2402.19 195.957C2402.19 198.718 2399.95 200.957 2397.19 200.957C2394.43 200.957 2392.19 198.718 2392.19 195.957L2392.19 140L2382.99 140L2382.99 226.641C2382.99 229.402 2380.75 231.641 2377.99 231.641C2375.23 231.641 2372.99 229.402 2372.99 226.641L2372.99 140L2367.63 140L2367.63 265C2367.63 267.761 2365.39 270 2362.63 270Z" fill="url(#paint1_linear_1082_32025)"/>
</g>
<defs>
<linearGradient id="paint0_linear_1082_32025" x1="4.97195" y1="135.918" x2="1440.87" y2="135.918" gradientUnits="userSpaceOnUse">
<stop stop-color="#FF6767"/>
<stop offset="0.175" stop-color="#E0E323"/>
<stop offset="0.36" stop-color="#2CD948"/>
<stop offset="0.52" stop-color="#21CCE3"/>
<stop offset="0.685" stop-color="#4B51D4"/>
<stop offset="0.825" stop-color="#C14BD4"/>
<stop offset="1" stop-color="#D44B54"/>
</linearGradient>
<linearGradient id="paint1_linear_1082_32025" x1="2835" y1="134.082" x2="1391" y2="134.082" gradientUnits="userSpaceOnUse">
<stop stop-color="#FF6767"/>
<stop offset="0.175" stop-color="#E0E323"/>
<stop offset="0.36" stop-color="#2CD948"/>
<stop offset="0.52" stop-color="#21CCE3"/>
<stop offset="0.685" stop-color="#4B51D4"/>
<stop offset="0.825" stop-color="#C14BD4"/>
<stop offset="1" stop-color="#D44B54"/>
</linearGradient>
<clipPath id="clip0_1082_32025">
<rect width="2840" height="130" fill="white"/>
</clipPath>
</defs>
</svg>
