<svg width="24" height="24" viewBox="0 0 24 24" fill="none" xmlns="http://www.w3.org/2000/svg">
<path d="M5.19971 4.80004V19.2004C5.19971 19.6778 5.38935 20.1356 5.72693 20.4732C6.0645 20.8107 6.52235 21.0004 6.99975 21.0004H17.8C18.2774 21.0004 18.7352 20.8107 19.0728 20.4732C19.4104 20.1356 19.6 19.6778 19.6 19.2004V8.70793C19.6 8.46812 19.5521 8.23075 19.459 8.00973C19.366 7.78872 19.2297 7.58852 19.0582 7.4209L15.0621 3.51301C14.7258 3.1842 14.2742 3.00006 13.8039 3H6.99975C6.52235 3 6.0645 3.18965 5.72693 3.52722C5.38935 3.86479 5.19971 4.32264 5.19971 4.80004Z" stroke="#222222" stroke-linecap="round" stroke-linejoin="round"/>
<path d="M9.69922 12.8998H15.0993" stroke="#222222" stroke-linecap="round" stroke-linejoin="round"/>
<path d="M9.69922 16.5002H12.3993" stroke="#222222" stroke-linecap="round" stroke-linejoin="round"/>
<path d="M14.2002 3V6.60008C14.2002 7.07748 14.3898 7.53533 14.7274 7.8729C15.065 8.21047 15.5228 8.40012 16.0002 8.40012H19.6003" stroke="#222222" stroke-linecap="round" stroke-linejoin="round"/>
</svg>
