<svg width="24" height="24" viewBox="0 0 24 24" fill="none" xmlns="http://www.w3.org/2000/svg">
<g id="Frame">
<path id="Vector" d="M12.7214 5.00302L11.2554 5.00002C7.91135 4.99202 5.00835 7.70902 4.98535 11V14.79C4.98535 15.58 4.88535 16.351 4.45435 17.008L4.16735 17.446C3.73035 18.11 4.20035 19 4.98535 19H19.0154C19.8004 19 20.2694 18.11 19.8334 17.446L19.5464 17.008C19.1164 16.351 19.0154 15.579 19.0154 14.789V11.001C18.9754 7.70902 16.0654 5.01102 12.7214 5.00302Z" fill="#DFA935"/>
<path id="Vector_2" d="M15 19C15 19.7956 14.6839 20.5587 14.1213 21.1213C13.5587 21.6839 12.7956 22 12 22C11.2044 22 10.4413 21.6839 9.87868 21.1213C9.31607 20.5587 9 19.7956 9 19" fill="#DFA935"/>
<path id="Vector_3" d="M12 2C12.5304 2 13.0391 2.21071 13.4142 2.58579C13.7893 2.96086 14 3.46957 14 4V5H10V4C10 3.46957 10.2107 2.96086 10.5858 2.58579C10.9609 2.21071 11.4696 2 12 2Z" fill="#DFA935"/>
</g>
</svg>
