<svg width="25" height="25" viewBox="0 0 25 25" fill="none" xmlns="http://www.w3.org/2000/svg">
<g id="vscode-icons:file-type-outlook">
<path id="Vector" d="M14.6484 6.35156V10.4593L16.0854 11.3631C16.1373 11.3745 16.1911 11.3745 16.2429 11.3631L22.4214 7.19756C22.4169 6.9954 22.343 6.80095 22.212 6.64689C22.081 6.49283 21.901 6.38854 21.7022 6.35156H14.6484Z" fill="#0072C6"/>
<path id="Vector_2" d="M14.6478 11.9929L15.9581 12.8929C16.0194 12.9302 16.0899 12.95 16.1617 12.95C16.2335 12.95 16.304 12.9302 16.3653 12.8929C16.1403 13.0286 22.4201 8.85938 22.4201 8.85938V16.4089C22.4365 16.5619 22.4192 16.7166 22.3695 16.8622C22.3199 17.0078 22.239 17.1408 22.1325 17.2519C22.0261 17.363 21.8967 17.4495 21.7533 17.5053C21.6099 17.5611 21.4561 17.585 21.3026 17.5751H14.6471L14.6478 11.9929ZM7.86483 10.0991C7.64712 10.0981 7.43319 10.1559 7.2457 10.2666C7.05821 10.3772 6.90415 10.5365 6.79983 10.7276C6.51491 11.2342 6.37821 11.8106 6.40533 12.3911C6.37572 12.9704 6.51261 13.5461 6.79983 14.0501C6.90371 14.2333 7.05398 14.386 7.23555 14.4927C7.41711 14.5995 7.62358 14.6566 7.83419 14.6582C8.0448 14.6599 8.25215 14.6061 8.43538 14.5023C8.61862 14.3984 8.7713 14.2482 8.87808 14.0666C9.16216 13.565 9.29622 12.9923 9.26433 12.4166C9.29686 11.8229 9.16723 11.2315 8.88933 10.7059C8.79002 10.521 8.6421 10.3668 8.46155 10.2599C8.28099 10.1529 8.07466 10.0974 7.86483 10.0991Z" fill="#0072C6"/>
<path id="Vector_3" d="M1.64941 4.26469V20.3349L13.8744 22.8984V1.89844L1.64941 4.26469ZM9.83041 15.0167C9.60173 15.3391 9.29765 15.6006 8.94469 15.7786C8.59173 15.9565 8.2006 16.0454 7.80541 16.0374C7.42017 16.0443 7.03898 15.958 6.69425 15.7859C6.34952 15.6138 6.05146 15.361 5.82541 15.0489C5.2893 14.3004 5.02112 13.3931 5.06416 12.4734C5.01856 11.5087 5.29159 10.5557 5.84116 9.76144C6.07274 9.43289 6.38159 9.16635 6.74049 8.98533C7.09938 8.80432 7.4973 8.71438 7.89916 8.72344C8.28161 8.71576 8.6601 8.80209 9.0014 8.97483C9.3427 9.14757 9.63638 9.40145 9.85666 9.71419C10.3874 10.4789 10.651 11.3974 10.6067 12.3272C10.6534 13.285 10.3803 14.2311 9.83041 15.0167Z" fill="#0072C6"/>
</g>
</svg>
