<svg width="41" height="59" viewBox="0 0 41 59" fill="none" xmlns="http://www.w3.org/2000/svg">
<path d="M13.8868 5.77416C13.3826 4.52573 12.2084 1.77764 11.7134 0.551758H29.2862C28.7934 1.76987 27.6222 4.53431 27.1128 5.77416H13.8868ZM40.277 24.1916V34.5952C40.2752 35.4143 39.949 36.1992 39.3699 36.7784C38.7908 37.3575 38.0058 37.6836 37.1868 37.6854H3.81284C2.99381 37.6836 2.20884 37.3575 1.62971 36.7784C1.05057 36.1992 0.724428 35.4143 0.722656 34.5952V24.1916C0.724425 23.3726 1.05056 22.5876 1.6297 22.0085C2.20884 21.4294 2.99381 21.1032 3.81284 21.1015H37.1868C38.0059 21.103 38.791 21.4291 39.3701 22.0083C39.9493 22.5874 40.2754 23.3725 40.277 24.1916ZM10.8893 29.5891L12.8773 28.0956C13.09 27.9296 13.2292 27.6868 13.2648 27.4193C13.3004 27.1518 13.2297 26.881 13.0678 26.6652C12.9059 26.4493 12.6658 26.3055 12.399 26.2648C12.1323 26.2241 11.8602 26.2897 11.6413 26.4475L10.1992 27.529V26.4887C10.1952 26.2181 10.0849 25.96 9.89217 25.7701C9.69943 25.5802 9.43972 25.4738 9.16915 25.4738C8.89857 25.4738 8.63886 25.5802 8.44613 25.7701C8.25339 25.96 8.1431 26.2181 8.13909 26.4887V27.529L6.697 26.4475C6.47807 26.29 6.20613 26.2247 5.93956 26.2655C5.67299 26.3063 5.43304 26.45 5.27124 26.6657C5.10943 26.8815 5.03867 27.152 5.07413 27.4194C5.1096 27.6867 5.24847 27.9295 5.46093 28.0956L7.44895 29.5891L5.46093 31.0827C5.35272 31.1639 5.26155 31.2656 5.19263 31.382C5.12371 31.4984 5.07839 31.6272 5.05926 31.7611C5.04013 31.895 5.04756 32.0314 5.08113 32.1624C5.11471 32.2935 5.17376 32.4166 5.25492 32.5248C5.33608 32.633 5.43776 32.7242 5.55416 32.7931C5.67055 32.862 5.79938 32.9074 5.93329 32.9265C6.0672 32.9456 6.20357 32.9382 6.33461 32.9046C6.46564 32.871 6.58879 32.812 6.697 32.7308L8.13909 31.6493V32.669C8.13909 32.9422 8.24761 33.2042 8.44078 33.3974C8.63396 33.5906 8.89596 33.6991 9.16915 33.6991C9.44234 33.6991 9.70434 33.5906 9.89751 33.3974C10.0907 33.2042 10.1992 32.9422 10.1992 32.669V31.6493C10.5934 31.884 11.7604 33.0107 12.2593 32.9368C12.474 32.9314 12.6819 32.8598 12.8544 32.7318C13.027 32.6038 13.1559 32.4257 13.2235 32.2218C13.2911 32.0179 13.2941 31.7981 13.2321 31.5924C13.1702 31.3867 13.0463 31.2051 12.8773 31.0724L10.8893 29.5891ZM22.22 29.5891L24.2079 28.0956C24.4207 27.9296 24.5598 27.6868 24.5955 27.4193C24.6311 27.1518 24.5604 26.881 24.3985 26.6652C24.2366 26.4493 23.9964 26.3055 23.7297 26.2648C23.4629 26.2241 23.1909 26.2897 22.972 26.4475L21.5299 27.529V26.4887C21.5259 26.2181 21.4156 25.96 21.2228 25.7701C21.0301 25.5802 20.7704 25.4738 20.4998 25.4738C20.2292 25.4738 19.9695 25.5802 19.7768 25.7701C19.584 25.96 19.4738 26.2181 19.4697 26.4887V27.529L18.0277 26.4475C17.8087 26.29 17.5368 26.2247 17.2702 26.2655C17.0036 26.3063 16.7637 26.45 16.6019 26.6657C16.4401 26.8815 16.3693 27.152 16.4048 27.4194C16.4403 27.6867 16.5791 27.9295 16.7916 28.0956L18.7796 29.5891L16.7916 31.0827C16.6834 31.1639 16.5922 31.2656 16.5233 31.382C16.4544 31.4984 16.409 31.6272 16.3899 31.7611C16.3708 31.895 16.3782 32.0314 16.4118 32.1624C16.4454 32.2935 16.5044 32.4166 16.5856 32.5248C16.6667 32.633 16.7684 32.7242 16.8848 32.7931C17.0012 32.862 17.13 32.9074 17.264 32.9265C17.3979 32.9456 17.5342 32.9382 17.6653 32.9046C17.7963 32.871 17.9194 32.812 18.0277 32.7308L19.4697 31.6493V32.669C19.4697 32.9422 19.5783 33.2042 19.7714 33.3974C19.9646 33.5906 20.2266 33.6991 20.4998 33.6991C20.773 33.6991 21.035 33.5906 21.2282 33.3974C21.4213 33.2042 21.5299 32.9422 21.5299 32.669V31.6493C21.9241 31.884 23.0911 33.0107 23.5899 32.9368C23.8047 32.9314 24.0125 32.8598 24.1851 32.7318C24.3576 32.6038 24.4865 32.4257 24.5541 32.2218C24.6217 32.0179 24.6247 31.7981 24.5628 31.5924C24.5008 31.3867 24.3769 31.2051 24.208 31.0724L22.22 29.5891ZM33.5507 29.5891L35.5386 28.0956C35.7514 27.9296 35.8905 27.6868 35.9261 27.4193C35.9618 27.1518 35.891 26.881 35.7291 26.6652C35.5672 26.4493 35.3271 26.3055 35.0603 26.2648C34.7936 26.2241 34.5215 26.2897 34.3026 26.4475L32.8605 27.529V26.4887C32.8565 26.2181 32.7462 25.96 32.5535 25.7701C32.3607 25.5802 32.101 25.4738 31.8305 25.4738C31.5599 25.4738 31.3002 25.5802 31.1074 25.7701C30.9147 25.96 30.8044 26.2181 30.8004 26.4887V27.529L29.3583 26.4475C29.1394 26.29 28.8674 26.2247 28.6009 26.2655C28.3343 26.3063 28.0944 26.45 27.9326 26.6657C27.7707 26.8815 27.7 27.152 27.7355 27.4194C27.7709 27.6867 27.9098 27.9295 28.1222 28.0956L30.1103 29.5891L28.1222 31.0827C27.9037 31.2466 27.7592 31.4907 27.7206 31.7611C27.6819 32.0316 27.7523 32.3063 27.9162 32.5248C28.0802 32.7434 28.3242 32.8879 28.5946 32.9265C28.8651 32.9651 29.1398 32.8947 29.3583 32.7308L30.8004 31.6493V32.669C30.8004 32.9422 30.9089 33.2042 31.1021 33.3974C31.2953 33.5906 31.5573 33.6991 31.8305 33.6991C32.1037 33.6991 32.3657 33.5906 32.5588 33.3974C32.752 33.2042 32.8605 32.9422 32.8605 32.669V31.6493C33.2547 31.884 34.4217 33.0107 34.9206 32.9368C35.1353 32.9314 35.3432 32.8598 35.5157 32.7318C35.6883 32.6038 35.8172 32.4257 35.8848 32.2218C35.9524 32.0179 35.9554 31.7981 35.8935 31.5924C35.8315 31.3867 35.7076 31.2051 35.5386 31.0724L33.5507 29.5891ZM3.81284 39.7455C3.53649 39.7476 3.26058 39.7234 2.98879 39.6734V54.1149C2.98864 54.656 3.09511 55.1918 3.30212 55.6918C3.50913 56.1917 3.81262 56.646 4.19525 57.0286C4.57788 57.4113 5.03215 57.7148 5.53211 57.9218C6.03206 58.1288 6.56791 58.2353 7.10903 58.2351H33.8906C34.4317 58.2353 34.9675 58.1288 35.4675 57.9218C35.9675 57.7148 36.4217 57.4113 36.8044 57.0286C37.187 56.646 37.4905 56.1917 37.6975 55.6918C37.9045 55.1918 38.011 54.656 38.0108 54.1149V39.6734C37.739 39.7234 37.4631 39.7476 37.1868 39.7455H3.81284ZM37.1868 19.0413C37.4631 19.0393 37.739 19.0635 38.0108 19.1134V4.672C38.011 4.13088 37.9045 3.59503 37.6975 3.09507C37.4905 2.59511 37.187 2.14084 36.8044 1.75821C36.4217 1.37558 35.9675 1.07209 35.4675 0.865081C34.9676 0.658074 34.4317 0.551605 33.8906 0.551758H31.4493L30.5635 2.61188L28.5137 7.38105C28.4176 7.51932 28.2899 7.6326 28.1412 7.71145C27.9925 7.79029 27.827 7.83241 27.6587 7.83428H13.3409C13.1726 7.83241 13.0071 7.79029 12.8584 7.71145C12.7097 7.6326 12.582 7.51932 12.4859 7.38105L10.4361 2.61188L9.55027 0.551758H7.10903C6.56791 0.551605 6.03206 0.658074 5.5321 0.865081C5.03214 1.07209 4.57787 1.37558 4.19524 1.75821C3.81261 2.14084 3.50912 2.59511 3.30211 3.09507C3.0951 3.59503 2.98863 4.13088 2.98879 4.672V19.1134C3.26058 19.0635 3.53649 19.0393 3.81284 19.0413H37.1868Z" fill="url(#paint0_linear_3420_10632)"/>
<defs>
<linearGradient id="paint0_linear_3420_10632" x1="0.722656" y1="29.3934" x2="40.277" y2="29.3934" gradientUnits="userSpaceOnUse">
<stop stop-color="#FFDE00"/>
<stop offset="1" stop-color="#FD5900"/>
</linearGradient>
</defs>
</svg>
