<svg width="80" height="80" viewBox="0 0 80 80" fill="none" xmlns="http://www.w3.org/2000/svg">
<rect width="79.7871" height="79.7871" rx="39.8936" fill="#FEEC9A" fill-opacity="0.28"/>
<path d="M33.2814 16.2742C32.7771 15.0257 31.6029 12.2776 31.1079 11.0518H48.6807C48.1879 12.2699 47.0168 15.0343 46.5073 16.2742H33.2814ZM59.6715 34.6916V45.0952C59.6697 45.9143 59.3436 46.6992 58.7644 47.2784C58.1853 47.8575 57.4003 48.1836 56.5813 48.1854H23.2074C22.3883 48.1836 21.6034 47.8575 21.0242 47.2784C20.4451 46.6992 20.119 45.9143 20.1172 45.0952V34.6916C20.119 33.8726 20.4451 33.0876 21.0242 32.5085C21.6034 31.9294 22.3883 31.6032 23.2074 31.6015H56.5813C57.4004 31.603 58.1855 31.9291 58.7647 32.5083C59.3439 33.0874 59.6699 33.8725 59.6715 34.6916ZM30.2839 40.0891L32.2718 38.5956C32.4846 38.4296 32.6237 38.1868 32.6593 37.9193C32.695 37.6518 32.6242 37.381 32.4623 37.1652C32.3004 36.9493 32.0603 36.8055 31.7936 36.7648C31.5268 36.7241 31.2547 36.7897 31.0358 36.9475L29.5937 38.029V36.9887C29.5897 36.7181 29.4794 36.46 29.2867 36.2701C29.094 36.0802 28.8343 35.9738 28.5637 35.9738C28.2931 35.9738 28.0334 36.0802 27.8407 36.2701C27.6479 36.46 27.5376 36.7181 27.5336 36.9887V38.029L26.0915 36.9475C25.8726 36.79 25.6007 36.7247 25.3341 36.7655C25.0675 36.8063 24.8276 36.95 24.6658 37.1657C24.504 37.3815 24.4332 37.652 24.4687 37.9194C24.5041 38.1867 24.643 38.4295 24.8555 38.5956L26.8435 40.0891L24.8555 41.5827C24.7472 41.6639 24.6561 41.7656 24.5872 41.882C24.5182 41.9984 24.4729 42.1272 24.4538 42.2611C24.4347 42.395 24.4421 42.5314 24.4757 42.6624C24.5092 42.7935 24.5683 42.9166 24.6495 43.0248C24.7306 43.133 24.8323 43.2242 24.9487 43.2931C25.0651 43.362 25.1939 43.4074 25.3278 43.4265C25.4617 43.4456 25.5981 43.4382 25.7291 43.4046C25.8602 43.371 25.9833 43.312 26.0915 43.2308L27.5336 42.1493V43.169C27.5336 43.4422 27.6421 43.7042 27.8353 43.8974C28.0285 44.0906 28.2905 44.1991 28.5637 44.1991C28.8369 44.1991 29.0989 44.0906 29.292 43.8974C29.4852 43.7042 29.5937 43.4422 29.5937 43.169V42.1493C29.9879 42.384 31.1549 43.5107 31.6538 43.4368C31.8686 43.4314 32.0764 43.3598 32.249 43.2318C32.4215 43.1038 32.5504 42.9257 32.618 42.7218C32.6856 42.5179 32.6886 42.2981 32.6267 42.0924C32.5647 41.8867 32.4408 41.7051 32.2718 41.5724L30.2839 40.0891ZM41.6145 40.0891L43.6025 38.5956C43.8152 38.4296 43.9544 38.1868 43.99 37.9193C44.0256 37.6518 43.9549 37.381 43.793 37.1652C43.6311 36.9493 43.391 36.8055 43.1242 36.7648C42.8575 36.7241 42.5854 36.7897 42.3665 36.9475L40.9244 38.029V36.9887C40.9204 36.7181 40.8101 36.46 40.6174 36.2701C40.4246 36.0802 40.1649 35.9738 39.8943 35.9738C39.6238 35.9738 39.3641 36.0802 39.1713 36.2701C38.9786 36.46 38.8683 36.7181 38.8643 36.9887V38.029L37.4222 36.9475C37.2033 36.79 36.9313 36.7247 36.6647 36.7655C36.3982 36.8063 36.1582 36.95 35.9964 37.1657C35.8346 37.3815 35.7639 37.652 35.7993 37.9194C35.8348 38.1867 35.9737 38.4295 36.1861 38.5956L38.1741 40.0891L36.1861 41.5827C36.0779 41.6639 35.9867 41.7656 35.9178 41.882C35.8489 41.9984 35.8036 42.1272 35.7844 42.2611C35.7653 42.395 35.7728 42.5314 35.8063 42.6624C35.8399 42.7935 35.8989 42.9166 35.9801 43.0248C36.0613 43.133 36.163 43.2242 36.2793 43.2931C36.3957 43.362 36.5246 43.4074 36.6585 43.4265C36.7924 43.4456 36.9288 43.4382 37.0598 43.4046C37.1908 43.371 37.314 43.312 37.4222 43.2308L38.8643 42.1493V43.169C38.8643 43.4422 38.9728 43.7042 39.166 43.8974C39.3591 44.0906 39.6211 44.1991 39.8943 44.1991C40.1675 44.1991 40.4295 44.0906 40.6227 43.8974C40.8159 43.7042 40.9244 43.4422 40.9244 43.169V42.1493C41.3186 42.384 42.4856 43.5107 42.9845 43.4368C43.1992 43.4314 43.4071 43.3598 43.5796 43.2318C43.7522 43.1038 43.8811 42.9257 43.9486 42.7218C44.0162 42.5179 44.0193 42.2981 43.9573 42.0924C43.8954 41.8867 43.7715 41.7051 43.6025 41.5724L41.6145 40.0891ZM52.9452 40.0891L54.9331 38.5956C55.1459 38.4296 55.285 38.1868 55.3207 37.9193C55.3563 37.6518 55.2856 37.381 55.1237 37.1652C54.9618 36.9493 54.7216 36.8055 54.4549 36.7648C54.1881 36.7241 53.9161 36.7897 53.6971 36.9475L52.2551 38.029V36.9887C52.251 36.7181 52.1408 36.46 51.948 36.2701C51.7553 36.0802 51.4956 35.9738 51.225 35.9738C50.9544 35.9738 50.6947 36.0802 50.502 36.2701C50.3092 36.46 50.1989 36.7181 50.1949 36.9887V38.029L48.7528 36.9475C48.5339 36.79 48.262 36.7247 47.9954 36.7655C47.7288 36.8063 47.4889 36.95 47.3271 37.1657C47.1653 37.3815 47.0945 37.652 47.13 37.9194C47.1654 38.1867 47.3043 38.4295 47.5168 38.5956L49.5048 40.0891L47.5168 41.5827C47.2982 41.7466 47.1537 41.9907 47.1151 42.2611C47.0765 42.5316 47.1469 42.8063 47.3108 43.0248C47.4747 43.2434 47.7187 43.3879 47.9891 43.4265C48.2596 43.4651 48.5343 43.3947 48.7528 43.2308L50.1949 42.1493V43.169C50.1949 43.4422 50.3035 43.7042 50.4966 43.8974C50.6898 44.0906 50.9518 44.1991 51.225 44.1991C51.4982 44.1991 51.7602 44.0906 51.9534 43.8974C52.1465 43.7042 52.2551 43.4422 52.2551 43.169V42.1493C52.6492 42.384 53.8162 43.5107 54.3151 43.4368C54.5299 43.4314 54.7377 43.3598 54.9103 43.2318C55.0828 43.1038 55.2117 42.9257 55.2793 42.7218C55.3469 42.5179 55.3499 42.2981 55.288 42.0924C55.226 41.8867 55.1021 41.7051 54.9332 41.5724L52.9452 40.0891ZM23.2074 50.2455C22.931 50.2476 22.6551 50.2234 22.3833 50.1734V64.6149C22.3832 65.156 22.4896 65.6918 22.6967 66.1918C22.9037 66.6917 23.2072 67.146 23.5898 67.5286C23.9724 67.9113 24.4267 68.2148 24.9266 68.4218C25.4266 68.6288 25.9624 68.7353 26.5036 68.7351H53.2851C53.8262 68.7353 54.3621 68.6288 54.862 68.4218C55.362 68.2148 55.8163 67.9113 56.1989 67.5286C56.5815 67.146 56.885 66.6917 57.092 66.1918C57.299 65.6918 57.4055 65.156 57.4054 64.6149V50.1734C57.1336 50.2234 56.8576 50.2476 56.5813 50.2455H23.2074ZM56.5813 29.5413C56.8576 29.5393 57.1336 29.5635 57.4054 29.6134V15.172C57.4055 14.6309 57.299 14.095 57.092 13.5951C56.885 13.0951 56.5815 12.6408 56.1989 12.2582C55.8163 11.8756 55.362 11.5721 54.862 11.3651C54.3621 11.1581 53.8262 11.0516 53.2851 11.0518H50.8439L49.958 13.1119L47.9082 17.8811C47.8122 18.0193 47.6845 18.1326 47.5357 18.2114C47.387 18.2903 47.2216 18.3324 47.0533 18.3343H32.7354C32.5671 18.3324 32.4017 18.2903 32.2529 18.2114C32.1042 18.1326 31.9765 18.0193 31.8805 17.8811L29.8307 13.1119L28.9448 11.0518H26.5036C25.9624 11.0516 25.4266 11.1581 24.9266 11.3651C24.4267 11.5721 23.9724 11.8756 23.5898 12.2582C23.2071 12.6408 22.9036 13.0951 22.6966 13.5951C22.4896 14.095 22.3832 14.6309 22.3833 15.172V29.6134C22.6551 29.5635 22.931 29.5393 23.2074 29.5413H56.5813Z" fill="url(#paint0_linear_4045_1433)"/>
<rect x="50.3945" y="50" width="28" height="28" rx="14" fill="url(#paint1_linear_4045_1433)"/>
<path d="M59.6055 63.4231L63.1823 67L69.1823 61" stroke="white" stroke-width="1.5" stroke-linecap="round" stroke-linejoin="round"/>
<defs>
<linearGradient id="paint0_linear_4045_1433" x1="20.1172" y1="39.8934" x2="59.6715" y2="39.8934" gradientUnits="userSpaceOnUse">
<stop stop-color="#FFDE00"/>
<stop offset="1" stop-color="#FD5900"/>
</linearGradient>
<linearGradient id="paint1_linear_4045_1433" x1="70.4893" y1="53.8659" x2="53.0523" y2="53.8659" gradientUnits="userSpaceOnUse">
<stop stop-color="#54D262"/>
<stop offset="0.989" stop-color="#4DAA57"/>
</linearGradient>
</defs>
</svg>
