<svg width="799" height="409" viewBox="0 0 799 409" fill="none" xmlns="http://www.w3.org/2000/svg">
<g opacity="0.2">
<path opacity="0.3" d="M-239.513 -148.912C-231.773 -125.812 -233.908 -100.446 -237.994 -76.3623C-242.079 -52.2679 -248.054 -28.2803 -247.746 -3.81201C-247.233 36.1387 -228.837 75.5017 -198.801 100.376C-168.765 125.261 -127.642 135.059 -90.256 126.009C-66.6151 120.282 -44.3907 107.482 -20.1339 106.445C4.76964 105.377 28.4311 116.831 52.9446 121.511C111.138 132.634 173.531 102.15 206.092 50.7236C238.664 -0.702667 241.754 -69.6842 217.918 -126.068C194.082 -182.442 145.219 -225.683 89.2529 -245.717C33.2969 -265.741 -28.9825 -263.422 -85.1233 -243.944C-112.655 -234.391 -138.862 -220.875 -166.773 -212.637C-193.081 -204.875 -221.968 -202.141 -247.415 -212.075C-250.37 -213.228 -253.697 -213.146 -256.477 -211.617L-258.361 -210.582C-267.292 -205.671 -265.186 -185.115 -257.823 -178.067C-249.594 -170.19 -243.189 -159.878 -239.513 -148.912Z" fill="#FFF0E5"/>
<path opacity="0.3" d="M-114.994 361.125C-107.253 384.225 -109.389 409.591 -113.474 433.675C-117.56 457.769 -123.534 481.757 -123.226 506.225C-122.713 546.176 -104.318 585.539 -74.2814 610.413C-44.2452 635.298 -3.12256 645.096 34.2636 636.046C57.9045 630.319 80.1288 617.519 104.386 616.482C129.289 615.414 152.951 626.868 177.464 631.548C235.658 642.671 298.05 612.187 330.612 560.761C363.183 509.334 366.273 440.353 342.437 383.969C318.601 327.596 269.739 284.354 213.772 264.32C157.816 244.296 95.537 246.615 39.3962 266.093C11.8647 275.646 -14.3425 289.162 -42.2537 297.4C-68.5615 305.162 -97.4482 307.897 -122.895 297.963C-125.85 296.809 -129.178 296.892 -131.958 298.42L-133.841 299.456C-142.773 304.366 -140.667 324.922 -133.304 331.97C-125.074 339.847 -118.669 350.16 -114.994 361.125Z" fill="#FFF0E5"/>
<path opacity="0.2" d="M-nan -nanL251.446 352.144C255.809 325.218 266.29 299.371 282.396 277.788C314.177 235.219 366.869 210.526 418.555 213.999C424.046 214.362 429.579 215.014 435.133 215.794C464.163 219.844 493.748 227.227 519.791 214.608C541.902 203.891 556.037 180.897 575.993 166.312C602.098 147.229 637.236 144.109 667.6 154.292C697.955 164.475 723.68 186.827 742.475 213.657C748.463 222.204 753.815 231.222 759.077 240.303C759.957 241.823 760.419 243.548 760.419 245.305L760.419 342.144C760.419 347.666 755.942 352.144 750.419 352.144L251.446 352.144L-nan -nanZ" fill="url(#paint0_linear_932_8540)"/>
<path d="M475.655 -38.2549C472.38 -38.2549 471.087 -34.5566 474.125 -33.3369C479.175 -31.3042 484.868 -30.9121 489.451 -27.9152C495.489 -23.9686 498.296 -16.3811 499.816 -9.13184C501.334 -1.87896 502.025 5.74088 505.457 12.2454C512.571 25.7403 530.257 30.3812 544.279 25.4884C553.615 22.229 561.413 15.6596 567.7 7.65484C570.852 3.63986 573.624 -0.731306 576.016 -5.22838C581.422 -15.3918 585.386 -26.5841 592.8 -35.2652C593.758 -36.3902 593.005 -38.2549 591.527 -38.2549L475.655 -38.2549Z" fill="#FFF0E5"/>
<path d="M525.673 177.629C521.411 197.245 533.233 216.744 552.079 221.18C570.925 225.617 589.658 213.311 593.92 193.695C598.182 174.079 586.36 154.58 567.514 150.144C548.668 145.707 529.936 158.013 525.673 177.629Z" fill="#FFF0E5"/>
<path d="M15.2369 163.377C13.9205 169.435 17.5718 175.457 23.3923 176.828C29.2128 178.198 34.9983 174.397 36.3147 168.339C37.6311 162.28 33.9798 156.258 28.1593 154.888C22.3389 153.518 16.5533 157.319 15.2369 163.377Z" fill="#FFF0E5"/>
<path d="M666.058 370.429C632.1 370.472 598.437 354.194 576.565 327.149C557.601 303.693 547.829 273.74 531.561 248.192C515.293 222.636 487.815 200.226 458.859 205.839C438.979 209.692 423.177 226.199 413.83 244.859C404.483 263.518 400.43 284.465 395.43 304.859C390.421 325.253 384.065 345.953 371.114 362.12C354.691 382.608 328.03 393.664 302.571 390.551" stroke="#FFF0E5" stroke-miterlimit="10"/>
<path d="M654.685 371.726C622.852 371.768 591.297 356.503 570.789 331.159C553.009 309.174 543.85 281.092 528.604 257.143C513.349 233.186 487.595 212.179 460.452 217.444C441.815 221.058 427.002 236.528 418.243 254.022C409.476 271.516 405.685 291.153 400.995 310.272C396.305 329.39 390.34 348.797 378.199 363.944C362.805 383.148 337.811 393.515 313.945 390.589" stroke="#FFF0E5" stroke-miterlimit="10"/>
<path d="M643.312 373.017C613.603 373.051 584.148 358.815 565.021 335.155C548.426 314.642 539.879 288.431 525.646 266.08C511.413 243.722 487.375 224.119 462.046 229.034C444.651 232.402 430.834 246.843 422.655 263.172C414.477 279.501 410.939 297.82 406.559 315.662C402.18 333.505 396.616 351.611 385.283 365.754C370.919 383.674 347.592 393.352 325.319 390.622" stroke="#FFF0E5" stroke-miterlimit="10"/>
<path d="M631.938 374.301C604.354 374.335 577.007 361.11 559.244 339.151C543.843 320.101 535.901 295.769 522.689 275.018C509.477 254.267 487.155 236.058 463.64 240.617C447.495 243.747 434.659 257.15 427.068 272.314C419.478 287.469 416.185 304.486 412.124 321.045C408.055 337.612 402.891 354.426 392.376 367.557C379.041 384.2 357.381 393.181 336.701 390.647" stroke="#FFF0E5" stroke-miterlimit="10"/>
<path d="M620.563 375.592C595.104 375.626 569.865 363.422 553.474 343.147C539.258 325.568 531.937 303.108 519.738 283.955C507.539 264.803 486.941 247.998 465.24 252.207C450.336 255.099 438.489 267.465 431.487 281.463C424.476 295.453 421.445 311.153 417.695 326.444C413.944 341.736 409.173 357.256 399.466 369.367C387.153 384.726 367.168 393.018 348.081 390.68" stroke="#FFF0E5" stroke-miterlimit="10"/>
<path d="M831.3 -61.4707C795.536 -58.4836 761.428 -38.3357 740.623 -7.90206C722.586 18.4924 714.764 50.9087 699.739 79.2656C684.714 107.631 657.624 133.684 626.667 130.359C605.415 128.077 587.413 112.104 576.031 93.2883C564.65 74.4729 558.655 52.7756 551.708 31.7451C544.752 10.7154 536.351 -10.5164 521.38 -26.3859C502.396 -46.495 473.408 -55.7576 446.853 -50.2064" stroke="#FFF0E5" stroke-miterlimit="10"/>
<path d="M819.215 -61.8213C785.689 -59.0238 753.717 -40.13 734.209 -11.6094C717.298 13.1299 709.967 43.521 695.885 70.103C681.796 96.6947 656.406 121.116 627.388 117.996C607.463 115.853 590.588 100.885 579.922 83.2437C569.247 65.6036 563.636 45.2622 557.121 25.5475C550.606 5.83266 542.724 -14.0729 528.69 -28.9398C510.896 -47.7884 483.72 -56.4744 458.827 -51.2625" stroke="#FFF0E5" stroke-miterlimit="10"/>
<path d="M807.132 -62.1648C775.844 -59.5481 745.998 -41.9254 727.805 -15.3014C712.021 7.78261 705.181 36.1487 692.035 60.9565C678.889 85.7732 655.191 108.563 628.111 105.648C609.515 103.655 593.774 89.6809 583.815 73.2153C573.856 56.7496 568.62 37.7738 562.537 19.3747C556.454 0.975662 549.102 -17.5953 536.001 -31.4776C519.397 -49.0658 494.034 -57.1751 470.803 -52.3115" stroke="#FFF0E5" stroke-miterlimit="10"/>
<path d="M795.051 -62.5012C766 -60.0741 738.291 -43.7055 721.395 -18.9945C706.746 2.44252 700.388 28.7753 688.185 51.8081C675.983 74.8409 653.976 96.0092 628.837 93.3083C611.576 91.4539 596.954 78.4851 587.71 63.1939C578.467 47.9117 573.597 30.2843 567.955 13.2091C562.304 -3.87423 555.48 -21.1196 543.324 -34.009C527.909 -50.3457 504.358 -57.8695 482.789 -53.3541" stroke="#FFF0E5" stroke-miterlimit="10"/>
<path d="M782.964 -62.8437C756.15 -60.6063 730.577 -45.5006 714.988 -22.6856C701.465 -2.90376 695.607 21.4032 684.339 42.6618C673.072 63.9204 652.765 83.457 629.565 80.9613C613.632 79.2468 600.136 67.2823 591.608 53.1656C583.072 39.0586 578.585 22.7961 573.375 7.02772C568.165 -8.74068 561.861 -24.6597 550.64 -36.5466C536.407 -51.6221 514.677 -58.57 494.769 -54.4029" stroke="#FFF0E5" stroke-miterlimit="10"/>
<path d="M218.647 551.804C215.637 529.582 196.836 512.777 176.637 504.918C156.438 497.058 134.497 496.084 113.195 492.579C91.8941 489.063 69.8341 482.215 55.2539 465.682C29.3177 436.255 36.916 390.529 32.8738 350.824C26.7454 290.748 -12.2301 235.484 -65.454 211.4" stroke="#FFF0E5" stroke-miterlimit="10"/>
<path d="M229.757 541.775C226.746 519.554 207.946 502.749 187.747 494.889C167.548 487.03 145.606 486.055 124.305 482.551C103.004 479.035 80.9435 472.187 66.3633 455.653C40.427 426.226 48.0253 380.5 43.9832 340.795C37.8547 280.72 -1.12076 225.456 -54.3446 201.372" stroke="#FFF0E5" stroke-miterlimit="10"/>
<path d="M240.849 531.738C237.838 509.517 219.038 492.712 198.839 484.852C178.64 476.993 156.698 476.018 135.397 472.514C114.095 468.998 92.0353 462.15 77.4551 445.616C51.5188 416.189 59.1171 370.463 55.075 330.758C48.9465 270.683 9.97104 215.419 -43.2528 191.334" stroke="#FFF0E5" stroke-miterlimit="10"/>
<path d="M251.958 521.708C248.947 499.487 230.147 482.682 209.948 474.822C189.749 466.963 167.807 465.988 146.506 462.484C125.205 458.967 103.145 452.119 88.5644 435.586C62.6281 406.159 70.2264 360.433 66.1843 320.728C60.0558 260.652 21.0803 205.389 -32.1435 181.304" stroke="#FFF0E5" stroke-miterlimit="10"/>
</g>
<defs>
<linearGradient id="paint0_linear_932_8540" x1="760.417" y1="250.37" x2="251.445" y2="250.37" gradientUnits="userSpaceOnUse">
<stop stop-color="#D1D5DE"/>
<stop offset="1" stop-color="#DBDBDB"/>
</linearGradient>
</defs>
</svg>
