<svg width="87" height="87" viewBox="0 0 87 87" fill="none" xmlns="http://www.w3.org/2000/svg">
<g id="Frame 1410085820">
<circle id="Ellipse 3982" cx="43.4876" cy="43.3694" r="42.8489" fill="white"/>
<g id="Group">
<g id="Group_2">
<path id="Vector" d="M61.5755 44.6068L49.0273 42.8596C52.0453 40.6359 54.1101 37.618 55.3808 34.7589C52.3629 33.0117 54.1101 28.5642 57.4457 29.0408C59.1929 29.1996 60.3048 30.788 60.146 32.5352C59.9871 33.8059 59.0341 34.7589 57.7634 35.0766C58.2399 38.0945 59.3518 41.5889 61.5755 44.6068Z" fill="#F3A250"/>
</g>
</g>
<g id="Group_3" opacity="0.6">
<g id="Group_4">
<path id="Vector_2" d="M52.2047 39.6829C51.2517 40.7947 50.1398 41.9066 48.8691 42.8596L61.4173 44.6068C60.9408 44.1303 60.6231 43.495 60.3054 42.8596C56.9699 42.8596 54.2696 41.5889 52.2047 39.6829Z" fill="#EF7B56"/>
</g>
</g>
<g id="Group_5" opacity="0.6">
<g id="Group_6">
<path id="Vector_3" d="M55.3805 34.7589C54.2686 34.1235 53.6332 33.0116 53.9509 31.5821C54.2686 29.8349 55.6981 28.723 57.4453 28.8819C59.1926 29.0407 60.3044 30.6291 60.1456 32.3763C59.9867 33.647 59.0337 34.6 57.763 34.9177C56.81 35.2354 56.0158 35.0765 55.3805 34.7589Z" fill="#EF7B56"/>
</g>
</g>
<g id="Group_7">
<g id="Group_8">
<path id="Vector_4" d="M25.9961 44.6068L38.5443 42.8596C35.5263 40.6358 33.4615 37.6179 32.1908 34.7589C33.3026 34.1235 33.938 33.0116 33.6203 31.5821C33.3026 29.8349 31.8731 28.723 30.1259 28.8819C28.3787 29.0407 27.2668 30.6291 27.4256 32.3763C27.5845 33.647 28.5375 34.6 29.8082 34.9177C29.3317 38.0944 28.2198 41.5889 25.9961 44.6068Z" fill="#F3A250"/>
</g>
</g>
<g id="Group_9" opacity="0.6">
<g id="Group_10">
<path id="Vector_5" d="M35.3678 39.6829C36.3209 40.7947 37.4327 41.9066 38.7034 42.8596L26.1553 44.6068C26.6318 44.1303 26.9495 43.495 27.2671 42.8596C30.6027 42.8596 33.303 41.5889 35.3678 39.6829Z" fill="#EF7B56"/>
</g>
</g>
<g id="Group_11" opacity="0.6">
<g id="Group_12">
<path id="Vector_6" d="M32.1903 34.7589C33.3022 34.1235 33.9375 33.0116 33.6199 31.5821C33.3022 29.8349 31.8727 28.723 30.1254 28.8819C28.3782 29.0407 27.2664 30.6291 27.4252 32.3763C27.584 33.647 28.5371 34.6 29.8078 34.9177C30.7608 35.2354 31.555 35.0765 32.1903 34.7589Z" fill="#EF7B56"/>
</g>
</g>
<g id="Group_13">
<g id="Group_14">
<g id="Group_15">
<path id="Vector_7" d="M18.3721 33.9647C19.1663 38.4121 22.8195 46.354 22.8195 51.7545V57.3138H64.9115V51.7545C64.9115 46.354 68.5647 38.4121 69.3589 33.9647C69.5177 33.1705 68.5647 32.8528 68.247 32.8528C66.9763 32.8528 65.8645 33.9647 65.8645 35.2354C65.8645 35.8707 66.1822 37.1414 67.1352 37.7768C63.7996 46.9893 46.4863 46.1952 44.8979 23.7991H43.1507V24.1167C41.4035 46.354 24.0902 46.9893 20.9135 37.7768C21.8665 37.1414 22.1842 36.0296 22.1842 35.2354C22.1842 33.9647 21.0723 32.8528 19.8016 32.8528C19.1663 32.694 18.2132 33.1705 18.3721 33.9647Z" fill="#FFB961"/>
</g>
</g>
</g>
<g id="Group_16">
<g id="Group_17">
<g id="Group_18">
<path id="Vector_8" d="M66.9765 37.618C64.1174 49.2131 46.0099 48.5777 44.2627 23.6403L44.7392 23.9579C46.3276 46.1952 63.6409 46.8305 66.9765 37.618Z" fill="#FFDE9B"/>
</g>
</g>
</g>
<g id="Group_19">
<g id="Group_20">
<g id="Group_21">
<path id="Vector_9" d="M20.5957 37.618C23.4548 49.2131 41.5623 48.5777 43.3095 23.6403L42.833 23.9579C41.2446 46.1952 23.9313 46.8305 20.5957 37.618Z" fill="#FFDE9B"/>
</g>
</g>
</g>
<g id="Group_22">
<g id="Group_23">
<g id="Group_24">
<path id="Vector_10" d="M18.531 34.4412C18.531 34.2823 18.531 34.1235 18.3722 33.9646C18.2133 33.1705 19.1663 32.8528 19.484 32.8528C21.0724 32.8528 22.1843 34.2823 21.8666 35.8707C21.7077 34.6 19.1663 33.3293 18.531 34.4412Z" fill="#FFDE9B"/>
</g>
</g>
<g id="Group_25">
<g id="Group_26">
<path id="Vector_11" d="M69.1998 33.9647C69.1998 34.1235 69.1998 34.2823 69.0409 34.4412C68.4056 33.3293 66.023 33.8058 65.5465 35.7119C65.2288 34.1235 66.3407 32.694 67.9291 32.694C68.4056 32.694 69.3586 33.1705 69.1998 33.9647Z" fill="#FFDE9B"/>
</g>
</g>
</g>
<g id="Group_27">
<g id="Group_28">
<path id="Vector_12" d="M64.7524 57.3138C64.7524 60.1728 55.381 62.3966 43.7859 62.3966C32.1907 62.3966 22.8193 60.1728 22.8193 57.3138C22.8193 54.4547 32.1907 52.231 43.7859 52.231C55.381 52.231 64.7524 54.4547 64.7524 57.3138Z" fill="#FFB961"/>
</g>
</g>
<g id="Group_29">
<g id="Group_30">
<path id="Vector_13" d="M27.9023 56.2019V60.6494C29.6496 61.1259 31.7144 61.6024 33.9382 61.7612V57.4726L27.9023 56.2019Z" fill="#FFDE9B"/>
</g>
</g>
<g id="Group_31">
<g id="Group_32">
<path id="Vector_14" d="M53.9512 57.6315V61.7612C56.8102 61.4436 59.1928 60.8082 60.94 60.1729V56.0431L53.9512 57.6315Z" fill="#FFDE9B"/>
</g>
</g>
<g id="Group_33">
<g id="Group_34">
<path id="Vector_15" d="M38.2266 58.4257V62.2378C40.9268 62.3966 43.3094 62.3966 45.8508 62.3966V58.4257H38.2266Z" fill="#FFDE9B"/>
</g>
</g>
<g id="Group_35">
<g id="Group_36">
<path id="Vector_16" d="M64.7524 52.5487V53.9782C64.7524 56.8373 55.381 59.061 43.7859 59.061C32.1907 59.061 22.8193 56.8373 22.8193 53.9782V52.5487C22.8193 55.4078 32.1907 57.6315 43.7859 57.6315C55.381 57.6315 64.7524 55.4078 64.7524 52.5487Z" fill="#F9A83D"/>
</g>
</g>
<g id="Group_37">
<g id="Group_38">
<g id="Group_39">
<path id="Vector_17" d="M50.7752 44.7657V51.9133C50.7752 52.231 50.6164 52.5487 50.2987 52.7075L44.104 56.202C43.7864 56.3608 43.4687 56.3608 43.3098 56.202L37.1152 52.7075C36.7975 52.5487 36.6387 52.231 36.6387 51.9133V44.7657C36.6387 44.448 36.7975 44.1303 37.1152 43.9715L43.3098 40.477C43.6275 40.3182 43.9452 40.3182 44.104 40.477L50.2987 43.9715C50.6164 44.1303 50.7752 44.448 50.7752 44.7657Z" fill="#F3A250"/>
</g>
</g>
<g id="Group_40">
<g id="Group_41">
<path id="Vector_18" d="M43.7862 55.0901L37.9092 51.7545V44.9245L43.7862 41.4301L49.6632 44.9245V51.7545L43.7862 55.0901Z" fill="#6EB954"/>
</g>
</g>
<g id="Group_42">
<g id="Group_43">
<path id="Vector_19" d="M43.7861 51.5957L46.804 50.0073L49.6631 51.7545L43.7861 55.0901V51.5957Z" fill="#4B9534"/>
</g>
</g>
<g id="Group_44">
<g id="Group_45">
<path id="Vector_20" d="M40.7683 46.6718V50.0074L37.9092 51.7546V44.9246L40.7683 46.6718Z" fill="#4B9534"/>
</g>
</g>
<g id="Group_46">
<g id="Group_47">
<path id="Vector_21" d="M43.7861 45.0833L46.804 46.6717L49.6631 44.9245L43.7861 41.4301V45.0833Z" fill="#4B9534"/>
</g>
</g>
</g>
<g id="Group_48">
<g id="Group_49">
<path id="Vector_22" d="M40.6094 49.8485C40.6094 46.5129 40.4506 46.5129 40.9271 46.1952C43.945 44.448 43.7861 44.448 44.1038 44.6068C46.9629 46.354 46.9629 46.354 46.9629 46.6717C46.9629 50.1661 47.1217 50.0073 46.6452 50.325C43.6273 52.0722 43.7861 52.0722 43.4685 51.9133C40.6094 50.1661 40.6094 50.325 40.6094 49.8485Z" fill="#36712D"/>
</g>
</g>
<g id="Group_50">
<g id="Group_51">
<path id="Vector_23" d="M47.4394 46.5129C47.2806 46.6718 47.4394 46.6718 47.4394 46.8306C47.916 46.9894 48.3925 47.1483 48.5513 47.1483C48.5513 47.1483 48.0748 47.1483 47.4394 46.9894C47.2806 46.9894 47.2806 47.1483 47.2806 47.1483C47.916 48.2601 48.3925 49.2132 48.2336 49.2132C48.0748 49.2132 47.5983 48.2601 46.9629 47.3071C46.9629 47.1483 46.8041 47.3071 46.6453 47.3071C46.4864 47.9425 46.3276 48.2601 46.3276 48.419C46.3276 48.419 46.3276 47.9425 46.4864 47.3071C46.4864 47.1483 46.3276 47.1483 46.3276 47.1483C45.2157 47.7836 44.2627 48.2601 44.2627 48.1013C44.2627 47.9425 45.2157 47.466 46.1687 46.8306C46.3276 46.6718 46.1687 46.6718 46.1687 46.5129C45.6922 46.3541 45.2157 46.1953 45.2157 46.1953C45.3746 46.1953 45.6922 46.3541 46.3276 46.3541C46.4864 46.3541 46.4864 46.1953 46.4864 46.1953C45.8511 45.0834 45.3746 44.1304 45.5334 44.1304C45.5334 44.1304 46.1687 45.0834 46.8041 46.0364C46.8041 46.1953 46.9629 46.1953 47.1218 46.0364C47.2806 45.4011 47.4394 45.0834 47.4394 44.9246C47.4394 44.9246 47.4394 45.4011 47.2806 46.0364C47.2806 46.1953 47.4394 46.1953 47.4394 46.1953C48.5513 45.5599 49.5043 45.0834 49.5043 45.2422C49.3455 45.2422 48.5513 45.8776 47.4394 46.5129Z" fill="white"/>
</g>
</g>
</g>
</svg>
