<svg width="189" height="190" viewBox="0 0 189 190" fill="none" xmlns="http://www.w3.org/2000/svg">
<g id="Group 1000019727">
<g id="Group 1000019726">
<g id="Group 1000019725">
<path id="Vector" d="M90.7163 0.000915527H98.2756V7.57274H113.396V15.1459H90.7163V0.000915527Z" fill="#151515"/>
<path id="Vector_2" d="M120.954 0.000915527H128.515V83.2984H120.954V68.1544H113.395V75.7263H105.831V68.1544H98.2745V60.5813H90.7152V37.8641H83.1546V22.7188H60.4751V15.1469H75.5953V7.57375H83.1546V15.1469H90.7152V22.7188H113.395V30.2919H98.2745V53.0091H105.831V45.4359H113.395V60.5813H120.954V37.8641H113.395V30.2923H120.954V0.000915527Z" fill="#151515"/>
<path id="Vector_3" d="M0 0V53.0075H52.9196V0H0ZM45.3596 45.435H7.55994V7.5725H45.3596V45.435Z" fill="#151515"/>
<path id="Vector_4" d="M136.078 0.000915527V53.0084H188.998V0.000915527H136.078ZM181.438 45.4359H143.638V7.57342H181.438V45.4359Z" fill="#151515"/>
<path id="Vector_5" d="M15.1206 15.1458H37.8001V37.8629H15.1206V15.1458Z" fill="#151515"/>
<path id="Vector_6" d="M151.198 15.1458H173.878V37.8629H151.198V15.1458Z" fill="#151515"/>
<path id="Vector_7" d="M60.4751 30.2928H75.5953V45.4368H68.0361V37.8649H60.4754L60.4751 30.2928Z" fill="#151515"/>
<path id="Vector_8" d="M60.4754 45.4363H68.036V53.0095H75.5953V45.4363H83.1546V60.5817H90.7152V68.1548H98.2745V75.7267H90.7152V83.2985H83.1546V68.1545H75.5953V60.5813H60.4751L60.4754 45.4363Z" fill="#151515"/>
<path id="Vector_9" d="M37.8018 60.5775H52.922V68.1494H37.8018V60.5775Z" fill="#151515"/>
<path id="Vector_10" d="M151.198 60.5775H158.758V68.1494H151.198V60.5775Z" fill="#151515"/>
<path id="Vector_11" d="M166.319 60.5775H173.879V75.7229H188.999V98.4401H173.879V83.2947H166.319V60.5775Z" fill="#151515"/>
<path id="Vector_12" d="M181.44 60.5775H188.999V68.1494H181.44V60.5775Z" fill="#151515"/>
<path id="Vector_13" d="M7.56006 68.1509H22.6803V75.7227H7.56006V68.1509Z" fill="#151515"/>
<path id="Vector_14" d="M30.2407 68.1509H37.8V75.7227H30.2407V68.1509Z" fill="#151515"/>
<path id="Vector_15" d="M0 75.7215H7.55927V83.2933H0V75.7215Z" fill="#151515"/>
<path id="Vector_16" d="M45.3618 75.7215H52.9211V83.2933H45.3618V75.7215Z" fill="#151515"/>
<path id="Vector_17" d="M15.1203 83.2966H30.2406V98.442H22.6799V106.015H15.1207V98.442H7.56006V90.8702H15.1207L15.1203 83.2966Z" fill="#151515"/>
<path id="Vector_18" d="M37.8018 83.2966H45.361V90.8685H37.8018V83.2966Z" fill="#151515"/>
<path id="Vector_19" d="M113.404 83.2966H120.964V90.8685H113.404V83.2966Z" fill="#151515"/>
<path id="Vector_20" d="M45.3618 90.8681H52.9211V98.4399H45.3618V90.8681Z" fill="#151515"/>
<path id="Vector_21" d="M0 98.4397H7.55927V128.73H0V98.4397Z" fill="#151515"/>
<path id="Vector_22" d="M30.2407 98.4397H37.8V106.016H30.2407V98.4397Z" fill="#151515"/>
<path id="Vector_23" d="M22.6807 106.013H30.2399V113.585H22.6807V106.013Z" fill="#151515"/>
<path id="Vector_24" d="M45.3618 106.013H52.9211V113.585H45.3618V106.013Z" fill="#151515"/>
<path id="Vector_25" d="M60.4751 106.013H68.0357V113.585H75.595V128.73H68.0357V136.302H60.4751V106.013Z" fill="#151515"/>
<path id="Vector_26" d="M143.638 106.013H158.756V113.585H143.638V106.013Z" fill="#151515"/>
<path id="Vector_27" d="M173.88 106.013H189V113.585H173.88V106.013Z" fill="#151515"/>
<path id="Vector_28" d="M30.2407 113.587H37.8V121.159H30.2407V113.587Z" fill="#151515"/>
<path id="Vector_29" d="M15.1206 121.16H22.6799V128.736H15.1206V121.16Z" fill="#151515"/>
<path id="Vector_30" d="M37.8018 121.16H52.922V128.736H37.8018V121.16Z" fill="#151515"/>
<path id="Vector_31" d="M75.6025 128.731H83.1618V136.303H75.6025V128.731Z" fill="#151515"/>
<path id="Vector_32" d="M188.995 128.731V121.158H173.875V113.586H158.755V121.158H128.516V113.586H136.075V106.015H143.635V98.4415H158.754V106.015H166.315V83.2975L158.754 83.2961V75.7243H151.195V83.2961H143.636V75.7243H151.195V68.1525H143.636V60.5807L136.075 60.5793V83.2965H128.516V106.014L113.396 106.015V90.8697H105.832V106.015H98.2731V83.2978H90.7138V98.4432H83.1546V83.2978H60.4751V90.8697H68.0344V106.015H75.5963V113.587H83.1556V106.015H90.7149L90.7162 113.587H83.1569V128.732H90.7162V136.304H98.2754V121.159H105.835V136.304H113.395V128.732H120.955V136.304H113.395V143.877H105.832V166.594H90.7158V174.166H105.833L105.832 181.739H90.7159V189.311H128.516V181.739H120.955V174.166H113.396V151.449H120.955V159.021H128.516V166.594H136.075V159.021H158.754V166.594H166.315V159.021H173.874V151.449H166.315V136.304H158.754V128.732L188.995 128.731ZM120.956 121.158H113.396V113.586H120.956V121.158ZM151.196 151.449H128.517V128.732H151.196V151.449Z" fill="#151515"/>
<path id="Vector_33" d="M83.1562 136.303H90.7155V151.449H83.1562V136.303Z" fill="#151515"/>
<path id="Vector_34" d="M136.078 136.303H143.641V143.879H136.078V136.303Z" fill="#151515"/>
<path id="Vector_35" d="M181.44 136.303H188.999V151.449H181.44V136.303Z" fill="#151515"/>
<path id="Vector_36" d="M0 136.303V189.311H52.9196V136.303H0ZM45.3596 181.738H7.55994V143.876H45.3596V181.738Z" fill="#151515"/>
<path id="Vector_37" d="M60.4751 143.878H75.5953V159.022H83.1546V166.595H75.5953V174.167H68.036V151.45H60.4754L60.4751 143.878Z" fill="#151515"/>
<path id="Vector_38" d="M15.1206 151.449H37.8001V174.166H15.1206V151.449Z" fill="#151515"/>
<path id="Vector_39" d="M90.7163 151.449H98.2756V159.021H90.7163V151.449Z" fill="#151515"/>
<path id="Vector_40" d="M181.44 159.023H188.999V189.314H181.44V159.023Z" fill="#151515"/>
<path id="Vector_41" d="M120.958 166.594H128.521V174.166H120.958V166.594Z" fill="#151515"/>
<path id="Vector_42" d="M136.078 166.595H151.198V174.167H166.319V189.313H158.758V181.741H143.639V189.313H136.078L136.078 166.595Z" fill="#151515"/>
<path id="Vector_43" d="M166.319 166.595H173.879V174.167H166.319V166.595Z" fill="#151515"/>
<path id="Vector_44" d="M83.1562 174.166H90.7155V181.741H83.1562V174.166Z" fill="#151515"/>
<path id="Vector_45" d="M68.0425 181.738H75.6017V189.31H68.0425V181.738Z" fill="#151515"/>
</g>
</g>
</g>
</svg>
