<svg width="24" height="24" viewBox="0 0 24 24" fill="none" xmlns="http://www.w3.org/2000/svg">
<path fill-rule="evenodd" clip-rule="evenodd" d="M15.9701 7.01714C16.4116 7.13531 16.7796 7.41642 17.006 7.80872C17.443 8.5657 17.2311 9.52205 16.5448 10.0302L14.8511 7.09734C15.2018 6.94523 15.5923 6.91589 15.9701 7.01709V7.01714ZM5.41251 18.0936L7.77595 16.7292L4.66228 11.3436L2.30222 12.7065C1.58634 13.1198 1.07315 13.7909 0.857574 14.596C0.641527 15.4014 0.750231 16.2393 1.16353 16.9549C1.73929 17.9517 2.7869 18.5096 3.86273 18.5096C4.38993 18.5096 4.92393 18.3756 5.41251 18.0936ZM10.3432 21.1831L8.35847 17.7458L6.50597 18.8153L8.49023 22.2528C8.78559 22.7635 9.4409 22.9391 9.95184 22.6442C10.1975 22.5023 10.3737 22.2714 10.4483 21.9944C10.5224 21.7171 10.4851 21.4292 10.3432 21.1831V21.1831ZM17.7236 14.4159L11.6426 3.88364C11.516 3.66398 11.3079 3.54356 11.0562 3.54356C11.0514 3.54356 11.0465 3.5438 11.0417 3.5438C10.7835 3.54853 10.5744 3.67688 10.4533 3.90534C10.2396 4.3087 10.0335 4.73916 9.81539 5.19497C8.89772 7.11164 7.86595 9.2663 5.66747 10.7403L8.80054 16.1607C11.1739 14.9955 13.5552 15.1791 15.6728 15.3427C16.1774 15.3817 16.6535 15.4184 17.1102 15.4351C17.369 15.445 17.5841 15.328 17.7172 15.1065C17.8507 14.8851 17.8528 14.6397 17.7238 14.416L17.7236 14.4159ZM16.1949 3.60164C16.0334 3.88186 16.1294 4.24022 16.4096 4.40203C16.5016 4.45538 16.6024 4.48069 16.7018 4.48069C16.9042 4.48069 17.1015 4.37559 17.2098 4.18762L18.4203 2.09175C18.5819 1.81153 18.4859 1.45317 18.2056 1.29136C17.9252 1.12959 17.5671 1.22559 17.4055 1.50581L16.1949 3.60164ZM23.2507 10.0283C23.2507 9.70491 22.9885 9.44231 22.6631 9.44231L20.2437 9.44255C19.9203 9.44255 19.6577 9.70491 19.6577 10.0285C19.6577 10.3521 19.9203 10.6144 20.2437 10.6144L22.6631 10.6142C22.9885 10.6142 23.2507 10.3521 23.2507 10.0283ZM21.8496 5.01216C21.6869 4.73194 21.3299 4.63594 21.0497 4.7977L18.9025 6.03694C18.6221 6.19898 18.5261 6.55711 18.6878 6.83756C18.7965 7.02558 18.9934 7.13067 19.1958 7.13067C19.2952 7.13067 19.396 7.10512 19.4885 7.05202L21.635 5.81255C21.9152 5.65073 22.0123 5.29238 21.8496 5.01216Z" fill="#DFA935"/>
</svg>
