<svg width="24" height="24" viewBox="0 0 24 24" fill="none" xmlns="http://www.w3.org/2000/svg">
<g clip-path="url(#clip0_1677_48)">
<path d="M17.6941 14.9242C17.9806 14.9353 18.2211 14.8039 18.3683 14.5593C18.5158 14.3144 18.5183 14.0401 18.3754 13.7926L12.2946 3.2603C12.1545 3.01763 11.9219 2.88286 11.6431 2.88286L11.6271 2.88301C11.6271 2.88301 11.627 2.88301 11.627 2.88302C11.3413 2.88822 11.1076 3.03189 10.9738 3.2844L10.9738 3.2844C10.7594 3.6893 10.5526 4.12122 10.3346 4.57669C9.41627 6.49497 8.39153 8.63093 6.21252 10.0921L6.15424 10.1312L6.18936 10.192L9.32267 15.6124L9.35775 15.673L9.42066 15.6422C11.773 14.4872 14.1344 14.6678 16.2542 14.8316L16.2596 14.832C16.7615 14.8708 17.2374 14.9076 17.6941 14.9242ZM17.6941 14.9242C17.6941 14.9242 17.6941 14.9242 17.6942 14.9242L17.6969 14.8493L17.694 14.9242C17.694 14.9242 17.6941 14.9242 17.6941 14.9242ZM17.6777 10.4005L17.6195 10.4396L17.6545 10.5003L19.2602 13.2815C19.5884 13.8499 19.5823 14.5238 19.2438 15.0862L19.308 15.1248L19.2438 15.0862C18.9054 15.6484 18.3118 15.9688 17.6568 15.9454C17.1783 15.9279 16.6921 15.8903 16.1754 15.8504L16.1729 15.8502C14.2353 15.7004 12.0365 15.5305 9.94007 16.5271L9.8667 16.562L9.90732 16.6324L11.8798 20.0489C12.1683 20.5485 12.2445 21.1318 12.0943 21.6923C11.9442 22.2528 11.5864 22.7198 11.0869 23.0083C10.7465 23.2048 10.3746 23.2981 10.0074 23.2981C9.25768 23.2981 8.52817 22.9094 8.1274 22.2153L6.12279 18.7432L6.09009 18.6866L6.02954 18.7113C5.51784 18.9198 4.98217 19.0203 4.45148 19.0203C2.99598 19.0203 1.579 18.2656 0.800744 16.9176L0.735791 16.9551L0.800743 16.9176C0.240898 15.948 0.0931137 14.8148 0.384766 13.7263C0.676466 12.6378 1.371 11.7304 2.3407 11.1706L5.20818 9.51505C7.45987 8.21503 8.50077 6.04069 9.40949 4.14247L9.41288 4.1354C9.63645 3.66836 9.84688 3.2289 10.0708 2.80607C10.378 2.22611 10.9522 1.87329 11.6084 1.86126C12.2629 1.85011 12.8514 2.18098 13.1795 2.74931L14.7853 5.53055L14.8204 5.5913L14.8833 5.56036C15.4901 5.26212 16.1777 5.19405 16.8409 5.37171C17.5657 5.56595 18.1698 6.02849 18.5427 6.67439C18.9156 7.32029 19.0141 8.07474 18.8199 8.79956L18.8923 8.81897L18.8199 8.79956C18.6422 9.46267 18.2394 10.0241 17.6777 10.4005ZM17.0666 9.48188L17.1086 9.55466L17.1762 9.50466C17.8929 8.97405 18.1142 7.97586 17.6577 7.18533C17.4213 6.77572 17.0369 6.48217 16.5764 6.35876C16.1824 6.25316 15.7746 6.28374 15.4084 6.44275L15.3313 6.47624L15.3733 6.54905L17.0666 9.48188ZM5.31441 10.7203L5.2769 10.6554L5.21198 10.6929L2.85168 12.0556C2.11837 12.4789 1.59277 13.1665 1.37191 13.9908C1.151 14.8151 1.26239 15.6734 1.68578 16.4067C2.27515 17.4276 3.34827 17.9987 4.44955 17.9988C4.98973 17.9988 5.53662 17.8615 6.03698 17.5727L5.99948 17.5077L6.03698 17.5727L8.40014 16.2083L8.46512 16.1708L8.42757 16.1058L5.31441 10.7203ZM10.576 22.1234L10.5385 22.0584L10.576 22.1234C10.8392 21.9714 11.028 21.7241 11.1073 21.4279C11.1867 21.1317 11.1469 20.8231 10.9949 20.5598L9.01034 17.1225L8.97284 17.0576L8.90788 17.095L7.05529 18.1646L6.99034 18.2021L7.02784 18.2671L9.01239 21.7044C9.32804 22.2511 10.0294 22.4389 10.576 22.1234ZM16.8469 3.0533L16.782 3.0158L16.8469 3.0533L18.057 0.957423C18.1981 0.713022 18.5105 0.629281 18.7549 0.770417L18.7549 0.770422C18.9993 0.911523 19.083 1.22401 18.9419 1.46836L19.0069 1.50586L18.9419 1.46836L17.7319 3.56424C17.6373 3.72806 17.4657 3.8198 17.2889 3.8198C17.2022 3.8198 17.1145 3.79777 17.034 3.75125L17.0339 3.75124C16.7896 3.61014 16.7058 3.29765 16.8469 3.0533ZM22.1845 5.16175L22.222 5.2267L22.1845 5.16175L20.0379 6.40113C19.9573 6.44763 19.8695 6.46969 19.783 6.46969C19.6062 6.46969 19.4346 6.37796 19.3399 6.21412C19.1988 5.96973 19.2826 5.65724 19.5269 5.51619L19.4894 5.45124L19.5269 5.51619L21.6735 4.27681L21.6736 4.2768C21.9178 4.13568 22.2304 4.21945 22.3715 4.46382C22.5126 4.70816 22.4288 5.0207 22.1845 5.16175ZM23.7618 9.44255C23.7618 9.72471 23.533 9.95349 23.2509 9.95349H20.8307C20.5486 9.95349 20.3198 9.72475 20.3198 9.44255C20.3198 9.16035 20.5486 8.93161 20.8307 8.93161H23.2509C23.533 8.93161 23.7618 9.16035 23.7618 9.44255Z" fill="black" stroke="white" stroke-width="0.15"/>
</g>
<defs>
<clipPath id="clip0_1677_48">
<rect width="24" height="24" fill="white"/>
</clipPath>
</defs>
</svg>
