<svg width="314" height="489" viewBox="0 0 314 489" fill="none" xmlns="http://www.w3.org/2000/svg">
<mask id="path-1-inside-1_1173_33775" fill="white">
<path fill-rule="evenodd" clip-rule="evenodd" d="M157 79C196.566 79 229.338 49.9134 235.101 11.9565C236.096 5.40417 241.373 0 248 0H293.989C305.041 0 314 10.1351 314 22.6374V466.363C314 478.865 305.041 489 293.989 489H20.0111C8.95926 489 0 478.865 0 466.363V22.6373C0 10.1351 8.95927 0 20.0111 0H66C72.6274 0 77.9041 5.40417 78.8989 11.9565C84.6615 49.9134 117.434 79 157 79Z"/>
</mask>
<path fill-rule="evenodd" clip-rule="evenodd" d="M157 79C196.566 79 229.338 49.9134 235.101 11.9565C236.096 5.40417 241.373 0 248 0H293.989C305.041 0 314 10.1351 314 22.6374V466.363C314 478.865 305.041 489 293.989 489H20.0111C8.95926 489 0 478.865 0 466.363V22.6373C0 10.1351 8.95927 0 20.0111 0H66C72.6274 0 77.9041 5.40417 78.8989 11.9565C84.6615 49.9134 117.434 79 157 79Z" fill="white"/>
<path d="M78.8989 11.9565L77.9103 12.1066L78.8989 11.9565ZM235.101 11.9565L236.09 12.1066L235.101 11.9565ZM234.112 11.8064C228.423 49.282 196.064 78 157 78V80C197.068 80 230.254 50.5448 236.09 12.1066L234.112 11.8064ZM248 1H293.989V-1H248V1ZM293.989 1C304.376 1 313 10.5679 313 22.6374H315C315 9.70226 305.705 -1 293.989 -1V1ZM313 22.6374V466.363H315V22.6374H313ZM313 466.363C313 478.432 304.376 488 293.989 488V490C305.705 490 315 479.298 315 466.363H313ZM293.989 488H20.0111V490H293.989V488ZM20.0111 488C9.62388 488 1 478.432 1 466.363H-1C-1 479.298 8.29464 490 20.0111 490V488ZM1 466.363V22.6373H-1V466.363H1ZM1 22.6373C1 10.5679 9.62388 1 20.0111 1V-1C8.29465 -1 -1 9.70226 -1 22.6373H1ZM20.0111 1H66V-1H20.0111V1ZM157 78C117.936 78 85.5771 49.282 79.8876 11.8064L77.9103 12.1066C83.746 50.5449 116.932 80 157 80V78ZM66 1C72.0438 1 76.9754 5.94916 77.9103 12.1066L79.8876 11.8064C78.8329 4.85919 73.211 -1 66 -1V1ZM236.09 12.1066C237.025 5.94916 241.956 1 248 1V-1C240.789 -1 235.167 4.85918 234.112 11.8064L236.09 12.1066Z" fill="url(#paint0_linear_1173_33775)" mask="url(#path-1-inside-1_1173_33775)"/>
<defs>
<linearGradient id="paint0_linear_1173_33775" x1="3.10576e-06" y1="20.6732" x2="437.269" y2="279.081" gradientUnits="userSpaceOnUse">
<stop stop-color="#CFCBD3"/>
<stop offset="1" stop-color="#181414"/>
</linearGradient>
</defs>
</svg>
