<svg width="28" height="28" viewBox="0 0 28 28" fill="none" xmlns="http://www.w3.org/2000/svg">
<g id="vuesax/linear/sms-edit">
<g id="sms-edit">
<path id="Vector" d="M14.0002 23.9168H8.16683C4.66683 23.9168 2.3335 22.1668 2.3335 18.0835V9.91683C2.3335 5.8335 4.66683 4.0835 8.16683 4.0835H19.8335C23.3335 4.0835 25.6668 5.8335 25.6668 9.91683V13.4168" stroke="#292D32" stroke-width="1.75" stroke-miterlimit="10" stroke-linecap="round" stroke-linejoin="round"/>
<path id="Vector_2" d="M19.8332 10.5L16.1815 13.4167C14.9798 14.3733 13.0082 14.3733 11.8065 13.4167L8.1665 10.5" stroke="#292D32" stroke-width="1.75" stroke-miterlimit="10" stroke-linecap="round" stroke-linejoin="round"/>
<g id="Group">
<path id="Vector_3" d="M22.414 17.233L18.284 21.363C18.1207 21.5263 17.969 21.8296 17.934 22.0513L17.7123 23.6263C17.6306 24.198 18.0273 24.5947 18.599 24.513L20.174 24.2913C20.3957 24.2563 20.7107 24.1046 20.8623 23.9413L24.9923 19.8113C25.704 19.0997 26.0423 18.2713 24.9923 17.2213C23.954 16.183 23.1256 16.5213 22.414 17.233Z" stroke="#292D32" stroke-width="1.75" stroke-miterlimit="10" stroke-linecap="round" stroke-linejoin="round"/>
<path id="Vector_4" d="M21.8169 17.8291C22.1669 19.0891 23.1469 20.0691 24.4069 20.4191" stroke="#292D32" stroke-width="1.75" stroke-miterlimit="10" stroke-linecap="round" stroke-linejoin="round"/>
</g>
</g>
</g>
</svg>
