<svg width="25" height="25" viewBox="0 0 25 25" fill="none" xmlns="http://www.w3.org/2000/svg">
<path d="M9.13275 4.68558C10.6347 1.9922 11.3851 0.645508 12.5078 0.645508C13.6304 0.645508 14.3808 1.9922 15.8828 4.68558L16.2716 5.38263C16.6984 6.14844 16.9118 6.53135 17.2437 6.78385C17.5756 7.03635 17.9906 7.13001 18.8204 7.31731L19.5743 7.48802C22.4906 8.14832 23.9475 8.47788 24.2949 9.5934C24.641 10.7077 23.6476 11.8707 21.6596 14.1954L21.1451 14.7964C20.5808 15.4567 20.2975 15.7875 20.1706 16.1953C20.0438 16.6042 20.0865 17.0452 20.1718 17.926L20.25 18.7286C20.55 21.831 20.7005 23.3816 19.7925 24.0703C18.8844 24.7591 17.5187 24.1308 14.7898 22.8742L14.0821 22.5494C13.3068 22.1913 12.9191 22.0135 12.5078 22.0135C12.0964 22.0135 11.7088 22.1913 10.9335 22.5494L10.2269 22.8742C7.49681 24.1308 6.13115 24.7591 5.22427 24.0715C4.31501 23.3816 4.46557 21.831 4.76549 18.7286L4.84373 17.9272C4.92909 17.0452 4.97176 16.6042 4.84373 16.1964C4.71807 15.7875 4.43475 15.4567 3.87047 14.7976L3.35597 14.1954C1.36795 11.8719 0.374526 10.7089 0.720682 9.5934C1.06684 8.47788 2.52615 8.14714 5.44239 7.48802L6.19635 7.31731C7.02499 7.13001 7.43872 7.03635 7.77183 6.78385C8.10495 6.53135 8.31715 6.14844 8.74392 5.38263L9.13275 4.68558Z" fill="url(#paint0_linear_8167_6363)"/>
<path d="M9.13275 4.68558C10.6347 1.9922 11.3851 0.645508 12.5078 0.645508C13.6304 0.645508 14.3808 1.9922 15.8828 4.68558L16.2716 5.38263C16.6984 6.14844 16.9118 6.53135 17.2437 6.78385C17.5756 7.03635 17.9906 7.13001 18.8204 7.31731L19.5743 7.48802C22.4906 8.14832 23.9475 8.47788 24.2949 9.5934C24.641 10.7077 23.6476 11.8707 21.6596 14.1954L21.1451 14.7964C20.5808 15.4567 20.2975 15.7875 20.1706 16.1953C20.0438 16.6042 20.0865 17.0452 20.1718 17.926L20.25 18.7286C20.55 21.831 20.7005 23.3816 19.7925 24.0703C18.8844 24.7591 17.5187 24.1308 14.7898 22.8742L14.0821 22.5494C13.3068 22.1913 12.9191 22.0135 12.5078 22.0135C12.0964 22.0135 11.7088 22.1913 10.9335 22.5494L10.2269 22.8742C7.49681 24.1308 6.13115 24.7591 5.22427 24.0715C4.31501 23.3816 4.46557 21.831 4.76549 18.7286L4.84373 17.9272C4.92909 17.0452 4.97176 16.6042 4.84373 16.1964C4.71807 15.7875 4.43475 15.4567 3.87047 14.7976L3.35597 14.1954C1.36795 11.8719 0.374526 10.7089 0.720682 9.5934C1.06684 8.47788 2.52615 8.14714 5.44239 7.48802L6.19635 7.31731C7.02499 7.13001 7.43872 7.03635 7.77183 6.78385C8.10495 6.53135 8.31715 6.14844 8.74392 5.38263L9.13275 4.68558Z" fill="url(#paint1_linear_8167_6363)"/>
<defs>
<linearGradient id="paint0_linear_8167_6363" x1="6.89597" y1="-14.9136" x2="28.8564" y2="-8.56718" gradientUnits="userSpaceOnUse">
<stop stop-color="#FFB544"/>
<stop offset="1" stop-color="#FF4F44"/>
</linearGradient>
<linearGradient id="paint1_linear_8167_6363" x1="6.89597" y1="-14.9136" x2="28.8564" y2="-8.56718" gradientUnits="userSpaceOnUse">
<stop stop-color="#FFE259"/>
<stop offset="1" stop-color="#FFA751"/>
</linearGradient>
</defs>
</svg>
