<svg width="24" height="25" viewBox="0 0 24 25" fill="none" xmlns="http://www.w3.org/2000/svg">
<g opacity="0.1">
<path d="M8.76996 4.68558C10.2719 1.9922 11.0223 0.645508 12.145 0.645508C13.2676 0.645508 14.018 1.9922 15.52 4.68558L15.9088 5.38263C16.3356 6.14844 16.549 6.53135 16.8809 6.78385C17.2128 7.03635 17.6278 7.13001 18.4576 7.31731L19.2115 7.48802C22.1278 8.14832 23.5847 8.47788 23.9321 9.5934C24.2782 10.7077 23.2848 11.8707 21.2968 14.1954L20.7823 14.7964C20.218 15.4567 19.9347 15.7875 19.8078 16.1953C19.681 16.6042 19.7237 17.0452 19.809 17.926L19.8873 18.7286C20.1872 21.831 20.3377 23.3816 19.4297 24.0703C18.5216 24.7591 17.1559 24.1308 14.427 22.8742L13.7193 22.5494C12.944 22.1913 12.5563 22.0135 12.145 22.0135C11.7336 22.0135 11.346 22.1913 10.5707 22.5494L9.86414 22.8742C7.13401 24.1308 5.76836 24.7591 4.86147 24.0715C3.95222 23.3816 4.10278 21.831 4.4027 18.7286L4.48094 17.9272C4.56629 17.0452 4.60897 16.6042 4.48094 16.1964C4.35528 15.7875 4.07195 15.4567 3.50767 14.7976L2.99318 14.1954C1.00515 11.8719 0.0117331 10.7089 0.357889 9.5934C0.704045 8.47788 2.16335 8.14714 5.0796 7.48802L5.83356 7.31731C6.6622 7.13001 7.07592 7.03635 7.40904 6.78385C7.74216 6.53135 7.95435 6.14844 8.38112 5.38263L8.76996 4.68558Z" fill="url(#paint0_linear_8167_6364)"/>
<path d="M8.76996 4.68558C10.2719 1.9922 11.0223 0.645508 12.145 0.645508C13.2676 0.645508 14.018 1.9922 15.52 4.68558L15.9088 5.38263C16.3356 6.14844 16.549 6.53135 16.8809 6.78385C17.2128 7.03635 17.6278 7.13001 18.4576 7.31731L19.2115 7.48802C22.1278 8.14832 23.5847 8.47788 23.9321 9.5934C24.2782 10.7077 23.2848 11.8707 21.2968 14.1954L20.7823 14.7964C20.218 15.4567 19.9347 15.7875 19.8078 16.1953C19.681 16.6042 19.7237 17.0452 19.809 17.926L19.8873 18.7286C20.1872 21.831 20.3377 23.3816 19.4297 24.0703C18.5216 24.7591 17.1559 24.1308 14.427 22.8742L13.7193 22.5494C12.944 22.1913 12.5563 22.0135 12.145 22.0135C11.7336 22.0135 11.346 22.1913 10.5707 22.5494L9.86414 22.8742C7.13401 24.1308 5.76836 24.7591 4.86147 24.0715C3.95222 23.3816 4.10278 21.831 4.4027 18.7286L4.48094 17.9272C4.56629 17.0452 4.60897 16.6042 4.48094 16.1964C4.35528 15.7875 4.07195 15.4567 3.50767 14.7976L2.99318 14.1954C1.00515 11.8719 0.0117331 10.7089 0.357889 9.5934C0.704045 8.47788 2.16335 8.14714 5.0796 7.48802L5.83356 7.31731C6.6622 7.13001 7.07592 7.03635 7.40904 6.78385C7.74216 6.53135 7.95435 6.14844 8.38112 5.38263L8.76996 4.68558Z" fill="black"/>
</g>
<defs>
<linearGradient id="paint0_linear_8167_6364" x1="6.53317" y1="-14.9136" x2="28.4937" y2="-8.56718" gradientUnits="userSpaceOnUse">
<stop stop-color="#FFB544"/>
<stop offset="1" stop-color="#FF4F44"/>
</linearGradient>
</defs>
</svg>
