<svg width="5" height="21" viewBox="0 0 5 21" fill="none" xmlns="http://www.w3.org/2000/svg">
<path fill-rule="evenodd" clip-rule="evenodd" d="M2.26855 0.605469C2.79899 0.605469 3.3077 0.816182 3.68277 1.19126C4.05784 1.56633 4.26855 2.07504 4.26855 2.60547C4.26855 3.1359 4.05784 3.64461 3.68277 4.01968C3.3077 4.39476 2.79899 4.60547 2.26855 4.60547C1.73812 4.60547 1.22941 4.39476 0.854342 4.01968C0.479269 3.64461 0.268555 3.1359 0.268555 2.60547C0.268555 2.07504 0.479269 1.56633 0.854342 1.19126C1.22941 0.816182 1.73812 0.605469 2.26855 0.605469Z" fill="black"/>
<path fill-rule="evenodd" clip-rule="evenodd" d="M2.26855 8.60547C2.79899 8.60547 3.3077 8.81618 3.68277 9.19126C4.05784 9.56633 4.26855 10.075 4.26855 10.6055C4.26855 11.1359 4.05784 11.6446 3.68277 12.0197C3.3077 12.3948 2.79899 12.6055 2.26855 12.6055C1.73812 12.6055 1.22941 12.3948 0.854342 12.0197C0.479269 11.6446 0.268555 11.1359 0.268555 10.6055C0.268555 10.075 0.479269 9.56633 0.854342 9.19126C1.22941 8.81618 1.73812 8.60547 2.26855 8.60547Z" fill="black"/>
<path fill-rule="evenodd" clip-rule="evenodd" d="M2.26855 16.6055C2.79899 16.6055 3.3077 16.8162 3.68277 17.1913C4.05784 17.5663 4.26855 18.075 4.26855 18.6055C4.26855 19.1359 4.05784 19.6446 3.68277 20.0197C3.3077 20.3948 2.79899 20.6055 2.26855 20.6055C1.73812 20.6055 1.22941 20.3948 0.854342 20.0197C0.479269 19.6446 0.268555 19.1359 0.268555 18.6055C0.268555 18.075 0.479269 17.5663 0.854342 17.1913C1.22941 16.8162 1.73812 16.6055 2.26855 16.6055Z" fill="black"/>
</svg>
