<svg width="26" height="26" viewBox="0 0 26 26" fill="none" xmlns="http://www.w3.org/2000/svg">
<g id="Tick">
<g id="Union" filter="url(#filter0_d_1126_5439)">
<path fill-rule="evenodd" clip-rule="evenodd" d="M12.9998 0.916992C7.98325 0.916992 3.9165 4.98374 3.9165 10.0003C3.9165 15.0169 7.98325 19.0837 12.9998 19.0837C18.0164 19.0837 22.0832 15.0169 22.0832 10.0003C22.0832 4.98374 18.0164 0.916992 12.9998 0.916992Z" fill="#DFA935"/>
<path d="M4.4165 10.0003C4.4165 5.25988 8.2594 1.41699 12.9998 1.41699V0.416992C7.70711 0.416992 3.4165 4.7076 3.4165 10.0003H4.4165ZM12.9998 18.5837C8.2594 18.5837 4.4165 14.7408 4.4165 10.0003H3.4165C3.4165 15.2931 7.70711 19.5837 12.9998 19.5837V18.5837ZM21.5832 10.0003C21.5832 14.7408 17.7403 18.5837 12.9998 18.5837V19.5837C18.2926 19.5837 22.5832 15.2931 22.5832 10.0003H21.5832ZM12.9998 1.41699C17.7403 1.41699 21.5832 5.25988 21.5832 10.0003H22.5832C22.5832 4.7076 18.2926 0.416992 12.9998 0.416992V1.41699Z" fill="white"/>
</g>
<path id="Vector" d="M9.29443 11.1407L11.0046 12.8509L16.7051 7.15039" stroke="white" stroke-width="1.5" stroke-linecap="round" stroke-linejoin="round"/>
</g>
<defs>
<filter id="filter0_d_1126_5439" x="0.416504" y="0.416992" width="25.1665" height="25.1667" filterUnits="userSpaceOnUse" color-interpolation-filters="sRGB">
<feFlood flood-opacity="0" result="BackgroundImageFix"/>
<feColorMatrix in="SourceAlpha" type="matrix" values="0 0 0 0 0 0 0 0 0 0 0 0 0 0 0 0 0 0 127 0" result="hardAlpha"/>
<feOffset dy="3"/>
<feGaussianBlur stdDeviation="1.5"/>
<feComposite in2="hardAlpha" operator="out"/>
<feColorMatrix type="matrix" values="0 0 0 0 0 0 0 0 0 0 0 0 0 0 0 0 0 0 0.07 0"/>
<feBlend mode="normal" in2="BackgroundImageFix" result="effect1_dropShadow_1126_5439"/>
<feBlend mode="normal" in="SourceGraphic" in2="effect1_dropShadow_1126_5439" result="shape"/>
</filter>
</defs>
</svg>
