<svg width="123" height="123" viewBox="0 0 123 123" fill="none" xmlns="http://www.w3.org/2000/svg">
<circle cx="61.6281" cy="61.5451" r="60.6301" fill="#EBE7E7" stroke="white"/>
<g opacity="0.9">
<path fill-rule="evenodd" clip-rule="evenodd" d="M61.995 2C95.1315 2 121.99 28.8585 121.99 61.995C121.99 95.1315 95.1315 121.99 61.995 121.99C28.8585 121.99 2 95.1315 2 61.995C2 28.8585 28.8585 2 61.995 2Z" fill="#FDECC1"/>
<mask id="mask0_1173_33735" style="mask-type:alpha" maskUnits="userSpaceOnUse" x="2" y="2" width="120" height="120">
<path fill-rule="evenodd" clip-rule="evenodd" d="M61.995 2C95.1315 2 121.99 28.8585 121.99 61.995C121.99 95.1315 95.1315 121.99 61.995 121.99C28.8585 121.99 2 95.1315 2 61.995C2 28.8585 28.8585 2 61.995 2Z" fill="#FFFAED"/>
</mask>
<g mask="url(#mask0_1173_33735)">
<path fill-rule="evenodd" clip-rule="evenodd" d="M37.7954 78.0753C31.4528 53.3861 39.6343 16.2209 57.1124 18.9874C82.3378 11.2992 91.6023 50.1693 82.8096 76.4722C82.0107 76.3918 54.8338 65.6905 37.79 78.0753H37.7954Z" fill="#3D3D3D"/>
<path fill-rule="evenodd" clip-rule="evenodd" d="M49.4271 61.6902C49.4271 61.6902 51.7432 77.8173 49.0465 82.3477C44.6019 87.9986 37.2192 89.6177 26.6895 94.7432C34.9245 113.937 44.0925 124.606 53.2123 128.493C55.3193 128.708 57.4531 128.82 59.6138 128.82C63.5222 128.82 67.3449 128.45 71.0496 127.759C80.491 122.971 89.0692 111.428 95.4868 95.4027C79.1667 86.1435 78.3357 86.7494 74.2557 82.3906C72.0147 79.9887 71.1783 73.8767 70.8405 60.7734L49.4218 61.6956L49.4271 61.6902Z" fill="#FEEFE3"/>
<path fill-rule="evenodd" clip-rule="evenodd" d="M49.6973 63.8076L71.0678 66.8207C71.5074 75.8332 72.3974 80.3958 74.2632 82.3902C74.3168 82.4438 74.365 82.5028 74.4186 82.5564C59.6802 87.1886 52.4691 77.4095 50.1959 69.2923C50.0565 67.1531 49.8635 65.1962 49.7026 63.8076H49.6973Z" fill="#FFE4D1"/>
<path fill-rule="evenodd" clip-rule="evenodd" d="M42.957 46.0459C41.3432 46.0459 40.3782 49.6756 41.2896 53.1873C42.2011 56.699 42.6997 59.8568 44.3134 59.8622C45.9272 59.8622 45.2142 57.589 45.2249 53.4875C45.2356 49.386 44.5708 46.0513 42.957 46.0459Z" fill="#FEEFE3"/>
<path fill-rule="evenodd" clip-rule="evenodd" d="M43.4617 47.3485C42.7379 47.2627 42.2661 49.1767 42.0945 50.1525C41.9176 51.1283 41.939 53.7446 42.4966 55.0743C42.947 56.1519 43.6225 59.0417 43.9388 55.5782C44.0192 54.6882 43.5635 54.5059 43.3812 53.4122C43.199 52.3185 43.7351 51.6108 44.0085 51.3052C45.0486 50.1364 44.1479 47.4289 43.4563 47.3485H43.4617Z" fill="#FFE4D1"/>
<path fill-rule="evenodd" clip-rule="evenodd" d="M79.4256 46.0908C81.0394 46.0908 81.983 49.7366 81.0555 53.2429C80.128 56.7493 79.6133 59.9018 77.9995 59.8964C76.3857 59.8964 77.1095 57.6178 77.1202 53.5164C77.1309 49.4149 77.8118 46.0855 79.4256 46.0908Z" fill="#FEEFE3"/>
<path fill-rule="evenodd" clip-rule="evenodd" d="M78.9099 47.3931C79.6336 47.3127 80.0947 49.2267 80.2663 50.2078C80.4379 51.1889 80.4003 53.7999 79.8374 55.1296C79.3816 56.2072 78.6954 59.0863 78.3898 55.6228C78.3147 54.7328 78.7705 54.5505 78.9581 53.4568C79.1458 52.3631 78.615 51.65 78.3415 51.3444C77.3068 50.1703 78.2182 47.4681 78.9099 47.3931Z" fill="#FFE4D1"/>
<path fill-rule="evenodd" clip-rule="evenodd" d="M61.1057 24.8283C79.5167 24.8283 77.9243 35.7763 77.8814 50.7614C77.8386 65.7465 67.609 75.7186 60.7947 75.1182C54.6398 74.9037 44.3674 66.2075 44.4103 51.2224C44.4425 39.7705 45.5684 29.7072 53.5247 25.9167C55.9748 24.7479 56.7737 24.8283 61.111 24.8283H61.1057Z" fill="#FEEFE3"/>
<path fill-rule="evenodd" clip-rule="evenodd" d="M43.7921 46.0204C49.2875 45.822 58.5734 44.9213 69.6608 45.5325C70.0736 44.0313 69.8913 44.5836 70.2076 42.0798C70.4971 43.9456 70.5079 44.0099 70.6633 45.6344C72.5774 45.7845 76.2285 46.0848 78.2604 46.326C80.6623 34.5202 74.738 21.6904 59.3669 21.6904C43.8886 24.339 43.465 29.0623 43.7867 46.0204H43.7921Z" fill="#3D3D3D"/>
<path fill-rule="evenodd" clip-rule="evenodd" d="M106.741 133.949L106.339 104.795C105.524 100.496 100.704 95.9117 96.2006 94.1156C90.2227 91.2151 85.9175 90.2125 80.4381 87.0332C73.8114 114.398 44.0075 106.334 42.828 87.1672C34.9628 90.0463 33.8048 90.9202 25.6769 94.0727C25.6769 94.0834 16.9539 96.9089 14.745 105.61L14 135.68C25.2804 148.065 41.5415 155.839 59.6147 155.839C77.6879 155.839 95.4234 147.336 106.741 133.954V133.949Z" fill="#FFC444"/>
<path d="M36.8932 88.6689L27.2715 92.6504L29.594 132.796C35.6988 116.34 37.778 95.9682 36.8932 88.6689Z" fill="#FF7739"/>
<path d="M84.5325 88.6689L94.1543 92.6504L91.8318 132.796C85.727 116.34 83.6478 95.9682 84.5325 88.6689Z" fill="#FF7739"/>
</g>
</g>
</svg>
