<svg width="86" height="25" viewBox="0 0 86 25" fill="none" xmlns="http://www.w3.org/2000/svg">
<g id="logos:yahoo" clip-path="url(#clip0_4465_11491)">
<path id="Vector" d="M0.0351562 6.2066H5.14984L8.11879 13.8134L11.1314 6.2066H16.116L8.61725 24.2378H3.61099L5.66995 19.4699L0.0351562 6.2066ZM21.2955 5.90316C17.4595 5.90316 15.0323 9.3491 15.0323 12.7732C15.0323 16.6308 17.698 19.6867 21.2305 19.6867C23.8745 19.6867 24.8715 18.0829 24.8715 18.0829V19.34H29.3358V6.2066H24.8715V7.39855C24.8496 7.39855 23.7445 5.90316 21.2955 5.90316ZM22.2491 10.1292C24.0263 10.1292 24.9364 11.538 24.9364 12.7949C24.9364 14.1602 23.9613 15.504 22.2491 15.504C20.8405 15.504 19.5618 14.3554 19.5618 12.86C19.5618 11.3428 20.5805 10.1292 22.2491 10.1292ZM30.853 19.34V0.398438H35.5125V7.44185C35.5125 7.44185 36.6177 5.90316 38.9366 5.90316C41.7757 5.90316 43.4446 8.02708 43.4446 11.0395V19.34H38.8066V12.1665C38.8066 11.1478 38.3299 10.1508 37.2246 10.1508C36.0976 10.1508 35.5125 11.1478 35.5125 12.1665V19.34H30.853ZM51.3982 5.90333C46.9986 5.90333 44.3764 9.24084 44.3764 12.8385C44.3764 16.9128 47.5406 19.7085 51.4198 19.7085C55.1692 19.7085 58.4416 17.0429 58.4416 12.9034C58.4416 8.37399 54.9957 5.90333 51.3982 5.90333ZM51.4415 10.1512C53.0018 10.1512 54.0639 11.4514 54.0639 12.8167C54.0639 13.987 53.0669 15.4391 51.4415 15.4391C49.9461 15.4391 48.8409 14.2471 48.8409 12.795C48.8409 11.4297 49.7511 10.1512 51.4415 10.1512ZM66.2003 5.90316C61.8008 5.90316 59.1784 9.24067 59.1784 12.8383C59.1784 16.9126 62.3425 19.7084 66.222 19.7084C69.9713 19.7084 73.2437 17.0427 73.2437 12.9033C73.2437 8.37382 69.8194 5.90316 66.2003 5.90316ZM66.2436 10.151C67.8039 10.151 68.866 11.4512 68.866 12.8165C68.866 13.9868 67.8691 15.4389 66.2436 15.4389C64.7482 15.4389 63.6429 14.2469 63.6429 12.7949C63.6429 11.4295 64.5749 10.151 66.2436 10.151ZM76.9278 13.4232C78.64 13.4232 80.027 14.8102 80.027 16.5224C80.027 18.2343 78.64 19.6214 76.928 19.6214C75.2159 19.6214 73.8288 18.2345 73.8288 16.5224C73.8288 14.8102 75.2159 13.4232 76.928 13.4232M81.0459 12.2962H75.4757L80.4172 0.398438H85.9652L81.0459 12.2962Z" fill="#5F01D1"/>
</g>
<defs>
<clipPath id="clip0_4465_11491">
<rect width="85.9301" height="24" fill="white" transform="translate(0.0351562 0.398438)"/>
</clipPath>
</defs>
</svg>
