<svg width="87" height="84" viewBox="0 0 87 84" fill="none" xmlns="http://www.w3.org/2000/svg">
<path d="M65.2608 -0.00854492H22.9445C19.5709 -0.00854492 16.8359 2.72636 16.8359 6.10005V77.8999C16.8359 81.2736 19.5708 84.0085 22.9445 84.0085H80.0959C83.4696 84.0085 86.2045 81.2736 86.2045 77.8999V20.9352L65.2608 -0.00854492Z" fill="#D9D9D9"/>
<path d="M65.2608 -0.00854492H22.9445C19.5709 -0.00854492 16.8359 2.72636 16.8359 6.10005V77.8999C16.8359 81.2736 19.5708 84.0085 22.9445 84.0085H80.0959C83.4696 84.0085 86.2045 81.2736 86.2045 77.8999V20.9352L65.2608 -0.00854492Z" fill="url(#paint0_linear_2875_9957)"/>
<path d="M65.2559 15.0309V0.00170898L86.2835 21.1395H71.3645C67.9908 21.1395 65.2559 18.4045 65.2559 15.0309Z" fill="#D9D9D9"/>
<path d="M65.2559 15.0309V0.00170898L86.2835 21.1395H71.3645C67.9908 21.1395 65.2559 18.4045 65.2559 15.0309Z" fill="url(#paint1_linear_2875_9957)"/>
<path d="M51.4824 39.0261H71.8134" stroke="white" stroke-width="4" stroke-linecap="round"/>
<path d="M31.1523 51.0261H71.8141" stroke="white" stroke-width="4" stroke-linecap="round"/>
<path d="M31.1523 68.7975L39.0326 63.0261L45.9671 71.1585L53.5321 63.0261L59.8362 68.7975H71.8141" stroke="white" stroke-width="4" stroke-linecap="round"/>
<rect x="0.716797" y="-0.00854492" width="35.7285" height="35.7285" rx="17.8642" fill="#FF0000"/>
<path d="M12.4531 23.9846L24.7107 11.7271" stroke="white" stroke-width="2" stroke-linecap="round" stroke-linejoin="round"/>
<path d="M24.7109 23.9846L12.4533 11.7271" stroke="white" stroke-width="2" stroke-linecap="round" stroke-linejoin="round"/>
<defs>
<linearGradient id="paint0_linear_2875_9957" x1="66.6198" y1="11.5914" x2="25.5315" y2="84.0085" gradientUnits="userSpaceOnUse">
<stop stop-color="#FFC5C5"/>
<stop offset="0.989" stop-color="#FF7676"/>
</linearGradient>
<linearGradient id="paint1_linear_2875_9957" x1="80.3468" y1="2.92013" x2="71.0637" y2="22.6332" gradientUnits="userSpaceOnUse">
<stop stop-color="#FFC5C5"/>
<stop offset="0.989" stop-color="#FF7676"/>
</linearGradient>
</defs>
</svg>
