<svg width="57" height="45" viewBox="0 0 57 45" fill="none" xmlns="http://www.w3.org/2000/svg">
<g id="logos:mastercard" clip-path="url(#clip0_1776_53640)">
<path id="Vector" d="M10.3435 44.4967V41.5703C10.3435 40.4483 9.66054 39.7168 8.48986 39.7168C7.90463 39.7168 7.27052 39.9119 6.83149 40.546C6.49022 40.0095 6.00253 39.7168 5.27088 39.7168C4.78296 39.7168 4.2955 39.863 3.90512 40.3996V39.8144H2.88086V44.4967H3.90512V41.9116C3.90512 41.0826 4.34415 40.6922 5.02714 40.6922C5.70969 40.6922 6.05141 41.1313 6.05141 41.9116V44.4967H7.07567V41.9116C7.07567 41.0826 7.56314 40.6922 8.19725 40.6922C8.88023 40.6922 9.22151 41.1313 9.22151 41.9116V44.4967H10.3435ZM25.5122 39.8144H23.854V38.4H22.8297V39.8144H21.903V40.7409H22.8295V42.8872C22.8295 43.9603 23.2686 44.5942 24.4392 44.5942C24.8783 44.5942 25.3657 44.448 25.7075 44.2529L25.4146 43.3749C25.122 43.5699 24.7807 43.6188 24.5368 43.6188C24.0491 43.6188 23.854 43.3262 23.854 42.8383V40.7409H25.5122V39.8144ZM34.1942 39.7166C33.6089 39.7166 33.2188 40.0095 32.9748 40.3996V39.8144H31.9506V44.4967H32.9748V41.8629C32.9748 41.0826 33.3161 40.6436 33.9502 40.6436C34.1453 40.6436 34.3892 40.6925 34.5843 40.7411L34.8769 39.7657C34.6819 39.7168 34.3892 39.7168 34.1942 39.7168V39.7166ZM21.0738 40.2045C20.5859 39.863 19.9032 39.7168 19.1715 39.7168C18.0011 39.7168 17.2207 40.3021 17.2207 41.2288C17.2207 42.0093 17.806 42.4481 18.8302 42.5946L19.3179 42.6434C19.8545 42.7408 20.1471 42.8872 20.1471 43.1311C20.1471 43.4724 19.757 43.7164 19.074 43.7164C18.3912 43.7164 17.8546 43.4724 17.5131 43.2287L17.0254 44.009C17.562 44.3991 18.2937 44.5942 19.0251 44.5942C20.3909 44.5942 21.1714 43.9603 21.1714 43.0822C21.1714 42.2531 20.5373 41.814 19.5617 41.6678L19.074 41.619C18.6349 41.5701 18.2937 41.4728 18.2937 41.1801C18.2937 40.8386 18.6349 40.6436 19.1715 40.6436C19.757 40.6436 20.3422 40.8873 20.6348 41.0337L21.0738 40.2045ZM48.2901 39.7168C47.7046 39.7168 47.3145 40.0095 47.0705 40.3996V39.8144H46.0463V44.4967H47.0705V41.8629C47.0705 41.0826 47.412 40.6436 48.0459 40.6436C48.2412 40.6436 48.4852 40.6925 48.6803 40.7411L48.9729 39.7657C48.7778 39.7168 48.4852 39.7168 48.2901 39.7168ZM35.2184 42.1555C35.2184 43.5699 36.1938 44.5942 37.706 44.5942C38.3888 44.5942 38.8764 44.448 39.3641 44.0578L38.8764 43.2287C38.4863 43.5213 38.0961 43.6675 37.6571 43.6675C36.8279 43.6675 36.2427 43.0822 36.2427 42.1555C36.2427 41.2777 36.8279 40.6922 37.6571 40.6436C38.0961 40.6436 38.4863 40.7898 38.8764 41.0826L39.3641 40.2534C38.8764 39.863 38.3888 39.7168 37.706 39.7168C36.1938 39.7168 35.2184 40.7411 35.2184 42.1555ZM44.6807 42.1555V39.8144H43.6565V40.3996C43.315 39.9608 42.8273 39.7168 42.1932 39.7168C40.8763 39.7168 39.852 40.7411 39.852 42.1555C39.852 43.5699 40.8763 44.5942 42.1932 44.5942C42.876 44.5942 43.3639 44.3505 43.6565 43.9114V44.4967H44.6807V42.1555ZM40.925 42.1555C40.925 41.3263 41.4615 40.6436 42.3394 40.6436C43.1686 40.6436 43.754 41.2777 43.754 42.1555C43.754 42.9847 43.1686 43.6675 42.3394 43.6675C41.4615 43.6186 40.925 42.9847 40.925 42.1555ZM28.6827 39.7168C27.3169 39.7168 26.3413 40.6922 26.3413 42.1555C26.3413 43.6188 27.3167 44.5942 28.7314 44.5942C29.4141 44.5942 30.0971 44.3991 30.6337 43.9603L30.1458 43.2287C29.7556 43.5213 29.2679 43.7164 28.7802 43.7164C28.1461 43.7164 27.512 43.4237 27.3656 42.5943H30.8288V42.2044C30.8776 40.6922 29.9998 39.7168 28.6827 39.7168ZM28.6827 40.5947C29.3166 40.5947 29.7558 40.9851 29.8532 41.7167H27.4145C27.512 41.0826 27.9511 40.5947 28.6827 40.5947ZM54.0942 42.1555V37.9609H53.0699V40.3996C52.7284 39.9608 52.2407 39.7168 51.6066 39.7168C50.2897 39.7168 49.2655 40.7411 49.2655 42.1555C49.2655 43.5699 50.2897 44.5942 51.6066 44.5942C52.2896 44.5942 52.7773 44.3505 53.0699 43.9114V44.4967H54.0942V42.1555ZM50.3386 42.1555C50.3386 41.3263 50.875 40.6436 51.753 40.6436C52.5822 40.6436 53.1674 41.2777 53.1674 42.1555C53.1674 42.9847 52.5822 43.6675 51.753 43.6675C50.875 43.6186 50.3386 42.9847 50.3386 42.1555ZM16.0987 42.1555V39.8144H15.0745V40.3996C14.733 39.9608 14.2453 39.7168 13.6112 39.7168C12.2943 39.7168 11.27 40.7411 11.27 42.1555C11.27 43.5699 12.2943 44.5942 13.6112 44.5942C14.2942 44.5942 14.7818 44.3505 15.0745 43.9114V44.4967H16.0987V42.1555ZM12.2943 42.1555C12.2943 41.3263 12.8309 40.6436 13.7087 40.6436C14.5379 40.6436 15.1233 41.2777 15.1233 42.1555C15.1233 42.9847 14.5379 43.6675 13.7087 43.6675C12.8309 43.6186 12.2943 42.9847 12.2943 42.1555Z" fill="black"/>
<path id="Vector_2" d="M20.7334 4.25366H36.0973V31.8601H20.7334V4.25366Z" fill="#FF5F00"/>
<path id="Vector_3" d="M21.7048 18.0589C21.7048 12.4499 24.3386 7.47476 28.3867 4.25555C25.4117 1.91441 21.6561 0.5 17.5591 0.5C7.8526 0.5 0 8.3526 0 18.0589C0 27.7649 7.8526 35.6177 17.5589 35.6177C21.6559 35.6177 25.4115 34.2033 28.3867 31.862C24.3386 28.6916 21.7048 23.6679 21.7048 18.0589Z" fill="#EB001B"/>
<path id="Vector_4" d="M56.8213 18.0589C56.8213 27.7649 48.9687 35.6177 39.2624 35.6177C35.1654 35.6177 31.4098 34.2033 28.4346 31.862C32.5316 28.643 35.1167 23.6679 35.1167 18.0589C35.1167 12.4499 32.4827 7.47476 28.4346 4.25555C31.4096 1.91441 35.1654 0.5 39.2624 0.5C48.9687 0.5 56.8213 8.40148 56.8213 18.0589Z" fill="#F79E1B"/>
</g>
<defs>
<clipPath id="clip0_1776_53640">
<rect width="56.8787" height="44.2143" fill="white" transform="translate(0 0.5)"/>
</clipPath>
</defs>
</svg>
