<svg width="24" height="24" viewBox="0 0 24 24" fill="none" xmlns="http://www.w3.org/2000/svg">
<g id="Frame">
<path id="Vector" d="M11.6058 5.78239L11.8358 3.41339C11.9268 2.46139 12.8158 1.81539 13.7138 2.04739C15.0648 2.39739 16.0138 3.65239 16.0138 5.09139V8.12639C16.0138 8.80139 16.0138 9.13939 16.1598 9.38639C16.2428 9.52739 16.3568 9.64639 16.4928 9.73139C16.7328 9.88239 17.0598 9.88239 17.7128 9.88239H18.1088C19.8118 9.88239 20.6628 9.88239 21.1868 10.2724C21.5798 10.5654 21.8568 10.9944 21.9668 11.4804C22.1128 12.1304 21.7858 12.9434 21.1308 14.5674L20.8048 15.3774C20.6157 15.8465 20.5383 16.3532 20.5788 16.8574C20.8108 19.7314 18.5318 22.1524 15.7458 21.9934L5.32176 21.3944C4.18276 21.3294 3.61376 21.2964 3.09976 20.8414C2.58476 20.3864 2.48776 19.9174 2.29476 18.9804C1.884 16.987 1.90275 14.929 2.34976 12.9434C2.63276 11.6954 3.82476 11.0234 5.05576 11.1834C8.31976 11.6034 11.2788 9.16339 11.6058 5.78239Z" stroke="#222222" stroke-linecap="round" stroke-linejoin="round"/>
<path id="Vector_2" d="M6.99929 11.5L6.86229 11.957C5.9754 14.9135 6.02324 18.0717 6.99929 21" stroke="#222222" stroke-linecap="round" stroke-linejoin="round"/>
</g>
</svg>
