<?xml version="1.0" standalone="no"?>
<!DOCTYPE svg PUBLIC "-//W3C//DTD SVG 20010904//EN"
 "http://www.w3.org/TR/2001/REC-SVG-20010904/DTD/svg10.dtd">
<svg version="1.0" xmlns="http://www.w3.org/2000/svg"
 width="656.000000pt" height="656.000000pt" viewBox="0 0 656.000000 656.000000"
 preserveAspectRatio="xMidYMid meet">
<metadata>
Created by potrace 1.14, written by Peter Selinger 2001-2017
</metadata>
<g transform="translate(0.000000,656.000000) scale(0.100000,-0.100000)"
fill="#000000" stroke="none">
<path d="M3297 5944 c-2 -3 -51 -7 -108 -10 -105 -5 -123 -6 -214 -19 -64 -8
-238 -42 -290 -56 -22 -6 -47 -13 -55 -14 -8 -2 -34 -10 -58 -19 -23 -8 -43
-15 -45 -15 -4 0 -31 -9 -107 -37 -41 -16 -77 -29 -80 -30 -11 -2 -89 -38
-160 -73 -381 -189 -692 -447 -947 -787 -37 -49 -73 -99 -80 -110 -51 -82
-126 -208 -148 -249 l-26 -50 -422 -1 c-232 -1 -427 -2 -433 -3 -6 0 -10 -26
-9 -63 l0 -63 380 -2 c209 -1 390 -2 402 -2 l22 -1 -20 -47 c-38 -88 -108
-313 -125 -398 -2 -11 -6 -31 -10 -45 -3 -14 -7 -38 -10 -55 -3 -16 -9 -50
-14 -75 -5 -25 -12 -76 -15 -115 -4 -38 -8 -86 -10 -105 -2 -19 -4 -40 -4 -46
-1 -7 -91 -10 -287 -10 -157 1 -291 -2 -297 -6 -6 -4 -12 -34 -12 -67 l-2 -61
299 0 298 0 1 -57 c1 -135 19 -312 44 -433 3 -14 10 -45 15 -70 20 -96 66
-265 80 -290 7 -13 6 -19 -3 -22 -6 -2 -169 -4 -362 -3 -192 1 -355 0 -360 -2
-6 -2 -11 -31 -10 -66 l0 -62 370 -2 c204 -1 383 -2 398 -2 23 -1 31 -8 44
-39 88 -214 232 -441 430 -681 33 -40 171 -178 237 -238 182 -165 465 -345
696 -443 41 -18 84 -36 95 -41 34 -15 238 -82 275 -90 19 -4 53 -12 75 -18 22
-5 56 -13 75 -16 19 -3 42 -8 50 -10 20 -6 69 -14 121 -20 24 -3 60 -7 79 -10
28 -4 204 -16 245 -17 36 0 292 13 314 17 14 2 49 7 76 11 77 9 91 12 127 19
75 14 134 28 158 36 14 5 36 10 50 13 14 2 73 20 131 39 692 232 1240 716
1552 1368 25 52 47 100 49 108 3 12 66 14 373 14 l370 0 1 66 1 66 -336 0
c-185 -1 -339 0 -343 2 -3 2 1 24 9 50 25 78 81 295 87 338 6 40 12 73 21 130
9 57 23 241 24 318 l1 37 268 0 267 0 1 63 c1 34 -2 64 -7 67 -4 3 -126 5
-271 4 l-263 0 -1 25 c-2 63 -17 191 -31 266 -3 22 -7 45 -8 50 -11 96 -86
359 -144 503 -15 37 -17 52 -8 53 6 0 174 1 372 2 l360 2 1 63 c1 34 -2 63 -5
63 -3 1 -185 2 -404 3 l-399 1 -40 75 c-39 74 -141 240 -165 270 -6 8 -33 44
-60 80 -26 36 -52 70 -58 76 -5 6 -35 40 -65 75 -66 75 -224 229 -295 287
-390 316 -813 502 -1315 578 -70 10 -105 13 -245 19 -71 4 -135 8 -142 10 -6
2 -13 1 -16 -1z m263 -548 c19 -3 60 -8 90 -12 30 -3 59 -8 63 -11 5 -3 21 -6
35 -8 132 -15 373 -100 562 -197 202 -105 341 -209 520 -388 86 -86 250 -283
250 -301 0 -6 -3467 -5 -3474 1 -19 20 282 357 403 451 24 19 48 39 55 45 6 5
53 38 104 73 281 189 630 316 952 347 36 3 66 7 68 8 4 5 337 -2 372 -8z
m1633 -1107 c50 -87 136 -301 162 -404 5 -16 9 -34 11 -40 25 -90 50 -232 60
-340 l6 -61 -2092 0 -2092 0 6 76 c6 76 12 115 22 160 3 14 8 38 10 53 13 107
104 368 179 517 43 86 46 89 82 92 21 2 843 2 1826 2 l1789 -2 31 -53z m241
-1041 c-2 -66 -12 -185 -19 -228 -2 -14 -6 -43 -10 -65 -9 -64 -34 -164 -62
-255 -15 -47 -27 -90 -29 -96 -1 -6 -9 -27 -17 -45 -8 -19 -24 -54 -35 -79
l-19 -45 -1901 0 c-1243 0 -1904 4 -1910 10 -9 10 -28 55 -69 165 -24 64 -71
232 -78 280 -3 14 -7 36 -10 50 -5 25 -8 41 -20 130 -3 25 -7 89 -9 143 l-4
97 2097 0 2097 0 -2 -62z m-268 -950 c8 -9 -100 -188 -118 -196 -5 -2 -8 -10
-8 -17 0 -7 -3 -15 -8 -17 -4 -1 -23 -23 -42 -48 -104 -134 -253 -281 -380
-376 -104 -77 -158 -114 -166 -114 -4 0 -15 -6 -23 -14 -26 -23 -198 -109
-296 -148 -144 -57 -292 -100 -425 -123 -35 -6 -47 -8 -155 -21 -81 -10 -301
-10 -400 -1 -108 10 -125 13 -244 38 -31 6 -60 12 -66 14 -45 9 -206 60 -248
78 -18 8 -61 27 -97 41 -289 120 -616 377 -814 640 -96 127 -176 260 -160 266
18 7 3643 4 3650 -2z"/>
</g>
</svg>
