<svg width="25" height="25" viewBox="0 0 25 25" fill="none" xmlns="http://www.w3.org/2000/svg">
<circle cx="12.1113" cy="12.5" r="12" fill="#ECECEC"/>
<path d="M12.111 12.5051V18.5051M12.111 12.5051L10.4443 13.8385M12.111 12.5051L13.7777 13.8385" stroke="#222222" stroke-linecap="round" stroke-linejoin="round"/>
<path d="M7.46714 10.5833C6.83661 10.7419 6.28572 11.1254 5.91798 11.6615C5.55023 12.1977 5.39093 12.8498 5.47001 13.4951C5.54909 14.1405 5.86111 14.7347 6.34745 15.1663C6.83379 15.5978 7.46096 15.8369 8.11114 15.8386H8.77781" stroke="#222222" stroke-linecap="round" stroke-linejoin="round"/>
<path d="M14.6651 9.26377C14.4372 8.36148 13.8748 7.5796 13.0918 7.07661C12.3089 6.57362 11.3639 6.38716 10.4486 6.55504C9.53325 6.72291 8.71599 7.23256 8.16247 7.98066C7.60895 8.72876 7.3606 9.65935 7.46776 10.5838C7.46776 10.5838 7.56976 11.1718 7.77843 11.5051" stroke="#222222" stroke-linecap="round" stroke-linejoin="round"/>
<path d="M15.445 15.8383C15.9157 15.838 16.381 15.738 16.8102 15.5449C17.2395 15.3518 17.623 15.0699 17.9355 14.7179C18.248 14.366 18.4824 13.9518 18.6232 13.5027C18.7641 13.0535 18.8083 12.5797 18.7528 12.1123C18.6974 11.6448 18.5436 11.1945 18.3015 10.7908C18.0595 10.3871 17.7347 10.0393 17.3485 9.77015C16.9623 9.50105 16.5235 9.31678 16.061 9.22947C15.5985 9.14217 15.1227 9.15381 14.665 9.26363L13.7783 9.50496" stroke="#222222" stroke-linecap="round" stroke-linejoin="round"/>
</svg>
