<svg width="19" height="19" viewBox="0 0 19 19" fill="none" xmlns="http://www.w3.org/2000/svg">
<path opacity="0.33" d="M12.2807 12.9555L8.98877 9.6636V4.12207H10.1666V9.17481L13.1111 12.1252L12.2807 12.9555Z" fill="#333333"/>
<path opacity="0.33" d="M9.57758 1.17773C8.47925 1.17789 7.39213 1.39844 6.38059 1.82632C5.36904 2.25421 4.45364 2.88072 3.6886 3.66877V1.17773H2.5108V5.88892H7.22198V4.71112H4.32461C5.4294 3.48344 6.92929 2.6815 8.5638 2.44457C10.1983 2.20765 11.8642 2.5507 13.2721 3.41416C14.68 4.27761 15.741 5.60692 16.2708 7.17122C16.8007 8.73552 16.7659 10.436 16.1724 11.9773C15.579 13.5186 14.4645 14.8034 13.0225 15.6085C11.5804 16.4136 9.90191 16.6882 8.27846 16.3846C6.65502 16.081 5.18919 15.2183 4.13557 13.9465C3.08194 12.6746 2.50707 11.0739 2.5108 9.4223H1.33301C1.33301 11.0529 1.81654 12.6469 2.72247 14.0027C3.62839 15.3586 4.91602 16.4153 6.42252 17.0393C7.92901 17.6633 9.58672 17.8266 11.186 17.5085C12.7853 17.1903 14.2543 16.4051 15.4074 15.2521C16.5604 14.0991 17.3456 12.63 17.6637 11.0307C17.9818 9.43145 17.8186 7.77374 17.1946 6.26724C16.5706 4.76075 15.5138 3.47312 14.158 2.56719C12.8022 1.66127 11.2082 1.17773 9.57758 1.17773Z" fill="#333333"/>
</svg>
