<svg width="18" height="19" viewBox="0 0 18 19" fill="none" xmlns="http://www.w3.org/2000/svg">
<path d="M8.64631 0C6.29833 0 6.00366 0.0112448 5.08146 0.0572104C4.16107 0.103374 3.53281 0.262972 2.9831 0.497138C2.41447 0.739002 1.93211 1.06254 1.45156 1.58907C0.97065 2.11542 0.675261 2.64373 0.453716 3.26634C0.239373 3.86863 0.0934809 4.55693 0.0520541 5.56463C0.010807 6.5747 0 6.89764 0 9.46937C0 12.041 0.0104469 12.3628 0.0522345 13.3729C0.0945619 14.381 0.240279 15.0691 0.453892 15.6712C0.674896 16.294 0.970292 16.8223 1.45102 17.3486C1.9314 17.8754 2.41374 18.1997 2.98202 18.4416C3.5321 18.6758 4.16053 18.8354 5.08074 18.8815C6.00294 18.9275 6.29743 18.9387 8.64528 18.9387C10.9934 18.9387 11.2872 18.9275 12.2094 18.8815C13.1298 18.8354 13.7587 18.6758 14.3089 18.4416C14.8773 18.1997 15.3589 17.8754 15.8393 17.3486C16.3203 16.8223 16.6156 16.294 16.8372 15.6714C17.0497 15.0691 17.1956 14.3808 17.2388 13.3731C17.2802 12.363 17.291 12.041 17.291 9.46937C17.291 6.89764 17.2802 6.57489 17.2388 5.56483C17.1956 4.55674 17.0497 3.86863 16.8372 3.26654C16.6156 2.64373 16.3203 2.11542 15.8393 1.58907C15.3584 1.06235 14.8775 0.73881 14.3083 0.497138C13.7571 0.262972 13.1286 0.103374 12.2082 0.0572104C11.286 0.0112448 10.9924 0 8.6436 0H8.64631ZM7.87077 1.70646C8.10092 1.70607 8.3578 1.70646 8.64631 1.70646C10.9547 1.70646 11.2283 1.71553 12.1399 1.76091C12.9828 1.80312 13.4404 1.95739 13.7451 2.08701C14.1486 2.25864 14.4362 2.46381 14.7386 2.79523C15.0412 3.12667 15.2285 3.44231 15.3856 3.88421C15.504 4.21761 15.6449 4.7187 15.6833 5.64196C15.7248 6.64019 15.7337 6.94005 15.7337 9.46721C15.7337 11.9943 15.7248 12.2942 15.6833 13.2924C15.6448 14.2157 15.504 14.7167 15.3856 15.0502C15.2289 15.4921 15.0412 15.8067 14.7386 16.1379C14.436 16.4694 14.1487 16.6746 13.7451 16.8462C13.4407 16.9764 12.9828 17.1303 12.1399 17.1725C11.2285 17.2179 10.9547 17.2277 8.64631 17.2277C6.33777 17.2277 6.06418 17.2179 5.15279 17.1725C4.30984 17.1299 3.85234 16.9756 3.54741 16.846C3.14394 16.6743 2.85575 16.4692 2.55316 16.1378C2.25056 15.8063 2.06324 15.4915 1.90618 15.0494C1.78784 14.716 1.64681 14.2149 1.60844 13.2916C1.56702 12.2934 1.55873 11.9935 1.55873 9.46481C1.55873 6.93611 1.56702 6.63783 1.60844 5.63959C1.64699 4.71633 1.78784 4.21524 1.90618 3.88145C2.06288 3.43955 2.25056 3.1239 2.55316 2.79247C2.85575 2.46105 3.14394 2.25587 3.54741 2.08385C3.85217 1.95365 4.30984 1.79977 5.15279 1.75735C5.95035 1.7179 6.25942 1.70607 7.87077 1.70409V1.70646ZM13.2613 3.27876C12.6885 3.27876 12.2238 3.78715 12.2238 4.41469C12.2238 5.04204 12.6885 5.55102 13.2613 5.55102C13.834 5.55102 14.2988 5.04204 14.2988 4.41469C14.2988 3.78735 13.834 3.27876 13.2613 3.27876ZM8.64631 4.60645C6.1944 4.60645 4.20645 6.78381 4.20645 9.46937C4.20645 12.1549 6.1944 14.3313 8.64631 14.3313C11.0983 14.3313 13.0855 12.1549 13.0855 9.46937C13.0855 6.78381 11.0983 4.60645 8.64631 4.60645ZM8.64631 6.31291C10.2378 6.31291 11.5282 7.72601 11.5282 9.46937C11.5282 11.2125 10.2378 12.6258 8.64631 12.6258C7.05462 12.6258 5.76446 11.2125 5.76446 9.46937C5.76446 7.72601 7.05462 6.31291 8.64631 6.31291Z" fill="white"/>
</svg>
