<svg width="19" height="21" viewBox="0 0 19 21" fill="none" xmlns="http://www.w3.org/2000/svg">
<g id="Frame" clip-path="url(#clip0_853_53514)">
<path id="Vector" fill-rule="evenodd" clip-rule="evenodd" d="M1.29102 3.1159C1.29102 2.70967 1.43833 2.32009 1.70055 2.03285C1.96277 1.7456 2.31842 1.58423 2.68925 1.58423H16.6275C16.8112 1.5839 16.9933 1.62328 17.1631 1.70012C17.333 1.77696 17.4874 1.88974 17.6174 2.03201C17.7474 2.17428 17.8505 2.34325 17.9209 2.52924C17.9912 2.71523 18.0273 2.91458 18.0272 3.1159V18.3842C18.0274 18.5856 17.9914 18.785 17.9212 18.9711C17.8509 19.1572 17.7479 19.3262 17.618 19.4687C17.488 19.6111 17.3337 19.724 17.1639 19.8011C16.9941 19.8781 16.812 19.9177 16.6282 19.9176H2.68925C2.50557 19.9176 2.32368 19.8779 2.15399 19.8009C1.9843 19.7239 1.83013 19.611 1.70028 19.4687C1.57043 19.3263 1.46745 19.1574 1.39723 18.9715C1.32701 18.7855 1.29092 18.5863 1.29102 18.3851V3.1159ZM7.91551 8.57423H10.1817V9.8209C10.5089 9.10423 11.3457 8.45923 12.6032 8.45923C15.014 8.45923 15.5853 9.88673 15.5853 12.5059V17.3576H13.1456V13.1026C13.1456 11.6109 12.8185 10.7692 11.9877 10.7692C10.8352 10.7692 10.356 11.6767 10.356 13.1026V17.3576H7.91551V8.57423ZM3.73146 17.2434H6.1719V8.45923H3.73146V17.2434ZM6.52108 5.59423C6.52568 5.82312 6.4885 6.05072 6.41172 6.26366C6.33494 6.4766 6.2201 6.67059 6.07395 6.83426C5.92779 6.99792 5.75327 7.12796 5.56062 7.21674C5.36797 7.30551 5.16107 7.35125 4.95206 7.35125C4.74306 7.35125 4.53616 7.30551 4.34351 7.21674C4.15086 7.12796 3.97633 6.99792 3.83018 6.83426C3.68403 6.67059 3.56919 6.4766 3.49241 6.26366C3.41562 6.05072 3.37844 5.82312 3.38304 5.59423C3.39207 5.14494 3.56135 4.71739 3.85461 4.40314C4.14788 4.08888 4.54182 3.91291 4.95206 3.91291C5.36231 3.91291 5.75625 4.08888 6.04951 4.40314C6.34278 4.71739 6.51205 5.14494 6.52108 5.59423Z" fill="#D6D6D6"/>
</g>
<defs>
<clipPath id="clip0_853_53514">
<rect width="18.2577" height="20" fill="white" transform="translate(0.53125 0.750977)"/>
</clipPath>
</defs>
</svg>
