<svg width="1366" height="575" viewBox="0 0 1366 575" fill="none" xmlns="http://www.w3.org/2000/svg">
<path d="M-54.4426 532.576C-31.643 446.911 20.9476 362.575 74.6302 302.127C129.191 240.553 185.404 199.07 235.238 171.525C336.622 118.069 412.579 114.111 465.008 119.494C568.219 133.019 584.55 185.883 596.076 233.695C608.78 283.719 618.517 329.897 727.237 323.467C782.51 320.746 865.666 305.643 985.19 291.033C1044.85 284.679 1112.25 277.918 1187.13 278.175C1261.37 278.916 1342.3 285.357 1414.89 317.662" stroke="url(#paint0_radial_561_23245)" stroke-width="1.6045" stroke-miterlimit="10"/>
<path d="M-63.9031 506.107C-37.9489 419.67 16.1684 336.08 70.7079 276.502C126.107 215.852 182.469 175.434 232.312 148.79C333.608 97.1483 408.934 94.4671 461.12 100.779C563.772 116.213 580.378 169.516 592.166 217.588C605.15 267.89 615.223 314.293 724.281 309.87C779.724 308.126 862.983 294.447 982.783 281.5C1042.64 275.961 1110.23 270.07 1185.59 271.132C1260.29 272.696 1341.9 279.858 1415.25 313.049" stroke="url(#paint1_radial_561_23245)" stroke-width="1.6045" stroke-miterlimit="10"/>
<path d="M-72.8374 479.49C-43.8056 392.458 11.7463 309.683 67.0873 251.029C123.269 191.319 179.727 151.929 229.528 126.147C330.647 76.2457 405.309 74.7687 457.198 82.0073C559.22 99.2944 576.083 153.055 588.116 201.386C601.38 251.966 611.733 298.611 721.111 296.212C776.723 295.462 860.049 283.224 980.143 271.941C1040.17 267.235 1107.99 262.214 1183.83 264.099C1259.01 266.505 1341.32 274.371 1415.46 308.412" stroke="url(#paint2_radial_561_23245)" stroke-width="1.6045" stroke-miterlimit="10"/>
<path d="M-81.2111 452.8C-49.1975 365.369 7.73302 283.479 63.822 225.728C120.714 166.974 177.252 128.576 226.956 103.637C327.829 55.4015 401.756 55.0367 453.331 63.1838C554.636 82.2494 571.754 136.503 584.014 185.092C597.522 235.967 608.173 282.891 717.817 282.515C773.562 282.758 856.953 271.98 977.358 262.397C1037.58 258.524 1105.62 254.39 1181.98 257.118C1257.64 260.366 1340.7 268.955 1415.66 303.848" stroke="url(#paint3_radial_561_23245)" stroke-width="1.6045" stroke-miterlimit="10"/>
<path d="M-89.0263 426.093C-54.1074 338.421 4.12816 257.469 60.8742 200.654C118.422 142.873 174.968 105.429 224.56 81.2777C325.1 34.616 398.24 35.308 449.467 44.2907C550.001 65.0792 567.357 119.843 579.825 168.709C593.576 219.878 604.472 267.079 714.361 268.779C770.24 270.034 853.66 260.714 974.376 252.849C1034.79 249.827 1103.07 246.6 1179.95 250.153C1256.12 254.243 1339.94 263.556 1415.76 299.283" stroke="url(#paint4_radial_561_23245)" stroke-width="1.6045" stroke-miterlimit="10"/>
<path d="M152.232 260.672L141.261 214.845L139.93 215.164L138.094 215.599L109.349 222.473L106.17 223.226L109.668 237.842L115.961 264.136C114.162 263.31 112.096 263.06 110.033 263.548C105.114 264.728 102.088 269.653 103.269 274.569C104.437 279.485 109.378 282.509 114.297 281.33C119.216 280.15 122.241 275.225 121.061 270.309C120.891 269.589 120.624 268.915 120.309 268.287L112.835 237.076L141.58 230.203L147.873 256.497C146.086 255.672 144.009 255.421 141.945 255.909C137.026 257.089 134.001 262.014 135.181 266.93C136.362 271.846 141.29 274.87 146.209 273.691C151.128 272.511 154.153 267.586 152.973 262.67C152.814 261.974 152.548 261.3 152.232 260.672Z" fill="#FFC444"/>
<path d="M416.463 44.4539L398.073 13.8181L397.182 14.352L395.95 15.0927L376.731 26.6153L374.608 27.8899L380.477 37.655L391.024 55.2281C389.539 55.0408 387.986 55.3299 386.608 56.1566C383.326 58.129 382.255 62.3857 384.228 65.6653C386.202 68.954 390.461 70.0158 393.743 68.0435C397.024 66.0712 398.096 61.8144 396.122 58.5348C395.838 58.0572 395.498 57.6321 395.12 57.2511L382.591 36.3891L401.81 24.8665L412.357 42.4396C410.872 42.2523 409.319 42.5414 407.941 43.3682C404.659 45.3405 403.588 49.5973 405.562 52.8769C407.535 56.1565 411.794 57.2274 415.076 55.2551C418.357 53.2827 419.429 49.0259 417.455 45.7463C417.18 45.26 416.84 44.8349 416.463 44.4539Z" fill="#FFC444"/>
<path d="M291.957 167.356L291.251 191.769C290.356 190.969 289.183 190.467 287.888 190.43C284.956 190.345 282.531 192.65 282.447 195.562C282.363 198.475 284.668 200.916 287.582 201C290.496 201.084 292.939 198.78 293.023 195.868L293.845 167.411L291.957 167.356Z" fill="#FFC444"/>
<path d="M42.343 296.841L41.6371 321.271C40.7421 320.471 39.5685 319.97 38.2734 319.932C35.3415 319.848 32.9167 322.152 32.8325 325.065C32.7484 327.977 35.0541 330.418 37.968 330.503C40.8819 330.587 43.3247 328.282 43.4089 325.37L44.2311 296.913L42.3425 296.859L42.343 296.841Z" fill="#FFC444"/>
<path d="M149.656 112.975L148.509 152.667C147.052 151.366 145.15 150.555 143.027 150.494C138.279 150.356 134.318 154.092 134.181 158.838C134.044 163.584 137.782 167.542 142.531 167.679C147.279 167.816 151.24 164.081 151.377 159.335L152.714 113.063L149.656 112.975Z" fill="#B5A98E"/>
<path d="M57.8268 132.307L56.6799 171.999C55.2233 170.698 53.3205 169.887 51.1981 169.826C46.4495 169.688 42.4891 173.424 42.352 178.17C42.2148 182.916 45.9529 186.874 50.7015 187.011C55.4501 187.148 59.4105 183.413 59.5476 178.667L60.8846 132.395L57.8268 132.307Z" fill="#F4E7CB"/>
<path d="M354.024 46.6429L352.877 86.3351C351.42 85.0336 349.517 84.223 347.395 84.1616C342.646 84.0244 338.686 87.7602 338.549 92.506C338.412 97.2518 342.15 101.21 346.898 101.347C351.647 101.484 355.607 97.7487 355.744 93.0029L357.081 46.7312L354.024 46.6429Z" fill="#FFC444"/>
<path d="M335.108 120.618L350.285 157.327C348.412 156.733 346.341 156.763 344.392 157.571C340.001 159.387 337.912 164.4 339.729 168.789C341.546 173.177 346.581 175.266 350.954 173.449C355.345 171.633 357.434 166.62 355.616 162.231L337.933 119.44L335.108 120.618Z" fill="#F4E7CB"/>
<path d="M192.78 173.088L191.633 212.78C190.176 211.479 188.274 210.668 186.151 210.607C181.403 210.47 177.442 214.205 177.305 218.951C177.168 223.697 180.906 227.655 185.655 227.793C190.403 227.93 194.364 224.194 194.501 219.448L195.838 173.177L192.78 173.088Z" fill="#F4E7CB"/>
<path d="M237.283 98.9822L238.151 68.945L237.272 68.9196L236.064 68.8847L217.215 68.3401L215.14 68.2801L214.863 77.8574L214.365 95.0964C213.399 94.2992 212.167 93.7874 210.812 93.7483C207.589 93.6552 204.901 96.1906 204.808 99.4114C204.715 102.632 207.252 105.319 210.475 105.412C213.698 105.505 216.386 102.97 216.479 99.7486C216.493 99.2728 216.445 98.8197 216.347 98.3773L216.939 77.9173L235.787 78.4619L235.289 95.701C234.322 94.9038 233.091 94.392 231.736 94.3529C228.513 94.2597 225.825 96.7951 225.732 100.016C225.639 103.237 228.176 105.923 231.399 106.016C234.621 106.109 237.309 103.574 237.402 100.353C237.416 99.8774 237.368 99.4242 237.283 98.9822Z" fill="#EF9B4A"/>
<path d="M513.767 137.241L512.62 176.933C511.163 175.631 509.26 174.821 507.138 174.759C502.389 174.622 498.429 178.358 498.292 183.104C498.155 187.849 501.893 191.808 506.641 191.945C511.39 192.082 515.35 188.346 515.488 183.601L516.825 137.329L513.767 137.241Z" fill="#F4E7CB"/>
<path d="M1107.14 237.932L1065.04 212.526L1064.31 213.749L1063.28 215.431L1047.34 241.829L1045.57 244.743L1059 252.848L1083.15 267.427C1081.22 268.159 1079.52 269.512 1078.37 271.402C1075.64 275.922 1077.09 281.778 1081.61 284.501C1086.12 287.232 1091.98 285.775 1094.71 281.256C1097.43 276.736 1095.99 270.88 1091.47 268.157C1090.81 267.757 1090.12 267.461 1089.42 267.235L1060.75 249.933L1076.69 223.536L1100.84 238.115C1098.92 238.838 1097.21 240.199 1096.06 242.09C1093.34 246.61 1094.78 252.466 1099.3 255.189C1103.82 257.912 1109.68 256.463 1112.4 251.944C1115.13 247.424 1113.68 241.568 1109.16 238.845C1108.52 238.463 1107.84 238.158 1107.14 237.932Z" fill="#FFC444"/>
<path d="M704.623 344.152L715.142 307.807L714.088 307.507L712.624 307.087L689.826 300.509L687.308 299.788L683.949 311.368L677.911 332.207C676.976 330.921 675.636 329.929 674.012 329.45C670.12 328.33 666.041 330.569 664.92 334.459C663.8 338.349 666.04 342.425 669.932 343.545C673.824 344.665 677.903 342.426 679.024 338.537C679.184 337.965 679.273 337.392 679.307 336.836L686.467 312.088L709.265 318.666L703.245 339.506C702.328 338.22 700.97 337.228 699.346 336.749C695.454 335.629 691.375 337.868 690.254 341.758C689.134 345.647 691.374 349.724 695.266 350.844C699.158 351.964 703.237 349.725 704.358 345.835C704.518 345.282 704.606 344.709 704.623 344.152Z" fill="#FFC444"/>
<path d="M731.9 196.368L731.194 220.78C730.299 219.981 729.126 219.479 727.831 219.442C724.899 219.357 722.474 221.662 722.39 224.574C722.306 227.486 724.611 229.928 727.525 230.012C730.439 230.096 732.882 227.792 732.966 224.88L733.788 196.423L731.9 196.368Z" fill="#FFC444"/>
<path d="M733.173 341.704L732.467 366.134C731.572 365.335 730.398 364.833 729.103 364.796C726.171 364.711 723.746 367.016 723.662 369.928C723.578 372.84 725.884 375.282 728.798 375.366C731.711 375.45 734.154 373.146 734.238 370.234L735.061 341.777L733.172 341.722L733.173 341.704Z" fill="#FFC444"/>
<path d="M749.515 263.337L748.809 287.767C747.914 286.968 746.74 286.466 745.445 286.428C742.513 286.344 740.089 288.649 740.004 291.561C739.92 294.473 742.226 296.914 745.14 296.999C748.054 297.083 750.497 294.779 750.581 291.866L751.403 263.41L749.514 263.355L749.515 263.337Z" fill="#FFC444"/>
<path d="M833.473 296.474L832.767 320.904C831.872 320.104 830.699 319.603 829.404 319.565C826.472 319.48 824.047 321.785 823.963 324.697C823.879 327.61 826.184 330.051 829.098 330.135C832.012 330.22 834.455 327.915 834.539 325.003L835.361 296.546L833.473 296.492L833.473 296.474Z" fill="#FFC444"/>
<path d="M608.31 279.409L607.163 319.119C605.706 317.817 603.803 317.007 601.681 316.945C596.932 316.808 592.972 320.544 592.835 325.29C592.698 330.035 596.436 333.994 601.184 334.131C605.933 334.268 609.893 330.532 610.03 325.786L611.367 279.515L608.31 279.426L608.31 279.409Z" fill="#B5A98E"/>
<path d="M1265.74 204.092L1264.6 243.784C1263.14 242.483 1261.24 241.672 1259.12 241.611C1254.37 241.474 1250.41 245.209 1250.27 249.955C1250.13 254.701 1253.87 258.659 1258.62 258.796C1263.37 258.934 1267.33 255.198 1267.47 250.452L1268.8 204.18L1265.74 204.092Z" fill="#B5A98E"/>
<path d="M795.239 220.994L794.092 260.705C792.635 259.403 790.733 258.593 788.61 258.531C783.862 258.394 779.901 262.13 779.764 266.876C779.627 271.621 783.365 275.58 788.114 275.717C792.862 275.854 796.823 272.118 796.96 267.372L798.297 221.101L795.239 221.012L795.239 220.994Z" fill="#F4E7CB"/>
<path d="M776.324 294.969L791.501 331.679C789.628 331.085 787.557 331.115 785.607 331.922C781.216 333.739 779.127 338.752 780.945 343.14C782.762 347.529 787.796 349.617 792.169 347.801C796.56 345.984 798.65 340.971 796.832 336.583L779.148 293.791L776.324 294.969Z" fill="#F4E7CB"/>
<path d="M1271.08 289.31L1257.12 309.382C1256.81 308.221 1256.11 307.157 1255.03 306.424C1252.63 304.754 1249.33 305.342 1247.66 307.741C1245.99 310.139 1246.6 313.431 1249 315.102C1251.4 316.773 1254.69 316.166 1256.36 313.786L1272.63 290.399L1271.08 289.31Z" fill="#FFC444"/>
<path d="M1311.1 239.46L1303.72 278.487C1302.49 276.976 1300.74 275.864 1298.66 275.48C1293.99 274.607 1289.49 277.662 1288.61 282.332C1287.74 287.003 1290.8 291.499 1295.47 292.372C1300.14 293.244 1304.64 290.19 1305.52 285.519L1314.1 240.033L1311.1 239.46Z" fill="#F4E7CB"/>
<path d="M1328.27 265.02L1343.45 301.73C1341.57 301.136 1339.5 301.166 1337.55 301.973C1333.16 303.789 1331.07 308.803 1332.89 313.191C1334.71 317.58 1339.74 319.668 1344.11 317.851C1348.51 316.035 1350.59 311.022 1348.78 306.633L1331.09 263.842L1328.27 265.02Z" fill="#FFC444"/>
<path d="M1155.19 211.639L1154.04 251.349C1152.59 250.048 1150.68 249.237 1148.56 249.176C1143.81 249.039 1139.85 252.774 1139.72 257.52C1139.58 262.266 1143.32 266.224 1148.07 266.361C1152.81 266.498 1156.77 262.763 1156.91 258.017L1158.25 211.727L1155.19 211.639Z" fill="#F4E7CB"/>
<path d="M678.522 269.924L679.801 225.666L678.524 225.629L676.743 225.577L648.971 224.775L645.913 224.686L645.506 238.798L644.772 264.199C643.347 263.024 641.533 262.27 639.536 262.212C634.788 262.075 630.827 265.811 630.69 270.557C630.553 275.303 634.291 279.261 639.04 279.398C643.788 279.535 647.749 275.799 647.886 271.054C647.906 270.353 647.836 269.685 647.692 269.033L648.563 238.886L676.335 239.689L675.602 265.09C674.177 263.915 672.363 263.161 670.366 263.103C665.618 262.966 661.657 266.702 661.52 271.448C661.383 276.193 665.121 280.152 669.87 280.289C674.618 280.426 678.579 276.69 678.716 271.944C678.736 271.261 678.665 270.576 678.522 269.924Z" fill="#EF9B4A"/>
<path d="M954.982 311.592L953.835 351.302C952.378 350.001 950.476 349.19 948.353 349.129C943.605 348.992 939.644 352.727 939.507 357.473C939.37 362.219 943.108 366.177 947.857 366.314C952.605 366.452 956.565 362.716 956.703 357.97L958.04 311.698L954.982 311.61L954.982 311.592Z" fill="#F4E7CB"/>
<path d="M903.76 288.674L904.597 259.689L903.761 259.665L902.594 259.631L884.406 259.106L882.404 259.048L882.137 268.29L881.656 284.925C880.723 284.156 879.535 283.662 878.228 283.624C875.118 283.534 872.524 285.981 872.434 289.089C872.344 292.197 874.793 294.789 877.902 294.879C881.012 294.969 883.606 292.522 883.696 289.414C883.709 288.955 883.663 288.518 883.569 288.091L884.139 268.348L902.327 268.873L901.847 285.508C900.914 284.739 899.726 284.245 898.418 284.207C895.308 284.117 892.715 286.564 892.625 289.672C892.535 292.78 894.983 295.372 898.093 295.462C901.203 295.552 903.797 293.106 903.886 289.997C903.9 289.538 903.853 289.101 903.76 288.674Z" fill="#EF9B4A"/>
<defs>
<radialGradient id="paint0_radial_561_23245" cx="0" cy="0" r="1" gradientUnits="userSpaceOnUse" gradientTransform="translate(682.7 339.365) rotate(91.6551) scale(214.42 731.254)">
<stop stop-color="white"/>
<stop offset="1" stop-color="#EF9B4A"/>
</radialGradient>
<radialGradient id="paint1_radial_561_23245" cx="0" cy="0" r="1" gradientUnits="userSpaceOnUse" gradientTransform="translate(678.362 316.594) rotate(91.6551) scale(210.872 736.482)">
<stop stop-color="white"/>
<stop offset="1" stop-color="#EF9B4A"/>
</radialGradient>
<radialGradient id="paint2_radial_561_23245" cx="0" cy="0" r="1" gradientUnits="userSpaceOnUse" gradientTransform="translate(674.208 293.673) rotate(91.6551) scale(207.316 741.367)">
<stop stop-color="white"/>
<stop offset="1" stop-color="#EF9B4A"/>
</radialGradient>
<radialGradient id="paint3_radial_561_23245" cx="0" cy="0" r="1" gradientUnits="userSpaceOnUse" gradientTransform="translate(670.337 270.653) rotate(91.6551) scale(203.778 745.974)">
<stop stop-color="white"/>
<stop offset="1" stop-color="#EF9B4A"/>
</radialGradient>
<radialGradient id="paint4_radial_561_23245" cx="0" cy="0" r="1" gradientUnits="userSpaceOnUse" gradientTransform="translate(666.693 247.571) rotate(91.6551) scale(200.274 750.248)">
<stop stop-color="white"/>
<stop offset="1" stop-color="#EF9B4A"/>
</radialGradient>
</defs>
</svg>
