<svg width="19" height="21" viewBox="0 0 19 21" fill="none" xmlns="http://www.w3.org/2000/svg">
<g id="Frame" clip-path="url(#clip0_853_53506)">
<path id="Vector" d="M18.0018 4.86513C17.3666 5.17346 16.6842 5.38179 15.9668 5.47596C16.707 4.99079 17.2608 4.22718 17.5248 3.32763C16.8294 3.78012 16.0683 4.09862 15.2746 4.26929C14.7408 3.64501 14.0339 3.23123 13.2634 3.09219C12.493 2.95314 11.7022 3.09662 11.0139 3.50034C10.3255 3.90405 9.77807 4.54543 9.45657 5.32488C9.13506 6.10433 9.05747 6.97825 9.23584 7.81096C7.82671 7.73346 6.44821 7.33225 5.1898 6.63338C3.93139 5.93451 2.82118 4.95359 1.93124 3.75429C1.62695 4.32929 1.45198 4.99596 1.45198 5.70596C1.45164 6.34512 1.59532 6.97449 1.87029 7.53824C2.14525 8.10198 2.543 8.58266 3.02822 8.93763C2.46549 8.91801 1.91517 8.75145 1.42307 8.45179V8.50179C1.42301 9.39824 1.70609 10.2671 2.22426 10.961C2.74244 11.6548 3.4638 12.1309 4.26594 12.3085C3.74391 12.4632 3.1966 12.486 2.66535 12.3751C2.89167 13.1465 3.33251 13.821 3.92617 14.3042C4.51983 14.7875 5.23658 15.0553 5.97608 15.0701C4.72074 16.1496 3.1704 16.7352 1.57446 16.7326C1.29175 16.7327 1.00929 16.7146 0.728516 16.6785C2.34849 17.8194 4.23425 18.425 6.16018 18.4226C12.6797 18.4226 16.2437 12.5076 16.2437 7.37763C16.2437 7.21096 16.2399 7.04263 16.2331 6.87596C16.9263 6.32677 17.5248 5.64671 18.0003 4.86763L18.0018 4.86513Z" fill="#D6D6D6"/>
</g>
<defs>
<clipPath id="clip0_853_53506">
<rect width="18.2577" height="20" fill="white" transform="translate(0.015625 0.750977)"/>
</clipPath>
</defs>
</svg>
