<svg width="19" height="21" viewBox="0 0 19 21" fill="none" xmlns="http://www.w3.org/2000/svg">
<g clip-path="url(#clip0_853_53508)">
<mask id="mask0_853_53508" style="mask-type:luminance" maskUnits="userSpaceOnUse" x="0" y="0" width="19" height="21">
<path d="M18.3046 0.750977H0.046875V20.751H18.3046V0.750977Z" fill="white"/>
</mask>
<g mask="url(#mask0_853_53508)">
<path d="M17.9247 6.17338C17.8213 5.7694 17.6199 5.40367 17.3419 5.11504C17.0561 4.81755 16.7058 4.60474 16.3241 4.49671C14.8954 4.08421 9.17162 4.08421 9.17162 4.08421C6.78544 4.05447 4.39985 4.18527 2.0283 4.47588C1.64656 4.59189 1.2969 4.80945 1.01044 5.10921C0.728965 5.40588 0.525087 5.77171 0.418584 6.17254C0.162743 7.68233 0.0384378 9.21533 0.0473445 10.7509C0.0382157 12.285 0.162216 13.8175 0.418584 15.3292C0.522805 15.7284 0.725922 16.0925 1.00816 16.3867C1.29039 16.6809 1.64185 16.8934 2.0283 17.0059C3.47599 17.4175 9.17162 17.4175 9.17162 17.4175C11.5608 17.4473 13.9495 17.3165 16.3241 17.0259C16.7058 16.9178 17.0561 16.705 17.3419 16.4075C17.6234 16.1134 17.8235 15.7475 17.9239 15.3492C18.1864 13.84 18.3141 12.3064 18.305 10.77C18.3248 9.22721 18.1973 7.68718 17.9247 6.17338ZM7.35194 13.6042V7.89838L12.1142 10.7517L7.35194 13.6042Z" fill="#D6D6D6"/>
</g>
</g>
<defs>
<clipPath id="clip0_853_53508">
<rect width="18.2577" height="20" fill="white" transform="translate(0.046875 0.750977)"/>
</clipPath>
</defs>
</svg>
