<svg width="79" height="80" viewBox="0 0 79 80" fill="none" xmlns="http://www.w3.org/2000/svg">
<path d="M2.04077 40.1666C2.04077 19.207 18.8289 2.25144 39.4944 2.25144C60.1599 2.25144 76.948 19.207 76.948 40.1666C76.948 61.1262 60.1599 78.0818 39.4944 78.0817C18.8289 78.0817 2.04077 61.1262 2.04077 40.1666Z" stroke="#FFC444" stroke-width="3.5572"/>
<path d="M37.9093 50.5743C37.5345 50.949 37.0262 51.1595 36.4962 51.1595C35.9662 51.1595 35.4579 50.949 35.0831 50.5743L26.0885 41.5797C25.7138 41.2049 25.5033 40.6966 25.5033 40.1666C25.5033 39.6366 25.7138 39.1283 26.0885 38.7535L35.0831 29.759C35.46 29.3949 35.9649 29.1934 36.489 29.1979C37.0131 29.2025 37.5144 29.4127 37.885 29.7833C38.2556 30.1539 38.4658 30.6552 38.4703 31.1793C38.4749 31.7034 38.2734 32.2083 37.9093 32.5852L32.4986 38.1678L51.4871 38.1678C52.0172 38.1678 52.5256 38.3784 52.9004 38.7533C53.2753 39.1281 53.4858 39.6365 53.4858 40.1666C53.4858 40.6967 53.2753 41.2051 52.9004 41.58C52.5256 41.9548 52.0172 42.1654 51.4871 42.1654L32.4986 42.1654L37.9093 47.748C38.284 48.1228 38.4945 48.6311 38.4945 49.1611C38.4945 49.6911 38.284 50.1994 37.9093 50.5743Z" fill="#FFC444"/>
</svg>
