<svg width="80" height="56" viewBox="0 0 80 56" fill="none" xmlns="http://www.w3.org/2000/svg">
<g clip-path="url(#clip0_1058_112)">
<path d="M21.1477 26.1064C24.6224 29.5074 26.8018 33.6042 27.5553 37.5517C27.713 38.3785 26.4445 39.6746 25.6145 39.5345C21.6517 38.8662 17.509 36.7752 14.0343 33.3744C10.5595 29.9735 8.38012 25.8766 7.6267 21.9291C7.46896 21.1024 8.7375 19.8062 9.56749 19.9463C13.5303 20.6147 17.6729 22.7055 21.1477 26.1064Z" fill="url(#paint0_linear_1058_112)"/>
<path d="M21.1477 26.1064C24.6224 29.5074 26.8018 33.6042 27.5553 37.5517C27.713 38.3785 26.4445 39.6746 25.6145 39.5345C21.6517 38.8662 17.509 36.7752 14.0343 33.3744C10.5595 29.9735 8.38012 25.8766 7.6267 21.9291C7.46896 21.1024 8.7375 19.8062 9.56749 19.9463C13.5303 20.6147 17.6729 22.7055 21.1477 26.1064Z" fill="url(#paint1_linear_1058_112)"/>
<path d="M25.8599 18.0522C28.646 23.4973 29.6088 29.255 28.9304 34.2649C28.7884 35.3141 26.7572 36.3535 25.823 35.8548C21.363 33.4742 17.2567 29.3249 14.4707 23.8798C11.6847 18.4347 10.7217 12.677 11.4001 7.66707C11.5422 6.61788 13.5734 5.57855 14.5075 6.07719C18.9673 8.45777 23.0737 12.6071 25.8599 18.0522Z" fill="url(#paint2_linear_1058_112)"/>
<path d="M11.3477 13.6343C11.7158 17.0009 12.7421 20.5005 14.4712 23.8799C17.2574 29.325 21.3635 33.4743 25.8236 35.8549C26.7575 36.3534 28.7887 35.314 28.9309 34.265C29.6093 29.2552 28.6465 23.4974 25.8604 18.0523C24.2198 14.8458 22.1211 12.0896 19.7623 9.87842L11.3477 13.6343Z" fill="url(#paint3_linear_1058_112)"/>
<path d="M57.503 26.1064C54.0283 29.5074 51.8489 33.6042 51.0954 37.5517C50.9377 38.3785 52.2063 39.6746 53.0362 39.5345C56.999 38.8662 61.1417 36.7752 64.6164 33.3744C68.0912 29.9735 70.2706 25.8766 71.024 21.9291C71.1818 21.1024 69.9132 19.8062 69.0832 19.9463C65.1205 20.6147 60.9778 22.7055 57.503 26.1064Z" fill="url(#paint4_linear_1058_112)"/>
<path d="M57.503 26.1064C54.0283 29.5074 51.8489 33.6042 51.0954 37.5517C50.9377 38.3785 52.2063 39.6746 53.0362 39.5345C56.999 38.8662 61.1417 36.7752 64.6164 33.3744C68.0912 29.9735 70.2706 25.8766 71.024 21.9291C71.1818 21.1024 69.9132 19.8062 69.0832 19.9463C65.1205 20.6147 60.9778 22.7055 57.503 26.1064Z" fill="url(#paint5_linear_1058_112)"/>
<path d="M52.791 18.0522C50.0048 23.4973 49.0421 29.255 49.7205 34.2649C49.8625 35.3141 51.8937 36.3535 52.8278 35.8548C57.2878 33.4742 61.3942 29.3249 64.1802 23.8798C66.9662 18.4347 67.9291 12.677 67.2507 7.66707C67.1087 6.61788 65.0775 5.57855 64.1434 6.07719C59.6835 8.45777 55.5772 12.6071 52.791 18.0522Z" fill="url(#paint6_linear_1058_112)"/>
<path d="M67.3037 13.6343C66.9356 17.0009 65.9093 20.5005 64.1802 23.8799C61.394 29.325 57.2878 33.4743 52.8278 35.8549C51.8939 36.3534 49.8626 35.314 49.7205 34.265C49.0421 29.2552 50.0048 23.4974 52.791 18.0523C54.4316 14.8458 56.5302 12.0896 58.8891 9.87842L67.3037 13.6343Z" fill="url(#paint7_linear_1058_112)"/>
<path d="M39.325 55.4522C52.8542 55.4522 63.8219 44.4846 63.8219 30.9554C63.8219 17.4261 52.8542 6.4585 39.325 6.4585C25.7957 6.4585 14.8281 17.4261 14.8281 30.9554C14.8281 44.4846 25.7957 55.4522 39.325 55.4522Z" fill="url(#paint8_linear_1058_112)"/>
<path d="M39.3265 50.4812C50.1103 50.4812 58.8523 41.7392 58.8523 30.9554C58.8523 20.1717 50.1103 11.4297 39.3265 11.4297C28.5428 11.4297 19.8008 20.1717 19.8008 30.9554C19.8008 41.7392 28.5428 50.4812 39.3265 50.4812Z" fill="url(#paint9_linear_1058_112)"/>
<path d="M39.3255 47.7183C48.5834 47.7183 56.0885 40.2133 56.0885 30.9554C56.0885 21.6974 48.5834 14.1924 39.3255 14.1924C30.0675 14.1924 22.5625 21.6974 22.5625 30.9554C22.5625 40.2133 30.0675 47.7183 39.3255 47.7183Z" fill="url(#paint10_linear_1058_112)"/>
<path d="M14.8281 30.9553C14.8281 44.4846 25.7957 55.4521 39.325 55.4521C52.8543 55.4521 63.8219 44.4846 63.8219 30.9553C63.8219 30.8602 63.8194 30.7658 63.8183 30.6709H14.8317C14.8306 30.7658 14.8281 30.8602 14.8281 30.9553Z" fill="url(#paint11_linear_1058_112)"/>
<path d="M46.192 54.4744C53.911 52.2232 60.0533 46.2763 62.5754 38.6769L50.6443 26.7458L47.9546 26.8778L40.6951 19.6184L31.8477 40.13L46.192 54.4744Z" fill="url(#paint12_linear_1058_112)"/>
<path d="M49.3663 25.6325L44.5622 24.4718C44.1153 24.3638 43.7248 24.0928 43.4671 23.712L40.6977 19.6183C40.3626 19.1232 39.8495 18.8575 39.3215 18.8147C38.7934 18.8575 38.2801 19.1232 37.9452 19.6183L35.1758 23.712C34.9183 24.0928 34.5278 24.3638 34.0807 24.4718L29.2766 25.6325C27.9734 25.9474 27.4304 27.5027 28.2542 28.5604L31.2918 32.4592C31.5743 32.822 31.7114 33.277 31.676 33.7355L31.2953 38.6632C31.1921 39.9998 32.5035 40.9971 33.764 40.5402L38.4107 38.8562C38.7044 38.7497 39.0175 38.7223 39.3215 38.7695C39.6255 38.7225 39.9385 38.7499 40.2322 38.8562L44.8789 40.5402C46.1392 40.9969 47.4508 39.9998 47.3476 38.6632L46.9669 33.7355C46.9315 33.277 47.0686 32.822 47.3511 32.4592L50.3887 28.5604C51.2125 27.5027 50.6695 25.9474 49.3663 25.6325Z" fill="url(#paint13_linear_1058_112)"/>
<path d="M40.231 38.8562L44.8777 40.5402C46.1381 40.9969 47.4496 39.9998 47.3464 38.6632L46.9658 33.7355C46.9304 33.277 47.0675 32.822 47.35 32.4592L50.3875 28.5604C51.2115 27.5029 50.6684 25.9474 49.3652 25.6325L44.561 24.4718C44.1141 24.3638 43.7236 24.0928 43.4659 23.712L40.6965 19.6183C40.3615 19.1232 39.8484 18.8575 39.3203 18.8147V38.7695C39.6244 38.7223 39.9376 38.7497 40.231 38.8562Z" fill="url(#paint14_linear_1058_112)"/>
<path d="M49.3677 25.6326L44.5635 24.4718C44.3995 24.4323 44.2433 24.3702 44.0983 24.2893L31.8516 40.13C32.332 40.5943 33.0568 40.7972 33.7654 40.5404L38.4121 38.8564C38.7057 38.75 39.0189 38.7225 39.3228 38.7697C39.6269 38.7227 39.9399 38.7501 40.2335 38.8564L44.8802 40.5404C46.1406 40.9971 47.4521 40 47.3489 38.6634L46.9683 33.7357C46.9328 33.2773 47.07 32.8222 47.3525 32.4594L50.39 28.5606C51.2139 27.5028 50.6709 25.9474 49.3677 25.6326Z" fill="url(#paint15_linear_1058_112)"/>
<path d="M29.2766 25.6326L34.0807 24.4718C34.2448 24.4323 34.401 24.3702 34.546 24.2893L46.7927 40.13C46.3122 40.5943 45.5875 40.7972 44.8789 40.5404L40.2322 38.8564C39.9385 38.75 39.6254 38.7225 39.3215 38.7697C39.0174 38.7227 38.7044 38.7501 38.4107 38.8564L33.764 40.5404C32.5037 40.9971 31.1921 40 31.2953 38.6634L31.676 33.7357C31.7114 33.2773 31.5743 32.8222 31.2918 32.4594L28.2542 28.5606C27.4304 27.5028 27.9734 25.9474 29.2766 25.6326Z" fill="url(#paint16_linear_1058_112)"/>
<path d="M27.9999 26.7456C27.7714 27.3217 27.8263 28.0083 28.2562 28.5602L31.2938 32.4591C31.5763 32.8218 31.7134 33.2769 31.6779 33.7353L31.2973 38.663C31.1941 39.9996 32.5055 40.9969 33.766 40.54L38.4127 38.856C38.7063 38.7496 39.0195 38.7222 39.3234 38.7693C39.6275 38.7223 39.9405 38.7497 40.2341 38.856L44.8808 40.54C46.1412 40.9968 47.4527 39.9996 47.3495 38.663L46.9689 33.7353C46.9492 33.481 46.9844 33.2282 47.0664 32.9911L27.9999 26.7456Z" fill="url(#paint17_linear_1058_112)"/>
<path d="M50.6484 26.7456C50.8768 27.3217 50.8221 28.0083 50.392 28.5602L47.3545 32.4591C47.0719 32.8218 46.9348 33.2769 46.9703 33.7353L47.3509 38.663C47.4541 39.9996 46.1426 40.9969 44.8822 40.54L40.2355 38.856C39.9419 38.7496 39.6287 38.7222 39.3248 38.7693C39.0207 38.7223 38.7077 38.7497 38.4141 38.856L33.7674 40.54C32.507 40.9968 31.1955 39.9996 31.2987 38.663L31.6793 33.7353C31.699 33.481 31.6638 33.2282 31.5818 32.9911L50.6484 26.7456Z" fill="url(#paint18_linear_1058_112)"/>
<path d="M39.3227 6.4585C39.2211 6.4585 39.1202 6.46112 39.0188 6.46235L35.2383 10.2429L62.8368 37.8414C63.4755 35.6568 63.8196 33.3463 63.8196 30.9552C63.8196 17.4261 52.852 6.4585 39.3227 6.4585Z" fill="url(#paint19_linear_1058_112)"/>
<path d="M39.3193 11.9345C42.5094 11.9345 45.0956 9.34832 45.0956 6.15815C45.0956 2.96798 42.5094 0.381836 39.3193 0.381836C36.1291 0.381836 33.543 2.96798 33.543 6.15815C33.543 9.34832 36.1291 11.9345 39.3193 11.9345Z" fill="url(#paint20_linear_1058_112)"/>
<path d="M39.3194 9.46992C41.1484 9.46992 42.6311 7.98726 42.6311 6.1583C42.6311 4.32934 41.1484 2.84668 39.3194 2.84668C37.4905 2.84668 36.0078 4.32934 36.0078 6.1583C36.0078 7.98726 37.4905 9.46992 39.3194 9.46992Z" fill="url(#paint21_linear_1058_112)"/>
</g>
<defs>
<linearGradient id="paint0_linear_1058_112" x1="11.9941" y1="21.0315" x2="17.03" y2="28.9635" gradientUnits="userSpaceOnUse">
<stop stop-color="#FBC56D"/>
<stop offset="1" stop-color="#C5715A"/>
</linearGradient>
<linearGradient id="paint1_linear_1058_112" x1="12.7026" y1="28.0164" x2="18.0761" y2="29.9772" gradientUnits="userSpaceOnUse">
<stop stop-color="#8C3D27" stop-opacity="0"/>
<stop offset="1" stop-color="#8C3D27"/>
</linearGradient>
<linearGradient id="paint2_linear_1058_112" x1="20.6086" y1="12.5744" x2="19.9026" y2="25.0482" gradientUnits="userSpaceOnUse">
<stop stop-color="#FBC56D"/>
<stop offset="1" stop-color="#C5715A"/>
</linearGradient>
<linearGradient id="paint3_linear_1058_112" x1="19.0058" y1="18.8996" x2="22.0524" y2="24.6118" gradientUnits="userSpaceOnUse">
<stop stop-color="#8C3D27" stop-opacity="0"/>
<stop offset="1" stop-color="#8C3D27"/>
</linearGradient>
<linearGradient id="paint4_linear_1058_112" x1="66.6443" y1="21.0533" x2="61.6083" y2="28.9851" gradientUnits="userSpaceOnUse">
<stop stop-color="#FBC56D"/>
<stop offset="1" stop-color="#C5715A"/>
</linearGradient>
<linearGradient id="paint5_linear_1058_112" x1="65.9358" y1="28.038" x2="60.5622" y2="29.9988" gradientUnits="userSpaceOnUse">
<stop stop-color="#8C3D27" stop-opacity="0"/>
<stop offset="1" stop-color="#8C3D27"/>
</linearGradient>
<linearGradient id="paint6_linear_1058_112" x1="58.0299" y1="12.5961" x2="58.7359" y2="25.0697" gradientUnits="userSpaceOnUse">
<stop stop-color="#FBC56D"/>
<stop offset="1" stop-color="#C5715A"/>
</linearGradient>
<linearGradient id="paint7_linear_1058_112" x1="59.6332" y1="18.9212" x2="56.5866" y2="24.6334" gradientUnits="userSpaceOnUse">
<stop stop-color="#8C3D27" stop-opacity="0"/>
<stop offset="1" stop-color="#8C3D27"/>
</linearGradient>
<linearGradient id="paint8_linear_1058_112" x1="24.2217" y1="15.852" x2="50.0572" y2="41.6876" gradientUnits="userSpaceOnUse">
<stop stop-color="#FBC56D"/>
<stop offset="1" stop-color="#C5715A"/>
</linearGradient>
<linearGradient id="paint9_linear_1058_112" x1="52.0083" y1="43.6372" x2="26.2748" y2="17.9037" gradientUnits="userSpaceOnUse">
<stop stop-color="#FBC56D"/>
<stop offset="1" stop-color="#C5715A"/>
</linearGradient>
<linearGradient id="paint10_linear_1058_112" x1="27.1393" y1="18.7692" x2="47.1983" y2="38.8282" gradientUnits="userSpaceOnUse">
<stop stop-color="#FBC56D"/>
<stop offset="1" stop-color="#C5715A"/>
</linearGradient>
<linearGradient id="paint11_linear_1058_112" x1="39.325" y1="38.1226" x2="39.325" y2="54.2016" gradientUnits="userSpaceOnUse">
<stop stop-color="#8C3D27" stop-opacity="0"/>
<stop offset="1" stop-color="#8C3D27"/>
</linearGradient>
<linearGradient id="paint12_linear_1058_112" x1="53.9931" y1="43.6867" x2="33.762" y2="30.9524" gradientUnits="userSpaceOnUse">
<stop stop-color="#8C3D27" stop-opacity="0"/>
<stop offset="1" stop-color="#8C3D27"/>
</linearGradient>
<linearGradient id="paint13_linear_1058_112" x1="34.2186" y1="26.2992" x2="43.4205" y2="35.501" gradientUnits="userSpaceOnUse">
<stop stop-color="#FBC56D"/>
<stop offset="1" stop-color="#C5715A"/>
</linearGradient>
<linearGradient id="paint14_linear_1058_112" x1="44.834" y1="28.8081" x2="32.1157" y2="34.0659" gradientUnits="userSpaceOnUse">
<stop stop-color="#8C3D27" stop-opacity="0"/>
<stop offset="1" stop-color="#8C3D27"/>
</linearGradient>
<linearGradient id="paint15_linear_1058_112" x1="41.5158" y1="33.3216" x2="34.5527" y2="30.3373" gradientUnits="userSpaceOnUse">
<stop stop-color="#8C3D27" stop-opacity="0"/>
<stop offset="1" stop-color="#8C3D27"/>
</linearGradient>
<linearGradient id="paint16_linear_1058_112" x1="37.1285" y1="33.3216" x2="44.0916" y2="30.3374" gradientUnits="userSpaceOnUse">
<stop stop-color="#8C3D27" stop-opacity="0"/>
<stop offset="1" stop-color="#8C3D27"/>
</linearGradient>
<linearGradient id="paint17_linear_1058_112" x1="37.2853" y1="33.6706" x2="41.7615" y2="26.4766" gradientUnits="userSpaceOnUse">
<stop stop-color="#8C3D27" stop-opacity="0"/>
<stop offset="1" stop-color="#8C3D27"/>
</linearGradient>
<linearGradient id="paint18_linear_1058_112" x1="41.0179" y1="32.7621" x2="40.645" y2="25.728" gradientUnits="userSpaceOnUse">
<stop stop-color="#8C3D27" stop-opacity="0"/>
<stop offset="1" stop-color="#8C3D27"/>
</linearGradient>
<linearGradient id="paint19_linear_1058_112" x1="51.3942" y1="20.6064" x2="41.9462" y2="4.07252" gradientUnits="userSpaceOnUse">
<stop stop-color="#8C3D27" stop-opacity="0"/>
<stop offset="1" stop-color="#8C3D27"/>
</linearGradient>
<linearGradient id="paint20_linear_1058_112" x1="36.0074" y1="2.84622" x2="44.1763" y2="11.0151" gradientUnits="userSpaceOnUse">
<stop stop-color="#FBC56D"/>
<stop offset="1" stop-color="#C5715A"/>
</linearGradient>
<linearGradient id="paint21_linear_1058_112" x1="41.6686" y1="8.50746" x2="37.6248" y2="4.46367" gradientUnits="userSpaceOnUse">
<stop stop-color="#FBC56D"/>
<stop offset="1" stop-color="#C5715A"/>
</linearGradient>
<clipPath id="clip0_1058_112">
<rect width="79" height="55" fill="white" transform="translate(0.0390625 0.717041)"/>
</clipPath>
</defs>
</svg>
