<svg width="30" height="30" viewBox="0 0 30 30" fill="none" xmlns="http://www.w3.org/2000/svg">
<circle cx="14.844" cy="15.4636" r="14.5276" fill="url(#paint0_linear_1414_21)"/>
<circle cx="14.844" cy="15.4636" r="14.5276" fill="url(#paint1_linear_1414_21)"/>
<path d="M16.2911 24.4792C16.0603 24.4792 15.7911 24.4331 15.4834 24.3407C15.1757 24.2638 14.868 24.11 14.5603 23.8792C14.268 23.6484 14.0218 23.3099 13.8218 22.8638C13.6218 22.4176 13.5218 21.8329 13.5218 21.1098C13.5218 20.4329 13.5372 19.4175 13.5679 18.0635C13.5987 16.6943 13.7141 15.0326 13.9141 13.0787C13.6833 13.2326 13.4525 13.3633 13.2218 13.471C12.991 13.5633 12.7756 13.6095 12.5756 13.6095C12.1294 13.6095 11.7217 13.4787 11.3524 13.2172C10.9986 12.9556 10.8217 12.5864 10.8217 12.1094C10.8217 11.9248 10.8909 11.7863 11.0294 11.694C12.0294 11.094 12.8602 10.4247 13.5218 9.68625C14.1833 8.94776 14.7295 8.24772 15.1603 7.58616C15.4219 7.58616 15.7142 7.65539 16.0373 7.79386C16.3757 7.91694 16.6604 8.17849 16.8912 8.57851C17.1527 8.67082 17.3296 8.82467 17.4219 9.04007C17.5143 9.24008 17.5604 9.47855 17.5604 9.75548C17.5604 10.1555 17.5373 10.7555 17.4912 11.5556C17.445 12.3556 17.3835 13.2787 17.3066 14.3249C17.2296 15.3711 17.1527 16.4712 17.0758 17.6251C17.0142 18.7636 16.9527 19.8944 16.8912 21.0175C16.845 22.1406 16.8142 23.1792 16.7988 24.133C16.7988 24.2715 16.745 24.3638 16.6373 24.41C16.545 24.4561 16.4296 24.4792 16.2911 24.4792Z" fill="white"/>
<defs>
<linearGradient id="paint0_linear_1414_21" x1="7.96703" y1="-18.1314" x2="34.8785" y2="-10.3544" gradientUnits="userSpaceOnUse">
<stop stop-color="#FFB544"/>
<stop offset="1" stop-color="#FF4F44"/>
</linearGradient>
<linearGradient id="paint1_linear_1414_21" x1="7.96703" y1="-18.1314" x2="34.8785" y2="-10.3544" gradientUnits="userSpaceOnUse">
<stop stop-color="#FFE259"/>
<stop offset="1" stop-color="#FFA751"/>
</linearGradient>
</defs>
</svg>
