<svg width="79" height="80" viewBox="0 0 79 80" fill="none" xmlns="http://www.w3.org/2000/svg">
<ellipse cx="39.7678" cy="40.1665" rx="39.2322" ry="39.6938" fill="#FFC444"/>
<path d="M41.3529 29.7588C41.7277 29.3841 42.236 29.1736 42.766 29.1736C43.296 29.1736 43.8043 29.3841 44.1792 29.7588L53.1737 38.7533C53.5484 39.1281 53.7589 39.6365 53.7589 40.1665C53.7589 40.6965 53.5484 41.2048 53.1737 41.5796L44.1792 50.5741C43.8022 50.9382 43.2973 51.1397 42.7732 51.1351C42.2491 51.1306 41.7478 50.9204 41.3772 50.5498C41.0066 50.1792 40.7964 49.6779 40.7919 49.1538C40.7873 48.6297 40.9888 48.1248 41.3529 47.7478L46.7636 42.1652H27.7751C27.245 42.1652 26.7366 41.9547 26.3618 41.5798C25.987 41.205 25.7764 40.6966 25.7764 40.1665C25.7764 39.6363 25.987 39.1279 26.3618 38.7531C26.7366 38.3783 27.245 38.1677 27.7751 38.1677H46.7636L41.3529 32.5851C40.9782 32.2103 40.7677 31.7019 40.7677 31.1719C40.7677 30.6419 40.9782 30.1336 41.3529 29.7588Z" fill="#000828"/>
</svg>
