<svg width="79" height="55" viewBox="0 0 79 55" fill="none" xmlns="http://www.w3.org/2000/svg">
<path d="M17.606 35.098C22.1962 35.6907 26.2008 37.5548 29.0363 40.1229C29.6301 40.6608 29.4089 42.3731 28.698 42.7424C25.3033 44.506 20.9565 45.2916 16.3663 44.6988C11.776 44.1061 7.77146 42.242 4.93601 39.6739C4.34216 39.136 4.56335 37.4237 5.27427 37.0544C8.66902 35.2908 13.0158 34.5052 17.606 35.098Z" fill="url(#paint0_linear_1058_30)"/>
<path d="M17.606 35.098C22.1962 35.6907 26.2008 37.5548 29.0363 40.1229C29.6301 40.6608 29.4089 42.3731 28.698 42.7424C25.3033 44.506 20.9565 45.2916 16.3663 44.6988C11.776 44.1061 7.77146 42.242 4.93601 39.6739C4.34216 39.136 4.56335 37.4237 5.27427 37.0544C8.66902 35.2908 13.0158 34.5052 17.606 35.098Z" fill="url(#paint1_linear_1058_30)"/>
<path d="M18.1482 28.67C23.0572 30.7982 26.9085 34.1514 29.2358 37.9118C29.7231 38.6993 28.9292 40.5305 28.0213 40.7132C23.6857 41.5851 18.6056 41.0659 13.6968 38.9377C8.78783 36.8095 4.93654 33.4565 2.60924 29.6959C2.12195 28.9084 2.91583 27.0772 3.82374 26.8946C8.15927 26.0227 13.2392 26.5419 18.1482 28.67Z" fill="url(#paint2_linear_1058_30)"/>
<path d="M18.1482 28.67C23.0572 30.7982 26.9085 34.1514 29.2358 37.9118C29.7231 38.6993 28.9292 40.5305 28.0213 40.7132C23.6857 41.5851 18.6056 41.0659 13.6968 38.9377C8.78783 36.8095 4.93654 33.4565 2.60924 29.6959C2.12195 28.9084 2.91583 27.0772 3.82374 26.8946C8.15927 26.0227 13.2392 26.5419 18.1482 28.67Z" fill="url(#paint3_linear_1058_30)"/>
<path d="M26.9799 18.351C28.9461 23.327 29.2986 28.4214 28.285 32.726C28.0728 33.6275 26.2165 34.361 25.4454 33.8481C21.7631 31.3989 18.5381 27.4396 16.5719 22.4637C14.6057 17.4877 14.2533 12.3933 15.2668 8.08867C15.479 7.18716 17.3353 6.45371 18.1064 6.96658C21.7887 9.41567 25.0137 13.3749 26.9799 18.351Z" fill="url(#paint4_linear_1058_30)"/>
<path d="M26.9799 18.351C28.9461 23.327 29.2986 28.4214 28.285 32.726C28.0728 33.6275 26.2165 34.361 25.4454 33.8481C21.7631 31.3989 18.5381 27.4396 16.5719 22.4637C14.6057 17.4877 14.2533 12.3933 15.2668 8.08867C15.479 7.18716 17.3353 6.45371 18.1064 6.96658C21.7887 9.41567 25.0137 13.3749 26.9799 18.351Z" fill="url(#paint5_linear_1058_30)"/>
<path d="M19.8179 18.5383C24.8233 23.0382 28.0778 28.5768 29.3514 33.9924C29.6181 35.1266 27.9394 36.9938 26.7834 36.8489C21.2632 36.1567 15.4108 33.5079 10.4055 29.0078C5.40013 24.5078 2.14559 18.9692 0.872026 13.5536C0.605318 12.4195 2.28397 10.5522 3.44001 10.6972C8.96005 11.3894 14.8126 14.0383 19.8179 18.5383Z" fill="url(#paint6_linear_1058_30)"/>
<path d="M3.16797 19.7068C4.87067 23.022 7.3021 26.2149 10.4085 29.0077C15.4139 33.5076 21.2662 36.1566 26.7864 36.8488C27.9425 36.9937 29.6211 35.1266 29.3544 33.9923C28.0808 28.5767 24.8263 23.0381 19.821 18.5382C16.8736 15.8883 13.6323 13.8811 10.3383 12.5366L3.16797 19.7068Z" fill="url(#paint7_linear_1058_30)"/>
<path d="M61.7178 35.0975C57.1276 35.6903 53.123 37.5543 50.2876 40.1225C49.6937 40.6603 49.9149 42.3726 50.6258 42.7419C54.0206 44.5055 58.3674 45.2911 62.9576 44.6984C67.5478 44.1056 71.5524 42.2415 74.3878 39.6734C74.9817 39.1355 74.7605 37.4233 74.0496 37.0539C70.6548 35.2903 66.308 34.5047 61.7178 35.0975Z" fill="url(#paint8_linear_1058_30)"/>
<path d="M61.7178 35.0975C57.1276 35.6903 53.123 37.5543 50.2876 40.1225C49.6937 40.6603 49.9149 42.3726 50.6258 42.7419C54.0206 44.5055 58.3674 45.2911 62.9576 44.6984C67.5478 44.1056 71.5524 42.2415 74.3878 39.6734C74.9817 39.1355 74.7605 37.4233 74.0496 37.0539C70.6548 35.2903 66.308 34.5047 61.7178 35.0975Z" fill="url(#paint9_linear_1058_30)"/>
<path d="M61.1812 28.6698C56.2722 30.798 52.4209 34.1512 50.0936 37.9116C49.6063 38.6991 50.4002 40.5303 51.3081 40.7129C55.6436 41.5849 60.7237 41.0656 65.6326 38.9375C70.5416 36.8093 74.3928 33.4562 76.7201 29.6957C77.2074 28.9082 76.4136 27.077 75.5057 26.8943C71.1701 26.0225 66.0902 26.5416 61.1812 28.6698Z" fill="url(#paint10_linear_1058_30)"/>
<path d="M61.1812 28.6698C56.2722 30.798 52.4209 34.1512 50.0936 37.9116C49.6063 38.6991 50.4002 40.5303 51.3081 40.7129C55.6436 41.5849 60.7237 41.0656 65.6326 38.9375C70.5416 36.8093 74.3928 33.4562 76.7201 29.6957C77.2074 28.9082 76.4136 27.077 75.5057 26.8943C71.1701 26.0225 66.0902 26.5416 61.1812 28.6698Z" fill="url(#paint11_linear_1058_30)"/>
<path d="M52.3414 18.3512C50.3752 23.3272 50.0228 28.4216 51.0364 32.7263C51.2486 33.6278 53.1049 34.3612 53.8759 33.8483C57.5582 31.3991 60.7832 27.4399 62.7495 22.4639C64.7157 17.4879 65.0681 12.3935 64.0545 8.08892C63.8423 7.18741 61.986 6.45396 61.215 6.96682C57.5327 9.41591 54.3077 13.3751 52.3414 18.3512Z" fill="url(#paint12_linear_1058_30)"/>
<path d="M52.3414 18.3512C50.3752 23.3272 50.0228 28.4216 51.0364 32.7263C51.2486 33.6278 53.1049 34.3612 53.8759 33.8483C57.5582 31.3991 60.7832 27.4399 62.7495 22.4639C64.7157 17.4879 65.0681 12.3935 64.0545 8.08892C63.8423 7.18741 61.986 6.45396 61.215 6.96682C57.5327 9.41591 54.3077 13.3751 52.3414 18.3512Z" fill="url(#paint13_linear_1058_30)"/>
<path d="M59.507 18.5385C54.5017 23.0385 51.2472 28.5771 49.9736 33.9927C49.7069 35.1268 51.3855 36.9941 52.5416 36.8491C58.0618 36.1569 63.9141 33.5081 68.9195 29.008C73.9248 24.5081 77.1794 18.9695 78.4529 13.5539C78.7196 12.4198 77.041 10.5525 75.8849 10.6974C70.3649 11.3896 64.5124 14.0386 59.507 18.5385Z" fill="url(#paint14_linear_1058_30)"/>
<path d="M76.16 19.7071C74.4573 23.0222 72.0259 26.2151 68.9195 29.0079C63.9141 33.5079 58.0618 36.1568 52.5416 36.849C51.3855 36.994 49.7069 35.1269 49.9736 33.9926C51.2472 28.577 54.5017 23.0384 59.507 18.5384C62.4544 15.8885 65.6957 13.8814 68.9896 12.5369L76.16 19.7071Z" fill="url(#paint15_linear_1058_30)"/>
<path d="M39.6618 55.2149C53.0318 55.2149 63.8704 44.3763 63.8704 31.0063C63.8704 17.6362 53.0318 6.79761 39.6618 6.79761C26.2917 6.79761 15.4531 17.6362 15.4531 31.0063C15.4531 44.3763 26.2917 55.2149 39.6618 55.2149Z" fill="url(#paint16_linear_1058_30)"/>
<path d="M39.6632 50.302C50.3201 50.302 58.9592 41.6629 58.9592 31.006C58.9592 20.3491 50.3201 11.71 39.6632 11.71C29.0063 11.71 20.3672 20.3491 20.3672 31.006C20.3672 41.6629 29.0063 50.302 39.6632 50.302Z" fill="url(#paint17_linear_1058_30)"/>
<path d="M39.6634 47.5722C48.8124 47.5722 56.2292 40.1554 56.2292 31.0064C56.2292 21.8574 48.8124 14.4407 39.6634 14.4407C30.5144 14.4407 23.0977 21.8574 23.0977 31.0064C23.0977 40.1554 30.5144 47.5722 39.6634 47.5722Z" fill="url(#paint18_linear_1058_30)"/>
<path d="M15.4531 31.0064C15.4531 44.3765 26.2917 55.215 39.6618 55.215C53.0319 55.215 63.8704 44.3765 63.8704 31.0064C63.8704 30.9124 63.868 30.8191 63.8669 30.7253H15.4566C15.4556 30.8191 15.4531 30.9124 15.4531 31.0064Z" fill="url(#paint19_linear_1058_30)"/>
<path d="M46.4529 54.2476C54.0811 52.0229 60.1511 46.1461 62.6436 38.6361L50.8528 26.8453L48.1947 26.9758L41.0207 19.8018L32.2773 40.072L46.4529 54.2476Z" fill="url(#paint20_linear_1058_30)"/>
<path d="M49.586 25.7456L44.8383 24.5986C44.3967 24.4919 44.0108 24.2241 43.7561 23.8478L41.0193 19.8022C40.6882 19.313 40.1811 19.0504 39.6593 19.0081C39.1375 19.0504 38.6302 19.313 38.2993 19.8022L35.5625 23.8478C35.3079 24.2241 34.922 24.4919 34.4803 24.5986L29.7326 25.7456C28.4448 26.0568 27.9081 27.5939 28.7223 28.6391L31.7241 32.4921C32.0033 32.8506 32.1388 33.3002 32.1038 33.7533L31.7276 38.623C31.6256 39.9439 32.9216 40.9294 34.1673 40.4779L38.7593 38.8137C39.0495 38.7085 39.3589 38.6815 39.6593 38.728C39.9598 38.6816 40.2691 38.7087 40.5593 38.8137L45.1513 40.4779C46.3969 40.9293 47.693 39.9439 47.591 38.623L47.2148 33.7533C47.1798 33.3002 47.3153 32.8506 47.5945 32.4921L50.5963 28.6391C51.4104 27.5939 50.8738 26.0568 49.586 25.7456Z" fill="url(#paint21_linear_1058_30)"/>
<path d="M40.5601 38.814L45.1522 40.4782C46.3977 40.9295 47.6938 39.9441 47.5918 38.6232L47.2157 33.7535C47.1807 33.3005 47.3161 32.8508 47.5953 32.4923L50.5972 28.6393C51.4115 27.5943 50.8747 26.057 49.5868 25.7459L44.8392 24.5988C44.3976 24.4921 44.0117 24.2243 43.757 23.848L41.0202 19.8025C40.6891 19.3132 40.182 19.0506 39.6602 19.0083V38.7283C39.9607 38.6817 40.2701 38.7088 40.5601 38.814Z" fill="url(#paint22_linear_1058_30)"/>
<path d="M49.5835 25.7459L44.8358 24.5989C44.6737 24.5597 44.5193 24.4984 44.3761 24.4185L32.2734 40.0728C32.7482 40.5316 33.4645 40.7321 34.1648 40.4783L38.7568 38.8142C39.0469 38.709 39.3564 38.6819 39.6568 38.7285C39.9573 38.682 40.2666 38.7091 40.5568 38.8142L45.1488 40.4783C46.3944 40.9297 47.6905 39.9443 47.5885 38.6234L47.2123 33.7537C47.1773 33.3007 47.3128 32.851 47.592 32.4925L50.5938 28.6395C51.4079 27.5941 50.8713 26.0571 49.5835 25.7459Z" fill="url(#paint23_linear_1058_30)"/>
<path d="M29.7326 25.7459L34.4803 24.5989C34.6424 24.5597 34.7967 24.4984 34.94 24.4185L47.0426 40.0728C46.5678 40.5316 45.8516 40.7321 45.1513 40.4783L40.5593 38.8142C40.2691 38.709 39.9596 38.6819 39.6593 38.7285C39.3588 38.682 39.0495 38.7091 38.7593 38.8142L34.1673 40.4783C32.9217 40.9297 31.6256 39.9443 31.7276 38.6234L32.1038 33.7537C32.1388 33.3007 32.0033 32.851 31.7241 32.4925L28.7223 28.6395C27.9081 27.5941 28.4448 26.0571 29.7326 25.7459Z" fill="url(#paint24_linear_1058_30)"/>
<path d="M28.471 26.8457C28.2452 27.415 28.2994 28.0935 28.7243 28.639L31.7261 32.4919C32.0053 32.8504 32.1408 33.3001 32.1058 33.7532L31.7296 38.6229C31.6276 39.9438 32.9236 40.9293 34.1693 40.4778L38.7613 38.8136C39.0515 38.7084 39.3609 38.6813 39.6613 38.7279C39.9618 38.6815 40.2711 38.7086 40.5613 38.8136L45.1533 40.4778C46.3989 40.9292 47.695 39.9438 47.593 38.6229L47.2168 33.7532C47.1973 33.5018 47.2322 33.252 47.3132 33.0177L28.471 26.8457Z" fill="url(#paint25_linear_1058_30)"/>
<path d="M50.8503 26.8457C51.0761 27.415 51.022 28.0935 50.597 28.639L47.5952 32.4919C47.316 32.8504 47.1805 33.3001 47.2155 33.7532L47.5917 38.6229C47.6937 39.9438 46.3976 40.9293 45.152 40.4778L40.56 38.8136C40.2698 38.7084 39.9603 38.6813 39.66 38.7279C39.3595 38.6815 39.0502 38.7086 38.76 38.8136L34.168 40.4778C32.9224 40.9292 31.6263 39.9438 31.7283 38.6229L32.1045 33.7532C32.124 33.5018 32.0891 33.252 32.0081 33.0177L50.8503 26.8457Z" fill="url(#paint26_linear_1058_30)"/>
<path d="M39.6614 6.79712C39.5609 6.79712 39.4612 6.79971 39.361 6.80093L35.625 10.537L62.8988 37.8108C63.53 35.6519 63.8701 33.3685 63.8701 31.0056C63.8701 17.6356 53.0315 6.79712 39.6614 6.79712Z" fill="url(#paint27_linear_1058_30)"/>
<path d="M39.6576 12.2094C42.8102 12.2094 45.3659 9.65371 45.3659 6.50107C45.3659 3.34844 42.8102 0.792725 39.6576 0.792725C36.5049 0.792725 33.9492 3.34844 33.9492 6.50107C33.9492 9.65371 36.5049 12.2094 39.6576 12.2094Z" fill="url(#paint28_linear_1058_30)"/>
<path d="M39.6594 9.77359C41.4668 9.77359 42.932 8.30837 42.932 6.50093C42.932 4.69349 41.4668 3.22827 39.6594 3.22827C37.8519 3.22827 36.3867 4.69349 36.3867 6.50093C36.3867 8.30837 37.8519 9.77359 39.6594 9.77359Z" fill="url(#paint29_linear_1058_30)"/>
<defs>
<linearGradient id="paint0_linear_1058_30" x1="11.9129" y1="32.9036" x2="16.9365" y2="39.8301" gradientUnits="userSpaceOnUse">
<stop stop-color="#FEF0AE"/>
<stop offset="1" stop-color="#FBC56D"/>
</linearGradient>
<linearGradient id="paint1_linear_1058_30" x1="11.4554" y1="37.3458" x2="19.3714" y2="40.9993" gradientUnits="userSpaceOnUse">
<stop stop-color="#DC8758" stop-opacity="0"/>
<stop offset="0.9957" stop-color="#DC8758" stop-opacity="0.996"/>
<stop offset="1" stop-color="#DC8758"/>
</linearGradient>
<linearGradient id="paint2_linear_1058_30" x1="6.7656" y1="26.9993" x2="15.0622" y2="33.1647" gradientUnits="userSpaceOnUse">
<stop stop-color="#FEF0AE"/>
<stop offset="1" stop-color="#FBC56D"/>
</linearGradient>
<linearGradient id="paint3_linear_1058_30" x1="10.2438" y1="33.8955" x2="16.5359" y2="33.7941" gradientUnits="userSpaceOnUse">
<stop stop-color="#DC8758" stop-opacity="0"/>
<stop offset="0.9957" stop-color="#DC8758" stop-opacity="0.996"/>
<stop offset="1" stop-color="#DC8758"/>
</linearGradient>
<linearGradient id="paint4_linear_1058_30" x1="23.4261" y1="12.8164" x2="21.5232" y2="21.5696" gradientUnits="userSpaceOnUse">
<stop stop-color="#FEF0AE"/>
<stop offset="1" stop-color="#FBC56D"/>
</linearGradient>
<linearGradient id="paint5_linear_1058_30" x1="15.2035" y1="13.6979" x2="20.0749" y2="18.6707" gradientUnits="userSpaceOnUse">
<stop stop-color="#DC8758" stop-opacity="0"/>
<stop offset="0.9957" stop-color="#DC8758" stop-opacity="0.996"/>
<stop offset="1" stop-color="#DC8758"/>
</linearGradient>
<linearGradient id="paint6_linear_1058_30" x1="12.2805" y1="14.919" x2="16.4668" y2="28.0108" gradientUnits="userSpaceOnUse">
<stop stop-color="#FEF0AE"/>
<stop offset="1" stop-color="#FBC56D"/>
</linearGradient>
<linearGradient id="paint7_linear_1058_30" x1="13.1269" y1="22.0477" x2="18.5057" y2="26.7162" gradientUnits="userSpaceOnUse">
<stop stop-color="#DC8758" stop-opacity="0"/>
<stop offset="0.9957" stop-color="#DC8758" stop-opacity="0.996"/>
<stop offset="1" stop-color="#DC8758"/>
</linearGradient>
<linearGradient id="paint8_linear_1058_30" x1="67.4108" y1="32.9031" x2="62.3872" y2="39.8296" gradientUnits="userSpaceOnUse">
<stop stop-color="#FEF0AE"/>
<stop offset="1" stop-color="#FBC56D"/>
</linearGradient>
<linearGradient id="paint9_linear_1058_30" x1="67.8684" y1="37.3453" x2="59.9524" y2="40.9989" gradientUnits="userSpaceOnUse">
<stop stop-color="#DC8758" stop-opacity="0"/>
<stop offset="0.9957" stop-color="#DC8758" stop-opacity="0.996"/>
<stop offset="1" stop-color="#DC8758"/>
</linearGradient>
<linearGradient id="paint10_linear_1058_30" x1="72.5638" y1="26.9991" x2="64.2672" y2="33.1644" gradientUnits="userSpaceOnUse">
<stop stop-color="#FEF0AE"/>
<stop offset="1" stop-color="#FBC56D"/>
</linearGradient>
<linearGradient id="paint11_linear_1058_30" x1="69.0856" y1="33.8953" x2="62.7935" y2="33.7939" gradientUnits="userSpaceOnUse">
<stop stop-color="#DC8758" stop-opacity="0"/>
<stop offset="0.9957" stop-color="#DC8758" stop-opacity="0.996"/>
<stop offset="1" stop-color="#DC8758"/>
</linearGradient>
<linearGradient id="paint12_linear_1058_30" x1="55.8953" y1="12.8166" x2="57.7982" y2="21.5699" gradientUnits="userSpaceOnUse">
<stop stop-color="#FEF0AE"/>
<stop offset="1" stop-color="#FBC56D"/>
</linearGradient>
<linearGradient id="paint13_linear_1058_30" x1="64.1179" y1="13.6982" x2="59.2465" y2="18.6709" gradientUnits="userSpaceOnUse">
<stop stop-color="#DC8758" stop-opacity="0"/>
<stop offset="0.9957" stop-color="#DC8758" stop-opacity="0.996"/>
<stop offset="1" stop-color="#DC8758"/>
</linearGradient>
<linearGradient id="paint14_linear_1058_30" x1="67.0444" y1="14.9192" x2="62.8581" y2="28.0111" gradientUnits="userSpaceOnUse">
<stop stop-color="#FEF0AE"/>
<stop offset="1" stop-color="#FBC56D"/>
</linearGradient>
<linearGradient id="paint15_linear_1058_30" x1="66.2011" y1="22.0479" x2="60.8223" y2="26.7164" gradientUnits="userSpaceOnUse">
<stop stop-color="#DC8758" stop-opacity="0"/>
<stop offset="0.9957" stop-color="#DC8758" stop-opacity="0.996"/>
<stop offset="1" stop-color="#DC8758"/>
</linearGradient>
<linearGradient id="paint16_linear_1058_30" x1="24.7362" y1="16.0806" x2="50.2677" y2="41.6122" gradientUnits="userSpaceOnUse">
<stop stop-color="#FEF0AE"/>
<stop offset="1" stop-color="#FBC56D"/>
</linearGradient>
<linearGradient id="paint17_linear_1058_30" x1="52.1958" y1="43.5385" x2="26.765" y2="18.1078" gradientUnits="userSpaceOnUse">
<stop stop-color="#FEF0AE"/>
<stop offset="1" stop-color="#FBC56D"/>
</linearGradient>
<linearGradient id="paint18_linear_1058_30" x1="27.6206" y1="18.9636" x2="47.4436" y2="38.7866" gradientUnits="userSpaceOnUse">
<stop stop-color="#FEF0AE"/>
<stop offset="1" stop-color="#FBC56D"/>
</linearGradient>
<linearGradient id="paint19_linear_1058_30" x1="39.6618" y1="38.0894" x2="39.6618" y2="53.9792" gradientUnits="userSpaceOnUse">
<stop stop-color="#DC8758" stop-opacity="0"/>
<stop offset="0.9957" stop-color="#DC8758" stop-opacity="0.996"/>
<stop offset="1" stop-color="#DC8758"/>
</linearGradient>
<linearGradient id="paint20_linear_1058_30" x1="54.1622" y1="43.5869" x2="34.1691" y2="31.0024" gradientUnits="userSpaceOnUse">
<stop stop-color="#DC8758" stop-opacity="0"/>
<stop offset="0.9957" stop-color="#DC8758" stop-opacity="0.996"/>
<stop offset="1" stop-color="#DC8758"/>
</linearGradient>
<linearGradient id="paint21_linear_1058_30" x1="34.6165" y1="26.4045" x2="43.7102" y2="35.498" gradientUnits="userSpaceOnUse">
<stop stop-color="#FBC56D"/>
<stop offset="1" stop-color="#C5715A"/>
</linearGradient>
<linearGradient id="paint22_linear_1058_30" x1="45.109" y1="28.8841" x2="32.5403" y2="34.0801" gradientUnits="userSpaceOnUse">
<stop stop-color="#8C3D27" stop-opacity="0"/>
<stop offset="1" stop-color="#8C3D27"/>
</linearGradient>
<linearGradient id="paint23_linear_1058_30" x1="41.8239" y1="33.3445" x2="34.9428" y2="30.3953" gradientUnits="userSpaceOnUse">
<stop stop-color="#8C3D27" stop-opacity="0"/>
<stop offset="1" stop-color="#8C3D27"/>
</linearGradient>
<linearGradient id="paint24_linear_1058_30" x1="37.4921" y1="33.3445" x2="44.3733" y2="30.3953" gradientUnits="userSpaceOnUse">
<stop stop-color="#8C3D27" stop-opacity="0"/>
<stop offset="1" stop-color="#8C3D27"/>
</linearGradient>
<linearGradient id="paint25_linear_1058_30" x1="37.6471" y1="33.6892" x2="42.0706" y2="26.5799" gradientUnits="userSpaceOnUse">
<stop stop-color="#8C3D27" stop-opacity="0"/>
<stop offset="1" stop-color="#8C3D27"/>
</linearGradient>
<linearGradient id="paint26_linear_1058_30" x1="41.3332" y1="32.7914" x2="40.9646" y2="25.8401" gradientUnits="userSpaceOnUse">
<stop stop-color="#8C3D27" stop-opacity="0"/>
<stop offset="1" stop-color="#8C3D27"/>
</linearGradient>
<linearGradient id="paint27_linear_1058_30" x1="51.5908" y1="20.7786" x2="42.254" y2="4.43922" gradientUnits="userSpaceOnUse">
<stop stop-color="#DC8758" stop-opacity="0"/>
<stop offset="0.9957" stop-color="#DC8758" stop-opacity="0.996"/>
<stop offset="1" stop-color="#DC8758"/>
</linearGradient>
<linearGradient id="paint28_linear_1058_30" x1="36.3846" y1="3.22811" x2="44.4574" y2="11.3009" gradientUnits="userSpaceOnUse">
<stop stop-color="#FBC56D"/>
<stop offset="1" stop-color="#C5715A"/>
</linearGradient>
<linearGradient id="paint29_linear_1058_30" x1="42.8562" y1="9.69778" x2="35.2939" y2="2.13541" gradientUnits="userSpaceOnUse">
<stop stop-color="#FBC56D"/>
<stop offset="1" stop-color="#C5715A"/>
</linearGradient>
</defs>
</svg>
