<svg width="100" height="100" viewBox="0 0 100 100" fill="none" xmlns="http://www.w3.org/2000/svg">
<path d="M25.6609 27.0326C25.2406 25.7014 25.3298 24.2615 25.9111 22.9923C26.4924 21.7231 27.5245 20.7151 28.807 20.1638L70.4099 2.30563C71.1329 1.99484 71.9131 1.83906 72.7 1.84833C73.4869 1.85759 74.2632 2.03171 74.9787 2.35944C75.6942 2.68717 76.333 3.16124 76.8541 3.75107C77.3751 4.34089 77.7667 5.03338 78.0036 5.78386L79.5209 10.5899L27.5172 32.9126L25.6609 27.0326Z" fill="white"/>
<ellipse cx="34.5866" cy="83.7726" rx="14.5125" ry="11.098" transform="rotate(-18.6699 34.5866 83.7726)" fill="white"/>
<rect x="27.1094" y="31.6455" width="5.63114" height="53.3129" transform="rotate(-17.52 27.1094 31.6455)" fill="white"/>
</svg>
