<svg width="48" height="48" viewBox="0 0 48 48" fill="none" xmlns="http://www.w3.org/2000/svg">
<path d="M13.4268 25.0981C27.1866 25.0981 22.0928 25.0981 34.8248 25.0981C35.741 25.0981 36.5094 24.3444 36.5094 23.4134C36.5094 22.4824 35.741 21.7288 34.8248 21.7288C22.0928 21.7288 27.1866 21.7288 13.4268 21.7288C12.5106 21.7288 11.7422 22.4824 11.7422 23.4134C11.7422 24.3444 12.5106 25.0981 13.4268 25.0981Z" fill="white"/>
<path d="M22.4432 12.7137C22.4432 26.4734 22.4432 21.3797 22.4432 34.1116C22.4432 35.0279 23.1969 35.7963 24.1279 35.7963C25.0588 35.7963 25.8125 35.0279 25.8125 34.1116C25.8125 21.3797 25.8125 26.4734 25.8125 12.7137C25.8125 11.7975 25.0588 11.0291 24.1279 11.0291C23.1969 11.0291 22.4432 11.7975 22.4432 12.7137Z" fill="white"/>
</svg>
