<svg width="48" height="48" viewBox="0 0 48 48" fill="none" xmlns="http://www.w3.org/2000/svg">
<g id="I / Math / plus">
<path id="plus" d="M12.8409 25.132C26.6006 25.132 21.5069 25.132 34.2388 25.132C35.1551 25.132 35.9235 24.3783 35.9235 23.4473C35.9235 22.5164 35.1551 21.7627 34.2388 21.7627C21.5069 21.7627 26.6006 21.7627 12.8409 21.7627C11.9247 21.7627 11.1562 22.5164 11.1562 23.4473C11.1562 24.3783 11.9247 25.132 12.8409 25.132Z" fill="#1E0D37"/>
<path id="plus_2" d="M21.8534 12.7476C21.8534 26.5074 21.8534 21.4136 21.8534 34.1456C21.8534 35.0618 22.607 35.8302 23.538 35.8302C24.469 35.8302 25.2227 35.0618 25.2227 34.1456C25.2227 21.4136 25.2227 26.5074 25.2227 12.7476C25.2227 11.8314 24.469 11.063 23.538 11.063C22.607 11.063 21.8534 11.8314 21.8534 12.7476Z" fill="#1E0D37"/>
</g>
</svg>
