<svg width="30" height="30" viewBox="0 0 30 30" fill="none" xmlns="http://www.w3.org/2000/svg">
<circle cx="14.9026" cy="15.4724" r="14.5276" fill="url(#paint0_linear_1414_24)"/>
<path d="M13.0343 24.5803C12.3112 24.5803 11.6804 24.488 11.1419 24.3034C10.6034 24.1341 10.2188 23.8341 9.98799 23.4033C9.57259 23.2341 9.28026 22.9725 9.11103 22.6187C8.95717 22.2494 8.88025 21.8494 8.88025 21.4186C9.64951 20.834 10.3957 20.1493 11.1188 19.3647C11.8573 18.58 12.5343 17.7569 13.1497 16.8954C13.7805 16.0338 14.3266 15.203 14.7882 14.4029C15.2651 13.5875 15.6344 12.8567 15.8959 12.2105C16.1575 11.549 16.2883 11.0413 16.2883 10.6874C16.2883 10.1335 16.0036 9.85658 15.4344 9.85658C15.0959 9.85658 14.7036 10.0104 14.2574 10.3181C13.8112 10.6258 13.3497 11.0413 12.8727 11.5644C12.3958 12.0721 11.9496 12.6567 11.5342 13.3183C11.1342 13.9798 10.8034 14.6722 10.5419 15.3953C9.92645 15.1799 9.4572 14.826 9.1341 14.3337C8.8264 13.826 8.67255 13.2952 8.67255 12.7413C8.67255 12.1875 8.8264 11.6105 9.1341 11.0105C9.4572 10.4105 9.8726 9.84889 10.3803 9.32579C10.9034 8.80269 11.4881 8.3796 12.1342 8.0565C12.7804 7.73341 13.4343 7.57187 14.0959 7.57187C14.7728 7.57187 15.3882 7.64879 15.9421 7.80265C16.496 7.9565 16.9883 8.31036 17.4191 8.86423C18.096 9.07963 18.6038 9.47964 18.9422 10.0643C19.2961 10.6489 19.473 11.2336 19.473 11.8182C19.473 12.4182 19.2884 13.126 18.9192 13.9414C18.5499 14.7414 18.0422 15.5876 17.396 16.48C16.7498 17.3723 16.0036 18.257 15.1574 19.1339C14.3266 19.9955 13.4497 20.7801 12.5266 21.4879V21.534C13.1112 21.3648 13.7805 21.1955 14.5343 21.0263C15.2882 20.8571 16.0113 20.7725 16.7037 20.7725C17.4883 20.7725 18.1576 20.934 18.7115 21.2571C19.2807 21.5648 19.5653 22.1417 19.5653 22.9879C19.5653 23.1418 19.5192 23.2495 19.4269 23.311C19.3346 23.3726 19.2346 23.4033 19.1269 23.4033C18.9115 23.4033 18.5345 23.4649 17.996 23.588C17.4575 23.6957 16.8652 23.8341 16.219 24.0034C15.5729 24.1572 14.9574 24.288 14.3728 24.3957C13.7882 24.5188 13.342 24.5803 13.0343 24.5803Z" fill="white"/>
<defs>
<linearGradient id="paint0_linear_1414_24" x1="14.9026" y1="0.944824" x2="14.9026" y2="30" gradientUnits="userSpaceOnUse">
<stop stop-color="#D9D9D9"/>
<stop offset="1" stop-color="#737373"/>
</linearGradient>
</defs>
</svg>
