<svg width="80" height="56" viewBox="0 0 80 56" fill="none" xmlns="http://www.w3.org/2000/svg">
<g clip-path="url(#clip0_1058_70)">
<path d="M18.7216 35.0785C22.6124 36.6756 25.691 39.2517 27.5777 42.1714C27.9728 42.7828 27.377 44.2342 26.6662 44.3918C23.2722 45.1437 19.2717 44.8139 15.3808 43.2166C11.49 41.6193 8.41139 39.0434 6.52466 36.1237C6.12954 35.5123 6.72538 34.0607 7.43614 33.9033C10.83 33.1514 14.8307 33.4813 18.7216 35.0785Z" fill="url(#paint0_linear_1058_70)"/>
<path d="M18.7216 35.0785C22.6124 36.6756 25.691 39.2517 27.5777 42.1714C27.9728 42.7828 27.377 44.2342 26.6662 44.3918C23.2722 45.1437 19.2717 44.8139 15.3808 43.2166C11.49 41.6193 8.41139 39.0434 6.52466 36.1237C6.12954 35.5123 6.72538 34.0607 7.43614 33.9033C10.83 33.1514 14.8307 33.4813 18.7216 35.0785Z" fill="url(#paint1_linear_1058_70)"/>
<path d="M20.6978 29.5616C24.5082 32.5817 27.1029 36.4289 28.264 40.2763C28.5071 41.0821 27.3805 42.5035 26.5405 42.4508C22.5297 42.1993 18.1915 40.5518 14.3811 37.5317C10.5706 34.5117 7.9759 30.6644 6.81487 26.817C6.57179 26.0112 7.69831 24.5899 8.53831 24.6425C12.5492 24.8942 16.8874 26.5416 20.6978 29.5616Z" fill="url(#paint2_linear_1058_70)"/>
<path d="M20.6978 29.5616C24.5082 32.5817 27.1029 36.4289 28.264 40.2763C28.5071 41.0821 27.3805 42.5035 26.5405 42.4508C22.5297 42.1993 18.1915 40.5518 14.3811 37.5317C10.5706 34.5117 7.9759 30.6644 6.81487 26.817C6.57179 26.0112 7.69831 24.5899 8.53831 24.6425C12.5492 24.8942 16.8874 26.5416 20.6978 29.5616Z" fill="url(#paint3_linear_1058_70)"/>
<path d="M24.5443 21.0593C27.8831 26.1842 29.4411 31.8102 29.2889 36.8635C29.257 37.9218 27.3452 39.1672 26.3644 38.7688C21.6805 36.8662 17.1638 33.1678 13.825 28.0429C10.4863 22.918 8.92827 17.292 9.08046 12.2387C9.11235 11.1805 11.0242 9.93501 12.005 10.3334C16.6889 12.236 21.2056 15.9344 24.5443 21.0593Z" fill="url(#paint4_linear_1058_70)"/>
<path d="M9.65234 18.1789C10.3696 21.4889 11.755 24.8623 13.8272 28.043C17.166 33.1679 21.6826 36.8663 26.3666 38.7689C27.3475 39.1674 29.2592 37.9218 29.2911 36.8636C29.4435 31.8103 27.8855 26.1843 24.5466 21.0594C22.5805 18.0417 20.2059 15.519 17.6294 13.5659L9.65234 18.1789Z" fill="url(#paint5_linear_1058_70)"/>
<path d="M59.9042 35.0785C56.0134 36.6756 52.9348 39.2517 51.0481 42.1714C50.653 42.7828 51.2488 44.2342 51.9596 44.3918C55.3536 45.1437 59.3542 44.8139 63.245 43.2166C67.1359 41.6193 70.2144 39.0434 72.1012 36.1237C72.4963 35.5123 71.9004 34.0607 71.1897 33.9033C67.7958 33.1514 63.7951 33.4813 59.9042 35.0785Z" fill="url(#paint6_linear_1058_70)"/>
<path d="M59.9042 35.0785C56.0134 36.6756 52.9348 39.2517 51.0481 42.1714C50.653 42.7828 51.2488 44.2342 51.9596 44.3918C55.3536 45.1437 59.3542 44.8139 63.245 43.2166C67.1359 41.6193 70.2144 39.0434 72.1012 36.1237C72.4963 35.5123 71.9004 34.0607 71.1897 33.9033C67.7958 33.1514 63.7951 33.4813 59.9042 35.0785Z" fill="url(#paint7_linear_1058_70)"/>
<path d="M57.9279 29.5616C54.1175 32.5817 51.5228 36.4289 50.3617 40.2763C50.1187 41.0821 51.2452 42.5035 52.0852 42.4508C56.096 42.1993 60.4342 40.5518 64.2447 37.5317C68.0551 34.5117 70.6498 30.6644 71.8108 26.817C72.0539 26.0112 70.9274 24.5899 70.0874 24.6425C66.0766 24.8942 61.7384 26.5416 57.9279 29.5616Z" fill="url(#paint8_linear_1058_70)"/>
<path d="M57.9279 29.5616C54.1175 32.5817 51.5228 36.4289 50.3617 40.2763C50.1187 41.0821 51.2452 42.5035 52.0852 42.4508C56.096 42.1993 60.4342 40.5518 64.2447 37.5317C68.0551 34.5117 70.6498 30.6644 71.8108 26.817C72.0539 26.0112 70.9274 24.5899 70.0874 24.6425C66.0766 24.8942 61.7384 26.5416 57.9279 29.5616Z" fill="url(#paint9_linear_1058_70)"/>
<path d="M54.0789 21.0593C50.7402 26.1842 49.1822 31.8102 49.3344 36.8635C49.3663 37.9218 51.2781 39.1672 52.2589 38.7688C56.9428 36.8662 61.4595 33.1678 64.7982 28.0429C68.137 22.918 69.695 17.292 69.5428 12.2387C69.5109 11.1805 67.5991 9.93501 66.6183 10.3334C61.9344 12.236 57.4177 15.9344 54.0789 21.0593Z" fill="url(#paint10_linear_1058_70)"/>
<path d="M68.9732 18.1789C68.2559 21.4889 66.8705 24.8623 64.7983 28.043C61.4595 33.1679 56.9429 36.8663 52.2589 38.7689C51.278 39.1674 49.3663 37.9218 49.3344 36.8636C49.182 31.8103 50.74 26.1843 54.0789 21.0594C56.045 18.0417 58.4196 15.519 60.9961 13.5659L68.9732 18.1789Z" fill="url(#paint11_linear_1058_70)"/>
<path d="M39.3095 55.6229C52.8389 55.6229 63.8065 44.6553 63.8065 31.1259C63.8065 17.5966 52.8389 6.62891 39.3095 6.62891C25.7802 6.62891 14.8125 17.5966 14.8125 31.1259C14.8125 44.6553 25.7802 55.6229 39.3095 55.6229Z" fill="url(#paint12_linear_1058_70)"/>
<path d="M39.3071 50.6518C50.091 50.6518 58.833 41.9098 58.833 31.126C58.833 20.3421 50.091 11.6001 39.3071 11.6001C28.5233 11.6001 19.7812 20.3421 19.7812 31.126C19.7812 41.9098 28.5233 50.6518 39.3071 50.6518Z" fill="url(#paint13_linear_1058_70)"/>
<path d="M39.31 47.8887C48.568 47.8887 56.073 40.3836 56.073 31.1256C56.073 21.8676 48.568 14.3625 39.31 14.3625C30.052 14.3625 22.5469 21.8676 22.5469 31.1256C22.5469 40.3836 30.052 47.8887 39.31 47.8887Z" fill="url(#paint14_linear_1058_70)"/>
<path d="M14.8125 31.1262C14.8125 44.6556 25.7801 55.6232 39.3095 55.6232C52.8389 55.6232 63.8065 44.6556 63.8065 31.1262C63.8065 31.0311 63.8041 30.9367 63.803 30.8418H14.816C14.815 30.9367 14.8125 31.0311 14.8125 31.1262Z" fill="url(#paint15_linear_1058_70)"/>
<path d="M46.1765 54.645C53.8955 52.3938 60.0378 46.4469 62.56 38.8475L50.6288 26.9163L47.939 27.0483L40.6796 19.7888L31.832 40.3006L46.1765 54.645Z" fill="url(#paint16_linear_1058_70)"/>
<path d="M49.3547 25.8032L44.5505 24.6425C44.1037 24.5345 43.7132 24.2635 43.4554 23.8827L40.686 19.789C40.351 19.2939 39.8379 19.0282 39.3098 18.9854C38.7817 19.0282 38.2685 19.2939 37.9336 19.789L35.1642 23.8827C34.9066 24.2635 34.5161 24.5345 34.0691 24.6425L29.2649 25.8032C27.9617 26.1181 27.4187 27.6734 28.2425 28.7311L31.2801 32.63C31.5626 32.9927 31.6997 33.4478 31.6643 33.9062L31.2836 38.8339C31.1804 40.1706 32.4918 41.1679 33.7524 40.711L38.3991 39.027C38.6927 38.9205 39.0059 38.8931 39.3098 38.9402C39.6139 38.8932 39.9269 38.9207 40.2205 39.027L44.8673 40.711C46.1276 41.1677 47.4392 40.1706 47.336 38.8339L46.9553 33.9062C46.9199 33.4478 47.057 32.9927 47.3395 32.63L50.3771 28.7311C51.2009 27.6734 50.6579 26.1181 49.3547 25.8032Z" fill="url(#paint17_linear_1058_70)"/>
<path d="M40.2193 39.027L44.866 40.711C46.1264 41.1677 47.438 40.1706 47.3348 38.8339L46.9541 33.9062C46.9187 33.4478 47.0558 32.9927 47.3383 32.63L50.3759 28.7311C51.1999 27.6736 50.6567 26.1181 49.3535 25.8032L44.5493 24.6425C44.1024 24.5345 43.7119 24.2635 43.4542 23.8827L40.6848 19.789C40.3498 19.2939 39.8367 19.0282 39.3086 18.9854V38.9402C39.6127 38.8931 39.9258 38.9205 40.2193 39.027Z" fill="url(#paint18_linear_1058_70)"/>
<path d="M49.356 25.803L44.5519 24.6423C44.3878 24.6027 44.2316 24.5406 44.0867 24.4597L31.8398 40.3005C32.3203 40.7648 33.0451 40.9677 33.7537 40.7109L38.4004 39.0269C38.694 38.9205 39.0072 38.893 39.3111 38.9402C39.6152 38.8932 39.9282 38.9206 40.2218 39.0269L44.8686 40.7109C46.129 41.1677 47.4405 40.1705 47.3373 38.8339L46.9567 33.9062C46.9212 33.4477 47.0583 32.9927 47.3408 32.6299L50.3784 28.7311C51.2023 27.6732 50.6593 26.1178 49.356 25.803Z" fill="url(#paint19_linear_1058_70)"/>
<path d="M29.2649 25.803L34.0691 24.6423C34.2331 24.6027 34.3893 24.5406 34.5343 24.4597L46.7811 40.3005C46.3006 40.7648 45.5759 40.9677 44.8673 40.7109L40.2205 39.0269C39.9269 38.9205 39.6137 38.893 39.3098 38.9402C39.0057 38.8932 38.6927 38.9206 38.3991 39.0269L33.7524 40.7109C32.492 41.1677 31.1804 40.1705 31.2836 38.8339L31.6643 33.9062C31.6997 33.4477 31.5626 32.9927 31.2801 32.6299L28.2425 28.7311C27.4187 27.6732 27.9617 26.1178 29.2649 25.803Z" fill="url(#paint20_linear_1058_70)"/>
<path d="M27.9842 26.9165C27.7558 27.4926 27.8106 28.1792 28.2406 28.7311L31.2782 32.63C31.5607 32.9928 31.6978 33.4478 31.6623 33.9063L31.2817 38.834C31.1785 40.1706 32.4899 41.1679 33.7504 40.711L38.3972 39.027C38.6908 38.9205 39.0039 38.8931 39.3079 38.9403C39.6119 38.8933 39.925 38.9207 40.2186 39.027L44.8653 40.711C46.1257 41.1677 47.4372 40.1706 47.334 38.834L46.9534 33.9063C46.9337 33.6519 46.9689 33.3991 47.0509 33.1621L27.9842 26.9165Z" fill="url(#paint21_linear_1058_70)"/>
<path d="M50.6329 26.9165C50.8613 27.4926 50.8066 28.1792 50.3765 28.7311L47.3389 32.63C47.0564 32.9928 46.9193 33.4478 46.9547 33.9063L47.3354 38.834C47.4386 40.1706 46.1271 41.1679 44.8667 40.711L40.2199 39.027C39.9263 38.9205 39.6132 38.8931 39.3092 38.9403C39.0051 38.8933 38.6921 38.9207 38.3985 39.027L33.7518 40.711C32.4914 41.1677 31.1799 40.1706 31.2831 38.834L31.6637 33.9063C31.6834 33.6519 31.6481 33.3991 31.5662 33.1621L50.6329 26.9165Z" fill="url(#paint22_linear_1058_70)"/>
<path d="M39.3071 6.62964C39.2055 6.62964 39.1046 6.63226 39.0032 6.63349L35.2227 10.414L62.8214 38.0127C63.46 35.8281 63.8042 33.5176 63.8042 31.1265C63.8042 17.5973 52.8365 6.62964 39.3071 6.62964Z" fill="url(#paint23_linear_1058_70)"/>
<path d="M39.3115 12.1054C42.5017 12.1054 45.0878 9.51927 45.0878 6.32908C45.0878 3.13889 42.5017 0.552734 39.3115 0.552734C36.1213 0.552734 33.5352 3.13889 33.5352 6.32908C33.5352 9.51927 36.1213 12.1054 39.3115 12.1054Z" fill="url(#paint24_linear_1058_70)"/>
<path d="M39.3116 9.64062C41.1406 9.64062 42.6233 8.15794 42.6233 6.32897C42.6233 4.50001 41.1406 3.01733 39.3116 3.01733C37.4827 3.01733 36 4.50001 36 6.32897C36 8.15794 37.4827 9.64062 39.3116 9.64062Z" fill="url(#paint25_linear_1058_70)"/>
</g>
<defs>
<linearGradient id="paint0_linear_1058_70" x1="14.2445" y1="31.8084" x2="17.0304" y2="39.0665" gradientUnits="userSpaceOnUse">
<stop stop-color="#E6E6E6"/>
<stop offset="1" stop-color="#999999"/>
</linearGradient>
<linearGradient id="paint1_linear_1058_70" x1="12.8013" y1="35.6006" x2="18.8937" y2="40.6638" gradientUnits="userSpaceOnUse">
<stop stop-color="#766E6E" stop-opacity="0"/>
<stop offset="0.2806" stop-color="#716B6B" stop-opacity="0.281"/>
<stop offset="0.5705" stop-color="#656060" stop-opacity="0.571"/>
<stop offset="0.8636" stop-color="#514F4F" stop-opacity="0.864"/>
<stop offset="1" stop-color="#444444"/>
</linearGradient>
<linearGradient id="paint2_linear_1058_70" x1="11.1027" y1="25.4178" x2="16.9402" y2="32.775" gradientUnits="userSpaceOnUse">
<stop stop-color="#E6E6E6"/>
<stop offset="1" stop-color="#999999"/>
</linearGradient>
<linearGradient id="paint3_linear_1058_70" x1="12.539" y1="32.287" x2="18.0864" y2="33.6731" gradientUnits="userSpaceOnUse">
<stop stop-color="#766E6E" stop-opacity="0"/>
<stop offset="0.2806" stop-color="#716B6B" stop-opacity="0.281"/>
<stop offset="0.5705" stop-color="#656060" stop-opacity="0.571"/>
<stop offset="0.8636" stop-color="#514F4F" stop-opacity="0.864"/>
<stop offset="1" stop-color="#444444"/>
</linearGradient>
<linearGradient id="paint4_linear_1058_70" x1="18.7799" y1="16.1072" x2="19.3854" y2="28.5812" gradientUnits="userSpaceOnUse">
<stop stop-color="#E6E6E6"/>
<stop offset="1" stop-color="#999999"/>
</linearGradient>
<linearGradient id="paint5_linear_1058_70" x1="17.8514" y1="22.563" x2="21.4786" y2="27.9222" gradientUnits="userSpaceOnUse">
<stop stop-color="#766E6E" stop-opacity="0"/>
<stop offset="0.2806" stop-color="#716B6B" stop-opacity="0.281"/>
<stop offset="0.5705" stop-color="#656060" stop-opacity="0.571"/>
<stop offset="0.8636" stop-color="#514F4F" stop-opacity="0.864"/>
<stop offset="1" stop-color="#444444"/>
</linearGradient>
<linearGradient id="paint6_linear_1058_70" x1="64.3882" y1="31.8028" x2="61.6023" y2="39.061" gradientUnits="userSpaceOnUse">
<stop stop-color="#E6E6E6"/>
<stop offset="1" stop-color="#999999"/>
</linearGradient>
<linearGradient id="paint7_linear_1058_70" x1="65.8315" y1="35.595" x2="59.7391" y2="40.6581" gradientUnits="userSpaceOnUse">
<stop stop-color="#766E6E" stop-opacity="0"/>
<stop offset="0.2806" stop-color="#716B6B" stop-opacity="0.281"/>
<stop offset="0.5705" stop-color="#656060" stop-opacity="0.571"/>
<stop offset="0.8636" stop-color="#514F4F" stop-opacity="0.864"/>
<stop offset="1" stop-color="#444444"/>
</linearGradient>
<linearGradient id="paint8_linear_1058_70" x1="67.5301" y1="25.4121" x2="61.6924" y2="32.7695" gradientUnits="userSpaceOnUse">
<stop stop-color="#E6E6E6"/>
<stop offset="1" stop-color="#999999"/>
</linearGradient>
<linearGradient id="paint9_linear_1058_70" x1="66.0936" y1="32.2813" x2="60.5462" y2="33.6676" gradientUnits="userSpaceOnUse">
<stop stop-color="#766E6E" stop-opacity="0"/>
<stop offset="0.2806" stop-color="#716B6B" stop-opacity="0.281"/>
<stop offset="0.5705" stop-color="#656060" stop-opacity="0.571"/>
<stop offset="0.8636" stop-color="#514F4F" stop-opacity="0.864"/>
<stop offset="1" stop-color="#444444"/>
</linearGradient>
<linearGradient id="paint10_linear_1058_70" x1="59.8502" y1="16.1016" x2="59.2448" y2="28.5757" gradientUnits="userSpaceOnUse">
<stop stop-color="#E6E6E6"/>
<stop offset="1" stop-color="#999999"/>
</linearGradient>
<linearGradient id="paint11_linear_1058_70" x1="60.781" y1="22.5573" x2="57.1539" y2="27.9165" gradientUnits="userSpaceOnUse">
<stop stop-color="#766E6E" stop-opacity="0"/>
<stop offset="0.2806" stop-color="#716B6B" stop-opacity="0.281"/>
<stop offset="0.5705" stop-color="#656060" stop-opacity="0.571"/>
<stop offset="0.8636" stop-color="#514F4F" stop-opacity="0.864"/>
<stop offset="1" stop-color="#444444"/>
</linearGradient>
<linearGradient id="paint12_linear_1058_70" x1="24.2061" y1="16.0225" x2="50.0418" y2="41.8582" gradientUnits="userSpaceOnUse">
<stop stop-color="#E6E6E6"/>
<stop offset="1" stop-color="#999999"/>
</linearGradient>
<linearGradient id="paint13_linear_1058_70" x1="51.989" y1="43.8078" x2="26.2553" y2="18.0741" gradientUnits="userSpaceOnUse">
<stop stop-color="#E6E6E6"/>
<stop offset="1" stop-color="#999999"/>
</linearGradient>
<linearGradient id="paint14_linear_1058_70" x1="27.1237" y1="18.9394" x2="47.1828" y2="38.9985" gradientUnits="userSpaceOnUse">
<stop stop-color="#E6E6E6"/>
<stop offset="1" stop-color="#999999"/>
</linearGradient>
<linearGradient id="paint15_linear_1058_70" x1="39.3095" y1="38.2935" x2="39.3095" y2="54.3727" gradientUnits="userSpaceOnUse">
<stop stop-color="#766E6E" stop-opacity="0"/>
<stop offset="0.2806" stop-color="#716B6B" stop-opacity="0.281"/>
<stop offset="0.5705" stop-color="#656060" stop-opacity="0.571"/>
<stop offset="0.8636" stop-color="#514F4F" stop-opacity="0.864"/>
<stop offset="1" stop-color="#444444"/>
</linearGradient>
<linearGradient id="paint16_linear_1058_70" x1="53.9776" y1="43.8573" x2="33.7463" y2="31.1229" gradientUnits="userSpaceOnUse">
<stop stop-color="#766E6E" stop-opacity="0"/>
<stop offset="0.2806" stop-color="#716B6B" stop-opacity="0.281"/>
<stop offset="0.5705" stop-color="#656060" stop-opacity="0.571"/>
<stop offset="0.8636" stop-color="#514F4F" stop-opacity="0.864"/>
<stop offset="1" stop-color="#444444"/>
</linearGradient>
<linearGradient id="paint17_linear_1058_70" x1="34.2069" y1="26.4699" x2="43.4089" y2="35.6717" gradientUnits="userSpaceOnUse">
<stop stop-color="#F9F5F3"/>
<stop offset="1" stop-color="#D8E8F0"/>
</linearGradient>
<linearGradient id="paint18_linear_1058_70" x1="44.8223" y1="28.9788" x2="32.104" y2="34.2366" gradientUnits="userSpaceOnUse">
<stop stop-color="#678D98" stop-opacity="0"/>
<stop offset="0.9957" stop-color="#678D98" stop-opacity="0.996"/>
<stop offset="1" stop-color="#678D98"/>
</linearGradient>
<linearGradient id="paint19_linear_1058_70" x1="41.5041" y1="33.4921" x2="34.541" y2="30.5078" gradientUnits="userSpaceOnUse">
<stop stop-color="#678D98" stop-opacity="0"/>
<stop offset="0.9957" stop-color="#678D98" stop-opacity="0.996"/>
<stop offset="1" stop-color="#678D98"/>
</linearGradient>
<linearGradient id="paint20_linear_1058_70" x1="37.1168" y1="33.4921" x2="44.0799" y2="30.5078" gradientUnits="userSpaceOnUse">
<stop stop-color="#678D98" stop-opacity="0"/>
<stop offset="0.9957" stop-color="#678D98" stop-opacity="0.996"/>
<stop offset="1" stop-color="#678D98"/>
</linearGradient>
<linearGradient id="paint21_linear_1058_70" x1="37.2697" y1="33.8416" x2="41.7459" y2="26.6475" gradientUnits="userSpaceOnUse">
<stop stop-color="#678D98" stop-opacity="0"/>
<stop offset="0.9957" stop-color="#678D98" stop-opacity="0.996"/>
<stop offset="1" stop-color="#678D98"/>
</linearGradient>
<linearGradient id="paint22_linear_1058_70" x1="41.0023" y1="32.933" x2="40.6294" y2="25.8989" gradientUnits="userSpaceOnUse">
<stop stop-color="#678D98" stop-opacity="0"/>
<stop offset="0.9957" stop-color="#678D98" stop-opacity="0.996"/>
<stop offset="1" stop-color="#678D98"/>
</linearGradient>
<linearGradient id="paint23_linear_1058_70" x1="51.3786" y1="20.7777" x2="41.9307" y2="4.24365" gradientUnits="userSpaceOnUse">
<stop stop-color="#766E6E" stop-opacity="0"/>
<stop offset="0.2806" stop-color="#716B6B" stop-opacity="0.281"/>
<stop offset="0.5705" stop-color="#656060" stop-opacity="0.571"/>
<stop offset="0.8636" stop-color="#514F4F" stop-opacity="0.864"/>
<stop offset="1" stop-color="#444444"/>
</linearGradient>
<linearGradient id="paint24_linear_1058_70" x1="35.9996" y1="3.01713" x2="44.1685" y2="11.1861" gradientUnits="userSpaceOnUse">
<stop stop-color="#F9F5F3"/>
<stop offset="1" stop-color="#D8E8F0"/>
</linearGradient>
<linearGradient id="paint25_linear_1058_70" x1="41.6608" y1="8.67815" x2="37.617" y2="4.63434" gradientUnits="userSpaceOnUse">
<stop stop-color="#F9F5F3"/>
<stop offset="1" stop-color="#D8E8F0"/>
</linearGradient>
<clipPath id="clip0_1058_70">
<rect width="79" height="55" fill="white" transform="translate(0.0195312 0.835693)"/>
</clipPath>
</defs>
</svg>
