<svg width="70" height="71" viewBox="0 0 70 71" fill="none" xmlns="http://www.w3.org/2000/svg">
<path d="M34.8252 67.8812C52.58 67.8812 66.9227 53.327 66.9227 35.4359C66.9227 17.5449 52.58 2.99065 34.8252 2.99065C17.0704 2.99065 2.72771 17.5449 2.72771 35.4359C2.72771 53.327 17.0704 67.8812 34.8252 67.8812Z" fill="#FFC444" stroke="black" stroke-width="5.06802"/>
<path d="M34.6175 24.2309V39.7597C32.9103 38.779 30.8034 38.3975 28.5695 39.1785C26.1357 40.0503 24.265 42.2117 23.8291 44.7544C23.6276 45.8985 23.7029 47.0743 24.0487 48.1833C24.3946 49.2924 25.0009 50.3025 25.817 51.1293C26.6331 51.9561 27.6353 52.5755 28.7398 52.9357C29.8443 53.296 31.019 53.3866 32.1656 53.1999C35.7255 52.6369 38.25 49.3676 38.25 45.7533V27.8634H41.8825C43.8804 27.8634 45.515 26.2287 45.515 24.2309C45.515 22.233 43.8804 20.5984 41.8825 20.5984H38.25C36.2522 20.5984 34.6175 22.233 34.6175 24.2309Z" fill="white"/>
</svg>
