<svg width="30" height="30" viewBox="0 0 30 30" fill="none" xmlns="http://www.w3.org/2000/svg">
<circle cx="14.9612" cy="15.4724" r="14.5276" fill="url(#paint0_linear_1414_27)"/>
<path d="M12.0313 24.8572C11.662 24.8572 11.3082 24.7496 10.9697 24.5342C10.6312 24.3341 10.3235 24.0726 10.0466 23.7495C9.76965 23.4264 9.55425 23.1033 9.4004 22.7802C9.24655 22.4418 9.16962 22.1494 9.16962 21.9033C9.16962 21.7802 9.1927 21.6648 9.23885 21.5571C9.28501 21.4494 9.37732 21.3956 9.51579 21.3956C10.8389 21.3956 11.9313 21.3109 12.7929 21.1417C13.6544 20.9571 14.3391 20.7186 14.8468 20.4263C15.3545 20.134 15.7084 19.8186 15.9084 19.4801C16.1238 19.1262 16.2315 18.7801 16.2315 18.4416C16.2315 18.257 16.1622 18.0646 16.0238 17.8646C15.9007 17.6646 15.6545 17.5415 15.2853 17.4954C14.5468 17.8031 13.8314 17.9569 13.139 17.9569C12.9544 17.9569 12.8082 17.9262 12.7005 17.8646C12.4852 17.7262 12.239 17.5415 11.9621 17.3108C11.6851 17.0646 11.439 16.7954 11.2236 16.503C11.0235 16.1953 10.9235 15.903 10.9235 15.6261C10.9235 15.5338 10.9466 15.403 10.9928 15.2337C11.0543 15.0491 11.1851 14.9568 11.3851 14.9568C12.2467 14.9568 13.0083 14.8337 13.6698 14.5876C14.3314 14.326 14.8853 13.9952 15.3314 13.5952C15.793 13.1952 16.1392 12.7875 16.3699 12.3721C16.6161 11.9413 16.7392 11.5644 16.7392 11.2413C16.7392 10.8874 16.6392 10.5951 16.4392 10.3643C16.2545 10.1181 15.9161 9.99505 15.4237 9.99505C15.0545 9.99505 14.6545 10.1027 14.2237 10.3181C13.8083 10.5335 13.4006 10.8105 13.0006 11.149C12.6159 11.4874 12.2698 11.8644 11.9621 12.2798C11.6543 12.6798 11.4159 13.0721 11.2466 13.4567C10.6312 13.2413 10.162 12.8875 9.83888 12.3952C9.53117 11.8874 9.37732 11.3567 9.37732 10.8028C9.37732 10.2797 9.56964 9.77197 9.95427 9.27964C10.3543 8.78731 10.9159 8.3796 11.639 8.0565C12.3775 7.73341 13.2467 7.57187 14.2468 7.57187C14.9545 7.57187 15.6007 7.67957 16.1853 7.89496C16.7853 8.11035 17.2392 8.46422 17.5469 8.95654C18.2393 9.26425 18.7162 9.69504 18.9777 10.2489C19.2547 10.7874 19.3931 11.2797 19.3931 11.7259C19.3931 12.5259 19.2316 13.2567 18.9085 13.9183C18.5854 14.5799 18.1239 15.203 17.5238 15.7876C18.1392 16.1107 18.5931 16.5338 18.8854 17.0569C19.1931 17.5646 19.347 18.1339 19.347 18.7647C19.347 19.457 19.2008 20.1647 18.9085 20.8878C18.6316 21.5956 18.1931 22.2494 17.5931 22.8495C17.0084 23.4495 16.2545 23.9341 15.3314 24.3034C14.4083 24.6726 13.3083 24.8572 12.0313 24.8572Z" fill="white"/>
<defs>
<linearGradient id="paint0_linear_1414_27" x1="14.9612" y1="0.944824" x2="14.9612" y2="30" gradientUnits="userSpaceOnUse">
<stop stop-color="#974A13"/>
<stop offset="1" stop-color="#5B3D27"/>
</linearGradient>
</defs>
</svg>
