<svg width="37" height="37" viewBox="0 0 37 37" fill="none" xmlns="http://www.w3.org/2000/svg">
<path d="M3.20312 9.0459C3.20312 8.25025 3.5192 7.48719 4.0818 6.92458C4.64441 6.36197 5.40748 6.0459 6.20312 6.0459H30.2031C30.9988 6.0459 31.7618 6.36197 32.3244 6.92458C32.8871 7.48719 33.2031 8.25025 33.2031 9.0459V27.0459C33.2031 27.8415 32.8871 28.6046 32.3244 29.1672C31.7618 29.7298 30.9988 30.0459 30.2031 30.0459H6.20312C5.40748 30.0459 4.64441 29.7298 4.0818 29.1672C3.5192 28.6046 3.20313 27.8415 3.20312 27.0459V9.0459Z" stroke="#FBFBFC" stroke-width="1.5" stroke-linecap="round" stroke-linejoin="round"/>
<path d="M3.20312 12.0459L14.4546 21.0474C15.5186 21.8987 16.8406 22.3624 18.2031 22.3624C19.5657 22.3624 20.8877 21.8987 21.9516 21.0474L33.2031 12.0459" stroke="#FBFBFC" stroke-width="1.5" stroke-linecap="round" stroke-linejoin="round"/>
</svg>
