<svg width="91" height="91" viewBox="0 0 91 91" fill="none" xmlns="http://www.w3.org/2000/svg">
<circle cx="45.9818" cy="45.3693" r="45" fill="#F1F1F4"/>
<path d="M36.1755 39.2404C36.1755 37.5071 36.1755 36.6405 36.7149 36.1024C37.2517 35.563 38.1184 35.563 39.8529 35.563C41.5873 35.563 42.4527 35.563 42.9909 36.1024C43.5302 36.6393 43.5302 37.5059 43.5302 39.2404V51.4982C43.5302 53.2315 43.5302 54.0981 42.9909 54.6362C42.454 55.1756 41.5873 55.1756 39.8529 55.1756C38.1184 55.1756 37.253 55.1756 36.7149 54.6362C36.1755 54.0993 36.1755 53.2327 36.1755 51.4982V39.2404ZM48.4333 39.2404C48.4333 37.5071 48.4333 36.6405 48.9727 36.1024C49.5096 35.563 50.3762 35.563 52.1107 35.563C53.8452 35.563 54.7106 35.563 55.2487 36.1024C55.7881 36.6393 55.7881 37.5059 55.7881 39.2404V51.4982C55.7881 53.2315 55.7881 54.0981 55.2487 54.6362C54.7106 55.1756 53.844 55.1756 52.1107 55.1756C50.3774 55.1756 49.5108 55.1756 48.9727 54.6362C48.4333 54.0993 48.4333 53.2327 48.4333 51.4982V39.2404Z" fill="#FFA751"/>
</svg>
