<svg width="37" height="37" viewBox="0 0 37 37" fill="none" xmlns="http://www.w3.org/2000/svg">
<path d="M16.0306 9.40643L10.9561 3.54893C10.3711 2.87393 9.29857 2.87693 8.61907 3.55793L4.44607 7.73843C3.20407 8.98193 2.84857 10.8284 3.56707 12.3089C7.85949 21.1964 15.0271 28.3741 23.9086 32.6789C25.3876 33.3974 27.2326 33.0419 28.4746 31.7984L32.6866 27.5789C33.3691 26.8964 33.3706 25.8179 32.6896 25.2329L26.8096 20.1854C26.1946 19.6574 25.2391 19.7264 24.6226 20.3444L22.5766 22.3934C22.4718 22.5032 22.3339 22.5756 22.1841 22.5994C22.0342 22.6233 21.8807 22.5973 21.7471 22.5254C18.4027 20.5996 15.6286 17.8218 13.7071 14.4749C13.6351 14.3411 13.6091 14.1873 13.6329 14.0372C13.6567 13.8871 13.7292 13.7489 13.8391 13.6439L15.8791 11.6024C16.4971 10.9814 16.5646 10.0229 16.0306 9.40643Z" stroke="#FBFBFC" stroke-width="1.8" stroke-linecap="round" stroke-linejoin="round"/>
</svg>
