<svg width="1366" height="393" viewBox="0 0 1366 393" fill="none" xmlns="http://www.w3.org/2000/svg">
<g opacity="0.2" clip-path="url(#clip0_3714_9627)">
<path d="M-463.085 747.476C-442.73 631.873 -382.856 514.596 -318.814 428.701C-253.739 341.219 -184.189 280.044 -121.479 237.986C6.39677 155.827 106.319 141.874 176.215 142.945C314.147 148.917 341.759 216.761 362.445 278.495C384.94 343.01 403.076 402.794 546.011 381.814C618.741 371.87 726.905 342.39 883.184 309.38C961.3 294.14 1049.59 277.474 1148.57 269.204C1246.76 261.647 1354.44 260.836 1454.05 295.098" stroke="#6773E3" stroke-width="1.6045" stroke-miterlimit="10"/>
<path d="M-478.612 713.665C-454.176 596.68 -392.2 480.21 -326.926 395.363C-260.638 309.003 -190.77 249.216 -127.944 208.344C0.0220361 128.588 99.2563 116.391 168.937 118.716C306.348 127.27 334.374 195.662 355.437 257.709C378.334 322.559 396.939 382.602 540.55 364.23C613.616 355.555 722.078 327.942 878.911 297.093C957.375 282.905 1046.02 267.365 1145.73 260.101C1244.62 253.576 1353.28 253.639 1454 288.981" stroke="#6773E3" stroke-width="1.6045" stroke-miterlimit="10"/>
<path d="M-493.461 679.6C-465.027 561.475 -401.062 445.915 -334.623 362.193C-267.194 276.982 -197.081 218.54 -134.213 178.809C-6.28198 101.368 92.2111 90.8364 161.606 94.4177C298.396 105.488 326.814 174.454 348.229 236.815C371.528 302 390.532 362.331 534.796 346.591C608.2 339.208 716.914 313.488 874.326 284.8C953.114 271.691 1042.16 257.271 1142.59 251.038C1242.21 245.568 1351.88 246.479 1453.74 282.852" stroke="#6773E3" stroke-width="1.6045" stroke-miterlimit="10"/>
<path d="M-507.578 645.371C-475.249 526.376 -409.361 411.824 -341.831 329.206C-273.354 245.174 -203.023 188.031 -140.186 149.423C-12.3899 74.2071 85.26 65.2265 154.343 70.0423C290.389 83.5411 319.2 153.129 340.944 215.805C364.599 281.351 384.028 342.015 528.875 328.913C602.568 322.825 711.535 299.022 869.552 272.54C948.689 260.508 1038.13 247.234 1139.35 242.053C1239.7 237.638 1350.44 239.416 1453.48 276.818" stroke="#6773E3" stroke-width="1.6045" stroke-miterlimit="10"/>
<path d="M-520.959 611.055C-484.818 491.408 -417.099 377.942 -348.593 296.483C-279.139 213.658 -208.688 157.771 -145.91 120.216C-18.3751 47.1132 78.3559 39.6169 147.074 45.5748C282.299 61.4348 311.482 131.669 333.533 194.686C357.543 260.594 377.327 321.595 522.735 311.203C596.719 306.434 705.893 284.55 864.516 260.299C944.003 249.367 1033.87 237.261 1135.86 233.108C1236.99 229.745 1348.82 232.391 1453.08 270.795" stroke="#6773E3" stroke-width="1.6045" stroke-miterlimit="10"/>
<path d="M103.423 49.6091L75.6246 11.3274L74.5075 12.1337L72.9644 13.2518L48.8837 30.6518L46.2236 32.5762L55.0936 44.7776L71.0378 66.7365C69.0542 66.6601 67.0353 67.2196 65.3078 68.468C61.1969 71.4454 60.2672 77.1811 63.2496 81.2786C66.2327 85.3881 71.9826 86.299 76.0935 83.3216C80.2045 80.3442 81.1342 74.6085 78.1518 70.511C77.7216 69.9139 77.2239 69.3925 76.6817 68.9335L57.7424 42.8657L81.8232 25.4658L97.7674 47.4248C95.7838 47.3483 93.7649 47.9079 92.0375 49.1563C87.9265 52.1337 86.9968 57.8693 89.9792 61.9669C92.9616 66.0644 98.7122 66.9872 102.823 64.0098C106.934 61.0324 107.864 55.2967 104.881 51.1992C104.463 50.5895 103.965 50.0681 103.423 49.6091Z" fill="#518FFF"/>
<path d="M21.1643 59.6632L24.1811 112.128C22.1079 110.579 19.5012 109.729 16.6898 109.892C10.3999 110.256 5.59363 115.637 5.95432 121.91C6.31503 128.183 11.7061 132.972 17.996 132.608C24.2859 132.243 29.0922 126.863 28.7315 120.59L25.2147 59.4285L21.1643 59.6632Z" fill="#518FFF"/>
<path d="M4.62689 159.366L28.8726 206.024C26.3299 205.456 23.5967 205.734 21.1128 207.022C15.5182 209.921 13.3302 216.771 16.2327 222.348C19.1353 227.926 26.0257 230.101 31.5965 227.204C37.1911 224.305 39.379 217.455 36.4765 211.878L8.22434 157.489L4.62689 159.366Z" fill="#6EABFD"/>
<path d="M242.621 160.786L245.638 213.251C243.565 211.702 240.958 210.852 238.147 211.015C231.857 211.379 227.051 216.76 227.411 223.033C227.772 229.306 233.163 234.095 239.453 233.731C245.743 233.366 250.549 227.986 250.189 221.713L246.672 160.552L242.621 160.786Z" fill="#6EABFD"/>
<path d="M1038.27 225.47L979.744 196.807L978.908 198.504L977.751 200.84L959.696 237.476L957.692 241.522L976.358 250.666L1009.94 267.114C1007.47 268.301 1005.38 270.279 1004.08 272.904C1000.99 279.176 1003.57 286.731 1009.85 289.802C1016.12 292.886 1023.71 290.291 1026.79 284.019C1029.88 277.747 1027.3 270.192 1021.02 267.121C1020.1 266.669 1019.15 266.358 1018.2 266.141L978.338 246.622L996.393 209.986L1029.97 226.434C1027.52 227.609 1025.41 229.599 1024.11 232.224C1021.03 238.496 1023.61 246.051 1029.89 249.122C1036.17 252.194 1043.74 249.611 1046.83 243.339C1049.92 237.067 1047.34 229.512 1041.06 226.441C1040.16 226.01 1039.22 225.688 1038.27 225.47Z" fill="#518FFF"/>
<path d="M518.487 411.698L528.237 362.568L526.811 362.293L524.828 361.907L493.951 355.852L490.542 355.192L487.425 370.845L481.825 399.016C480.443 397.427 478.559 396.273 476.358 395.828C471.087 394.799 465.952 398.219 464.916 403.477C463.879 408.734 467.305 413.852 472.576 414.882C477.847 415.912 482.982 412.491 484.019 407.234C484.166 406.462 484.217 405.696 484.199 404.958L490.834 371.506L521.712 377.561L516.135 405.73C514.777 404.14 512.87 402.987 510.669 402.543C505.398 401.513 500.263 404.934 499.226 410.191C498.19 415.448 501.616 420.567 506.887 421.596C512.158 422.626 517.293 419.205 518.329 413.948C518.478 413.2 518.529 412.434 518.487 411.698Z" fill="#518FFF"/>
<path d="M537.642 213.72L539.498 245.988C538.224 245.037 536.616 244.51 534.901 244.609C531.017 244.834 528.076 248.152 528.298 252.001C528.519 255.85 531.844 258.805 535.704 258.581C539.564 258.357 542.528 255.039 542.307 251.189L540.144 213.575L537.642 213.72Z" fill="#518FFF"/>
<path d="M568.578 299.995L570.435 332.287C569.161 331.336 567.553 330.809 565.838 330.908C561.954 331.133 559.013 334.451 559.235 338.3C559.456 342.149 562.781 345.104 566.641 344.88C570.501 344.656 573.465 341.338 573.244 337.488L571.081 299.874L568.579 300.019L568.578 299.995Z" fill="#518FFF"/>
<path d="M683.318 334.054L685.175 366.346C683.901 365.394 682.293 364.868 680.578 364.967C676.694 365.192 673.753 368.509 673.975 372.359C674.196 376.208 677.521 379.162 681.381 378.939C685.241 378.715 688.205 375.396 687.984 371.547L685.821 333.933L683.32 334.078L683.318 334.054Z" fill="#518FFF"/>
<path d="M383.813 337.38L386.831 389.869C384.758 388.32 382.151 387.47 379.34 387.633C373.05 387.997 368.243 393.377 368.604 399.65C368.965 405.923 374.356 410.713 380.646 410.348C386.936 409.984 391.742 404.604 391.381 398.331L387.864 337.169L383.814 337.404L383.813 337.38Z" fill="#9CAAC5"/>
<path d="M1244 162.665L1247.02 215.13C1244.95 213.581 1242.34 212.731 1239.53 212.894C1233.24 213.258 1228.43 218.639 1228.79 224.912C1229.15 231.185 1234.55 235.974 1240.84 235.61C1247.13 235.245 1251.93 229.865 1251.57 223.592L1248.05 162.43L1244 162.665Z" fill="#9CAAC5"/>
<path d="M624.162 238.921L627.181 291.41C625.107 289.861 622.501 289.011 619.689 289.174C613.399 289.538 608.593 294.918 608.954 301.191C609.314 307.464 614.705 312.254 620.995 311.889C627.285 311.525 632.092 306.145 631.731 299.872L628.214 238.71L624.164 238.945L624.162 238.921Z" fill="#6EABFD"/>
<path d="M607.627 338.624L631.873 385.282C629.33 384.714 626.597 384.992 624.113 386.28C618.518 389.179 616.33 396.029 619.233 401.606C622.135 407.184 629.026 409.359 634.596 406.462C640.191 403.563 642.379 396.713 639.476 391.136L611.224 336.747L607.627 338.624Z" fill="#6EABFD"/>
<path d="M1260.79 274.41L1244.64 302.477C1244.1 300.982 1243.05 299.661 1241.54 298.818C1238.18 296.891 1233.89 298.045 1231.96 301.4C1230.02 304.754 1231.2 309.025 1234.56 310.952C1237.92 312.879 1242.21 311.701 1244.14 308.371L1262.97 275.666L1260.79 274.41Z" fill="#518FFF"/>
<path d="M1307.98 204.093L1302.69 256.396C1300.89 254.546 1298.45 253.281 1295.66 253.013C1289.39 252.399 1283.79 256.943 1283.17 263.201C1282.55 269.46 1287.1 275.037 1293.38 275.651C1299.65 276.265 1305.25 271.721 1305.87 265.463L1312.02 204.503L1307.98 204.093Z" fill="#6EABFD"/>
<path d="M1333.6 235.823L1357.85 282.481C1355.3 281.914 1352.57 282.191 1350.09 283.479C1344.49 286.378 1342.3 293.228 1345.21 298.805C1348.11 304.383 1355 306.558 1360.57 303.661C1366.16 300.762 1368.35 293.912 1365.45 288.335L1337.2 233.946L1333.6 235.823Z" fill="#518FFF"/>
<path d="M1098.77 185.298L1101.79 237.787C1099.72 236.238 1097.11 235.388 1094.3 235.551C1088.01 235.915 1083.2 241.295 1083.56 247.568C1083.92 253.841 1089.31 258.631 1095.6 258.266C1101.89 257.902 1106.7 252.522 1106.34 246.249L1102.82 185.063L1098.77 185.298Z" fill="#6EABFD"/>
<path d="M475.508 316.82L472.144 258.318L470.452 258.416L468.093 258.552L431.303 260.684L427.253 260.919L428.325 279.572L430.255 313.147C428.239 311.762 425.756 310.976 423.111 311.13C416.82 311.494 412.013 316.875 412.374 323.148C412.735 329.421 418.126 334.211 424.417 333.846C430.707 333.482 435.514 328.101 435.153 321.828C435.1 320.901 434.931 320.029 434.667 319.186L432.376 279.337L469.166 277.206L471.096 310.781C469.08 309.396 466.597 308.61 463.952 308.763C457.661 309.128 452.854 314.508 453.215 320.782C453.576 327.055 458.967 331.844 465.258 331.48C471.548 331.115 476.355 325.735 475.994 319.462C475.942 318.559 475.771 317.663 475.508 316.82Z" fill="#7578A5"/>
<path d="M845.621 340.044L848.639 392.533C846.566 390.984 843.96 390.134 841.148 390.297C834.858 390.661 830.052 396.041 830.413 402.314C830.773 408.587 836.165 413.377 842.454 413.012C848.744 412.648 853.551 407.268 853.19 400.995L849.673 339.833L845.623 340.068L845.621 340.044Z" fill="#6EABFD"/>
<path d="M775.306 315.709L773.103 277.396L771.995 277.46L770.45 277.549L746.356 278.945L743.703 279.099L744.406 291.315L745.67 313.304C744.35 312.397 742.723 311.882 740.991 311.982C736.871 312.221 733.723 315.745 733.959 319.853C734.196 323.961 737.726 327.098 741.846 326.859C745.966 326.621 749.114 323.097 748.878 318.989C748.843 318.382 748.732 317.811 748.559 317.258L747.059 291.161L771.153 289.765L772.417 311.754C771.097 310.847 769.47 310.332 767.738 310.433C763.618 310.671 760.47 314.195 760.706 318.303C760.942 322.412 764.473 325.548 768.593 325.31C772.713 325.071 775.861 321.547 775.625 317.439C775.59 316.832 775.479 316.261 775.306 315.709Z" fill="#7578A5"/>
</g>
<defs>
<clipPath id="clip0_3714_9627">
<rect width="1365" height="393" fill="white" transform="translate(0.978516)"/>
</clipPath>
</defs>
</svg>
