<svg width="1032" height="235" viewBox="0 0 1032 235" fill="none" xmlns="http://www.w3.org/2000/svg">
<g opacity="0.2" clip-path="url(#clip0_3933_9490)">
<path d="M-350.825 461.863C-335.441 374.497 -290.18 285.868 -241.765 220.955C-192.57 154.844 -139.991 108.614 -92.5814 76.8313C4.09325 14.7454 79.6373 4.20434 132.481 5.01746C236.763 9.53678 257.641 60.8104 273.283 107.467C290.293 156.225 304.007 201.408 412.07 185.558C467.056 178.047 548.83 155.772 666.98 130.831C726.038 119.317 792.789 106.726 867.622 100.479C941.853 94.7726 1023.26 94.1648 1098.57 120.062" stroke="url(#paint0_radial_3933_9490)" stroke-width="1.6045" stroke-miterlimit="10"/>
<path d="M-362.567 436.314C-344.098 347.903 -297.246 259.884 -247.901 195.764C-197.789 130.5 -144.968 85.3187 -97.4716 54.4323C-0.728586 -5.83789 74.2954 -15.0512 126.977 -13.2914C230.865 -6.82059 252.056 44.868 267.983 91.7611C285.297 140.773 299.365 186.151 407.939 172.272C463.179 165.719 545.179 144.855 663.749 121.548C723.07 110.83 790.085 99.0884 865.468 93.6032C940.233 88.6765 1022.39 88.7286 1098.54 115.443" stroke="url(#paint1_radial_3933_9490)" stroke-width="1.6045" stroke-miterlimit="10"/>
<path d="M-373.793 410.573C-352.301 321.301 -303.946 233.969 -253.72 170.698C-202.745 106.302 -149.739 62.1371 -102.211 32.1137C-5.4937 -26.4072 68.97 -34.3625 121.435 -31.6529C224.854 -23.2803 246.341 28.8423 262.535 75.9728C280.152 125.238 294.523 170.834 403.591 158.945C459.086 153.368 541.277 133.935 660.284 112.26C719.85 102.356 787.168 91.4629 863.102 86.7568C938.418 82.6272 1021.33 83.3202 1098.34 110.814" stroke="url(#paint2_radial_3933_9490)" stroke-width="1.6045" stroke-miterlimit="10"/>
<path d="M-384.466 384.71C-360.03 294.78 -310.221 208.21 -259.17 145.774C-207.403 82.2688 -154.232 39.0853 -106.727 9.91011C-10.112 -46.9292 63.7143 -53.7121 115.944 -50.0695C218.799 -39.8618 240.585 12.7308 257.027 60.0997C274.914 109.638 289.606 155.486 399.114 145.59C454.828 140.992 537.21 123.008 656.675 103.001C716.505 93.9107 784.126 83.8827 860.648 79.9716C936.516 76.6392 1020.25 77.988 1098.15 106.259" stroke="url(#paint3_radial_3933_9490)" stroke-width="1.6045" stroke-miterlimit="10"/>
<path d="M-394.583 358.78C-367.265 268.357 -316.072 182.607 -264.283 121.047C-211.776 58.4534 -158.515 16.2195 -111.055 -12.1604C-14.637 -67.4027 58.4947 -73.0639 110.448 -68.5581C212.684 -56.5659 234.751 -3.48439 251.425 44.142C269.58 93.9535 284.539 140.057 394.473 132.21C450.407 128.608 532.945 112.074 652.869 93.7528C712.963 85.4946 780.906 76.349 858.015 73.2151C934.471 70.6777 1019.02 72.6823 1097.85 101.711" stroke="url(#paint4_radial_3933_9490)" stroke-width="1.6045" stroke-miterlimit="10"/>
<path d="M2.75789 17.4698L21.0886 52.7267C19.1663 52.2975 17.1 52.5072 15.2223 53.4806C10.9929 55.671 9.33894 60.8469 11.5334 65.0614C13.7278 69.276 18.937 70.9201 23.1484 68.7308C27.3778 66.5404 29.0317 61.3645 26.8373 57.1499L5.4775 16.0513L2.75789 17.4698Z" fill="#F4E7CB"/>
<path d="M182.692 18.5439L184.974 58.1883C183.407 57.018 181.436 56.3754 179.311 56.4984C174.556 56.7736 170.922 60.839 171.195 65.5791C171.468 70.3192 175.544 73.9385 180.299 73.6633C185.054 73.3881 188.687 69.3227 188.414 64.5826L185.754 18.3667L182.692 18.5439Z" fill="#F4E7CB"/>
<path d="M784.241 67.4221L739.99 45.7622L739.358 47.0448L738.484 48.8099L724.834 76.4923L723.319 79.5494L737.432 86.459L762.821 98.8885C760.954 99.7855 759.374 101.28 758.39 103.264C756.057 108.003 758.006 113.712 762.755 116.032C767.496 118.362 773.231 116.402 775.564 111.663C777.897 106.923 775.948 101.215 771.199 98.894C770.505 98.5521 769.784 98.3176 769.067 98.1534L738.929 83.4031L752.578 55.7208L777.967 68.1503C776.109 69.0379 774.52 70.5418 773.536 72.5253C771.203 77.2646 773.153 82.9732 777.902 85.294C782.651 87.6148 788.378 85.6637 790.711 80.9244C793.044 76.1851 791.095 70.4765 786.345 68.1557C785.671 67.8302 784.958 67.5864 784.241 67.4221Z" fill="#FFC444"/>
<path d="M391.259 208.14L398.629 171.016L397.551 170.808L396.052 170.517L372.708 165.941L370.13 165.441L367.775 177.27L363.541 198.557C362.496 197.356 361.072 196.484 359.408 196.148C355.423 195.37 351.541 197.954 350.758 201.927C349.974 205.9 352.565 209.767 356.55 210.546C360.535 211.324 364.416 208.739 365.2 204.766C365.311 204.184 365.35 203.605 365.336 203.047L370.352 177.769L393.696 182.345L389.481 203.631C388.454 202.43 387.012 201.558 385.348 201.222C381.363 200.444 377.481 203.029 376.697 207.002C375.914 210.974 378.504 214.842 382.489 215.62C386.474 216.398 390.356 213.814 391.14 209.841C391.252 209.276 391.291 208.697 391.259 208.14Z" fill="#FFC444"/>
<path d="M405.743 58.5414L407.146 82.9241C406.183 82.2052 404.967 81.8072 403.671 81.8823C400.735 82.0522 398.512 84.5588 398.679 87.4675C398.846 90.3762 401.36 92.6086 404.278 92.4397C407.196 92.2709 409.437 89.7632 409.27 86.8545L407.634 58.432L405.743 58.5414Z" fill="#FFC444"/>
<path d="M419.577 203.223L420.981 227.624C420.018 226.905 418.802 226.507 417.506 226.582C414.57 226.752 412.347 229.258 412.514 232.167C412.681 235.076 415.195 237.308 418.113 237.139C421.031 236.97 423.272 234.463 423.105 231.554L421.469 203.132L419.578 203.241L419.577 203.223Z" fill="#FFC444"/>
<path d="M429.129 123.735L430.534 148.135C429.571 147.417 428.355 147.019 427.058 147.094C424.122 147.264 421.899 149.77 422.067 152.679C422.234 155.588 424.748 157.82 427.666 157.651C430.584 157.482 432.825 154.975 432.657 152.066L431.022 123.643L429.13 123.753L429.129 123.735Z" fill="#FFC444"/>
<path d="M515.877 149.469L517.282 173.87C516.319 173.151 515.103 172.753 513.806 172.828C510.87 172.998 508.647 175.504 508.815 178.413C508.982 181.322 511.496 183.554 514.414 183.385C517.332 183.217 519.573 180.709 519.405 177.8L517.77 149.378L515.878 149.487L515.877 149.469Z" fill="#FFC444"/>
<path d="M289.44 151.983L291.723 191.646C290.156 190.475 288.185 189.833 286.06 189.956C281.305 190.231 277.672 194.296 277.944 199.037C278.217 203.777 282.293 207.396 287.048 207.121C291.803 206.845 295.436 202.78 295.163 198.04L292.503 151.824L289.441 152.001L289.44 151.983Z" fill="#B5A98E"/>
<path d="M939.782 19.9639L942.064 59.6082C940.497 58.4379 938.526 57.7953 936.401 57.9183C931.646 58.1935 928.012 62.259 928.285 66.999C928.558 71.7391 932.634 75.3584 937.389 75.0832C942.144 74.808 945.777 70.7426 945.504 66.0025L942.844 19.7867L939.782 19.9639Z" fill="#B5A98E"/>
<path d="M471.155 77.585L473.438 117.247C471.871 116.077 469.9 115.434 467.775 115.557C463.02 115.833 459.386 119.898 459.659 124.638C459.932 129.378 464.008 132.997 468.763 132.722C473.518 132.447 477.151 128.382 476.878 123.642L474.218 77.4257L471.156 77.6029L471.155 77.585Z" fill="#F4E7CB"/>
<path d="M458.652 152.923L476.983 188.18C475.061 187.751 472.995 187.96 471.117 188.934C466.887 191.124 465.233 196.3 467.428 200.515C469.622 204.729 474.831 206.373 479.043 204.184C483.272 201.994 484.926 196.818 482.732 192.603L461.372 151.504L458.652 152.923Z" fill="#F4E7CB"/>
<path d="M952.474 104.4L940.266 125.609C939.857 124.479 939.059 123.481 937.92 122.844C935.378 121.388 932.138 122.26 930.675 124.795C929.213 127.329 930.103 130.557 932.645 132.013C935.187 133.469 938.426 132.579 939.889 130.062L954.119 105.35L952.474 104.4Z" fill="#FFC444"/>
<path d="M988.15 51.2676L984.154 90.7894C982.79 89.3911 980.946 88.4349 978.838 88.2327C974.094 87.7686 969.864 91.2021 969.395 95.9311C968.926 100.66 972.368 104.875 977.112 105.339C981.855 105.803 986.086 102.369 986.554 97.6402L991.205 51.5772L988.15 51.2676Z" fill="#F4E7CB"/>
<path d="M1007.52 75.2432L1025.85 110.5C1023.93 110.071 1021.86 110.281 1019.99 111.254C1015.76 113.444 1014.1 118.62 1016.3 122.835C1018.49 127.049 1023.7 128.694 1027.91 126.504C1032.14 124.314 1033.8 119.138 1031.6 114.923L1010.24 73.8247L1007.52 75.2432Z" fill="#FFC444"/>
<path d="M829.979 37.0654L832.262 76.7278C830.695 75.5574 828.724 74.9149 826.599 75.0379C821.844 75.3131 818.211 79.3785 818.483 84.1186C818.756 88.8586 822.832 92.4779 827.587 92.2027C832.342 91.9275 835.975 87.8621 835.702 83.122L833.041 36.8882L829.979 37.0654Z" fill="#F4E7CB"/>
<path d="M358.765 136.447L356.221 92.2406L354.942 92.3146L353.159 92.4178L325.344 94.0276L322.282 94.2049L323.093 108.3L324.554 133.671C323.029 132.625 321.152 132.031 319.152 132.146C314.396 132.422 310.762 136.487 311.035 141.228C311.308 145.968 315.384 149.587 320.14 149.312C324.896 149.037 328.53 144.971 328.257 140.231C328.216 139.531 328.088 138.872 327.889 138.234L326.156 108.123L353.97 106.513L355.43 131.884C353.906 130.838 352.028 130.244 350.028 130.359C345.273 130.635 341.639 134.7 341.912 139.441C342.184 144.181 346.261 147.8 351.016 147.525C355.772 147.25 359.406 143.184 359.133 138.444C359.094 137.762 358.965 137.084 358.765 136.447Z" fill="#EF9B4A"/>
<path d="M638.587 153.997L640.87 193.659C639.302 192.489 637.332 191.846 635.206 191.969C630.451 192.245 626.818 196.31 627.091 201.05C627.364 205.79 631.439 209.41 636.194 209.134C640.949 208.859 644.583 204.794 644.31 200.054L641.65 153.838L638.588 154.015L638.587 153.997Z" fill="#F4E7CB"/>
<path d="M585.425 135.608L583.758 106.657L582.921 106.706L581.753 106.773L563.537 107.827L561.532 107.944L562.063 117.175L563.019 133.79C562.021 133.105 560.791 132.716 559.482 132.792C556.367 132.972 553.987 135.635 554.166 138.739C554.345 141.843 557.014 144.214 560.129 144.034C563.243 143.853 565.623 141.191 565.444 138.086C565.418 137.628 565.334 137.196 565.204 136.779L564.069 117.058L582.284 116.004L583.24 132.62C582.242 131.935 581.012 131.546 579.703 131.621C576.588 131.802 574.208 134.464 574.387 137.569C574.566 140.673 577.235 143.043 580.35 142.863C583.465 142.683 585.844 140.02 585.666 136.916C585.639 136.457 585.555 136.026 585.425 135.608Z" fill="#EF9B4A"/>
</g>
<defs>
<radialGradient id="paint0_radial_3933_9490" cx="0" cy="0" r="1" gradientUnits="userSpaceOnUse" gradientTransform="translate(368.946 205.272) rotate(86.7097) scale(214.526 733.313)">
<stop stop-color="white"/>
<stop offset="1" stop-color="#EF9B4A"/>
</radialGradient>
<radialGradient id="paint1_radial_3933_9490" cx="0" cy="0" r="1" gradientUnits="userSpaceOnUse" gradientTransform="translate(362.643 182.962) rotate(86.7097) scale(210.979 738.555)">
<stop stop-color="white"/>
<stop offset="1" stop-color="#EF9B4A"/>
</radialGradient>
<radialGradient id="paint2_radial_3933_9490" cx="0" cy="0" r="1" gradientUnits="userSpaceOnUse" gradientTransform="translate(356.513 160.487) rotate(86.7096) scale(207.423 743.456)">
<stop stop-color="white"/>
<stop offset="1" stop-color="#EF9B4A"/>
</radialGradient>
<radialGradient id="paint3_radial_3933_9490" cx="0" cy="0" r="1" gradientUnits="userSpaceOnUse" gradientTransform="translate(350.655 137.889) rotate(86.7096) scale(203.886 748.076)">
<stop stop-color="white"/>
<stop offset="1" stop-color="#EF9B4A"/>
</radialGradient>
<radialGradient id="paint4_radial_3933_9490" cx="0" cy="0" r="1" gradientUnits="userSpaceOnUse" gradientTransform="translate(345.018 115.209) rotate(86.7096) scale(200.382 752.362)">
<stop stop-color="white"/>
<stop offset="1" stop-color="#EF9B4A"/>
</radialGradient>
<clipPath id="clip0_3933_9490">
<rect width="1032" height="235" fill="white"/>
</clipPath>
</defs>
</svg>
