<svg width="82" height="84" viewBox="0 0 82 84" fill="none" xmlns="http://www.w3.org/2000/svg">
<path d="M52.7233 56.1267C61.3816 51.8088 67.329 42.8653 67.329 32.5326C67.329 17.9805 55.5321 6.18359 40.9799 6.18359C26.4277 6.18359 14.6309 17.9805 14.6309 32.5326C14.6309 42.9931 20.7265 52.0299 29.5594 56.2848V67.5964H52.7233V56.1267Z" fill="url(#paint0_linear_3714_9696)"/>
<path d="M25.6526 11.0977C25.2197 25.6528 30.5676 42.7665 52.1993 48.947L59.1648 51.6005C57.2657 53.4123 55.0963 54.9431 52.7233 56.1265V67.5963H29.5594V56.2847C20.7265 52.0298 14.6309 42.993 14.6309 32.5325C14.6309 23.6975 18.9793 15.878 25.6526 11.0977Z" fill="url(#paint1_linear_3714_9696)"/>
<path d="M33.291 36.3105L37.0528 40.0723V62.5766H44.9062V40.0723L48.6679 36.3105" stroke="white" stroke-width="0.959577"/>
<ellipse opacity="0.8" cx="55.3781" cy="21.1683" rx="2.46568" ry="6.77351" transform="rotate(-32.6654 55.3781 21.1683)" fill="white"/>
<rect x="26.6641" y="60.3574" width="28.7136" height="5.0671" rx="0.959577" fill="#D6D6D6"/>
<path d="M29.5586 74.4081C29.5586 79.7077 33.8548 84.0039 39.1544 84.0039H43.1267C48.4263 84.0039 52.7225 79.7077 52.7225 74.4081V65.4246H29.5586V74.4081Z" fill="#222222"/>
<rect x="26.6641" y="69.7676" width="28.7136" height="5.0671" rx="0.959577" fill="#D6D6D6"/>
<path d="M67.1041 41.2457C76.3812 27.5497 79.3589 14.4703 73.4815 8.59283C65.5688 0.680133 44.6026 8.81734 26.6521 26.7678C8.70169 44.7182 0.564486 65.6845 8.47718 73.5971C12.2018 77.3218 18.8188 77.4902 26.6521 74.7528" stroke="white" stroke-width="1.43937"/>
<path d="M14.7462 41.085C5.55431 27.4474 2.62256 14.4469 8.47707 8.59242C16.3898 0.67972 37.356 8.81693 55.3064 26.7674C73.2569 44.7178 81.3941 65.684 73.4814 73.5967C69.7567 77.3214 63.1397 77.4898 55.3064 74.7524" stroke="white" stroke-width="1.43937"/>
<defs>
<linearGradient id="paint0_linear_3714_9696" x1="40.9799" y1="6.18359" x2="47.0505" y2="54.1122" gradientUnits="userSpaceOnUse">
<stop stop-color="#FFC544"/>
<stop offset="1" stop-color="#EE8F00"/>
</linearGradient>
<linearGradient id="paint1_linear_3714_9696" x1="26.7939" y1="21.04" x2="36.8978" y2="58.4492" gradientUnits="userSpaceOnUse">
<stop stop-color="#FF9E2B"/>
<stop offset="1" stop-color="#D25800"/>
</linearGradient>
</defs>
</svg>
