<svg width="37" height="37" viewBox="0 0 37 37" fill="none" xmlns="http://www.w3.org/2000/svg">
<circle cx="18.9785" cy="18.709" r="18" fill="#FFC444"/>
<path d="M16.8555 10.02C13.9417 10.2953 11.2 11.4884 9.53657 13.1977C9.16948 13.5648 9.04329 13.7827 9.0777 13.9778C9.14653 14.4596 9.55951 14.3907 10.2363 13.7827C12.0718 12.1193 14.8365 10.9951 17.1997 10.9722C17.7388 10.9722 18.4386 10.9263 18.7484 10.8919C19.2302 10.823 19.3334 10.7657 19.3564 10.5477C19.4252 10.0659 19.2072 9.95119 18.1862 9.97413C17.6815 9.97413 17.0735 10.0086 16.8555 10.02Z" fill="#222222"/>
<path d="M17.3727 12.4282C15.0554 12.7723 12.4054 13.908 10.3634 15.4337C8.95242 16.4891 7.10547 18.3361 7.10547 18.6802C7.10547 18.8753 7.47256 19.3227 8.45913 20.2748C10.9829 22.7527 13.9541 24.3702 16.8564 24.8635C17.9577 25.0585 19.9997 25.0585 21.101 24.8635C22.8676 24.5652 25.162 23.6246 26.7795 22.5347C28.5232 21.3646 30.8519 19.1391 30.8519 18.6573C30.8519 18.4852 30.4848 18.0378 29.6818 17.2348C27.3072 14.906 24.9325 13.495 22.1334 12.7379C21.2501 12.497 20.7339 12.4396 19.3802 12.4167C18.4625 12.3937 17.5677 12.4052 17.3727 12.4282ZM20.5274 13.3918C23.3265 13.7933 26.2174 15.3076 28.787 17.7281L29.8539 18.7376L28.7985 19.7012C25.2881 22.9248 21.4336 24.462 17.8774 24.072C14.9407 23.7393 12.1989 22.3971 9.43423 19.9421C8.79181 19.38 8.24117 18.8638 8.20675 18.795C8.10351 18.6458 10.0652 16.8448 11.2926 15.9729C13.0822 14.6881 15.3077 13.7245 17.2579 13.4033C18.061 13.2656 19.6441 13.2656 20.5274 13.3918Z" fill="#222222"/>
<path d="M17.7518 14.2423C17.0291 14.4373 15.9967 15.0797 15.5149 15.6304C15.2854 15.8827 14.9413 16.4219 14.7462 16.8349C14.425 17.5117 14.3906 17.6723 14.3906 18.7277C14.3906 19.6569 14.4365 20.0011 14.6545 20.5403C15.033 21.4695 15.9852 22.4675 16.9488 22.9378C17.6715 23.2935 17.7863 23.3164 18.9793 23.3164C20.1265 23.3164 20.2986 23.282 20.8836 22.9952C21.6981 22.5937 22.4667 21.9283 22.9141 21.2286C24.0613 19.3931 23.7974 16.9955 22.2717 15.4697C21.1016 14.2996 19.3235 13.8178 17.7518 14.2423ZM20.4592 15.3321C21.1819 15.6533 21.962 16.4104 22.3291 17.1676C22.7765 18.0738 22.7879 19.3587 22.352 20.2879C21.9849 21.0679 21.3998 21.6645 20.6083 22.0775C20.0921 22.3528 19.8856 22.3987 18.9793 22.3987C18.1304 22.3987 17.8551 22.3528 17.4077 22.1348C15.6869 21.2859 14.8266 19.221 15.469 17.5117C15.8819 16.4219 16.8226 15.5156 17.9239 15.16C18.5549 14.9535 19.7938 15.0338 20.4592 15.3321Z" fill="#222222"/>
<path d="M19.6092 16.4324C19.4142 16.6733 19.5633 16.9601 20.1025 17.3501C20.4696 17.614 20.6073 17.809 20.699 18.199C20.8367 18.7841 21.112 19.025 21.4217 18.83C21.7315 18.635 21.72 18.1302 21.3988 17.4649C20.9399 16.5471 19.9878 15.985 19.6092 16.4324Z" fill="#222222"/>
<path d="M27.1005 24.0038C25.2077 25.5296 23.1084 26.2293 19.4604 26.5391C18.5656 26.6194 18.3132 26.8488 18.6688 27.2503C18.8524 27.4798 18.9327 27.4798 20.2978 27.388C23.4755 27.17 26.1254 26.1605 27.9609 24.4856C28.4542 24.0268 28.546 23.7514 28.3051 23.5105C28.0756 23.2811 27.915 23.3499 27.1005 24.0038Z" fill="#222222"/>
</svg>
