<svg width="37" height="37" viewBox="0 0 37 37" fill="none" xmlns="http://www.w3.org/2000/svg">
<circle cx="18.9785" cy="18.709" r="18" fill="#FFC444"/>
<path d="M17.8966 8.34838C15.9595 8.6464 14.6184 9.11827 13.2773 9.99991C11.2036 11.341 9.73832 13.3278 8.95602 15.7865C8.57108 17.0158 8.47174 19.3999 8.76976 20.828C9.60173 24.9381 12.7806 28.117 16.8908 28.949C18.3188 29.247 20.703 29.1477 21.9323 28.7627C25.67 27.5831 28.3894 24.6401 29.2089 20.8776C29.5442 19.3379 29.2959 15.9851 28.8116 15.3891C28.6253 15.1656 28.141 15.1904 27.9424 15.4264C27.8058 15.5878 27.8182 15.7989 27.992 16.6308C28.2776 18.0092 28.2652 19.7849 27.9672 20.977C26.949 24.9133 23.559 27.7321 19.5109 27.9804C12.8179 28.3902 7.86328 21.5482 10.3592 15.3518C10.8559 14.1225 11.4395 13.2533 12.4329 12.2351C13.5008 11.1547 14.6432 10.4345 16.0961 9.92541C16.9901 9.61497 17.2509 9.59013 18.8279 9.57772C19.9331 9.57772 20.8271 9.6398 21.2866 9.75156C22.1434 9.96266 22.429 9.8509 22.429 9.31695C22.429 8.8575 22.131 8.72091 20.703 8.46014C19.6723 8.2863 18.6292 8.24904 17.8966 8.34838Z" fill="#222222"/>
<path d="M25.5326 9.39218C25.396 9.45427 24.5641 10.2242 23.67 11.1182L22.0557 12.7449L22.0185 13.8501L21.9688 14.9428L20.1807 16.7309C19.1997 17.7119 18.3926 18.606 18.3926 18.7177C18.3926 18.9536 18.7775 19.3262 19.0259 19.3262C19.1252 19.3262 20.0441 18.4818 21.0623 17.4635L22.925 15.6009H23.9804H25.0359L26.6875 13.9494C27.9292 12.7077 28.3266 12.2358 28.3266 11.9874C28.3266 11.5032 28.1031 11.379 27.1842 11.379H26.3522L26.3149 10.4973C26.2901 9.76471 26.228 9.57844 26.0293 9.45427C25.8803 9.35493 25.6816 9.3301 25.5326 9.39218ZM25.8307 12.4717L26.377 12.509L25.396 13.5024C24.4523 14.4585 24.4026 14.4834 23.8314 14.4834H23.2354V13.8997C23.2354 13.3285 23.2727 13.2664 24.1295 12.4096L25.0359 11.5032L25.1601 11.9626C25.2843 12.4096 25.3215 12.4345 25.8307 12.4717Z" fill="#222222"/>
<path d="M17.4249 11.5645C13.5507 12.4089 11.0423 16.3204 11.8743 20.2443C12.4083 22.765 14.2336 24.7891 16.7792 25.6707C17.934 26.0681 20.0947 26.0681 21.2495 25.6707C24.1428 24.6773 26.0427 22.2435 26.291 19.2385C26.3779 18.1333 26.2041 17.5869 25.7446 17.5869C25.2479 17.5994 25.161 17.798 25.0865 19.0522C25.0244 20.1325 24.9623 20.4057 24.565 21.2377C23.9317 22.5788 22.988 23.5349 21.6344 24.2055L20.5914 24.727H19.0268C17.4746 24.727 17.4498 24.727 16.4936 24.2676C15.2643 23.6715 14.2212 22.703 13.6376 21.5854C13.0664 20.4926 12.905 19.8593 12.9174 18.6424C12.9174 16.3825 14.2088 14.2839 16.2328 13.2657C17.2014 12.769 17.8471 12.6075 18.8529 12.5951C19.3248 12.5951 19.7718 12.533 19.8587 12.4709C20.0947 12.2723 20.045 11.6514 19.7718 11.5024C19.4365 11.3285 18.3811 11.3658 17.4249 11.5645Z" fill="#222222"/>
<path d="M17.9827 14.62C16.8279 14.8932 15.7103 15.8121 15.1764 16.9669C14.9156 17.5257 14.8535 17.8362 14.8535 18.7054C14.8535 19.6119 14.9032 19.8602 15.2012 20.4687C15.6358 21.3627 16.356 22.0829 17.2501 22.5175C17.8585 22.8156 18.1069 22.8652 19.0134 22.8652C19.9199 22.8652 20.1682 22.8156 20.7767 22.5175C22.1053 21.8718 23.0242 20.6053 23.1856 19.2021C23.2477 18.6185 23.2229 18.4819 23.0118 18.2956C22.5399 17.861 21.9936 18.3204 21.9936 19.1524C21.9936 19.5498 21.4845 20.5556 21.0995 20.8909C19.5473 22.3064 17.0142 21.7725 16.2194 19.8602C15.9463 19.2021 15.9835 18.0597 16.2939 17.4015C16.7534 16.4206 17.5854 15.8742 18.9265 15.6631C19.5349 15.5638 19.7957 15.1167 19.448 14.7318C19.2121 14.4586 18.7774 14.4338 17.9827 14.62Z" fill="#222222"/>
</svg>
