<svg width="82" height="81" viewBox="0 0 82 81" fill="none" xmlns="http://www.w3.org/2000/svg">
<path d="M49.8746 20.0119L26.9099 20.2204L36.2952 12.9266L26.8625 6.5266L49.4692 6.99861L49.8746 20.0119Z" fill="url(#paint0_linear_3714_9728)"/>
<path d="M49.6016 5.51562V37.4386" stroke="black" stroke-width="1.57743"/>
<path d="M24.3448 37.4401C25.1722 36.007 27.2407 36.007 28.0681 37.44L51.2545 77.6001C52.0819 79.0332 51.0477 80.8246 49.3929 80.8246H3.02003C1.36524 80.8246 0.330997 79.0332 1.15839 77.6001L24.3448 37.4401Z" fill="#2D7F2D"/>
<path fill-rule="evenodd" clip-rule="evenodd" d="M34.706 48.9364L8.11133 65.5581L24.3453 37.4401C25.1727 36.007 27.2412 36.007 28.0686 37.44L34.706 48.9364Z" fill="#54B435"/>
<path d="M47.8211 27.7637C48.833 26.011 51.3628 26.011 52.3747 27.7637L80.7322 76.8804C81.7442 78.6331 80.4793 80.824 78.4554 80.824H21.7404C19.7166 80.824 18.4516 78.6331 19.4636 76.8804L47.8211 27.7637Z" fill="#379237"/>
<path fill-rule="evenodd" clip-rule="evenodd" d="M60.4927 41.8241L27.9668 62.1527L47.8213 27.7637C48.8332 26.011 51.363 26.011 52.3749 27.7637L60.4927 41.8241Z" fill="#54B435"/>
<defs>
<linearGradient id="paint0_linear_3714_9728" x1="55.681" y1="17.2322" x2="31.8387" y2="10.1966" gradientUnits="userSpaceOnUse">
<stop stop-color="#FC4F47"/>
<stop offset="1" stop-color="#9A1916"/>
</linearGradient>
</defs>
</svg>
