<svg width="89" height="100" viewBox="0 0 89 100" fill="none" xmlns="http://www.w3.org/2000/svg">
<g id="Group 1410083991">
<circle id="Ellipse 3652" cx="44.1644" cy="54.741" r="37.3812" fill="white"/>
<g id="Group 1410083990">
<path id="Vector" d="M9.0471 32.6505C15.1199 23.379 24.5914 16.5418 35.6716 13.8629C36.5254 13.6583 37.2286 13.0538 37.5579 12.2424C37.8895 11.4286 37.8095 10.5066 37.3438 9.76101C33.7971 4.10684 27.522 0.341309 20.3531 0.341309C9.27054 0.341309 0.28125 9.32589 0.28125 20.4085C0.28125 25.1124 1.90647 29.433 4.62066 32.8505C5.16397 33.5396 6.00598 33.9206 6.88327 33.8806C7.76057 33.8406 8.5673 33.382 9.0471 32.6505Z" fill="url(#paint0_linear_1776_60949)"/>
<path id="Vector_2" d="M68.647 0.554199C61.5111 0.554199 55.2571 4.28445 51.7033 9.90099C51.2329 10.6442 51.1506 11.5733 51.4822 12.3917C51.8162 13.2126 52.5218 13.8147 53.385 14.017C64.4957 16.6324 74.0001 23.4226 80.1247 32.6635C80.6115 33.3973 81.423 33.8513 82.305 33.8818C83.187 33.9148 84.0243 33.5196 84.5652 32.8211C87.1642 29.4436 88.7188 25.2195 88.7188 20.6237C88.7118 9.53879 79.7296 0.554199 68.647 0.554199Z" fill="url(#paint1_linear_1776_60949)"/>
<path id="Vector_3" d="M88.7112 53.278C88.7112 45.5305 86.6956 38.2488 83.1817 31.9125C76.6691 20.1761 64.9726 11.7395 51.2065 9.62746C49.012 9.29113 46.7847 9.06299 44.4962 9.06299C42.1066 9.06299 39.7782 9.30759 37.4897 9.6745C23.7823 11.8736 12.1447 20.3455 5.70023 32.096C2.24986 38.3899 0.28125 45.6058 0.28125 53.278C0.28125 66.4162 6.07419 78.202 15.1999 86.3022L11.4744 91.5495C9.8703 93.8097 10.4018 96.9379 12.6621 98.5466C13.5441 99.1723 14.5578 99.4757 15.5621 99.4757C17.1332 99.4757 18.6808 98.7395 19.6569 97.3636L23.3801 92.1187C29.6576 95.5455 36.8523 97.4977 44.4962 97.4977C52.1378 97.4977 59.3326 95.5455 65.61 92.1187L69.3332 97.3636C70.3116 98.7419 71.8569 99.4757 73.428 99.4757C74.4323 99.4757 75.4437 99.1723 76.3257 98.5466C78.5859 96.9379 79.1198 93.8097 77.5158 91.5495L73.7902 86.3022C82.9159 78.202 88.7112 66.4162 88.7112 53.278ZM44.4986 85.1286C26.934 85.1286 12.648 70.8426 12.648 53.278C12.648 47.8025 14.038 42.6493 16.4794 38.1429C21.1269 29.5723 29.6035 23.3983 39.59 21.8437C41.194 21.5944 42.824 21.425 44.4986 21.425C46.0744 21.425 47.615 21.5779 49.132 21.8013C59.2032 23.2784 67.7715 29.4524 72.4731 38.0606C74.9427 42.5835 76.3468 47.7649 76.3468 53.2756C76.3468 70.8426 62.0609 85.1286 44.4986 85.1286Z" fill="url(#paint2_linear_1776_60949)"/>
<path id="Vector_4" d="M62.3406 60.7291L50.1902 53.2262C49.9386 51.8056 49.1695 50.5803 48.0899 49.7124L48.645 34.4668C48.7132 32.5194 47.1938 30.8847 45.2487 30.8118C43.3083 30.7224 41.6666 32.2606 41.5937 34.2081L41.0363 49.4701C39.5287 50.5332 38.5361 52.2831 38.5361 54.2705C38.5361 57.5186 41.168 60.1481 44.4161 60.1481C45.3404 60.1481 46.2036 59.9153 46.9798 59.5366L58.6339 66.7384C59.2124 67.0912 59.8545 67.2629 60.4849 67.2629C61.6679 67.2629 62.8204 66.6702 63.4907 65.5906C64.5162 63.9278 63.9987 61.7545 62.3406 60.7291Z" fill="url(#paint3_linear_1776_60949)"/>
</g>
</g>
<defs>
<linearGradient id="paint0_linear_1776_60949" x1="19.0206" y1="5.22245" x2="19.0206" y2="28.453" gradientUnits="userSpaceOnUse">
<stop stop-color="#FC4F47"/>
<stop offset="1" stop-color="#9A1916"/>
</linearGradient>
<linearGradient id="paint1_linear_1776_60949" x1="70" y1="5.4044" x2="70" y2="28.4877" gradientUnits="userSpaceOnUse">
<stop stop-color="#FC4F47"/>
<stop offset="1" stop-color="#9A1916"/>
</linearGradient>
<linearGradient id="paint2_linear_1776_60949" x1="44.4962" y1="22.2201" x2="44.4962" y2="84.8379" gradientUnits="userSpaceOnUse">
<stop stop-color="#FC4F47"/>
<stop offset="1" stop-color="#C0231F"/>
</linearGradient>
<linearGradient id="paint3_linear_1776_60949" x1="51.2769" y1="36.1131" x2="51.2769" y2="61.3609" gradientUnits="userSpaceOnUse">
<stop stop-color="#FC4F47"/>
<stop offset="1" stop-color="#9A1916"/>
</linearGradient>
</defs>
</svg>
