<svg width="1366" height="200" viewBox="0 0 1366 200" fill="none" xmlns="http://www.w3.org/2000/svg">
<path d="M1380.15 130.135C1380.15 130.135 1375.94 141.718 1368.8 167.607C1361.65 193.466 1359.51 197.836 1349.51 197.836C1310.53 197.836 1318.39 22.1193 1280.52 22.1193C1242.65 22.1193 1243.76 138.366 1210.9 138.366C1178.03 138.366 1206.61 30.1704 1165.17 30.1704C1123.73 30.1704 1161.6 142.377 1123.73 142.377C1085.87 142.377 1106.59 100.715 1079.44 100.715C1052.28 100.715 1060.86 196.789 1029.42 194.783C997.985 192.778 1020.13 68.7796 989.411 69.1388C958.689 69.468 982.266 198.824 945.828 197.148C909.39 195.472 935.825 36.2161 900.102 36.2161C864.378 36.2161 898.673 171.947 853.661 172.606C808.649 173.264 835.084 67.7919 801.504 67.7919C767.924 67.7919 752.92 64.4398 752.92 76.5314C752.92 88.6229 747.918 103.408 718.625 103.408C689.331 103.408 695.762 156.503 674.327 155.815C652.893 155.127 663.61 51.6598 635.746 51.9891C607.881 52.3183 625.028 67.1035 589.305 67.4328C553.581 67.762 577.873 135.283 545.007 135.283C512.141 135.283 520.715 198.435 489.993 198.435C459.27 198.435 482.133 92.2744 443.552 92.2744C404.97 92.2744 424.975 9.63863 400.683 9.63863C376.391 9.63863 399.969 115.799 348.526 115.799C297.084 115.799 345.668 159.466 307.087 159.466C268.505 159.466 299.942 48.2479 271.363 48.2479C242.784 48.2479 267.076 84.1934 218.492 84.1934C169.907 84.1934 214.919 -1.82442 173.48 1.55763C131.961 4.96961 159.825 192.808 107.669 191.431C55.5118 190.084 104.096 41.6035 69.0868 41.6035C34.0775 41.6035 78.4147 123.162 -17.6426 129.956" stroke="url(#paint0_radial_1776_62087)" stroke-width="2" stroke-miterlimit="10"/>
<defs>
<radialGradient id="paint0_radial_1776_62087" cx="0" cy="0" r="1" gradientUnits="userSpaceOnUse" gradientTransform="translate(681.254 99.9476) scale(698.896 387.371)">
<stop offset="0.384" stop-color="white"/>
<stop offset="1" stop-color="white" stop-opacity="0"/>
</radialGradient>
</defs>
</svg>
