<svg width="26" height="26" viewBox="0 0 26 26" fill="none" xmlns="http://www.w3.org/2000/svg">
<path id="Vector" d="M24.0606 0.71174C23.9862 0.722358 20.5568 1.14706 16.4478 1.6567C12.3388 2.16634 8.84567 2.61228 8.66517 2.65475C8.27232 2.7503 7.99627 2.92018 7.67774 3.24933C7.39107 3.54662 7.21057 3.90761 7.13625 4.30046C7.1044 4.47034 7.08316 7.25213 7.08316 12.1256C7.08316 19.303 7.08316 19.6852 6.99822 19.664C6.44611 19.5047 5.08707 19.4729 4.35446 19.6003C3.14406 19.8233 2.20972 20.2798 1.5302 20.9912C0.797591 21.7663 0.62771 22.69 1.06303 23.5925C1.24353 23.9747 1.90181 24.6542 2.33713 24.9091C4.1952 26.0027 6.83896 26.0027 8.68641 24.9091C9.03679 24.7073 9.63137 24.1446 9.82248 23.8473C9.90742 23.7199 10.0242 23.4863 10.0773 23.3271L10.1941 23.0404L10.2153 15.9373L10.2366 8.83414L16.6071 8.03783C20.1109 7.60251 23.0519 7.24151 23.1368 7.24151H23.2961V11.7009V16.1602L23.1899 16.1284C22.3299 15.8736 21.0983 15.7886 20.2489 15.9054C17.913 16.2239 16.2779 17.721 16.5434 19.303C16.8513 21.1292 19.495 22.4033 22.16 21.9999C23.8058 21.7557 25.1117 20.9912 25.6426 19.9613C25.908 19.4304 25.8974 19.7596 25.8974 10.6391C25.8974 4.58713 25.8868 2.13449 25.8443 1.94337C25.7381 1.43373 25.4408 1.0515 24.9949 0.849768C24.7401 0.732975 24.326 0.679888 24.0606 0.71174Z" fill="url(#paint0_linear_1776_60415)"/>
<defs>
<linearGradient id="paint0_linear_1776_60415" x1="13.3618" y1="4.34457" x2="13.3618" y2="21.6775" gradientUnits="userSpaceOnUse">
<stop stop-color="#FC4F47"/>
<stop offset="1" stop-color="#C0231F"/>
</linearGradient>
</defs>
</svg>
