<svg width="24" height="25" viewBox="0 0 24 25" fill="none" xmlns="http://www.w3.org/2000/svg">
<g id="Frame">
<path id="Vector" d="M12 7.4707C16.9706 7.4707 21 6.57527 21 5.4707C21 4.36613 16.9706 3.4707 12 3.4707C7.02944 3.4707 3 4.36613 3 5.4707C3 6.57527 7.02944 7.4707 12 7.4707Z" stroke="black" stroke-linecap="round" stroke-linejoin="round"/>
<path id="Vector_2" d="M3 5.4707C3 7.7007 6.871 12.1447 8.856 14.2757C9.58416 15.0476 9.99291 16.0666 10 17.1277V19.4707C10 20.0011 10.2107 20.5098 10.5858 20.8849C10.9609 21.26 11.4696 21.4707 12 21.4707C12.5304 21.4707 13.0391 21.26 13.4142 20.8849C13.7893 20.5098 14 20.0011 14 19.4707V17.1277C14 16.0667 14.421 15.0527 15.144 14.2757C17.13 12.1447 21 7.7017 21 5.4707" stroke="black" stroke-linecap="round" stroke-linejoin="round"/>
</g>
</svg>
