<svg width="20" height="20" viewBox="0 0 20 20" fill="none" xmlns="http://www.w3.org/2000/svg">
<g id="Frame">
<path id="Vector" d="M6.66602 14.9991V4.76244C6.66597 4.36428 6.80846 3.97926 7.06771 3.67706C7.32695 3.37486 7.68582 3.17546 8.07935 3.11494L15.5793 1.96077C15.8169 1.92425 16.0595 1.93951 16.2905 2.00553C16.5216 2.07154 16.7356 2.18674 16.918 2.34323C17.1004 2.49971 17.2468 2.69379 17.3471 2.91214C17.4474 3.1305 17.4994 3.36797 17.4993 3.60827V13.3324" stroke="#FFC444" stroke-linecap="round" stroke-linejoin="round"/>
<path id="Vector_2" d="M6.66602 7.50065L17.4993 5.83398" stroke="#FFC444" stroke-linecap="round" stroke-linejoin="round"/>
<path id="Vector_3" d="M6.66602 15.0007C6.66602 15.6637 6.40262 16.2996 5.93378 16.7684C5.46494 17.2373 4.82906 17.5007 4.16602 17.5007C3.50297 17.5007 2.86709 17.2373 2.39825 16.7684C1.92941 16.2996 1.66602 15.6637 1.66602 15.0007C1.66602 13.6198 2.78518 13.334 4.16602 13.334C5.54685 13.334 6.66602 13.6198 6.66602 15.0007Z" stroke="#FFC444" stroke-linecap="round" stroke-linejoin="round"/>
<path id="Vector_4" d="M17.5 13.3327C17.5 13.9957 17.2366 14.6316 16.7678 15.1004C16.2989 15.5693 15.663 15.8327 15 15.8327C14.337 15.8327 13.7011 15.5693 13.2322 15.1004C12.7634 14.6316 12.5 13.9957 12.5 13.3327C12.5 11.9518 13.6192 11.666 15 11.666C16.3808 11.666 17.5 11.9518 17.5 13.3327Z" stroke="#FFC444" stroke-linecap="round" stroke-linejoin="round"/>
</g>
</svg>
