<svg width="24" height="24" viewBox="0 0 24 24" fill="none" xmlns="http://www.w3.org/2000/svg">
<path d="M16.9996 8.8C18.3251 8.8 19.3996 7.72548 19.3996 6.4C19.3996 5.07452 18.3251 4 16.9996 4C15.6741 4 14.5996 5.07452 14.5996 6.4C14.5996 7.72548 15.6741 8.8 16.9996 8.8Z" stroke="#333333" stroke-linecap="round" stroke-linejoin="round"/>
<path d="M16.9996 19.9992C18.3251 19.9992 19.3996 18.9247 19.3996 17.5992C19.3996 16.2737 18.3251 15.1992 16.9996 15.1992C15.6741 15.1992 14.5996 16.2737 14.5996 17.5992C14.5996 18.9247 15.6741 19.9992 16.9996 19.9992Z" stroke="#333333" stroke-linecap="round" stroke-linejoin="round"/>
<path d="M7.4 14.3996C8.72548 14.3996 9.8 13.3251 9.8 11.9996C9.8 10.6741 8.72548 9.59961 7.4 9.59961C6.07452 9.59961 5 10.6741 5 11.9996C5 13.3251 6.07452 14.3996 7.4 14.3996Z" stroke="#333333" stroke-linecap="round" stroke-linejoin="round"/>
<path d="M14.9258 7.60938L9.47461 10.7894M14.9258 16.3902L9.47461 13.2102" stroke="#333333" stroke-linecap="round" stroke-linejoin="round"/>
</svg>
