<svg width="374" height="91" viewBox="0 0 374 91" fill="none" xmlns="http://www.w3.org/2000/svg">
<g clip-path="url(#clip0_965_19507)">
<path d="M114.64 64.0932L108.742 57.0953L113.44 53.6431L119.338 60.6409L114.64 64.0932Z" fill="url(#paint0_linear_965_19507)"/>
<path d="M266.933 53.9083L266.523 46.9648L268.98 46.8374L269.39 53.7809L266.933 53.9083Z" fill="url(#paint1_linear_965_19507)"/>
<path d="M64.1172 17.5456L70.5324 14.042L71.7608 16.0167L65.3456 19.5203L64.1172 17.5456Z" fill="url(#paint2_linear_965_19507)"/>
<path d="M64.2578 61.2981L70.3318 57.2212L71.765 59.0685L65.691 63.1455L64.2578 61.2981Z" fill="url(#paint3_linear_965_19507)"/>
<path d="M322.497 10.9734L317.515 16.1333L315.672 14.6044L320.654 9.44456L322.497 10.9734Z" fill="url(#paint4_linear_965_19507)"/>
<path d="M271.445 91.0463L278.884 90.6641L278.952 92.9573L271.514 93.3395L271.445 91.0463Z" fill="url(#paint5_linear_965_19507)"/>
<path d="M347.195 1.29116L348.014 -5.65234L350.471 -5.39754L349.652 1.48227L347.195 1.29116Z" fill="url(#paint6_linear_965_19507)"/>
<path d="M4.05646 24.7329L-0.789062 19.5093L1.0536 17.9805L5.89912 23.2677L4.05646 24.7329Z" fill="url(#paint7_linear_965_19507)"/>
<path d="M324.404 63.1455L330.546 67.095L329.181 69.0061L323.039 65.0566L324.404 63.1455Z" fill="url(#paint8_linear_965_19507)"/>
<path d="M222.234 21.866L225.715 18.6172L227.762 21.9297L222.985 23.14L222.234 21.866Z" fill="url(#paint9_linear_965_19507)"/>
<path d="M29.2361 39.1299L30.8057 43.589L26.7109 43.7801L27.7346 39.2573L29.2361 39.1299Z" fill="url(#paint10_linear_965_19507)"/>
<path d="M4.80439 79.7716L-0.109375 80.7909L0.0953653 76.9688L4.80439 78.3065V79.7716Z" fill="url(#paint11_linear_965_19507)"/>
<path d="M258.68 11.0372C255.541 11.929 252.47 10.9098 250.695 8.87132C252.06 9.31723 253.493 8.87132 254.381 7.97949C255.541 8.80762 257.315 9.50834 259.567 9.12613C259.363 9.82685 259.09 10.4639 258.68 11.0372Z" fill="url(#paint12_linear_965_19507)"/>
<path d="M9.65235 16.0698C8.6969 13.1395 9.78884 10.2729 11.9727 8.6167C11.495 9.89074 11.9727 11.2285 12.9282 12.0566C12.041 13.1395 11.2903 14.7958 11.6998 16.8979C10.949 16.7068 10.2666 16.452 9.65235 16.0698Z" fill="url(#paint13_linear_965_19507)"/>
<path d="M305.092 6.83267C303.249 9.63555 300.315 10.7185 298.062 10.8459C298.54 10.3363 298.881 9.76296 298.95 9.12594C300.724 8.55262 302.976 7.02377 303.59 4.02979C304.341 4.79421 304.887 5.81344 305.092 6.83267Z" fill="url(#paint14_linear_965_19507)"/>
<path d="M246.99 73.8063C241.696 72.6205 238.52 69.0632 237.25 66C238.309 66.4941 239.367 66.5929 240.426 66.3953C242.12 68.5692 245.719 70.9407 250.695 70.3478C249.848 71.7312 248.577 72.917 246.99 73.8063Z" fill="url(#paint15_linear_965_19507)"/>
<path d="M355.179 35.9447C353.2 38.6839 350.197 39.6394 347.945 39.6394C348.491 39.1298 348.764 38.5565 348.901 37.9832C350.675 37.5373 353.064 36.0721 353.815 33.0781C354.497 33.9062 354.975 34.9255 355.179 35.9447Z" fill="url(#paint16_linear_965_19507)"/>
<path d="M153.493 10.2412C153.289 6.92868 154.995 4.50801 156.769 3.17027C156.633 3.87099 156.837 4.50801 157.11 5.01763C156.018 6.41907 155.131 8.90344 156.428 11.7063C155.404 11.4515 154.312 10.9419 153.493 10.2412Z" fill="url(#paint17_linear_965_19507)"/>
<path d="M201.731 46.5741C198.178 47.5833 194.703 46.43 192.695 44.1234C194.24 44.628 195.862 44.1234 196.865 43.1143C198.178 44.0513 200.186 44.8442 202.734 44.4117C202.503 45.2046 202.194 45.9254 201.731 46.5741Z" fill="url(#paint18_linear_965_19507)"/>
</g>
<defs>
<linearGradient id="paint0_linear_965_19507" x1="111.084" y1="55.5581" x2="116.875" y2="63.0417" gradientUnits="userSpaceOnUse">
<stop offset="1.1e-07" stop-color="#FF3C9E"/>
<stop offset="0.1688" stop-color="#F83693"/>
<stop offset="0.4621" stop-color="#E62677"/>
<stop offset="0.8425" stop-color="#C90C49"/>
<stop offset="1" stop-color="#BB0034"/>
</linearGradient>
<linearGradient id="paint1_linear_965_19507" x1="270.182" y1="48.5245" x2="266.605" y2="51.8988" gradientUnits="userSpaceOnUse">
<stop stop-color="#C62DFF"/>
<stop offset="0.2058" stop-color="#CD38FA"/>
<stop offset="0.5633" stop-color="#E154ED"/>
<stop offset="1" stop-color="#FF7FD9"/>
</linearGradient>
<linearGradient id="paint2_linear_965_19507" x1="70.6967" y1="17.8104" x2="66.0703" y2="15.8526" gradientUnits="userSpaceOnUse">
<stop stop-color="#C62DFF"/>
<stop offset="0.2058" stop-color="#CD38FA"/>
<stop offset="0.5633" stop-color="#E154ED"/>
<stop offset="1" stop-color="#FF7FD9"/>
</linearGradient>
<linearGradient id="paint3_linear_965_19507" x1="70.8679" y1="60.9061" x2="66.0317" y2="59.464" gradientUnits="userSpaceOnUse">
<stop offset="3.4e-07" stop-color="#FFF069"/>
<stop offset="0.0996618" stop-color="#FFE570"/>
<stop offset="0.2729" stop-color="#FFC983"/>
<stop offset="0.4991" stop-color="#FF9BA2"/>
<stop offset="0.7663" stop-color="#FF5BCC"/>
<stop offset="1" stop-color="#FF1EF5"/>
</linearGradient>
<linearGradient id="paint4_linear_965_19507" x1="316.124" y1="12.6041" x2="321.186" y2="12.929" gradientUnits="userSpaceOnUse">
<stop offset="3.4e-07" stop-color="#FFF069"/>
<stop offset="0.0996618" stop-color="#FFE570"/>
<stop offset="0.2729" stop-color="#FFC983"/>
<stop offset="0.4991" stop-color="#FF9BA2"/>
<stop offset="0.7663" stop-color="#FF5BCC"/>
<stop offset="1" stop-color="#FF1EF5"/>
</linearGradient>
<linearGradient id="paint5_linear_965_19507" x1="283.178" y1="91.2564" x2="267.777" y2="92.9355" gradientUnits="userSpaceOnUse">
<stop offset="2.3e-07" stop-color="#FFD552"/>
<stop offset="0.0857628" stop-color="#F4D24F"/>
<stop offset="0.235" stop-color="#D8CA47"/>
<stop offset="0.4299" stop-color="#A9BD3B"/>
<stop offset="0.663" stop-color="#69AB29"/>
<stop offset="0.9255" stop-color="#189513"/>
<stop offset="1" stop-color="#008E0C"/>
</linearGradient>
<linearGradient id="paint6_linear_965_19507" x1="349.277" y1="-9.54691" x2="348.53" y2="4.90782" gradientUnits="userSpaceOnUse">
<stop offset="2.3e-07" stop-color="#FFD552"/>
<stop offset="0.0857628" stop-color="#F4D24F"/>
<stop offset="0.235" stop-color="#D8CA47"/>
<stop offset="0.4299" stop-color="#A9BD3B"/>
<stop offset="0.663" stop-color="#69AB29"/>
<stop offset="0.9255" stop-color="#189513"/>
<stop offset="1" stop-color="#008E0C"/>
</linearGradient>
<linearGradient id="paint7_linear_965_19507" x1="-3.00538" y1="15.9747" x2="6.97752" y2="27.091" gradientUnits="userSpaceOnUse">
<stop offset="2.3e-07" stop-color="#FFD552"/>
<stop offset="0.0857628" stop-color="#F4D24F"/>
<stop offset="0.235" stop-color="#D8CA47"/>
<stop offset="0.4299" stop-color="#A9BD3B"/>
<stop offset="0.663" stop-color="#69AB29"/>
<stop offset="0.9255" stop-color="#189513"/>
<stop offset="1" stop-color="#008E0C"/>
</linearGradient>
<linearGradient id="paint8_linear_965_19507" x1="326.989" y1="68.8499" x2="326.696" y2="64.1219" gradientUnits="userSpaceOnUse">
<stop stop-color="#9DE2FF"/>
<stop offset="0.1147" stop-color="#93D7FC"/>
<stop offset="0.314" stop-color="#7ABBF3"/>
<stop offset="0.5743" stop-color="#508DE5"/>
<stop offset="0.8821" stop-color="#184DD2"/>
<stop offset="1" stop-color="#0033CA"/>
</linearGradient>
<linearGradient id="paint9_linear_965_19507" x1="222.209" y1="20.854" x2="227.785" y2="20.854" gradientUnits="userSpaceOnUse">
<stop offset="1.1e-07" stop-color="#FFD243"/>
<stop offset="0.2139" stop-color="#FEC73A"/>
<stop offset="0.5855" stop-color="#FBAB21"/>
<stop offset="1" stop-color="#F78400"/>
</linearGradient>
<linearGradient id="paint10_linear_965_19507" x1="30.2262" y1="39.6302" x2="27.9446" y2="44.3873" gradientUnits="userSpaceOnUse">
<stop offset="1.1e-07" stop-color="#00DEFF"/>
<stop offset="0.1417" stop-color="#00D6F4"/>
<stop offset="0.3879" stop-color="#00C2D8"/>
<stop offset="0.7069" stop-color="#00A1AA"/>
<stop offset="1" stop-color="#007F7A"/>
</linearGradient>
<linearGradient id="paint11_linear_965_19507" x1="4.19009" y1="80.6242" x2="-0.3407" y2="77.5728" gradientUnits="userSpaceOnUse">
<stop offset="3.4e-07" stop-color="#FFF069"/>
<stop offset="0.0996618" stop-color="#FFE570"/>
<stop offset="0.2729" stop-color="#FFC983"/>
<stop offset="0.4991" stop-color="#FF9BA2"/>
<stop offset="0.7663" stop-color="#FF5BCC"/>
<stop offset="1" stop-color="#FF1EF5"/>
</linearGradient>
<linearGradient id="paint12_linear_965_19507" x1="252.311" y1="9.16831" x2="261.92" y2="11.155" gradientUnits="userSpaceOnUse">
<stop offset="1.1e-07" stop-color="#3CE6FF"/>
<stop offset="0.1369" stop-color="#38DBFF"/>
<stop offset="0.375" stop-color="#2DBFFF"/>
<stop offset="0.6856" stop-color="#1B91FF"/>
<stop offset="1" stop-color="#075BFF"/>
</linearGradient>
<linearGradient id="paint13_linear_965_19507" x1="11.6409" y1="10.1405" x2="10.0092" y2="19.199" gradientUnits="userSpaceOnUse">
<stop offset="1.1e-07" stop-color="#FF3C9E"/>
<stop offset="0.1688" stop-color="#F83693"/>
<stop offset="0.4621" stop-color="#E62677"/>
<stop offset="0.8425" stop-color="#C90C49"/>
<stop offset="1" stop-color="#BB0034"/>
</linearGradient>
<linearGradient id="paint14_linear_965_19507" x1="306.588" y1="4.77806" x2="298.776" y2="9.67547" gradientUnits="userSpaceOnUse">
<stop stop-color="#C62DFF"/>
<stop offset="0.2058" stop-color="#CD38FA"/>
<stop offset="0.5633" stop-color="#E154ED"/>
<stop offset="1" stop-color="#FF7FD9"/>
</linearGradient>
<linearGradient id="paint15_linear_965_19507" x1="250.967" y1="74.81" x2="240.738" y2="65.0788" gradientUnits="userSpaceOnUse">
<stop offset="3.4e-07" stop-color="#0005BB"/>
<stop offset="0.1183" stop-color="#0610BF"/>
<stop offset="0.324" stop-color="#152CCB"/>
<stop offset="0.5926" stop-color="#2D5ADE"/>
<stop offset="0.9104" stop-color="#4F9AF7"/>
<stop offset="1" stop-color="#59ADFF"/>
</linearGradient>
<linearGradient id="paint16_linear_965_19507" x1="356.764" y1="33.9713" x2="348.693" y2="38.4863" gradientUnits="userSpaceOnUse">
<stop stop-color="#60008E"/>
<stop offset="0.2251" stop-color="#6B0095"/>
<stop offset="0.6147" stop-color="#8700A6"/>
<stop offset="1" stop-color="#A900BB"/>
</linearGradient>
<linearGradient id="paint17_linear_965_19507" x1="155.056" y1="9.90544" x2="155.85" y2="5.00507" gradientUnits="userSpaceOnUse">
<stop offset="1.1e-07" stop-color="#FFD243"/>
<stop offset="0.2139" stop-color="#FEC73A"/>
<stop offset="0.5855" stop-color="#FBAB21"/>
<stop offset="1" stop-color="#F78400"/>
</linearGradient>
<linearGradient id="paint18_linear_965_19507" x1="194.524" y1="44.4594" x2="205.397" y2="46.7074" gradientUnits="userSpaceOnUse">
<stop offset="1.1e-07" stop-color="#FF3C9E"/>
<stop offset="0.1688" stop-color="#F83693"/>
<stop offset="0.4621" stop-color="#E62677"/>
<stop offset="0.8425" stop-color="#C90C49"/>
<stop offset="1" stop-color="#BB0034"/>
</linearGradient>
<clipPath id="clip0_965_19507">
<rect width="374" height="91" fill="white"/>
</clipPath>
</defs>
</svg>
