<svg width="136" height="45" viewBox="0 0 136 45" fill="none" xmlns="http://www.w3.org/2000/svg">
<path d="M15.0998 12.5733C15.6323 11.1689 17.6474 11.1689 18.1815 12.5733L21.626 22.1145C21.8672 22.7468 22.4812 23.1678 23.1668 23.1678H31.6314C33.1956 23.1678 33.8778 25.1147 32.6481 26.0681L26.6245 31.4877C26.3547 31.6951 26.1575 31.9827 26.0613 32.3091C25.965 32.6356 25.9746 32.9841 26.0887 33.3047L28.2885 42.628C28.8243 44.1256 27.0905 45.4118 25.7792 44.49L17.5975 39.2984C17.3173 39.1015 16.9832 38.9958 16.6407 38.9958C16.2982 38.9958 15.9641 39.1015 15.6839 39.2984L7.50214 44.49C6.19259 45.4118 4.45707 44.1239 4.99286 42.628L7.19264 33.3047C7.30675 32.9841 7.31637 32.6356 7.22011 32.3091C7.12385 31.9827 6.92666 31.6951 6.65684 31.4877L0.633251 26.0681C-0.598091 25.1147 0.0874665 23.1678 1.64828 23.1678H10.1129C10.4462 23.1689 10.772 23.0688 11.0471 22.8807C11.3222 22.6926 11.5338 22.4255 11.6538 22.1145L15.0982 12.5733H15.0998Z" fill="url(#paint0_linear_965_22566)"/>
<path d="M65.608 1.4179C66.3248 -0.472633 69.0374 -0.472633 69.7564 1.4179L74.3931 14.2619C74.7179 15.1131 75.5445 15.6798 76.4673 15.6798H87.862C89.9676 15.6798 90.886 18.3005 89.2307 19.584L81.122 26.8796C80.7588 27.1588 80.4933 27.5459 80.3637 27.9854C80.2341 28.4248 80.2471 28.894 80.4007 29.3256L83.3619 41.8762C84.0832 43.8921 81.7492 45.6236 79.9841 44.3827L68.9702 37.394C68.593 37.1289 68.1432 36.9867 67.6822 36.9867C67.2212 36.9867 66.7714 37.1289 66.3942 37.394L55.3803 44.3827C53.6174 45.6236 51.2811 43.8899 52.0024 41.8762L54.9637 29.3256C55.1173 28.894 55.1302 28.4248 55.0006 27.9854C54.871 27.5459 54.6056 27.1588 54.2424 26.8796L46.1337 19.584C44.4761 18.3005 45.399 15.6798 47.5001 15.6798H58.8948C59.3434 15.6813 59.782 15.5465 60.1523 15.2933C60.5227 15.0401 60.8075 14.6804 60.969 14.2619L65.6057 1.4179H65.608Z" fill="url(#paint1_linear_965_22566)"/>
<path d="M117.182 12.5733C117.714 11.1689 119.729 11.1689 120.264 12.5733L123.708 22.1145C123.949 22.7468 124.563 23.1678 125.249 23.1678H133.713C135.278 23.1678 135.96 25.1147 134.73 26.0681L128.707 31.4877C128.437 31.6951 128.24 31.9827 128.143 32.3091C128.047 32.6356 128.057 32.9841 128.171 33.3047L130.371 42.628C130.906 44.1256 129.172 45.4118 127.861 44.49L119.68 39.2984C119.399 39.1015 119.065 38.9958 118.723 38.9958C118.38 38.9958 118.046 39.1015 117.766 39.2984L109.584 44.49C108.275 45.4118 106.539 44.1239 107.075 42.628L109.275 33.3047C109.389 32.9841 109.398 32.6356 109.302 32.3091C109.206 31.9827 109.009 31.6951 108.739 31.4877L102.715 26.0681C101.484 25.1147 102.169 23.1678 103.73 23.1678H112.195C112.528 23.1689 112.854 23.0688 113.129 22.8807C113.404 22.6926 113.616 22.4255 113.736 22.1145L117.18 12.5733H117.182Z" fill="url(#paint2_linear_965_22566)"/>
<defs>
<linearGradient id="paint0_linear_965_22566" x1="16.6405" y1="11.52" x2="16.6405" y2="44.8" gradientUnits="userSpaceOnUse">
<stop stop-color="#FFC544"/>
<stop offset="1" stop-color="#C18E1E"/>
</linearGradient>
<linearGradient id="paint1_linear_965_22566" x1="67.6819" y1="0" x2="67.6819" y2="44.8" gradientUnits="userSpaceOnUse">
<stop stop-color="#FFC544"/>
<stop offset="1" stop-color="#C18E1E"/>
</linearGradient>
<linearGradient id="paint2_linear_965_22566" x1="118.723" y1="11.52" x2="118.723" y2="44.8" gradientUnits="userSpaceOnUse">
<stop stop-color="#FFC544"/>
<stop offset="1" stop-color="#C18E1E"/>
</linearGradient>
</defs>
</svg>
