<svg width="20" height="20" viewBox="0 0 20 20" fill="none" xmlns="http://www.w3.org/2000/svg">
<g id="Frame">
<path id="Vector" d="M10.0002 10.0003C12.3013 10.0003 14.1668 8.13485 14.1668 5.83366C14.1668 3.53247 12.3013 1.66699 10.0002 1.66699C7.69898 1.66699 5.8335 3.53247 5.8335 5.83366C5.8335 8.13485 7.69898 10.0003 10.0002 10.0003Z" stroke="#222222" stroke-linecap="round" stroke-linejoin="round"/>
<path id="Vector_2" d="M14.1666 11.667H14.4599C15.0691 11.6672 15.6573 11.8898 16.114 12.2931C16.5706 12.6963 16.8643 13.2525 16.9399 13.857L17.2657 16.4603C17.295 16.6949 17.2741 16.9329 17.2044 17.1588C17.1346 17.3846 17.0177 17.593 16.8612 17.7702C16.7048 17.9473 16.5125 18.0892 16.297 18.1863C16.0816 18.2835 15.8479 18.3337 15.6116 18.3337H4.38822C4.15187 18.3337 3.91822 18.2835 3.70276 18.1863C3.4873 18.0892 3.29497 17.9473 3.13853 17.7702C2.9821 17.593 2.86513 17.3846 2.79539 17.1588C2.72566 16.9329 2.70475 16.6949 2.73405 16.4603L3.05905 13.857C3.13463 13.2522 3.42857 12.6958 3.88558 12.2925C4.34259 11.8892 4.9312 11.6668 5.54072 11.667H5.83322" stroke="#222222" stroke-linecap="round" stroke-linejoin="round"/>
</g>
</svg>
