<svg version="1.2" xmlns="http://www.w3.org/2000/svg" viewBox="0 0 32 30" width="32" height="30">
	<title>days-svg</title>
	<defs>
		<linearGradient id="g1" x2="1" gradientUnits="userSpaceOnUse" gradientTransform="matrix(0,20.777,-20.777,0,16,4.366)">
			<stop offset="0" stop-color="#ff9e2b"/>
			<stop offset="1" stop-color="#d25800"/>
		</linearGradient>
	</defs>
	<style>
		.s0 { fill: url(#g1) } 
		.s1 { fill: #ffffff } 
	</style>
	<path id="Layer" class="s0" d="m16 30c-8.3 0-15-6.7-15-15 0-8.3 6.7-15 15-15 8.3 0 15 6.7 15 15 0 8.3-6.7 15-15 15z"/>
	<path id="Layer" fill-rule="evenodd" class="s1" d="m41.5 21.2q-0.9 0-1.6-0.3-0.8-0.4-1.3-1-0.6-0.7-0.8-1.5l1.4-0.4q0.1 0.6 0.5 1 0.3 0.4 0.8 0.6 0.5 0.3 1.1 0.3 0.7 0 1.2-0.4 0.6-0.3 0.9-0.9 0.4-0.6 0.4-1.2 0-0.7-0.4-1.3-0.3-0.5-0.9-0.9-0.6-0.3-1.2-0.3-0.8 0-1.3 0.3-0.6 0.3-0.9 0.8l-1.2-0.5 0.3-6h6.2v1.3h-4.9l-0.2 3.5q0.3-0.3 0.8-0.4 0.6-0.3 1.3-0.3 1.1 0 1.9 0.5 0.9 0.5 1.4 1.3 0.5 0.9 0.5 2 0 1-0.6 1.9-0.5 0.9-1.4 1.4-0.9 0.5-2 0.5zm-1.7-10.4v-0.6l-0.6 0.6zm-0.2 3.5q-0.2 0.2-0.4 0.4l0.3 0.4zm14.5 6.9q-1.3 0-2.1-0.6-0.9-0.6-1.4-1.7-0.4-1-0.4-2.3 0-1.3 0.4-2.3 0.5-1.1 1.4-1.6 0.8-0.6 2-0.6 1.3 0 2.1 0.5 0.3 0.2 0.5 0.5v-3.7h1.4v11.5h-1.2v-0.9q-0.3 0.3-0.7 0.6-0.8 0.6-2 0.6zm0.1-1.3q0.9 0 1.5-0.4 0.5-0.5 0.8-1.2 0.3-0.7 0.3-1.7 0-1-0.3-1.7-0.3-0.7-0.8-1.1-0.6-0.4-1.4-0.4-0.9 0-1.5 0.4-0.6 0.4-0.8 1.2-0.3 0.7-0.3 1.6 0 0.9 0.3 1.7 0.3 0.7 0.8 1.1 0.6 0.5 1.4 0.5zm8.5 1.3q-0.9 0-1.6-0.4-0.6-0.3-1-0.9-0.3-0.6-0.3-1.3 0-0.7 0.2-1.2 0.3-0.5 0.8-0.8 0.5-0.3 1.1-0.5 0.6-0.2 1.4-0.3 0.8-0.2 1.5-0.3 0.5 0 1-0.1 0-1-0.5-1.5-0.5-0.5-1.6-0.5-0.8 0-1.4 0.3-0.6 0.4-0.8 1.2l-1.4-0.4q0.3-1.1 1.2-1.8 0.9-0.6 2.4-0.6 1.2 0 2 0.4 0.8 0.4 1.2 1.2 0.2 0.4 0.2 0.9 0.1 0.5 0.1 1v5.3h-1.3v-1.3q-0.4 0.7-1 1-0.9 0.6-2.2 0.6zm3.1-5.8q0 0.1 0 0.2l0.5-0.3q-0.2 0.1-0.5 0.1zm0.1 4.2q0.2-0.3 0.3-0.5l-0.3-0.2zm-3 0.4q0.8 0 1.4-0.3 0.5-0.3 0.9-0.7 0.3-0.5 0.4-1 0.2-0.4 0.2-0.9 0-0.3 0-0.5-0.5 0.1-0.9 0.1-0.7 0.1-1.3 0.2-0.6 0.1-1 0.2-0.4 0.2-0.7 0.3-0.3 0.2-0.5 0.5-0.2 0.3-0.2 0.7 0 0.3 0.2 0.6 0.2 0.4 0.5 0.6 0.4 0.2 1 0.2zm2.9-3.4q0.2 0 0.5-0.1l-0.5-0.2q0 0.1 0 0.3zm4.2 8.2l1.4-3.9-3.5-8.6h1.5l2.7 6.8 2.5-6.8h1.5l-4.7 12.5zm1.4-3.9l0.3 0.7-0.1-1.4zm0.7-1.8l-0.2 0.7h0.5zm8.6 2q-1.6 0-2.6-0.6-1-0.7-1.2-1.9l1.5-0.3q0.1 0.7 0.8 1.2 0.6 0.4 1.5 0.4 0.9 0 1.4-0.4 0.5-0.4 0.5-1 0-0.4-0.1-0.6-0.2-0.2-0.7-0.4-0.5-0.2-1.6-0.5-1.1-0.3-1.8-0.6-0.7-0.4-0.9-0.8-0.3-0.4-0.3-1.1 0-0.7 0.4-1.3 0.4-0.6 1.2-0.9 0.7-0.3 1.7-0.3 1 0 1.8 0.3 0.7 0.3 1.2 0.9 0.5 0.6 0.6 1.3l-1.5 0.3q-0.1-0.7-0.6-1.1-0.6-0.4-1.5-0.4-0.8 0-1.4 0.3-0.5 0.3-0.5 0.9 0 0.3 0.2 0.5 0.2 0.2 0.7 0.4 0.6 0.2 1.6 0.5 1.1 0.3 1.8 0.6 0.7 0.4 0.9 0.8 0.3 0.5 0.3 1.2 0 1.2-0.9 1.9-0.9 0.7-2.5 0.7z"/>
	<path id="Layer" fill-rule="evenodd" class="s1" d="m14.7 6.3q0.1-0.1 0.3-0.2 0.2-0.1 0.3 0c3.2 0.7 4.8 4.2 4.4 7.3-0.1 1.2-0.5 2.2-1 2.9q0.2-0.1 0.3-0.2c0.5-0.3 0.9-0.8 1.4-1.3l0.2-0.2q0.1-0.2 0.3-0.2 0.1-0.1 0.3-0.1 0.1 0 0.3 0.1 0.1 0.1 0.2 0.3c0.5 1.1 0.8 2.3 0.6 3.5-0.1 1.3-0.6 2.4-1.4 3.4-0.7 0.9-1.8 1.6-2.9 2-1.2 0.4-2.5 0.4-3.6 0.1-1.2-0.3-2.3-1-3.1-1.9-0.9-0.9-1.4-2-1.6-3.2-0.2-1.2 0-2.5 0.5-3.6 0.5-1.1 1.3-2.1 2.3-2.8h0.1q0-0.1 0.1-0.1c0.7-0.5 1.3-0.9 1.6-1.4 0.4-0.5 0.6-1.1 0.6-1.9q0-1-0.3-1.8-0.1-0.2-0.1-0.4 0.1-0.2 0.2-0.3z"/>
</svg>