<svg width="23" height="23" viewBox="0 0 23 23" fill="none" xmlns="http://www.w3.org/2000/svg">
<path d="M17.15 0.435815C16.7405 0.567928 16.5599 0.708848 15.7276 1.53235L14.8821 2.37787L17.7093 5.20507L20.5409 8.03668L21.3248 7.25282C21.7563 6.82565 22.1703 6.38087 22.2407 6.26197C22.6459 5.64104 22.6459 4.71185 22.2451 4.08652C22.1703 3.96762 21.3908 3.15733 20.5101 2.28099C19.0392 0.814538 18.8851 0.678021 18.6032 0.541505C18.3214 0.409393 18.2554 0.396182 17.8106 0.387374C17.4979 0.378567 17.2645 0.396182 17.15 0.435815Z" fill="white"/>
<path d="M8.25353 9.00349L2.48462 14.7724L5.31623 17.5996L8.14343 20.4312L13.9123 14.6623L19.6812 8.8934L16.8496 6.06179L14.0224 3.23458L8.25353 9.00349Z" fill="white"/>
<path d="M1.48307 18.138C0.641382 21.084 0.523166 21.5332 0.542081 21.7554C0.575181 22.1432 0.849441 22.3843 1.25137 22.3843C1.43106 22.3843 8.07476 20.5355 8.14096 20.4645C8.16461 20.4409 2.51864 14.7713 2.47136 14.7713C2.45717 14.7713 2.01268 16.2844 1.48307 18.138Z" fill="white"/>
</svg>
