<svg width="18" height="16" viewBox="0 0 18 16" fill="none" xmlns="http://www.w3.org/2000/svg">
<g id="Group 1410083791">
<path id="Vector" d="M8.99722 8.00635V15.2104M8.99722 8.00635L6.99609 9.60725M8.99722 8.00635L10.9983 9.60725" stroke="#222222" stroke-linecap="round" stroke-linejoin="round"/>
<path id="Vector_2" d="M3.42169 5.69873C2.66464 5.88923 2.0032 6.34962 1.56165 6.99341C1.1201 7.6372 0.928839 8.42006 1.02379 9.19492C1.11875 9.96978 1.49338 10.6833 2.07731 11.2014C2.66124 11.7195 3.41427 12.0066 4.19493 12.0087H4.99537" stroke="#222222" stroke-linecap="round" stroke-linejoin="round"/>
<path id="Vector_3" d="M12.064 4.11409C11.7904 3.03074 11.1151 2.09195 10.1751 1.48802C9.23496 0.884097 8.10041 0.660225 7.00138 0.861789C5.90234 1.06335 4.92107 1.67527 4.25648 2.5735C3.59189 3.47172 3.2937 4.58905 3.42236 5.69898C3.42236 5.69898 3.54483 6.40497 3.79537 6.8052" stroke="#222222" stroke-linecap="round" stroke-linejoin="round"/>
<path id="Vector_4" d="M13.0006 12.0079C13.5658 12.0075 14.1244 11.8875 14.6398 11.6556C15.1552 11.4237 15.6157 11.0854 15.9909 10.6627C16.3661 10.2401 16.6475 9.7428 16.8167 9.20356C16.9858 8.66432 17.0389 8.09537 16.9723 7.53415C16.9057 6.97294 16.721 6.43219 16.4304 5.9475C16.1398 5.46281 15.7498 5.04516 15.2861 4.72205C14.8224 4.39894 14.2956 4.17769 13.7402 4.07286C13.1849 3.96804 12.6137 3.98202 12.0641 4.11388L10.9995 4.40364" stroke="#222222" stroke-linecap="round" stroke-linejoin="round"/>
</g>
</svg>
