<svg width="28" height="28" viewBox="0 0 28 28" fill="none" xmlns="http://www.w3.org/2000/svg">
<g id="Group 1410083722">
<g id="Group 1410083716">
<circle id="Ellipse 3668" cx="14" cy="14" r="13.25" transform="rotate(-90 14 14)" fill="white" fill-opacity="0.3" stroke="#FFC444" stroke-width="1.5"/>
<path id="Vector" d="M13.2812 6.04144C11.3812 6.36644 9.91875 7.68206 9.39063 9.54143C9.26563 9.97581 9.24688 10.2133 9.22813 11.3414L9.2125 12.4539L9 12.4696C8.60938 12.4977 8.17188 12.7821 8 13.1196C7.84063 13.432 7.84375 13.3383 7.84375 17.2195C7.84375 19.7758 7.85313 20.8852 7.87813 21.0008C7.97188 21.4414 8.31875 21.8195 8.74375 21.9508C8.9625 22.0164 19.0375 22.0164 19.2562 21.9508C19.6812 21.8195 20.0281 21.4414 20.1219 21.0008C20.1469 20.8852 20.1562 19.7758 20.1562 17.2195C20.1562 13.3289 20.1594 13.4352 19.9969 13.1133C19.8312 12.7914 19.3875 12.4946 19.025 12.4696L18.8437 12.4571V11.4008C18.8437 10.4977 18.8344 10.2946 18.7844 9.98831C18.4875 8.25081 17.2937 6.84769 15.5937 6.23519C15.3906 6.16332 15.0875 6.08832 14.7812 6.03832C14.4531 5.98519 13.6031 5.98832 13.2812 6.04144ZM14.7031 8.19769C14.9375 8.26331 15.3531 8.45394 15.5531 8.59144C15.9344 8.85394 16.2562 9.23831 16.4656 9.68831C16.6906 10.1664 16.6969 10.2008 16.7094 11.3914L16.725 12.4633H14.0344H11.3437V11.6414C11.3437 10.4196 11.3969 10.0883 11.675 9.55706C12.0531 8.83831 12.7 8.35706 13.5312 8.16644C13.7875 8.10706 14.4375 8.12581 14.7031 8.19769ZM14.4281 15.4945C14.9312 15.6664 15.2531 16.157 15.2094 16.6852C15.1844 16.9914 15.0781 17.2008 14.8281 17.4477L14.625 17.6477V18.5008C14.625 19.3852 14.6094 19.5289 14.4906 19.6945C14.4094 19.8102 14.2094 19.9008 14.0281 19.9008C13.8344 19.9008 13.625 19.7664 13.5344 19.582C13.4719 19.4508 13.4687 19.3977 13.4687 18.5945C13.4687 18.1289 13.4562 17.7133 13.4406 17.6727C13.4219 17.6289 13.3375 17.5289 13.2531 17.4477C13.1562 17.357 13.0531 17.2164 12.9906 17.0914C12.9 16.9039 12.8906 16.8602 12.8906 16.5883C12.8906 16.332 12.9031 16.2664 12.9719 16.1195C13.0844 15.882 13.275 15.6789 13.4937 15.5633C13.8 15.4008 14.0875 15.3789 14.4281 15.4945Z" fill="#FFC444"/>
</g>
</g>
</svg>
