<svg width="21" height="27" viewBox="0 0 21 27" fill="none" xmlns="http://www.w3.org/2000/svg">
<path id="Vector" d="M8.88768 0.452108C5.80019 0.980232 3.42363 3.11812 2.56543 6.1396C2.36231 6.84545 2.33184 7.23139 2.30137 9.06459L2.27598 10.8724L1.93067 10.8978C1.2959 10.9435 0.584967 11.4056 0.305671 11.954C0.0466869 12.4618 0.051765 12.3095 0.051765 18.6165C0.051765 22.7704 0.0669994 24.5731 0.107624 24.761C0.259968 25.4771 0.823638 26.0915 1.51426 26.3048C1.86973 26.4114 18.2416 26.4114 18.597 26.3048C19.2877 26.0915 19.8513 25.4771 20.0037 24.761C20.0443 24.5731 20.0595 22.7704 20.0595 18.6165C20.0595 12.2943 20.0646 12.4669 19.8005 11.9439C19.5314 11.4208 18.8103 10.9384 18.2213 10.8978L17.9267 10.8775V9.16107C17.9267 7.6935 17.9115 7.36342 17.8302 6.86577C17.3478 4.04234 15.408 1.76226 12.6455 0.766953C12.3154 0.650156 11.8228 0.52828 11.3252 0.447031C10.792 0.360703 9.41073 0.365782 8.88768 0.452108ZM11.1982 3.95601C11.5791 4.06265 12.2545 4.37241 12.5795 4.59585C13.199 5.02241 13.722 5.64702 14.0623 6.37827C14.4279 7.15522 14.4381 7.21108 14.4584 9.14584L14.4838 10.8876H10.1115H5.73925V9.55209C5.73925 7.56655 5.82558 7.02827 6.27753 6.16499C6.89198 4.99702 7.94315 4.21499 9.29393 3.90523C9.71034 3.80874 10.7666 3.83921 11.1982 3.95601ZM10.7514 15.8134C11.5689 16.0927 12.092 16.89 12.0209 17.7482C11.9803 18.2458 11.8076 18.5861 11.4013 18.9872L11.0713 19.3122V20.6985C11.0713 22.1357 11.0459 22.3692 10.8529 22.6384C10.7209 22.8263 10.3959 22.9735 10.1014 22.9735C9.78651 22.9735 9.44628 22.7552 9.29901 22.4556C9.19745 22.2423 9.19237 22.156 9.19237 20.8509C9.19237 20.0943 9.17206 19.4189 9.14667 19.3528C9.1162 19.2818 8.97909 19.1193 8.84198 18.9872C8.68456 18.84 8.51698 18.6114 8.41542 18.4083C8.26815 18.1036 8.25292 18.0325 8.25292 17.5907C8.25292 17.1743 8.27323 17.0677 8.38495 16.829C8.56776 16.4431 8.87753 16.113 9.233 15.9251C9.73065 15.6611 10.1978 15.6255 10.7514 15.8134Z" fill="white"/>
</svg>
