<svg width="73" height="73" viewBox="0 0 73 73" fill="none" xmlns="http://www.w3.org/2000/svg">
<circle cx="36.0698" cy="36.77" r="36" fill="#797CCC"/>
<path d="M33.5268 18.8632C29.2518 19.5945 25.9612 22.5546 24.773 26.7382C24.4917 27.7156 24.4495 28.2499 24.4073 30.7882L24.3722 33.2913L23.894 33.3265C23.0151 33.3898 22.0308 34.0296 21.6441 34.789C21.2855 35.4921 21.2925 35.2812 21.2925 44.014C21.2925 49.7655 21.3136 52.2616 21.3698 52.5218C21.5808 53.5132 22.3612 54.3639 23.3175 54.6592C23.8097 54.8069 46.4784 54.8069 46.9706 54.6592C47.9268 54.3639 48.7073 53.5132 48.9182 52.5218C48.9745 52.2616 48.9956 49.7655 48.9956 44.014C48.9956 35.2601 49.0026 35.4991 48.637 34.7749C48.2643 34.0507 47.2659 33.3827 46.4502 33.3265L46.0424 33.2984V30.9218C46.0424 28.8898 46.0213 28.4327 45.9088 27.7437C45.2409 23.8343 42.5549 20.6773 38.73 19.2992C38.2729 19.1375 37.5909 18.9687 36.9018 18.8562C36.1636 18.7367 34.2511 18.7437 33.5268 18.8632ZM36.7261 23.7148C37.2534 23.8624 38.1885 24.2913 38.6385 24.6007C39.4964 25.1913 40.2206 26.0562 40.6917 27.0687C41.1979 28.1445 41.212 28.2218 41.2401 30.9007L41.2753 33.3124H35.2214H29.1675V31.4632C29.1675 28.714 29.287 27.9687 29.9128 26.7734C30.7636 25.1562 32.219 24.0734 34.0893 23.6445C34.6659 23.5109 36.1284 23.5531 36.7261 23.7148ZM36.1073 40.1327C37.2393 40.5194 37.9635 41.6233 37.8651 42.8116C37.8089 43.5007 37.5698 43.9718 37.0073 44.5272L36.5503 44.9772V46.8968C36.5503 48.8866 36.5151 49.21 36.2479 49.5827C36.0651 49.8429 35.6151 50.0468 35.2073 50.0468C34.7714 50.0468 34.3003 49.7444 34.0964 49.3296C33.9557 49.0343 33.9487 48.9147 33.9487 47.1077C33.9487 46.06 33.9206 45.1249 33.8854 45.0335C33.8432 44.9351 33.6534 44.7101 33.4636 44.5272C33.2456 44.3233 33.0136 44.0069 32.8729 43.7257C32.669 43.3038 32.6479 43.2054 32.6479 42.5936C32.6479 42.0171 32.6761 41.8694 32.8307 41.539C33.0839 41.0046 33.5128 40.5476 34.005 40.2874C34.694 39.9218 35.3409 39.8726 36.1073 40.1327Z" fill="white"/>
</svg>
