<svg width="28" height="28" viewBox="0 0 28 28" fill="none" xmlns="http://www.w3.org/2000/svg">
<g id="Group 1410083721">
<g id="Group 1410083716">
<circle id="Ellipse 3668" cx="14" cy="14" r="13.25" transform="rotate(-90 14 14)" fill="white" fill-opacity="0.3" stroke="#FFC444" stroke-width="1.5"/>
<path id="Vector" d="M13.6492 6.09063C13.5554 6.15001 13.4867 6.22813 13.4398 6.31876L13.3742 6.45627V11.994C13.3742 15.041 13.3679 17.5317 13.3617 17.5317C13.3554 17.5317 13.2336 17.4754 13.0898 17.4098C11.3179 16.5785 9.04903 17.3317 8.54588 18.9161C8.30213 19.6786 8.51151 20.4755 9.11153 21.0755C9.48654 21.4506 10.0209 21.7474 10.5835 21.8974C10.9585 21.9943 11.7304 22.0318 12.1179 21.9693C12.721 21.8724 13.2836 21.6349 13.7117 21.2974C14.0242 21.0505 14.2492 20.7755 14.4086 20.4505C14.6336 19.9911 14.6242 20.1818 14.6242 16.0847C14.6242 14.0472 14.6367 12.4065 14.6524 12.4065C14.7055 12.4065 15.0961 12.5971 15.3555 12.7502C16.2868 13.3003 16.9681 14.1472 17.2931 15.1535C17.4681 15.691 17.4681 15.6847 17.2993 15.9222C17.2181 16.0347 17.1306 16.1754 17.1056 16.2347C16.9556 16.5941 17.2056 17.0285 17.5931 17.0816C17.9337 17.1285 18.1369 16.9816 18.5119 16.4098C19.0619 15.5785 19.4244 14.5284 19.5338 13.4565C19.6525 12.2784 19.2463 11.0971 18.4275 10.2283C18.0994 9.88139 17.7118 9.57513 16.9774 9.07511C15.9024 8.34383 15.5993 8.08133 15.1899 7.53443C14.843 7.07191 14.7274 6.86878 14.6367 6.56877C14.5086 6.15001 14.3336 6 13.9742 6C13.8273 6 13.7648 6.01875 13.6492 6.09063Z" fill="#FFC444"/>
</g>
</g>
</svg>
