<svg width="642" height="336" viewBox="0 0 642 336" fill="none" xmlns="http://www.w3.org/2000/svg">
<g opacity="0.3">
<path d="M526.745 7.11968C526.661 7.30718 526.634 7.49807 526.654 7.68591L526.694 7.96528L532.354 16.5149C535.468 21.2192 538.004 25.071 537.994 25.0774C537.985 25.0837 537.739 25.1215 537.45 25.1671C533.865 25.6947 531.132 29.1765 531.974 32.137C532.377 33.5634 533.515 34.5797 535.055 34.8928C536.017 35.0885 537.146 35.0006 538.167 34.6573C538.845 34.4236 540.075 33.6925 540.61 33.1999C541.442 32.4339 542.068 31.4922 542.384 30.5336C542.614 29.833 542.68 29.1784 542.594 28.5137C542.472 27.5745 542.652 27.8784 538.465 21.553C536.382 18.4072 534.725 15.8614 534.749 15.8454C534.831 15.7911 535.629 15.6861 536.186 15.6574C538.186 15.5548 540.103 16.166 541.633 17.3874C542.453 18.0384 542.447 18.0287 542.429 18.5679C542.418 18.8247 542.427 19.1312 542.449 19.2484C542.585 19.9566 543.415 20.3717 544.067 20.0577C544.641 19.7819 544.805 19.3475 544.799 18.0813C544.799 16.2357 544.285 14.244 543.358 12.4773C542.338 10.5369 540.503 9.12837 538.351 8.62393C537.49 8.42376 536.578 8.347 534.933 8.32565C532.526 8.29542 531.79 8.19997 530.599 7.77405C529.591 7.41452 529.204 7.21909 528.758 6.84853C528.132 6.33296 527.709 6.28024 527.154 6.64757C526.927 6.7977 526.85 6.89053 526.745 7.11968Z" fill="white"/>
<path d="M630.1 197.819C630.062 197.902 630.051 197.987 630.06 198.07L630.077 198.194L632.589 201.989C633.972 204.077 635.098 205.787 635.093 205.79C635.089 205.793 634.98 205.809 634.852 205.83C633.26 206.064 632.047 207.609 632.421 208.923C632.6 209.557 633.105 210.008 633.788 210.147C634.216 210.234 634.716 210.195 635.17 210.042C635.471 209.938 636.017 209.614 636.254 209.395C636.624 209.055 636.901 208.637 637.042 208.212C637.144 207.901 637.173 207.61 637.135 207.315C637.081 206.898 637.161 207.033 635.302 204.225C634.378 202.829 633.642 201.699 633.653 201.692C633.689 201.668 634.043 201.621 634.29 201.609C635.178 201.563 636.029 201.834 636.709 202.376C637.072 202.665 637.069 202.661 637.062 202.9C637.057 203.014 637.061 203.15 637.071 203.202C637.131 203.517 637.499 203.701 637.789 203.562C638.044 203.439 638.116 203.246 638.114 202.684C638.114 201.865 637.886 200.981 637.474 200.197C637.021 199.336 636.207 198.71 635.251 198.486C634.869 198.398 634.465 198.364 633.735 198.354C632.666 198.341 632.339 198.298 631.811 198.109C631.363 197.95 631.192 197.863 630.993 197.698C630.716 197.47 630.528 197.446 630.281 197.609C630.181 197.676 630.146 197.717 630.1 197.819Z" fill="white"/>
<path d="M630.675 279.448C630.593 279.303 630.482 279.194 630.35 279.117L630.149 279.008L621.856 278.577C617.293 278.339 613.564 278.136 613.564 278.127C613.565 278.117 613.659 277.939 613.768 277.729C615.151 275.14 614.2 271.684 611.866 270.807C610.743 270.383 609.534 270.634 608.588 271.486C607.998 272.019 607.511 272.796 607.243 273.626C607.069 274.18 606.952 275.333 607.016 275.919C607.114 276.829 607.426 277.69 607.898 278.358C608.243 278.845 608.638 279.203 609.112 279.467C609.782 279.84 609.498 279.811 615.633 280.13C618.684 280.289 621.14 280.435 621.139 280.459C621.135 280.538 620.819 281.108 620.569 281.485C619.673 282.837 618.352 283.791 616.82 284.199C616.001 284.419 616.01 284.42 615.668 284.149C615.506 284.018 615.302 283.876 615.215 283.834C614.689 283.582 614.019 283.922 613.909 284.498C613.812 285.005 614.016 285.32 614.843 285.927C616.045 286.815 617.59 287.44 619.186 287.687C620.941 287.956 622.742 287.44 624.107 286.282C624.652 285.817 625.141 285.261 625.947 284.2C627.125 282.647 627.542 282.213 628.393 281.643C629.113 281.16 629.426 281.002 629.882 280.89C630.519 280.731 630.758 280.48 630.785 279.942C630.797 279.722 630.774 279.627 630.675 279.448Z" fill="white"/>
<path d="M496.525 308.346C496.407 308.383 496.31 308.448 496.233 308.532L496.123 308.661L494.524 314.629C493.644 317.913 492.918 320.596 492.911 320.594C492.904 320.592 492.789 320.496 492.653 320.384C490.984 318.976 488.321 319.133 487.321 320.695C486.838 321.447 486.834 322.366 487.307 323.186C487.603 323.698 488.093 324.173 488.656 324.497C489.032 324.71 489.853 324.973 490.289 325.017C490.967 325.087 491.642 324.994 492.201 324.754C492.609 324.578 492.931 324.346 493.197 324.042C493.572 323.612 493.507 323.815 494.69 319.399C495.278 317.203 495.765 315.439 495.782 315.443C495.84 315.458 496.205 315.777 496.441 316.017C497.286 316.878 497.775 317.988 497.835 319.166C497.868 319.796 497.87 319.789 497.62 319.997C497.5 320.094 497.365 320.221 497.321 320.277C497.055 320.621 497.199 321.162 497.602 321.331C497.955 321.48 498.216 321.38 498.786 320.872C499.619 320.135 500.313 319.108 500.74 317.984C501.208 316.749 501.112 315.358 500.48 314.186C500.226 313.717 499.897 313.275 499.25 312.524C498.303 311.425 498.052 311.055 497.769 310.347C497.528 309.749 497.462 309.496 497.451 309.147C497.434 308.659 497.289 308.446 496.901 308.343C496.743 308.3 496.67 308.302 496.525 308.346Z" fill="white"/>
<path d="M23.8057 294.479C23.5483 294.551 23.3355 294.684 23.1645 294.861L22.9178 295.132L19.0785 307.907C16.966 314.936 15.2247 320.677 15.2103 320.673C15.1959 320.668 14.9537 320.454 14.6676 320.203C11.1564 317.057 5.40045 317.221 3.14129 320.527C2.05031 322.117 1.98082 324.101 2.94896 325.901C3.55405 327.026 4.58097 328.081 5.7746 328.817C6.57252 329.301 8.32716 329.923 9.26442 330.047C10.7229 330.242 12.1852 330.084 13.4069 329.602C14.2989 329.249 15.0087 328.771 15.6017 328.132C16.4392 327.228 16.2854 327.661 19.1259 318.21C20.5386 313.51 21.7049 309.734 21.741 309.744C21.8635 309.781 22.6325 310.492 23.1247 311.025C24.8917 312.939 25.8761 315.365 25.9281 317.912C25.9592 319.273 25.9635 319.259 25.4096 319.69C25.1441 319.893 24.8448 320.157 24.7459 320.276C24.1507 321.001 24.4263 322.177 25.2834 322.568C26.0367 322.912 26.6071 322.714 27.8687 321.655C29.7138 320.119 31.2781 317.948 32.2735 315.551C33.3643 312.916 33.2461 309.909 31.9597 307.337C31.4433 306.309 30.7617 305.334 29.4142 303.672C27.4413 301.239 26.924 300.424 26.3588 298.878C25.8792 297.571 25.7533 297.022 25.7523 296.267C25.747 295.212 25.4473 294.745 24.6183 294.496C24.2795 294.394 24.1223 294.394 23.8057 294.479Z" fill="white"/>
<path d="M436.757 84.206C436.499 84.278 436.287 84.4106 436.116 84.5871L435.869 84.8588L432.03 97.6333C429.917 104.662 428.176 110.403 428.161 110.399C428.147 110.395 427.905 110.18 427.619 109.929C424.108 106.783 418.352 106.948 416.092 110.254C415.001 111.844 414.932 113.827 415.9 115.627C416.505 116.753 417.532 117.808 418.726 118.544C419.524 119.027 421.278 119.649 422.216 119.774C423.674 119.968 425.136 119.81 426.358 119.329C427.25 118.976 427.96 118.497 428.553 117.858C429.39 116.954 429.237 117.388 432.077 107.937C433.49 103.236 434.656 99.4602 434.692 99.4711C434.815 99.5079 435.584 100.218 436.076 100.752C437.843 102.666 438.827 105.092 438.879 107.639C438.91 109 438.915 108.986 438.361 109.416C438.095 109.62 437.796 109.883 437.697 110.003C437.102 110.728 437.377 111.903 438.235 112.295C438.988 112.639 439.558 112.441 440.82 111.382C442.665 109.845 444.229 107.675 445.225 105.278C446.315 102.642 446.197 99.6355 444.911 97.0637C444.394 96.036 443.713 95.0608 442.365 93.3982C440.392 90.9659 439.875 90.1502 439.31 88.6048C438.83 87.2973 438.705 86.7486 438.703 85.9937C438.698 84.9388 438.399 84.4715 437.569 84.2223C437.231 84.1205 437.073 84.1204 436.757 84.206Z" fill="white"/>
<path d="M115.23 72.3757C115.112 72.4126 115.015 72.477 114.939 72.5611L114.828 72.6904L113.229 78.6586C112.349 81.9425 111.623 84.6251 111.616 84.6233C111.61 84.6215 111.494 84.5256 111.358 84.4134C109.689 83.0058 107.026 83.1623 106.026 84.7246C105.543 85.476 105.539 86.3954 106.012 87.2153C106.308 87.7278 106.798 88.2021 107.361 88.5262C107.737 88.7389 108.559 89.0022 108.994 89.0468C109.672 89.1165 110.347 89.023 110.906 88.7829C111.314 88.6071 111.636 88.3756 111.902 88.0714C112.277 87.6413 112.212 87.844 113.395 83.4284C113.983 81.2324 114.471 79.4678 114.487 79.4723C114.545 79.4877 114.911 79.8059 115.146 80.0459C115.991 80.9076 116.48 82.0171 116.54 83.1955C116.573 83.8253 116.575 83.8186 116.325 84.0258C116.205 84.1236 116.07 84.2499 116.026 84.3067C115.76 84.6507 115.904 85.191 116.307 85.3602C116.66 85.5091 116.922 85.4095 117.491 84.9014C118.324 84.1643 119.018 83.1373 119.445 82.0137C119.913 80.7782 119.817 79.3877 119.185 78.2149C118.932 77.7463 118.602 77.3044 117.955 76.5534C117.008 75.4548 116.757 75.0843 116.474 74.3767C116.233 73.778 116.167 73.5257 116.156 73.1762C116.139 72.6879 115.994 72.4757 115.607 72.3719C115.448 72.3295 115.375 72.3316 115.23 72.3757Z" fill="white"/>
<path d="M18.4057 146.135C18.4578 146.247 18.5342 146.334 18.6277 146.399L18.7703 146.492L24.8967 147.295C28.2676 147.736 31.0222 148.105 31.0213 148.111C31.0204 148.118 30.9405 148.245 30.847 148.395C29.6705 150.234 30.1747 152.854 31.8546 153.64C32.6629 154.02 33.5749 153.904 34.3257 153.327C34.7949 152.967 35.2009 152.419 35.4484 151.818C35.6099 151.417 35.7633 150.569 35.7504 150.131C35.7306 149.45 35.5494 148.793 35.2381 148.27C35.0103 147.889 34.7387 147.6 34.4022 147.376C33.9266 147.061 34.1362 147.099 29.6036 146.505C27.3494 146.209 25.5361 145.958 25.5384 145.94C25.5461 145.882 25.8136 145.477 26.0206 145.212C26.7642 144.262 27.7999 143.631 28.9603 143.417C29.5803 143.302 29.5734 143.301 29.8117 143.522C29.9244 143.628 30.0673 143.745 30.1293 143.782C30.5052 144 31.022 143.786 31.1369 143.365C31.2382 142.995 31.1052 142.749 30.5268 142.251C29.6869 141.522 28.5778 140.969 27.4078 140.692C26.1216 140.39 24.7558 140.668 23.676 141.448C23.2446 141.761 22.8496 142.145 22.19 142.885C21.2251 143.968 20.8907 144.266 20.2263 144.639C19.6644 144.956 19.4229 145.055 19.0778 145.111C18.596 145.192 18.4046 145.364 18.3525 145.762C18.3312 145.924 18.3429 145.996 18.4057 146.135Z" fill="white"/>
</g>
</svg>
