<svg width="17" height="24" viewBox="0 0 17 24" fill="none" xmlns="http://www.w3.org/2000/svg">
<path d="M7.83158 0.911358C7.69558 0.99749 7.59584 1.11082 7.52784 1.24229L7.43264 1.44176V9.47481C7.43264 13.8948 7.42358 17.5079 7.41451 17.5079C7.40544 17.5079 7.22864 17.4263 7.02011 17.3311C4.44971 16.1252 1.15852 17.2177 0.428654 19.5161C0.0750545 20.6223 0.378787 21.7783 1.24919 22.6487C1.79319 23.1927 2.56838 23.6233 3.38438 23.8409C3.92838 23.9815 5.04811 24.0359 5.61025 23.9452C6.48518 23.8047 7.30118 23.4601 7.92224 22.9705C8.37558 22.6124 8.70197 22.2135 8.93318 21.742C9.25957 21.0756 9.24597 21.3521 9.24597 15.4089C9.24597 12.4532 9.26411 10.0732 9.28677 10.0732C9.36384 10.0732 9.93051 10.3497 10.3068 10.5719C11.6577 11.3697 12.646 12.5983 13.1174 14.058C13.3713 14.8377 13.3713 14.8287 13.1265 15.1732C13.0086 15.3364 12.8817 15.5404 12.8454 15.6265C12.6278 16.1479 12.9905 16.778 13.5526 16.8551C14.0468 16.9231 14.3414 16.71 14.8854 15.8804C15.6833 14.6745 16.2092 13.1513 16.3678 11.5964C16.5401 9.88734 15.9508 8.17375 14.763 6.91348C14.287 6.41028 13.7249 5.96602 12.6596 5.24068C11.1001 4.17989 10.6604 3.79909 10.0665 3.00575C9.56331 2.33482 9.39557 2.04016 9.26411 1.60496C9.07824 0.99749 8.82438 0.779892 8.30304 0.779892C8.08998 0.779892 7.99931 0.807091 7.83158 0.911358Z" fill="white"/>
</svg>
