<svg width="14" height="18" viewBox="0 0 14 18" fill="none" xmlns="http://www.w3.org/2000/svg">
<path d="M0.600098 2.6V15.4C0.600098 15.8243 0.768669 16.2313 1.06873 16.5314C1.36878 16.8314 1.77575 17 2.2001 17H11.8001C12.2244 17 12.6314 16.8314 12.9315 16.5314C13.2315 16.2313 13.4001 15.8243 13.4001 15.4V6.0736C13.4001 5.86045 13.3575 5.64945 13.2748 5.453C13.1921 5.25654 13.0709 5.07859 12.9185 4.9296L9.3665 1.456C9.06759 1.16373 8.66616 1.00005 8.2481 1H2.2001C1.77575 1 1.36878 1.16857 1.06873 1.46863C0.768669 1.76869 0.600098 2.17565 0.600098 2.6Z" stroke="#222222" stroke-linecap="round" stroke-linejoin="round"/>
<path d="M4.6001 9.7998H9.4001" stroke="#222222" stroke-linecap="round" stroke-linejoin="round"/>
<path d="M4.6001 13H7.0001" stroke="#222222" stroke-linecap="round" stroke-linejoin="round"/>
<path d="M8.6001 1V4.2C8.6001 4.62435 8.76867 5.03131 9.06873 5.33137C9.36879 5.63143 9.77575 5.8 10.2001 5.8H13.4001" stroke="#222222" stroke-linecap="round" stroke-linejoin="round"/>
</svg>
