<svg width="24" height="25" viewBox="0 0 24 25" fill="none" xmlns="http://www.w3.org/2000/svg">
<circle cx="12" cy="12.0776" r="12" fill="#ECECEC"/>
<path d="M6.66602 6.74447V17.4111C6.66602 17.7648 6.80649 18.1039 7.05654 18.3539C7.30659 18.604 7.64573 18.7445 7.99935 18.7445H15.9993C16.353 18.7445 16.6921 18.604 16.9422 18.3539C17.1922 18.1039 17.3327 17.7648 17.3327 17.4111V9.63913C17.3327 9.46151 17.2971 9.28567 17.2282 9.12196C17.1593 8.95825 17.0584 8.80996 16.9313 8.6858L13.9713 5.79113C13.7223 5.54757 13.3877 5.41118 13.0393 5.41113H7.99935C7.64573 5.41113 7.30659 5.55161 7.05654 5.80166C6.80649 6.05171 6.66602 6.39084 6.66602 6.74447Z" stroke="#222222" stroke-linecap="round" stroke-linejoin="round"/>
<path d="M10 12.7441H14" stroke="#222222" stroke-linecap="round" stroke-linejoin="round"/>
<path d="M10 15.4111H12" stroke="#222222" stroke-linecap="round" stroke-linejoin="round"/>
<path d="M13.332 5.41113V8.0778C13.332 8.43142 13.4725 8.77056 13.7226 9.02061C13.9726 9.27066 14.3117 9.41113 14.6654 9.41113H17.332" stroke="#222222" stroke-linecap="round" stroke-linejoin="round"/>
</svg>
