<svg width="42" height="42" viewBox="0 0 42 42" fill="none" xmlns="http://www.w3.org/2000/svg">
<path d="M18.3411 33.1225V8.87747C18.3411 6.57573 17.3692 5.65503 14.914 5.65503H8.7249C6.2697 5.65503 5.29785 6.57573 5.29785 8.87747V33.1225C5.29785 35.4243 6.2697 36.345 8.7249 36.345H14.914C17.3692 36.345 18.3411 35.4243 18.3411 33.1225Z" fill="white"/>
<path d="M35.988 33.1225V8.87747C35.988 6.57573 35.0162 5.65503 32.561 5.65503H26.3719C23.9337 5.65503 22.9448 6.57573 22.9448 8.87747V33.1225C22.9448 35.4243 23.9167 36.345 26.3719 36.345H32.561C35.0162 36.345 35.988 35.4243 35.988 33.1225Z" fill="white"/>
</svg>
