<svg width="20" height="20" viewBox="0 0 20 20" fill="none" xmlns="http://www.w3.org/2000/svg">
<g id="Frame">
<path id="Vector" d="M11.6665 15.8333C14.809 15.8333 16.3807 15.8333 17.3565 14.8567C18.3332 13.8808 18.3332 12.3092 18.3332 9.16667C18.3332 6.02417 18.3332 4.4525 17.3565 3.47667C16.3807 2.5 14.809 2.5 11.6665 2.5H8.33317C5.19067 2.5 3.619 2.5 2.64317 3.47667C1.6665 4.4525 1.6665 6.02417 1.6665 9.16667C1.6665 12.3092 1.6665 13.8808 2.64317 14.8567C3.18734 15.4017 3.9165 15.6425 4.99984 15.7483" stroke="#222222" stroke-linecap="round" stroke-linejoin="round"/>
<path id="Vector_2" d="M8.3335 7.06967C8.75016 6.24467 9.16683 5.83301 10.0002 5.83301C11.0385 5.83301 11.6668 6.65717 11.6668 7.48134C11.6668 8.30551 11.2502 8.34217 10.0002 9.16634V9.99967M10.0002 12.083V12.4997" stroke="#222222" stroke-linecap="round" stroke-linejoin="round"/>
<path id="Vector_3" d="M11.6669 15.833C10.6369 15.833 9.50187 16.2497 8.46603 16.7872C6.80103 17.6513 5.96853 18.0838 5.55853 17.808C5.14853 17.533 5.22603 16.6788 5.38187 14.9713L5.41687 14.583" stroke="#222222" stroke-linecap="round" stroke-linejoin="round"/>
</g>
</svg>
