<svg width="16" height="16" viewBox="0 0 16 16" fill="none" xmlns="http://www.w3.org/2000/svg">
<path id="Vector" d="M7.25954 0.506392C7.51554 -0.168797 8.48432 -0.168797 8.74112 0.506392L10.3971 5.09352C10.5131 5.39752 10.8083 5.59992 11.1379 5.59992H15.2074C15.9594 5.59992 16.2874 6.5359 15.6962 6.99429L12.8003 9.59986C12.6705 9.69958 12.5757 9.83783 12.5295 9.99478C12.4832 10.1517 12.4878 10.3193 12.5427 10.4734L13.6002 14.9558C13.8578 15.6758 13.0243 16.2942 12.3939 15.851L8.46032 13.355C8.32562 13.2603 8.16498 13.2095 8.00033 13.2095C7.83568 13.2095 7.67505 13.2603 7.54034 13.355L3.6068 15.851C2.97721 16.2942 2.14282 15.675 2.40042 14.9558L3.458 10.4734C3.51286 10.3193 3.51749 10.1517 3.47121 9.99478C3.42493 9.83783 3.33013 9.69958 3.2004 9.59986L0.304447 6.99429C-0.287544 6.5359 0.0420512 5.59992 0.79244 5.59992H4.86198C5.02221 5.60045 5.17883 5.55232 5.31111 5.4619C5.44339 5.37147 5.54509 5.24301 5.60277 5.09352L7.25874 0.506392H7.25954Z" fill="#FFC544"/>
</svg>
