<svg width="25" height="25" viewBox="0 0 25 25" fill="none" xmlns="http://www.w3.org/2000/svg">
<path d="M9.1377 22.667H15.1377C20.1377 22.667 22.1377 20.667 22.1377 15.667V9.66699C22.1377 4.66699 20.1377 2.66699 15.1377 2.66699H9.1377C4.1377 2.66699 2.1377 4.66699 2.1377 9.66699V15.667C2.1377 20.667 4.1377 22.667 9.1377 22.667Z" stroke="#DFDFDF" stroke-linecap="round" stroke-linejoin="round"/>
<path d="M8.59449 16.3575C7.87783 16.3575 7.27283 16.1991 6.77949 15.8825C6.28616 15.5625 5.91283 15.1208 5.65949 14.5575C5.40616 13.9941 5.27949 13.3441 5.27949 12.6075C5.27949 11.8708 5.40616 11.2208 5.65949 10.6575C5.91283 10.0941 6.28616 9.65412 6.77949 9.33746C7.27283 9.01746 7.87783 8.85746 8.59449 8.85746C9.43116 8.85746 10.1145 9.07246 10.6445 9.50246C11.1745 9.92912 11.5378 10.5025 11.7345 11.2225L10.9845 11.4175C10.8312 10.8475 10.5562 10.3958 10.1595 10.0625C9.76283 9.72912 9.24116 9.56246 8.59449 9.56246C8.03116 9.56246 7.56283 9.69079 7.18949 9.94746C6.81616 10.2041 6.53449 10.5625 6.34449 11.0225C6.15783 11.4791 6.06116 12.0075 6.05449 12.6075C6.05116 13.2075 6.14283 13.7358 6.32949 14.1925C6.51949 14.6491 6.80283 15.0075 7.17949 15.2675C7.55949 15.5241 8.03116 15.6525 8.59449 15.6525C9.24116 15.6525 9.76283 15.4858 10.1595 15.1525C10.5562 14.8158 10.8312 14.3641 10.9845 13.7975L11.7345 13.9925C11.5378 14.7125 11.1745 15.2875 10.6445 15.7175C10.1145 16.1441 9.43116 16.3575 8.59449 16.3575ZM15.7527 16.3575C15.036 16.3575 14.431 16.1991 13.9377 15.8825C13.4444 15.5625 13.071 15.1208 12.8177 14.5575C12.5644 13.9941 12.4377 13.3441 12.4377 12.6075C12.4377 11.8708 12.5644 11.2208 12.8177 10.6575C13.071 10.0941 13.4444 9.65412 13.9377 9.33746C14.431 9.01746 15.036 8.85746 15.7527 8.85746C16.5894 8.85746 17.2727 9.07246 17.8027 9.50246C18.3327 9.92912 18.696 10.5025 18.8927 11.2225L18.1427 11.4175C17.9894 10.8475 17.7144 10.3958 17.3177 10.0625C16.921 9.72912 16.3994 9.56246 15.7527 9.56246C15.1894 9.56246 14.721 9.69079 14.3477 9.94746C13.9744 10.2041 13.6927 10.5625 13.5027 11.0225C13.316 11.4791 13.2194 12.0075 13.2127 12.6075C13.2094 13.2075 13.301 13.7358 13.4877 14.1925C13.6777 14.6491 13.961 15.0075 14.3377 15.2675C14.7177 15.5241 15.1894 15.6525 15.7527 15.6525C16.3994 15.6525 16.921 15.4858 17.3177 15.1525C17.7144 14.8158 17.9894 14.3641 18.1427 13.7975L18.8927 13.9925C18.696 14.7125 18.3327 15.2875 17.8027 15.7175C17.2727 16.1441 16.5894 16.3575 15.7527 16.3575Z" fill="white"/>
</svg>
