<svg width="25" height="25" viewBox="0 0 25 25" fill="none" xmlns="http://www.w3.org/2000/svg">
<path d="M9.1377 22.667H15.1377C20.1377 22.667 22.1377 20.667 22.1377 15.667V9.66699C22.1377 4.66699 20.1377 2.66699 15.1377 2.66699H9.1377C4.1377 2.66699 2.1377 4.66699 2.1377 9.66699V15.667C2.1377 20.667 4.1377 22.667 9.1377 22.667Z" stroke="#DFDFDF" stroke-linecap="round" stroke-linejoin="round"/>
<path d="M12.7377 19.167H16.5377C18.0377 19.167 18.6377 18.567 18.6377 17.067V15.267C18.6377 13.767 18.0377 13.167 16.5377 13.167H12.7377C11.2377 13.167 10.6377 13.767 10.6377 15.267V17.067C10.6377 18.567 11.2377 19.167 12.7377 19.167Z" stroke="#DFDFDF" stroke-linecap="round" stroke-linejoin="round"/>
</svg>
