<svg width="24" height="25" viewBox="0 0 24 25" fill="none" xmlns="http://www.w3.org/2000/svg">
<g id="Frame">
<path id="Vector" d="M18 8.07764C19.6569 8.07764 21 6.73449 21 5.07764C21 3.42078 19.6569 2.07764 18 2.07764C16.3431 2.07764 15 3.42078 15 5.07764C15 6.73449 16.3431 8.07764 18 8.07764Z" stroke="#333333" stroke-linecap="round" stroke-linejoin="round"/>
<path id="Vector_2" d="M18 22.0776C19.6569 22.0776 21 20.7345 21 19.0776C21 17.4208 19.6569 16.0776 18 16.0776C16.3431 16.0776 15 17.4208 15 19.0776C15 20.7345 16.3431 22.0776 18 22.0776Z" stroke="#333333" stroke-linecap="round" stroke-linejoin="round"/>
<path id="Vector_3" d="M6 15.0776C7.65685 15.0776 9 13.7345 9 12.0776C9 10.4208 7.65685 9.07764 6 9.07764C4.34315 9.07764 3 10.4208 3 12.0776C3 13.7345 4.34315 15.0776 6 15.0776Z" stroke="#333333" stroke-linecap="round" stroke-linejoin="round"/>
<path id="Vector_4" d="M15.4082 6.58966L8.59424 10.5647M15.4082 17.5657L8.59424 13.5907" stroke="#333333" stroke-linecap="round" stroke-linejoin="round"/>
</g>
</svg>
