<svg width="31" height="30" viewBox="0 0 31 30" fill="none" xmlns="http://www.w3.org/2000/svg">
<g id="Group 1410083661">
<circle id="Ellipse 3659" cx="15.5" cy="14.9999" r="15" fill="url(#paint0_linear_1_8916)"/>
<path id="Vector" d="M14.7593 7.50633C15.0153 6.83114 15.9841 6.83114 16.2409 7.50633L17.8969 12.0935C18.0128 12.3975 18.308 12.5999 18.6376 12.5999H22.7072C23.4592 12.5999 23.7872 13.5358 23.196 13.9942L20.3 16.5998C20.1703 16.6995 20.0755 16.8378 20.0292 16.9947C19.9829 17.1517 19.9876 17.3192 20.0424 17.4734L21.1 21.9557C21.3576 22.6757 20.524 23.2941 19.8936 22.8509L15.9601 20.3549C15.8254 20.2603 15.6647 20.2095 15.5001 20.2095C15.3354 20.2095 15.1748 20.2603 15.0401 20.3549L11.1066 22.8509C10.477 23.2941 9.64258 22.6749 9.90017 21.9557L10.9578 17.4734C11.0126 17.3192 11.0172 17.1517 10.971 16.9947C10.9247 16.8378 10.8299 16.6995 10.7002 16.5998L7.8042 13.9942C7.21221 13.5358 7.54181 12.5999 8.2922 12.5999H12.3617C12.522 12.6004 12.6786 12.5523 12.8109 12.4618C12.9431 12.3714 13.0448 12.243 13.1025 12.0935L14.7585 7.50633H14.7593Z" fill="white"/>
</g>
<defs>
<linearGradient id="paint0_linear_1_8916" x1="15.5" y1="-6.10352e-05" x2="15.5" y2="29.9999" gradientUnits="userSpaceOnUse">
<stop stop-color="#FFC544"/>
<stop offset="1" stop-color="#C18E1E"/>
</linearGradient>
</defs>
</svg>
