<svg width="600" height="62" viewBox="0 0 600 62" fill="none" xmlns="http://www.w3.org/2000/svg">
<g clip-path="url(#clip0_128_13816)">
<path d="M98.9171 67.3735L92.6719 59.4552L97.6469 55.5488L103.892 63.4672L98.9171 67.3735Z" fill="url(#paint0_linear_128_13816)"/>
<path d="M260.188 55.8492L259.754 47.9923L262.356 47.8481L262.789 55.705L260.188 55.8492Z" fill="url(#paint1_linear_128_13816)"/>
<path d="M45.418 14.7032L52.2112 10.7388L53.512 12.9733L46.7188 16.9378L45.418 14.7032Z" fill="url(#paint2_linear_128_13816)"/>
<path d="M386.008 26.7285L389.621 33.7925L387.309 34.9458L383.695 27.9539L386.008 26.7285Z" fill="url(#paint3_linear_128_13816)"/>
<path d="M45.5625 64.2109L51.9944 59.5977L53.512 61.688L47.0801 66.3012L45.5625 64.2109Z" fill="url(#paint4_linear_128_13816)"/>
<path d="M319.016 7.26657L313.74 13.1051L311.789 11.3752L317.065 5.53662L319.016 7.26657Z" fill="url(#paint5_linear_128_13816)"/>
<path d="M212.852 19.5922L216.537 15.916L218.705 19.6642L213.647 21.0338L212.852 19.5922Z" fill="url(#paint6_linear_128_13816)"/>
<path d="M8.47862 39.1265L10.1408 44.1721L5.80469 44.3884L6.88871 39.2706L8.47862 39.1265Z" fill="url(#paint7_linear_128_13816)"/>
<path d="M385.068 44.3169L390.199 45.4702L388.176 49.2905L384.273 45.7585L385.068 44.3169Z" fill="url(#paint8_linear_128_13816)"/>
<path d="M251.444 7.3388C248.119 8.34794 244.867 7.19464 242.988 4.88804C244.434 5.39261 245.951 4.88804 246.891 3.87891C248.119 4.81596 249.998 5.60886 252.383 5.17637C252.166 5.96926 251.877 6.69007 251.444 7.3388Z" fill="url(#paint9_linear_128_13816)"/>
<path d="M146.203 40.5156C149.889 41.0202 152.274 43.3268 153.358 45.4892C152.635 45.2009 151.84 45.273 151.19 45.4892C149.889 44.0476 147.287 42.606 143.891 43.3268C144.469 42.1735 145.264 41.2364 146.203 40.5156Z" fill="url(#paint10_linear_128_13816)"/>
<path d="M300.588 2.58124C298.637 5.75281 295.529 6.97819 293.145 7.12236C293.65 6.54571 294.012 5.89698 294.084 5.17617C295.963 4.52743 298.348 2.79748 298.998 -0.590332C299.793 0.274643 300.371 1.42794 300.588 2.58124Z" fill="url(#paint11_linear_128_13816)"/>
<path d="M239.063 49.9059C233.458 48.5642 230.095 44.5389 228.75 41.0728C229.871 41.6318 230.992 41.7436 232.113 41.52C233.907 43.9799 237.718 46.6634 242.987 45.9925C242.09 47.5579 240.745 48.8996 239.063 49.9059Z" fill="url(#paint12_linear_128_13816)"/>
<path d="M353.629 35.5225C351.533 38.622 348.354 39.7032 345.969 39.7032C346.547 39.1265 346.836 38.4778 346.981 37.8291C348.86 37.3245 351.389 35.6666 352.184 32.2788C352.906 33.2159 353.412 34.3692 353.629 35.5225Z" fill="url(#paint13_linear_128_13816)"/>
<path d="M140.061 6.43802C139.844 2.6898 141.651 -0.049283 143.53 -1.56299C143.385 -0.770095 143.602 -0.0492846 143.891 0.527365C142.735 2.11315 141.795 4.92432 143.168 8.09589C142.084 7.80757 140.928 7.23092 140.061 6.43802Z" fill="url(#paint14_linear_128_13816)"/>
<path d="M189.713 47.0356C186.389 48.0447 183.137 46.8914 181.258 44.5848C182.703 45.0894 184.221 44.5848 185.16 43.5757C186.389 44.5127 188.268 45.3056 190.653 44.8731C190.436 45.666 190.147 46.3868 189.713 47.0356Z" fill="url(#paint15_linear_128_13816)"/>
</g>
<defs>
<linearGradient id="paint0_linear_128_13816" x1="95.152" y1="57.7158" x2="101.8" y2="65.7567" gradientUnits="userSpaceOnUse">
<stop offset="1.1e-07" stop-color="#FF3C9E"/>
<stop offset="0.1688" stop-color="#F83693"/>
<stop offset="0.4621" stop-color="#E62677"/>
<stop offset="0.8425" stop-color="#C90C49"/>
<stop offset="1" stop-color="#BB0034"/>
</linearGradient>
<linearGradient id="paint1_linear_128_13816" x1="263.628" y1="49.7572" x2="259.605" y2="53.3088" gradientUnits="userSpaceOnUse">
<stop stop-color="#C62DFF"/>
<stop offset="0.2058" stop-color="#CD38FA"/>
<stop offset="0.5633" stop-color="#E154ED"/>
<stop offset="1" stop-color="#FF7FD9"/>
</linearGradient>
<linearGradient id="paint2_linear_128_13816" x1="52.3852" y1="15.0029" x2="47.392" y2="13.0255" gradientUnits="userSpaceOnUse">
<stop stop-color="#C62DFF"/>
<stop offset="0.2058" stop-color="#CD38FA"/>
<stop offset="0.5633" stop-color="#E154ED"/>
<stop offset="1" stop-color="#FF7FD9"/>
</linearGradient>
<linearGradient id="paint3_linear_128_13816" x1="385.341" y1="33.6944" x2="387.585" y2="28.8253" gradientUnits="userSpaceOnUse">
<stop stop-color="#C62DFF"/>
<stop offset="0.2058" stop-color="#CD38FA"/>
<stop offset="0.5633" stop-color="#E154ED"/>
<stop offset="1" stop-color="#FF7FD9"/>
</linearGradient>
<linearGradient id="paint4_linear_128_13816" x1="52.5621" y1="63.7673" x2="47.3884" y2="62.3236" gradientUnits="userSpaceOnUse">
<stop offset="3.4e-07" stop-color="#FFF069"/>
<stop offset="0.0996618" stop-color="#FFE570"/>
<stop offset="0.2729" stop-color="#FFC983"/>
<stop offset="0.4991" stop-color="#FF9BA2"/>
<stop offset="0.7663" stop-color="#FF5BCC"/>
<stop offset="1" stop-color="#FF1EF5"/>
</linearGradient>
<linearGradient id="paint5_linear_128_13816" x1="312.268" y1="9.11171" x2="317.631" y2="9.43386" gradientUnits="userSpaceOnUse">
<stop offset="3.4e-07" stop-color="#FFF069"/>
<stop offset="0.0996618" stop-color="#FFE570"/>
<stop offset="0.2729" stop-color="#FFC983"/>
<stop offset="0.4991" stop-color="#FF9BA2"/>
<stop offset="0.7663" stop-color="#FF5BCC"/>
<stop offset="1" stop-color="#FF1EF5"/>
</linearGradient>
<linearGradient id="paint6_linear_128_13816" x1="212.825" y1="18.447" x2="218.729" y2="18.447" gradientUnits="userSpaceOnUse">
<stop offset="1.1e-07" stop-color="#FFD243"/>
<stop offset="0.2139" stop-color="#FEC73A"/>
<stop offset="0.5855" stop-color="#FBAB21"/>
<stop offset="1" stop-color="#F78400"/>
</linearGradient>
<linearGradient id="paint7_linear_128_13816" x1="9.52707" y1="39.6926" x2="6.83968" y2="44.9363" gradientUnits="userSpaceOnUse">
<stop offset="1.1e-07" stop-color="#00DEFF"/>
<stop offset="0.1417" stop-color="#00D6F4"/>
<stop offset="0.3879" stop-color="#00C2D8"/>
<stop offset="0.7069" stop-color="#00A1AA"/>
<stop offset="1" stop-color="#007F7A"/>
</linearGradient>
<linearGradient id="paint8_linear_128_13816" x1="386.041" y1="43.692" x2="389.167" y2="48.6878" gradientUnits="userSpaceOnUse">
<stop offset="1.1e-07" stop-color="#00DEFF"/>
<stop offset="0.1417" stop-color="#00D6F4"/>
<stop offset="0.3879" stop-color="#00C2D8"/>
<stop offset="0.7069" stop-color="#00A1AA"/>
<stop offset="1" stop-color="#007F7A"/>
</linearGradient>
<linearGradient id="paint9_linear_128_13816" x1="244.7" y1="5.2241" x2="254.927" y2="7.20292" gradientUnits="userSpaceOnUse">
<stop offset="1.1e-07" stop-color="#3CE6FF"/>
<stop offset="0.1369" stop-color="#38DBFF"/>
<stop offset="0.375" stop-color="#2DBFFF"/>
<stop offset="0.6856" stop-color="#1B91FF"/>
<stop offset="1" stop-color="#075BFF"/>
</linearGradient>
<linearGradient id="paint10_linear_128_13816" x1="143.455" y1="40.0133" x2="151.535" y2="45.7996" gradientUnits="userSpaceOnUse">
<stop offset="1.1e-07" stop-color="#FF3C9E"/>
<stop offset="0.1688" stop-color="#F83693"/>
<stop offset="0.4621" stop-color="#E62677"/>
<stop offset="0.8425" stop-color="#C90C49"/>
<stop offset="1" stop-color="#BB0034"/>
</linearGradient>
<linearGradient id="paint11_linear_128_13816" x1="302.173" y1="0.256366" x2="293.599" y2="5.28583" gradientUnits="userSpaceOnUse">
<stop stop-color="#C62DFF"/>
<stop offset="0.2058" stop-color="#CD38FA"/>
<stop offset="0.5633" stop-color="#E154ED"/>
<stop offset="1" stop-color="#FF7FD9"/>
</linearGradient>
<linearGradient id="paint12_linear_128_13816" x1="243.276" y1="51.0417" x2="231.765" y2="40.7934" gradientUnits="userSpaceOnUse">
<stop offset="3.4e-07" stop-color="#0005BB"/>
<stop offset="0.1183" stop-color="#0610BF"/>
<stop offset="0.324" stop-color="#152CCB"/>
<stop offset="0.5926" stop-color="#2D5ADE"/>
<stop offset="0.9104" stop-color="#4F9AF7"/>
<stop offset="1" stop-color="#59ADFF"/>
</linearGradient>
<linearGradient id="paint13_linear_128_13816" x1="355.307" y1="33.2894" x2="346.5" y2="37.9002" gradientUnits="userSpaceOnUse">
<stop stop-color="#60008E"/>
<stop offset="0.2251" stop-color="#6B0095"/>
<stop offset="0.6147" stop-color="#8700A6"/>
<stop offset="1" stop-color="#A900BB"/>
</linearGradient>
<linearGradient id="paint14_linear_128_13816" x1="141.716" y1="6.05812" x2="142.672" y2="0.533193" gradientUnits="userSpaceOnUse">
<stop offset="1.1e-07" stop-color="#FFD243"/>
<stop offset="0.2139" stop-color="#FEC73A"/>
<stop offset="0.5855" stop-color="#FBAB21"/>
<stop offset="1" stop-color="#F78400"/>
</linearGradient>
<linearGradient id="paint15_linear_128_13816" x1="182.969" y1="44.9209" x2="193.196" y2="46.8997" gradientUnits="userSpaceOnUse">
<stop offset="1.1e-07" stop-color="#FF3C9E"/>
<stop offset="0.1688" stop-color="#F83693"/>
<stop offset="0.4621" stop-color="#E62677"/>
<stop offset="0.8425" stop-color="#C90C49"/>
<stop offset="1" stop-color="#BB0034"/>
</linearGradient>
<clipPath id="clip0_128_13816">
<rect width="599" height="61" fill="white" transform="translate(0.929688 0.461426)"/>
</clipPath>
</defs>
</svg>
