<svg width="48" height="48" viewBox="0 0 48 48" fill="none" xmlns="http://www.w3.org/2000/svg">
<g id="Group 1410083722">
<g id="Group 1410083716">
<circle id="Ellipse 3667" cx="24" cy="24" r="24" fill="white"/>
<g id="Group 1410083791">
<path id="Vector" d="M24.013 24.0098V36.0098M24.013 24.0098L20.6797 26.6764M24.013 24.0098L27.3464 26.6764" stroke="#222222" stroke-linecap="round" stroke-linejoin="round"/>
<path id="Vector_2" d="M14.7175 20.1662C13.4564 20.4835 12.3547 21.2504 11.6192 22.3228C10.8837 23.3951 10.5651 24.6992 10.7232 25.9899C10.8814 27.2806 11.5054 28.4691 12.4781 29.3322C13.4508 30.1952 14.7051 30.6734 16.0055 30.6768H17.3388" stroke="#222222" stroke-linecap="round" stroke-linejoin="round"/>
<path id="Vector_3" d="M29.1114 17.5275C28.6557 15.723 27.5309 14.1592 25.9649 13.1532C24.399 12.1472 22.5091 11.7743 20.6784 12.1101C18.8478 12.4458 17.2132 13.4651 16.1062 14.9613C14.9992 16.4575 14.5025 18.3187 14.7168 20.1675C14.7168 20.1675 14.9208 21.3435 15.3381 22.0102" stroke="#222222" stroke-linecap="round" stroke-linejoin="round"/>
<path id="Vector_4" d="M30.6732 30.6766C31.6146 30.676 32.5451 30.4759 33.4037 30.0897C34.2622 29.7035 35.0292 29.1399 35.6541 28.4359C36.2791 27.7319 36.7479 26.9035 37.0297 26.0053C37.3114 25.1071 37.3998 24.1594 37.2889 23.2245C37.178 22.2897 36.8703 21.3889 36.3862 20.5816C35.9021 19.7742 35.2525 19.0785 34.4802 18.5403C33.7078 18.0021 32.8302 17.6336 31.9052 17.4589C30.9801 17.2843 30.0286 17.3076 29.1132 17.5273L27.3398 18.0099" stroke="#222222" stroke-linecap="round" stroke-linejoin="round"/>
</g>
</g>
</g>
</svg>
