<svg width="24" height="24" viewBox="0 0 24 24" fill="none" xmlns="http://www.w3.org/2000/svg">
<circle cx="12" cy="12" r="12" fill="#ECECEC"/>
<path d="M12.0026 12.0051V18.0051M12.0026 12.0051L10.3359 13.3385M12.0026 12.0051L13.6693 13.3385" stroke="#222222" stroke-linecap="round" stroke-linejoin="round"/>
<path d="M7.35679 10.0833C6.72626 10.2419 6.17537 10.6254 5.80762 11.1615C5.43987 11.6977 5.28058 12.3498 5.35966 12.9951C5.43874 13.6405 5.75076 14.2347 6.2371 14.6663C6.72343 15.0978 7.35061 15.3369 8.00079 15.3386H8.66745" stroke="#222222" stroke-linecap="round" stroke-linejoin="round"/>
<path d="M14.5538 8.76377C14.3259 7.86148 13.7635 7.0796 12.9805 6.57661C12.1975 6.07362 11.2526 5.88716 10.3373 6.05504C9.42192 6.22291 8.60466 6.73256 8.05114 7.48066C7.49762 8.22876 7.24927 9.15935 7.35643 10.0838C7.35643 10.0838 7.45843 10.6718 7.6671 11.0051" stroke="#222222" stroke-linecap="round" stroke-linejoin="round"/>
<path d="M15.3346 15.3383C15.8053 15.338 16.2706 15.238 16.6999 15.0449C17.1291 14.8518 17.5126 14.5699 17.8251 14.2179C18.1376 13.866 18.372 13.4518 18.5129 13.0027C18.6538 12.5535 18.6979 12.0797 18.6425 11.6123C18.587 11.1448 18.4332 10.6945 18.1912 10.2908C17.9491 9.88711 17.6243 9.53926 17.2381 9.27015C16.8519 9.00105 16.4132 8.81678 15.9506 8.72947C15.4881 8.64217 15.0123 8.65381 14.5546 8.76363L13.668 9.00496" stroke="#222222" stroke-linecap="round" stroke-linejoin="round"/>
</svg>
