<svg width="38" height="38" viewBox="0 0 38 38" fill="none" xmlns="http://www.w3.org/2000/svg">
<circle cx="19.1084" cy="18.6741" r="18.1741" fill="#FFF4DE" stroke="#C18E1E"/>
<path d="M19.0843 29.4134C20.2921 29.4134 21.2711 28.836 21.2711 28.1237C21.2711 27.4115 20.2921 26.8341 19.0843 26.8341C17.8766 26.8341 16.8976 27.4115 16.8976 28.1237C16.8976 28.836 17.8766 29.4134 19.0843 29.4134Z" fill="#424242"/>
<path d="M19.0842 7.70862C15.2714 7.70862 12.1785 10.5429 12.1785 14.0374C12.1785 14.949 12.4534 15.9239 12.8567 16.7831C13.4229 17.9913 14.0397 18.8848 14.2205 19.214C14.7234 20.1292 14.651 21.0933 14.7903 21.6974C15.0526 22.8261 15.8375 23.2348 19.0824 23.2348C22.3273 23.2348 23.0255 22.846 23.3167 21.8059C23.5156 21.0987 23.3221 20.3264 23.8231 19.413C24.004 19.0838 24.7402 17.9931 25.3081 16.7831C25.7115 15.9239 25.9864 14.949 25.9864 14.0374C25.99 10.5429 22.8971 7.70862 19.0842 7.70862Z" fill="url(#paint0_linear_160_28)"/>
<path d="M19.0842 23.3706C21.2759 23.3706 23.0526 23.0094 23.0526 22.5639C23.0526 22.1184 21.2759 21.7572 19.0842 21.7572C16.8925 21.7572 15.1158 22.1184 15.1158 22.5639C15.1158 23.0094 16.8925 23.3706 19.0842 23.3706Z" fill="#B26500"/>
<path d="M19.0842 23.3706C21.2759 23.3706 23.0526 23.0094 23.0526 22.5639C23.0526 22.1184 21.2759 21.7572 19.0842 21.7572C16.8925 21.7572 15.1158 22.1184 15.1158 22.5639C15.1158 23.0094 16.8925 23.3706 19.0842 23.3706Z" fill="#B26500"/>
<path d="M19.0843 22.9364C20.6816 22.9364 21.9765 22.7695 21.9765 22.5638C21.9765 22.358 20.6816 22.1912 19.0843 22.1912C17.487 22.1912 16.1921 22.358 16.1921 22.5638C16.1921 22.7695 17.487 22.9364 19.0843 22.9364Z" fill="#FFA000"/>
<path d="M17.149 17.2533C17.0368 17.5354 16.7456 18.116 16.8976 18.3765C17.2503 18.9824 18.0913 19.1995 18.0913 19.7566C18.0913 20.6067 17.4728 23.3614 17.4728 23.3614M20.8985 17.152C20.8985 17.152 21.3037 18.0202 21.1318 18.4091C21.0034 18.6984 20.2311 19.1651 20.1316 19.2429C19.6704 19.6046 20.2835 23.3632 20.2835 23.3632" stroke="#B26500" stroke-width="0.361748" stroke-miterlimit="10"/>
<path d="M17.149 17.2533C17.7712 16.0234 18.0913 13.2162 17.3009 13.3591C15.9679 13.5997 17.6102 18.2119 18.4187 17.682C19.2272 17.152 20.2293 13.3681 18.9993 13.3537C17.7694 13.3392 19.0825 18.1758 19.9182 17.6386C20.5783 17.2135 22.1899 13.3591 20.8659 13.3591C19.7391 13.3591 20.9003 17.152 20.9003 17.152" stroke="white" stroke-width="0.361748" stroke-miterlimit="10"/>
<path d="M23.0436 22.7319C23.0436 22.7319 22.0018 23.2348 19.0843 23.2348C16.1668 23.2348 15.125 22.7319 15.125 22.7319C15.125 22.7319 15.0599 23.6616 15.2751 24.0831C15.5338 24.5895 15.7327 24.765 15.7327 24.765L15.8412 25.2804L15.7978 25.4161C15.7418 25.5934 15.7815 25.7887 15.9064 25.928L16.0004 26.0329L16.1053 26.5285L16.0691 26.628C16.0004 26.8179 16.0474 27.0295 16.1885 27.1742L16.2572 27.2447L16.3423 27.6499C16.3423 27.6499 16.7727 28.5687 19.0843 28.5687C21.3959 28.5687 21.8264 27.6499 21.8264 27.6499L21.8336 27.6155L21.8806 27.5685C21.9747 27.4763 22.0054 27.3388 21.9602 27.2158L21.9331 27.1453L22.0452 26.6099L22.2424 26.4019C22.34 26.2988 22.3617 26.1468 22.2984 26.0202L22.208 25.8412L22.3219 25.304L22.3943 25.2479C22.501 25.1303 22.5028 24.9531 22.4558 24.8319C22.4196 24.736 22.4486 24.6275 22.5227 24.557C22.6367 24.4484 22.7832 24.2838 22.8917 24.0794C23.1142 23.6652 23.0436 22.7319 23.0436 22.7319Z" fill="#82AEC0"/>
<path d="M15.7325 24.7651L15.8302 25.2842C16.8829 25.2788 18.2883 25.3313 20.9851 24.9026C21.4717 24.7923 22.0559 24.5734 21.4102 24.6638C21.4102 24.662 18.934 24.899 15.7325 24.7651ZM16.0943 26.5323C17.2591 26.5124 19.6394 26.3966 22.197 25.8413L22.3109 25.3041C19.6358 25.9119 17.1198 26.0204 15.9894 26.0349L16.0943 26.5323ZM22.0342 26.6082C19.6665 27.1219 17.4508 27.254 16.2517 27.2829L16.3294 27.6519C16.3294 27.6519 16.3674 28.7968 19.0715 28.7968C21.7755 28.7968 21.8135 27.6519 21.8135 27.6519C21.8135 27.6519 20.6595 27.9811 19.2397 27.8201C19.2247 27.8202 19.2099 27.8174 19.196 27.8118C19.1821 27.8061 19.1695 27.7978 19.1588 27.7874C19.1373 27.7662 19.1251 27.7373 19.1248 27.707C19.1246 27.6768 19.1364 27.6477 19.1576 27.6262C19.1788 27.6047 19.2077 27.5924 19.2379 27.5922C20.0862 27.48 21.0991 27.3136 21.922 27.1436L22.0342 26.6082Z" fill="#2F7889"/>
<path d="M15.1376 22.7319C15.1376 22.7319 16.306 23.2348 19.0734 23.2348C21.8408 23.2348 23.0309 22.7319 23.0309 22.7319" stroke="#82AEC0" stroke-width="0.722953" stroke-miterlimit="10" stroke-linecap="round"/>
<path opacity="0.23" d="M16.5302 8.85177C17.2375 8.67813 17.9772 8.76495 18.4837 9.37992C18.6266 9.55356 18.7369 9.75976 18.7622 9.98404C18.8129 10.4163 18.5452 10.8251 18.2268 11.1254C17.3188 11.9827 16.0292 12.3987 15.4432 13.5816C15.3057 13.8584 15.1972 14.1568 14.9874 14.3829C14.7776 14.609 14.4285 14.7465 14.1554 14.6018C14.0107 14.5258 13.9112 14.3829 13.8298 14.24C13.3161 13.3248 13.3541 12.1581 13.8063 11.2104C14.3037 10.1722 15.3943 9.13032 16.5302 8.85177Z" fill="#FFFF8D"/>
<path d="M15.9099 23.6128C15.7507 23.5404 15.814 23.3017 15.9877 23.3143C16.5701 23.3596 17.5613 23.4156 18.8726 23.4156C20.2545 23.4156 21.4699 23.3125 22.179 23.2366C22.3544 23.2185 22.4213 23.459 22.2604 23.5332C21.7141 23.79 20.7139 24.0831 18.9992 24.0831C17.3261 24.0831 16.4037 23.8353 15.9099 23.6128Z" fill="#F59900"/>
<path d="M16.9028 25.4397C16.7816 25.4832 16.6568 25.5428 16.5953 25.655C16.5736 25.6966 16.5609 25.7436 16.57 25.7906C16.5844 25.8594 16.6477 25.9082 16.7111 25.939C16.8377 26.0005 16.9806 26.0167 17.1198 26.0185C17.4074 26.0222 17.6932 25.9679 17.9772 25.9136C18.0622 25.8974 18.149 25.8811 18.225 25.8395C18.3009 25.7979 18.366 25.7273 18.3787 25.6423C18.3968 25.5284 18.3154 25.418 18.2159 25.3638C17.8723 25.1739 17.2501 25.3149 16.9028 25.4397ZM17.1723 26.6317C17.0511 26.6751 16.9263 26.7348 16.8648 26.8469C16.8431 26.8885 16.8304 26.9356 16.8395 26.9826C16.8539 27.0513 16.9172 27.1002 16.9806 27.1309C17.1072 27.1924 17.2501 27.2087 17.3893 27.2105C17.6769 27.2141 17.9627 27.1599 18.2467 27.1056C18.3317 27.0893 18.4185 27.073 18.4945 27.0314C18.5704 26.9898 18.6355 26.9193 18.6482 26.8343C18.6663 26.7203 18.5849 26.61 18.4854 26.5557C18.1418 26.3676 17.5177 26.5087 17.1723 26.6317Z" fill="#94D1E0"/>
<path d="M16.5539 22.2147C16.7185 22.231 16.8921 22.2165 17.0314 22.1279C17.1707 22.0393 17.2593 21.8584 17.2032 21.7029C17.1743 21.6215 17.111 21.5564 17.0495 21.4949C16.9138 21.361 16.7782 21.2272 16.6443 21.0933C16.4942 20.9432 16.3441 20.7949 16.1813 20.6592C15.9299 20.4494 15.5916 20.2523 15.2606 20.406C14.9785 20.5362 14.9115 20.7931 15.0363 21.0626C15.3022 21.6287 15.9208 22.1496 16.5539 22.2147Z" fill="#F6CA4E"/>
<defs>
<linearGradient id="paint0_linear_160_28" x1="19.0824" y1="7.70862" x2="19.0824" y2="23.2348" gradientUnits="userSpaceOnUse">
<stop stop-color="#FFC544"/>
<stop offset="1" stop-color="#C18E1E"/>
</linearGradient>
</defs>
</svg>
