<svg width="21" height="20" viewBox="0 0 21 20" fill="none" xmlns="http://www.w3.org/2000/svg">
<g id="Frame 1410085553">
<path id="Vector" d="M9.34353 2.50639C9.59952 1.8312 10.5683 1.8312 10.8251 2.50639L12.4811 7.09352C12.5971 7.39752 12.8923 7.59992 13.2219 7.59992H17.2914C18.0434 7.59992 18.3714 8.5359 17.7802 8.99429L14.8842 11.5999C14.7545 11.6996 14.6597 11.8378 14.6134 11.9948C14.5672 12.1517 14.5718 12.3193 14.6266 12.4734L15.6842 16.9558C15.9418 17.6758 15.1082 18.2942 14.4779 17.851L10.5443 15.355C10.4096 15.2603 10.249 15.2095 10.0843 15.2095C9.91967 15.2095 9.75903 15.2603 9.62432 15.355L5.69078 17.851C5.06119 18.2942 4.2268 17.675 4.4844 16.9558L5.54198 12.4734C5.59685 12.3193 5.60147 12.1517 5.55519 11.9948C5.50891 11.8378 5.41411 11.6996 5.28439 11.5999L2.38843 8.99429C1.79644 8.5359 2.12604 7.59992 2.87642 7.59992H6.94596C7.10619 7.60045 7.26281 7.55232 7.39509 7.4619C7.52737 7.37147 7.62908 7.24301 7.68675 7.09352L9.34273 2.50639H9.34353Z" stroke="#DFA935" stroke-linecap="round" stroke-linejoin="round"/>
</g>
</svg>
