<svg width="48" height="49" viewBox="0 0 48 49" fill="none" xmlns="http://www.w3.org/2000/svg">
<g id="Group 1410083735">
<circle id="Ellipse 3666" cx="24" cy="24.0776" r="24" fill="#797CCC"/>
<path id="Vector" d="M22.3047 12.1398C19.4547 12.6273 17.2609 14.6007 16.4688 17.3898C16.2813 18.0413 16.2531 18.3976 16.225 20.0898L16.2016 21.7585L15.8828 21.782C15.2969 21.8242 14.6406 22.2507 14.3828 22.757C14.1438 23.2257 14.1484 23.0851 14.1484 28.9069C14.1484 32.7413 14.1625 34.4054 14.2 34.5788C14.3406 35.2397 14.8609 35.8069 15.4984 36.0038C15.8266 36.1022 30.939 36.1022 31.2672 36.0038C31.9047 35.8069 32.425 35.2397 32.5656 34.5788C32.6031 34.4054 32.6172 32.7413 32.6172 28.9069C32.6172 23.071 32.6218 23.2304 32.3781 22.7476C32.1297 22.2648 31.464 21.8195 30.9203 21.782L30.6484 21.7632V20.1788C30.6484 18.8242 30.6343 18.5195 30.5593 18.0601C30.114 15.4539 28.3234 13.3492 25.7734 12.4304C25.4687 12.3226 25.014 12.2101 24.5547 12.1351C24.0625 12.0554 22.7875 12.0601 22.3047 12.1398ZM24.4375 15.3742C24.789 15.4726 25.4125 15.7585 25.7125 15.9648C26.2844 16.3585 26.7672 16.9351 27.0812 17.6101C27.4187 18.3273 27.4281 18.3788 27.4469 20.1648L27.4703 21.7726H23.4344H19.3984V20.5398C19.3984 18.707 19.4781 18.2101 19.8953 17.4132C20.4625 16.3351 21.4328 15.6132 22.6797 15.3273C23.064 15.2382 24.039 15.2664 24.4375 15.3742ZM24.025 26.3195C24.7797 26.5773 25.2625 27.3132 25.1969 28.1054C25.1594 28.5648 25 28.8788 24.625 29.2491L24.3203 29.5491V30.8288C24.3203 32.1554 24.2969 32.371 24.1187 32.6194C23.9969 32.7929 23.6969 32.9288 23.425 32.9288C23.1344 32.9288 22.8203 32.7273 22.6844 32.4507C22.5906 32.2538 22.5859 32.1741 22.5859 30.9694C22.5859 30.271 22.5672 29.6476 22.5437 29.5866C22.5156 29.521 22.3891 29.371 22.2625 29.2491C22.1172 29.1132 21.9625 28.9023 21.8687 28.7148C21.7328 28.4335 21.7187 28.3679 21.7187 27.9601C21.7187 27.5757 21.7375 27.4773 21.8406 27.257C22.0094 26.9007 22.2953 26.596 22.6234 26.4226C23.0828 26.1788 23.514 26.146 24.025 26.3195Z" fill="white"/>
</g>
</svg>
