<svg width="21" height="21" viewBox="0 0 21 21" fill="none" xmlns="http://www.w3.org/2000/svg">
<circle cx="10.5193" cy="10.7509" r="10.2055" transform="rotate(-90 10.5193 10.7509)" fill="black"/>
<g clip-path="url(#clip0_7959_6801)">
<rect width="8.85305" height="8.85305" transform="translate(6.21558 6.44745)" fill="black"/>
<path d="M6.95337 8.66075C6.95337 7.96505 6.95337 7.61757 7.16953 7.4014C7.38569 7.18524 7.73318 7.18524 8.42888 7.18524C9.12458 7.18524 9.47206 7.18524 9.68822 7.4014C9.90438 7.61757 9.90438 7.96505 9.90438 8.66075V13.0873C9.90438 13.783 9.90438 14.1305 9.68822 14.3466C9.47206 14.5628 9.12458 14.5628 8.42888 14.5628C7.73318 14.5628 7.38569 14.5628 7.16953 14.3466C6.95337 14.1305 6.95337 13.783 6.95337 13.0873V8.66075ZM11.3799 8.66075C11.3799 7.96505 11.3799 7.61757 11.5961 7.4014C11.8122 7.18524 12.1597 7.18524 12.8554 7.18524C13.5511 7.18524 13.8986 7.18524 14.1147 7.4014C14.3309 7.61757 14.3309 7.96505 14.3309 8.66075V13.0873C14.3309 13.783 14.3309 14.1305 14.1147 14.3466C13.8986 14.5628 13.5511 14.5628 12.8554 14.5628C12.1597 14.5628 11.8122 14.5628 11.5961 14.3466C11.3799 14.1305 11.3799 13.783 11.3799 13.0873V8.66075Z" fill="white"/>
</g>
<defs>
<clipPath id="clip0_7959_6801">
<rect width="8.85305" height="8.85305" fill="white" transform="translate(6.21558 6.44745)"/>
</clipPath>
</defs>
</svg>
