<svg width="24" height="24" viewBox="0 0 24 24" fill="none" xmlns="http://www.w3.org/2000/svg">
<path d="M6.54576 12.5625C13.5604 12.5625 10.9636 12.5625 17.4542 12.5625C17.9213 12.5625 18.3131 12.1783 18.3131 11.7037C18.3131 11.2291 17.9213 10.8448 17.4542 10.8448C10.9636 10.8448 13.5604 10.8448 6.54576 10.8448C6.07868 10.8448 5.68694 11.2291 5.68694 11.7037C5.68694 12.1783 6.07868 12.5625 6.54576 12.5625Z" fill="#1A0F91"/>
<path d="M11.1411 6.24932C11.1411 13.2639 11.1411 10.6672 11.1411 17.1578C11.1411 17.6249 11.5253 18.0166 11.9999 18.0166C12.4746 18.0166 12.8588 17.6249 12.8588 17.1578C12.8588 10.6672 12.8588 13.2639 12.8588 6.24932C12.8588 5.78224 12.4746 5.3905 11.9999 5.3905C11.5253 5.3905 11.1411 5.78224 11.1411 6.24932Z" fill="#1A0F91"/>
</svg>
