<svg width="27" height="27" viewBox="0 0 27 27" fill="none" xmlns="http://www.w3.org/2000/svg">
<g id="fi_1366819" clip-path="url(#clip0_474_5045)">
<g id="Group">
<path id="Vector" d="M10.673 16.7174L9.75602 19.9269C9.67896 20.1961 9.72433 20.4853 9.87945 20.718C10.0564 20.9834 10.3542 21.1428 10.673 21.1428C10.9921 21.1428 11.29 20.9834 11.4669 20.718C11.622 20.4853 11.6671 20.1961 11.5903 19.9269L10.673 16.7174Z" fill="#FBCE6B"/>
<path id="Vector_2" d="M14.6396 4.51016L17.2683 2.45231C17.488 2.27945 17.6209 2.0189 17.6318 1.73958C17.6452 1.42073 17.4982 1.11607 17.2399 0.928253C16.9819 0.740438 16.6468 0.694308 16.3475 0.805324C16.0851 0.902653 15.8788 1.10998 15.7828 1.37282L14.6396 4.51016Z" fill="#FBCE6B"/>
<path id="Vector_3" d="M6.70688 4.51016L5.56225 1.37434C5.46619 1.1115 5.25962 0.904173 4.99754 0.806844C4.6982 0.695828 4.36312 0.742211 4.10485 0.930026C3.84682 1.11784 3.69982 1.42225 3.71325 1.74135C3.72415 2.02067 3.85696 2.28097 4.07646 2.45409L6.70688 4.51016Z" fill="#FBCE6B"/>
<path id="Vector_4" d="M4.2552 12.0544L0.919398 12.1743C0.639577 12.1847 0.378259 12.3175 0.205145 12.5378C0.00769877 12.7879 -0.0518646 13.1205 0.0467317 13.4236C0.145328 13.727 0.388904 13.961 0.695845 14.0474C0.965274 14.1227 1.25422 14.0763 1.48639 13.9202L4.2552 12.0544Z" fill="#FBCE6B"/>
<path id="Vector_5" d="M25.7266 15.6792C25.5983 15.6792 25.4746 15.6318 25.3793 15.5458L23.6824 14.0182C21.5014 12.0481 18.7561 10.8132 15.835 10.4883H14.8257C14.5391 10.4883 14.3066 10.2561 14.3066 9.9692C14.3066 9.68254 14.5391 9.45011 14.8257 9.45011H15.8639C15.8832 9.45011 15.9022 9.45138 15.9212 9.45341C19.0687 9.7971 22.0276 11.1245 24.3772 13.247L26.0746 14.7746C26.2343 14.9183 26.2888 15.1459 26.2114 15.3464C26.1344 15.5471 25.9415 15.6794 25.7266 15.6792Z" fill="#FBCE6B"/>
<path id="Vector_6" d="M25.7268 21.9082C25.5891 21.9082 25.4571 21.8537 25.3598 21.7562L22.8495 19.2459C20.781 17.1738 18.347 15.502 15.6705 14.3145L14.0818 13.5511C13.8359 13.4201 13.7373 13.1185 13.8582 12.8675C13.9794 12.6166 14.2767 12.5061 14.5322 12.6166L16.1067 13.3739C18.8935 14.6121 21.4276 16.3544 23.5815 18.5131L26.0918 21.0234C26.2393 21.1717 26.2834 21.394 26.2035 21.5871C26.1239 21.7805 25.9359 21.907 25.7268 21.9082Z" fill="#FBCE6B"/>
</g>
<path id="Vector_7" d="M20.0167 14.1219C19.879 14.1219 19.747 14.0674 19.6496 13.9699L19.1306 13.4508C18.9339 13.2472 18.9367 12.9233 19.1369 12.7231C19.3371 12.5231 19.6611 12.5201 19.8646 12.717L20.3837 13.2361C20.5322 13.3844 20.5766 13.6077 20.4962 13.8016C20.4159 13.9955 20.2268 14.1219 20.0167 14.1219Z" fill="#FBDF93"/>
<path id="Vector_8" d="M23.65 16.7174C23.5123 16.7174 23.3803 16.6629 23.2829 16.5653L22.7639 16.0462C22.5672 15.8427 22.57 15.5188 22.7702 15.3185C22.9704 15.1185 23.2944 15.1155 23.4979 15.3124L24.017 15.8315C24.1655 15.9798 24.2099 16.2031 24.1295 16.397C24.0492 16.5909 23.8601 16.7174 23.65 16.7174Z" fill="#FBDF93"/>
<path id="Vector_9" d="M21.7883 22.7388C21.6395 22.7388 21.4981 22.675 21.3995 22.5635L20.666 21.7329C20.4764 21.5179 20.4967 21.1897 20.7119 20.9999C20.9268 20.8103 21.255 20.8305 21.4446 21.0457L22.1781 21.8761C22.3132 22.0292 22.3462 22.2471 22.2623 22.4332C22.1787 22.6192 21.9934 22.7388 21.7893 22.7388H21.7883Z" fill="#FBDF93"/>
<path id="Vector_10" d="M18.9786 18.7937C18.8409 18.7937 18.7089 18.7392 18.6116 18.6417L18.0925 18.1226C17.8958 17.919 17.8986 17.5951 18.0988 17.3949C18.299 17.1949 18.623 17.1919 18.8265 17.3888L19.3456 17.9079C19.4941 18.0562 19.5385 18.2795 19.4581 18.4734C19.3778 18.6673 19.1887 18.7937 18.9786 18.7937Z" fill="#FBDF93"/>
<path id="Vector_11" d="M20.5356 25.5419C20.3321 25.5421 20.1471 25.4233 20.0629 25.2377L19.7514 24.5516C18.4719 21.7313 16.6784 19.1742 14.4624 17.0109C14.4229 16.9724 14.3899 16.928 14.3643 16.8793L13.3262 14.8805C13.1939 14.6258 13.2932 14.3123 13.5477 14.1802C13.8024 14.0479 14.116 14.1473 14.248 14.4018L15.2477 16.327C17.5283 18.5676 19.3755 21.2102 20.6961 24.1217L21.0076 24.8081C21.0643 24.9336 21.0689 25.0765 21.0202 25.2055C20.9716 25.3343 20.8737 25.4387 20.748 25.4952C20.6814 25.5259 20.6091 25.5419 20.5356 25.5419Z" fill="#FBCE6B"/>
<path id="Vector_12" d="M14.6512 16.9115C14.3217 16.9103 14.0008 16.8043 13.7357 16.6084L10.8665 14.5234C10.7339 14.4269 10.5542 14.4269 10.4217 14.5234L7.55224 16.6084C7.00654 17.0051 6.26745 17.0051 5.72174 16.6086C5.17579 16.2122 4.94742 15.5096 5.15551 14.8679L6.25148 11.4938C6.30268 11.3382 6.24717 11.1671 6.11436 11.0708L3.24467 8.98631C2.69948 8.5894 2.47136 7.8868 2.67996 7.24554C2.8883 6.60403 3.48597 6.16986 4.16042 6.1696H7.70685C7.87033 6.17036 8.01582 6.06568 8.06651 5.91006L9.16298 2.53599C9.37133 1.89422 9.96924 1.45954 10.6442 1.45954C11.3189 1.45954 11.9171 1.89422 12.1254 2.53599L13.2211 5.91006C13.2723 6.06568 13.4178 6.17036 13.5813 6.1696H17.1277C17.8022 6.1696 18.4001 6.60378 18.6087 7.24529C18.8173 7.88655 18.5894 8.5894 18.044 8.98631L15.1751 11.0708C15.0418 11.1671 14.9862 11.3384 15.0374 11.4943L16.1332 14.8684C16.3496 15.5099 16.12 16.2173 15.5679 16.6089C15.3023 16.8048 14.9812 16.9108 14.6512 16.9115Z" fill="#FBB540"/>
</g>
<defs>
<clipPath id="clip0_474_5045">
<rect width="26.2461" height="26.2461" fill="white"/>
</clipPath>
</defs>
</svg>
