<svg width="82" height="83" viewBox="0 0 82 83" fill="none" xmlns="http://www.w3.org/2000/svg">
<g clip-path="url(#clip0_479_175)">
<path d="M81.5384 41.3334C81.5384 63.827 63.3043 82.0611 40.8107 82.0611C18.3171 82.0611 0.0830078 63.827 0.0830078 41.3334C0.0830078 18.8398 18.3171 0.605713 40.8107 0.605713C63.3043 0.605713 81.5384 18.8398 81.5384 41.3334Z" fill="#0F4495"/>
<path d="M40.8114 82.061C63.3049 82.061 81.5391 63.8269 81.5391 41.3333C81.5391 39.2198 81.3781 37.1441 81.0674 35.1169L68.5562 22.6058L66.158 24.0824L54.3889 12.3126L52.2089 33.8094L34.0058 15.6063L30.3137 19.1604L40.3012 29.1478L31.4933 42.4625L18.4241 29.3933L14.5928 32.8213L28.6029 46.8314L12.7266 70.8288C20.0336 77.7885 29.9235 82.061 40.8114 82.061Z" fill="#042F77"/>
<path d="M51.5435 22.6971C51.5435 22.6971 23.6252 29.8644 2.0918 53.9905C4.20847 60.4698 7.90365 66.235 12.7261 70.8288C20.2234 59.8198 34.4112 43.327 58.2328 30.3056L51.5435 22.6971Z" fill="#CDEFFE"/>
<path d="M51.1921 22.7928L5.96191 62.4174C7.83995 65.516 10.1176 68.3443 12.7265 70.8288C20.2237 59.8198 34.4115 43.327 58.2331 30.3062L51.5438 22.6971C51.5438 22.6971 51.4226 22.7282 51.1921 22.7928Z" fill="#99E5FF"/>
<path d="M54.3886 12.3126L58.5872 21.43L68.556 22.6058L61.1818 29.4163L63.1443 39.2602L54.3886 34.3519L45.6323 39.2602L47.5949 29.4163L40.2207 22.6058L50.1895 21.43L54.3886 12.3126Z" fill="#FECB45"/>
<path d="M68.5559 22.6058L58.5871 21.43L54.3886 12.3126L54.3867 12.3157V34.3525L54.3886 34.3519L63.1443 39.2602L61.1817 29.4163L68.5559 22.6058Z" fill="#FCA741"/>
<path d="M63.5514 49.3483C63.5514 50.7764 62.3942 51.9335 60.9661 51.9335C59.5386 51.9335 58.3809 50.7764 58.3809 49.3483C58.3809 47.9208 59.5386 46.763 60.9661 46.763C62.3942 46.763 63.5514 47.9208 63.5514 49.3483Z" fill="#E3FBFF"/>
<path d="M37.5924 61.8165C37.5924 63.2446 36.4346 64.4018 35.0071 64.4018C33.579 64.4018 32.4219 63.2446 32.4219 61.8165C32.4219 60.3884 33.579 59.2312 35.0071 59.2312C36.4346 59.2312 37.5924 60.3884 37.5924 61.8165Z" fill="#E3FBFF"/>
<path d="M34.9801 17.6286C34.9801 19.0567 33.8229 20.2138 32.3948 20.2138C30.9673 20.2138 29.8096 19.0567 29.8096 17.6286C29.8096 16.2004 30.9673 15.0433 32.3948 15.0433C33.8229 15.0433 34.9801 16.2004 34.9801 17.6286Z" fill="white"/>
<path d="M19.275 31.3105C19.275 32.7386 18.1179 33.8958 16.6897 33.8958C15.2623 33.8958 14.1045 32.7386 14.1045 31.3105C14.1045 29.8824 15.2623 28.7253 16.6897 28.7253C18.1179 28.7253 19.275 29.8824 19.275 31.3105Z" fill="white"/>
<path d="M55.3678 66.987C55.3678 68.4151 54.2106 69.5723 52.7825 69.5723C51.3544 69.5723 50.1973 68.4151 50.1973 66.987C50.1973 65.5589 51.3544 64.4018 52.7825 64.4018C54.2106 64.4018 55.3678 65.5589 55.3678 66.987Z" fill="#E3FBFF"/>
</g>
<defs>
<clipPath id="clip0_479_175">
<rect width="81.4554" height="81.4554" fill="white" transform="translate(0.0830078 0.605713)"/>
</clipPath>
</defs>
</svg>
