<svg width="56" height="58" viewBox="0 0 56 58" fill="none" xmlns="http://www.w3.org/2000/svg">
<rect x="0.0339355" y="5.28418" width="51.9321" height="51.9321" rx="8.70439" fill="#5FD668"/>
<g clip-path="url(#clip0_2135_4298)">
<path d="M9.36093 31.0399C9.36012 33.9834 10.1292 36.8576 11.5917 39.3909L9.22107 48.0466L18.079 45.724C20.5291 47.0577 23.2741 47.7566 26.0636 47.7568H26.0709C35.2797 47.7568 42.7758 40.2634 42.7797 31.053C42.7815 26.59 41.045 22.3932 37.89 19.2357C34.7355 16.0786 30.5403 14.339 26.0703 14.3369C16.8604 14.3369 9.36487 21.8299 9.36107 31.0399" fill="url(#paint0_linear_2135_4298)"/>
<path d="M8.76407 31.0355C8.76312 34.0849 9.55981 37.0619 11.0744 39.6859L8.61877 48.6519L17.7944 46.246C20.3225 47.6245 23.169 48.3512 26.0655 48.3523H26.0729C35.612 48.3523 43.3774 40.5894 43.3815 31.0493C43.3831 26.4259 41.5842 22.0782 38.3165 18.8077C35.0484 15.5375 30.703 13.7353 26.0729 13.7334C16.5322 13.7334 8.76787 21.4953 8.76407 31.0355ZM14.2285 39.234L13.8859 38.6902C12.4457 36.4002 11.6855 33.7539 11.6866 31.0365C11.6896 23.107 18.1429 16.6556 26.0784 16.6556C29.9213 16.6573 33.5328 18.1553 36.2492 20.8733C38.9654 23.5916 40.4601 27.205 40.4591 31.0482C40.4556 38.9778 34.0021 45.4299 26.0729 45.4299H26.0672C23.4854 45.4286 20.9533 44.7352 18.745 43.425L18.2195 43.1133L12.7745 44.5409L14.2285 39.234Z" fill="url(#paint1_linear_2135_4298)"/>
<path d="M21.7476 23.8022C21.4236 23.0821 21.0826 23.0676 20.7745 23.055C20.5222 23.0441 20.2338 23.0449 19.9456 23.0449C19.6572 23.0449 19.1886 23.1534 18.7925 23.5859C18.396 24.0188 17.2787 25.065 17.2787 27.1927C17.2787 29.3204 18.8285 31.3769 19.0445 31.6657C19.2608 31.954 22.0364 36.4601 26.4323 38.1936C30.0856 39.6342 30.8291 39.3477 31.622 39.2755C32.415 39.2035 34.1808 38.2296 34.5411 37.2197C34.9016 36.21 34.9016 35.3444 34.7935 35.1635C34.6854 34.9834 34.397 34.8751 33.9645 34.6589C33.532 34.4428 31.4057 33.3964 31.0093 33.252C30.6128 33.1078 30.3245 33.0358 30.0361 33.4689C29.7476 33.9012 28.9194 34.8751 28.667 35.1635C28.4148 35.4526 28.1624 35.4886 27.73 35.2723C27.2973 35.0553 25.9045 34.5992 24.252 33.126C22.9663 31.9796 22.0983 30.564 21.846 30.131C21.5937 29.6986 21.819 29.4642 22.0359 29.2487C22.2302 29.0549 22.4685 28.7437 22.685 28.4913C22.9006 28.2387 22.9726 28.0585 23.1168 27.7701C23.2611 27.4814 23.1889 27.2288 23.0809 27.0125C22.9726 26.7962 22.1322 24.6573 21.7476 23.8022Z" fill="white"/>
</g>
<defs>
<linearGradient id="paint0_linear_2135_4298" x1="1687.15" y1="3385.3" x2="1687.15" y2="14.3369" gradientUnits="userSpaceOnUse">
<stop stop-color="#1FAF38"/>
<stop offset="1" stop-color="#60D669"/>
</linearGradient>
<linearGradient id="paint1_linear_2135_4298" x1="1746.75" y1="3505.58" x2="1746.75" y2="13.7334" gradientUnits="userSpaceOnUse">
<stop stop-color="#F9F9F9"/>
<stop offset="1" stop-color="white"/>
</linearGradient>
<clipPath id="clip0_2135_4298">
<rect width="34.7627" height="35.0343" fill="white" transform="translate(8.61877 13.7334)"/>
</clipPath>
</defs>
</svg>
