<svg width="24" height="25" viewBox="0 0 24 25" fill="none" xmlns="http://www.w3.org/2000/svg">
<g id="logos:whatsapp-icon" clip-path="url(#clip0_1914_4196)">
<path id="Vector" d="M0.601673 12.3563C0.601115 14.3728 1.128 16.3417 2.12986 18.0771L0.505859 24.0066L6.57395 22.4156C8.25231 23.3292 10.1328 23.808 12.0437 23.8081H12.0487C18.3571 23.8081 23.4923 18.6748 23.495 12.3653C23.4962 9.30792 22.3066 6.43295 20.1453 4.26997C17.9844 2.10718 15.1104 0.915458 12.0483 0.914062C5.73916 0.914062 0.604371 6.04709 0.601766 12.3563" fill="url(#paint0_linear_1914_4196)"/>
<path id="Vector_2" d="M0.192797 12.3527C0.192145 14.4417 0.737913 16.481 1.77549 18.2786L0.0932617 24.4207L6.37894 22.7726C8.11084 23.7168 10.0608 24.2147 12.045 24.2154H12.0501C18.5848 24.2154 23.9044 18.8975 23.9072 12.3621C23.9083 9.19488 22.676 6.21656 20.4374 3.97609C18.1987 1.73591 15.2219 0.501302 12.0501 0.5C5.51428 0.5 0.195401 5.81721 0.192797 12.3527ZM3.93615 17.969L3.70145 17.5965C2.71484 16.0277 2.1941 14.2149 2.19484 12.3534C2.19689 6.9213 6.61773 2.50186 12.0538 2.50186C14.6864 2.50298 17.1604 3.52921 19.0213 5.39116C20.882 7.2533 21.9059 9.72865 21.9053 12.3614C21.9028 17.7935 17.4819 22.2135 12.0501 22.2135H12.0462C10.2775 22.2126 8.54294 21.7376 7.03019 20.84L6.67019 20.6265L2.94015 21.6045L3.93615 17.969Z" fill="url(#paint1_linear_1914_4196)"/>
<path id="Vector_3" d="M9.08679 7.39771C8.86483 6.9044 8.63125 6.89445 8.42018 6.8858C8.24734 6.87836 8.04976 6.87892 7.85237 6.87892C7.65479 6.87892 7.33376 6.95324 7.06241 7.24952C6.79079 7.54608 6.02539 8.26273 6.02539 9.72031C6.02539 11.1779 7.08707 12.5866 7.23507 12.7845C7.38325 12.982 9.28465 16.0689 12.296 17.2564C14.7987 18.2433 15.308 18.047 15.8512 17.9975C16.3944 17.9482 17.6041 17.2811 17.8509 16.5892C18.0979 15.8975 18.0979 15.3046 18.0238 15.1807C17.9498 15.0572 17.7522 14.9831 17.4559 14.835C17.1596 14.6869 15.703 13.9701 15.4314 13.8712C15.1598 13.7724 14.9623 13.7231 14.7647 14.0198C14.5672 14.3159 13.9998 14.9831 13.8269 15.1807C13.6541 15.3787 13.4812 15.4034 13.185 15.2552C12.8886 15.1065 11.9344 14.7941 10.8024 13.7849C9.92167 12.9996 9.32706 12.0298 9.15423 11.7331C8.98139 11.437 9.13572 11.2764 9.28427 11.1288C9.41739 10.996 9.58065 10.7828 9.72893 10.6099C9.87665 10.4369 9.92595 10.3134 10.0247 10.1158C10.1236 9.91808 10.0741 9.74506 10.0002 9.59687C9.92595 9.44868 9.35023 7.98347 9.08679 7.39771Z" fill="white"/>
</g>
<defs>
<linearGradient id="paint0_linear_1914_4196" x1="1149.96" y1="2310.17" x2="1149.96" y2="0.914062" gradientUnits="userSpaceOnUse">
<stop stop-color="#1FAF38"/>
<stop offset="1" stop-color="#60D669"/>
</linearGradient>
<linearGradient id="paint1_linear_1914_4196" x1="1190.79" y1="2392.57" x2="1190.79" y2="0.5" gradientUnits="userSpaceOnUse">
<stop stop-color="#F9F9F9"/>
<stop offset="1" stop-color="white"/>
</linearGradient>
<clipPath id="clip0_1914_4196">
<rect width="23.814" height="24" fill="white" transform="translate(0.0932617 0.5)"/>
</clipPath>
</defs>
</svg>
