<svg width="16" height="16" viewBox="0 0 16 16" fill="none" xmlns="http://www.w3.org/2000/svg">
<g id="basil:fire-outline">
<path id="Vector" d="M7.06399 1.06314L7.06396 1.06311C7.01611 1.11937 6.98406 1.18738 6.97113 1.26016C6.95792 1.33452 6.96517 1.41107 6.9921 1.48162C7.16301 1.92852 7.25029 2.40304 7.2496 2.88151M7.06399 1.06314L7.16627 2.88139M7.06399 1.06314L7.06783 1.05872C7.11738 1.0017 7.1815 0.959226 7.25333 0.935839C7.32515 0.912451 7.40198 0.909029 7.4756 0.925938M7.06399 1.06314L7.00493 1.00405M7.2496 2.88151L7.16627 2.88139M7.2496 2.88151C7.2496 2.88147 7.2496 2.88143 7.2496 2.88139H7.16627M7.2496 2.88151C7.24958 3.55018 7.08286 3.99875 6.8077 4.36725L6.80766 4.36731C6.51905 4.75304 6.09359 5.07777 5.51684 5.46649L5.51669 5.46659C5.49397 5.48183 5.4728 5.49928 5.4535 5.51867L5.45363 5.51854L5.39427 5.46005M7.16627 2.88139C7.16627 3.53405 7.00427 3.96472 6.74093 4.31739C6.4616 4.69072 6.04693 5.00872 5.47027 5.39739C5.44293 5.41572 5.41747 5.43672 5.39427 5.46005M5.39427 5.46005L5.45336 5.51882M5.39427 5.46005L5.3496 5.50539C4.56981 6.01709 3.95472 6.74348 3.57854 7.59694C3.20236 8.45041 3.08115 9.39448 3.22953 10.3153C3.3779 11.2361 3.78954 12.0943 4.41477 12.7864C5.04 13.4785 5.85213 13.9749 6.75318 14.2158C7.65424 14.4566 8.60574 14.4316 9.4929 14.1438C10.3801 13.856 11.165 13.3176 11.753 12.5936C12.3411 11.8696 12.7071 10.991 12.8069 10.0637C12.9067 9.13633 12.7361 8.19992 12.3156 7.36739C12.2785 7.294 12.2239 7.23088 12.1566 7.18363C12.0894 7.13637 12.0115 7.10644 11.9298 7.09649C11.8482 7.08653 11.7654 7.09686 11.6887 7.12655C11.6121 7.15625 11.5439 7.20439 11.4903 7.26672M5.45336 5.51882L10.2883 8.46539C10.6817 8.20949 10.9705 7.87275 11.3462 7.43469L11.3496 7.43072M5.45336 5.51882L5.40896 5.56388L5.40273 5.57019L5.39532 5.57506C4.62897 6.07794 4.02449 6.79181 3.6548 7.63055C3.2851 8.4693 3.16598 9.3971 3.3118 10.302C3.45762 11.207 3.86215 12.0504 4.47661 12.7306C5.09106 13.4107 5.88918 13.8986 6.7747 14.1353C7.66022 14.372 8.59531 14.3474 9.46718 14.0645C10.3391 13.7817 11.1105 13.2526 11.6883 12.5411C12.2662 11.8296 12.6259 10.9661 12.724 10.0547C12.8221 9.1434 12.6544 8.22313 12.2412 7.40496C12.2103 7.3438 12.1648 7.2912 12.1088 7.25182C12.0527 7.21245 11.9878 7.18751 11.9197 7.17921C11.8517 7.17091 11.7827 7.17952 11.7188 7.20426C11.655 7.22899 11.5982 7.26908 11.5535 7.32098M5.45336 5.51882L11.5534 7.32107M11.4903 7.26672L11.3496 7.43072M11.4903 7.26672L11.5535 7.32098M11.4903 7.26672L11.5534 7.32107M11.3496 7.43072L11.4129 7.48497M11.3496 7.43072L11.4129 7.48498L11.4047 7.49449C11.0329 7.92809 10.7372 8.27281 10.3337 8.53525L10.3335 8.53535C10.2516 8.58835 10.1642 8.63863 10.0691 8.68547L9.78273 8.82658L9.9636 8.56351L9.97093 8.55284L9.97157 8.55193C10.367 7.99293 10.6376 7.28791 10.7469 6.38207L10.7469 6.382C11.0304 4.04931 9.82508 1.46577 7.4756 0.925938M11.4129 7.48497L10.8296 6.39206C11.1163 4.03339 9.8996 1.39739 7.49427 0.844721M11.4129 7.48497L11.5534 7.32107M11.4129 7.48497L11.5535 7.32098M7.4756 0.925938C7.47561 0.925939 7.47561 0.925939 7.47561 0.92594L7.49427 0.844721M7.4756 0.925938L7.49427 0.844721M7.49427 0.844721C7.40592 0.824429 7.31372 0.828535 7.22753 0.8566C7.14133 0.884665 7.06439 0.935634 7.00493 1.00405M7.00493 1.00405L7.00427 1.00472L7.00493 1.00405ZM11.5534 7.32107C11.5535 7.32104 11.5535 7.32101 11.5535 7.32098M8.15784 2.09502L8.00559 2.00164L8.03184 2.1783C8.06591 2.40761 8.0836 2.64218 8.0836 2.88072C8.0836 3.71 7.86965 4.33805 7.47551 4.86551L7.47545 4.86558C7.10392 5.364 6.58645 5.74867 6.02355 6.12971L6.01696 6.13417L6.01134 6.1398L5.96267 6.18846L5.96256 6.18858C5.94102 6.2102 5.91718 6.22939 5.89145 6.2458L5.89138 6.24584C5.28149 6.63568 4.79156 7.1869 4.47597 7.83833C4.16039 8.48975 4.0315 9.21588 4.1036 9.93612C4.17571 10.6564 4.446 11.3425 4.88446 11.9185C5.32293 12.4944 5.91242 12.9375 6.58749 13.1987C7.26256 13.4599 7.99681 13.5289 8.70872 13.3981C9.42064 13.2673 10.0824 12.9417 10.6205 12.4576C11.1586 11.9734 11.552 11.3496 11.757 10.6554C11.9621 9.96125 11.9707 9.22381 11.7821 8.525L11.7428 8.37946L11.6404 8.49015C11.3895 8.76153 11.1148 9.02141 10.7875 9.23419C10.1879 9.62284 9.434 9.84806 8.3336 9.84806H8.33357C8.24111 9.84809 8.15127 9.81737 8.07818 9.76073C8.0051 9.70409 7.95293 9.62475 7.9299 9.53521C7.90686 9.44567 7.91426 9.351 7.95093 9.26613C7.9876 9.18125 8.05146 9.11098 8.13246 9.06639L8.13247 9.06638C8.59307 8.81268 8.98719 8.50036 9.29159 8.07091L9.2917 8.07074C9.59413 7.64185 9.82426 7.07297 9.91966 6.28209C10.1274 4.5696 9.42064 2.86955 8.15784 2.09502Z" fill="#333333" stroke="#FFE5B1" stroke-width="0.166667"/>
</g>
</svg>
