<svg width="60" height="60" viewBox="0 0 60 60" fill="none" xmlns="http://www.w3.org/2000/svg">
<rect width="60" height="60" rx="30" fill="#333333"/>
<path d="M40.2561 29.5737L32.5596 21.6037C32.4026 21.4411 32.1874 21.3475 31.9614 21.3436C31.7354 21.3396 31.5171 21.4256 31.3545 21.5827C31.1919 21.7397 31.0984 21.9549 31.0944 22.1809C31.0905 22.4069 31.1765 22.6252 31.3335 22.7878L37.601 29.2779L20.3761 28.9765C20.15 28.9726 19.9316 29.0586 19.7689 29.2157C19.6062 29.3728 19.5126 29.5881 19.5086 29.8142C19.5047 30.0404 19.5907 30.2588 19.7478 30.4215C19.905 30.5842 20.1203 30.6778 20.3464 30.6817L37.5712 30.9817L31.0811 37.2491C30.9185 37.4061 30.8249 37.6213 30.821 37.8473C30.817 38.0733 30.903 38.2916 31.06 38.4542C31.217 38.6168 31.4322 38.7104 31.6582 38.7143C31.8842 38.7183 32.1025 38.6323 32.2651 38.4753L40.2351 30.7788C40.3977 30.6217 40.4913 30.4066 40.4952 30.1806C40.4991 29.9546 40.4131 29.7363 40.2561 29.5737Z" fill="white"/>
</svg>
