<svg width="126" height="81" viewBox="0 0 126 81" fill="none" xmlns="http://www.w3.org/2000/svg">
<g id="Frame 1000020188">
<rect width="126" height="81" fill="white"/>
<path id="&#226;&#128;&#156;" d="M31.956 81C25.4286 81 20.0879 78.8242 15.9341 74.4725C11.978 70.1209 10 64.2857 10 56.967C10 44.1099 14.2527 32.9341 22.7582 23.4396C31.4615 13.945 41.8462 6.13186 53.9121 0L56.8791 5.04394C51.9341 8.20879 47.2857 12.2637 42.9341 17.2088C38.7802 22.1538 35.5165 27.4945 33.1429 33.2308L41.4506 39.4615C44.8132 41.6374 47.5824 44.6044 49.7582 48.3626C51.9341 51.9231 53.022 55.3846 53.022 58.7472C53.022 65.0769 51.044 70.4176 47.0879 74.7692C43.3297 78.9231 38.2857 81 31.956 81ZM93.0769 81C86.5495 81 81.2088 78.8242 77.0549 74.4725C73.0989 70.1209 71.1209 64.2857 71.1209 56.967C71.1209 44.1099 75.3736 32.9341 83.8791 23.4396C92.5824 13.945 102.967 6.13186 115.033 0L118 5.04394C113.055 8.20879 108.407 12.2637 104.055 17.2088C99.9011 22.1538 96.6374 27.4945 94.2637 33.2308L102.571 39.4615C105.934 41.6374 108.703 44.6044 110.879 48.3626C113.055 51.9231 114.143 55.3846 114.143 58.7472C114.143 65.0769 112.165 70.4176 108.209 74.7692C104.451 78.9231 99.4066 81 93.0769 81Z" fill="#FFC444"/>
</g>
</svg>
