<svg width="151" height="30" viewBox="0 0 151 30" fill="none" xmlns="http://www.w3.org/2000/svg">
<path d="M55.889 0.744636C56.8385 0.569726 57.9254 0.432296 59.1498 0.332348C60.3992 0.2324 61.5361 0.182427 62.5605 0.182427C63.71 0.182427 64.7969 0.307362 65.8214 0.557233C66.8708 0.807104 67.7829 1.21939 68.5575 1.7941C69.357 2.3688 69.9942 3.11841 70.469 4.04294C70.9437 4.96746 71.1811 6.09188 71.1811 7.4162C71.1811 9.46514 70.6189 11.1268 69.4945 12.4011C68.3701 13.6755 66.9458 14.525 65.2217 14.9498L67.0207 16.3366L73.5424 26.7188H69.9068L62.673 15.3996L58.9999 14.8374V26.7188H55.889V0.744636ZM62.6355 2.88103C62.3107 2.88103 61.9733 2.88103 61.6235 2.88103C61.2737 2.88103 60.9364 2.89353 60.6115 2.91851C60.2867 2.9435 59.9744 2.96849 59.6745 2.99348C59.3997 3.01846 59.1748 3.05594 58.9999 3.10592V12.7759H61.9234C63.6475 12.7759 65.0718 12.3512 66.1962 11.5016C67.3206 10.652 67.8828 9.32771 67.8828 7.52864C67.8828 6.17933 67.4205 5.06741 66.496 4.19286C65.5715 3.31831 64.2847 2.88103 62.6355 2.88103ZM77.4301 0.744636C78.3796 0.569726 79.4666 0.432296 80.6909 0.332348C81.9403 0.2324 83.0772 0.182427 84.1017 0.182427C85.2511 0.182427 86.338 0.307362 87.3625 0.557233C88.412 0.807104 89.324 1.21939 90.0986 1.7941C90.8982 2.3688 91.5354 3.11841 92.0101 4.04294C92.4849 4.96746 92.7222 6.09188 92.7222 7.4162C92.7222 9.46514 92.16 11.1268 91.0356 12.4011C89.9112 13.6755 88.4869 14.525 86.7628 14.9498L88.5619 16.3366L95.0835 26.7188H91.4479L84.2141 15.3996L80.541 14.8374V26.7188H77.4301V0.744636ZM84.1767 2.88103C83.8518 2.88103 83.5145 2.88103 83.1647 2.88103C82.8149 2.88103 82.4775 2.89353 82.1527 2.91851C81.8279 2.9435 81.5155 2.96849 81.2157 2.99348C80.9408 3.01846 80.7159 3.05594 80.541 3.10592V12.7759H83.4645C85.1886 12.7759 86.6129 12.3512 87.7373 11.5016C88.8617 10.652 89.4239 9.32771 89.4239 7.52864C89.4239 6.17933 88.9617 5.06741 88.0372 4.19286C87.1126 3.31831 85.8258 2.88103 84.1767 2.88103ZM99.6834 0.482271H102.794V26.7188H99.6834V0.482271ZM113.852 9.5526L111.828 5.76705H111.678L112.053 9.5526V26.7188H109.129V0.0699839H110.778L123.334 17.5735L125.283 21.1716H125.471L125.058 17.5735V0.482271H127.982V27.131H126.333L113.852 9.5526ZM145.442 20.0472C145.442 18.9977 145.13 18.1482 144.505 17.4985C143.881 16.8238 143.094 16.2367 142.144 15.7369C141.22 15.2122 140.208 14.7249 139.108 14.2752C138.009 13.8254 136.984 13.2882 136.035 12.6635C135.11 12.0138 134.336 11.2267 133.711 10.3022C133.086 9.3527 132.774 8.15332 132.774 6.70406C132.774 4.65512 133.486 3.03096 134.91 1.83158C136.335 0.632194 138.358 0.0325037 140.982 0.0325037C142.506 0.0325037 143.893 0.144946 145.142 0.36983C146.392 0.594714 147.366 0.882066 148.066 1.23189L147.129 3.96797C146.554 3.69312 145.705 3.43075 144.58 3.18088C143.481 2.93101 142.231 2.80607 140.832 2.80607C139.183 2.80607 137.946 3.18088 137.122 3.93049C136.297 4.65512 135.885 5.51718 135.885 6.51666C135.885 7.49116 136.197 8.30324 136.822 8.95291C137.446 9.60257 138.221 10.1898 139.146 10.7145C140.095 11.2142 141.12 11.714 142.219 12.2137C143.318 12.7135 144.33 13.3007 145.255 13.9753C146.204 14.625 146.992 15.4121 147.616 16.3366C148.241 17.2611 148.553 18.4105 148.553 19.7848C148.553 20.9092 148.353 21.9212 147.954 22.8208C147.554 23.7203 146.967 24.4949 146.192 25.1446C145.417 25.7942 144.48 26.294 143.381 26.6438C142.281 26.9936 141.032 27.1685 139.633 27.1685C137.759 27.1685 136.21 27.0186 134.985 26.7188C133.761 26.4439 132.811 26.1316 132.137 25.7817L133.186 22.9707C133.761 23.2955 134.61 23.6203 135.735 23.9452C136.859 24.245 138.121 24.3949 139.52 24.3949C140.345 24.3949 141.12 24.32 141.844 24.1701C142.569 23.9952 143.193 23.7328 143.718 23.383C144.243 23.0082 144.655 22.5459 144.955 21.9962C145.28 21.4465 145.442 20.7968 145.442 20.0472Z" fill="white"/>
<path d="M19.9787 3.25584H11.8079V26.7188H8.697V3.25584H0.526215V0.482271H19.9787V3.25584Z" fill="white"/>
<circle cx="34.6543" cy="14.7168" r="12.5796" stroke="#FFCA2F" stroke-width="2.83692"/>
<line x1="17.4844" y1="8.87195" x2="51.5052" y2="8.87195" stroke="#FFCA2F" stroke-width="0.709229"/>
<line x1="17.4844" y1="14.3641" x2="51.5052" y2="14.3641" stroke="#FFCA2F" stroke-width="0.709229"/>
<line x1="17.4844" y1="19.7274" x2="51.5052" y2="19.7274" stroke="#FFCA2F" stroke-width="0.709229"/>
</svg>
