<svg width="19" height="20" viewBox="0 0 19 20" fill="none" xmlns="http://www.w3.org/2000/svg">
<g id="Frame" clip-path="url(#clip0_2513_5211)">
<path id="Vector" fill-rule="evenodd" clip-rule="evenodd" d="M0.789063 2.3637C0.789063 1.95748 0.936376 1.56789 1.1986 1.28065C1.46082 0.993405 1.81646 0.832033 2.1873 0.832033H16.1255C16.3093 0.831704 16.4913 0.871086 16.6612 0.947922C16.831 1.02476 16.9854 1.13754 17.1154 1.27981C17.2454 1.42209 17.3486 1.59105 17.4189 1.77704C17.4892 1.96303 17.5254 2.16239 17.5253 2.3637V17.632C17.5255 17.8334 17.4894 18.0328 17.4192 18.2189C17.349 18.405 17.246 18.574 17.116 18.7165C16.9861 18.8589 16.8318 18.9718 16.6619 19.0489C16.4921 19.1259 16.3101 19.1655 16.1263 19.1654H2.1873C2.00361 19.1654 1.82173 19.1257 1.65204 19.0487C1.48235 18.9717 1.32818 18.8588 1.19833 18.7165C1.06848 18.5741 0.965502 18.4052 0.895279 18.2193C0.825055 18.0333 0.788963 17.8341 0.789063 17.6329V2.3637ZM7.41356 7.82203H9.6798V9.0687C10.0069 8.35203 10.8437 7.70703 12.1012 7.70703C14.512 7.70703 15.0833 9.13453 15.0833 11.7537V16.6054H12.6436V12.3504C12.6436 10.8587 12.3165 10.017 11.4858 10.017C10.3333 10.017 9.854 10.9245 9.854 12.3504V16.6054H7.41356V7.82203ZM3.22951 16.4912H5.66995V7.70703H3.22951V16.4912ZM6.01913 4.84203C6.02373 5.07093 5.98655 5.29852 5.90977 5.51146C5.83298 5.7244 5.71814 5.9184 5.57199 6.08206C5.42584 6.24572 5.25132 6.37576 5.05866 6.46454C4.86601 6.55332 4.65911 6.59905 4.45011 6.59905C4.24111 6.59905 4.03421 6.55332 3.84155 6.46454C3.6489 6.37576 3.47438 6.24572 3.32823 6.08206C3.18207 5.9184 3.06724 5.7244 2.99045 5.51146C2.91367 5.29852 2.87649 5.07093 2.88109 4.84203C2.89012 4.39275 3.05939 3.96519 3.35266 3.65094C3.64592 3.33668 4.03986 3.16071 4.45011 3.16071C4.86036 3.16071 5.2543 3.33668 5.54756 3.65094C5.84082 3.96519 6.0101 4.39275 6.01913 4.84203Z" fill="#454545"/>
</g>
<defs>
<clipPath id="clip0_2513_5211">
<rect width="18.2577" height="20" fill="white" transform="translate(0.03125)"/>
</clipPath>
</defs>
</svg>
