<svg width="152" height="30" viewBox="0 0 152 30" fill="none" xmlns="http://www.w3.org/2000/svg">
<path d="M54.2296 0.74116C55.1456 0.572427 56.1941 0.439852 57.3752 0.343433C58.5805 0.247016 59.6772 0.198808 60.6655 0.198808C61.7743 0.198808 62.8229 0.31933 63.8111 0.560376C64.8235 0.801421 65.7034 1.19915 66.4506 1.75355C67.2219 2.30796 67.8366 3.03109 68.2946 3.92296C68.7526 4.81483 68.9816 5.89954 68.9816 7.17708C68.9816 9.15365 68.4392 10.7566 67.3545 11.9859C66.2698 13.2153 64.8959 14.0348 63.2326 14.4446L64.9682 15.7824L71.2595 25.7979H67.7522L60.774 14.8785L57.2306 14.3361V25.7979H54.2296V0.74116ZM60.7378 2.8021C60.4245 2.8021 60.099 2.8021 59.7616 2.8021C59.4241 2.8021 59.0987 2.81415 58.7853 2.83826C58.472 2.86236 58.1707 2.88647 57.8814 2.91057C57.6163 2.93467 57.3993 2.97083 57.2306 3.01904V12.3475H60.0508C61.714 12.3475 63.088 11.9377 64.1727 11.1182C65.2574 10.2986 65.7998 9.02108 65.7998 7.28555C65.7998 5.9839 65.3538 4.91125 64.462 4.06759C63.5701 3.22393 62.3287 2.8021 60.7378 2.8021ZM75.0099 0.74116C75.9259 0.572427 76.9744 0.439852 78.1555 0.343433C79.3608 0.247016 80.4575 0.198808 81.4458 0.198808C82.5546 0.198808 83.6032 0.31933 84.5914 0.560376C85.6038 0.801421 86.4836 1.19915 87.2309 1.75355C88.0022 2.30796 88.6169 3.03109 89.0749 3.92296C89.5329 4.81483 89.7619 5.89954 89.7619 7.17708C89.7619 9.15365 89.2195 10.7566 88.1348 11.9859C87.0501 13.2153 85.6761 14.0348 84.0129 14.4446L85.7485 15.7824L92.0398 25.7979H88.5325L81.5543 14.8785L78.0109 14.3361V25.7979H75.0099V0.74116ZM81.5181 2.8021C81.2048 2.8021 80.8793 2.8021 80.5419 2.8021C80.2044 2.8021 79.879 2.81415 79.5656 2.83826C79.2523 2.86236 78.951 2.88647 78.6617 2.91057C78.3966 2.93467 78.1796 2.97083 78.0109 3.01904V12.3475H80.8311C82.4943 12.3475 83.8683 11.9377 84.953 11.1182C86.0377 10.2986 86.5801 9.02108 86.5801 7.28555C86.5801 5.9839 86.1341 4.91125 85.2423 4.06759C84.3504 3.22393 83.109 2.8021 81.5181 2.8021ZM96.4772 0.488061H99.4782V25.7979H96.4772V0.488061ZM110.145 9.23802L108.193 5.58618H108.048L108.409 9.23802V25.7979H105.589V0.0903365H107.18L119.293 16.9756L121.173 20.4466H121.354L120.956 16.9756V0.488061H123.776V26.1956H122.185L110.145 9.23802ZM140.62 19.3619C140.62 18.3495 140.319 17.53 139.716 16.9033C139.113 16.2524 138.354 15.686 137.438 15.2039C136.546 14.6977 135.57 14.2277 134.509 13.7938C133.449 13.3599 132.46 12.8416 131.544 12.239C130.653 11.6123 129.905 10.853 129.303 9.96115C128.7 9.04518 128.399 7.88816 128.399 6.4901C128.399 4.51352 129.086 2.94673 130.46 1.78971C131.834 0.632689 133.786 0.0541801 136.317 0.0541801C137.788 0.0541801 139.125 0.162651 140.331 0.379592C141.536 0.596533 142.476 0.873735 143.151 1.2112L142.247 3.85065C141.693 3.5855 140.873 3.3324 139.788 3.09135C138.728 2.85031 137.522 2.72979 136.173 2.72979C134.582 2.72979 133.388 3.09135 132.593 3.81449C131.798 4.51352 131.4 5.34513 131.4 6.30931C131.4 7.24939 131.701 8.03279 132.304 8.65951C132.906 9.28623 133.654 9.85268 134.546 10.3589C135.461 10.841 136.45 11.3231 137.51 11.8052C138.571 12.2872 139.547 12.8537 140.439 13.5045C141.355 14.1312 142.114 14.8905 142.717 15.7824C143.32 16.6743 143.621 17.7831 143.621 19.1088C143.621 20.1935 143.428 21.1698 143.042 22.0375C142.657 22.9053 142.09 23.6525 141.343 24.2793C140.596 24.906 139.692 25.3881 138.631 25.7255C137.571 26.063 136.365 26.2317 135.016 26.2317C133.208 26.2317 131.713 26.0871 130.532 25.7979C129.351 25.5327 128.435 25.2314 127.784 24.8939L128.797 22.1822C129.351 22.4955 130.171 22.8089 131.255 23.1222C132.34 23.4115 133.557 23.5561 134.907 23.5561C135.703 23.5561 136.45 23.4838 137.149 23.3392C137.848 23.1705 138.45 22.9174 138.957 22.5799C139.463 22.2183 139.861 21.7724 140.15 21.2421C140.463 20.7118 140.62 20.0851 140.62 19.3619Z" fill="white"/>
<path d="M19.5861 3.16367H11.704V25.7979H8.70294V3.16367H0.820745V0.488061H19.5861V3.16367Z" fill="white"/>
<circle cx="33.7437" cy="14.3015" r="12.1353" stroke="#FFC444" stroke-width="2.73671"/>
<line x1="17.1893" y1="8.66182" x2="50.0085" y2="8.66182" stroke="white" stroke-width="0.684179"/>
<line x1="17.1893" y1="13.9587" x2="50.0085" y2="13.9587" stroke="white" stroke-width="0.684179"/>
<line x1="17.1893" y1="19.1306" x2="50.0085" y2="19.1306" stroke="white" stroke-width="0.684179"/>
</svg>
