<svg width="138" height="30" viewBox="0 0 138 30" fill="none" xmlns="http://www.w3.org/2000/svg">
<path d="M51.3797 4.78959C52.1879 4.64071 53.1131 4.52373 54.1553 4.43866C55.2187 4.35358 56.1865 4.31105 57.0585 4.31105C58.0368 4.31105 58.962 4.41739 59.8341 4.63008C60.7273 4.84276 61.5036 5.1937 62.163 5.68288C62.8436 6.17206 63.3859 6.81012 63.79 7.59706C64.1941 8.38401 64.3962 9.3411 64.3962 10.4683C64.3962 12.2124 63.9176 13.6267 62.9606 14.7115C62.0035 15.7962 60.7911 16.5193 59.3236 16.8809L60.855 18.0613L66.4061 26.8984H63.3115L57.1542 17.2637L54.0277 16.7852V26.8984H51.3797V4.78959ZM57.1223 6.60807C56.8458 6.60807 56.5587 6.60807 56.2609 6.60807C55.9631 6.60807 55.676 6.6187 55.3995 6.63997C55.123 6.66124 54.8572 6.68251 54.6019 6.70378C54.368 6.72505 54.1766 6.75695 54.0277 6.79949V15.0305H56.5161C57.9837 15.0305 59.196 14.6689 60.1531 13.9458C61.1102 13.2226 61.5887 12.0954 61.5887 10.5641C61.5887 9.41554 61.1953 8.46908 60.4083 7.72468C59.6214 6.98027 58.526 6.60807 57.1223 6.60807ZM69.7153 4.78959C70.5235 4.64071 71.4487 4.52373 72.4909 4.43866C73.5543 4.35358 74.522 4.31105 75.394 4.31105C76.3724 4.31105 77.2976 4.41739 78.1696 4.63008C79.0629 4.84276 79.8392 5.1937 80.4985 5.68288C81.1791 6.17206 81.7215 6.81012 82.1256 7.59706C82.5297 8.38401 82.7318 9.3411 82.7318 10.4683C82.7318 12.2124 82.2532 13.6267 81.2961 14.7115C80.339 15.7962 79.1267 16.5193 77.6592 16.8809L79.1905 18.0613L84.7416 26.8984H81.647L75.4897 17.2637L72.3632 16.7852V26.8984H69.7153V4.78959ZM75.4578 6.60807C75.1814 6.60807 74.8942 6.60807 74.5965 6.60807C74.2987 6.60807 74.0116 6.6187 73.7351 6.63997C73.4586 6.66124 73.1927 6.68251 72.9375 6.70378C72.7035 6.72505 72.5121 6.75695 72.3632 6.79949V15.0305H74.8517C76.3192 15.0305 77.5315 14.6689 78.4886 13.9458C79.4457 13.2226 79.9243 12.0954 79.9243 10.5641C79.9243 9.41554 79.5308 8.46908 78.7439 7.72468C77.9569 6.98027 76.8616 6.60807 75.4578 6.60807ZM88.657 4.56627H91.305V26.8984H88.657V4.56627ZM100.717 12.2868L98.9941 9.06461H98.8665L99.1855 12.2868V26.8984H96.6971V4.21534H98.1008L108.788 19.1141L110.447 22.1768H110.607L110.256 19.1141V4.56627H112.744V27.2494H111.341L100.717 12.2868ZM127.606 21.2197C127.606 20.3264 127.341 19.6033 126.809 19.0503C126.277 18.476 125.607 17.9762 124.799 17.5508C124.012 17.1042 123.151 16.6894 122.215 16.3066C121.279 15.9238 120.407 15.4665 119.599 14.9348C118.812 14.3818 118.152 13.7118 117.621 12.9249C117.089 12.1167 116.823 11.0958 116.823 9.86218C116.823 8.11815 117.429 6.73568 118.642 5.71478C119.854 4.69388 121.577 4.18343 123.81 4.18343C125.107 4.18343 126.288 4.27914 127.351 4.47056C128.415 4.66198 129.244 4.90657 129.84 5.20433L129.042 7.53326C128.553 7.2993 127.83 7.07598 126.873 6.86329C125.937 6.65061 124.873 6.54426 123.682 6.54426C122.279 6.54426 121.226 6.86329 120.524 7.50135C119.822 8.11815 119.471 8.85192 119.471 9.70267C119.471 10.5321 119.737 11.2234 120.269 11.7764C120.8 12.3294 121.46 12.8292 122.247 13.2758C123.055 13.7012 123.927 14.1266 124.863 14.5519C125.799 14.9773 126.66 15.4771 127.447 16.0514C128.255 16.6044 128.925 17.2743 129.457 18.0613C129.989 18.8482 130.254 19.8266 130.254 20.9964C130.254 21.9535 130.084 22.8148 129.744 23.5805C129.404 24.3462 128.904 25.0055 128.245 25.5585C127.585 26.1115 126.788 26.5369 125.852 26.8346C124.916 27.1324 123.853 27.2813 122.661 27.2813C121.066 27.2813 119.748 27.1537 118.705 26.8984C117.663 26.6645 116.855 26.3986 116.281 26.1009L117.174 23.7081C117.663 23.9846 118.386 24.2611 119.344 24.5376C120.301 24.7928 121.375 24.9204 122.566 24.9204C123.268 24.9204 123.927 24.8566 124.544 24.729C125.161 24.5801 125.692 24.3568 126.139 24.0591C126.586 23.74 126.936 23.3466 127.192 22.8786C127.468 22.4107 127.606 21.8577 127.606 21.2197Z" fill="#222222"/>
<path d="M20.8116 6.9271H13.8568V26.8984H11.2088V6.9271H4.25394V4.56627H20.8116V6.9271Z" fill="#222222"/>
<circle cx="33.3036" cy="16.8134" r="10.7076" stroke="#FFC444" stroke-width="2.41475"/>
<line x1="18.6973" y1="11.8388" x2="47.6554" y2="11.8388" stroke="#222222" stroke-width="0.603687"/>
<line x1="18.6973" y1="16.5146" x2="47.6554" y2="16.5146" stroke="#222222" stroke-width="0.603687"/>
<line x1="18.6973" y1="21.0732" x2="47.6554" y2="21.0732" stroke="#222222" stroke-width="0.603687"/>
</svg>
