<svg width="19" height="20" viewBox="0 0 19 20" fill="none" xmlns="http://www.w3.org/2000/svg">
<g id="Frame" clip-path="url(#clip0_2513_5203)">
<path id="Vector" d="M18.4999 4.11366C17.8646 4.42199 17.1823 4.63033 16.4649 4.72449C17.2051 4.23932 17.7589 3.47572 18.0229 2.57616C17.3274 3.02865 16.5663 3.34716 15.7726 3.51783C15.2389 2.89355 14.5319 2.47977 13.7615 2.34072C12.991 2.20168 12.2003 2.34515 11.5119 2.74887C10.8235 3.15259 10.2761 3.79396 9.95461 4.57341C9.63311 5.35287 9.55552 6.22679 9.73388 7.05949C8.32476 6.98199 6.94626 6.58079 5.68785 5.88192C4.42943 5.18305 3.31923 4.20213 2.42929 3.00283C2.12499 3.57783 1.95002 4.24449 1.95002 4.95449C1.94968 5.59366 2.09337 6.22303 2.36834 6.78677C2.6433 7.35051 3.04104 7.83119 3.52627 8.18616C2.96353 8.16655 2.41322 7.99998 1.92112 7.70033V7.75033C1.92106 8.64678 2.20413 9.51564 2.72231 10.2095C3.24049 10.9033 3.96185 11.3794 4.76399 11.557C4.24196 11.7118 3.69465 11.7346 3.1634 11.6237C3.38972 12.395 3.83056 13.0695 4.42422 13.5528C5.01788 14.036 5.73463 14.3038 6.47413 14.3187C5.21878 15.3982 3.66844 15.9837 2.0725 15.9812C1.7898 15.9812 1.50733 15.9632 1.22656 15.927C2.84653 17.068 4.7323 17.6735 6.65822 17.6712C13.1777 17.6712 16.7418 11.7562 16.7418 6.62616C16.7418 6.45949 16.738 6.29116 16.7311 6.12449C17.4244 5.57531 18.0228 4.89524 18.4983 4.11616L18.4999 4.11366Z" fill="#454545"/>
</g>
<defs>
<clipPath id="clip0_2513_5203">
<rect width="18.2577" height="20" fill="white" transform="translate(0.515625)"/>
</clipPath>
</defs>
</svg>
