<svg width="19" height="20" viewBox="0 0 19 20" fill="none" xmlns="http://www.w3.org/2000/svg">
<g id="Frame" clip-path="url(#clip0_2513_5205)">
<g id="Clip path group">
<mask id="mask0_2513_5205" style="mask-type:luminance" maskUnits="userSpaceOnUse" x="0" y="0" width="19" height="20">
<g id="clip0_100_7">
<path id="Vector" d="M18.8046 0H0.546875V20H18.8046V0Z" fill="white"/>
</g>
</mask>
<g mask="url(#mask0_2513_5205)">
<g id="Group">
<path id="Vector_2" d="M18.4247 5.42142C18.3213 5.01745 18.1199 4.65171 17.8419 4.36309C17.5561 4.06559 17.2058 3.85279 16.8241 3.74476C15.3954 3.33226 9.67162 3.33226 9.67162 3.33226C7.28544 3.30252 4.89985 3.43332 2.5283 3.72392C2.14656 3.83993 1.7969 4.0575 1.51044 4.35726C1.22896 4.65392 1.02509 5.01976 0.918584 5.42059C0.662743 6.93038 0.538438 8.46338 0.547345 9.99892C0.538216 11.5331 0.662216 13.0656 0.918584 14.5773C1.02281 14.9764 1.22592 15.3406 1.50816 15.6348C1.79039 15.9289 2.14185 16.1414 2.5283 16.2539C3.97599 16.6656 9.67162 16.6656 9.67162 16.6656C12.0608 16.6954 14.4495 16.5646 16.8241 16.2739C17.2058 16.1659 17.5561 15.9531 17.8419 15.6556C18.1234 15.3614 18.3235 14.9956 18.4239 14.5973C18.6864 13.0881 18.8141 11.5544 18.805 10.0181C18.8248 8.47526 18.6973 6.93523 18.4247 5.42142ZM7.85194 12.8523V7.14642L12.6142 9.99976L7.85194 12.8523Z" fill="#454545"/>
</g>
</g>
</g>
</g>
<defs>
<clipPath id="clip0_2513_5205">
<rect width="18.2577" height="20" fill="white" transform="translate(0.546875)"/>
</clipPath>
</defs>
</svg>
