<svg width="20" height="20" viewBox="0 0 20 20" fill="none" xmlns="http://www.w3.org/2000/svg">
<g id="Frame">
<path id="Vector" d="M15.8333 5.83398H4.16667C3.24619 5.83398 2.5 6.58018 2.5 7.50065V14.1673C2.5 15.0878 3.24619 15.834 4.16667 15.834H15.8333C16.7538 15.834 17.5 15.0878 17.5 14.1673V7.50065C17.5 6.58018 16.7538 5.83398 15.8333 5.83398Z" stroke="#DFA935" stroke-linecap="round" stroke-linejoin="round"/>
<path id="Vector_2" d="M7.5 5.00065C7.5 4.55862 7.6756 4.1347 7.98816 3.82214C8.30072 3.50958 8.72464 3.33398 9.16667 3.33398H10.8333C11.2754 3.33398 11.6993 3.50958 12.0118 3.82214C12.3244 4.1347 12.5 4.55862 12.5 5.00065V5.83398H7.5V5.00065Z" stroke="#DFA935" stroke-linecap="round" stroke-linejoin="round"/>
<path id="Vector_3" d="M8.33398 10L8.50982 10.0883C8.9727 10.3198 9.48312 10.4403 10.0007 10.4403C10.5182 10.4403 11.0286 10.3198 11.4915 10.0883L11.6673 10" stroke="#DFA935" stroke-linecap="round" stroke-linejoin="round"/>
</g>
</svg>
