<svg width="20" height="20" viewBox="0 0 20 20" fill="none" xmlns="http://www.w3.org/2000/svg">
<g id="Frame">
<path id="Vector" d="M1.66602 11.3035C1.66602 9.59268 3.33268 9.16602 4.99935 9.16602V16.666C4.11529 16.666 3.26745 16.3148 2.64233 15.6897C2.01721 15.0646 1.66602 14.2167 1.66602 13.3327V11.3035Z" stroke="#BE8814" stroke-linecap="round" stroke-linejoin="round"/>
<path id="Vector_2" d="M18.3333 11.3035C18.3333 9.59268 16.6667 9.16602 15 9.16602V16.666C15.8841 16.666 16.7319 16.3148 17.357 15.6897C17.9821 15.0646 18.3333 14.2167 18.3333 13.3327V11.3035Z" stroke="#BE8814" stroke-linecap="round" stroke-linejoin="round"/>
<path id="Vector_3" d="M5 16.6673V8.33398C5 7.0079 5.52678 5.73613 6.46447 4.79845C7.40215 3.86077 8.67392 3.33398 10 3.33398C11.3261 3.33398 12.5979 3.86077 13.5355 4.79845C14.4732 5.73613 15 7.0079 15 8.33398V16.6673" stroke="#BE8814" stroke-linecap="round" stroke-linejoin="round"/>
</g>
</svg>
