<svg width="28" height="28" viewBox="0 0 28 28" fill="none" xmlns="http://www.w3.org/2000/svg">
<g id="Frame">
<g id="Group 1410083831">
<path id="Vector" d="M17.89 10.8893C19.1786 10.8893 20.2233 9.84465 20.2233 8.55599C20.2233 7.26733 19.1786 6.22266 17.89 6.22266C16.6013 6.22266 15.5566 7.26733 15.5566 8.55599C15.5566 9.84465 16.6013 10.8893 17.89 10.8893Z" stroke="#222222" stroke-linecap="round" stroke-linejoin="round"/>
<path id="Vector_2" d="M17.89 21.778C19.1786 21.778 20.2233 20.7333 20.2233 19.4447C20.2233 18.156 19.1786 17.1113 17.89 17.1113C16.6013 17.1113 15.5566 18.156 15.5566 19.4447C15.5566 20.7333 16.6013 21.778 17.89 21.778Z" stroke="#222222" stroke-linecap="round" stroke-linejoin="round"/>
<path id="Vector_3" d="M8.55599 16.3346C9.84465 16.3346 10.8893 15.29 10.8893 14.0013C10.8893 12.7126 9.84465 11.668 8.55599 11.668C7.26733 11.668 6.22266 12.7126 6.22266 14.0013C6.22266 15.29 7.26733 16.3346 8.55599 16.3346Z" stroke="#222222" stroke-linecap="round" stroke-linejoin="round"/>
<path id="Vector_4" d="M15.874 9.73242L10.5742 12.8241M15.874 18.2693L10.5742 15.1776" stroke="#222222" stroke-linecap="round" stroke-linejoin="round"/>
</g>
</g>
</svg>
