<svg width="21" height="20" viewBox="0 0 21 20" fill="none" xmlns="http://www.w3.org/2000/svg">
<g id="Frame">
<path id="Vector" d="M7.33203 14.9991V4.76244C7.33198 4.36428 7.47448 3.97926 7.73372 3.67706C7.99297 3.37486 8.35183 3.17546 8.74536 3.11494L16.2454 1.96077C16.4829 1.92425 16.7255 1.93951 16.9565 2.00553C17.1876 2.07154 17.4017 2.18674 17.584 2.34323C17.7664 2.49971 17.9128 2.69379 18.0131 2.91214C18.1135 3.1305 18.1654 3.36797 18.1654 3.60827V13.3324" stroke="#DFA935" stroke-linecap="round" stroke-linejoin="round"/>
<path id="Vector_2" d="M7.33203 7.50065L18.1654 5.83398" stroke="#DFA935" stroke-linecap="round" stroke-linejoin="round"/>
<path id="Vector_3" d="M7.33203 15.0007C7.33203 15.6637 7.06864 16.2996 6.5998 16.7684C6.13096 17.2373 5.49507 17.5007 4.83203 17.5007C4.16899 17.5007 3.53311 17.2373 3.06426 16.7684C2.59542 16.2996 2.33203 15.6637 2.33203 15.0007C2.33203 13.6198 3.4512 13.334 4.83203 13.334C6.21286 13.334 7.33203 13.6198 7.33203 15.0007Z" stroke="#DFA935" stroke-linecap="round" stroke-linejoin="round"/>
<path id="Vector_4" d="M18.166 13.3327C18.166 13.9957 17.9026 14.6316 17.4338 15.1004C16.9649 15.5693 16.3291 15.8327 15.666 15.8327C15.003 15.8327 14.3671 15.5693 13.8982 15.1004C13.4294 14.6316 13.166 13.9957 13.166 13.3327C13.166 11.9518 14.2852 11.666 15.666 11.666C17.0468 11.666 18.166 11.9518 18.166 13.3327Z" stroke="#DFA935" stroke-linecap="round" stroke-linejoin="round"/>
</g>
</svg>
