<svg width="24" height="24" viewBox="0 0 24 24" fill="none" xmlns="http://www.w3.org/2000/svg">
<g id="Frame">
<path id="Vector" d="M8 17.9993V5.71532C7.99994 5.23753 8.17094 4.7755 8.48203 4.41286C8.79312 4.05023 9.22376 3.81094 9.696 3.73832L18.696 2.35332C18.981 2.30949 19.2721 2.32781 19.5494 2.40702C19.8267 2.48624 20.0836 2.62448 20.3024 2.81226C20.5212 3.00005 20.6969 3.23294 20.8173 3.49496C20.9377 3.75699 21 4.04195 21 4.33032V15.9993" stroke="#FFC444" stroke-linecap="round" stroke-linejoin="round"/>
<path id="Vector_2" d="M8 9L21 7" stroke="#FFC444" stroke-linecap="round" stroke-linejoin="round"/>
<path id="Vector_3" d="M8 18C8 18.7956 7.68393 19.5587 7.12132 20.1213C6.55871 20.6839 5.79565 21 5 21C4.20435 21 3.44129 20.6839 2.87868 20.1213C2.31607 19.5587 2 18.7956 2 18C2 16.343 3.343 16 5 16C6.657 16 8 16.343 8 18Z" stroke="#FFC444" stroke-linecap="round" stroke-linejoin="round"/>
<path id="Vector_4" d="M21 16C21 16.7956 20.6839 17.5587 20.1213 18.1213C19.5587 18.6839 18.7956 19 18 19C17.2044 19 16.4413 18.6839 15.8787 18.1213C15.3161 17.5587 15 16.7956 15 16C15 14.343 16.343 14 18 14C19.657 14 21 14.343 21 16Z" stroke="#FFC444" stroke-linecap="round" stroke-linejoin="round"/>
</g>
</svg>
