<svg width="19" height="19" viewBox="0 0 19 19" fill="none" xmlns="http://www.w3.org/2000/svg">
<g id="vuesax/linear/teacher">
<g id="teacher">
<path id="Vector" d="M8.50639 1.91309L3.99139 4.86059C2.54389 5.80559 2.54389 7.92059 3.99139 8.86559L8.50639 11.8131C9.31639 12.3456 10.6514 12.3456 11.4614 11.8131L15.9539 8.86559C17.3939 7.92059 17.3939 5.81309 15.9539 4.86809L11.4614 1.92059C10.6514 1.38059 9.31639 1.38059 8.50639 1.91309Z" stroke="#292D32" stroke-linecap="round" stroke-linejoin="round"/>
<path id="Vector_2" d="M5.19109 9.82617L5.18359 13.3437C5.18359 14.2962 5.91859 15.3162 6.81859 15.6162L9.21109 16.4112C9.62359 16.5462 10.3061 16.5462 10.7261 16.4112L13.1186 15.6162C14.0186 15.3162 14.7536 14.2962 14.7536 13.3437V9.86367" stroke="#292D32" stroke-linecap="round" stroke-linejoin="round"/>
<path id="Vector_3" d="M17.0186 11.2656V6.76562" stroke="#292D32" stroke-linecap="round" stroke-linejoin="round"/>
</g>
</g>
</svg>
