<svg width="315" height="166" viewBox="0 0 315 166" fill="none" xmlns="http://www.w3.org/2000/svg">
<path d="M152.545 69.707C152.545 32.8109 121.161 2.91797 82.4166 2.91797C43.6725 2.91797 12.2881 32.8109 12.2881 69.707V96.3254C12.2881 133.221 43.6725 163.114 82.4166 163.114C121.161 163.114 152.545 133.221 152.545 96.3254C152.545 94.1855 152.545 71.8145 152.545 69.707Z" fill="#422771"/>
<path d="M108.484 154.523C114.028 150.892 141.587 150.924 144.764 142.365C146.839 136.82 139.123 138.247 135.751 138.863C139.09 138.182 149.433 126.672 148.882 122.004C148.428 118.145 139.966 121.842 137.793 123.592C141.23 121.517 149.53 99.8595 144.051 97.5252C136.594 94.3478 133.092 114.741 131.763 118.502C131.212 116.395 127.775 107.544 124.338 110.267C121.647 112.439 119.767 126.381 119.994 128.261C113.185 121.712 111.532 133.805 112.666 138.863C113.736 143.532 102.259 154.134 108.484 154.523Z" fill="#FFCC7A"/>
<path d="M119.345 147.001C119.993 146.093 120.674 145.153 121.29 144.245C119.961 140.614 118.664 136.982 117.594 133.286C117.529 132.995 117.918 132.735 118.113 133.027C119.766 136.107 121.225 139.317 122.555 142.559C124.046 140.452 125.537 138.312 126.867 136.042C127.353 135.199 127.839 134.389 128.326 133.546C127.159 127.548 125.764 121.615 124.921 115.552C124.889 115.26 125.311 115.033 125.44 115.357C127.288 120.447 128.618 125.732 129.655 131.082C130.79 128.877 131.86 126.705 132.897 124.468C136.528 116.492 139.09 108.03 142.689 100.054C142.818 99.7946 143.305 99.827 143.24 100.184C141.781 106.927 139.317 113.509 136.755 119.896C135.102 123.949 133.254 127.969 131.244 131.86C135.102 130.206 138.96 128.553 142.883 127.159C143.175 127.061 143.434 127.45 143.175 127.645C138.96 130.271 134.453 132.443 129.85 134.421C129.071 135.815 128.293 137.177 127.45 138.539C126.316 140.387 125.148 142.202 123.852 143.953C127.612 143.888 131.373 143.856 135.102 144.018C135.394 144.05 135.523 144.504 135.199 144.569C131.049 145.25 126.802 145.607 122.555 145.769C122.587 145.704 122.62 145.639 122.652 145.574C121.971 146.45 121.258 147.26 120.512 148.071C119.864 148.687 118.826 147.714 119.345 147.001Z" fill="#FFAC7A"/>
<path d="M105.663 157.667C105.663 157.667 124.792 158.737 127.581 152.318C129.396 148.168 123.398 148.946 120.804 149.27C123.431 148.881 131.795 140.484 131.568 136.885C131.374 133.902 124.727 136.399 123.009 137.631C125.732 136.172 132.963 119.896 128.877 117.918C123.268 115.162 119.767 130.66 118.6 133.481C118.275 131.827 115.973 124.921 113.218 126.867C111.078 128.423 109.068 139.057 109.165 140.516C104.204 135.199 100.216 153.226 105.663 157.667Z" fill="#FF7A79"/>
<path d="M108.873 153.29C107.738 148.46 107.9 148.006 107.349 142.883C108.063 142.429 109.392 147.13 109.619 152.447C111.045 150.794 112.569 148.751 114.028 146.774C114.774 145.769 115.422 144.731 116.071 143.661C115.001 139.057 115.163 138.538 114.612 133.545C115.293 133.092 116.525 137.404 116.849 142.364C117.627 140.97 118.373 139.576 119.118 138.149C122.231 132.184 124.533 125.829 127.613 119.831C127.71 119.636 128.099 119.701 128.034 119.928C126.64 125.051 124.5 129.979 122.231 134.777C120.934 137.566 119.507 140.322 117.984 142.98C122.814 141.262 127.418 140.646 127.289 141.489C122.425 142.948 122.004 143.304 117.303 144.115C116.362 145.671 115.39 147.195 114.352 148.654C113.347 150.048 112.18 151.572 110.883 153.096C117.984 151.702 124.468 151.442 123.982 152.318C117.076 153.388 116.395 153.712 109.975 154.133C109.392 154.782 108.776 155.43 108.16 156.014C107.382 156.792 106.15 156.792 105.307 156.079C106.247 155.884 107.479 154.814 108.873 153.29Z" fill="#FFAC7A"/>
<path d="M53.9825 138.863C55.1173 133.805 53.4314 121.712 46.6552 128.261C46.8821 126.381 45.0341 112.407 42.3107 110.267C38.8739 107.511 35.4372 116.362 34.8861 118.502C33.5568 114.741 30.0876 94.3478 22.5982 97.5252C17.1189 99.8595 25.4189 121.517 28.8556 123.592C26.6833 121.842 18.2212 118.178 17.7673 122.004C17.2161 126.64 27.5587 138.15 30.8982 138.863C27.5263 138.279 19.8099 136.82 21.8849 142.365C25.0622 150.892 52.6208 150.859 58.165 154.523C64.4224 154.134 52.945 143.532 53.9825 138.863Z" fill="#FFCC7A"/>
<path d="M46.1695 148.071C45.4238 147.26 44.7105 146.45 44.0297 145.574L44.1269 145.769C39.8797 145.607 35.6324 145.282 31.4824 144.569C31.1582 144.537 31.2879 144.05 31.5797 144.018C35.3082 143.856 39.0691 143.888 42.83 143.953C41.5332 142.202 40.366 140.387 39.2312 138.539C38.4207 137.177 37.6425 135.815 36.832 134.421C32.2281 132.443 27.7215 130.271 23.5066 127.645C23.2148 127.483 23.5066 127.061 23.7984 127.159C27.7215 128.553 31.5797 130.206 35.4379 131.86C33.4277 127.969 31.5797 123.981 29.9261 119.896C27.3324 113.509 24.9008 106.927 23.4418 100.184C23.3769 99.827 23.8957 99.7946 23.9929 100.054C27.6242 108.03 30.1855 116.492 33.7843 124.468C34.8218 126.705 35.8918 128.909 37.0265 131.082C38.064 125.732 39.3933 120.447 41.2414 115.357C41.3386 115.033 41.7925 115.26 41.7601 115.552C40.9172 121.615 39.523 127.548 38.3558 133.546C38.8422 134.389 39.3285 135.199 39.8148 136.042C41.1441 138.312 42.6031 140.452 44.1269 142.559C45.4238 139.317 46.9152 136.075 48.5687 133.027C48.7308 132.703 49.1523 132.995 49.0875 133.286C47.9851 137.015 46.6883 140.614 45.3914 144.245C46.0398 145.153 46.7207 146.093 47.3367 147.001C47.8554 147.714 46.8179 148.687 46.1695 148.071Z" fill="#FFAC7A"/>
<path d="M57.5174 140.484C57.6147 139.025 55.6045 128.391 53.4647 126.834C50.7088 124.889 48.4069 131.827 48.0826 133.448C46.9155 130.628 43.4139 115.13 37.8049 117.886C33.7197 119.896 40.9498 136.172 43.6733 137.598C41.9549 136.366 35.3084 133.87 35.1139 136.853C34.8869 140.484 43.2842 148.849 45.8779 149.238C43.2518 148.946 37.2862 148.136 39.1018 152.286C41.8901 158.705 61.019 157.635 61.019 157.635C66.4658 153.226 62.4779 135.199 57.5174 140.484Z" fill="#FF7A79"/>
<path d="M61.3756 156.112C60.5326 156.825 59.3006 156.825 58.5225 156.047C57.9389 155.431 57.3229 154.782 56.7069 154.166C50.2873 153.745 49.6065 153.421 42.7006 152.351C42.2143 151.475 48.6987 151.735 55.799 153.129C54.5022 151.605 53.335 150.114 52.3299 148.687C51.2924 147.228 50.3197 145.704 49.3795 144.148C44.6783 143.337 44.2569 142.981 39.3936 141.522C39.2639 140.679 43.8678 141.295 48.6987 143.013C47.1424 140.355 45.7483 137.599 44.4514 134.811C42.1819 130.012 40.0744 125.084 38.6479 119.961C38.583 119.734 38.9721 119.637 39.0694 119.864C42.1494 125.83 44.4514 132.184 47.5639 138.182C48.2772 139.609 49.0229 141.003 49.8334 142.397C50.1576 137.404 51.3572 133.125 52.0705 133.578C51.4869 138.571 51.6815 139.123 50.6115 143.694C51.26 144.764 51.9084 145.802 52.6541 146.807C54.0807 148.784 55.6369 150.827 57.0635 152.48C57.2904 147.163 58.5873 142.462 59.333 142.916C58.7819 148.039 58.9764 148.525 57.8092 153.323C59.2033 154.815 60.4354 155.885 61.3756 156.112Z" fill="#FFAC7A"/>
<path d="M111.143 18.3835L101.481 16.73V17.3784V30.4769V31.0605C100.444 30.9956 99.1791 31.2874 97.9795 31.9034C95.4506 33.2003 94.0564 35.5022 94.8346 37.0585C95.6451 38.5823 98.3361 38.7444 100.8 37.4476C102.389 36.637 103.556 35.405 103.978 34.2378V20.3288L111.143 21.4636V18.3835Z" fill="white"/>
<path d="M36.8322 44.5153L27.1705 42.8618V43.5103V56.6087V57.1923C26.133 57.1274 24.8686 57.4192 23.6689 58.0353C21.14 59.3321 19.7459 61.6341 20.524 63.1903C21.3346 64.7142 24.0256 64.8763 26.4896 63.5794C28.0783 62.7689 29.2455 61.5368 29.667 60.3696V46.4606L36.8322 47.5954V44.5153Z" fill="white"/>
<path d="M125.181 47.6278V48.1142V58.1649V58.6188C124.371 58.5864 123.431 58.781 122.49 59.2673C120.545 60.2724 119.475 62.0231 120.091 63.2228C120.707 64.3899 122.782 64.5196 124.663 63.547C125.895 62.931 126.77 61.9907 127.094 61.0829V50.4161L135.265 47.952V56.7384V57.1923C134.454 57.1599 133.514 57.3544 132.574 57.8407C130.628 58.8458 129.558 60.5966 130.174 61.7962C130.79 62.9634 132.865 63.0931 134.746 62.1204C135.978 61.5044 136.853 60.5642 137.177 59.6563V47.336V46.6876V43.9966L125.181 47.6278Z" fill="white"/>
<path d="M92.9863 102.032L54.307 104.917L46.7852 118.826C46.7852 118.826 58.8461 131.406 54.4043 157.538C60.9211 160.261 67.9566 162.045 75.3164 162.758L80.7633 136.075L87.7988 143.402L91.8516 162.499C97.3633 161.785 102.648 160.488 107.673 158.64L107.414 135.524L92.9863 102.032Z" fill="#6D83A8"/>
<path d="M88.4477 134.681C88.4477 134.681 91.7223 130.304 94.6402 126.51C91.1387 128.391 87.7344 130.401 84.4598 132.638C83.3574 133.643 82.1578 134.486 80.9258 135.264C81.1527 135.848 81.3797 136.399 81.6066 136.983L87.7992 143.434L91.8519 162.531C94.2836 162.207 96.6504 161.785 99.0172 161.234C98.4336 159.743 93.4082 142.235 93.4082 142.235L88.4477 134.681Z" fill="#496391"/>
<path d="M59.1379 159.321C59.6242 151.929 60.0781 144.537 60.4348 137.177C60.6941 131.698 60.8887 126.251 61.0508 120.771C61.148 117.238 61.3426 113.671 61.148 110.137C61.0832 109.878 61.0184 109.586 60.9535 109.327C60.3051 107.803 59.8512 106.214 59.5594 104.561L54.307 104.95L46.7852 118.859C46.7852 118.859 58.8461 131.438 54.4043 157.57C55.9281 158.186 57.5168 158.77 59.1379 159.321Z" fill="#496391"/>
<path d="M92.63 50.5784C101.643 51.551 104.723 78.8827 104.723 78.8827L122.685 82.5788L118.47 87.6366C118.47 87.6366 97.2663 93.1159 92.7596 82.9678C88.253 72.8198 87.3128 49.9948 92.63 50.5784Z" fill="#ACC38C"/>
<path d="M101.449 84.362C102.097 85.4643 101.157 66.303 93.635 52.7831C93.2784 52.1346 93.2784 51.3889 93.1811 50.6756C92.9866 50.6432 92.8245 50.6108 92.63 50.5784C87.3128 49.9948 88.253 72.8198 92.7596 82.9678C97.2663 93.1159 118.47 87.6366 118.47 87.6366L119.573 86.3397C115.033 86.5666 101.449 84.362 101.449 84.362Z" fill="#95AF88"/>
<path d="M78.7533 46.8496L93.6998 51.032C93.6998 51.032 102.421 74.7 98.4982 92.2727L108.646 115.519L76.3865 120.998L69.124 52.3613L78.7533 46.8496Z" fill="#ACC38C"/>
<path d="M69.448 44.7421C80.4391 44.6124 84.1027 48.9245 84.1027 48.9245L94.802 106.798L54.6637 108.678C54.6637 108.678 56.9008 91.3972 56.7387 90.6515L47.9199 56.4464L61.0832 46.266C63.7418 45.3906 66.5949 44.7745 69.448 44.7421Z" fill="white"/>
<path d="M82.5787 46.3309L78.5908 45.7148L82.7408 47.5953L92.824 95.9688C100.703 77.9422 89.29 56.1223 89.29 56.1223L85.367 52.9449L87.6041 51.8102C87.6041 51.8102 87.2799 46.7199 82.5787 46.3309Z" fill="#688B7A"/>
<path d="M59.5916 46.7202C59.5916 46.7202 91.3002 65.6546 66.9514 120.156C33.9783 122.976 34.3674 119.41 34.3674 119.41L55.2471 90.814L44.5479 57.1276L59.5916 46.7202Z" fill="#ACC38C"/>
<path d="M48.3088 121.225C50.5459 117.756 52.8479 114.287 55.0526 110.818C59.1053 104.399 62.9635 97.8493 66.2057 91.0083C66.076 90.8462 65.9787 90.6517 65.849 90.4896C61.8612 84.7509 57.7436 79.0771 53.4963 73.5005C51.4862 70.9716 49.4436 68.4751 47.3362 66.0435L55.2147 90.8462L34.3674 119.41C34.3674 119.41 34.1405 121.452 48.3088 121.225Z" fill="#95AF88"/>
<path d="M55.7988 52.1991L64.877 57.2894L60.0137 59.721L74.5711 95.7093C74.5711 95.7093 84.9785 70.1284 62.6074 46.3632L64.5203 45.1636C64.5203 45.1636 61.5051 45.7472 61.2781 45.7796C57.7766 46.4929 55.7988 52.1991 55.7988 52.1991Z" fill="#688B7A"/>
<path d="M59.9166 24.187C59.0737 29.0827 66.9522 37.48 66.9522 37.48L71.5561 36.1831L74.0202 17.2811C73.9877 17.3136 61.2784 16.4706 59.9166 24.187Z" fill="#523E3F"/>
<path d="M75.0902 33.5892L78.4945 45.5529C78.4945 45.5529 81.3477 50.4162 76.1277 50.708C70.9078 50.9998 64.6504 45.8447 64.6504 45.8447L65.5258 30.1525C65.5258 30.1201 72.2047 27.7857 75.0902 33.5892Z" fill="#FFCCAE"/>
<path d="M76.9046 35.5988C74.8296 31.4488 69.0261 29.4386 66.8862 29.7953V29.8277C66.8862 29.8277 66.0432 41.0133 72.9167 42.148C78.4608 43.0558 76.9046 35.5988 76.9046 35.5988Z" fill="#FA9C90"/>
<path d="M65.364 30.542C65.364 30.542 68.2496 39.847 74.8636 40.1064C81.4777 40.3982 83.3581 34.1408 83.7796 30.4123C84.2011 26.6838 84.882 15.3361 78.4949 14.4283C72.1078 13.5529 64.0347 21.3342 62.3812 23.0525C60.598 24.933 60.8898 30.9634 65.364 30.542Z" fill="#FFCCAE"/>
<path d="M66.6283 47.2391C66.7904 46.6879 66.8876 28.6613 66.8876 28.6613C66.8876 28.6613 69.8056 24.3492 68.8978 19.7129C68.8978 19.7129 63.4185 21.9824 62.4134 23.0523C60.6302 24.9328 60.922 30.9633 65.3962 30.5094C65.3962 30.5094 65.4287 30.6391 65.5259 30.8984L64.7154 45.8125C64.6505 45.8125 65.4287 46.4285 66.6283 47.2391Z" fill="#FA9C90"/>
<path d="M76.0946 7.65141C78.6884 7.7811 77.7806 10.4073 77.7806 10.4073C77.7806 10.4073 84.0704 6.16 86.4372 9.14281C88.804 12.1256 83.8111 14.0061 83.8111 14.0061C88.4474 15.4975 86.956 20.458 83.6165 20.6202C83.6165 20.6202 82.6114 16.1135 81.1849 16.8268C81.1849 16.8268 81.6712 18.8045 79.888 19.8096C76.2243 21.8846 68.0216 21.9495 68.0216 21.9495C68.3458 25.9698 66.3681 25.5483 66.3681 25.5483C66.7247 26.3913 66.6275 28.2069 66.2708 28.4987C65.9142 28.7905 65.6872 28.4014 65.6872 28.4014C64.1634 21.3659 61.4724 23.5057 61.4724 24.9323C61.4724 24.9323 61.0833 22.5655 60.7591 18.1561C60.4025 13.7467 73.5009 7.52172 76.0946 7.65141Z" fill="#523E3F"/>
<path d="M80.5039 28.2067C80.9516 28.2067 81.3145 27.51 81.3145 26.6505C81.3145 25.791 80.9516 25.0942 80.5039 25.0942C80.0563 25.0942 79.6934 25.791 79.6934 26.6505C79.6934 27.51 80.0563 28.2067 80.5039 28.2067Z" fill="#523E3F"/>
<path d="M73.4355 28.2067C73.8832 28.2067 74.2461 27.51 74.2461 26.6505C74.2461 25.791 73.8832 25.0942 73.4355 25.0942C72.9879 25.0942 72.625 25.791 72.625 26.6505C72.625 27.51 72.9879 28.2067 73.4355 28.2067Z" fill="#523E3F"/>
<path d="M78.0718 27.2019C78.0394 27.0398 77.8773 26.9425 77.6828 26.975C77.5207 27.0074 77.4234 27.1695 77.4558 27.364L78.4285 31.6761C78.3636 31.7734 78.2015 31.9355 78.0394 32.0652C77.7476 32.2922 77.3586 32.5191 76.8398 32.5191C76.6777 32.5191 76.5156 32.4867 76.3211 32.4543C76.1589 32.4218 75.9968 32.5191 75.932 32.6812C75.8996 32.8433 75.9968 33.0054 76.1589 33.0703C76.3859 33.1351 76.6129 33.1675 76.8398 33.1675C77.5531 33.1675 78.1043 32.8433 78.4609 32.5515C78.8175 32.2597 79.0121 31.9679 79.0445 31.9355L79.1093 31.8382L78.0718 27.2019Z" fill="#FF7A79"/>
<path d="M75.0246 35.1126C74.5059 35.0802 74.1492 34.9181 73.8574 34.756C73.4359 34.4966 73.2414 34.1399 73.1117 33.8481C73.0469 33.686 73.0145 33.5563 73.0145 33.4591C73.0145 33.4267 73.0145 33.3618 73.0145 33.3618V33.3294C73.0145 33.1673 72.8523 33.0376 72.6902 33.0376C72.5281 33.0376 72.3984 33.1997 72.3984 33.3618C72.3984 33.3942 72.4309 33.913 72.7875 34.4642C72.9496 34.756 73.209 35.0478 73.598 35.2747C73.9547 35.5017 74.441 35.6638 75.0246 35.7286C75.1867 35.7286 75.3488 35.6313 75.3488 35.4368C75.3164 35.2747 75.2191 35.145 75.0246 35.1126Z" fill="#FF7A79"/>
<path d="M62.5754 26.0024C62.6078 25.8079 62.6402 25.6134 62.7375 25.4837C62.7699 25.4188 62.8023 25.3864 62.8348 25.354C62.8672 25.3216 62.8996 25.3216 62.932 25.3216C62.9645 25.3216 63.0293 25.354 63.1266 25.4188C63.2563 25.5485 63.4508 25.8403 63.6777 26.2942C63.6777 26.2942 63.159 26.3267 63.159 26.813C63.1266 27.7208 63.8398 28.4989 64.5855 28.4665C64.6828 28.4665 64.7477 28.3368 64.7477 28.2071C64.4559 26.9751 64.1641 26.1646 63.8723 25.6458C63.7426 25.3864 63.5805 25.1919 63.4508 25.0622C63.3211 24.9325 63.159 24.8677 62.9645 24.8677C62.8348 24.8677 62.7375 24.9001 62.6402 24.9649C62.5105 25.0622 62.4133 25.2243 62.3484 25.3864C62.2836 25.5485 62.2512 25.7431 62.2188 25.9052C62.2188 26.0024 62.2836 26.1321 62.4133 26.1321C62.4781 26.197 62.5754 26.1321 62.5754 26.0024Z" fill="#523E3F"/>
<path d="M70.5512 30.5739C71.4823 30.5739 72.2371 30.2401 72.2371 29.8282C72.2371 29.4164 71.4823 29.0825 70.5512 29.0825C69.6201 29.0825 68.8652 29.4164 68.8652 29.8282C68.8652 30.2401 69.6201 30.5739 70.5512 30.5739Z" fill="#FF7A79"/>
<path d="M82.1254 30.5739C83.0565 30.5739 83.8113 30.2401 83.8113 29.8282C83.8113 29.4164 83.0565 29.0825 82.1254 29.0825C81.1943 29.0825 80.4395 29.4164 80.4395 29.8282C80.4395 30.2401 81.1943 30.5739 82.1254 30.5739Z" fill="#FF7A79"/>
<path d="M46.0723 56.1548C51.4219 56.1548 60.7269 61.4395 50.3195 86.5017L65.8172 101.999L62.7371 107.219C62.7371 107.219 34.3355 97.2981 35.4055 90.7165C36.4754 84.1997 40.7227 56.1548 46.0723 56.1548Z" fill="#ACC38C"/>
<path d="M38.8098 89.2251C38.8098 89.2251 42.7652 74.7325 43.4785 70.2583C43.8027 66.4974 44.0621 62.7364 44.2891 58.9755C44.2891 58.3595 44.3215 57.7435 44.3539 57.1274C39.8148 62.0231 36.3457 84.9454 35.373 90.7814C34.2707 97.3306 62.7047 107.284 62.7047 107.284L64.5851 104.107C60.9215 103.134 38.8098 89.2251 38.8098 89.2251Z" fill="#95AF88"/>
<path d="M38.5176 116.395L39.166 119.377L75.5109 136.367L153.712 95.4501V88.836L127.321 83.2271L38.5176 116.395Z" fill="#3C3C3B"/>
<path d="M38.5176 116.395L39.166 119.377L75.5109 136.366L153.712 95.45V88.8359L74.0195 129.428L38.5176 116.395Z" fill="#1D1D1B"/>
<path d="M126.964 84.1024L124.402 85.0751C124.305 85.1075 124.402 85.1724 124.597 85.2372L131.73 86.7286L132.443 86.4368L142.883 88.6091C142.883 88.6091 144.342 87.9282 144.309 87.8958L127.58 84.1024C127.32 84.07 127.061 84.07 126.964 84.1024Z" fill="#FCFAF7"/>
<path d="M130.401 87.2469L131.503 86.793L124.37 85.3016C124.143 85.2692 123.884 85.2368 123.787 85.3016L121.096 86.3067C120.998 86.3391 121.063 86.4039 121.29 86.4688L128.52 88.025L129.46 87.636L140.646 90.0028L141.521 89.6137L130.401 87.2469Z" fill="#FCFAF7"/>
<path d="M128.294 88.0898L121.064 86.5335C120.837 86.5011 120.578 86.4687 120.448 86.5335L117.66 87.571C117.53 87.6035 117.627 87.7007 117.854 87.7331L125.182 89.3218L126.316 88.8679L137.632 91.332L138.604 90.9105L127.321 88.4788L128.294 88.0898Z" fill="#FCFAF7"/>
<path d="M135.589 92.273L124.144 89.7765L124.955 89.4522L117.627 87.8636C117.4 87.7987 117.141 87.7987 117.011 87.8636L114.093 88.9335C113.964 88.9659 114.061 89.0632 114.288 89.0956L132.833 93.2132C133.092 93.278 133.352 93.278 133.482 93.2132L135.589 92.273Z" fill="#FCFAF7"/>
<path d="M130.661 94.4776L132.833 93.505C132.93 93.4401 132.833 93.3753 132.574 93.3104L114.028 89.1604C113.801 89.0956 113.509 89.0956 113.412 89.1604L110.397 90.2952C110.267 90.3276 110.365 90.4249 110.591 90.4897L118.113 92.2081L118.989 91.8515L130.661 94.4776Z" fill="#FCFAF7"/>
<path d="M127.419 95.9363L128.391 95.5148L116.59 92.8238L117.854 92.3051L110.3 90.5867C110.073 90.5219 109.781 90.5219 109.651 90.5867L106.474 91.7539C106.344 91.7863 106.442 91.8836 106.669 91.9484L114.32 93.7316L115.585 93.2453L127.419 95.9363Z" fill="#FCFAF7"/>
<path d="M102.616 93.4402L122.004 98.0117C122.263 98.0766 122.588 98.0766 122.685 98.0117L125.052 96.9418L113.088 94.1535L114.061 93.7645L106.409 91.9812C106.182 91.9164 105.89 91.9164 105.761 91.9812L102.454 93.2133C102.292 93.3105 102.356 93.4078 102.616 93.4402Z" fill="#FCFAF7"/>
<path d="M119.41 99.503L121.939 98.3683C122.068 98.3034 121.971 98.2062 121.712 98.1413L102.291 93.5374C102.064 93.4726 101.74 93.4726 101.61 93.5374L98.141 94.8343C98.0113 94.8991 98.0762 94.964 98.3355 95.0288L106.214 96.9417L107.154 96.5526L119.41 99.503Z" fill="#FCFAF7"/>
<path d="M115.552 101.254L116.784 100.703L104.399 97.6874L105.89 97.0714L98.0117 95.1585C97.7848 95.0937 97.4606 95.0937 97.3309 95.1585L93.6996 96.5202C93.5375 96.5851 93.6348 96.6823 93.8617 96.7147L101.838 98.6925L103.102 98.1737L115.552 101.254Z" fill="#FCFAF7"/>
<path d="M111.467 103.07L112.796 102.486L100.249 99.341L101.546 98.8223L93.5374 96.8445C93.278 96.7797 92.9862 96.7797 92.8241 96.8445L89.0308 98.2711C88.8687 98.3359 88.9335 98.4332 89.1929 98.498L97.2983 100.541L98.8546 99.9246L111.467 103.07Z" fill="#FCFAF7"/>
<path d="M84.2975 100.313L104.918 105.663C105.177 105.728 105.534 105.728 105.696 105.663L108.614 104.366L95.8721 101.124L97.0069 100.67L88.9014 98.595C88.642 98.5302 88.3178 98.5302 88.1557 98.595L84.1678 100.086C83.9733 100.151 84.0381 100.249 84.2975 100.313Z" fill="#FCFAF7"/>
<path d="M101.773 107.446L104.821 106.084C104.983 106.019 104.886 105.89 104.594 105.825L83.9735 100.443C83.7142 100.378 83.3899 100.378 83.2278 100.443L79.0454 101.999C78.8833 102.064 78.9481 102.161 79.2075 102.226L87.5399 104.463L88.772 103.977L101.773 107.446Z" fill="#FCFAF7"/>
<path d="M97.2006 109.489L98.5623 108.873L85.399 105.307L87.1498 104.593L78.785 102.356C78.5256 102.291 78.169 102.291 78.0069 102.356L73.5975 104.01C73.403 104.075 73.4678 104.204 73.7272 104.269L82.1893 106.604L83.9401 105.89L97.2006 109.489Z" fill="#FCFAF7"/>
<path d="M68.0211 106.409L89.6141 112.504C89.9059 112.601 90.2949 112.601 90.4571 112.504L93.8289 110.98L80.4711 107.317L81.8328 106.765L73.3383 104.431C73.0789 104.366 72.7223 104.366 72.5278 104.431L67.8914 106.182C67.6969 106.214 67.7617 106.344 68.0211 106.409Z" fill="#FCFAF7"/>
<path d="M85.7564 114.644L89.4201 112.991C89.6146 112.893 89.5173 112.764 89.2255 112.699L67.6326 106.571C67.3732 106.506 67.0166 106.506 66.822 106.571L61.9263 108.387C61.7318 108.452 61.7642 108.581 62.056 108.679L70.7775 111.207L72.1392 110.656L85.7564 114.644Z" fill="#FCFAF7"/>
<path d="M80.1798 117.141L81.963 116.362L68.1513 112.277L70.2911 111.402L61.5696 108.841C61.3102 108.776 60.9212 108.776 60.7266 108.841L55.5391 110.786C55.3122 110.851 55.377 110.98 55.6364 111.078L64.4876 113.736L66.3356 112.991L80.1798 117.141Z" fill="#FCFAF7"/>
<path d="M74.1817 119.832L76.1271 118.956L62.1208 114.676L64.0013 113.931L55.1501 111.272C54.8907 111.175 54.5017 111.175 54.2747 111.272L48.7954 113.315C48.5685 113.412 48.6009 113.542 48.8927 113.607L57.8735 116.395L60.1431 115.487L74.1817 119.832Z" fill="#FCFAF7"/>
<path d="M57.3223 116.589L48.3414 113.8C48.082 113.703 47.6605 113.703 47.4336 113.8L43.0566 115.422L66.141 124.175L69.2211 122.36L55.6687 117.237L57.3223 116.589Z" fill="#FCFAF7"/>
<path d="M126.576 82.5464L115.649 81.2495C107.674 90.5546 121.777 88.4472 121.777 88.4472C121.777 88.4472 127.062 91.1058 129.072 90.1331L128.002 88.7065C128.002 88.7065 130.661 90.6194 131.147 89.7116L130.92 88.7065C130.92 88.7065 132.801 89.355 133.06 89.2253C133.903 88.8362 134.584 88.2851 134.908 87.7987L126.576 82.5464Z" fill="#FFCCAE"/>
<path d="M123.43 86.4367C123.365 86.3719 123.3 86.307 123.268 86.2422C120.091 86.4367 116.913 86.4367 113.736 86.534C113.606 86.534 113.444 86.534 113.314 86.534C114.222 89.5816 121.809 88.4793 121.809 88.4793C121.809 88.4793 125.991 90.5867 128.326 90.3598C126.51 89.2898 124.889 87.8957 123.43 86.4367Z" fill="#FA9C90"/>
<path d="M62.0237 100.183L73.1444 99.8267L83.714 105.987C83.3898 106.473 82.6765 107.024 81.8659 107.413C81.6066 107.543 79.7261 106.895 79.7261 106.895L79.953 107.9C79.4667 108.808 76.8081 106.895 76.8081 106.895L77.878 108.321C75.8679 109.294 66.9519 106.927 66.9519 106.927C66.9519 106.927 59.0409 108.516 62.0237 100.183Z" fill="#FFCCAE"/>
<path d="M68.2158 104.625C67.9565 104.463 67.7295 104.301 67.5026 104.107C65.7518 104.171 64.001 103.977 62.4123 103.491C62.0233 103.361 61.6991 103.199 61.3748 103.037C61.0182 108.127 66.9514 106.927 66.9514 106.927C66.9514 106.927 72.3658 108.354 75.7053 108.548C73.144 107.414 70.6475 106.084 68.2158 104.625Z" fill="#FA9C90"/>
<g clip-path="url(#clip0_2756_150)">
<path d="M200.585 33.697C200.559 33.1156 200.54 32.6262 200.516 32.1369C200.444 30.6603 200.368 29.184 200.303 27.7072C200.291 27.4398 200.277 27.1571 200.349 26.9064C200.399 26.7347 200.592 26.4953 200.731 26.4885C200.877 26.4811 201.109 26.6857 201.172 26.8484C201.275 27.1173 201.294 27.4256 201.31 27.7196C201.417 29.6786 201.514 31.6383 201.615 33.5976C201.62 33.6867 201.632 33.775 201.65 33.9522C201.809 33.8104 201.914 33.7202 202.015 33.625C202.825 32.8585 203.627 32.0831 204.449 31.329C204.694 31.1043 204.98 30.9145 205.274 30.7573C205.401 30.689 205.684 30.6803 205.738 30.7565C205.824 30.8768 205.808 31.0988 205.773 31.2644C205.744 31.3991 205.635 31.5243 205.541 31.6364C204.626 32.7277 203.707 33.8157 202.788 34.9041C202.66 35.0557 202.529 35.2052 202.367 35.3935C202.818 35.8193 203.243 36.2251 203.673 36.6251C204.333 37.2384 204.999 37.8438 205.655 38.4608C205.835 38.63 206.115 38.8383 205.913 39.0957C205.709 39.3551 205.404 39.1922 205.193 39.0253C204.183 38.2242 203.185 37.4084 202.183 36.5969C202.084 36.5162 201.989 36.4302 201.805 36.2723C201.805 36.5236 201.798 36.6644 201.806 36.8041C201.922 38.7218 202.04 40.6392 202.156 42.5569C202.168 42.7581 202.207 42.9672 202.168 43.1591C202.129 43.3458 202.043 43.6229 201.912 43.6691C201.623 43.7703 201.522 43.4721 201.477 43.2612C201.337 42.6059 201.19 41.9476 201.124 41.2826C200.994 39.9592 201.15 37.7301 201.049 36.4041C201.045 36.3564 201.021 36.31 201.006 36.2631C200.951 36.2169 200.722 36.4408 200.613 36.5491C199.965 37.193 197.852 39.9363 197.364 39.541C197.085 39.3151 197.132 38.8961 197.517 38.4623C198.428 37.4377 199.356 36.4286 200.293 35.4288C200.511 35.1962 200.51 35.0691 200.272 34.8514C199.211 33.8805 198.167 32.8915 197.123 31.9022C196.929 31.7181 196.723 31.5243 196.602 31.2934C196.528 31.151 196.542 30.8847 196.634 30.7592C196.696 30.6735 197.011 30.6627 197.126 30.7428C197.564 31.0497 197.979 31.3951 198.382 31.7485C199.009 32.2974 199.619 32.8656 200.238 33.4238C200.323 33.5014 200.418 33.5667 200.585 33.697Z" fill="white"/>
<path d="M304.246 33.697C304.271 33.1156 304.291 32.6262 304.315 32.1369C304.386 30.6603 304.463 29.184 304.528 27.7072C304.54 27.4398 304.554 27.1571 304.481 26.9064C304.431 26.7347 304.239 26.4953 304.1 26.4885C303.953 26.4811 303.721 26.6857 303.659 26.8484C303.555 27.1173 303.536 27.4256 303.52 27.7196C303.413 29.6786 303.317 31.6383 303.216 33.5976C303.211 33.6867 303.198 33.775 303.181 33.9522C303.022 33.8104 302.917 33.7202 302.816 33.625C302.005 32.8585 301.203 32.0831 300.382 31.329C300.137 31.1043 299.851 30.9145 299.557 30.7573C299.429 30.689 299.147 30.6803 299.093 30.7565C299.007 30.8768 299.022 31.0988 299.058 31.2644C299.087 31.3991 299.195 31.5243 299.29 31.6364C300.205 32.7277 301.124 33.8157 302.043 34.9041C302.171 35.0557 302.302 35.2052 302.464 35.3935C302.013 35.8193 301.588 36.2251 301.158 36.6251C300.498 37.2384 299.831 37.8438 299.176 38.4608C298.996 38.63 298.716 38.8383 298.918 39.0957C299.122 39.3551 299.427 39.1922 299.637 39.0253C300.647 38.2242 301.645 37.4084 302.647 36.5969C302.747 36.5162 302.842 36.4302 303.026 36.2723C303.026 36.5236 303.033 36.6644 303.025 36.8041C302.909 38.7218 302.791 40.6392 302.675 42.5569C302.662 42.7581 302.623 42.9672 302.663 43.1591C302.701 43.3458 302.787 43.6229 302.919 43.6691C303.208 43.7703 303.309 43.4721 303.354 43.2612C303.494 42.6059 303.641 41.9476 303.706 41.2826C303.837 39.9592 303.681 37.7301 303.782 36.4041C303.786 36.3564 303.81 36.31 303.825 36.2631C303.88 36.2169 304.109 36.4408 304.218 36.5491C304.866 37.193 306.978 39.9363 307.467 39.541C307.745 39.3151 307.699 38.8961 307.313 38.4623C306.403 37.4377 305.475 36.4286 304.537 35.4288C304.319 35.1962 304.321 35.0691 304.559 34.8514C305.62 33.8805 306.664 32.8915 307.708 31.9022C307.902 31.7181 308.108 31.5243 308.228 31.2934C308.303 31.151 308.288 30.8847 308.197 30.7592C308.134 30.6735 307.82 30.6627 307.705 30.7428C307.266 31.0497 306.852 31.3951 306.448 31.7485C305.822 32.2974 305.212 32.8656 304.593 33.4238C304.507 33.5014 304.412 33.5667 304.246 33.697Z" fill="white"/>
<path d="M209.085 141.158C209.237 138.749 209.356 136.661 209.507 134.575C209.545 134.057 209.658 133.54 209.782 133.033C209.907 132.524 210.145 132.323 210.469 132.358C210.783 132.391 210.969 132.662 210.949 133.174C210.885 134.817 210.821 136.461 210.717 138.102C210.545 140.825 210.346 143.547 210.15 146.269C210.12 146.674 210.059 147.08 209.978 147.479C209.922 147.756 209.759 148.002 209.424 148C209.069 147.997 208.952 147.718 208.928 147.445C208.886 146.976 208.864 146.503 208.881 146.033C208.943 144.301 209.025 142.568 209.085 141.158Z" fill="white"/>
<path d="M204.847 134.867C204.992 135.054 205.026 135.301 204.965 135.526C204.896 135.778 204.835 136.004 204.757 136.225C203.615 139.465 202.187 142.596 200.738 145.72C200.657 145.893 200.205 146.782 199.704 146.639C199.204 146.497 199.774 145.404 199.863 145.178C201.021 142.258 202.176 139.338 203.35 136.425C203.55 135.928 203.806 135.445 204.099 134.992C204.196 134.843 204.511 134.723 204.694 134.755C204.751 134.764 204.801 134.808 204.847 134.867Z" fill="white"/>
<path d="M199.964 135.413C199.918 135.631 199.787 135.781 199.626 135.958C198.785 136.884 197.989 137.858 197.063 138.701C195.407 140.208 193.672 141.637 191.961 143.089C191.73 143.286 191.441 143.567 191.127 143.258C190.814 142.949 191.119 142.682 191.335 142.471C193.282 140.571 195.236 138.677 197.198 136.791C197.782 136.229 198.397 135.695 199.007 135.158C199.121 135.057 199.27 134.975 199.419 134.931C199.716 134.842 199.961 135.028 199.964 135.413Z" fill="white"/>
<path d="M239.993 91.8183C239.989 93.2062 238.866 94.3276 237.477 94.33C236.105 94.3324 234.989 93.2345 234.998 91.8916C235.008 90.5479 236.254 89.3239 237.606 89.3316C238.926 89.3387 239.997 90.4548 239.993 91.8183Z" fill="white"/>
<path d="M247.421 93.2122C247.423 94.433 246.464 95.4118 245.27 95.4086C244.102 95.4057 243.167 94.4713 243.172 93.3116C243.177 92.1301 244.176 91.1377 245.362 91.1348C246.516 91.1321 247.42 92.045 247.421 93.2122Z" fill="white"/>
<path d="M252.045 96.2221C251.231 96.2181 250.586 95.5679 250.591 94.7563C250.596 93.9434 251.246 93.3059 252.064 93.3101C252.873 93.3143 253.529 93.9737 253.522 94.7764C253.516 95.585 252.861 96.226 252.045 96.2221Z" fill="white"/>
<path d="M286.99 80.2276C287.657 81.0539 288.299 81.8776 288.97 82.6768C290.34 84.3079 291.983 85.6223 293.767 86.7714C294.45 87.2112 294.454 87.6881 293.774 88.1717C291.989 89.441 290.054 90.404 287.988 91.1467C284.071 92.5553 280.025 93.0976 275.886 93.2089C270.678 93.3489 265.576 92.7438 260.512 91.5095C253.838 89.8832 247.257 87.9434 240.66 86.0473C236.117 84.7419 231.545 83.5182 226.941 82.4527C222.046 81.3199 217.047 81.0513 212.031 81.2669C210.341 81.3395 208.649 81.4797 206.974 81.7062C205.647 81.8858 204.344 82.2465 203.029 82.521C202.82 82.5647 202.604 82.5948 202.391 82.6006C201.927 82.6133 201.692 82.3298 201.861 81.9021C202.017 81.5066 202.222 81.1188 202.467 80.7715C203.782 78.9105 205.308 77.2288 206.929 75.6331C207.705 74.8695 208.483 74.1064 209.292 73.3787C209.702 73.0093 209.778 72.6093 209.639 72.1133C209.31 70.9387 208.661 69.9325 207.943 68.974C206.244 66.7054 204.366 64.6079 202.04 62.951C201.778 62.7646 201.538 62.5454 201.3 62.3274C200.767 61.8364 200.806 61.4188 201.44 61.0491C202.663 60.3364 203.942 59.7503 205.314 59.3756C210.056 58.0815 214.873 57.8901 219.75 58.2608C225.397 58.69 230.92 59.8383 236.447 60.9808C241.675 62.0616 246.805 63.5115 251.915 65.0453C253.674 65.5732 255.486 65.9281 257.275 66.3526C260.673 67.1586 264.056 68.038 267.475 68.7386C271.492 69.5618 275.565 70.0195 279.669 70.1991C282.253 70.3119 284.835 70.3451 287.401 70.0625C289.83 69.7948 292.242 69.3693 294.577 68.602C294.986 68.4678 295.397 68.3431 295.808 68.2173C296.409 68.0335 296.867 68.3755 296.757 68.9943C296.666 69.5022 296.522 70.0277 296.275 70.4764C294.548 73.6273 292.319 76.3566 289.387 78.4744C288.679 78.9859 287.964 79.4874 287.253 79.9955C287.179 80.048 287.116 80.1155 286.99 80.2276Z" fill="white"/>
<path d="M245.914 78.0259C246.226 79.3282 246.529 80.5799 246.826 81.8326C246.869 82.015 246.912 82.2022 246.917 82.3881C246.927 82.7504 246.766 83.018 246.396 83.1014C246.037 83.1823 245.747 83.0565 245.604 82.7109C245.481 82.4142 245.4 82.1005 245.308 81.792C245.142 81.2388 244.971 80.6872 244.824 80.1292C244.694 79.6375 244.578 79.141 244.49 78.6406C244.448 78.4067 244.363 78.3326 244.127 78.3313C243.038 78.3241 243.042 78.3189 242.699 79.3559C242.479 80.019 242.257 80.6814 242.015 81.3369C241.816 81.8756 241.501 82.0003 240.841 81.8436C240.284 81.7115 240.033 81.4394 240.13 80.9163C240.304 79.9668 240.497 79.0168 240.758 78.0879C241.609 75.0478 242.491 72.0163 243.369 68.9838C243.45 68.702 243.589 68.4372 243.695 68.162C243.878 67.6813 244.254 67.5186 244.725 67.5819C245.96 67.7477 247.161 68.0473 248.218 68.7357C249.023 69.2604 249.498 70.0253 249.614 70.9925C249.813 72.6394 249.581 74.2114 248.749 75.6637C248.156 76.701 247.29 77.4435 246.185 77.9039C246.087 77.9445 245.992 77.9906 245.914 78.0259ZM243.505 77.1695C244.324 77.1859 245.159 77.1796 245.795 76.5125C246.144 76.1457 246.475 75.7539 246.761 75.3367C247.568 74.1616 247.79 72.8095 247.806 71.4268C247.821 70.0093 247.107 69.1563 245.767 68.8206C245.015 71.5971 244.263 74.3728 243.505 77.1695Z" fill="#7447A0"/>
<path d="M231.044 75.5731C231.129 73.9579 231.481 72.2909 231.984 70.6554C232.344 69.4873 232.739 68.33 233.119 67.1683C233.161 67.0409 233.21 66.9154 233.261 66.7913C233.76 65.5807 233.955 65.4871 235.202 65.8581C235.292 65.8847 235.382 65.9109 235.473 65.9325C235.97 66.0503 236.135 66.2913 235.978 66.7818C235.642 67.8309 235.236 68.859 234.936 69.9173C234.356 71.9571 233.81 74.0074 233.296 76.0646C233.178 76.5345 233.196 77.0544 233.238 77.5441C233.302 78.2889 234.333 78.9302 235.031 78.6723C235.225 78.6003 235.427 78.4105 235.519 78.2227C236.01 77.224 236.576 76.2436 236.913 75.1921C237.688 72.7769 238.35 70.3255 239.046 67.8855C239.234 67.2245 239.903 66.9489 240.486 67.3255C240.745 67.4926 240.823 67.7363 240.766 68.0252C240.531 69.2231 240.333 70.4297 240.046 71.6149C239.527 73.758 238.932 75.8821 237.914 77.8554C237.694 78.2823 237.422 78.69 237.127 79.0697C235.507 81.1514 232.498 80.0674 231.677 78.5133C231.205 77.6181 231.039 76.6681 231.044 75.5731Z" fill="#7447A0"/>
<path d="M230.199 68.06C230.021 70.6923 229.505 73.0142 228.542 75.2282C228.151 76.1292 227.607 76.9189 226.756 77.4581C225.277 78.3957 223.617 77.9615 222.78 76.4221C222.145 75.2546 222.015 73.9858 222.137 72.7046C222.344 70.5249 222.866 68.4123 223.873 66.4559C224.193 65.8341 224.621 65.2361 225.113 64.7404C226.523 63.3203 228.946 63.9209 229.777 65.6923C230.164 66.5178 230.27 67.3872 230.199 68.06ZM228.293 66.8142C228.284 66.6526 228.293 66.3275 228.24 66.0132C228.173 65.6219 227.919 65.3695 227.523 65.2844C227.134 65.2005 226.873 65.3951 226.698 65.7147C226.491 66.0907 226.277 66.4664 226.117 66.863C225.109 69.3655 224.664 71.9967 224.386 74.6616C224.346 75.0434 224.368 75.4468 224.449 75.8218C224.531 76.2035 224.73 76.5756 225.17 76.6565C225.604 76.7364 225.891 76.4474 226.083 76.1184C226.319 75.7155 226.529 75.2883 226.684 74.8483C227.579 72.2991 228.061 69.664 228.293 66.8142Z" fill="#7447A0"/>
<path d="M250.63 80.6736C250.595 81.5208 250.787 82.3071 251.319 82.9765C251.933 83.7475 252.749 84.0481 253.717 83.868C254.47 83.728 254.938 83.1935 255.04 82.4355C255.146 81.6439 254.961 80.9096 254.585 80.2235C254.093 79.3289 253.577 78.4474 253.074 77.5591C252.418 76.4014 252.103 75.161 252.069 73.8258C252.007 71.3531 254.603 69.6875 256.394 69.8781C257.575 70.0039 258.509 70.8983 258.847 72.2311C259.075 73.1281 258.953 73.9895 258.623 74.8354C258.599 74.8976 258.567 74.9577 258.534 75.0163C258.325 75.3862 257.997 75.5827 257.768 75.4453C257.431 75.2438 257.576 74.9309 257.627 74.6485C257.704 74.2139 257.837 73.7826 257.856 73.3459C257.889 72.5399 257.506 71.8878 256.911 71.381C256.742 71.2365 256.438 71.1656 256.208 71.1888C255.087 71.3022 254.355 72.2678 254.626 73.3588C254.809 74.0937 255.097 74.8154 255.434 75.4951C255.809 76.2505 256.3 76.9477 256.729 77.677C257.257 78.5756 257.681 79.5087 257.745 80.5763C257.933 83.7335 254.605 86.0821 251.756 84.7943C250.195 84.089 249.226 82.0017 249.695 80.3559C249.702 80.3301 249.709 80.304 249.72 80.2792C249.839 79.9926 249.943 79.6416 250.345 79.7305C250.707 79.8106 250.651 80.1518 250.647 80.4324C250.646 80.5131 250.636 80.5932 250.63 80.6736Z" fill="#7447A0"/>
<path d="M263.096 79.67C263.535 79.7151 263.96 79.7418 264.38 79.8069C264.75 79.8644 265.12 79.9419 265.476 80.0539C265.769 80.1462 265.944 80.3701 265.902 80.702C265.862 81.0224 265.634 81.1883 265.348 81.1896C264.611 81.1933 263.873 81.1738 263.139 81.1229C262.89 81.1057 262.782 81.1229 262.729 81.3931C262.479 82.658 262.216 83.9202 261.938 85.1789C261.868 85.4974 262.04 85.5054 262.259 85.5307C263.071 85.6248 263.883 85.7229 264.694 85.8294C264.838 85.8484 265.008 85.8795 265.109 85.9689C265.256 86.0984 265.465 86.3082 265.439 86.4435C265.406 86.6144 265.186 86.8211 265.006 86.8757C264.718 86.9627 264.39 86.9838 264.088 86.9513C262.9 86.824 261.708 86.7059 260.532 86.5047C259.608 86.3467 259.212 85.8542 259.282 84.9205C259.374 83.7174 259.519 82.5122 259.742 81.3267C260.253 78.5956 260.819 75.8745 261.38 73.1529C261.452 72.8022 261.608 72.4652 261.753 72.1338C261.921 71.7478 262.242 71.5334 262.657 71.6072C263.752 71.8023 264.841 72.0315 265.93 72.2551C266.045 72.2785 266.189 72.3265 266.249 72.4122C266.355 72.5617 266.485 72.7639 266.457 72.9171C266.435 73.0379 266.188 73.2069 266.047 73.2006C265.553 73.179 265.059 73.1043 264.57 73.0215C264.349 72.9841 264.254 73.0237 264.214 73.2552C263.85 75.3321 263.478 77.4075 263.109 79.4834C263.1 79.5337 263.101 79.5857 263.096 79.67Z" fill="#7447A0"/>
<path d="M271.077 86.6795C271.477 86.6795 271.823 86.6674 272.168 86.6824C272.664 86.7038 273.161 86.7244 273.653 86.7834C274.185 86.8472 274.426 87.0453 274.398 87.3582C274.357 87.8191 273.975 87.8587 273.633 87.928C273.476 87.9599 273.312 87.9858 273.153 87.9789C271.828 87.9212 270.498 87.8988 269.179 87.7756C268.373 87.7007 268.037 87.2667 268.077 86.4586C268.142 85.1587 268.21 83.8538 268.381 82.5652C268.771 79.6506 269.22 76.7439 269.654 73.8353C269.792 72.9085 270.154 72.422 271.458 72.667C272.439 72.851 272.637 73.1215 272.531 74.1277C272.253 76.7721 271.952 79.4138 271.66 82.0568C271.535 83.1914 271.417 84.3265 271.284 85.4603C271.24 85.8308 271.161 86.1965 271.077 86.6795Z" fill="#7447A0"/>
<path d="M280.306 73.4636C280.884 73.4636 281.463 73.4457 282.04 73.4713C282.317 73.4834 282.604 73.5438 282.859 73.649C282.987 73.7017 283.128 73.9042 283.127 74.0374C283.125 74.1703 282.977 74.3733 282.849 74.4181C282.563 74.5183 282.25 74.5726 281.945 74.585C281.382 74.608 280.816 74.5914 280.252 74.5829C280.033 74.5798 279.913 74.6211 279.901 74.8898C279.808 76.9705 279.7 79.0503 279.591 81.1302C279.559 81.73 279.551 81.7229 280.157 81.7274C280.679 81.7311 281.204 81.7297 281.724 81.7746C282.026 81.8007 282.319 81.9362 282.332 82.3064C282.345 82.6729 282.066 82.8438 281.767 82.887C281.132 82.979 280.489 83.0394 279.848 83.0687C279.555 83.0821 279.455 83.1631 279.438 83.4581C279.352 84.961 279.25 86.4632 279.143 87.9645C279.079 88.8441 278.855 89.0556 277.973 89.1213C277.933 89.1242 277.893 89.1257 277.853 89.1257C276.491 89.1263 276.391 88.8104 276.446 87.7494C276.571 85.3202 276.71 82.8915 276.856 80.4636C276.962 78.7194 277.08 76.976 277.214 75.2337C277.241 74.8769 277.347 74.5225 277.447 74.1758C277.577 73.7223 277.906 73.4855 278.372 73.4755C279.016 73.4618 279.661 73.4721 280.306 73.4721C280.306 73.4694 280.306 73.4665 280.306 73.4636Z" fill="#7447A0"/>
<path d="M217.948 68.6774C218.859 67.4779 219.703 66.3502 220.566 65.2367C220.936 64.7597 221.336 64.3062 221.738 63.8558C221.913 63.6607 222.142 63.4975 222.411 63.6779C222.7 63.8717 222.626 64.1583 222.492 64.3995C222.238 64.8565 221.98 65.3158 221.674 65.7387C220.597 67.2306 219.47 68.6876 218.43 70.2048C218.172 70.5824 218.136 71.1308 218.058 71.6107C217.813 73.1081 217.609 74.6118 217.364 76.1092C217.263 76.7267 217.066 76.843 216.443 76.7676C216.297 76.7499 216.155 76.707 216.009 76.6827C215.628 76.6194 215.437 76.3977 215.47 76.0122C215.551 75.063 215.637 74.114 215.731 73.1658C215.797 72.4848 215.918 71.8066 215.939 71.1248C215.951 70.705 215.854 70.2726 215.747 69.8607C215.164 67.5989 214.56 65.3427 213.972 63.082C213.916 62.866 213.849 62.6026 213.921 62.413C214.134 61.858 214.705 62.0107 215.135 61.9013C215.437 61.824 215.647 61.9964 215.751 62.2891C216.091 63.2505 216.44 64.2089 216.77 65.1737C217.104 66.1519 217.419 67.1367 217.744 68.1181C217.798 68.2795 217.861 68.4382 217.948 68.6774Z" fill="#7447A0"/>
<path d="M280.797 22.0246C279.814 27.5575 279.664 33.0827 279.605 38.7005C279.861 38.5718 280.053 38.4896 280.231 38.3833C282.063 37.2925 283.656 35.9275 284.987 34.2589C285.129 34.0804 285.253 33.8708 285.433 33.7424C285.598 33.6246 285.853 33.5077 286.02 33.5568C286.155 33.5966 286.299 33.8845 286.297 34.0604C286.289 34.704 286.223 35.3469 286.175 35.99C286.003 38.3045 286.191 40.6105 286.345 42.9169C286.438 44.2975 286.56 45.6762 286.666 47.056C286.675 47.1757 286.675 47.2996 286.654 47.4175C286.57 47.9069 286.114 48.079 285.761 47.7315C285.514 47.4895 285.32 47.1918 285.116 46.9089C283.759 45.0231 281.966 43.7411 279.758 43.0313C279.735 43.0239 279.706 43.0353 279.61 43.0445C279.639 47.9483 279.854 52.8412 280.608 57.7178C280.689 57.7046 280.756 57.7033 280.816 57.6825C284.469 56.4219 287.869 54.7125 290.787 52.1259C292.377 50.7163 293.78 49.1553 294.889 47.3376C295.008 47.1433 295.118 46.9173 295.293 46.7913C295.48 46.6568 295.779 46.5142 295.956 46.5777C296.13 46.6397 296.309 46.9513 296.32 47.1623C296.383 48.343 296.38 49.5269 296.429 50.7084C296.511 52.6949 296.609 54.6809 296.71 56.6668C296.831 59.0415 296.961 61.4158 297.087 63.7902C297.092 63.8841 297.092 63.9785 297.091 64.0723C297.082 64.8444 296.915 65.0186 296.156 64.9424C294.472 64.7737 292.793 64.5583 291.108 64.4059C287.411 64.0715 283.707 63.8907 279.994 63.9953C277.641 64.0618 275.298 64.2337 272.97 64.6044C272.06 64.7494 271.754 64.3297 271.933 63.4332C272.264 61.7752 272.584 60.112 272.811 58.4377C273.104 56.2819 273.333 54.1161 273.534 51.9495C273.964 47.3402 274.101 42.7186 273.925 38.0933C273.799 34.7768 273.645 31.4587 273.387 28.1505C273.173 25.4067 272.797 22.6756 272.479 19.9402C272.294 18.3527 272.073 16.7693 271.886 15.182C271.8 14.4503 272.116 14.2183 272.828 14.3217C274.023 14.4949 275.225 14.6193 276.426 14.7422C280.071 15.1153 283.729 15.0652 287.383 15.0178C289.422 14.9914 291.465 14.8991 293.466 14.4229C294.086 14.2753 294.387 14.5524 294.325 15.1992C294.078 17.7446 293.98 20.2978 294.088 22.8507C294.17 24.7821 294.372 26.7084 294.523 28.6367C294.569 29.226 294.647 29.8137 294.667 30.4038C294.691 31.121 294.184 31.4487 293.544 31.112C293.157 30.9082 292.801 30.6274 292.471 30.3352C290.914 28.9533 289.413 27.5042 287.811 26.1763C285.827 24.5321 283.648 23.1763 281.252 22.1949C281.105 22.1358 280.955 22.0842 280.797 22.0246Z" fill="white"/>
<path d="M267.927 13.7833C268.645 13.7809 268.727 13.9204 268.675 14.6181C268.414 18.1727 268.245 21.7341 268.606 25.2865C268.763 26.8311 269.169 28.3501 269.457 29.8815C269.53 30.271 269.698 30.7066 269.278 30.9919C268.87 31.2687 268.502 31.0008 268.163 30.788C267.303 30.2488 266.672 29.4742 266.09 28.666C264.873 26.9751 263.709 25.2451 262.472 23.5695C261.28 21.955 259.966 20.4416 258.348 19.2271C257.581 18.6512 256.76 18.1674 255.817 17.9285C254.719 17.6501 253.953 18.246 254.025 19.3779C254.113 20.7482 254.589 22.0244 255.334 23.1505C256.862 25.4579 258.441 27.7331 260.059 29.9783C262.164 32.9006 264.368 35.7527 266.157 38.8925C267.897 41.9479 269.279 45.1489 270.037 48.5891C270.732 51.7484 270.916 54.9232 270.008 58.0855C269.698 59.1657 269.219 60.1648 268.606 61.1087C267.428 62.9201 265.7 63.7141 263.616 63.8588C261.564 64.0012 259.574 63.5862 257.596 63.1242C253.502 62.1679 249.413 61.1862 245.32 60.2244C244.825 60.1081 244.318 60.0324 243.813 59.9707C243.128 59.8871 242.739 59.6314 242.874 58.7425C243.108 57.2061 243.283 55.6446 243.29 54.0929C243.302 51.4741 243.163 48.8548 243.087 46.2355C243.08 45.9937 243.055 45.7519 243.059 45.5104C243.066 44.9878 243.431 44.7806 243.872 45.0664C245.52 46.1343 247.128 47.2509 248.584 48.5827C250.854 50.6599 253.126 52.7377 255.464 54.7379C256.499 55.6238 257.661 56.3792 258.834 57.0806C259.462 57.4563 260.217 57.6731 260.944 57.8181C262.165 58.0617 263.134 57.3999 263.489 56.1926C263.85 54.9691 263.774 53.7475 263.442 52.5325C262.673 49.7176 261.401 47.1212 259.836 44.6835C257.904 41.6758 255.864 38.738 253.871 35.7696C251.988 32.9649 250.195 30.1096 248.934 26.9569C248.195 25.112 247.655 23.2156 247.562 21.2202C247.472 19.3088 247.715 17.4531 248.753 15.7909C249.745 14.2023 251.228 13.4086 253.073 13.2829C253.674 13.2425 263.571 13.7978 267.927 13.7833Z" fill="white"/>
<path d="M223.842 48.1939C227.688 48.017 231.419 47.2789 234.993 45.8567C236.323 45.3278 237.582 44.6188 238.854 43.9538C239.608 43.5599 240.135 43.8053 240.092 44.657C240.028 45.9437 239.89 47.227 239.774 48.5108C239.513 51.3917 239.396 54.2768 239.532 57.1682C239.553 57.6231 239.654 58.0734 239.694 58.528C239.725 58.8639 239.487 59.0126 239.175 58.8937C238.036 58.4613 236.92 57.9387 235.749 57.6273C233.43 57.0111 231.091 56.4555 228.738 55.9835C226.727 55.5801 224.691 55.2901 222.657 55.0235C221.288 54.8442 219.902 54.7799 218.523 54.6871C216.388 54.5434 214.253 54.5473 212.127 54.8147C211.222 54.9283 210.323 55.0934 209.422 55.2355C209.289 55.2563 209.157 55.2867 209.024 55.2988C208.506 55.3455 208.289 55.1851 208.334 54.6736C208.387 54.0614 208.476 53.4431 208.636 52.8506C209.409 49.9821 209.765 47.053 209.91 44.0977C210.093 40.3686 210.3 36.6379 210.347 32.9062C210.382 30.2094 210.225 27.5065 210.06 24.8123C209.868 21.6851 209.388 18.5933 208.619 15.5513C208.56 15.3174 208.477 15.0896 208.398 14.861C208.193 14.2627 208.452 13.8337 209.087 13.8765C209.847 13.9276 210.607 14.0518 211.354 14.2058C212.978 14.5404 214.617 14.8083 216.271 14.7171C217.646 14.6414 219.017 14.4236 220.38 14.2037C221.445 14.0318 221.727 14.253 221.467 15.2987C221.126 16.6666 220.643 18.005 220.384 19.3864C219.675 23.1743 218.945 26.9636 218.423 30.7794C217.869 34.826 217.67 38.9124 217.645 43.0006C217.639 43.9928 217.712 44.9863 217.772 45.9777C217.812 46.6372 218.181 47.1115 218.796 47.2934C219.796 47.5893 220.81 47.8516 221.834 48.0465C222.488 48.1717 223.171 48.1499 223.842 48.1939Z" fill="white"/>
<path d="M245.279 27.8071C245.199 31.2254 244.486 34.5234 242.468 37.4333C241.212 39.2458 239.612 40.6662 237.47 41.3224C234.358 42.2756 231.628 41.4514 229.267 39.3193C226.976 37.2495 225.649 34.6043 224.958 31.6336C223.999 27.5095 224.243 23.4674 225.953 19.5608C226.807 17.6081 228.019 15.9108 229.763 14.6486C232.937 12.351 236.75 12.4646 239.835 14.9291C242.11 16.7464 243.478 19.1611 244.363 21.8822C244.982 23.7864 245.242 25.7513 245.279 27.8071ZM237.734 26.1241C237.677 24.9706 237.652 23.8144 237.555 22.6642C237.411 20.9628 237.177 19.2695 236.593 17.6539C236.413 17.1572 236.142 16.677 235.83 16.2488C235.513 15.8122 235.094 15.8035 234.73 16.1942C234.48 16.464 234.244 16.7875 234.122 17.1298C233.776 18.1016 233.405 19.078 233.197 20.0842C232.246 24.6692 232.145 29.2821 232.914 33.9053C233.099 35.0188 233.335 36.1265 233.87 37.138C234.07 37.5166 234.279 37.9733 234.757 37.9923C235.262 38.0123 235.53 37.5593 235.71 37.1664C236.073 36.3762 236.438 35.5733 236.671 34.7393C237.457 31.9254 237.693 29.0372 237.734 26.1241Z" fill="white"/>
<path d="M198.864 117.516C199.281 116.558 199.687 115.594 200.12 114.642C201.981 110.551 203.962 106.524 206.686 102.917C208.011 101.162 209.513 99.5683 211.282 98.2468C212.338 97.4584 213.49 96.9134 214.847 96.9355C216.623 96.9643 217.727 98.0108 217.901 99.7821C218.025 101.034 217.778 102.226 217.336 103.374C216.563 105.379 215.735 107.364 214.931 109.357C214.847 109.565 214.763 109.773 214.744 110.019C214.871 109.842 215.003 109.668 215.124 109.487C217.151 106.457 219.192 103.438 221.654 100.736C223.186 99.0546 224.898 97.5931 227.051 96.7385C228.097 96.3233 229.172 96.126 230.285 96.3924C231.981 96.7979 233.096 98.3905 232.955 100.128C232.865 101.233 232.567 102.28 232.027 103.234C230.755 105.478 229.488 107.727 228.13 109.919C225.053 114.883 222.38 120.035 220.569 125.605C219.969 127.45 219.486 129.32 219.385 131.271C219.333 132.274 219.382 133.262 219.755 134.208C219.858 134.468 219.986 134.726 220.148 134.953C220.697 135.723 221.415 135.937 222.306 135.616C223.2 135.293 223.917 134.707 224.581 134.052C226.443 132.213 227.955 130.117 229.17 127.803C229.557 127.066 229.952 126.332 230.325 125.587C230.403 125.43 230.461 125.217 230.422 125.055C230.008 123.325 230.189 121.608 230.502 119.892C230.883 117.808 231.607 115.824 232.261 113.819C233.145 111.112 234.017 108.402 234.87 105.685C235.025 105.191 235.079 104.661 235.14 104.142C235.186 103.743 235.337 103.458 235.724 103.308C237.066 102.788 238.632 103.044 239.138 104.853C239.425 105.882 239.25 106.891 238.966 107.875C238.145 110.727 237.259 113.562 236.454 116.419C235.823 118.655 235.255 120.909 234.7 123.165C234.486 124.039 234.386 124.946 234.593 125.844C234.997 127.597 236.475 128.207 238.061 127.203C238.747 126.769 239.345 126.134 239.85 125.487C241.372 123.539 242.389 121.305 243.18 118.985C243.533 117.951 243.587 116.82 243.861 115.754C244.675 112.579 245.544 109.418 246.361 106.244C246.571 105.428 246.675 104.584 246.808 103.75C246.861 103.417 247.004 103.198 247.343 103.135C247.763 103.057 248.184 102.94 248.608 102.923C249.503 102.887 250.18 103.351 250.526 104.186C250.889 105.058 250.941 105.981 250.754 106.883C250.339 108.895 249.888 110.901 249.393 112.895C248.711 115.646 247.927 118.373 247.284 121.133C247.031 122.22 247.013 123.368 246.945 124.491C246.905 125.141 247.133 125.735 247.621 126.202C247.981 126.546 248.386 126.67 248.878 126.525C249.789 126.257 250.51 125.712 251.115 125.006C252.224 123.712 253.125 122.282 253.826 120.729C254.445 119.357 255.032 117.971 255.65 116.599C255.805 116.256 255.811 115.955 255.677 115.599C254.796 113.263 254.425 110.862 254.688 108.359C255.162 103.857 258.519 99.8396 262.766 98.7902C264.319 98.4065 265.886 98.2288 267.47 98.6481C269.996 99.3167 271.464 101.206 271.491 103.817C271.519 106.593 270.319 108.822 268.407 110.72C267.924 111.199 267.385 111.639 266.816 112.012C265.463 112.897 263.965 112.852 262.871 111.956C261.639 110.948 261.212 109.385 261.8 107.885C261.954 107.493 262.185 107.113 262.454 106.789C262.763 106.417 263.212 106.406 263.562 106.742C264.85 107.984 266.647 107.898 267.935 107.16C269.324 106.365 270.054 104.742 269.75 103.082C269.655 102.559 269.532 102.018 269.296 101.548C268.526 100.019 267.089 99.3344 265.287 99.5638C260.72 100.145 257.805 104.223 258.651 108.822C259.029 110.876 259.885 112.737 260.907 114.53C261.985 116.422 263.121 118.281 264.182 120.182C265.537 122.61 266.632 125.146 267.134 127.904C267.442 129.598 267.528 131.293 267.203 132.995C267.18 133.113 267.175 133.234 267.153 133.427C267.665 133.382 268.151 133.335 268.638 133.296C270.178 133.172 271.716 132.992 273.258 132.943C275.218 132.882 277.183 132.878 279.142 132.942C281.05 133.004 282.956 133.19 284.776 133.827C285.29 134.007 285.794 134.257 286.249 134.557C287.005 135.057 287.379 135.801 287.369 136.715C287.363 137.279 287.374 137.848 287.3 138.404C287.218 139.019 286.889 139.141 286.32 138.874C285.215 138.355 284.129 137.78 282.988 137.357C280.888 136.58 278.684 136.208 276.474 135.886C273.676 135.479 270.859 135.351 268.034 135.349C267.644 135.349 267.252 135.344 266.867 135.391C266.717 135.41 266.512 135.538 266.457 135.669C263.951 141.605 259.287 144.914 253.217 146.42C250.455 147.106 247.665 147.02 244.969 145.972C241.678 144.694 239.995 142.207 239.594 138.76C239.453 137.548 239.623 136.37 239.925 135.21C240.714 132.178 244.282 130.031 247.273 130.801C248.814 131.198 249.808 132.217 250.256 133.74C250.348 134.052 250.344 134.406 250.322 134.736C250.288 135.235 250.027 135.471 249.522 135.508C248.606 135.575 247.711 135.706 246.868 136.113C244.052 137.472 243.452 140.436 244.578 142.846C245.19 144.157 246.377 144.741 247.718 144.892C250.751 145.233 253.66 144.805 256.248 143.064C258.577 141.497 260.129 139.305 261.148 136.715C261.274 136.395 261.376 136.066 261.521 135.649C260.956 135.7 260.478 135.721 260.007 135.788C257.267 136.181 254.53 136.588 251.791 136.979C251.434 137.03 251.066 137.044 250.707 137.019C250.57 137.009 250.357 136.855 250.337 136.738C250.311 136.594 250.405 136.357 250.526 136.273C250.74 136.125 251.009 136.045 251.264 135.968C253.421 135.318 255.645 135.014 257.865 134.696C259.089 134.522 260.313 134.349 261.538 134.189C261.824 134.151 261.91 134.003 261.938 133.739C262.125 131.914 261.967 130.113 261.59 128.327C261.135 126.173 260.211 124.208 259.128 122.307C258.357 120.952 257.604 119.587 256.842 118.227C256.811 118.171 256.767 118.124 256.684 118.012C256.6 118.182 256.534 118.303 256.48 118.43C255.455 120.788 254.335 123.097 252.821 125.189C252.118 126.161 251.369 127.112 250.348 127.762C249.746 128.146 249.071 128.46 248.386 128.66C246.906 129.092 245.675 128.598 244.656 127.471C243.712 126.428 243.313 125.165 243.107 123.815C243.084 123.662 243.055 123.508 242.941 123.337C242.873 123.458 242.8 123.576 242.738 123.7C241.836 125.462 240.767 127.105 239.178 128.328C238.62 128.758 237.992 129.13 237.343 129.405C235.562 130.163 233.928 129.838 232.469 128.58C232.112 128.273 231.748 127.974 231.388 127.672C231.405 127.631 231.422 127.59 231.439 127.55C231.367 127.7 231.289 127.848 231.223 128.002C229.882 131.156 228.074 133.992 225.538 136.331C224.424 137.358 223.18 138.2 221.676 138.478C218.372 139.09 215.539 137.125 214.766 133.806C214.196 131.355 214.482 128.947 215.005 126.538C215.869 122.547 217.522 118.866 219.386 115.263C221.379 111.414 223.595 107.704 226.086 104.154C226.793 103.147 227.375 102.048 227.944 100.954C228.165 100.528 228.242 100.006 228.291 99.5182C228.343 98.9977 228.054 98.7446 227.546 98.8524C227.146 98.9373 226.746 99.0955 226.392 99.3009C224.767 100.245 223.407 101.522 222.235 102.961C217.57 108.691 213.443 114.777 210.309 121.494C209.577 123.063 208.881 124.653 208.508 126.361C208.332 127.172 207.826 127.404 206.931 127.156C205.699 126.815 204.888 125.784 204.827 124.502C204.767 123.26 205.044 122.068 205.377 120.892C206.101 118.334 207.226 115.938 208.377 113.552C209.958 110.273 211.751 107.092 213.044 103.678C213.377 102.8 213.669 101.904 213.938 101.004C214.007 100.773 213.917 100.495 213.9 100.238C213.655 100.272 213.372 100.239 213.173 100.352C212.617 100.67 212.049 100.995 211.572 101.414C210.475 102.377 209.621 103.552 208.784 104.744C204.257 111.19 200.899 118.238 198.091 125.563C197.619 126.793 197.64 128.094 198.189 129.34C198.496 130.036 198.432 130.325 197.743 130.634C197.138 130.906 196.497 131.144 195.847 131.256C194.962 131.408 194.013 130.811 193.636 129.892C193.421 129.367 193.285 128.786 193.241 128.22C193.082 126.157 193.479 124.15 193.967 122.161C195.135 117.404 196.957 112.885 198.948 108.425C199.911 106.267 200.843 104.094 201.732 101.905C201.943 101.387 201.947 100.78 202.008 100.209C202.044 99.8778 201.83 99.7447 201.551 99.9184C200.937 100.3 200.273 100.642 199.759 101.136C198.19 102.642 196.676 104.206 195.152 105.76C194.247 106.683 193.353 107.617 192.198 108.237C191.057 108.85 189.864 109.028 188.622 108.572C187.172 108.04 186.489 106.833 186.796 105.321C186.967 104.474 187.35 103.726 187.964 103.106C188.258 102.81 188.584 102.737 188.943 102.979C190.173 103.809 191.426 103.683 192.694 103.078C193.983 102.463 195.054 101.542 196.143 100.644C197.149 99.8145 198.124 98.9365 199.199 98.2085C200.011 97.6585 200.926 97.2087 201.857 96.8949C203.682 96.2787 204.846 97.1623 204.938 99.1005C204.998 100.37 204.785 101.606 204.355 102.782C203.59 104.874 202.723 106.93 201.931 109.014C200.886 111.763 199.872 114.523 198.847 117.28C198.822 117.348 198.817 117.423 198.803 117.495C198.823 117.502 198.843 117.509 198.864 117.516Z" fill="white"/>
<path d="M284.977 118.391C284.522 119.356 284.153 120.237 283.702 121.074C282.45 123.393 280.964 125.553 278.984 127.315C278.35 127.879 277.62 128.384 276.852 128.737C275.069 129.558 273.023 128.954 271.862 127.37C270.88 126.028 270.514 124.483 270.437 122.86C270.316 120.305 270.745 117.814 271.538 115.401C272.447 112.632 273.467 109.9 274.433 107.15C274.95 105.68 275.457 104.207 275.961 102.732C276.057 102.45 276.204 102.243 276.522 102.247C277.032 102.252 277.549 102.23 278.051 102.304C279.216 102.474 279.724 103.054 279.861 104.224C279.999 105.415 279.785 106.561 279.409 107.675C278.419 110.615 277.379 113.539 276.395 116.482C275.697 118.571 274.99 120.662 274.654 122.85C274.558 123.471 274.537 124.107 274.522 124.737C274.514 125.041 274.567 125.357 274.649 125.651C275.023 126.996 275.866 127.388 277.039 126.63C277.852 126.105 278.634 125.461 279.254 124.721C281.588 121.931 283.419 118.815 284.846 115.474C285.102 114.876 285.097 114.163 285.189 113.5C285.647 110.207 286.594 107.073 288.229 104.164C289.432 102.022 290.986 100.193 293.062 98.8452C294.031 98.2164 295.075 97.7613 296.24 97.654C298.437 97.4515 300.139 98.4829 301.022 100.516C301.441 101.482 301.617 102.497 301.64 103.538C301.69 105.881 301.22 108.106 300.036 110.151C299.373 111.298 298.532 112.25 297.179 112.598C296.49 112.776 295.834 112.7 295.259 112.277C294.937 112.041 294.651 111.747 294.383 111.449C294.134 111.173 294.22 110.808 294.567 110.706C295.783 110.349 296.579 109.471 297.243 108.486C298.394 106.778 299.244 104.927 299.582 102.873C299.724 102.008 299.557 101.186 299.165 100.411C298.93 99.9474 298.639 99.8332 298.128 99.9795C297.398 100.189 296.878 100.698 296.396 101.247C295.12 102.698 294.196 104.362 293.513 106.159C292.088 109.908 291.179 113.789 290.673 117.761C290.493 119.171 290.363 120.598 290.362 122.017C290.36 123.012 290.568 124.018 290.772 125C290.913 125.687 291.277 126.301 291.79 126.804C292.449 127.452 293.121 127.532 293.904 127.042C294.142 126.893 294.377 126.724 294.57 126.523C296.093 124.936 296.915 123.037 297.008 120.842C297.045 119.973 296.744 119.233 295.918 118.79C295.601 118.619 295.57 118.332 295.778 118.076C295.951 117.864 296.174 117.653 296.421 117.548C298.73 116.562 300.61 118.18 300.763 119.886C300.882 121.211 300.647 122.454 300.127 123.658C299.397 125.348 298.311 126.759 296.809 127.836C294.013 129.841 290.566 129.473 288.256 126.917C286.617 125.105 285.76 122.926 285.322 120.559C285.196 119.876 285.103 119.187 284.977 118.391Z" fill="white"/>
<path d="M281.152 98.3462C281.15 99.6999 280.1 100.876 278.897 100.875C277.605 100.873 276.48 99.7387 276.488 98.4454C276.496 97.1405 277.659 95.9429 278.907 95.9537C280.107 95.964 281.155 97.0806 281.152 98.3462Z" fill="white"/>
<path d="M230.645 90.688C230.192 90.6403 230.093 91.0223 230.027 91.2792C229.779 92.24 229.266 93.0608 228.503 93.7181C228.172 94.0045 227.751 94.1403 227.35 94.0886C227.041 94.0495 226.783 93.9011 226.624 93.6709C226.047 92.8411 225.997 91.883 226.055 91.0239C226.08 91.0345 226.102 91.0445 226.123 91.055C227.13 91.5484 227.998 91.4041 228.776 90.6155C229 90.3882 229.192 90.1438 229.345 89.8891C229.918 88.9404 230.086 88.0283 229.858 87.1013C229.704 86.474 229.323 86.0044 228.811 85.8127C228.308 85.6236 227.748 85.7186 227.234 86.0787C226.91 86.306 226.466 86.6791 226.19 87.1638C225.717 87.9946 225.385 88.7363 225.173 89.4311C224.886 90.3734 224.452 91.3256 223.807 92.4277C223.597 92.7863 223.31 93.1032 223.084 93.3395C223.019 93.4072 222.88 93.4626 222.784 93.4634C222.752 93.4057 222.712 93.2715 222.714 93.1863L222.717 93.0798C222.726 92.738 222.736 92.385 222.836 92.081C223.039 91.4695 223.265 90.8533 223.484 90.2574C223.674 89.7422 223.863 89.227 224.04 88.7076C224.209 88.2132 224.303 87.7773 224.329 87.3752C224.355 86.9547 224.227 86.605 223.97 86.3912C223.7 86.1671 223.308 86.1051 222.865 86.2161C222.092 86.4107 221.559 86.9412 221.12 87.4232C219.907 88.7534 219.108 90.3442 218.463 91.7825C218.533 91.5038 218.602 91.2246 218.67 90.9453C218.917 89.9429 219.172 88.9061 219.481 87.9073C219.759 87.0127 220.098 86.118 220.427 85.2527C220.583 84.8413 220.739 84.4297 220.89 84.0166C220.952 83.846 221.118 83.3922 220.665 83.1752C220.201 82.9519 219.967 83.3827 219.879 83.5446C219.819 83.6543 219.772 83.7571 219.734 83.8586C219.595 84.2323 219.452 84.6051 219.31 84.9777C218.978 85.8459 218.634 86.744 218.34 87.6436C217.85 89.1429 217.295 90.8422 216.426 92.385C216.182 92.8179 215.854 93.2422 215.451 93.6451C215.325 93.7714 215.199 93.8289 215.096 93.8072C214.991 93.7853 214.898 93.6809 214.833 93.5132C214.641 93.0196 214.543 92.5688 214.542 92.1735C214.537 90.5788 215.074 89.0577 215.593 87.5867L215.634 87.4688C215.653 87.4316 215.757 87.3697 215.799 87.3694C216.635 87.3697 217.284 86.9636 217.809 86.5663C218.15 86.3081 218.226 85.9743 218.014 85.673C217.874 85.4757 217.61 85.3012 217.142 85.5907C217.073 85.6339 217.003 85.679 216.935 85.7241C216.788 85.8196 216.65 85.91 216.503 85.9838C216.409 86.0308 216.303 86.0658 216.174 86.1062C216.207 86.017 216.235 85.9451 216.269 85.876C216.382 85.6416 216.497 85.4085 216.613 85.1754C216.725 84.9518 216.836 84.728 216.945 84.5033C217.15 84.0796 217.086 83.7808 216.754 83.6158C216.615 83.5464 216.481 83.5327 216.356 83.5747C216.152 83.6432 216.033 83.842 215.962 83.9857L215.73 84.4511C215.499 84.9133 215.259 85.3914 215.039 85.8697C214.983 85.9909 214.945 86.0155 214.931 86.0205C214.909 86.0279 214.861 86.017 214.803 85.9888C214.642 85.9113 214.48 85.8367 214.317 85.7621C214.011 85.621 213.694 85.4752 213.396 85.3125L213.066 85.1311C211.875 84.4743 210.643 83.7951 209.196 83.6833C208.243 83.6092 207.158 83.6398 206.304 84.4226C206.054 84.6515 205.793 85.0947 205.788 85.4399C205.783 85.7963 205.998 85.9472 206.199 85.9693C206.403 85.9933 206.725 85.8383 206.8 85.6331C206.934 85.2653 207.197 85.057 207.707 84.9144C208.655 84.6486 209.656 84.7715 210.765 85.2906C211.664 85.7117 212.524 86.1697 213.434 86.6549C213.781 86.8397 214.129 87.0253 214.481 87.2096L214.403 87.4353C214.304 87.7209 214.2 88.0204 214.102 88.3218C213.696 89.5706 213.27 91.0313 213.368 92.5674C213.401 93.0911 213.496 93.7679 213.946 94.3591C214.487 95.0694 215.288 95.2139 215.988 94.7267C216.284 94.521 216.53 94.2502 216.768 93.9881C216.84 93.909 216.911 93.8302 216.984 93.7532C217.032 93.7028 217.074 93.649 217.113 93.5942C217.116 93.6087 217.118 93.6232 217.121 93.6377C217.141 93.7513 217.162 93.8687 217.209 93.9805C217.245 94.0672 217.444 94.5039 217.753 94.5793C218 94.6402 218.362 94.4717 218.529 94.2826C218.752 94.0306 218.898 93.7205 219.04 93.4207L219.06 93.3785C219.204 93.0734 219.342 92.7647 219.479 92.4559C219.666 92.0359 219.86 91.6014 220.068 91.1855C220.655 90.0167 221.343 88.8035 222.394 87.8504C222.549 87.7098 222.744 87.5769 222.989 87.4443C223.017 87.4287 223.076 87.4264 223.133 87.4258C223.139 87.4752 223.142 87.5221 223.134 87.5529C223.007 87.9954 222.885 88.3806 222.758 88.7305C222.635 89.0722 222.507 89.4126 222.378 89.7525C222.163 90.3207 221.941 90.9084 221.747 91.4962C221.488 92.2795 221.428 92.9835 221.564 93.648C221.655 94.0965 221.897 94.4379 222.245 94.6091C222.576 94.7717 222.968 94.7586 223.35 94.5716C223.754 94.3736 224.073 94.0598 224.269 93.8318C224.504 93.5578 224.698 93.2622 224.905 92.9495C224.929 92.9134 224.953 92.877 224.977 92.8406C224.977 92.843 224.978 92.8456 224.979 92.8477C225.051 93.0977 225.119 93.3337 225.213 93.5668C225.564 94.4419 226.234 95.0481 227.052 95.2289C227.21 95.264 227.37 95.2825 227.531 95.2846C228.205 95.293 228.882 95.0154 229.445 94.4878C230.156 93.8215 230.701 92.9769 231.112 91.9062C231.163 91.7748 231.189 91.6201 231.197 91.4189C231.211 91.0033 231.004 90.7297 230.645 90.688ZM226.465 89.3058L226.512 89.1925C226.698 88.7471 226.891 88.2867 227.144 87.8809C227.333 87.5775 227.609 87.2885 227.919 87.067C228.02 86.9945 228.159 86.918 228.289 86.9199C228.319 86.9204 228.348 86.9249 228.377 86.9344C228.544 86.9913 228.64 87.2067 228.692 87.3776C228.729 87.4997 228.747 87.632 228.763 87.7488C228.769 87.7924 228.775 87.8332 228.781 87.8704C228.711 88.7656 228.4 89.4271 227.804 89.951C227.558 90.1667 227.275 90.235 226.936 90.1612C226.641 90.0966 226.466 90.0022 226.399 89.8735C226.335 89.7493 226.356 89.564 226.465 89.3058Z" fill="white"/>
<path d="M211.238 89.5838C211.1 89.535 210.833 89.5068 210.589 89.868C210.463 90.0531 210.381 90.2849 210.337 90.4093C210.326 90.4399 210.318 90.4636 210.312 90.4771C210.207 90.7123 210.106 90.9499 210.006 91.1872C209.786 91.7058 209.557 92.2424 209.291 92.7431C209.054 93.189 208.723 93.643 208.306 94.0926C208.215 94.1914 208.148 94.2094 208.13 94.202C208.111 94.1949 208.072 94.1358 208.07 93.999C208.062 93.4447 208.067 92.861 208.23 92.3505C208.465 91.6127 208.751 90.8747 209.029 90.1612C209.194 89.7362 209.359 89.3111 209.515 88.8832C209.694 88.3912 209.796 88.0104 209.846 87.6484C209.904 87.2244 209.798 86.8685 209.546 86.6454C209.306 86.4329 208.962 86.3717 208.578 86.473C208.133 86.5906 207.675 86.8643 207.353 87.2055C206.944 87.6381 206.58 88.1209 206.228 88.5879C206.137 88.7081 206.047 88.8278 205.955 88.9473C205.964 88.8961 205.974 88.845 205.983 88.7935C206.051 88.4165 206.121 88.0265 206.152 87.6358C206.192 87.1345 205.977 86.7459 205.563 86.5695C205.179 86.406 204.783 86.4933 204.418 86.8239C204.159 87.0586 203.945 87.2859 203.765 87.519C203.032 88.4653 202.55 89.5558 202.083 90.6105C202 90.7996 201.916 90.9889 201.831 91.1774C201.436 92.0507 201.026 92.9013 200.61 93.7052C200.525 93.8695 200.39 94.0224 200.234 94.1996C200.204 94.2336 200.173 94.2687 200.142 94.3048C200.138 94.2966 200.135 94.2887 200.131 94.2806C200.07 94.1508 200.022 94.0483 200.021 93.9673C200.019 93.8632 200.017 93.7585 200.014 93.6533C200.002 93.2214 199.991 92.7747 200.09 92.3753C200.434 90.9857 201.065 89.6054 201.967 88.2733C202.011 88.2082 202.062 88.1478 202.112 88.0872C202.145 88.0474 202.179 88.007 202.211 87.9659C202.568 87.5042 202.363 87.2192 202.21 87.0902C201.943 86.8666 201.654 86.9236 201.352 87.2587C201.227 87.3971 201.105 87.5514 200.989 87.7175C200.211 88.8323 199.596 90.0697 199.109 91.5004C198.764 92.5174 198.677 93.3635 198.838 94.1635C198.951 94.7296 199.162 95.3326 199.864 95.5124C199.959 95.5367 200.052 95.5496 200.144 95.5507C200.58 95.5562 200.972 95.2999 201.29 94.7971C201.845 93.9193 202.257 93.1771 202.587 92.461C202.754 92.1 202.911 91.7345 203.068 91.3694C203.5 90.3653 203.947 89.327 204.589 88.416C204.696 88.2636 204.818 88.1228 204.947 87.9738C204.951 87.9693 204.955 87.9648 204.959 87.9603C204.948 88.0097 204.938 88.0587 204.928 88.108C204.869 88.3917 204.808 88.6849 204.721 88.9607C204.5 89.6663 204.272 90.3698 204.044 91.0733C203.754 91.9658 203.465 92.8583 203.188 93.7551C202.936 94.5722 203.299 94.8308 203.538 94.9123C204.058 95.09 204.346 94.6542 204.537 94.2547C204.714 93.8858 204.887 93.5151 205.059 93.1441C205.368 92.4799 205.688 91.7931 206.027 91.1326C206.726 89.7741 207.429 88.7772 208.239 87.9954C208.348 87.8907 208.481 87.8061 208.623 87.7164C208.629 87.7128 208.635 87.7088 208.641 87.7051C208.624 87.7584 208.607 87.8119 208.59 87.8654C208.511 88.1172 208.429 88.378 208.336 88.6266C208.187 89.0224 208.033 89.4163 207.88 89.8103C207.627 90.4571 207.366 91.1255 207.132 91.7926C206.801 92.737 206.731 93.5721 206.918 94.3449C207.043 94.8585 207.325 95.2203 207.713 95.3635C208.08 95.499 208.5 95.4167 208.895 95.132C209.362 94.7947 209.776 94.333 210.031 93.8658C210.43 93.1331 210.774 92.3581 211.107 91.6088C211.217 91.3614 211.327 91.1139 211.439 90.8676C211.441 90.8618 211.704 90.2633 211.536 89.8662C211.478 89.7298 211.375 89.6326 211.238 89.5838Z" fill="white"/>
<path d="M202.522 86.4622C202.533 86.4627 202.544 86.4632 202.555 86.4632C202.808 86.4664 203.046 86.3765 203.228 86.2077C203.426 86.0237 203.54 85.7642 203.549 85.4773C203.566 84.9387 203.284 84.631 202.756 84.6109C202.141 84.5877 201.702 84.9508 201.673 85.514C201.66 85.7724 201.739 86.0097 201.897 86.1824C202.05 86.3517 202.273 86.4511 202.522 86.4622Z" fill="white"/>
</g>
<defs>
<clipPath id="clip0_2756_150">
<rect width="135" height="135" fill="white" transform="translate(180 13)"/>
</clipPath>
</defs>
</svg>
