<svg width="425" height="298" viewBox="0 0 425 298" fill="none" xmlns="http://www.w3.org/2000/svg">
<path d="M0 8C0 3.58172 3.58172 0 8 0H417C421.418 0 425 3.58172 425 8V290C425 294.418 421.418 298 417 298H7.99999C3.58171 298 0 294.418 0 290V8Z" fill="url(#paint0_linear_2590_2013)"/>
<path d="M202.244 24.9078C202.798 24.8057 203.433 24.7255 204.148 24.6671C204.877 24.6088 205.541 24.5796 206.139 24.5796C206.811 24.5796 207.445 24.6525 208.043 24.7984C208.656 24.9443 209.189 25.185 209.641 25.5206C210.108 25.8562 210.48 26.2938 210.757 26.8337C211.034 27.3735 211.173 28.03 211.173 28.8033C211.173 29.9996 210.845 30.9698 210.188 31.7139C209.531 32.458 208.7 32.954 207.693 33.202L208.744 34.0118L212.552 40.0737H210.429L206.205 33.4646L204.06 33.1364V40.0737H202.244V24.9078ZM206.183 26.1552C205.993 26.1552 205.797 26.1552 205.592 26.1552C205.388 26.1552 205.191 26.1625 205.001 26.1771C204.812 26.1917 204.629 26.2063 204.454 26.2209C204.294 26.2355 204.162 26.2574 204.06 26.2866V31.9327H205.767C206.774 31.9327 207.606 31.6847 208.262 31.1887C208.919 30.6926 209.247 29.9194 209.247 28.8689C209.247 28.0811 208.977 27.4318 208.437 26.9212C207.897 26.4106 207.146 26.1552 206.183 26.1552ZM214.822 24.9078C215.376 24.8057 216.011 24.7255 216.725 24.6671C217.455 24.6088 218.119 24.5796 218.717 24.5796C219.388 24.5796 220.023 24.6525 220.621 24.7984C221.234 24.9443 221.766 25.185 222.218 25.5206C222.685 25.8562 223.057 26.2938 223.335 26.8337C223.612 27.3735 223.75 28.03 223.75 28.8033C223.75 29.9996 223.422 30.9698 222.766 31.7139C222.109 32.458 221.277 32.954 220.271 33.202L221.321 34.0118L225.129 40.0737H223.006L218.783 33.4646L216.638 33.1364V40.0737H214.822V24.9078ZM218.761 26.1552C218.571 26.1552 218.374 26.1552 218.17 26.1552C217.966 26.1552 217.769 26.1625 217.579 26.1771C217.389 26.1917 217.207 26.2063 217.032 26.2209C216.871 26.2355 216.74 26.2574 216.638 26.2866V31.9327H218.345C219.352 31.9327 220.183 31.6847 220.84 31.1887C221.496 30.6926 221.825 29.9194 221.825 28.8689C221.825 28.0811 221.555 27.4318 221.015 26.9212C220.475 26.4106 219.724 26.1552 218.761 26.1552ZM227.815 24.7546H229.631V40.0737H227.815V24.7546ZM236.088 30.0507L234.906 27.8403H234.818L235.037 30.0507V40.0737H233.33V24.5139H234.293L241.624 34.7339L242.762 36.8348H242.872L242.631 34.7339V24.7546H244.338V40.3145H243.375L236.088 30.0507ZM254.533 36.1783C254.533 35.5655 254.35 35.0695 253.986 34.6902C253.621 34.2962 253.161 33.9534 252.607 33.6616C252.067 33.3552 251.476 33.0707 250.834 32.8081C250.192 32.5455 249.594 32.2318 249.04 31.8671C248.5 31.4877 248.048 31.0282 247.683 30.4884C247.318 29.934 247.136 29.2337 247.136 28.3875C247.136 27.1911 247.552 26.2428 248.383 25.5425C249.215 24.8422 250.397 24.492 251.929 24.492C252.819 24.492 253.628 24.5577 254.358 24.689C255.087 24.8203 255.656 24.9881 256.065 25.1923L255.518 26.7899C255.182 26.6294 254.686 26.4762 254.029 26.3303C253.388 26.1844 252.658 26.1115 251.841 26.1115C250.878 26.1115 250.156 26.3303 249.674 26.768C249.193 27.1911 248.952 27.6945 248.952 28.278C248.952 28.847 249.135 29.3212 249.499 29.7005C249.864 30.0799 250.316 30.4227 250.856 30.7291C251.411 31.0209 252.009 31.3127 252.651 31.6045C253.293 31.8963 253.884 32.2391 254.423 32.633C254.978 33.0124 255.437 33.4719 255.802 34.0118C256.167 34.5516 256.349 35.2227 256.349 36.0251C256.349 36.6816 256.233 37.2725 255.999 37.7978C255.766 38.323 255.423 38.7753 254.971 39.1546C254.518 39.5339 253.971 39.8257 253.329 40.03C252.687 40.2342 251.958 40.3363 251.141 40.3363C250.047 40.3363 249.142 40.2488 248.427 40.0737C247.712 39.9132 247.158 39.7309 246.764 39.5266L247.377 37.8853C247.712 38.075 248.208 38.2646 248.865 38.4543C249.521 38.6294 250.258 38.7169 251.075 38.7169C251.557 38.7169 252.009 38.6731 252.432 38.5856C252.855 38.4835 253.22 38.3303 253.526 38.126C253.833 37.9072 254.073 37.6373 254.248 37.3163C254.438 36.9953 254.533 36.616 254.533 36.1783Z" fill="white"/>
<path d="M181.275 26.3741H176.505V40.0737H174.688V26.3741H169.917V24.7546H181.275V26.3741Z" fill="white"/>
<circle cx="189.844" cy="33.247" r="7.34503" stroke="#222222" stroke-width="1.65643"/>
<line x1="179.824" y1="29.833" x2="199.688" y2="29.833" stroke="#222222" stroke-width="0.414108"/>
<line x1="179.824" y1="33.039" x2="199.688" y2="33.039" stroke="#222222" stroke-width="0.414108"/>
<line x1="179.824" y1="36.1692" x2="199.688" y2="36.1692" stroke="#222222" stroke-width="0.414108"/>
<g clip-path="url(#clip0_2590_2013)">
<path d="M132.474 220.986C92.6927 221.814 57.5742 186.675 58.3919 146.909C57.932 110.984 86.1119 78.2812 121.771 73.5935C225.935 62.2484 237.073 217.267 132.474 220.986Z" fill="#38160F"/>
<path d="M202.136 146.72C202.136 150.082 201.901 153.384 201.43 156.62C197.936 181.243 170.842 160.334 148.616 169.63C144.49 171.358 150.874 214.082 146.388 214.994C141.894 215.906 137.239 216.384 132.473 216.384C118.146 216.384 104.827 212.059 93.7581 204.646C93.2433 204.3 94.8595 200.165 94.3519 199.812C94.1386 199.658 94.3773 198.089 94.164 197.935C93.4211 197.398 90.1177 202.042 89.4043 201.476C83.1235 196.541 77.725 190.547 73.4596 183.766C73.2535 183.442 73.0477 183.111 72.8419 182.78C66.4727 172.263 62.8027 159.922 62.8027 146.721C62.8027 120.987 76.7543 98.5112 97.5093 86.4495C97.7593 86.3024 98.0169 86.1552 98.2742 86.0081C102.224 83.7869 106.408 81.9338 110.792 80.4994C114.444 79.3044 117.323 89.1375 121.11 88.507C121.243 88.4851 124.874 88.1535 125.007 88.1315C125.227 88.1021 122.794 77.7195 123.015 77.69C126.111 77.2634 129.267 77.05 132.473 77.05C170.945 77.05 202.136 108.241 202.136 146.72Z" fill="#FEAF44"/>
<path d="M146.813 132.838C145.394 145.214 143.975 157.591 142.556 169.967C109.983 161.022 88.0686 137.66 81.4375 104.513C93.3862 103.817 105.335 103.121 117.284 102.424C121.589 118.523 130.813 128.117 146.813 132.838Z" fill="#FBEEE5"/>
<path d="M87.906 117.573C87.8219 117.573 87.7447 117.517 87.7216 117.432C87.6939 117.33 87.754 117.225 87.8557 117.197L115.438 109.701C115.542 109.674 115.645 109.734 115.673 109.835C115.701 109.937 115.64 110.042 115.539 110.07L87.9563 117.566C87.9393 117.571 87.9225 117.573 87.906 117.573Z" fill="#38160F"/>
<path d="M88.9188 120.333C88.8381 120.333 88.763 120.281 88.7367 120.2C88.7046 120.1 88.7598 119.992 88.8604 119.96L116.019 111.231C116.12 111.198 116.227 111.254 116.259 111.354C116.291 111.455 116.236 111.562 116.135 111.594L88.9772 120.324C88.9578 120.33 88.9378 120.333 88.9188 120.333Z" fill="#38160F"/>
<path d="M90.0339 123.042C89.9561 123.042 89.8833 122.994 89.8549 122.918C89.8179 122.819 89.8682 122.709 89.9674 122.672L116.655 112.731C116.754 112.694 116.864 112.744 116.901 112.843C116.938 112.942 116.888 113.052 116.789 113.089L90.1006 123.03C90.0787 123.038 90.0564 123.042 90.0339 123.042Z" fill="#38160F"/>
<path d="M91.2496 125.698C91.1753 125.698 91.1048 125.654 91.0739 125.582C91.0325 125.484 91.0779 125.372 91.1751 125.331L117.347 114.201C117.442 114.159 117.556 114.204 117.598 114.302C117.639 114.399 117.594 114.511 117.497 114.552L91.3245 125.683C91.3002 125.693 91.2748 125.698 91.2496 125.698Z" fill="#38160F"/>
<path d="M92.5642 128.298C92.4931 128.298 92.4249 128.258 92.3919 128.19C92.3463 128.095 92.3862 127.98 92.4816 127.935L118.093 115.638C118.186 115.593 118.302 115.632 118.348 115.728C118.393 115.823 118.354 115.937 118.258 115.983L92.6469 128.279C92.6206 128.292 92.5923 128.298 92.5642 128.298Z" fill="#38160F"/>
<path d="M94.6659 129.142C94.5988 129.142 94.5338 129.107 94.4988 129.044C91.6405 123.938 90.4363 121.177 88.6421 115.613C88.6097 115.512 88.6646 115.404 88.7652 115.372C88.8661 115.34 88.9737 115.395 89.0057 115.495C90.791 121.03 91.9889 123.778 94.8324 128.858C94.8838 128.95 94.8509 129.066 94.759 129.118C94.7295 129.134 94.6974 129.142 94.6659 129.142Z" fill="#38160F"/>
<path d="M98.8933 127.577C98.8693 127.588 98.8329 127.57 98.8051 127.533C97.2736 125.454 96.5484 124.367 95.1956 122.108C95.167 122.06 95.1638 122.004 95.1886 121.982C95.2129 121.961 95.2563 121.982 95.2849 122.03C96.6348 124.286 97.3581 125.371 98.886 127.446C98.9181 127.49 98.9265 127.545 98.9042 127.569C98.9008 127.572 98.897 127.575 98.8933 127.577Z" fill="#38160F"/>
<path d="M98.8828 127.436C98.8828 127.436 97.4381 126.932 97.358 127.798C97.2779 128.665 98.2899 129.592 98.7339 128.983C99.1779 128.373 98.8828 127.436 98.8828 127.436Z" fill="#38160F"/>
<path d="M100.37 121.403C100.345 121.412 100.311 121.394 100.287 121.357C98.9847 119.324 98.3733 118.265 97.2468 116.066C97.2231 116.02 97.2254 115.967 97.252 115.949C97.2783 115.93 97.3194 115.953 97.3431 115.999C98.4667 118.194 99.0766 119.251 100.376 121.28C100.404 121.323 100.406 121.375 100.381 121.396C100.378 121.399 100.374 121.401 100.37 121.403Z" fill="#38160F"/>
<path d="M100.375 121.27C100.375 121.27 98.9947 120.716 98.827 121.524C98.6594 122.332 99.5656 123.259 100.068 122.712C100.57 122.165 100.375 121.27 100.375 121.27Z" fill="#38160F"/>
<path d="M106.363 123.401C106.339 123.412 106.305 123.398 106.281 123.367C104.935 121.613 104.296 120.694 103.098 118.777C103.073 118.736 103.073 118.687 103.098 118.667C103.123 118.648 103.165 118.664 103.19 118.705C104.385 120.618 105.023 121.536 106.365 123.286C106.393 123.323 106.397 123.371 106.374 123.393C106.371 123.396 106.367 123.399 106.363 123.401Z" fill="#38160F"/>
<path d="M106.362 123.276C106.362 123.276 104.995 122.909 104.863 123.682C104.73 124.455 105.648 125.225 106.117 124.657C106.586 124.089 106.362 123.276 106.362 123.276Z" fill="#38160F"/>
<path d="M107.554 118.447C107.53 118.456 107.497 118.442 107.476 118.411C106.312 116.691 105.763 115.792 104.746 113.92C104.724 113.881 104.729 113.835 104.756 113.818C104.783 113.801 104.822 113.819 104.844 113.858C105.858 115.726 106.406 116.623 107.567 118.339C107.591 118.375 107.591 118.421 107.566 118.44C107.562 118.443 107.558 118.445 107.554 118.447Z" fill="#38160F"/>
<path d="M107.566 118.33C107.566 118.33 106.245 117.912 106.04 118.633C105.834 119.354 106.669 120.127 107.189 119.617C107.708 119.107 107.566 118.33 107.566 118.33Z" fill="#38160F"/>
<path d="M112.437 120.187C112.413 120.197 112.381 120.188 112.359 120.161C111.158 118.672 110.585 117.889 109.507 116.25C109.484 116.215 109.487 116.172 109.513 116.153C109.538 116.135 109.578 116.148 109.6 116.182C110.675 117.817 111.247 118.598 112.445 120.084C112.47 120.115 112.472 120.158 112.448 120.179C112.445 120.182 112.441 120.185 112.437 120.187Z" fill="#38160F"/>
<path d="M112.443 120.076C112.443 120.076 111.137 119.822 110.964 120.52C110.791 121.219 111.636 121.859 112.123 121.323C112.611 120.789 112.443 120.076 112.443 120.076Z" fill="#38160F"/>
<path d="M114.103 115.625C114.078 115.634 114.047 115.623 114.028 115.597C112.995 114.162 112.506 113.409 111.593 111.835C111.574 111.802 111.58 111.762 111.608 111.746C111.635 111.73 111.673 111.745 111.693 111.778C112.603 113.348 113.091 114.099 114.121 115.53C114.143 115.561 114.14 115.6 114.114 115.619C114.111 115.621 114.107 115.623 114.103 115.625Z" fill="#38160F"/>
<path d="M114.121 115.523C114.121 115.523 112.855 115.225 112.613 115.865C112.371 116.506 113.139 117.14 113.676 116.665C114.212 116.191 114.121 115.523 114.121 115.523Z" fill="#38160F"/>
<path d="M98.4561 137.684C98.3965 137.684 98.3379 137.656 98.3003 137.604C98.239 137.518 98.2587 137.399 98.3445 137.338L121.418 120.818C121.503 120.756 121.623 120.776 121.685 120.862C121.746 120.948 121.726 121.067 121.64 121.128L98.5671 137.648C98.5336 137.672 98.4945 137.684 98.4561 137.684Z" fill="#38160F"/>
<path d="M100.213 139.982C100.156 139.982 100.1 139.957 100.063 139.909C99.9972 139.826 100.011 139.706 100.094 139.641L122.406 122.083C122.488 122.018 122.609 122.032 122.674 122.115C122.739 122.198 122.725 122.318 122.642 122.383L100.331 139.941C100.296 139.968 100.254 139.982 100.213 139.982Z" fill="#38160F"/>
<path d="M102.054 142.21C102.001 142.21 101.947 142.188 101.91 142.144C101.841 142.064 101.85 141.944 101.929 141.875L123.439 123.309C123.519 123.24 123.64 123.248 123.709 123.328C123.778 123.408 123.769 123.529 123.689 123.598L102.179 142.164C102.143 142.195 102.099 142.21 102.054 142.21Z" fill="#38160F"/>
<path d="M103.98 144.366C103.929 144.366 103.879 144.346 103.841 144.306C103.769 144.23 103.772 144.109 103.849 144.036L124.519 124.493C124.596 124.421 124.717 124.424 124.789 124.501C124.862 124.577 124.858 124.699 124.782 124.771L104.112 144.314C104.074 144.349 104.027 144.366 103.98 144.366Z" fill="#38160F"/>
<path d="M105.985 146.448C105.937 146.448 105.889 146.43 105.852 146.394C105.776 146.321 105.774 146.2 105.848 146.124L125.641 125.636C125.715 125.56 125.836 125.558 125.912 125.631C125.988 125.705 125.99 125.826 125.917 125.902L106.123 146.39C106.085 146.429 106.035 146.448 105.985 146.448Z" fill="#38160F"/>
<path d="M108.181 146.569C108.134 146.569 108.087 146.551 108.05 146.516C103.868 142.525 101.924 140.27 98.5966 135.548C98.5356 135.462 98.5561 135.343 98.6426 135.282C98.729 135.221 98.849 135.242 98.9088 135.328C102.219 140.025 104.153 142.269 108.313 146.239C108.39 146.312 108.392 146.433 108.32 146.51C108.282 146.549 108.232 146.569 108.181 146.569Z" fill="#38160F"/>
<path d="M111.652 143.634C111.633 143.652 111.594 143.648 111.557 143.62C109.502 142.104 108.502 141.292 106.573 139.565C106.532 139.529 106.512 139.476 106.528 139.447C106.544 139.418 106.59 139.424 106.631 139.461C108.556 141.184 109.554 141.995 111.605 143.509C111.648 143.541 111.672 143.592 111.659 143.622C111.658 143.627 111.655 143.631 111.652 143.634Z" fill="#38160F"/>
<path d="M111.599 143.5C111.599 143.5 110.112 143.489 110.307 144.36C110.501 145.23 111.722 145.799 111.942 145.058C112.162 144.316 111.599 143.5 111.599 143.5Z" fill="#38160F"/>
<path d="M111.114 137.148C111.094 137.164 111.057 137.158 111.024 137.131C109.207 135.602 108.326 134.789 106.635 133.067C106.599 133.031 106.585 132.98 106.604 132.953C106.623 132.927 106.668 132.935 106.703 132.971C108.391 134.689 109.27 135.501 111.082 137.027C111.121 137.059 111.139 137.108 111.123 137.137C111.12 137.141 111.117 137.145 111.114 137.148Z" fill="#38160F"/>
<path d="M111.078 137.018C111.078 137.018 109.641 136.945 109.733 137.783C109.825 138.62 110.941 139.214 111.236 138.516C111.53 137.818 111.078 137.018 111.078 137.018Z" fill="#38160F"/>
<path d="M117.24 137.084C117.222 137.103 117.186 137.101 117.154 137.079C115.373 135.819 114.504 135.141 112.822 133.695C112.787 133.664 112.772 133.617 112.789 133.589C112.807 133.562 112.85 133.564 112.885 133.594C114.562 135.038 115.429 135.714 117.206 136.972C117.244 136.998 117.262 137.044 117.248 137.073C117.246 137.078 117.244 137.081 117.24 137.084Z" fill="#38160F"/>
<path d="M117.202 136.963C117.202 136.963 115.829 137.061 115.945 137.857C116.062 138.654 117.147 139.099 117.403 138.39C117.659 137.681 117.202 136.963 117.202 136.963Z" fill="#38160F"/>
<path d="M116.819 131.879C116.799 131.896 116.765 131.893 116.736 131.87C115.143 130.598 114.369 129.918 112.876 128.472C112.845 128.442 112.835 128.396 112.855 128.371C112.875 128.345 112.916 128.349 112.948 128.38C114.436 129.822 115.209 130.501 116.798 131.77C116.832 131.797 116.845 131.841 116.828 131.869C116.826 131.872 116.823 131.876 116.819 131.879Z" fill="#38160F"/>
<path d="M116.795 131.762C116.795 131.762 115.454 131.801 115.484 132.566C115.514 133.332 116.518 133.801 116.84 133.133C117.162 132.465 116.795 131.762 116.795 131.762Z" fill="#38160F"/>
<path d="M121.842 131.935C121.824 131.954 121.791 131.955 121.763 131.936C120.197 130.886 119.431 130.319 117.946 129.101C117.914 129.075 117.904 129.033 117.922 129.006C117.94 128.98 117.98 128.979 118.012 129.005C119.494 130.219 120.257 130.785 121.819 131.832C121.851 131.854 121.866 131.896 121.851 131.924C121.848 131.928 121.845 131.932 121.842 131.935Z" fill="#38160F"/>
<path d="M121.814 131.825C121.814 131.825 120.534 132.013 120.59 132.75C120.646 133.487 121.622 133.83 121.905 133.147C122.189 132.464 121.814 131.825 121.814 131.825Z" fill="#38160F"/>
<path d="M121.979 126.953C121.959 126.97 121.928 126.971 121.902 126.952C120.518 125.912 119.842 125.352 118.536 124.157C118.508 124.132 118.503 124.091 118.523 124.067C118.543 124.043 118.583 124.043 118.61 124.069C119.913 125.261 120.587 125.819 121.968 126.856C121.997 126.878 122.006 126.917 121.988 126.944C121.985 126.947 121.982 126.951 121.979 126.953Z" fill="#38160F"/>
<path d="M121.965 126.848C121.965 126.848 120.712 126.986 120.683 127.685C120.655 128.385 121.554 128.742 121.903 128.102C122.252 127.463 121.965 126.848 121.965 126.848Z" fill="#38160F"/>
<path d="M114.361 153.678C114.324 153.678 114.287 153.667 114.254 153.645C114.167 153.585 114.144 153.467 114.203 153.379L130.32 129.593C130.379 129.506 130.497 129.482 130.585 129.542C130.673 129.601 130.695 129.72 130.636 129.807L114.519 153.594C114.482 153.648 114.422 153.678 114.361 153.678Z" fill="#38160F"/>
<path d="M116.725 155.366C116.691 155.366 116.657 155.357 116.625 155.338C116.535 155.282 116.507 155.165 116.562 155.075L131.637 130.513C131.692 130.423 131.81 130.395 131.9 130.45C131.99 130.505 132.018 130.623 131.963 130.713L116.888 155.275C116.852 155.334 116.79 155.366 116.725 155.366Z" fill="#38160F"/>
<path d="M119.158 156.966C119.126 156.966 119.095 156.958 119.065 156.942C118.973 156.891 118.94 156.774 118.991 156.682L132.992 131.384C133.043 131.292 133.159 131.258 133.251 131.309C133.344 131.36 133.377 131.477 133.326 131.569L119.325 156.867C119.29 156.93 119.225 156.966 119.158 156.966Z" fill="#38160F"/>
<path d="M121.656 158.475C121.627 158.475 121.599 158.469 121.571 158.456C121.477 158.409 121.438 158.294 121.485 158.199L134.381 132.204C134.428 132.11 134.543 132.071 134.638 132.118C134.732 132.165 134.771 132.28 134.724 132.374L121.828 158.369C121.794 158.436 121.726 158.475 121.656 158.475Z" fill="#38160F"/>
<path d="M124.217 159.891C124.191 159.891 124.165 159.886 124.139 159.875C124.043 159.832 123.999 159.719 124.042 159.623L135.805 132.971C135.847 132.874 135.96 132.831 136.056 132.874C136.153 132.916 136.196 133.029 136.154 133.126L124.391 159.777C124.36 159.848 124.29 159.891 124.217 159.891Z" fill="#38160F"/>
<path d="M126.315 159.307C126.286 159.307 126.257 159.3 126.23 159.287C121.016 156.688 118.474 155.091 113.866 151.522C113.783 151.457 113.767 151.337 113.832 151.254C113.897 151.17 114.017 151.155 114.1 151.22C118.685 154.771 121.214 156.359 126.401 158.945C126.495 158.992 126.534 159.107 126.486 159.201C126.453 159.268 126.385 159.307 126.315 159.307Z" fill="#38160F"/>
<path d="M128.66 155.284C128.648 155.308 128.61 155.316 128.566 155.301C126.131 154.455 124.928 153.971 122.568 152.89C122.518 152.867 122.482 152.821 122.488 152.787C122.493 152.753 122.538 152.744 122.588 152.767C124.943 153.847 126.144 154.33 128.574 155.175C128.625 155.193 128.665 155.236 128.663 155.27C128.663 155.275 128.662 155.28 128.66 155.284Z" fill="#38160F"/>
<path d="M128.565 155.168C128.565 155.168 127.166 155.634 127.638 156.435C128.111 157.236 129.45 157.411 129.408 156.604C129.366 155.798 128.565 155.168 128.565 155.168Z" fill="#38160F"/>
<path d="M126.014 149.032C126.001 149.056 125.964 149.062 125.925 149.045C123.73 148.12 122.648 147.602 120.53 146.461C120.485 146.437 120.456 146.391 120.466 146.359C120.475 146.327 120.518 146.32 120.563 146.344C122.676 147.483 123.756 148 125.946 148.924C125.992 148.943 126.025 148.986 126.019 149.019C126.018 149.024 126.016 149.029 126.014 149.032Z" fill="#38160F"/>
<path d="M125.938 148.916C125.938 148.916 124.573 149.308 124.932 150.106C125.291 150.904 126.53 151.133 126.576 150.347C126.622 149.561 125.938 148.916 125.938 148.916Z" fill="#38160F"/>
<path d="M131.727 146.999C131.716 147.024 131.682 147.034 131.644 147.021C129.553 146.343 128.518 145.952 126.482 145.067C126.439 145.048 126.41 145.006 126.417 144.974C126.424 144.941 126.465 144.929 126.508 144.948C128.539 145.831 129.572 146.222 131.658 146.899C131.702 146.913 131.735 146.952 131.731 146.986C131.73 146.991 131.729 146.995 131.727 146.999Z" fill="#38160F"/>
<path d="M131.65 146.893C131.65 146.893 130.395 147.43 130.769 148.182C131.143 148.934 132.311 149.029 132.315 148.244C132.319 147.458 131.65 146.893 131.65 146.893Z" fill="#38160F"/>
<path d="M129.615 141.982C129.602 142.005 129.569 142.013 129.534 142C127.633 141.257 126.693 140.837 124.848 139.903C124.809 139.883 124.786 139.841 124.796 139.81C124.806 139.779 124.846 139.769 124.885 139.788C126.725 140.721 127.663 141.14 129.559 141.882C129.599 141.897 129.626 141.936 129.619 141.969C129.618 141.973 129.617 141.978 129.615 141.982Z" fill="#38160F"/>
<path d="M129.553 141.874C129.553 141.874 128.316 142.346 128.593 143.093C128.871 143.84 129.963 143.98 130.044 143.216C130.126 142.451 129.553 141.874 129.553 141.874Z" fill="#38160F"/>
<path d="M134.333 140.421C134.322 140.445 134.291 140.457 134.259 140.447C132.441 139.909 131.539 139.594 129.761 138.873C129.723 138.858 129.7 138.819 129.708 138.787C129.716 138.755 129.753 138.741 129.79 138.757C131.564 139.476 132.464 139.79 134.276 140.327C134.314 140.338 134.341 140.374 134.337 140.408C134.336 140.412 134.335 140.417 134.333 140.421Z" fill="#38160F"/>
<path d="M134.27 140.321C134.27 140.321 133.131 140.918 133.428 141.631C133.726 142.343 134.757 142.37 134.796 141.602C134.834 140.834 134.27 140.321 134.27 140.321Z" fill="#38160F"/>
<path d="M132.819 135.446C132.806 135.47 132.777 135.48 132.747 135.469C131.117 134.889 130.309 134.557 128.718 133.808C128.684 133.792 128.666 133.755 128.677 133.724C128.688 133.693 128.725 133.681 128.758 133.697C130.345 134.443 131.151 134.774 132.777 135.353C132.811 135.365 132.832 135.401 132.824 135.433C132.823 135.438 132.821 135.442 132.819 135.446Z" fill="#38160F"/>
<path d="M132.772 135.347C132.772 135.347 131.649 135.888 131.85 136.589C132.052 137.289 133.008 137.352 133.125 136.607C133.241 135.862 132.772 135.347 132.772 135.347Z" fill="#38160F"/>
<path d="M201.43 156.62C197.936 181.243 181.558 201.719 159.332 211.015C155.206 212.743 153.106 210.026 148.62 210.938C143.391 208.364 140.524 204.175 138.48 198.733C135.604 191.084 138.542 184.942 141.108 177.514C142.3 174.064 141.571 167.734 140.733 164.182C139.578 159.261 136.042 159.986 133.034 155.919C129.423 151.051 124.743 144.794 126.214 138.851V138.844C126.678 136.969 127.369 135.145 128.252 133.446C130.774 128.614 134.378 124.562 138.629 121.517C138.761 121.421 138.894 121.325 139.026 121.237C139.82 120.685 140.637 120.171 141.468 119.693C142.211 119.266 142.961 118.869 143.733 118.501C144.248 118.258 144.763 118.023 145.292 117.81C145.917 117.545 146.55 117.302 147.189 117.081C147.837 116.853 148.499 116.648 149.168 116.471C156.052 114.551 163.554 114.905 170.526 118.141C174.453 119.965 177.91 123.127 179.358 127.209C181.256 132.57 179.586 138.91 182.366 143.874C184.551 147.78 188.544 149.361 192.339 151.413C195.407 153.075 198.495 154.722 201.43 156.62Z" fill="#FFBF5D"/>
<path d="M159.331 211.015C155.206 212.743 150.874 214.082 146.387 214.994C141.158 212.42 136.701 208.117 134.657 202.675C131.781 195.026 133.877 186.223 136.444 178.795C137.636 175.345 138.974 171.69 138.136 168.138C136.981 163.218 132.112 160.224 129.104 156.157C125.493 151.288 124.743 144.794 126.214 138.852C126.184 141.632 126.832 144.397 128.258 146.817C132.443 153.928 141.739 157.459 144.372 165.277C147.623 174.926 138.864 185.141 140.739 195.144C142.262 203.249 150.33 208.515 158.265 210.736C158.618 210.831 158.971 210.926 159.331 211.015Z" fill="#38160F"/>
<path d="M165.143 140.146L163.436 141.668L162.878 142.168L161.951 142.992L161.392 143.492L160.612 144.191L160.053 144.684L158.523 146.044L157.964 146.545L156.508 147.846L154.633 145.081L152.102 141.36L151.198 140.028L140.762 124.643L138.636 121.517H138.629L110.792 80.4998C111.314 80.3232 111.836 80.1541 112.366 79.9998C112.491 79.963 112.608 79.9263 112.734 79.8893C112.858 79.8526 112.976 79.8159 113.101 79.7864C113.881 79.5584 114.661 79.345 115.455 79.154C115.58 79.1172 115.705 79.0878 115.83 79.0583C115.955 79.0288 116.08 78.9921 116.205 78.9701C116.72 78.8377 117.242 78.7201 117.764 78.6096C117.89 78.5802 118.022 78.5582 118.147 78.5287C118.279 78.4992 118.404 78.4697 118.537 78.4478C118.823 78.3888 119.11 78.3301 119.397 78.2787C119.529 78.2492 119.654 78.2272 119.787 78.2053C119.919 78.1833 120.044 78.161 120.176 78.1391C120.632 78.0509 121.096 77.97 121.559 77.9038C121.691 77.8818 121.824 77.8595 121.956 77.8376C122.089 77.8156 122.221 77.8009 122.353 77.7786C122.574 77.7491 122.795 77.7196 123.015 77.6904L149.169 116.471H149.176L161.598 134.895L162.664 136.476L165.143 140.146Z" fill="#BC644D"/>
<path d="M161.295 159.863C168.191 159.863 173.782 154.272 173.782 147.375C173.782 140.479 168.191 134.888 161.295 134.888C154.398 134.888 148.808 140.479 148.808 147.375C148.808 154.272 154.398 159.863 161.295 159.863Z" fill="#BC644D"/>
<path d="M161.295 158.36C167.361 158.36 172.279 153.442 172.279 147.375C172.279 141.308 167.361 136.39 161.295 136.39C155.228 136.39 150.31 141.308 150.31 147.375C150.31 153.442 155.228 158.36 161.295 158.36Z" fill="#38160F"/>
<path d="M173.343 174.499L172.717 174.896L168.753 168.667L163.075 159.731L162.178 158.326L151.749 141.933L150.859 140.528L140.762 124.642L138.724 121.45L112.365 79.9992C112.49 79.9625 112.608 79.9258 112.733 79.8888C112.858 79.8521 112.975 79.8154 113.101 79.7859L139.334 121.031L151.315 139.866L152.183 141.234L154.632 145.08L162.995 158.231L163.87 159.598L169.422 168.336L173.343 174.499Z" fill="#38160F"/>
<path d="M175.409 172.808L174.784 173.205L171.165 167.468L165.833 159.01L165.01 157.716L157.964 146.544L153.566 139.572L152.75 138.27L141.151 119.884L115.454 79.1536C115.579 79.1169 115.704 79.0874 115.829 79.0579C115.954 79.0284 116.079 78.9917 116.205 78.9697L141.784 119.516L153.309 137.777L154.118 139.064L158.523 146.044L165.716 157.436L166.525 158.723L171.827 167.129L175.409 172.808Z" fill="#38160F"/>
<path d="M177.844 171.116L177.226 171.513L173.792 166.151L168.364 157.664L167.555 156.407L160.053 144.683L155.721 137.91L154.912 136.645L143.402 118.67L117.764 78.6091C117.889 78.5797 118.021 78.5577 118.146 78.5282C118.278 78.4987 118.403 78.4692 118.536 78.4473L144.071 118.346L155.552 136.284L156.361 137.556L160.612 144.19L168.143 155.965L168.959 157.23L174.453 165.82L177.844 171.116Z" fill="#38160F"/>
<path d="M178.976 169.424L178.351 169.829L175.446 165.32L169.79 156.532L168.959 155.245L161.391 143.492L157.302 137.137L156.471 135.851L144.946 117.957L119.396 78.2783C119.529 78.2488 119.654 78.2268 119.786 78.2049C119.919 78.1829 120.043 78.1606 120.176 78.1387L145.638 117.67L157.177 135.586L158.015 136.887L161.95 142.992L169.481 154.685L170.327 155.994L176.115 164.989L178.976 169.424Z" fill="#38160F"/>
<path d="M181.036 169.05L180.418 169.454L177.196 164.445L171.151 155.039L170.283 153.686L162.877 142.168L159.281 136.571L158.413 135.225L146.829 117.214L121.559 77.9035C121.691 77.8815 121.823 77.8593 121.956 77.8373C122.088 77.8153 122.221 77.8006 122.353 77.7783L147.55 116.964L159.185 135.071L160.082 136.454L163.436 141.668L170.724 153.009L171.622 154.399L177.866 164.114L181.036 169.05Z" fill="#38160F"/>
<path d="M158.196 173.946L188.616 158.736L193.498 165.308L162.891 181.645L158.196 173.946Z" fill="#BC644D"/>
<path d="M174.036 131.81C174.013 131.819 173.99 131.827 173.967 131.836C172.887 132.239 171.665 131.82 171.097 130.816C169.826 128.57 167.99 126.501 165.88 125.016C164.711 124.193 164.478 122.557 165.429 121.49C165.95 120.906 166.56 120.401 167.231 120.002C168.207 119.422 169.463 119.596 170.213 120.447C172.359 122.883 174.326 125.78 175.415 128.811C175.849 130.018 175.235 131.355 174.036 131.81Z" fill="#FBEEE5"/>
<path d="M175.072 133.919L175.295 133.788C176.374 133.156 177.758 133.755 178.034 134.975L179.204 140.135C179.426 141.115 178.824 142.094 177.848 142.338C176.875 142.581 175.885 142.004 175.617 141.037L174.225 136.008C174.001 135.2 174.348 134.343 175.072 133.919Z" fill="#FBEEE5"/>
<path d="M105.849 93.0617C104.003 89.9947 101.312 87.5605 98.2741 86.0085C98.0169 86.1557 97.7593 86.3028 97.5093 86.4499C100.605 87.9282 103.356 90.3555 105.217 93.4441C108.453 98.8056 109.159 105.851 107.151 112.772C105.496 118.472 102.01 124.208 96.7883 129.805C93.0597 133.806 88.8085 137.41 84.6974 140.896C83.7192 141.72 82.7486 142.551 81.7776 143.382C78.2034 146.449 74.8054 149.53 72.4446 153.502C67.7965 161.328 68.6276 171.771 73.8934 179.06C73.4081 180.229 73.0476 181.486 72.8418 182.781C73.0479 183.112 73.2537 183.443 73.4595 183.766C73.4815 183.509 73.5182 183.259 73.5552 183.009C73.7243 181.876 74.0111 180.78 74.4082 179.751C75.4084 181.03 76.5557 182.2 77.8354 183.23C79.3284 184.428 83.1894 187.039 86.7859 185.384C88.9556 184.392 90.4558 181.957 90.8088 178.876C90.9854 177.368 91.0001 174.544 89.1467 172.587C86.7564 170.057 82.5936 170.447 79.7256 172.139C77.3867 173.521 75.4818 175.684 74.2389 178.28C69.3627 171.242 68.6493 161.335 73.0768 153.877C75.3789 150.001 78.7326 146.964 82.2554 143.941C83.2261 143.11 84.1971 142.279 85.1753 141.455C89.301 137.955 93.567 134.336 97.3251 130.306C102.628 124.621 106.165 118.788 107.857 112.978C109.916 105.866 109.188 98.607 105.849 93.0617ZM80.0932 172.771C82.7188 171.227 86.4844 170.837 88.6171 173.087C90.2645 174.831 90.2425 177.412 90.0806 178.795C89.7572 181.612 88.4113 183.825 86.4841 184.715C84.2482 185.745 81.1888 184.973 78.2985 182.656C76.9526 181.575 75.7611 180.332 74.7314 178.964C75.9085 176.338 77.7767 174.139 80.0932 172.771ZM91.824 202.984C91.743 203.036 91.6696 203.087 91.5887 203.131C91.802 203.286 92.0078 203.44 92.2211 203.595C92.2284 203.595 92.2284 203.587 92.2359 203.587L91.824 202.984Z" fill="#38160F"/>
<path d="M120.843 164.11C120.341 165.182 119.684 166.131 118.957 166.946C118.767 167.17 118.567 167.378 118.366 167.578C115.837 170.106 112.857 171.231 112.857 171.231L112.842 171.25C111.521 170.092 109.455 168.624 106.671 167.627C103.906 166.644 101.775 166.381 100.387 166.352L100.58 165.743C100.58 165.743 99.3206 162.594 100.114 158.345C100.167 158.064 100.227 157.773 100.296 157.482C100.441 156.897 100.627 156.289 100.862 155.674C102.962 150.133 109.49 148.024 115.578 149.9C121.668 151.784 123.169 159.126 120.843 164.11Z" fill="#38160F"/>
<path d="M112.844 171.249L112.079 172.588L111.762 173.132L102.29 189.702L101.973 190.261L93.7582 204.647C93.2433 204.301 92.7285 203.948 92.2212 203.595C92.0079 203.441 91.8021 203.286 91.5887 203.132C90.8459 202.595 90.1177 202.043 89.4043 201.477L94.001 186.76L94.192 186.142L99.4801 169.271L99.6712 168.646L100.385 166.351C101.775 166.381 103.907 166.645 106.673 167.631C109.453 168.623 111.52 170.094 112.844 171.249Z" fill="#ACC1D6"/>
<path d="M110.696 159.46C107.386 157.716 103.709 157.04 100.296 157.481C100.223 157.775 100.164 158.062 100.112 158.349C103.451 157.864 107.048 158.503 110.306 160.21C113.395 161.82 116.153 164.343 118.367 167.579C118.565 167.38 118.764 167.167 118.955 166.947C116.682 163.674 113.858 161.107 110.696 159.46Z" fill="#FBEEE5"/>
<path d="M112.079 172.591L111.765 173.132C111.389 172.896 110.978 172.656 110.543 172.421C107.128 170.55 103.342 169.476 99.4766 169.269L99.6676 168.643C103.571 168.88 107.395 169.973 110.846 171.864C111.292 172.107 111.694 172.347 112.079 172.591Z" fill="#38160F"/>
<path d="M105.054 173.646C104.826 173.124 104.407 172.713 103.877 172.499L103.738 172.448C103.208 172.249 102.627 172.264 102.112 172.492C101.59 172.72 101.193 173.139 100.987 173.669L98.8246 179.28C98.4494 180.266 98.8613 181.391 99.788 181.906C100.2 182.134 100.663 182.207 101.112 182.141C101.259 182.119 101.384 182.082 101.516 182.038C102.083 181.84 102.546 181.406 102.774 180.854L105.069 175.294C105.289 174.764 105.282 174.176 105.054 173.646ZM104.48 175.051L102.193 180.611C102.024 181.001 101.708 181.303 101.311 181.45C100.906 181.582 100.465 181.553 100.097 181.354C99.4426 180.994 99.1483 180.199 99.4204 179.501L101.583 173.889C101.722 173.521 102.002 173.235 102.37 173.065C102.73 172.903 103.135 172.896 103.51 173.043L103.642 173.095C104.017 173.242 104.311 173.529 104.473 173.896C104.635 174.271 104.635 174.676 104.48 175.051Z" fill="#38160F"/>
<path d="M102.288 189.702L101.976 190.26C100.998 189.463 99.9513 188.726 98.8309 188.128C97.6185 187.484 95.9145 186.809 94.0029 186.762L94.1952 186.145C96.1463 186.229 97.8859 186.916 99.1248 187.565C100.255 188.169 101.31 188.905 102.288 189.702Z" fill="#38160F"/>
<path d="M116.572 195.656C116.471 195.584 116.429 195.449 116.479 195.328L123.376 178.666C123.434 178.525 123.595 178.458 123.735 178.515C123.874 178.572 123.942 178.733 123.883 178.874L116.986 195.536C116.928 195.677 116.767 195.745 116.627 195.687C116.607 195.679 116.589 195.669 116.572 195.656Z" fill="#38160F"/>
<path d="M117.015 195.519C117.015 195.519 114.704 190.338 111.643 190.685C108.582 191.032 108.215 194.986 111.443 196.088C114.671 197.189 117.015 195.519 117.015 195.519Z" fill="#38160F"/>
<path d="M155.572 105.127C155.462 105.173 155.33 105.138 155.258 105.037L145.23 91.0376C145.181 90.9697 145.168 90.8827 145.193 90.8032C145.219 90.724 145.277 90.6616 145.36 90.6344L158.384 86.2427C158.521 86.1961 158.671 86.2701 158.717 86.408C158.764 86.5456 158.689 86.6887 158.552 86.7416L145.865 91.0197L155.686 104.73C155.771 104.848 155.744 105.013 155.626 105.097C155.608 105.11 155.591 105.12 155.572 105.127Z" fill="#38160F"/>
<path d="M155.687 104.698C155.687 104.698 150.295 103.961 149.014 106.621C147.734 109.281 150.762 111.572 153.305 109.508C155.848 107.443 155.687 104.698 155.687 104.698Z" fill="#38160F"/>
<path d="M168.596 100.735C168.486 100.78 168.354 100.746 168.282 100.645L158.253 86.6456C158.169 86.5271 158.196 86.3629 158.314 86.2782C158.432 86.1932 158.597 86.2207 158.682 86.3386L168.71 100.338C168.795 100.456 168.768 100.621 168.65 100.705C168.632 100.718 168.615 100.728 168.596 100.735Z" fill="#38160F"/>
<path d="M168.71 100.306C168.71 100.306 163.318 99.5695 162.038 102.229C160.758 104.889 163.785 107.181 166.328 105.116C168.871 103.052 168.71 100.306 168.71 100.306Z" fill="#38160F"/>
<path d="M160.713 89.8269C160.707 89.8292 160.702 89.8313 160.696 89.8333L147.838 94.1568C147.7 94.2031 147.551 94.129 147.505 93.9912C147.458 93.8533 147.536 93.7035 147.671 93.6576L160.529 89.3341C160.666 89.2878 160.816 89.3618 160.862 89.5C160.907 89.6318 160.84 89.7746 160.713 89.8269Z" fill="#38160F"/>
</g>
<g clip-path="url(#clip1_2590_2013)">
<path d="M341.068 98.7947C341.334 94.415 341.601 90.035 341.87 85.6125C340.59 85.5724 339.468 85.7658 338.369 86.0941C335.954 86.8153 333.696 87.9024 331.467 89.0613C330.024 89.8116 328.571 90.5514 326.924 90.7529C326.418 90.8147 325.906 90.8241 325.344 90.8608C325.323 91.1021 325.291 91.3432 325.282 91.5851C325.127 95.8072 324.979 100.029 324.818 104.251C324.791 104.956 324.757 105.667 324.641 106.361C324.431 107.61 323.497 108.5 322.236 108.619C321.614 108.678 320.945 108.679 320.35 108.513C318.066 107.878 316.366 106.51 315.432 104.284C315.064 103.408 315.024 102.492 315.24 101.577C315.922 98.6757 319.076 97.6629 321.385 99.6347C321.993 100.155 322.453 100.85 322.976 101.469C323.074 101.585 323.15 101.721 323.341 101.835C323.341 101.652 323.334 101.47 323.342 101.287C323.551 96.1136 323.76 90.9397 323.978 85.7663C323.991 85.4693 324.001 85.1287 324.147 84.8911C324.346 84.5673 324.628 84.1684 324.955 84.0702C327.184 83.3991 329.263 82.3941 331.325 81.3398C333.403 80.2767 335.513 79.2877 337.81 78.7735C339.261 78.4486 340.715 78.3914 342.172 78.7205C342.994 78.9062 343.324 79.2358 343.317 80.0669C343.302 82.0269 343.256 83.9883 343.161 85.9459C342.978 89.7594 342.772 93.5721 342.533 97.3824C342.441 98.8611 342.249 100.334 342.077 101.807C341.946 102.933 341.208 103.742 340.103 104.038C337.291 104.791 333.211 102.487 332.382 99.6815C332.001 98.3904 332.19 97.2174 333.163 96.2527C334.147 95.2771 335.353 94.9817 336.683 95.3435C338.389 95.808 339.591 96.9589 340.59 98.3562C340.7 98.509 340.811 98.6601 340.922 98.8118C340.971 98.8057 341.019 98.8003 341.068 98.7947Z" fill="white"/>
<path d="M242.331 103.72C241.607 103.552 240.855 103.188 240.265 102.722C238.776 101.548 238.937 99.4427 240.53 98.4184C241.568 97.7511 242.757 97.5394 243.95 97.3877C246.885 97.0147 249.771 97.4364 252.616 98.0904C254.676 98.564 256.703 99.1874 258.73 99.7924C259.26 99.9506 259.745 100.273 260.233 100.55C260.759 100.849 260.793 101.322 260.26 101.599C259.577 101.953 258.859 102.295 258.116 102.468C254.326 103.35 245.982 104.565 242.331 103.72Z" fill="white"/>
<path d="M245.38 83.0101C246.685 83.0409 247.881 83.4658 249 84.0922C253.265 86.4784 256.878 89.6254 259.867 93.4901C260.234 93.965 260.595 94.4458 260.936 94.9395C261.085 95.1539 261.22 95.396 261.286 95.6454C261.46 96.3034 261.13 96.6213 260.467 96.4642C258.268 95.9435 256.247 94.9636 254.226 93.9979C251.272 92.5862 248.437 90.9668 245.866 88.9238C245.275 88.454 244.733 87.9108 244.227 87.3481C243.89 86.9727 243.604 86.5282 243.388 86.0709C242.592 84.3852 243.525 82.9705 245.38 83.0101Z" fill="white"/>
<path d="M243.012 115.935C242 115.494 241.61 114.535 242.043 113.519C242.258 113.014 242.611 112.54 242.992 112.138C244.232 110.831 245.806 110.013 247.427 109.301C250.66 107.88 254.031 106.914 257.53 106.435C258.309 106.328 259.114 106.359 259.902 106.415C260.188 106.435 260.618 106.664 260.685 106.886C260.747 107.096 260.441 107.441 260.252 107.691C260.117 107.87 259.915 108.003 259.727 108.134C256.911 110.083 254.121 112.072 251.263 113.957C249.622 115.039 245.456 117.505 243.012 115.935Z" fill="white"/>
<path d="M316.445 138.794C316.755 138.514 317.053 138.213 317.381 137.95C319.158 136.522 320.946 135.109 322.717 133.675C322.918 133.513 323.125 133.267 323.177 133.027C323.938 129.506 324.68 125.981 325.404 122.452C325.52 121.887 325.54 121.299 325.576 120.72C325.608 120.197 325.814 119.919 326.333 119.885C326.825 119.852 327.325 119.839 327.815 119.889C328.834 119.995 329.652 120.778 329.711 121.862C329.799 123.482 329.814 125.11 329.769 126.732C329.693 129.504 329.377 132.273 329.721 135.046C329.826 135.889 329.943 136.733 330.462 137.449C330.992 138.177 331.543 138.265 332.109 137.581C332.95 136.566 333.662 135.517 333.788 134.081C334.241 128.911 335.42 123.933 338.151 119.432C339.1 117.868 340.198 116.418 341.566 115.194C342.716 114.165 344.01 113.401 345.542 113.074C348.917 112.353 351.779 114.094 352.35 117.492C352.957 121.114 352.071 124.373 349.242 126.92C348.567 127.528 347.803 128.013 346.893 128.193C346.586 128.253 346.246 128.292 345.951 128.219C345.691 128.154 345.388 127.964 345.27 127.741C345.198 127.605 345.393 127.264 345.547 127.081C347.005 125.347 348.051 123.402 348.531 121.184C348.652 120.628 348.66 120.021 348.582 119.456C348.454 118.525 347.716 118.061 346.837 118.388C346.242 118.61 345.664 118.967 345.179 119.381C344.294 120.136 343.656 121.107 343.226 122.185C342.065 125.099 341.48 128.118 341.828 131.257C341.928 132.158 342.252 133.037 342.507 133.916C342.589 134.197 342.76 134.462 342.93 134.707C344.159 136.478 345.608 136.732 347.378 135.514C348.278 134.894 348.9 134.059 349.381 133.091C349.512 132.829 349.76 132.624 349.954 132.393C350.212 132.612 350.607 132.782 350.704 133.057C351.158 134.332 351.712 135.612 351.897 136.937C352.49 141.179 351.044 144.736 347.711 147.382C344.77 149.717 341.017 149.481 338.014 146.981C335.916 145.233 334.788 142.911 334.197 140.293C334.17 140.172 334.147 140.051 334.117 139.931C334.109 139.899 334.083 139.872 334.025 139.776C333.744 140.47 333.477 141.122 333.215 141.775C332.71 143.031 332.161 144.282 331.045 145.11C330.348 145.626 329.571 146.149 328.751 146.358C327.132 146.77 325.855 146.009 324.902 144.724C323.766 143.191 323.266 141.405 323.051 139.541C322.918 138.387 322.887 137.22 322.806 135.989C320.956 137.3 319.251 138.743 317.804 140.487C318.494 141.424 319.185 142.318 319.83 143.245C321.436 145.554 322.751 148.002 323.298 150.798C323.557 152.128 323.593 153.463 323.359 154.803C322.654 158.845 318.197 162.077 314.153 161.476C313.053 161.313 312.158 160.791 311.453 159.94C310.241 158.478 309.6 156.791 309.466 154.899C309.258 151.979 309.99 149.251 311.201 146.639C311.824 145.295 312.569 144.009 313.234 142.684C313.326 142.5 313.366 142.193 313.274 142.03C312.489 140.627 311.668 139.245 310.858 137.856C310.832 137.813 310.806 137.769 310.728 137.639C310.645 137.939 310.596 138.135 310.537 138.328C309.651 141.213 308.838 144.124 307.85 146.973C307.205 148.832 306.09 150.478 304.815 151.983C304.306 152.584 303.71 153.133 303.078 153.604C301.423 154.836 299.496 154.589 298.28 152.908C297.703 152.109 297.382 151.124 296.956 150.218C296.876 150.048 296.848 149.852 296.756 149.523C296.604 149.844 296.501 150.054 296.405 150.268C295.85 151.499 295.209 152.673 294.222 153.624C293.554 154.268 292.786 154.71 291.843 154.782C290.602 154.876 289.663 154.296 288.889 153.402C288.59 153.058 288.356 152.66 288.042 152.215C287.964 152.453 287.898 152.643 287.839 152.834C286.837 156.079 285.764 159.296 284.003 162.229C283.236 163.508 282.359 164.705 281.164 165.629C280.129 166.431 279.005 166.972 277.641 166.783C276.609 166.641 275.788 166.115 275.093 165.378C274.233 164.466 273.632 163.395 273.178 162.228C271.991 159.177 271.887 156.03 272.289 152.831C272.833 148.505 274.242 144.417 275.674 140.33C276.151 138.969 276.479 137.554 276.827 136.151C276.917 135.789 276.865 135.375 276.803 134.997C276.718 134.472 276.377 134.258 275.877 134.437C275.468 134.583 275.056 134.788 274.719 135.058C272.86 136.55 271.569 138.434 270.984 140.76C270.256 143.658 269.678 146.585 269.417 149.567C269.259 151.384 269.46 153.165 269.929 154.921C269.975 155.092 270.02 155.262 270.061 155.434C270.344 156.61 270.071 157.118 268.925 157.548C265.208 158.944 261.383 155.885 261.777 151.851C261.997 149.596 262.783 147.522 263.763 145.516C264.694 143.612 265.721 141.756 266.673 139.862C267.571 138.074 268.333 136.227 268.665 134.24C268.75 133.731 268.74 133.176 268.631 132.673C268.486 132.011 268.024 131.873 267.415 132.179C265.642 133.074 264.35 134.501 263.208 136.065C261.19 138.827 259.728 141.884 258.676 145.127C257.849 147.678 257.12 150.262 256.36 152.834C256.045 153.901 256.395 154.938 256.592 155.969C256.98 157.995 257.952 159.784 258.959 161.554C259.09 161.784 259.222 162.016 259.319 162.261C259.534 162.802 259.286 163.246 258.856 163.489C257.614 164.187 256.377 164.924 255.062 165.457C253.133 166.238 251.096 166.502 249.031 166.049C246.659 165.529 245.281 163.881 244.959 161.421C244.637 158.957 245.126 156.6 245.782 154.262C246.947 150.105 248.602 146.123 250.217 142.128C251.739 138.361 253.277 134.596 254.234 130.636C254.526 129.428 254.57 128.16 254.726 126.92C254.732 126.868 254.73 126.813 254.725 126.761C254.649 125.968 254.525 125.154 253.724 124.781C252.958 124.423 252.279 124.875 251.761 125.367C250.764 126.313 249.806 127.308 248.916 128.355C247.278 130.28 245.724 132.279 243.799 133.939C242.063 135.433 240.161 136.628 237.883 137.106C233.145 138.098 229.101 134.833 229.044 129.993C229.018 127.792 229.408 125.701 230.614 123.821C230.839 123.47 231.13 123.147 231.44 122.864C231.896 122.447 232.326 122.574 232.551 123.147C232.557 123.163 232.56 123.181 232.563 123.199C232.884 125.366 234.529 125.922 236.326 126.227C238.469 126.591 240.501 126.154 242.457 125.249C244.303 124.396 245.908 123.185 247.51 121.96C248.871 120.918 250.243 119.89 251.639 118.896C252.509 118.277 253.483 117.869 254.558 117.71C255.438 117.581 256.253 117.732 257 118.193C258.755 119.273 259.662 120.87 259.823 122.91C259.981 124.901 259.526 126.808 259.028 128.71C257.949 132.834 257.217 137.025 256.666 141.249C256.65 141.369 256.664 141.494 256.716 141.63C256.828 141.173 256.942 140.717 257.051 140.259C257.165 139.778 257.266 139.294 257.387 138.815C258.346 135.003 259.486 131.255 261.409 127.798C262.807 125.284 264.736 123.238 267.097 121.605C268.005 120.977 269.007 120.53 270.127 120.421C272.424 120.198 274.181 121.759 274.47 124.235C274.638 125.684 274.361 127.086 274.109 128.495C274.079 128.661 274.049 128.828 274.115 129.032C274.228 128.84 274.34 128.648 274.453 128.457C275.646 126.459 276.982 124.575 278.818 123.105C279.918 122.225 281.112 121.515 282.518 121.23C285.017 120.724 287.079 122.276 287.301 124.834C287.424 126.252 287.191 127.634 286.701 128.948C285.684 131.677 284.59 134.377 283.536 137.093C282.622 139.45 281.708 141.819 281.431 144.348C281.281 145.706 281.309 147.094 281.38 148.461C281.42 149.244 281.838 149.937 282.484 150.449C283.223 151.035 283.895 151.161 284.609 150.573C285.447 149.883 286.16 149.041 286.913 148.25C286.995 148.165 287.02 147.984 287.005 147.854C286.554 143.774 287.591 139.925 288.834 136.112C289.666 133.56 290.538 131.022 291.367 128.47C291.551 127.903 291.644 127.304 291.752 126.715C291.856 126.148 292.091 125.955 292.667 126.032C292.894 126.062 293.12 126.102 293.347 126.138C294.142 126.262 294.726 126.781 294.711 127.585C294.685 129.08 294.614 130.583 294.434 132.067C294.068 135.065 293.501 138.044 293.642 141.084C293.673 141.734 293.728 142.397 293.895 143.022C294.032 143.537 294.315 144.027 294.601 144.486C294.815 144.831 295.133 145.125 295.612 145.014C296.047 144.913 296.564 144.323 296.604 143.884C297.094 138.579 298.534 133.527 300.51 128.594C301.157 126.978 302.26 126.41 303.828 126.344C304.522 126.314 304.828 126.622 304.709 127.313C304.38 129.227 303.985 131.13 303.682 133.048C303.238 135.85 302.992 138.669 303.422 141.495C303.512 142.087 303.771 142.677 304.06 143.209C304.341 143.727 304.706 143.797 305.161 143.427C305.688 142.996 306.201 142.512 306.6 141.963C308.028 139.997 308.894 137.753 309.635 135.46C309.689 135.293 309.629 135.082 309.595 134.896C309.29 133.248 308.888 131.612 308.693 129.951C308.423 127.65 308.887 125.473 310.308 123.582C311.176 122.427 312.241 121.555 313.793 121.565C315.338 121.575 317.066 123.094 317.28 124.623C317.373 125.288 317.124 125.843 316.667 126.303C316.131 126.842 315.576 127.362 315.021 127.881C314.021 128.818 313.17 129.867 312.485 131.059C312.228 131.507 312.138 131.947 312.265 132.424C312.396 132.916 312.532 133.416 312.744 133.876C313.304 135.09 315.397 137.839 316.445 138.794ZM314.763 144.668C313.823 146.358 313.074 147.979 313.015 149.798C312.99 150.568 313.16 151.374 313.397 152.114C313.632 152.847 314.134 152.911 314.679 152.35C314.969 152.053 315.219 151.693 315.401 151.319C316.522 149.027 315.752 146.907 314.763 144.668Z" fill="white"/>
<path d="M328.228 118.205C327.024 118.196 325.928 117.155 325.922 116.017C325.916 114.814 326.961 113.716 328.108 113.72C329.321 113.723 330.391 114.822 330.384 116.057C330.376 117.274 329.432 118.215 328.228 118.205Z" fill="white"/>
<path d="M243.625 186.155C243.625 187.564 243.642 188.973 243.621 190.382C243.552 195.081 243.505 199.782 243.374 204.479C243.322 206.321 242.973 205.881 241.68 206.135C240.388 206.39 239.437 206.177 239.387 203.856C239.199 195.058 239.495 186.255 239.553 177.455C239.554 177.26 239.554 177.066 239.554 176.871C239.554 175.721 239.734 175.456 240.869 175.196C241.728 174.998 242.602 174.857 243.475 174.733C244.154 174.637 244.564 174.877 244.866 175.615C245.355 176.806 245.792 178.02 246.234 179.23C248.106 184.355 249.971 189.481 251.84 194.607C251.886 194.734 251.944 194.856 252.059 195.131C252.082 194.85 252.102 194.723 252.101 194.597C252.069 187.811 252.035 181.024 252.003 174.238C251.998 173.226 252.168 172.988 253.141 172.667C253.644 172.502 254.149 172.339 254.663 172.212C255.462 172.013 255.909 172.268 256.044 173.078C256.186 173.93 256.286 174.796 256.31 175.658C256.565 184.668 256.686 193.68 256.442 202.693C256.416 203.636 256.133 204.041 255.238 204.335C253.955 204.758 252.639 204.997 251.281 204.968C250.598 204.953 250.157 204.647 249.934 204.005C248.283 199.252 246.639 194.496 244.986 189.744C244.569 188.544 244.125 187.354 243.694 186.159C243.67 186.158 243.648 186.156 243.625 186.155Z" fill="white"/>
<path d="M279.269 185.709C279.328 193.052 277.433 204.704 267.622 203.064C256.212 200.765 256.988 181.096 262.012 173.433C263.908 170.77 266.651 169.919 269.744 170.188C277.376 170.775 279.312 179.365 279.269 185.709ZM272.164 196.396C275.392 190.805 275.535 183.443 273.137 177.573C271.885 174.985 268.183 174.419 266.041 176.454C264.683 177.604 263.913 180.94 263.852 188.673C263.77 198.904 269.898 199.4 272.164 196.396Z" fill="white"/>
<path d="M276.391 208.632C276.349 209.142 276.275 209.653 276.275 210.163C276.274 210.699 276.018 210.913 275.52 210.987C273.616 211.269 271.719 211.599 269.812 211.856C264.246 212.608 258.679 213.354 253.107 214.059C250.357 214.407 247.596 214.662 244.84 214.959C244.77 214.966 244.7 214.974 244.63 214.985C243.469 215.16 243.176 214.929 243.182 213.767C243.184 213.185 243.269 212.605 243.301 212.023C243.338 211.342 243.747 211.012 244.364 210.907C245.46 210.721 246.558 210.54 247.66 210.392C251.859 209.824 256.059 209.265 260.261 208.713C264.987 208.091 269.714 207.479 274.44 206.866C274.826 206.815 275.212 206.766 275.599 206.748C276.12 206.723 276.343 206.935 276.365 207.464C276.381 207.852 276.368 208.241 276.368 208.63C276.376 208.631 276.383 208.631 276.391 208.632Z" fill="white"/>
<path d="M315.827 196.368C313.582 194.833 313.067 192.551 312.88 190.161C312.661 187.363 313.12 184.621 313.885 181.94C314.616 179.378 315.438 176.841 316.256 174.304C316.337 174.052 316.639 173.754 316.888 173.698C317.449 173.571 318.042 173.547 318.622 173.547C319.222 173.547 319.632 173.881 319.748 174.473C319.828 174.881 319.84 175.315 319.801 175.731C319.604 177.841 319.295 179.945 319.196 182.06C319.129 183.478 319.289 184.916 319.465 186.331C319.535 186.895 319.86 187.461 320.18 187.953C320.525 188.484 321.041 188.557 321.574 188.212C322.637 187.525 323.431 186.57 323.675 185.331C325.062 178.277 326.409 171.214 327.747 164.151C327.931 163.181 328.01 162.19 328.101 161.206C328.183 160.311 328.331 160.135 329.213 160.069C329.635 160.037 330.057 159.977 330.479 159.971C331.702 159.955 332.283 160.596 332.392 161.807C332.656 164.745 332.191 167.627 331.768 170.507C331.331 173.477 330.792 176.432 330.301 179.394C330.276 179.544 330.277 179.697 330.259 179.963C331.22 179.728 332.111 179.535 332.988 179.29C335.118 178.693 337.19 177.944 339.143 176.883C339.521 176.677 339.713 176.427 339.805 176.012C340.568 172.604 341.668 169.311 343.212 166.172C344.021 164.526 345.025 163.015 346.349 161.734C347.484 160.637 348.773 159.793 350.33 159.411C351.657 159.086 352.887 159.312 354.03 160.05C355.667 161.107 356.762 162.596 357.43 164.4C358.638 167.659 358.715 170.998 358.047 174.373C357.413 177.577 356.279 180.585 354.448 183.31C353.17 185.212 351.441 186.465 349.184 186.958C348.209 187.171 347.603 187.124 345.489 186.632C345.955 187.381 346.312 188.067 346.773 188.673C347.623 189.789 348.686 190.637 350.057 191.071C351.913 191.66 353.584 191.315 355.096 190.137C356.685 188.9 357.765 187.286 358.49 185.421C358.528 185.323 358.541 185.201 358.607 185.128C358.752 184.968 358.937 184.7 359.082 184.714C359.304 184.736 359.588 184.914 359.696 185.108C359.852 185.391 359.933 185.745 359.944 186.072C360.083 190.391 359.284 194.446 356.511 197.92C355.443 199.258 354.198 200.395 352.653 201.18C350.828 202.106 348.968 202.184 347.06 201.488C344.366 200.505 342.57 198.564 341.289 196.074C340.083 193.732 339.514 191.207 339.17 188.62C338.825 186.016 338.775 183.405 339.018 180.789C339.026 180.703 339.019 180.616 339.019 180.392C337.382 181.699 335.604 182.502 333.628 182.824C333.621 182.875 333.601 182.92 333.615 182.94C335.222 185.312 335.854 187.993 336.036 190.795C336.451 197.174 335.454 203.336 333.076 209.27C332.428 210.887 331.575 212.39 330.397 213.69C329.593 214.577 328.646 215.248 327.445 215.444C325.739 215.724 324.453 214.917 323.421 213.681C322.215 212.238 321.735 210.47 321.458 208.658C321.026 205.82 321.252 202.975 321.509 200.14C321.682 198.24 321.956 196.35 322.184 194.455C322.204 194.286 322.216 194.117 322.246 193.802C321.019 195.443 319.704 196.734 317.672 196.93C317.591 197.832 317.569 198.732 317.422 199.611C316.98 202.245 315.894 204.576 314.16 206.634C310.835 210.579 305.781 210.378 302.653 208.606C301.08 207.714 299.763 206.522 298.627 205.122C298.507 204.975 298.385 204.831 298.234 204.651C297.847 205.182 297.498 205.687 297.122 206.172C295.922 207.723 294.583 209.123 292.775 209.977C290.265 211.163 287.564 210.532 285.822 208.366C284.893 207.211 284.337 205.879 284.069 204.436C283.327 200.433 284.262 196.917 287.271 194.089C289.649 191.854 292.27 191.682 294.995 193.465C295.094 193.53 295.202 193.583 295.339 193.66C297.646 187.623 299.344 181.422 301.311 175.236C300.8 175.15 300.298 175.09 299.808 174.978C297.673 174.491 295.553 173.936 293.406 173.517C292.413 173.323 291.366 173.309 290.349 173.348C288.806 173.407 287.66 174.514 287.517 176.061C287.399 177.348 286.877 177.353 285.983 176.742C284.726 175.883 284.217 174.469 284.606 172.863C285.615 168.701 289.805 165.639 294.145 165.86C296.144 165.962 297.997 166.547 299.76 167.449C301.064 168.117 302.347 168.827 303.69 169.545C303.808 169.374 303.915 169.222 304.02 169.068C305.137 167.404 306.431 165.925 308.269 165.02C309.33 164.498 310.429 164.248 311.602 164.602C313.91 165.299 315.027 167.64 314.092 169.894C312.919 172.724 310.803 174.465 307.796 174.995C306.832 175.165 306.451 175.57 306.261 176.48C305.382 180.68 304.496 184.879 303.518 189.057C302.79 192.166 301.913 195.241 301.122 198.336C301.079 198.504 301.152 198.805 301.278 198.897C302.981 200.127 304.79 201.153 306.903 201.49C308.452 201.737 309.946 201.522 311.308 200.726C313.144 199.653 314.451 198.022 315.827 196.368ZM351.99 170.925C349.272 171.135 346.917 172.081 344.977 173.927C344.357 174.517 343.843 175.291 343.49 176.075C342.943 177.292 343.398 178.478 344.595 179.069C345.258 179.397 346.022 179.628 346.757 179.684C349.295 179.879 351.549 179.039 353.581 177.559C354.522 176.873 355.287 176.022 355.775 174.953C356.432 173.512 355.947 172.138 354.48 171.549C353.693 171.233 352.822 171.126 351.99 170.925ZM329.845 182.596C329.793 182.807 329.754 182.921 329.736 183.039C329.391 185.255 329.032 187.469 328.709 189.688C328.365 192.049 328.022 194.416 328.155 196.811C328.2 197.631 328.342 198.464 328.576 199.251C328.83 200.107 329.36 200.174 329.868 199.426C330.218 198.909 330.495 198.314 330.676 197.715C331.595 194.671 331.931 191.557 331.609 188.389C331.406 186.391 330.916 184.466 329.845 182.596ZM293.506 197.744C293.052 197.406 292.645 197.038 292.181 196.769C291.097 196.138 289.995 196.313 289.179 197.26C288.488 198.063 288.162 199.033 288.219 200.095C288.255 200.774 288.396 201.491 289.092 201.79C289.741 202.068 290.29 201.629 290.767 201.246C291.927 200.316 292.73 199.098 293.506 197.744ZM308.499 170.634C309.736 170.749 311.114 170.083 311.559 169.186C311.749 168.805 311.851 168.386 311.486 168.064C311.142 167.759 310.776 167.969 310.466 168.177C309.574 168.775 309.017 169.646 308.499 170.634Z" fill="white"/>
<path d="M320.281 170.12C320.29 171.111 319.561 171.905 318.642 171.907C317.74 171.909 316.954 171.088 316.953 170.143C316.952 169.196 317.745 168.397 318.708 168.375C319.639 168.354 320.271 169.055 320.281 170.12Z" fill="white"/>
<path d="M276.619 97.3658C276.619 98.7749 276.637 100.184 276.616 101.593C276.546 106.292 276.499 110.992 276.368 115.69C276.317 117.532 275.967 117.092 274.674 117.346C273.382 117.601 272.431 117.388 272.381 115.067C272.193 106.268 272.489 97.4659 272.547 88.665C272.548 88.4707 272.549 88.2762 272.549 88.0816C272.548 86.9319 272.728 86.6667 273.863 86.4061C274.722 86.2089 275.596 86.0681 276.469 85.9437C277.148 85.8471 277.558 86.0877 277.86 86.8251C278.349 88.0166 278.786 89.2301 279.228 90.4404C281.1 95.565 282.966 100.692 284.834 105.817C284.881 105.944 284.938 106.067 285.053 106.341C285.076 106.06 285.096 105.934 285.096 105.807C285.064 99.0213 285.029 92.235 284.997 85.4489C284.992 84.437 285.162 84.1983 286.135 83.878C286.638 83.7124 287.143 83.5499 287.657 83.4223C288.456 83.2238 288.903 83.4788 289.038 84.289C289.18 85.1404 289.28 86.006 289.305 86.8682C289.559 95.8789 289.68 104.891 289.436 113.904C289.41 114.846 289.127 115.251 288.233 115.546C286.95 115.968 285.633 116.208 284.276 116.178C283.593 116.164 283.151 115.858 282.928 115.216C281.277 110.462 279.634 105.707 277.981 100.954C277.563 99.7547 277.12 98.5643 276.688 97.3696C276.665 97.369 276.642 97.3674 276.619 97.3658Z" fill="white"/>
<path d="M312.263 96.9206C312.322 104.263 310.427 115.915 300.616 114.275C289.206 111.976 289.982 92.3073 295.006 84.6447C296.902 81.9815 299.645 81.1306 302.738 81.3989C310.37 81.9863 312.306 90.5763 312.263 96.9206ZM305.158 107.608C308.386 102.016 308.528 94.654 306.131 88.7846C304.878 86.1961 301.176 85.6302 299.035 87.6656C297.677 88.8149 296.907 92.1516 296.846 99.884C296.764 110.115 302.892 110.611 305.158 107.608Z" fill="white"/>
</g>
<defs>
<linearGradient id="paint0_linear_2590_2013" x1="0" y1="149" x2="425" y2="149" gradientUnits="userSpaceOnUse">
<stop stop-color="#FFC544"/>
<stop offset="1" stop-color="#FC4F47"/>
</linearGradient>
<clipPath id="clip0_2590_2013">
<rect width="148" height="148" fill="white" transform="translate(58 73)"/>
</clipPath>
<clipPath id="clip1_2590_2013">
<rect width="137" height="137" fill="white" transform="translate(226 78.5)"/>
</clipPath>
</defs>
</svg>
