<svg width="95" height="22" viewBox="0 0 95 22" fill="none" xmlns="http://www.w3.org/2000/svg">
<path d="M35.244 3.90784C35.7984 3.80571 36.433 3.72547 37.1479 3.66711C37.8774 3.60875 38.5412 3.57957 39.1394 3.57957C39.8105 3.57957 40.4452 3.65252 41.0433 3.79842C41.6561 3.94431 42.1886 4.18504 42.6409 4.5206C43.1078 4.85616 43.4798 5.29385 43.757 5.83366C44.0342 6.37348 44.1728 7.03001 44.1728 7.80326C44.1728 8.99961 43.8445 9.96982 43.188 10.7139C42.5315 11.458 41.6999 11.954 40.6932 12.202L41.7436 13.0118L45.5515 19.0737H43.4287L39.205 12.4646L37.0604 12.1364V19.0737H35.244V3.90784ZM39.1832 5.15525C38.9935 5.15525 38.7965 5.15525 38.5923 5.15525C38.388 5.15525 38.1911 5.16254 38.0014 5.17713C37.8117 5.19172 37.6294 5.20631 37.4543 5.2209C37.2938 5.23549 37.1625 5.25738 37.0604 5.28655V10.9327H38.7674C39.774 10.9327 40.6056 10.6847 41.2622 10.1887C41.9187 9.69261 42.247 8.91937 42.247 7.86891C42.247 7.08108 41.9771 6.43184 41.4373 5.9212C40.8974 5.41057 40.1461 5.15525 39.1832 5.15525ZM47.8215 3.90784C48.3759 3.80571 49.0106 3.72547 49.7255 3.66711C50.4549 3.60875 51.1188 3.57957 51.7169 3.57957C52.3881 3.57957 53.0227 3.65252 53.6209 3.79842C54.2336 3.94431 54.7662 4.18504 55.2184 4.5206C55.6853 4.85616 56.0573 5.29385 56.3345 5.83366C56.6117 6.37348 56.7504 7.03001 56.7504 7.80326C56.7504 8.99961 56.4221 9.96982 55.7656 10.7139C55.109 11.458 54.2774 11.954 53.2707 12.202L54.3212 13.0118L58.1291 19.0737H56.0063L51.7826 12.4646L49.6379 12.1364V19.0737H47.8215V3.90784ZM51.7607 5.15525C51.571 5.15525 51.3741 5.15525 51.1698 5.15525C50.9656 5.15525 50.7686 5.16254 50.5789 5.17713C50.3893 5.19172 50.2069 5.20631 50.0318 5.2209C49.8714 5.23549 49.74 5.25738 49.6379 5.28655V10.9327H51.3449C52.3516 10.9327 53.1832 10.6847 53.8397 10.1887C54.4963 9.69261 54.8245 8.91937 54.8245 7.86891C54.8245 7.08108 54.5546 6.43184 54.0148 5.9212C53.475 5.41057 52.7236 5.15525 51.7607 5.15525ZM60.8149 3.75465H62.6313V19.0737H60.8149V3.75465ZM69.0875 9.05067L67.9058 6.84035H67.8182L68.0371 9.05067V19.0737H66.3301V3.51392H67.293L74.6243 13.7339L75.7623 15.8348H75.8717L75.6309 13.7339V3.75465H77.3379V19.3145H76.375L69.0875 9.05067ZM87.5328 15.1783C87.5328 14.5655 87.3504 14.0695 86.9857 13.6902C86.621 13.2962 86.1614 12.9534 85.607 12.6616C85.0672 12.3552 84.4763 12.0707 83.8344 11.8081C83.1924 11.5455 82.5942 11.2318 82.0398 10.8671C81.5 10.4877 81.0477 10.0282 80.683 9.48836C80.3183 8.93396 80.1359 8.23365 80.1359 7.38746C80.1359 6.19111 80.5517 5.24279 81.3833 4.54248C82.2149 3.84218 83.3967 3.49203 84.9286 3.49203C85.8185 3.49203 86.6283 3.55769 87.3577 3.68899C88.0872 3.8203 88.6562 3.98808 89.0647 4.19233L88.5176 5.7899C88.1821 5.62941 87.686 5.47622 87.0295 5.33032C86.3875 5.18443 85.6581 5.11148 84.841 5.11148C83.8781 5.11148 83.1559 5.33032 82.6745 5.76801C82.193 6.19111 81.9523 6.69445 81.9523 7.27804C81.9523 7.84703 82.1347 8.32119 82.4994 8.70052C82.8641 9.07985 83.3164 9.42271 83.8562 9.72909C84.4106 10.0209 85.0088 10.3127 85.6508 10.6045C86.2927 10.8963 86.8836 11.2391 87.4234 11.633C87.9778 12.0124 88.4374 12.4719 88.8021 13.0118C89.1669 13.5516 89.3492 14.2227 89.3492 15.0251C89.3492 15.6816 89.2325 16.2725 88.9991 16.7978C88.7656 17.323 88.4228 17.7753 87.9705 18.1546C87.5182 18.5339 86.9711 18.8257 86.3292 19.03C85.6872 19.2342 84.9578 19.3363 84.1407 19.3363C83.0465 19.3363 82.142 19.2488 81.4271 19.0737C80.7122 18.9132 80.1578 18.7309 79.7639 18.5266L80.3766 16.8853C80.7122 17.075 81.2082 17.2646 81.8648 17.4543C82.5213 17.6294 83.2581 17.7169 84.0751 17.7169C84.5565 17.7169 85.0088 17.6731 85.4319 17.5856C85.855 17.4835 86.2198 17.3303 86.5261 17.126C86.8325 16.9072 87.0732 16.6373 87.2483 16.3163C87.438 15.9953 87.5328 15.616 87.5328 15.1783Z" fill="white"/>
<path d="M14.2754 5.37409H9.50456V19.0737H7.68816V5.37409H2.91736V3.75465H14.2754V5.37409Z" fill="white"/>
<circle cx="22.8441" cy="12.247" r="7.34503" stroke="#222222" stroke-width="1.65643"/>
<line x1="12.8242" y1="8.83298" x2="32.6885" y2="8.83298" stroke="#222222" stroke-width="0.414108"/>
<line x1="12.8242" y1="12.039" x2="32.6885" y2="12.039" stroke="#222222" stroke-width="0.414108"/>
<line x1="12.8242" y1="15.1692" x2="32.6885" y2="15.1692" stroke="#222222" stroke-width="0.414108"/>
</svg>
