<svg width="25" height="24" viewBox="0 0 25 24" fill="none" xmlns="http://www.w3.org/2000/svg">
<g id="vuesax/linear/filter">
<g id="filter">
<path id="Vector" d="M6.02832 2.10156H19.2283C20.3283 2.10156 21.2283 3.00156 21.2283 4.10156V6.30156C21.2283 7.10156 20.7283 8.10156 20.2283 8.60156L15.9283 12.4016C15.3283 12.9016 14.9283 13.9016 14.9283 14.7016V19.0016C14.9283 19.6016 14.5283 20.4016 14.0283 20.7016L12.6283 21.6016C11.3283 22.4016 9.52832 21.5016 9.52832 19.9016V14.6016C9.52832 13.9016 9.12832 13.0016 8.72832 12.5016L4.92832 8.50156C4.42832 8.00156 4.02832 7.10156 4.02832 6.50156V4.20156C4.02832 3.00156 4.92832 2.10156 6.02832 2.10156Z" stroke="#292D32" stroke-width="1.5" stroke-miterlimit="10" stroke-linecap="round" stroke-linejoin="round"/>
</g>
</g>
</svg>
