<svg width="18" height="18" viewBox="0 0 18 18" fill="none" xmlns="http://www.w3.org/2000/svg">
<g clip-path="url(#clip0_1776_54422)">
<path d="M17.0738 3.17617L14.8238 0.926172C14.7977 0.900041 14.7667 0.879313 14.7325 0.865171C14.6984 0.851029 14.6618 0.84375 14.6248 0.84375C14.5879 0.84375 14.5513 0.851029 14.5172 0.865171C14.483 0.879313 14.452 0.900041 14.4259 0.926172C14.3997 0.952303 14.379 0.983325 14.3649 1.01747C14.3507 1.05161 14.3434 1.0882 14.3434 1.12516C14.3434 1.16211 14.3507 1.1987 14.3649 1.23285C14.379 1.26699 14.3997 1.29801 14.4259 1.32414L14.5081 1.40641L9.93149 5.98375C8.39094 5.10203 6.63454 5.1182 5.59532 6.15742C5.33546 6.41785 5.13202 6.729 4.99766 7.07148C4.93196 7.22524 4.8229 7.35653 4.6838 7.4493C4.54469 7.54208 4.38158 7.59233 4.21438 7.59391C3.26165 7.62625 2.43618 7.96516 1.82376 8.57406C1.04188 9.36156 0.710006 10.4985 0.892819 11.7782C1.07141 13.0277 1.72251 14.2687 2.72657 15.2734C3.73063 16.2782 4.97235 16.9286 6.2218 17.1072C6.44511 17.1396 6.67045 17.1561 6.8961 17.1564C7.89805 17.1564 8.77977 16.8175 9.42735 16.172C10.0363 15.5624 10.3752 14.737 10.4075 13.7814C10.4092 13.6141 10.4597 13.4508 10.5527 13.3117C10.6457 13.1726 10.7773 13.0636 10.9313 12.9981C11.2738 12.8638 11.585 12.6603 11.8454 12.4005C12.8846 11.3613 12.9001 9.60484 12.0191 8.0643L16.5936 3.49188L16.6759 3.57414C16.7286 3.62691 16.8002 3.65656 16.8748 3.65656C16.9495 3.65656 17.0211 3.62691 17.0738 3.57414C17.1266 3.52137 17.1563 3.44979 17.1563 3.37516C17.1563 3.30052 17.1266 3.22895 17.0738 3.17617ZM11.4446 12.0067C11.2385 12.2126 10.9919 12.3735 10.7204 12.4792C10.465 12.5854 10.246 12.7638 10.0903 12.9924C9.93463 13.221 9.84889 13.4901 9.8436 13.7666C9.81688 14.5745 9.53493 15.2692 9.02797 15.7755C8.37126 16.4322 7.40376 16.7078 6.30337 16.5489C5.17344 16.3879 4.04563 15.793 3.12665 14.8741C2.20766 13.9551 1.61282 12.8273 1.4518 11.6973C1.2943 10.597 1.56993 9.62945 2.22524 8.97273C2.73149 8.46578 3.42618 8.18383 4.23407 8.15711C4.51088 8.15164 4.78008 8.06559 5.00874 7.90949C5.2374 7.75339 5.41559 7.53401 5.52149 7.2782C5.62718 7.0067 5.78807 6.76009 5.99399 6.55398C6.82368 5.7243 8.23274 5.71024 9.51946 6.39438L7.75532 8.15852C7.37713 8.18225 7.01382 8.31462 6.70901 8.53975C6.40419 8.76487 6.17083 9.07318 6.03691 9.42766C5.903 9.78215 5.87424 10.1677 5.95407 10.5382C6.03391 10.9086 6.21895 11.2481 6.48699 11.516C6.75502 11.7838 7.09467 11.9687 7.46515 12.0482C7.83564 12.1278 8.22122 12.0988 8.57561 11.9647C8.93 11.8305 9.23815 11.5969 9.46307 11.292C9.68799 10.987 9.82012 10.6236 9.8436 10.2454L11.6014 8.48125C12.2912 9.76797 12.2743 11.1798 11.4446 12.0067ZM7.87485 8.71891C8.24781 8.71891 8.6055 8.86706 8.86922 9.13079C9.13294 9.39451 9.2811 9.7522 9.2811 10.1252C9.2811 10.4033 9.19862 10.6752 9.0441 10.9064C8.88958 11.1377 8.66996 11.3179 8.413 11.4244C8.15604 11.5308 7.87329 11.5586 7.6005 11.5044C7.32772 11.4501 7.07715 11.3162 6.88048 11.1195C6.68381 10.9229 6.54988 10.6723 6.49562 10.3995C6.44136 10.1267 6.46921 9.84397 6.57564 9.58701C6.68208 9.33005 6.86232 9.11042 7.09358 8.9559C7.32484 8.80138 7.59672 8.71891 7.87485 8.71891ZM9.7529 9.53664C9.65757 9.2338 9.49056 8.95844 9.26606 8.73394C9.04157 8.50944 8.7662 8.34244 8.46337 8.24711L10.0102 6.70023C10.5125 7.05153 10.9492 7.48823 11.3005 7.99047L9.7529 9.53664ZM11.1092 6.89078C10.8935 6.67464 10.6607 6.47619 10.4131 6.29734L12.3748 4.33492L13.6644 5.62516L11.7048 7.58477C11.5252 7.33786 11.326 7.10579 11.1092 6.89078ZM14.0623 5.2293L12.7728 3.93766L14.9061 1.80438L16.1956 3.09391L14.0623 5.2293ZM6.38704 13.863C6.41317 13.8891 6.4339 13.9201 6.44804 13.9543C6.46218 13.9884 6.46946 14.025 6.46946 14.062C6.46946 14.0989 6.46218 14.1355 6.44804 14.1696C6.4339 14.2038 6.41317 14.2348 6.38704 14.2609C6.36091 14.2871 6.32988 14.3078 6.29574 14.3219C6.2616 14.3361 6.22501 14.3434 6.18805 14.3434C6.1511 14.3434 6.11451 14.3361 6.08036 14.3219C6.04622 14.3078 6.0152 14.2871 5.98907 14.2609L3.73907 12.0109C3.68629 11.9582 3.65665 11.8866 3.65665 11.812C3.65665 11.7373 3.68629 11.6657 3.73907 11.613C3.79184 11.5602 3.86342 11.5305 3.93805 11.5305C4.01269 11.5305 4.08426 11.5602 4.13704 11.613L6.38704 13.863Z" fill="black" stroke="black" stroke-width="0.3"/>
</g>
<defs>
<clipPath id="clip0_1776_54422">
<rect width="18" height="18" fill="white"/>
</clipPath>
</defs>
</svg>
