<svg width="16" height="16" viewBox="0 0 16 16" fill="none" xmlns="http://www.w3.org/2000/svg">
<g clip-path="url(#clip0_1776_54437)">
<path d="M13.5508 0.913007C13.5008 0.944257 13.4446 1.00676 13.4383 1.04426C13.4196 1.12551 13.4571 1.26301 13.5071 1.29426C13.5258 1.30051 13.5383 1.32551 13.5383 1.33801C13.5383 1.36301 13.1008 1.64426 13.0633 1.64426C13.0571 1.64426 12.9946 1.59426 12.9321 1.53801C12.8633 1.48176 12.7883 1.43176 12.7508 1.43176C12.5258 1.43176 12.4008 1.68801 12.5321 1.86301L12.5883 1.93801L12.3508 2.08176L12.1071 2.22551L11.9883 2.11301C11.8508 1.98801 11.7321 1.97551 11.6133 2.06926C11.5196 2.14426 11.5008 2.31301 11.5883 2.43176C11.6383 2.50051 11.6383 2.50676 11.5633 2.55051C11.4258 2.63801 11.2196 2.88176 11.1321 3.04426C11.0383 3.24426 10.9758 3.53801 11.0008 3.70051L11.0196 3.81301L9.38833 5.43801L7.75708 7.06301L7.77583 6.89426C7.78208 6.80051 7.81333 6.53801 7.84458 6.30051C7.90083 5.83176 7.88208 5.61301 7.76333 5.30676C7.56958 4.80676 7.11958 4.52551 6.64458 4.60676C6.28208 4.66926 5.83833 4.93176 5.51333 5.26926C5.20083 5.60051 5.00708 5.93176 4.66333 6.74426C4.45083 7.24426 4.29458 7.51301 4.13833 7.63176C4.07583 7.68176 3.58833 7.87551 2.97583 8.10676C2.39458 8.32551 1.84458 8.53801 1.75708 8.57551C1.09458 8.90676 0.669578 9.55051 0.632078 10.3068C0.607078 10.838 0.725828 11.263 1.13208 12.063C1.92583 13.6255 3.07583 14.6443 4.44458 14.9818C5.06958 15.138 5.58833 15.1505 6.11958 15.0318C6.77583 14.8755 7.23833 14.4568 7.46333 13.8005C7.49458 13.7068 7.62583 13.1693 7.75083 12.6068C7.91333 11.8755 8.00708 11.5443 8.05708 11.4505C8.16958 11.2568 8.42583 11.0755 8.99458 10.788C9.80083 10.3755 9.99458 10.2255 10.0883 9.91301C10.1446 9.71926 10.1446 9.42551 10.0883 9.25051C10.0321 9.08801 9.86958 8.88801 9.70708 8.78176C9.55708 8.68176 9.11958 8.54426 8.83208 8.49426L8.60708 8.45676L10.3946 6.66926L12.1758 4.88801L12.3571 4.86926C12.5883 4.85051 12.8321 4.75676 13.0071 4.64426C13.0946 4.58176 13.3571 4.29426 13.6758 3.90051L14.2071 3.25051L14.4008 3.21301C14.8633 3.11926 15.1133 2.95051 15.2821 2.61301C15.3758 2.43176 15.3821 2.38801 15.3821 2.13801C15.3821 1.90051 15.3696 1.84426 15.2946 1.69426C15.1883 1.47551 15.0196 1.30051 14.8133 1.19426C14.6758 1.12551 14.6071 1.11301 14.3321 1.10051C14.0196 1.08801 14.0071 1.08801 13.9071 0.988007C13.7633 0.856757 13.6696 0.838007 13.5508 0.913007ZM14.5633 1.65051C14.6508 1.69426 14.7258 1.76301 14.7883 1.85676C14.8696 1.98176 14.8758 2.01926 14.8696 2.18176C14.8633 2.32551 14.8383 2.39426 14.7758 2.48176C14.6633 2.61926 14.5633 2.67551 14.2758 2.73176C14.1446 2.75676 14.0071 2.79426 13.9633 2.80676C13.9196 2.82551 13.6383 3.14426 13.3258 3.52551C12.6821 4.30676 12.6258 4.35676 12.2758 4.35676C12.0321 4.35676 11.8571 4.28176 11.7071 4.11926C11.6008 4.00051 11.5008 3.75676 11.5008 3.61301C11.5008 3.46301 11.6008 3.23176 11.7071 3.11926C11.8133 3.00676 13.8758 1.74426 14.1196 1.63801C14.2633 1.56926 14.4071 1.57551 14.5633 1.65051ZM11.4196 4.55051L11.6196 4.73176L8.98208 7.36926C7.53208 8.81926 6.33208 10.0068 6.31958 10.0068C6.28208 10.0068 5.93833 9.66926 5.93833 9.62551C5.93833 9.58801 11.1696 4.35051 11.2008 4.35676C11.2071 4.36301 11.3071 4.45051 11.4196 4.55051ZM6.98208 5.15676C7.10708 5.21301 7.20083 5.30676 7.28208 5.49426C7.33833 5.61301 7.35083 5.70051 7.35083 5.91926C7.35083 6.13801 7.22583 7.35051 7.16958 7.61926C7.16333 7.65051 6.74458 8.08801 6.24458 8.58801C5.74458 9.08801 5.32583 9.53176 5.31333 9.56926C5.28208 9.69426 5.36333 9.80676 5.78833 10.2318C6.17583 10.613 6.21958 10.6443 6.32583 10.6443C6.43833 10.6443 6.47583 10.6068 7.30083 9.78801L8.15708 8.93176L8.42583 8.96926C9.06958 9.05676 9.38208 9.15676 9.52583 9.31926C9.60708 9.41301 9.61958 9.44426 9.61958 9.60051C9.61958 9.88176 9.55083 9.93801 8.80083 10.3255C8.54458 10.4568 8.24458 10.6193 8.14458 10.6818C7.89458 10.8443 7.66333 11.088 7.56958 11.2818C7.51958 11.388 7.40708 11.8318 7.25083 12.5068C7.11958 13.088 6.97583 13.663 6.92583 13.7818C6.77583 14.1568 6.45083 14.438 6.03833 14.5443C5.21333 14.7568 4.09458 14.4943 3.25083 13.888C2.42583 13.3005 1.65708 12.2255 1.25708 11.1005C1.14458 10.788 1.10708 10.3693 1.16333 10.088C1.24458 9.70051 1.56333 9.27551 1.91333 9.08801C2.00083 9.04426 2.55083 8.82551 3.14458 8.60676C3.78833 8.36926 4.28833 8.16301 4.37583 8.10676C4.65708 7.92551 4.85708 7.62551 5.11958 7.00051C5.31333 6.53176 5.51958 6.12551 5.64458 5.93801C5.87583 5.60051 6.25708 5.28176 6.55083 5.17551C6.74458 5.10051 6.85083 5.09426 6.98208 5.15676Z" fill="black"/>
<path d="M4.63906 10.2001C4.56406 10.2626 4.53906 10.3064 4.53906 10.3939C4.53906 10.4939 4.57656 10.5376 4.98906 10.9501C5.37656 11.3376 5.45156 11.4001 5.53281 11.4001C5.67031 11.4001 5.72031 11.3751 5.77031 11.2751C5.85156 11.1189 5.80781 11.0501 5.34531 10.5876C4.86406 10.1001 4.80156 10.0626 4.63906 10.2001Z" fill="black"/>
<path d="M3.9625 10.9076C3.85625 10.9451 3.78125 11.0514 3.78125 11.1576C3.78125 11.2576 3.81875 11.3014 4.23125 11.7139C4.65 12.1326 4.6875 12.1639 4.79375 12.1639C4.9875 12.1639 5.10625 11.9764 5.01875 11.8139C4.9625 11.7076 4.16875 10.9201 4.125 10.9201C4.1125 10.9201 4.075 10.9139 4.05 10.9076C4.025 10.8951 3.9875 10.9014 3.9625 10.9076Z" fill="black"/>
<path d="M6.24476 12.6072C6.07601 12.8259 6.29476 13.0947 6.56351 12.9947C6.63851 12.9634 6.70726 12.8072 6.68226 12.7072C6.63851 12.5197 6.36351 12.4572 6.24476 12.6072Z" fill="black"/>
<path d="M5.46953 13.1192C5.36953 13.213 5.36953 13.3442 5.46953 13.4567C5.60078 13.613 5.85078 13.5505 5.90078 13.3442C5.95078 13.1067 5.64453 12.938 5.46953 13.1192Z" fill="black"/>
<path d="M4.73729 13.5938C4.58104 13.6875 4.54979 13.875 4.67479 14C4.76854 14.1 4.89979 14.1 5.01229 14C5.11854 13.9125 5.13104 13.7375 5.03729 13.65C4.96854 13.575 4.81854 13.55 4.73729 13.5938Z" fill="black"/>
</g>
<defs>
<clipPath id="clip0_1776_54437">
<rect width="16" height="16" fill="white"/>
</clipPath>
</defs>
</svg>
