<svg width="16" height="16" viewBox="0 0 16 16" fill="none" xmlns="http://www.w3.org/2000/svg">
<g clip-path="url(#clip0_1776_54449)">
<path d="M5.32041 4.20068C6.14661 4.08472 7.02069 4.02578 7.91738 4.02578C8.85948 4.02578 9.76802 4.08888 10.6182 4.2133L10.6595 4.21938L11.0905 3.78785L10.9316 3.76199C9.9801 3.60779 8.96582 3.5293 7.91738 3.5293C6.90919 3.5293 5.92931 3.60286 5.00622 3.74606L4.8457 3.77138L5.28024 4.20538L5.32041 4.20068Z" fill="#010002" stroke="black" stroke-width="0.3"/>
<path d="M12.1033 4.00284L12.0576 3.9913L11.6465 4.40105L11.7913 4.43545C13.5519 4.85182 14.6895 5.54884 14.6895 6.21145C14.6895 6.62098 14.2346 7.06459 13.4368 7.4378V7.34854H12.9402V7.64295C12.2652 7.8938 11.4297 8.09295 10.514 8.22153V8.13866H10.0183V8.28548C9.34499 8.35842 8.63805 8.39567 7.9168 8.39567C7.67802 8.39567 7.42632 8.39043 7.15069 8.37997V8.13842H6.65444V8.35381C5.58784 8.2874 4.61489 8.13927 3.75867 7.91319V7.62455H3.26242V7.77053C1.95297 7.35138 1.14469 6.75849 1.14469 6.21099C1.14469 5.53437 2.31948 4.82905 4.13849 4.4146L4.28447 4.38159L3.87217 3.96875L3.82669 3.98006C2.07301 4.41044 0.941154 5.10276 0.700763 5.88741H0.648438V13.0856C0.648438 13.9082 1.59992 14.665 3.26242 15.1656V15.4217H3.75867V15.2998C4.62343 15.5171 5.59715 15.6608 6.65444 15.7255V16.0006H7.15069V15.7517C7.42802 15.7618 7.67972 15.7671 7.9168 15.7671C8.63643 15.7671 9.34252 15.7301 10.0183 15.658V15.7784H10.5145V15.5955C11.5057 15.4612 12.3765 15.2565 13.1046 14.9869H13.437V14.8537C14.3411 14.4689 14.9165 13.995 15.1098 13.4778H15.1852V6.27924L15.1819 6.24892C15.1847 6.236 15.1855 6.22361 15.1855 6.21122C15.1855 5.30521 14.0622 4.50024 12.1033 4.00284ZM1.14469 13.0856V7.21172C1.58615 7.63471 2.31178 8.00515 3.26242 8.29125V14.6456C1.95266 14.2265 1.14469 13.6336 1.14469 13.0856ZM6.65444 8.85029V15.2281C5.58784 15.162 4.61489 15.0141 3.75867 14.788V8.42514C4.62343 8.64237 5.59723 8.78588 6.65444 8.85029ZM14.6898 7.21172V13.0855C14.6898 13.4953 14.2349 13.9392 13.4371 14.3119V7.97845C13.9763 7.74929 14.3963 7.49151 14.6898 7.21172ZM12.9405 8.17259V14.5171C12.2655 14.7679 11.43 14.9673 10.5143 15.0962V8.72032C11.4361 8.59558 12.2512 8.41136 12.9405 8.17259ZM7.15069 8.87645C7.42802 8.88661 7.67972 8.89215 7.9168 8.89215C8.63643 8.89215 9.34252 8.85552 10.0183 8.78334V15.1595C9.34499 15.233 8.63805 15.2702 7.9168 15.2702C7.67802 15.2702 7.42632 15.265 7.15069 15.2545V8.87645Z" fill="#010002" stroke="black" stroke-width="0.3"/>
<path d="M9.21092 5.4395C9.10104 5.54884 9.04102 5.69451 9.04102 5.84903C9.04102 6.00377 9.10104 6.14867 9.21092 6.25878C9.31996 6.36782 9.46593 6.42784 9.62045 6.42784C9.77496 6.42784 9.92032 6.36782 10.0291 6.25878C10.1872 6.10073 10.2379 5.86495 10.1638 5.65596L15.4689 0.351352L15.1186 0L9.81398 5.30514C9.60329 5.23158 9.36567 5.28506 9.21092 5.4395Z" fill="#010002" stroke="black" stroke-width="0.3"/>
<path d="M5.97083 6.28004C6.07986 6.38938 6.22499 6.44971 6.38035 6.44971C6.5351 6.44971 6.67999 6.38969 6.78903 6.28004C6.89892 6.17015 6.95924 6.02502 6.95924 5.87051C6.95924 5.71576 6.89922 5.57087 6.78903 5.46129C6.63452 5.30624 6.39574 5.25337 6.18705 5.32632L0.881602 0.0214844L0.53125 0.372606L5.83586 5.67721C5.76206 5.88682 5.81269 6.12229 5.97083 6.28004Z" fill="#010002" stroke="black" stroke-width="0.3"/>
</g>
<defs>
<clipPath id="clip0_1776_54449">
<rect width="16" height="16" fill="white"/>
</clipPath>
</defs>
</svg>
