<svg width="20" height="20" viewBox="0 0 20 20" fill="none" xmlns="http://www.w3.org/2000/svg">
<path d="M17.7169 7.04192L15.2713 8.20817L15.2581 8.21446L15.2504 8.22687L15.2928 8.2533C15.2504 8.22687 15.2504 8.22693 15.2503 8.22699L15.2502 8.22713L15.25 8.22746L15.2495 8.22832L15.2481 8.23082L15.2436 8.23918C15.24 8.24631 15.235 8.25666 15.2291 8.27077C15.2173 8.29898 15.2016 8.34231 15.1844 8.40518C15.1499 8.53087 15.1093 8.73521 15.0823 9.05401C15.0284 9.69144 15.0287 10.789 15.2432 12.6349C15.3468 13.5271 14.7162 14.3518 13.6784 14.9953C12.6434 15.6373 11.2182 16.0886 9.77072 16.2365C8.32286 16.3845 6.85926 16.2281 5.74531 15.6616C4.6344 15.0966 3.86974 14.1234 3.81208 12.6272C3.69997 9.71854 3.69555 8.5962 3.72092 8.21571L3.72323 8.18102L3.69152 8.16677L1.18419 7.04038L9.41071 2.32466L17.7169 7.04192Z" fill="#DFA935" stroke="#F7F7F6" stroke-width="0.1"/>
<mask id="path-2-outside-1_1762_4682" maskUnits="userSpaceOnUse" x="-0.3125" y="1.04883" width="21" height="17" fill="black">
<rect fill="white" x="-0.3125" y="1.04883" width="21" height="17"/>
<path d="M18.3231 12.1471V6.73711V6.73523C18.3231 6.26648 18.0588 5.85148 17.6331 5.65336L10.2769 2.22086C9.78688 1.99148 9.22375 1.99148 8.7325 2.22086L1.37688 5.65336C0.95125 5.85148 0.6875 6.26648 0.6875 6.73523C0.6875 7.20461 0.95125 7.61961 1.37688 7.81773L3.10875 8.62586V13.2934C3.10875 14.1696 3.58 14.9859 4.34 15.4234L5.7525 16.2384C6.91 16.9046 8.2075 17.239 9.505 17.239C10.8031 17.239 12.1006 16.9052 13.2581 16.2384L14.6713 15.4234C15.43 14.9859 15.9019 14.169 15.9019 13.2934V8.62586L17.1981 8.02086V12.1471C16.6375 12.2459 16.2087 12.7334 16.2087 13.3227V14.7559C16.2087 15.4152 16.745 15.9515 17.405 15.9515H18.1162C18.7756 15.9515 19.3125 15.4152 19.3125 14.7559V13.3227C19.3125 12.734 18.8844 12.2459 18.3231 12.1471ZM14.7775 13.294C14.7775 13.7696 14.5212 14.2121 14.11 14.4496L12.6969 15.264C10.7287 16.3984 8.28312 16.399 6.31437 15.2646L4.90188 14.4502C4.49 14.2121 4.23375 13.7696 4.23375 13.294V9.15086L8.73312 11.2502C8.97875 11.3652 9.24187 11.4221 9.50562 11.4221C9.76875 11.4221 10.0325 11.3646 10.2775 11.2502L14.7769 9.15086L14.7775 13.294ZM17.1588 6.79898L9.8025 10.2315C9.61375 10.3202 9.3975 10.3196 9.20875 10.2315L1.8525 6.79898C1.84062 6.79336 1.8125 6.77961 1.8125 6.73523C1.8125 6.69148 1.84062 6.67773 1.8525 6.67211L9.20875 3.23961C9.30312 3.19586 9.40438 3.17398 9.50562 3.17398C9.60687 3.17398 9.70813 3.19586 9.8025 3.23961L17.1588 6.67211C17.1713 6.67773 17.1987 6.69086 17.1987 6.73523C17.1987 6.77961 17.1706 6.79336 17.1588 6.79898ZM18.1875 14.7559C18.1875 14.7952 18.1556 14.8259 18.1162 14.8259H17.405C17.3656 14.8259 17.3337 14.7946 17.3337 14.7559V13.3227C17.3337 13.2834 17.3656 13.2521 17.405 13.2521H18.1162C18.1556 13.2521 18.1875 13.284 18.1875 13.3227V14.7559Z"/>
</mask>
<path d="M18.3231 12.1471V6.73711V6.73523C18.3231 6.26648 18.0588 5.85148 17.6331 5.65336L10.2769 2.22086C9.78688 1.99148 9.22375 1.99148 8.7325 2.22086L1.37688 5.65336C0.95125 5.85148 0.6875 6.26648 0.6875 6.73523C0.6875 7.20461 0.95125 7.61961 1.37688 7.81773L3.10875 8.62586V13.2934C3.10875 14.1696 3.58 14.9859 4.34 15.4234L5.7525 16.2384C6.91 16.9046 8.2075 17.239 9.505 17.239C10.8031 17.239 12.1006 16.9052 13.2581 16.2384L14.6713 15.4234C15.43 14.9859 15.9019 14.169 15.9019 13.2934V8.62586L17.1981 8.02086V12.1471C16.6375 12.2459 16.2087 12.7334 16.2087 13.3227V14.7559C16.2087 15.4152 16.745 15.9515 17.405 15.9515H18.1162C18.7756 15.9515 19.3125 15.4152 19.3125 14.7559V13.3227C19.3125 12.734 18.8844 12.2459 18.3231 12.1471ZM14.7775 13.294C14.7775 13.7696 14.5212 14.2121 14.11 14.4496L12.6969 15.264C10.7287 16.3984 8.28312 16.399 6.31437 15.2646L4.90188 14.4502C4.49 14.2121 4.23375 13.7696 4.23375 13.294V9.15086L8.73312 11.2502C8.97875 11.3652 9.24187 11.4221 9.50562 11.4221C9.76875 11.4221 10.0325 11.3646 10.2775 11.2502L14.7769 9.15086L14.7775 13.294ZM17.1588 6.79898L9.8025 10.2315C9.61375 10.3202 9.3975 10.3196 9.20875 10.2315L1.8525 6.79898C1.84062 6.79336 1.8125 6.77961 1.8125 6.73523C1.8125 6.69148 1.84062 6.67773 1.8525 6.67211L9.20875 3.23961C9.30312 3.19586 9.40438 3.17398 9.50562 3.17398C9.60687 3.17398 9.70813 3.19586 9.8025 3.23961L17.1588 6.67211C17.1713 6.67773 17.1987 6.69086 17.1987 6.73523C17.1987 6.77961 17.1706 6.79336 17.1588 6.79898ZM18.1875 14.7559C18.1875 14.7952 18.1556 14.8259 18.1162 14.8259H17.405C17.3656 14.8259 17.3337 14.7946 17.3337 14.7559V13.3227C17.3337 13.2834 17.3656 13.2521 17.405 13.2521H18.1162C18.1556 13.2521 18.1875 13.284 18.1875 13.3227V14.7559Z" fill="#DFA935"/>
<path d="M18.3231 12.1471H17.8231V12.5668L18.2365 12.6395L18.3231 12.1471ZM17.6331 5.65336L17.4217 6.10646L17.4221 6.10666L17.6331 5.65336ZM10.2769 2.22086L10.0649 2.6737L10.0655 2.67396L10.2769 2.22086ZM8.7325 2.22086L8.94394 2.67395L8.94404 2.67391L8.7325 2.22086ZM1.37688 5.65336L1.58788 6.10666L1.58831 6.10645L1.37688 5.65336ZM1.37688 7.81773L1.5883 7.36463L1.58788 7.36444L1.37688 7.81773ZM3.10875 8.62586H3.60875V8.30741L3.32017 8.17276L3.10875 8.62586ZM4.34 15.4234L4.58988 14.9903L4.58945 14.99L4.34 15.4234ZM5.7525 16.2384L5.50262 16.6714L5.50307 16.6717L5.7525 16.2384ZM13.2581 16.2384L13.5077 16.6716L13.5079 16.6715L13.2581 16.2384ZM14.6713 15.4234L14.4215 14.9902L14.4214 14.9902L14.6713 15.4234ZM15.9019 8.62586L15.6904 8.17278L15.4019 8.30745V8.62586H15.9019ZM17.1981 8.02086H17.6981V7.23571L16.9867 7.56778L17.1981 8.02086ZM17.1981 12.1471L17.2849 12.6395L17.6981 12.5667V12.1471H17.1981ZM14.7775 13.294H15.2775V13.2939L14.7775 13.294ZM14.11 14.4496L14.3597 14.8828L14.3601 14.8826L14.11 14.4496ZM12.6969 15.264L12.4472 14.8308L12.4472 14.8308L12.6969 15.264ZM6.31437 15.2646L6.06463 15.6978L6.06475 15.6978L6.31437 15.2646ZM4.90188 14.4502L4.65162 14.8831L4.65214 14.8834L4.90188 14.4502ZM4.23375 9.15086L4.44517 8.69775L3.73375 8.36581V9.15086H4.23375ZM8.73312 11.2502L8.94514 10.7974L8.94454 10.7971L8.73312 11.2502ZM10.2775 11.2502L10.0661 10.7971L10.066 10.7972L10.2775 11.2502ZM14.7769 9.15086L15.2769 9.15078L15.2768 8.36587L14.5655 8.69775L14.7769 9.15086ZM17.1588 6.79898L17.3702 7.25209L17.3728 7.25085L17.1588 6.79898ZM9.8025 10.2315L9.59108 9.77838L9.58975 9.77901L9.8025 10.2315ZM9.20875 10.2315L9.42027 9.77843L9.42017 9.77838L9.20875 10.2315ZM1.8525 6.79898L1.63845 7.25086L1.64108 7.25209L1.8525 6.79898ZM1.8525 6.67211L1.64107 6.219L1.63846 6.22024L1.8525 6.67211ZM9.20875 3.23961L8.99846 2.78598L8.99733 2.78651L9.20875 3.23961ZM9.8025 3.23961L10.0139 2.78651L10.0128 2.78598L9.8025 3.23961ZM17.1588 6.67211L16.9473 7.12525L16.9536 7.12807L17.1588 6.67211ZM18.8231 12.1471V6.73711H17.8231V12.1471H18.8231ZM18.8231 6.73711V6.73523H17.8231V6.73711H18.8231ZM18.8231 6.73523C18.8231 6.07203 18.446 5.48024 17.8441 5.20006L17.4221 6.10666C17.6715 6.22273 17.8231 6.46094 17.8231 6.73523H18.8231ZM17.8445 5.20026L10.4883 1.76776L10.0655 2.67396L17.4217 6.10646L17.8445 5.20026ZM10.4889 1.76802C9.86436 1.47568 9.14612 1.47591 8.52096 1.76781L8.94404 2.67391C9.30138 2.50706 9.70939 2.50728 10.0649 2.6737L10.4889 1.76802ZM8.52106 1.76776L1.16544 5.20027L1.58831 6.10645L8.94394 2.67395L8.52106 1.76776ZM1.16587 5.20006C0.563563 5.48043 0.1875 6.0725 0.1875 6.73523H1.1875C1.1875 6.46047 1.33894 6.22254 1.58788 6.10666L1.16587 5.20006ZM0.1875 6.73523C0.1875 7.39845 0.563428 7.9906 1.16587 8.27103L1.58788 7.36444C1.33907 7.24862 1.1875 7.01077 1.1875 6.73523H0.1875ZM1.16545 8.27083L2.89733 9.07896L3.32017 8.17276L1.5883 7.36463L1.16545 8.27083ZM2.60875 8.62586V13.2934H3.60875V8.62586H2.60875ZM2.60875 13.2934C2.60875 14.3483 3.17537 15.3299 4.09055 15.8567L4.58945 14.99C3.98463 14.6419 3.60875 13.9909 3.60875 13.2934H2.60875ZM4.09012 15.8564L5.50262 16.6714L6.00238 15.8053L4.58988 14.9903L4.09012 15.8564ZM5.50307 16.6717C6.73805 17.3825 8.12183 17.739 9.505 17.739V16.739C8.29318 16.739 7.08195 16.4267 6.00193 15.805L5.50307 16.6717ZM9.505 17.739C10.8886 17.739 12.2725 17.3833 13.5077 16.6716L13.0085 15.8051C11.9287 16.4272 10.7176 16.739 9.505 16.739V17.739ZM13.5079 16.6715L14.9211 15.8565L14.4214 14.9902L13.0083 15.8052L13.5079 16.6715ZM14.921 15.8565C15.8346 15.3297 16.4019 14.3477 16.4019 13.2934H15.4019C15.4019 13.9902 15.0254 14.642 14.4215 14.9902L14.921 15.8565ZM16.4019 13.2934V8.62586H15.4019V13.2934H16.4019ZM16.1133 9.07894L17.4096 8.47394L16.9867 7.56778L15.6904 8.17278L16.1133 9.07894ZM16.6981 8.02086V12.1471H17.6981V8.02086H16.6981ZM17.1114 11.6547C16.3185 11.7944 15.7087 12.4839 15.7087 13.3227H16.7087C16.7087 12.9828 16.9565 12.6974 17.2849 12.6395L17.1114 11.6547ZM15.7087 13.3227V14.7559H16.7087V13.3227H15.7087ZM15.7087 14.7559C15.7087 15.6915 16.469 16.4515 17.405 16.4515V15.4515C17.021 15.4515 16.7087 15.1389 16.7087 14.7559H15.7087ZM17.405 16.4515H18.1162V15.4515H17.405V16.4515ZM18.1162 16.4515C19.0514 16.4515 19.8125 15.6917 19.8125 14.7559H18.8125C18.8125 15.1388 18.4998 15.4515 18.1162 15.4515V16.4515ZM19.8125 14.7559V13.3227H18.8125V14.7559H19.8125ZM19.8125 13.3227C19.8125 12.4849 19.2037 11.7944 18.4098 11.6547L18.2365 12.6395C18.565 12.6973 18.8125 12.9831 18.8125 13.3227H19.8125ZM14.2775 13.294C14.2775 13.5906 14.1169 13.8682 13.8599 14.0166L14.3601 14.8826C14.9256 14.556 15.2775 13.9487 15.2775 13.294H14.2775ZM13.8603 14.0164L12.4472 14.8308L12.9465 15.6972L14.3597 14.8828L13.8603 14.0164ZM12.4472 14.8308C10.6335 15.8761 8.37817 15.8767 6.564 14.8314L6.06475 15.6978C8.18808 16.9213 10.824 16.9206 12.9466 15.6972L12.4472 14.8308ZM6.56411 14.8314L5.15161 14.0171L4.65214 14.8834L6.06463 15.6978L6.56411 14.8314ZM5.15213 14.0174C4.8942 13.8682 4.73375 13.5904 4.73375 13.294H3.73375C3.73375 13.9488 4.0858 14.556 4.65162 14.8831L5.15213 14.0174ZM4.73375 13.294V9.15086H3.73375V13.294H4.73375ZM4.02233 9.60396L8.52171 11.7033L8.94454 10.7971L4.44517 8.69775L4.02233 9.60396ZM8.52111 11.7031C8.83405 11.8496 9.16966 11.9221 9.50562 11.9221V10.9221C9.31409 10.9221 9.12345 10.8809 8.94514 10.7974L8.52111 11.7031ZM9.50562 11.9221C9.84155 11.9221 10.1775 11.8487 10.489 11.7033L10.066 10.7972C9.88748 10.8805 9.69595 10.9221 9.50562 10.9221V11.9221ZM10.4889 11.7033L14.9883 9.60396L14.5655 8.69775L10.0661 10.7971L10.4889 11.7033ZM14.2769 9.15093L14.2775 13.2941L15.2775 13.2939L15.2769 9.15078L14.2769 9.15093ZM16.9473 6.34588L9.59108 9.77838L10.0139 10.6846L17.3702 7.25209L16.9473 6.34588ZM9.58975 9.77901C9.53674 9.80393 9.47595 9.80442 9.42027 9.77843L8.99722 10.6845C9.31905 10.8348 9.69076 10.8365 10.0153 10.684L9.58975 9.77901ZM9.42017 9.77838L2.06392 6.34588L1.64108 7.25209L8.99733 10.6846L9.42017 9.77838ZM2.06654 6.34712C2.06631 6.34701 2.08723 6.3566 2.11195 6.37252C2.13756 6.38901 2.17088 6.41433 2.20358 6.45153C2.27796 6.53614 2.3125 6.64003 2.3125 6.73523H1.3125C1.3125 6.87482 1.3611 7.00777 1.45251 7.11175C1.53325 7.20359 1.62451 7.24425 1.63846 7.25085L2.06654 6.34712ZM2.3125 6.73523C2.3125 6.83274 2.27663 6.93706 2.20226 7.02099C2.16962 7.05782 2.13652 7.0828 2.11129 7.099C2.0869 7.11465 2.06629 7.1241 2.06654 7.12398L1.63846 6.22024C1.62483 6.22669 1.53426 6.26701 1.45384 6.35776C1.36243 6.46091 1.3125 6.59398 1.3125 6.73523H2.3125ZM2.06392 7.12521L9.42017 3.69271L8.99733 2.78651L1.64108 6.21901L2.06392 7.12521ZM9.41904 3.69324C9.44708 3.68024 9.47653 3.67398 9.50562 3.67398V2.67398C9.33222 2.67398 9.15917 2.71148 8.99846 2.78598L9.41904 3.69324ZM9.50562 3.67398C9.53472 3.67398 9.56417 3.68024 9.59221 3.69324L10.0128 2.78598C9.85208 2.71148 9.67903 2.67398 9.50562 2.67398V3.67398ZM9.59108 3.69271L16.9473 7.12521L17.3702 6.21901L10.0139 2.78651L9.59108 3.69271ZM16.9536 7.12807C16.95 7.12649 16.8755 7.09567 16.809 7.02055C16.7316 6.93306 16.6987 6.82746 16.6987 6.73523H17.6987C17.6987 6.59863 17.6521 6.46428 17.5578 6.35773C17.4745 6.26355 17.38 6.22336 17.3639 6.21615L16.9536 7.12807ZM16.6987 6.73523C16.6987 6.64003 16.7333 6.53615 16.8077 6.45153C16.8404 6.41433 16.8737 6.38901 16.8993 6.37252C16.924 6.3566 16.9449 6.34701 16.9447 6.34712L17.3728 7.25085C17.3867 7.24424 17.478 7.20359 17.5587 7.11175C17.6502 7.00776 17.6987 6.87481 17.6987 6.73523H16.6987ZM17.6875 14.7559C17.6875 14.5076 17.8911 14.3259 18.1162 14.3259V15.3259C18.4201 15.3259 18.6875 15.0829 18.6875 14.7559H17.6875ZM18.1162 14.3259H17.405V15.3259H18.1162V14.3259ZM17.405 14.3259C17.6331 14.3259 17.8337 14.5099 17.8337 14.7559H16.8337C16.8337 15.0794 17.0982 15.3259 17.405 15.3259V14.3259ZM17.8337 14.7559V13.3227H16.8337V14.7559H17.8337ZM17.8337 13.3227C17.8337 13.5652 17.636 13.7521 17.405 13.7521V12.7521C17.0952 12.7521 16.8337 13.0015 16.8337 13.3227H17.8337ZM17.405 13.7521H18.1162V12.7521H17.405V13.7521ZM18.1162 13.7521C17.8824 13.7521 17.6875 13.563 17.6875 13.3227H18.6875C18.6875 13.005 18.4289 12.7521 18.1162 12.7521V13.7521ZM17.6875 13.3227V14.7559H18.6875V13.3227H17.6875Z" fill="#F7F7F6" mask="url(#path-2-outside-1_1762_4682)"/>
</svg>
