<svg width="20" height="20" viewBox="0 0 20 20" fill="none" xmlns="http://www.w3.org/2000/svg">
<g id="fi_16688979">
<g id="graduation_cap">
<path id="Vector" d="M18.2731 12.1891V12.1471V6.73711V6.73523C18.2731 6.28593 18.02 5.88861 17.612 5.69869L17.612 5.69867L10.2557 2.26617L10.2557 2.26614C9.77913 2.04306 9.23151 2.04304 8.75365 2.26616L8.75364 2.26617L1.39802 5.69867L1.39798 5.69869C0.990019 5.88859 0.7375 6.28588 0.7375 6.73523C0.7375 7.18523 0.990032 7.58251 1.39798 7.77241L1.39802 7.77242L3.12989 8.58055L3.15875 8.59402V8.62586V13.2934C3.15875 14.1517 3.62046 14.9515 4.36494 15.38L4.36499 15.3801L5.77744 16.195L18.2731 12.1891ZM18.2731 12.1891L18.3145 12.1964M18.2731 12.1891L18.3145 12.1964M18.3145 12.1964C18.8524 12.291 19.2625 12.7589 19.2625 13.3227V14.7559C19.2625 15.3876 18.748 15.9015 18.1162 15.9015H17.405C16.7726 15.9015 16.2587 15.3876 16.2587 14.7559V13.3227C16.2587 12.7583 16.6694 12.291 17.2068 12.1964L17.2481 12.1891V12.1471V8.02086V7.94234L17.177 7.97555L15.8807 8.58055L15.8519 8.59402V8.62586V13.2934C15.8519 14.1511 15.3895 14.9515 14.6463 15.38L14.6713 15.4234M18.3145 12.1964L14.6713 15.4234M14.6713 15.4234L14.6463 15.38L13.2332 16.195C12.0834 16.8574 10.7946 17.189 9.505 17.189C8.21608 17.189 6.92723 16.8568 5.77749 16.1951L14.6713 15.4234ZM14.135 14.4929L14.135 14.4929C14.5617 14.2465 14.8275 13.7875 14.8275 13.294L14.8269 9.15085L14.8269 9.07236L14.7557 9.10555L10.2564 11.2049L10.2563 11.2049C10.018 11.3162 9.76147 11.3721 9.50562 11.3721C9.2491 11.3721 8.99322 11.3168 8.75433 11.205L8.75427 11.2049L4.25489 9.10555L4.18375 9.07235V9.15086V13.294C4.18375 13.7875 4.44958 14.2465 4.87685 14.4935L4.8769 14.4936L6.2894 15.3079L6.28941 15.3079C8.27362 16.4512 10.7383 16.4506 12.7218 15.3073L14.135 14.4929ZM17.1799 6.8443L17.1802 6.84417L17.1805 6.84403C17.1874 6.84072 17.2053 6.83229 17.2208 6.81465C17.2376 6.79553 17.2487 6.76916 17.2487 6.73523C17.2487 6.70161 17.2379 6.67523 17.2209 6.656C17.2052 6.63827 17.187 6.63001 17.1796 6.62666C17.1795 6.62663 17.1795 6.6266 17.1794 6.62657L17.1793 6.62651L9.82364 3.1943L9.82353 3.19425C9.72252 3.14742 9.61409 3.12398 9.50562 3.12398C9.39716 3.12398 9.28873 3.14742 9.18772 3.19425L9.18761 3.1943L1.83136 6.6268L1.8311 6.62692L1.83079 6.62707C1.82385 6.63035 1.8061 6.63875 1.79063 6.65621C1.77382 6.67518 1.7625 6.70142 1.7625 6.73523C1.7625 6.76916 1.77369 6.79553 1.79049 6.81465C1.806 6.83229 1.82383 6.84073 1.83079 6.84403L1.8311 6.84417L1.83136 6.84429L9.1876 10.2768C9.38966 10.3711 9.62145 10.3719 9.82378 10.2767L17.1799 6.8443ZM18.1162 14.8759C18.1821 14.8759 18.2375 14.824 18.2375 14.7559V13.3227C18.2375 13.2561 18.183 13.2021 18.1162 13.2021H17.405C17.3386 13.2021 17.2838 13.2552 17.2838 13.3227V14.7559C17.2838 14.8231 17.3389 14.8759 17.405 14.8759H18.1162Z" fill="black" stroke="white" stroke-width="0.1"/>
</g>
</g>
</svg>
