<svg width="20" height="20" viewBox="0 0 20 20" fill="none" xmlns="http://www.w3.org/2000/svg">
<g id="fi_2741309">
<g id="Group">
<g id="Vector">
<mask id="path-1-outside-1_1324_5561" maskUnits="userSpaceOnUse" x="0.651093" y="2.65674" width="18" height="17" fill="black">
<rect fill="white" x="0.651093" y="2.65674" width="18" height="17"/>
<path d="M18.024 3.80982C17.9551 3.6727 17.7881 3.61747 17.6511 3.68644C17.514 3.75533 17.4588 3.92234 17.5277 4.05938C17.9792 4.95736 17.8462 6.03404 17.1889 6.80238C16.5941 7.49771 15.7036 7.81098 14.8063 7.64035C14.5249 7.58694 14.2499 7.74565 14.1528 8.01814L11.7108 14.8697C11.6309 15.0941 11.4051 15.2292 11.1625 15.1989C10.5802 15.1256 9.38575 15.1531 7.92871 16.1581C7.72496 16.2986 7.44887 16.2724 7.27223 16.0958L5.91367 14.7371C5.80519 14.6286 5.62929 14.6286 5.52084 14.737C5.41232 14.8455 5.41232 15.0214 5.5208 15.1299L6.87939 16.4886C6.92073 16.5299 6.96484 16.5671 7.01096 16.6004L6.61357 17.0545L4.07873 14.5197L4.52231 14.1315L5.54859 15.1577C5.60281 15.2119 5.67392 15.239 5.745 15.239C5.81608 15.239 5.8872 15.2119 5.94146 15.1577C6.04994 15.0492 6.04995 14.8733 5.94142 14.7648L4.80392 13.6274C4.73677 13.5602 4.68936 13.4759 4.66691 13.3837L4.15125 11.2653C4.10399 11.0711 4.17407 10.8647 4.32952 10.7396L10.2651 5.96168C10.3848 5.86568 10.404 5.69082 10.308 5.57118C10.212 5.45147 10.0372 5.43228 9.91752 5.52829L8.06457 7.03154L7.80566 6.6963L8.05131 6.50658C8.19217 6.39773 8.28017 6.23335 8.29258 6.05552C8.31658 5.71043 8.21328 5.36953 8.00167 5.09555C7.79007 4.82161 7.48631 4.63545 7.14641 4.57148C6.97125 4.53856 6.79002 4.582 6.64905 4.69094L5.718 5.40997C5.57707 5.51883 5.4891 5.68325 5.47677 5.86103C5.45277 6.20609 5.55607 6.54703 5.76767 6.82097C5.97927 7.09491 6.28303 7.28107 6.62294 7.34503C6.66127 7.35222 6.6999 7.35578 6.73835 7.35578C6.87547 7.35578 7.01018 7.31063 7.1203 7.22558L7.36594 7.03587L7.6311 7.37918L5.50981 9.08064L5.22931 8.71751L5.47495 8.5278C5.61589 8.41894 5.70389 8.25453 5.71622 8.07674C5.74023 7.73172 5.63692 7.39074 5.42532 7.11676C5.21372 6.84282 4.90996 6.65667 4.57005 6.5927C4.39497 6.55981 4.21367 6.60326 4.0727 6.71215L3.14165 7.43119C3.00071 7.54004 2.91275 7.70446 2.90041 7.88225C2.87641 8.2273 2.97971 8.56825 3.19132 8.84215C3.40288 9.11613 3.70664 9.30228 4.04651 9.36621C4.08488 9.37344 4.12355 9.37699 4.16203 9.37699C4.29911 9.37699 4.43382 9.33184 4.54394 9.2468L4.78958 9.05709L5.0763 9.42833L3.98158 10.3064C3.65864 10.5661 3.51333 10.9941 3.61137 11.3967L4.12703 13.515C4.14151 13.5745 4.16155 13.6321 4.18566 13.6878L1.74595 15.8229C1.6305 15.924 1.61879 16.0994 1.71987 16.2149C1.72809 16.2243 1.73681 16.233 1.74595 16.241C1.79782 16.2865 1.86327 16.3098 1.92899 16.3098C1.99392 16.3098 2.05915 16.2871 2.11185 16.241L3.65964 14.8865L6.24677 17.4736L4.89222 19.0214C4.79114 19.1369 4.80284 19.3124 4.91829 19.4134C4.971 19.4595 5.03623 19.4821 5.10116 19.4821C5.17846 19.4821 5.25539 19.4501 5.31028 19.3873L7.57328 16.8015C7.59525 16.8029 7.61721 16.8038 7.63921 16.8038C7.84956 16.8038 8.06079 16.7419 8.24413 16.6154C9.54931 15.7152 10.5895 15.6871 11.0932 15.7501C11.5972 15.8132 12.0659 15.528 12.2341 15.0562L14.6761 8.20463C14.6804 8.19274 14.692 8.18419 14.7024 8.18615C15.7813 8.39127 16.8959 7.99955 17.611 7.16354C18.4142 6.22468 18.5763 4.90828 18.024 3.80982ZM6.78083 6.78593C6.7652 6.79793 6.74502 6.8026 6.72579 6.79908C6.51982 6.7603 6.33577 6.64748 6.20747 6.48136C6.07921 6.31531 6.01657 6.10867 6.03109 5.89963C6.03246 5.87992 6.0422 5.86174 6.05772 5.8497L6.9887 5.1307C7.00085 5.12133 7.01574 5.11633 7.03092 5.11633C7.03522 5.11633 7.03951 5.11673 7.04377 5.11751C7.24975 5.15629 7.43379 5.26911 7.5621 5.43523C7.69036 5.60128 7.753 5.80792 7.73848 6.01689C7.73711 6.03663 7.72736 6.05486 7.71184 6.06693L6.78083 6.78593ZM4.20452 8.80718C4.18896 8.81918 4.16896 8.824 4.14948 8.82033C3.94347 8.78155 3.75946 8.66873 3.63115 8.50261C3.50289 8.33657 3.44026 8.12993 3.45477 7.92088C3.45614 7.90117 3.46589 7.88299 3.48141 7.87095L4.41238 7.15195C4.42453 7.14258 4.43942 7.13758 4.4546 7.13758C4.4589 7.13758 4.4632 7.13799 4.46746 7.13877C4.67343 7.17754 4.85748 7.29037 4.98578 7.45645C5.11404 7.62253 5.17668 7.82917 5.16216 8.03826C5.16079 8.05796 5.15105 8.07615 5.13553 8.08818L4.20452 8.80718Z"/>
</mask>
<path d="M18.024 3.80982C17.9551 3.6727 17.7881 3.61747 17.6511 3.68644C17.514 3.75533 17.4588 3.92234 17.5277 4.05938C17.9792 4.95736 17.8462 6.03404 17.1889 6.80238C16.5941 7.49771 15.7036 7.81098 14.8063 7.64035C14.5249 7.58694 14.2499 7.74565 14.1528 8.01814L11.7108 14.8697C11.6309 15.0941 11.4051 15.2292 11.1625 15.1989C10.5802 15.1256 9.38575 15.1531 7.92871 16.1581C7.72496 16.2986 7.44887 16.2724 7.27223 16.0958L5.91367 14.7371C5.80519 14.6286 5.62929 14.6286 5.52084 14.737C5.41232 14.8455 5.41232 15.0214 5.5208 15.1299L6.87939 16.4886C6.92073 16.5299 6.96484 16.5671 7.01096 16.6004L6.61357 17.0545L4.07873 14.5197L4.52231 14.1315L5.54859 15.1577C5.60281 15.2119 5.67392 15.239 5.745 15.239C5.81608 15.239 5.8872 15.2119 5.94146 15.1577C6.04994 15.0492 6.04995 14.8733 5.94142 14.7648L4.80392 13.6274C4.73677 13.5602 4.68936 13.4759 4.66691 13.3837L4.15125 11.2653C4.10399 11.0711 4.17407 10.8647 4.32952 10.7396L10.2651 5.96168C10.3848 5.86568 10.404 5.69082 10.308 5.57118C10.212 5.45147 10.0372 5.43228 9.91752 5.52829L8.06457 7.03154L7.80566 6.6963L8.05131 6.50658C8.19217 6.39773 8.28017 6.23335 8.29258 6.05552C8.31658 5.71043 8.21328 5.36953 8.00167 5.09555C7.79007 4.82161 7.48631 4.63545 7.14641 4.57148C6.97125 4.53856 6.79002 4.582 6.64905 4.69094L5.718 5.40997C5.57707 5.51883 5.4891 5.68325 5.47677 5.86103C5.45277 6.20609 5.55607 6.54703 5.76767 6.82097C5.97927 7.09491 6.28303 7.28107 6.62294 7.34503C6.66127 7.35222 6.6999 7.35578 6.73835 7.35578C6.87547 7.35578 7.01018 7.31063 7.1203 7.22558L7.36594 7.03587L7.6311 7.37918L5.50981 9.08064L5.22931 8.71751L5.47495 8.5278C5.61589 8.41894 5.70389 8.25453 5.71622 8.07674C5.74023 7.73172 5.63692 7.39074 5.42532 7.11676C5.21372 6.84282 4.90996 6.65667 4.57005 6.5927C4.39497 6.55981 4.21367 6.60326 4.0727 6.71215L3.14165 7.43119C3.00071 7.54004 2.91275 7.70446 2.90041 7.88225C2.87641 8.2273 2.97971 8.56825 3.19132 8.84215C3.40288 9.11613 3.70664 9.30228 4.04651 9.36621C4.08488 9.37344 4.12355 9.37699 4.16203 9.37699C4.29911 9.37699 4.43382 9.33184 4.54394 9.2468L4.78958 9.05709L5.0763 9.42833L3.98158 10.3064C3.65864 10.5661 3.51333 10.9941 3.61137 11.3967L4.12703 13.515C4.14151 13.5745 4.16155 13.6321 4.18566 13.6878L1.74595 15.8229C1.6305 15.924 1.61879 16.0994 1.71987 16.2149C1.72809 16.2243 1.73681 16.233 1.74595 16.241C1.79782 16.2865 1.86327 16.3098 1.92899 16.3098C1.99392 16.3098 2.05915 16.2871 2.11185 16.241L3.65964 14.8865L6.24677 17.4736L4.89222 19.0214C4.79114 19.1369 4.80284 19.3124 4.91829 19.4134C4.971 19.4595 5.03623 19.4821 5.10116 19.4821C5.17846 19.4821 5.25539 19.4501 5.31028 19.3873L7.57328 16.8015C7.59525 16.8029 7.61721 16.8038 7.63921 16.8038C7.84956 16.8038 8.06079 16.7419 8.24413 16.6154C9.54931 15.7152 10.5895 15.6871 11.0932 15.7501C11.5972 15.8132 12.0659 15.528 12.2341 15.0562L14.6761 8.20463C14.6804 8.19274 14.692 8.18419 14.7024 8.18615C15.7813 8.39127 16.8959 7.99955 17.611 7.16354C18.4142 6.22468 18.5763 4.90828 18.024 3.80982ZM6.78083 6.78593C6.7652 6.79793 6.74502 6.8026 6.72579 6.79908C6.51982 6.7603 6.33577 6.64748 6.20747 6.48136C6.07921 6.31531 6.01657 6.10867 6.03109 5.89963C6.03246 5.87992 6.0422 5.86174 6.05772 5.8497L6.9887 5.1307C7.00085 5.12133 7.01574 5.11633 7.03092 5.11633C7.03522 5.11633 7.03951 5.11673 7.04377 5.11751C7.24975 5.15629 7.43379 5.26911 7.5621 5.43523C7.69036 5.60128 7.753 5.80792 7.73848 6.01689C7.73711 6.03663 7.72736 6.05486 7.71184 6.06693L6.78083 6.78593ZM4.20452 8.80718C4.18896 8.81918 4.16896 8.824 4.14948 8.82033C3.94347 8.78155 3.75946 8.66873 3.63115 8.50261C3.50289 8.33657 3.44026 8.12993 3.45477 7.92088C3.45614 7.90117 3.46589 7.88299 3.48141 7.87095L4.41238 7.15195C4.42453 7.14258 4.43942 7.13758 4.4546 7.13758C4.4589 7.13758 4.4632 7.13799 4.46746 7.13877C4.67343 7.17754 4.85748 7.29037 4.98578 7.45645C5.11404 7.62253 5.17668 7.82917 5.16216 8.03826C5.16079 8.05796 5.15105 8.07615 5.13553 8.08818L4.20452 8.80718Z" fill="black"/>
<path d="M18.024 3.80982C17.9551 3.6727 17.7881 3.61747 17.6511 3.68644C17.514 3.75533 17.4588 3.92234 17.5277 4.05938C17.9792 4.95736 17.8462 6.03404 17.1889 6.80238C16.5941 7.49771 15.7036 7.81098 14.8063 7.64035C14.5249 7.58694 14.2499 7.74565 14.1528 8.01814L11.7108 14.8697C11.6309 15.0941 11.4051 15.2292 11.1625 15.1989C10.5802 15.1256 9.38575 15.1531 7.92871 16.1581C7.72496 16.2986 7.44887 16.2724 7.27223 16.0958L5.91367 14.7371C5.80519 14.6286 5.62929 14.6286 5.52084 14.737C5.41232 14.8455 5.41232 15.0214 5.5208 15.1299L6.87939 16.4886C6.92073 16.5299 6.96484 16.5671 7.01096 16.6004L6.61357 17.0545L4.07873 14.5197L4.52231 14.1315L5.54859 15.1577C5.60281 15.2119 5.67392 15.239 5.745 15.239C5.81608 15.239 5.8872 15.2119 5.94146 15.1577C6.04994 15.0492 6.04995 14.8733 5.94142 14.7648L4.80392 13.6274C4.73677 13.5602 4.68936 13.4759 4.66691 13.3837L4.15125 11.2653C4.10399 11.0711 4.17407 10.8647 4.32952 10.7396L10.2651 5.96168C10.3848 5.86568 10.404 5.69082 10.308 5.57118C10.212 5.45147 10.0372 5.43228 9.91752 5.52829L8.06457 7.03154L7.80566 6.6963L8.05131 6.50658C8.19217 6.39773 8.28017 6.23335 8.29258 6.05552C8.31658 5.71043 8.21328 5.36953 8.00167 5.09555C7.79007 4.82161 7.48631 4.63545 7.14641 4.57148C6.97125 4.53856 6.79002 4.582 6.64905 4.69094L5.718 5.40997C5.57707 5.51883 5.4891 5.68325 5.47677 5.86103C5.45277 6.20609 5.55607 6.54703 5.76767 6.82097C5.97927 7.09491 6.28303 7.28107 6.62294 7.34503C6.66127 7.35222 6.6999 7.35578 6.73835 7.35578C6.87547 7.35578 7.01018 7.31063 7.1203 7.22558L7.36594 7.03587L7.6311 7.37918L5.50981 9.08064L5.22931 8.71751L5.47495 8.5278C5.61589 8.41894 5.70389 8.25453 5.71622 8.07674C5.74023 7.73172 5.63692 7.39074 5.42532 7.11676C5.21372 6.84282 4.90996 6.65667 4.57005 6.5927C4.39497 6.55981 4.21367 6.60326 4.0727 6.71215L3.14165 7.43119C3.00071 7.54004 2.91275 7.70446 2.90041 7.88225C2.87641 8.2273 2.97971 8.56825 3.19132 8.84215C3.40288 9.11613 3.70664 9.30228 4.04651 9.36621C4.08488 9.37344 4.12355 9.37699 4.16203 9.37699C4.29911 9.37699 4.43382 9.33184 4.54394 9.2468L4.78958 9.05709L5.0763 9.42833L3.98158 10.3064C3.65864 10.5661 3.51333 10.9941 3.61137 11.3967L4.12703 13.515C4.14151 13.5745 4.16155 13.6321 4.18566 13.6878L1.74595 15.8229C1.6305 15.924 1.61879 16.0994 1.71987 16.2149C1.72809 16.2243 1.73681 16.233 1.74595 16.241C1.79782 16.2865 1.86327 16.3098 1.92899 16.3098C1.99392 16.3098 2.05915 16.2871 2.11185 16.241L3.65964 14.8865L6.24677 17.4736L4.89222 19.0214C4.79114 19.1369 4.80284 19.3124 4.91829 19.4134C4.971 19.4595 5.03623 19.4821 5.10116 19.4821C5.17846 19.4821 5.25539 19.4501 5.31028 19.3873L7.57328 16.8015C7.59525 16.8029 7.61721 16.8038 7.63921 16.8038C7.84956 16.8038 8.06079 16.7419 8.24413 16.6154C9.54931 15.7152 10.5895 15.6871 11.0932 15.7501C11.5972 15.8132 12.0659 15.528 12.2341 15.0562L14.6761 8.20463C14.6804 8.19274 14.692 8.18419 14.7024 8.18615C15.7813 8.39127 16.8959 7.99955 17.611 7.16354C18.4142 6.22468 18.5763 4.90828 18.024 3.80982ZM6.78083 6.78593C6.7652 6.79793 6.74502 6.8026 6.72579 6.79908C6.51982 6.7603 6.33577 6.64748 6.20747 6.48136C6.07921 6.31531 6.01657 6.10867 6.03109 5.89963C6.03246 5.87992 6.0422 5.86174 6.05772 5.8497L6.9887 5.1307C7.00085 5.12133 7.01574 5.11633 7.03092 5.11633C7.03522 5.11633 7.03951 5.11673 7.04377 5.11751C7.24975 5.15629 7.43379 5.26911 7.5621 5.43523C7.69036 5.60128 7.753 5.80792 7.73848 6.01689C7.73711 6.03663 7.72736 6.05486 7.71184 6.06693L6.78083 6.78593ZM4.20452 8.80718C4.18896 8.81918 4.16896 8.824 4.14948 8.82033C3.94347 8.78155 3.75946 8.66873 3.63115 8.50261C3.50289 8.33657 3.44026 8.12993 3.45477 7.92088C3.45614 7.90117 3.46589 7.88299 3.48141 7.87095L4.41238 7.15195C4.42453 7.14258 4.43942 7.13758 4.4546 7.13758C4.4589 7.13758 4.4632 7.13799 4.46746 7.13877C4.67343 7.17754 4.85748 7.29037 4.98578 7.45645C5.11404 7.62253 5.17668 7.82917 5.16216 8.03826C5.16079 8.05796 5.15105 8.07615 5.13553 8.08818L4.20452 8.80718Z" stroke="black" stroke-width="0.284458" mask="url(#path-1-outside-1_1324_5561)"/>
</g>
<path id="Vector_2" d="M7.2317 10.0516C6.67012 9.80134 6.00964 10.0546 5.75941 10.6162C5.63822 10.8883 5.63014 11.1912 5.73682 11.4693C5.84345 11.7474 6.05202 11.9673 6.32403 12.0885C6.47107 12.1541 6.62478 12.185 6.77627 12.185C7.20326 12.185 7.61161 11.9384 7.79632 11.5239C8.04656 10.9624 7.79325 10.3019 7.2317 10.0516ZM7.28885 11.2978C7.16333 11.5795 6.83198 11.7068 6.55019 11.581C6.41366 11.5202 6.30907 11.4099 6.25554 11.2704C6.20206 11.1308 6.2061 10.9788 6.26691 10.8423C6.35962 10.6343 6.56445 10.5106 6.77868 10.5106C6.85465 10.5106 6.93184 10.5262 7.00558 10.5591C7.2873 10.6846 7.41441 11.016 7.28885 11.2978Z" fill="black"/>
<path id="Vector_3" d="M8.84055 10.0618C8.98756 10.1274 9.14134 10.1583 9.29276 10.1583C9.71978 10.1583 10.1281 9.9118 10.3128 9.49719C10.434 9.22514 10.4421 8.9222 10.3354 8.64411C10.2288 8.36603 10.0202 8.14613 9.74822 8.0249C9.47617 7.90367 9.17319 7.8956 8.89511 8.00227C8.61702 8.1089 8.39712 8.31747 8.27589 8.58948C8.02569 9.1511 8.279 9.81158 8.84055 10.0618ZM8.7834 8.81564C8.84422 8.67915 8.95455 8.57452 9.09408 8.52103C9.15916 8.49607 9.2269 8.48363 9.29457 8.48363C9.37198 8.48363 9.44924 8.49992 9.5221 8.53237C9.65862 8.59322 9.76322 8.70352 9.81674 8.84305C9.87023 8.98257 9.86619 9.13458 9.80537 9.27107C9.67977 9.55282 9.3485 9.67998 9.06671 9.55434C8.78495 9.42882 8.65784 9.09743 8.7834 8.81564Z" fill="black"/>
<path id="Vector_4" d="M12.2101 8.0575C12.4882 7.95087 12.7081 7.7423 12.8293 7.47029C12.9506 7.19828 12.9586 6.8953 12.8519 6.61721C12.7453 6.33912 12.5367 6.11922 12.2647 5.998C11.9927 5.87681 11.6898 5.86877 11.4116 5.9754C11.1335 6.08204 10.9136 6.2906 10.7924 6.56262C10.6712 6.83463 10.6631 7.13761 10.7698 7.41569C10.8765 7.69378 11.085 7.91368 11.357 8.03491C11.5022 8.09958 11.6562 8.13206 11.8105 8.13206C11.9453 8.13206 12.0804 8.10724 12.2101 8.0575ZM11.5832 7.52744C11.4467 7.46658 11.3421 7.35628 11.2885 7.21676C11.2351 7.07723 11.2391 6.92523 11.2999 6.78874C11.3608 6.65221 11.4711 6.54761 11.6106 6.49409C11.6757 6.46913 11.7435 6.45672 11.8111 6.45672C11.8885 6.45672 11.9658 6.47298 12.0386 6.50543C12.1751 6.56628 12.2797 6.67658 12.3333 6.81611C12.3867 6.95563 12.3827 7.10764 12.3219 7.24413C12.261 7.38065 12.1507 7.48525 12.0112 7.53877C11.8716 7.59233 11.7196 7.58826 11.5832 7.52744Z" fill="black"/>
<path id="Vector_5" d="M14.7812 3.97119C14.5091 3.84996 14.2061 3.84189 13.9281 3.94856C13.65 4.05519 13.4301 4.26376 13.3088 4.53577C13.1876 4.80778 13.1796 5.11076 13.2863 5.38885C13.3929 5.66694 13.6015 5.88684 13.8735 6.00806C14.0187 6.07277 14.1726 6.10522 14.3269 6.10522C14.4618 6.10522 14.5969 6.08044 14.7266 6.03069C15.0047 5.92406 15.2246 5.71549 15.3458 5.44348C15.467 5.17139 15.475 4.86845 15.3684 4.5904C15.2618 4.31232 15.0532 4.09242 14.7812 3.97119ZM14.8383 5.21736C14.7775 5.35385 14.6671 5.45848 14.5276 5.51197C14.3881 5.56549 14.2361 5.56141 14.0996 5.50059C13.9631 5.43974 13.8585 5.32944 13.8049 5.18991C13.7515 5.05039 13.7555 4.89838 13.8163 4.76189C13.8771 4.62541 13.9875 4.52077 14.127 4.46729C14.1921 4.44232 14.2598 4.42988 14.3275 4.42988C14.4049 4.42988 14.4822 4.44617 14.555 4.47862C14.8368 4.60422 14.9638 4.9356 14.8383 5.21736Z" fill="black"/>
<path id="Vector_6" d="M9.18621 5.39348L9.18615 5.39347C8.82911 5.32624 8.51005 5.13071 8.2878 4.84295C8.06556 4.5552 7.95703 4.19707 7.98224 3.83458L8.05318 3.83951L7.98224 3.83458C7.99602 3.63653 8.09393 3.45342 8.25102 3.33217C8.25103 3.33217 8.25104 3.33216 8.25104 3.33216L9.18198 2.61318C9.33899 2.49188 9.54097 2.44353 9.73593 2.48011L9.73597 2.48012C10.093 2.54731 10.4121 2.74288 10.6344 3.0306L10.6344 3.0306C10.8566 3.31843 10.9651 3.6766 10.9399 4.03898L9.18621 5.39348ZM9.18621 5.39348C9.22888 5.40148 9.27189 5.40544 9.31473 5.40544C9.46741 5.40544 9.61744 5.35517 9.74014 5.26042L9.69667 5.20413M9.18621 5.39348L9.69667 5.20413M9.69667 5.20413L9.74014 5.26042L9.9295 5.11417L10.0869 5.31802L9.62595 5.68776L9.62595 5.68776M9.69667 5.20413L9.62595 5.68776M9.62595 5.68776C9.47567 5.80832 9.45149 6.02791 9.57206 6.17821M9.62595 5.68776L10.0626 6.23213M10.0626 6.23213L10.0625 6.23214C9.9982 6.28374 9.92096 6.30885 9.84442 6.30885C9.74241 6.30885 9.641 6.26422 9.57206 6.17821M10.0626 6.23213L13.74 3.2824L13.7404 3.28208M10.0626 6.23213L13.7404 3.28208M9.57206 6.17821L9.62756 6.13373L9.57209 6.17824C9.57208 6.17823 9.57207 6.17822 9.57206 6.17821ZM13.7404 3.28208C14.1575 2.9426 14.8499 2.79991 15.5583 2.91027C16.2646 3.0203 16.9738 3.38014 17.4246 4.028L17.4316 4.03803M13.7404 3.28208L17.4316 4.03803M17.4316 4.03803L17.4415 4.04515M17.4316 4.03803L17.4415 4.04515M17.4415 4.04515C17.598 4.15749 17.816 4.12173 17.9284 3.96514M17.4415 4.04515L17.9284 3.96514M13.2107 1.00943L13.2107 1.00943C13.433 1.29727 13.5414 1.65543 13.5162 2.01781C13.5024 2.21582 13.4045 2.39894 13.2475 2.52018M13.2107 1.00943L13.0146 2.61018L13.0581 2.66646M13.2107 1.00943C12.9884 0.721727 12.6694 0.526159 12.3124 0.458995M13.2107 1.00943L11.7625 3.37227M13.2475 2.52018L13.204 2.46389L13.2475 2.52017L13.2475 2.52018ZM13.2475 2.52018L13.0581 2.66646M13.0581 2.66646L13.1861 2.83218M13.0581 2.66646L13.0018 2.70992M13.0018 2.70992L13.1306 2.87669L13.1861 2.83218M13.0018 2.70992L17.483 3.98738C17.6076 4.07683 17.7812 4.04834 17.8706 3.92367M13.0018 2.70992L17.9284 3.96514M13.1861 2.83218L13.2295 2.88848L13.3464 2.79476C14.4136 1.9262 16.7625 1.96383 17.8152 3.52562C18.0609 3.77132 18.0185 3.80198 17.9444 3.85556C17.9202 3.87305 17.8926 3.893 17.8706 3.92367M13.1861 2.83218L13.3015 2.7396C13.3015 2.73955 13.3016 2.7395 13.3017 2.73945C13.8536 2.29036 14.7281 2.08052 15.5942 2.17814C16.46 2.27574 17.3295 2.68195 17.8703 3.48018C17.9497 3.5599 18.0026 3.62074 18.0338 3.66943C18.0646 3.71756 18.0851 3.77061 18.0655 3.82444C18.0564 3.84943 18.0409 3.8676 18.0272 3.8806C18.0142 3.89281 17.9994 3.90355 17.988 3.91176L17.9872 3.91236C17.9618 3.93073 17.9431 3.94468 17.9284 3.96514M17.8706 3.92367L17.9284 3.96514M17.8706 3.92367L17.9284 3.96513L17.9284 3.96514M11.7625 3.37227L11.7625 3.37226C11.4054 3.30503 11.0863 3.1095 10.8641 2.82175C10.6419 2.53402 10.5333 2.17582 10.5585 1.81341C10.5723 1.61533 10.6702 1.43221 10.8273 1.31096C10.8273 1.31096 10.8273 1.31095 10.8274 1.31095L11.7583 0.59201C11.9154 0.470656 12.1175 0.422186 12.3124 0.458995M11.7625 3.37227C11.8052 3.38027 11.8482 3.38423 11.8911 3.38423M11.7625 3.37227L11.8911 3.38423M12.3124 0.458995L12.2992 0.528874L12.3123 0.458986C12.3124 0.458989 12.3124 0.458992 12.3124 0.458995ZM11.8911 3.38423C12.0438 3.38423 12.1938 3.33393 12.3165 3.23921M11.8911 3.38423L12.3165 3.23921M12.3165 3.23921L12.5058 3.09293L12.6417 3.26881L10.6314 4.88132L10.4818 4.68763L10.6712 4.54135C10.6712 4.54135 10.6712 4.54135 10.6712 4.54134C10.8282 4.4201 10.9261 4.237 10.9399 4.03898L12.3165 3.23921ZM10.0821 3.45715L10.0821 3.45715C10.1996 3.60927 10.2569 3.79833 10.2438 3.9897L9.31449 4.70748C9.126 4.67179 8.9576 4.56847 8.84009 4.41633L8.84008 4.41631C8.7226 4.26431 8.66516 4.07527 8.67828 3.88386L9.60775 3.16604C9.79623 3.20174 9.96462 3.30506 10.0821 3.45715ZM11.8907 2.68631C11.7023 2.65061 11.5339 2.54729 11.4164 2.3952C11.2989 2.24311 11.2415 2.05401 11.2546 1.86261L12.1841 1.14483C12.3726 1.18053 12.541 1.28385 12.6584 1.43594L12.7147 1.39247L12.6584 1.43594C12.7759 1.58806 12.8333 1.77713 12.8202 1.96849L11.8907 2.68631Z" fill="black" stroke="black" stroke-width="0.142229"/>
</g>
<path id="Vector 1941" d="M1.88974 16.061L5.07175 19.2432" stroke="black" stroke-width="0.75" stroke-linecap="round"/>
</g>
</svg>
