<svg width="20" height="20" viewBox="0 0 20 20" fill="none" xmlns="http://www.w3.org/2000/svg">
<g id="fi_4472616" clip-path="url(#clip0_1762_4743)">
<circle id="Ellipse 3990" cx="15.5031" cy="11.1928" r="2.98239" fill="#DFA935"/>
<circle id="Ellipse 3989" cx="15.5031" cy="15.5224" r="4.12006" fill="#DFA935"/>
<ellipse id="Ellipse 3987" cx="9.82837" cy="14.552" rx="5.45947" ry="5.448" fill="#DFA935"/>
<g id="Group">
<g id="Vector">
<mask id="path-4-outside-1_1762_4743" maskUnits="userSpaceOnUse" x="3.19519" y="-0.99707" width="17" height="22" fill="black">
<rect fill="white" x="3.19519" y="-0.99707" width="17" height="22"/>
<path d="M19.099 12.8273C18.9457 12.6242 18.8903 12.3619 18.9471 12.108C19.0131 11.8148 19.0411 11.5128 19.0302 11.2103C18.9764 9.68929 17.9501 8.38846 16.5044 7.96824V3.56244L17.0164 2.64132C17.0406 2.59776 17.0533 2.54878 17.0533 2.49898V0.725512C17.0533 0.327094 16.7292 0.00292969 16.3307 0.00292969H14.7158C14.3174 0.00292969 13.9933 0.327054 13.9933 0.725512V2.49894C13.9933 2.54874 14.006 2.59772 14.0302 2.64128L14.5423 3.56264V7.96785C13.977 8.13277 13.4586 8.44057 13.0409 8.8582V7.90157H13.3323C13.4941 7.90157 13.6252 7.7704 13.6252 7.60861C13.6252 7.44682 13.4941 7.31566 13.3323 7.31566H5.91585C5.75406 7.31566 5.62289 7.44682 5.62289 7.60861C5.62289 7.7704 5.75406 7.90157 5.91585 7.90157H6.18298V10.1192C4.91793 11.1802 4.19519 12.7251 4.19519 14.3806C4.19519 15.7274 4.67646 16.9637 5.47587 17.9271L4.55779 19.5019C4.47631 19.6417 4.52357 19.821 4.66333 19.9025C4.70974 19.9296 4.76048 19.9424 4.81063 19.9424C4.91144 19.9424 5.00956 19.8904 5.06398 19.797L5.89226 18.3762C6.89369 19.3451 8.25683 19.9424 9.75703 19.9424C10.4045 19.9424 11.0389 19.8321 11.6427 19.6145C11.7949 19.5596 11.8738 19.3917 11.819 19.2395C11.7641 19.0873 11.5963 19.0084 11.444 19.0632C10.9042 19.2578 10.3366 19.3565 9.75703 19.3565C7.0133 19.3565 4.7811 17.1243 4.7811 14.3805C4.72684 11.701 7.0754 9.3615 9.75703 9.40462C10.6384 9.40462 11.4951 9.6359 12.2503 10.0743C12.0959 10.4748 12.014 10.903 12.014 11.3369C12.014 11.6045 12.0445 11.8717 12.1047 12.131C12.1597 12.3691 12.1045 12.6203 11.9532 12.8201C11.9102 12.8768 11.8691 12.9344 11.8291 12.9927C11.3716 12.3146 10.594 11.8858 9.75703 11.8858C8.38139 11.8858 7.26223 13.005 7.26223 14.3806C7.26223 15.7562 8.38139 16.8754 9.75703 16.8754C10.2529 16.8754 10.7368 16.7246 11.1445 16.4522C11.5748 18.4776 13.3789 19.997 15.5237 19.9969C18.0584 20 20.0125 17.901 19.9999 15.5204C19.9999 14.5396 19.6884 13.6083 19.099 12.8273ZM15.5233 12.125C15.3873 12.125 15.2552 12.1414 15.1283 12.1715V11.4265H15.9185V12.1716C15.7915 12.1414 15.6593 12.125 15.5233 12.125ZM15.9184 3.77962L15.9184 11.4211H15.1283L15.1283 3.77962H15.9184ZM15.9184 6.37987L15.9184 6.3752H15.1283L15.1283 6.37987H15.9184ZM14.5792 0.725512C14.5792 0.650164 14.6405 0.588839 14.7158 0.588839H16.3307C16.4061 0.588839 16.4674 0.650125 16.4674 0.725512V2.42301L16.0391 3.19359H15.0075L14.5792 2.42305V0.725512ZM12.4549 9.51645C12.0031 9.26525 11.5201 9.08006 11.0191 8.96374V7.90168H12.4549V9.51645ZM8.15828 7.90168V9.05022C7.6699 9.19611 7.20372 9.40977 6.76889 9.68832V7.90172L8.15828 7.90168ZM8.74419 8.90996V7.90172H10.4332V8.86054C10.2099 8.8334 9.98424 8.81887 9.75703 8.81887C9.4131 8.81883 9.07468 8.84969 8.74419 8.90996ZM9.75703 16.2896C8.70446 16.2896 7.84814 15.4332 7.84814 14.3807C7.84814 13.3281 8.70446 12.4718 9.75703 12.4718C10.4984 12.4718 11.1788 12.9114 11.4889 13.5777C11.1707 14.2369 11.0094 15.0051 11.0545 15.78C10.701 16.1093 10.245 16.2896 9.75703 16.2896ZM18.2867 18.2593C17.5764 18.981 16.5584 19.4168 15.5237 19.4111C13.3968 19.4109 11.6548 17.6917 11.6331 15.5615C11.6235 14.7101 11.8945 13.8707 12.4201 13.174C12.6767 12.8353 12.7698 12.407 12.6755 11.9989C12.6253 11.7827 12.5999 11.5601 12.5999 11.3371C12.5999 10.6662 12.8329 10.0108 13.256 9.49176C13.5949 9.07616 14.0428 8.76137 14.5423 8.58278V12.4351C14.1005 12.7451 13.8108 13.2579 13.8108 13.8375C13.8108 14.4682 14.1559 15.0461 14.7114 15.3457C14.8539 15.4225 15.0315 15.3693 15.1083 15.2269C15.1851 15.0845 15.1319 14.9068 14.9895 14.83C14.6238 14.6328 14.3967 14.2525 14.3967 13.8375C14.3967 13.2163 14.9021 12.7109 15.5233 12.7109C16.1445 12.7109 16.6499 13.2163 16.6499 13.8375C16.6499 14.258 16.4184 14.6406 16.0457 14.8361C15.9024 14.9112 15.8471 15.0883 15.9223 15.2316C15.9747 15.3314 16.0765 15.3885 16.1819 15.3885C16.2278 15.3885 16.2743 15.3777 16.3178 15.355C16.8841 15.0579 17.2358 14.4765 17.2358 13.8375C17.2358 13.258 16.9462 12.7452 16.5044 12.4351V8.5829C17.6219 8.98007 18.4019 10.0224 18.4447 11.2312C18.4537 11.4835 18.4305 11.7352 18.3754 11.9798C18.281 12.4022 18.3743 12.8398 18.6313 13.1803C19.1433 13.8588 19.414 14.668 19.414 15.5205C19.414 16.5532 19.0136 17.5259 18.2867 18.2593Z"/>
</mask>
<path d="M19.099 12.8273C18.9457 12.6242 18.8903 12.3619 18.9471 12.108C19.0131 11.8148 19.0411 11.5128 19.0302 11.2103C18.9764 9.68929 17.9501 8.38846 16.5044 7.96824V3.56244L17.0164 2.64132C17.0406 2.59776 17.0533 2.54878 17.0533 2.49898V0.725512C17.0533 0.327094 16.7292 0.00292969 16.3307 0.00292969H14.7158C14.3174 0.00292969 13.9933 0.327054 13.9933 0.725512V2.49894C13.9933 2.54874 14.006 2.59772 14.0302 2.64128L14.5423 3.56264V7.96785C13.977 8.13277 13.4586 8.44057 13.0409 8.8582V7.90157H13.3323C13.4941 7.90157 13.6252 7.7704 13.6252 7.60861C13.6252 7.44682 13.4941 7.31566 13.3323 7.31566H5.91585C5.75406 7.31566 5.62289 7.44682 5.62289 7.60861C5.62289 7.7704 5.75406 7.90157 5.91585 7.90157H6.18298V10.1192C4.91793 11.1802 4.19519 12.7251 4.19519 14.3806C4.19519 15.7274 4.67646 16.9637 5.47587 17.9271L4.55779 19.5019C4.47631 19.6417 4.52357 19.821 4.66333 19.9025C4.70974 19.9296 4.76048 19.9424 4.81063 19.9424C4.91144 19.9424 5.00956 19.8904 5.06398 19.797L5.89226 18.3762C6.89369 19.3451 8.25683 19.9424 9.75703 19.9424C10.4045 19.9424 11.0389 19.8321 11.6427 19.6145C11.7949 19.5596 11.8738 19.3917 11.819 19.2395C11.7641 19.0873 11.5963 19.0084 11.444 19.0632C10.9042 19.2578 10.3366 19.3565 9.75703 19.3565C7.0133 19.3565 4.7811 17.1243 4.7811 14.3805C4.72684 11.701 7.0754 9.3615 9.75703 9.40462C10.6384 9.40462 11.4951 9.6359 12.2503 10.0743C12.0959 10.4748 12.014 10.903 12.014 11.3369C12.014 11.6045 12.0445 11.8717 12.1047 12.131C12.1597 12.3691 12.1045 12.6203 11.9532 12.8201C11.9102 12.8768 11.8691 12.9344 11.8291 12.9927C11.3716 12.3146 10.594 11.8858 9.75703 11.8858C8.38139 11.8858 7.26223 13.005 7.26223 14.3806C7.26223 15.7562 8.38139 16.8754 9.75703 16.8754C10.2529 16.8754 10.7368 16.7246 11.1445 16.4522C11.5748 18.4776 13.3789 19.997 15.5237 19.9969C18.0584 20 20.0125 17.901 19.9999 15.5204C19.9999 14.5396 19.6884 13.6083 19.099 12.8273ZM15.5233 12.125C15.3873 12.125 15.2552 12.1414 15.1283 12.1715V11.4265H15.9185V12.1716C15.7915 12.1414 15.6593 12.125 15.5233 12.125ZM15.9184 3.77962L15.9184 11.4211H15.1283L15.1283 3.77962H15.9184ZM15.9184 6.37987L15.9184 6.3752H15.1283L15.1283 6.37987H15.9184ZM14.5792 0.725512C14.5792 0.650164 14.6405 0.588839 14.7158 0.588839H16.3307C16.4061 0.588839 16.4674 0.650125 16.4674 0.725512V2.42301L16.0391 3.19359H15.0075L14.5792 2.42305V0.725512ZM12.4549 9.51645C12.0031 9.26525 11.5201 9.08006 11.0191 8.96374V7.90168H12.4549V9.51645ZM8.15828 7.90168V9.05022C7.6699 9.19611 7.20372 9.40977 6.76889 9.68832V7.90172L8.15828 7.90168ZM8.74419 8.90996V7.90172H10.4332V8.86054C10.2099 8.8334 9.98424 8.81887 9.75703 8.81887C9.4131 8.81883 9.07468 8.84969 8.74419 8.90996ZM9.75703 16.2896C8.70446 16.2896 7.84814 15.4332 7.84814 14.3807C7.84814 13.3281 8.70446 12.4718 9.75703 12.4718C10.4984 12.4718 11.1788 12.9114 11.4889 13.5777C11.1707 14.2369 11.0094 15.0051 11.0545 15.78C10.701 16.1093 10.245 16.2896 9.75703 16.2896ZM18.2867 18.2593C17.5764 18.981 16.5584 19.4168 15.5237 19.4111C13.3968 19.4109 11.6548 17.6917 11.6331 15.5615C11.6235 14.7101 11.8945 13.8707 12.4201 13.174C12.6767 12.8353 12.7698 12.407 12.6755 11.9989C12.6253 11.7827 12.5999 11.5601 12.5999 11.3371C12.5999 10.6662 12.8329 10.0108 13.256 9.49176C13.5949 9.07616 14.0428 8.76137 14.5423 8.58278V12.4351C14.1005 12.7451 13.8108 13.2579 13.8108 13.8375C13.8108 14.4682 14.1559 15.0461 14.7114 15.3457C14.8539 15.4225 15.0315 15.3693 15.1083 15.2269C15.1851 15.0845 15.1319 14.9068 14.9895 14.83C14.6238 14.6328 14.3967 14.2525 14.3967 13.8375C14.3967 13.2163 14.9021 12.7109 15.5233 12.7109C16.1445 12.7109 16.6499 13.2163 16.6499 13.8375C16.6499 14.258 16.4184 14.6406 16.0457 14.8361C15.9024 14.9112 15.8471 15.0883 15.9223 15.2316C15.9747 15.3314 16.0765 15.3885 16.1819 15.3885C16.2278 15.3885 16.2743 15.3777 16.3178 15.355C16.8841 15.0579 17.2358 14.4765 17.2358 13.8375C17.2358 13.258 16.9462 12.7452 16.5044 12.4351V8.5829C17.6219 8.98007 18.4019 10.0224 18.4447 11.2312C18.4537 11.4835 18.4305 11.7352 18.3754 11.9798C18.281 12.4022 18.3743 12.8398 18.6313 13.1803C19.1433 13.8588 19.414 14.668 19.414 15.5205C19.414 16.5532 19.0136 17.5259 18.2867 18.2593Z" fill="#DFA935"/>
<path d="M15.1283 8.49971H15.9184V8.3997H15.1283V8.49971ZM19.099 12.8273L19.1788 12.767L19.1788 12.767L19.099 12.8273ZM18.9471 12.108L18.8495 12.086L18.8495 12.0862L18.9471 12.108ZM19.0302 11.2103L18.9303 11.2138L18.9303 11.2139L19.0302 11.2103ZM16.5044 7.96824H16.4044V8.04332L16.4764 8.06427L16.5044 7.96824ZM16.5044 3.56244L16.417 3.51386L16.4044 3.53652V3.56244H16.5044ZM17.0164 2.64132L16.929 2.59272L16.929 2.59273L17.0164 2.64132ZM14.0302 2.64128L14.1176 2.59269L14.1176 2.59268L14.0302 2.64128ZM14.5423 3.56264H14.6423V3.53671L14.6297 3.51405L14.5423 3.56264ZM14.5423 7.96785L14.5703 8.06385L14.6423 8.04285V7.96785H14.5423ZM13.0409 8.8582H12.9409V9.09957L13.1116 8.92892L13.0409 8.8582ZM13.0409 7.90157V7.80157H12.9409V7.90157H13.0409ZM6.18298 7.90157H6.28298V7.80157H6.18298V7.90157ZM6.18298 10.1192L6.24724 10.1958L6.28298 10.1658V10.1192H6.18298ZM5.47587 17.9271L5.56226 17.9775L5.59748 17.917L5.55282 17.8632L5.47587 17.9271ZM4.55779 19.5019L4.4714 19.4515L4.47139 19.4515L4.55779 19.5019ZM4.66333 19.9025L4.61295 19.9889L4.613 19.989L4.66333 19.9025ZM5.06398 19.797L4.97758 19.7466L4.97757 19.7466L5.06398 19.797ZM5.89226 18.3762L5.96179 18.3043L5.87011 18.2156L5.80586 18.3258L5.89226 18.3762ZM11.6427 19.6145L11.6088 19.5204L11.6088 19.5204L11.6427 19.6145ZM11.819 19.2395L11.913 19.2056L11.913 19.2056L11.819 19.2395ZM11.444 19.0632L11.4101 18.9692L11.4101 18.9692L11.444 19.0632ZM4.7811 14.3805H4.88112L4.88108 14.3785L4.7811 14.3805ZM9.75703 9.40462L9.75542 9.50462H9.75703V9.40462ZM12.2503 10.0743L12.3436 10.1102L12.3743 10.0306L12.3005 9.98779L12.2503 10.0743ZM12.1047 12.131L12.2021 12.1085L12.2021 12.1084L12.1047 12.131ZM11.9532 12.8201L12.0329 12.8805L12.0329 12.8804L11.9532 12.8201ZM11.8291 12.9927L11.7462 13.0486L11.8283 13.1703L11.9115 13.0493L11.8291 12.9927ZM11.1445 16.4522L11.2423 16.4314L11.2117 16.2871L11.089 16.3691L11.1445 16.4522ZM15.5237 19.9969L15.5238 19.8969H15.5237L15.5237 19.9969ZM19.9999 15.5204L19.8999 15.5204L19.8999 15.5209L19.9999 15.5204ZM15.1283 12.1715H15.0283V12.298L15.1514 12.2688L15.1283 12.1715ZM15.1283 11.4265V11.3265H15.0283V11.4265H15.1283ZM15.9185 11.4265H16.0185V11.3265H15.9185V11.4265ZM15.9185 12.1716L15.8954 12.2689L16.0185 12.298V12.1716H15.9185ZM15.9184 3.77962H16.0184V3.67962H15.9184V3.77962ZM15.9184 11.4211V11.5211H16.0184V11.4211H15.9184ZM15.1283 11.4211H15.0283V11.5211H15.1283V11.4211ZM15.1283 3.77962V3.67962H15.0283V3.77962H15.1283ZM15.9184 6.37987V6.47987H16.0185L16.0184 6.37985L15.9184 6.37987ZM15.9184 6.3752L16.0184 6.37518L16.0184 6.2752H15.9184V6.3752ZM15.1283 6.3752V6.2752H15.0282L15.0283 6.37522L15.1283 6.3752ZM15.1283 6.37987L15.0283 6.37989L15.0283 6.47987H15.1283V6.37987ZM16.4674 2.42301L16.5548 2.47159L16.5674 2.44893V2.42301H16.4674ZM16.0391 3.19359V3.29359H16.0979L16.1265 3.24218L16.0391 3.19359ZM15.0075 3.19359L14.9201 3.24218L14.9487 3.29359H15.0075V3.19359ZM14.5792 2.42305H14.4792V2.44897L14.4918 2.47163L14.5792 2.42305ZM12.4549 9.51645L12.4064 9.60385L12.5549 9.68646V9.51645H12.4549ZM11.0191 8.96374H10.9191V9.04319L10.9965 9.06115L11.0191 8.96374ZM11.0191 7.90168V7.80168H10.9191V7.90168H11.0191ZM12.4549 7.90168H12.5549V7.80168H12.4549V7.90168ZM8.15828 7.90168H8.25828V7.80168L8.15828 7.80168L8.15828 7.90168ZM8.15828 9.05022L8.1869 9.14604L8.25828 9.12472V9.05022H8.15828ZM6.76889 9.68832H6.66889V9.87113L6.82283 9.77252L6.76889 9.68832ZM6.76889 7.90172L6.76889 7.80172L6.66889 7.80173V7.90172H6.76889ZM8.74419 8.90996H8.64419V9.02984L8.76213 9.00833L8.74419 8.90996ZM8.74419 7.90172V7.80172H8.64419V7.90172H8.74419ZM10.4332 7.90172H10.5332V7.80172H10.4332V7.90172ZM10.4332 8.86054L10.4211 8.95981L10.5332 8.97344V8.86054H10.4332ZM9.75703 8.81887L9.75702 8.91887H9.75703V8.81887ZM11.4889 13.5777L11.5789 13.6212L11.5995 13.5785L11.5795 13.5355L11.4889 13.5777ZM11.0545 15.78L11.1227 15.8532L11.1571 15.8211L11.1544 15.7742L11.0545 15.78ZM18.2867 18.2593L18.2156 18.1889L18.2154 18.1892L18.2867 18.2593ZM15.5237 19.4111L15.5243 19.3111H15.5238L15.5237 19.4111ZM11.6331 15.5615L11.7331 15.5605L11.7331 15.5604L11.6331 15.5615ZM12.4201 13.174L12.3404 13.1136L12.3403 13.1138L12.4201 13.174ZM12.6755 11.9989L12.7729 11.9764L12.7729 11.9763L12.6755 11.9989ZM13.256 9.49176L13.1785 9.42858L13.1785 9.42858L13.256 9.49176ZM14.5423 8.58278H14.6423V8.44084L14.5087 8.48862L14.5423 8.58278ZM14.5423 12.4351L14.5998 12.5169L14.6423 12.4871V12.4351H14.5423ZM14.7114 15.3457L14.7589 15.2577L14.7589 15.2577L14.7114 15.3457ZM14.9895 14.83L15.037 14.742L15.037 14.742L14.9895 14.83ZM16.0457 14.8361L15.9992 14.7475L15.9992 14.7475L16.0457 14.8361ZM15.9223 15.2316L16.0108 15.1851L16.0108 15.1851L15.9223 15.2316ZM16.3178 15.355L16.3642 15.4435L16.3642 15.4435L16.3178 15.355ZM16.5044 12.4351H16.4044V12.4871L16.4469 12.517L16.5044 12.4351ZM16.5044 8.5829L16.5378 8.48868L16.4044 8.44124V8.5829H16.5044ZM18.4447 11.2312L18.3448 11.2347L18.3448 11.2347L18.4447 11.2312ZM18.3754 11.9798L18.2778 11.9578L18.2778 11.958L18.3754 11.9798ZM18.6313 13.1803L18.7111 13.12L18.7111 13.12L18.6313 13.1803ZM19.1788 12.767C19.0436 12.588 18.9942 12.3558 19.0447 12.1298L18.8495 12.0862C18.7865 12.3679 18.8477 12.6604 19.0192 12.8875L19.1788 12.767ZM19.0446 12.13C19.1126 11.8283 19.1413 11.5177 19.1301 11.2067L18.9303 11.2139C18.9408 11.5078 18.9136 11.8013 18.8495 12.086L19.0446 12.13ZM19.1301 11.2068C19.0748 9.64229 18.0191 8.30439 16.5323 7.87222L16.4764 8.06427C17.881 8.47252 18.878 9.7363 18.9303 11.2138L19.1301 11.2068ZM16.6044 7.96824V3.56244H16.4044V7.96824H16.6044ZM16.5918 3.61103L17.1038 2.6899L16.929 2.59273L16.417 3.51386L16.5918 3.61103ZM17.1038 2.68991C17.1362 2.63149 17.1533 2.56579 17.1533 2.49898H16.9533C16.9533 2.53178 16.9449 2.56403 16.929 2.59272L17.1038 2.68991ZM17.1533 2.49898V0.725512H16.9533V2.49898H17.1533ZM17.1533 0.725512C17.1533 0.271869 16.7844 -0.0970703 16.3307 -0.0970703V0.10293C16.6739 0.10293 16.9533 0.382318 16.9533 0.725512H17.1533ZM16.3307 -0.0970703H14.7158V0.10293H16.3307V-0.0970703ZM14.7158 -0.0970703C14.2622 -0.0970703 13.8933 0.271829 13.8933 0.725512H14.0933C14.0933 0.382279 14.3726 0.10293 14.7158 0.10293V-0.0970703ZM13.8933 0.725512V2.49894H14.0933V0.725512H13.8933ZM13.8933 2.49894C13.8933 2.56574 13.9103 2.63145 13.9428 2.68988L14.1176 2.59268C14.1016 2.564 14.0933 2.53174 14.0933 2.49894H13.8933ZM13.9428 2.68986L14.4549 3.61122L14.6297 3.51405L14.1176 2.59269L13.9428 2.68986ZM14.4423 3.56264V7.96785H14.6423V3.56264H14.4423ZM14.5143 7.87185C13.9327 8.04151 13.3997 8.35805 12.9702 8.78748L13.1116 8.92892C13.5175 8.52308 14.0212 8.22403 14.5703 8.06385L14.5143 7.87185ZM13.1409 8.8582V7.90157H12.9409V8.8582H13.1409ZM13.0409 8.00157H13.3323V7.80157H13.0409V8.00157ZM13.3323 8.00157C13.5493 8.00157 13.7252 7.82563 13.7252 7.60861H13.5252C13.5252 7.71517 13.4388 7.80157 13.3323 7.80157V8.00157ZM13.7252 7.60861C13.7252 7.3916 13.5493 7.21566 13.3323 7.21566V7.41566C13.4388 7.41566 13.5252 7.50205 13.5252 7.60861H13.7252ZM13.3323 7.21566H5.91585V7.41566H13.3323V7.21566ZM5.91585 7.21566C5.69883 7.21566 5.52289 7.3916 5.52289 7.60861H5.72289C5.72289 7.50205 5.80929 7.41566 5.91585 7.41566V7.21566ZM5.52289 7.60861C5.52289 7.82563 5.69883 8.00157 5.91585 8.00157V7.80157C5.80929 7.80157 5.72289 7.71517 5.72289 7.60861H5.52289ZM5.91585 8.00157H6.18298V7.80157H5.91585V8.00157ZM6.08298 7.90157V10.1192H6.28298V7.90157H6.08298ZM6.11872 10.0426C4.83105 11.1225 4.09519 12.6955 4.09519 14.3806H4.29519C4.29519 12.7547 5.00481 11.2378 6.24724 10.1958L6.11872 10.0426ZM4.09519 14.3806C4.09519 15.7516 4.58521 17.0104 5.39892 17.991L5.55282 17.8632C4.7677 16.9171 4.29519 15.7031 4.29519 14.3806H4.09519ZM5.38948 17.8767L4.4714 19.4515L4.64418 19.5523L5.56226 17.9775L5.38948 17.8767ZM4.47139 19.4515C4.3621 19.6391 4.42551 19.8796 4.61295 19.9889L4.71372 19.8162C4.62164 19.7625 4.59052 19.6443 4.64419 19.5523L4.47139 19.4515ZM4.613 19.989C4.6751 20.0251 4.74328 20.0424 4.81063 20.0424V19.8424C4.77767 19.8424 4.74437 19.834 4.71366 19.8161L4.613 19.989ZM4.81063 20.0424C4.94554 20.0424 5.07732 19.9727 5.15038 19.8473L4.97757 19.7466C4.94181 19.808 4.87735 19.8424 4.81063 19.8424V20.0424ZM5.15037 19.8473L5.97865 18.4265L5.80586 18.3258L4.97758 19.7466L5.15037 19.8473ZM5.82272 18.448C6.84198 19.4342 8.22975 20.0424 9.75703 20.0424V19.8424C8.28391 19.8424 6.94541 19.256 5.96179 18.3043L5.82272 18.448ZM9.75703 20.0424C10.416 20.0424 11.0619 19.9301 11.6766 19.7085L11.6088 19.5204C11.016 19.734 10.393 19.8424 9.75703 19.8424V20.0424ZM11.6766 19.7086C11.8808 19.635 11.9866 19.4098 11.913 19.2056L11.7249 19.2734C11.761 19.3737 11.709 19.4843 11.6088 19.5204L11.6766 19.7086ZM11.913 19.2056C11.8395 19.0015 11.6143 18.8956 11.4101 18.9692L11.4779 19.1573C11.5782 19.1212 11.6888 19.1732 11.7249 19.2734L11.913 19.2056ZM11.4101 18.9692C10.8812 19.1598 10.3251 19.2565 9.75703 19.2565V19.4565C10.348 19.4565 10.9271 19.3558 11.4779 19.1573L11.4101 18.9692ZM9.75703 19.2565C7.06852 19.2565 4.8811 17.0691 4.8811 14.3805H4.6811C4.6811 17.1795 6.95807 19.4565 9.75703 19.4565V19.2565ZM4.88108 14.3785C4.82798 11.7561 7.12992 9.46239 9.75542 9.50461L9.75864 9.30463C7.02088 9.26061 4.62571 11.6458 4.68112 14.3826L4.88108 14.3785ZM9.75703 9.50462C10.6208 9.50462 11.4602 9.73125 12.2001 10.1608L12.3005 9.98779C11.53 9.54054 10.656 9.30462 9.75703 9.30462V9.50462ZM12.157 10.0383C11.9983 10.45 11.914 10.8904 11.914 11.3369H12.114C12.114 10.9156 12.1935 10.4995 12.3436 10.1102L12.157 10.0383ZM11.914 11.3369C11.914 11.612 11.9454 11.8868 12.0073 12.1536L12.2021 12.1084C12.1437 11.8565 12.114 11.5969 12.114 11.3369H11.914ZM12.0073 12.1535C12.0554 12.3619 12.0074 12.5829 11.8735 12.7597L12.0329 12.8804C12.2015 12.6578 12.264 12.3763 12.2021 12.1085L12.0073 12.1535ZM11.8735 12.7597C11.8293 12.8179 11.7873 12.8769 11.7467 12.936L11.9115 13.0493C11.9509 12.992 11.9911 12.9356 12.0329 12.8805L11.8735 12.7597ZM11.912 12.9368C11.4364 12.2318 10.6281 11.7858 9.75703 11.7858V11.9858C10.5599 11.9858 11.3068 12.3973 11.7462 13.0486L11.912 12.9368ZM9.75703 11.7858C8.32616 11.7858 7.16223 12.9497 7.16223 14.3806H7.36223C7.36223 13.0602 8.43662 11.9858 9.75703 11.9858V11.7858ZM7.16223 14.3806C7.16223 15.8115 8.32616 16.9754 9.75703 16.9754V16.7754C8.43662 16.7754 7.36223 15.701 7.36223 14.3806H7.16223ZM9.75703 16.9754C10.2731 16.9754 10.7763 16.8185 11.2 16.5354L11.089 16.3691C10.6973 16.6307 10.2327 16.7754 9.75703 16.7754V16.9754ZM11.0467 16.473C11.4866 18.5437 13.3308 20.097 15.5237 20.0969L15.5237 19.8969C13.4271 19.897 11.663 18.4116 11.2423 16.4314L11.0467 16.473ZM15.5236 20.0969C18.1155 20.1001 20.1128 17.9543 20.0999 15.5198L19.8999 15.5209C19.9123 17.8478 18.0013 19.9 15.5238 19.8969L15.5236 20.0969ZM20.0999 15.5204C20.0999 14.5179 19.7813 13.5655 19.1788 12.767L19.0192 12.8875C19.5954 13.6512 19.8999 14.5613 19.8999 15.5204L20.0999 15.5204ZM15.5233 12.025C15.3793 12.025 15.2394 12.0424 15.1052 12.0742L15.1514 12.2688C15.271 12.2405 15.3954 12.225 15.5233 12.225V12.025ZM15.2283 12.1715V11.4265H15.0283V12.1715H15.2283ZM15.1283 11.5265H15.9185V11.3265H15.1283V11.5265ZM15.8185 11.4265V12.1716H16.0185V11.4265H15.8185ZM15.9416 12.0743C15.8073 12.0424 15.6674 12.025 15.5233 12.025V12.225C15.6512 12.225 15.7757 12.2405 15.8954 12.2689L15.9416 12.0743ZM15.8184 3.77962L15.8184 11.4211H16.0184L16.0184 3.77962H15.8184ZM15.9184 11.3211H15.1283V11.5211H15.9184V11.3211ZM15.2283 11.4211L15.2283 3.77962H15.0283L15.0283 11.4211H15.2283ZM15.1283 3.87962H15.9184V3.67962H15.1283V3.87962ZM16.0184 6.37985L16.0184 6.37518L15.8184 6.37522L15.8184 6.37989L16.0184 6.37985ZM15.9184 6.2752H15.1283V6.4752H15.9184V6.2752ZM15.0283 6.37522L15.0283 6.37989L15.2283 6.37985L15.2283 6.37518L15.0283 6.37522ZM15.1283 6.47987H15.9184V6.27987H15.1283V6.47987ZM14.6792 0.725512C14.6792 0.705355 14.6958 0.688839 14.7158 0.688839V0.488839C14.5852 0.488839 14.4792 0.594972 14.4792 0.725512H14.6792ZM14.7158 0.688839H16.3307V0.488839H14.7158V0.688839ZM16.3307 0.688839C16.3509 0.688839 16.3674 0.705373 16.3674 0.725512H16.5674C16.5674 0.594877 16.4613 0.488839 16.3307 0.488839V0.688839ZM16.3674 0.725512V2.42301H16.5674V0.725512H16.3674ZM16.38 2.37442L15.9517 3.14501L16.1265 3.24218L16.5548 2.47159L16.38 2.37442ZM16.0391 3.09359H15.0075V3.29359H16.0391V3.09359ZM15.0949 3.14501L14.6666 2.37446L14.4918 2.47163L14.9201 3.24218L15.0949 3.14501ZM14.6792 2.42305V0.725512H14.4792V2.42305H14.6792ZM12.5035 9.42905C12.0435 9.17328 11.5518 8.98475 11.0417 8.86633L10.9965 9.06115C11.4885 9.17538 11.9627 9.35722 12.4064 9.60385L12.5035 9.42905ZM11.1191 8.96374V7.90168H10.9191V8.96374H11.1191ZM11.0191 8.00168H12.4549V7.80168H11.0191V8.00168ZM12.3549 7.90168V9.51645H12.5549V7.90168H12.3549ZM8.05828 7.90168V9.05022H8.25828V7.90168H8.05828ZM8.12966 8.95441C7.6323 9.10298 7.15759 9.32056 6.71495 9.60411L6.82283 9.77252C7.24984 9.49899 7.70751 9.28925 8.1869 9.14604L8.12966 8.95441ZM6.86889 9.68832V7.90172H6.66889V9.68832H6.86889ZM6.7689 8.00172L8.15828 8.00168L8.15828 7.80168L6.76889 7.80172L6.7689 8.00172ZM8.84419 8.90996V7.90172H8.64419V8.90996H8.84419ZM8.74419 8.00172H10.4332V7.80172H8.74419V8.00172ZM10.3332 7.90172V8.86054H10.5332V7.90172H10.3332ZM10.4452 8.76128C10.2182 8.73367 9.98851 8.71887 9.75703 8.71887V8.91887C9.97998 8.91887 10.2016 8.93312 10.4211 8.95981L10.4452 8.76128ZM9.75704 8.71887C9.40711 8.71883 9.06268 8.75023 8.72625 8.81158L8.76213 9.00833C9.08668 8.94915 9.41909 8.91883 9.75702 8.91887L9.75704 8.71887ZM9.75703 16.1896C8.75969 16.1896 7.94814 15.378 7.94814 14.3807H7.74814C7.74814 15.4885 8.64923 16.3896 9.75703 16.3896V16.1896ZM7.94814 14.3807C7.94814 13.3833 8.75969 12.5718 9.75703 12.5718V12.3718C8.64923 12.3718 7.74814 13.2729 7.74814 14.3807H7.94814ZM9.75703 12.5718C10.4592 12.5718 11.1044 12.9886 11.3982 13.6199L11.5795 13.5355C11.2532 12.8343 10.5376 12.3718 9.75703 12.3718V12.5718ZM11.3988 13.5343C11.0734 14.2085 10.9085 14.9937 10.9547 15.7858L11.1544 15.7742C11.1102 15.0166 11.268 14.2653 11.5789 13.6212L11.3988 13.5343ZM10.9864 15.7068C10.6513 16.0189 10.2197 16.1896 9.75703 16.1896V16.3896C10.2703 16.3896 10.7506 16.1997 11.1227 15.8532L10.9864 15.7068ZM18.2154 18.1892C17.5237 18.892 16.5314 19.3166 15.5243 19.3111L15.5232 19.5111C16.5853 19.5169 17.6291 19.07 18.3579 18.3294L18.2154 18.1892ZM15.5238 19.3111C13.4515 19.3109 11.7543 17.6357 11.7331 15.5605L11.5331 15.5625C11.5554 17.7477 13.3421 19.5109 15.5237 19.5111L15.5238 19.3111ZM11.7331 15.5604C11.7238 14.731 11.9878 13.9132 12.5 13.2342L12.3403 13.1138C11.8013 13.8282 11.5233 14.6892 11.5331 15.5626L11.7331 15.5604ZM12.4999 13.2344C12.774 12.8724 12.874 12.4139 12.7729 11.9764L12.578 12.0215C12.6656 12.4002 12.5794 12.7981 12.3404 13.1136L12.4999 13.2344ZM12.7729 11.9763C12.7245 11.7676 12.6999 11.5525 12.6999 11.3371H12.4999C12.4999 11.5676 12.5262 11.7979 12.5781 12.0215L12.7729 11.9763ZM12.6999 11.3371C12.6999 10.6892 12.925 10.0561 13.3335 9.55495L13.1785 9.42858C12.7408 9.96554 12.4999 10.6432 12.4999 11.3371H12.6999ZM13.3335 9.55495C13.6608 9.15353 14.0935 8.84942 14.576 8.67695L14.5087 8.48862C13.992 8.67331 13.5289 8.99878 13.1785 9.42858L13.3335 9.55495ZM14.4423 8.58278V12.4351H14.6423V8.58278H14.4423ZM14.4849 12.3532C14.0176 12.681 13.7108 13.2238 13.7108 13.8375H13.9108C13.9108 13.2921 14.1833 12.8091 14.5998 12.5169L14.4849 12.3532ZM13.7108 13.8375C13.7108 14.505 14.0761 15.1167 14.664 15.4337L14.7589 15.2577C14.2357 14.9755 13.9108 14.4314 13.9108 13.8375H13.7108ZM14.664 15.4337C14.8551 15.5368 15.0934 15.4653 15.1964 15.2743L15.0203 15.1794C14.9697 15.2732 14.8527 15.3083 14.7589 15.2577L14.664 15.4337ZM15.1964 15.2743C15.2994 15.0833 15.228 14.845 15.037 14.742L14.942 14.918C15.0359 14.9686 15.0709 15.0856 15.0203 15.1794L15.1964 15.2743ZM15.037 14.742C14.7036 14.5622 14.4967 14.2157 14.4967 13.8375H14.2967C14.2967 14.2893 14.544 14.7034 14.942 14.918L15.037 14.742ZM14.4967 13.8375C14.4967 13.2715 14.9573 12.8109 15.5233 12.8109V12.6109C14.8469 12.6109 14.2967 13.1611 14.2967 13.8375H14.4967ZM15.5233 12.8109C16.0893 12.8109 16.5499 13.2715 16.5499 13.8375H16.7499C16.7499 13.1611 16.1998 12.6109 15.5233 12.6109V12.8109ZM16.5499 13.8375C16.5499 14.2207 16.3391 14.5693 15.9992 14.7475L16.0921 14.9246C16.4977 14.7119 16.7499 14.2952 16.7499 13.8375H16.5499ZM15.9992 14.7475C15.8071 14.8483 15.7329 15.0858 15.8337 15.278L16.0108 15.1851C15.9614 15.0908 15.9977 14.9741 16.0921 14.9246L15.9992 14.7475ZM15.8337 15.278C15.904 15.4121 16.0408 15.4885 16.1819 15.4885V15.2885C16.1122 15.2885 16.0453 15.2508 16.0108 15.1851L15.8337 15.278ZM16.1819 15.4885C16.2436 15.4885 16.3061 15.474 16.3642 15.4435L16.2713 15.2664C16.2426 15.2815 16.212 15.2885 16.1819 15.2885V15.4885ZM16.3642 15.4435C16.9634 15.1292 17.3358 14.5137 17.3358 13.8375H17.1358C17.1358 14.4393 16.8047 14.9866 16.2713 15.2664L16.3642 15.4435ZM17.3358 13.8375C17.3358 13.2239 17.029 12.6811 16.5618 12.3533L16.4469 12.517C16.8633 12.8092 17.1358 13.2922 17.1358 13.8375H17.3358ZM16.6044 12.4351V8.5829H16.4044V12.4351H16.6044ZM16.4709 8.67713C17.5502 9.06071 18.3034 10.0674 18.3448 11.2347L18.5446 11.2276C18.5004 9.97737 17.6936 8.89943 16.5378 8.48868L16.4709 8.67713ZM18.3448 11.2347C18.3535 11.4786 18.331 11.7217 18.2778 11.9578L18.473 12.0017C18.5299 11.7487 18.554 11.4884 18.5446 11.2276L18.3448 11.2347ZM18.2778 11.958C18.1771 12.4085 18.2765 12.8762 18.5515 13.2405L18.7111 13.12C18.4721 12.8033 18.3849 12.3958 18.473 12.0016L18.2778 11.958ZM18.5515 13.2405C19.0504 13.9016 19.314 14.6897 19.314 15.5205H19.514C19.514 14.6463 19.2363 13.8159 18.7111 13.12L18.5515 13.2405ZM19.314 15.5205C19.314 16.5268 18.924 17.4742 18.2156 18.1889L18.3577 18.3297C19.1032 17.5775 19.514 16.5796 19.514 15.5205H19.314Z" fill="#DFA935" mask="url(#path-4-outside-1_1762_4743)"/>
</g>
<path id="Vector_2" d="M12.8625 8.78331C13.2803 8.36567 13.7986 8.05788 14.364 7.89296C14.6345 7.81523 14.9307 8.37487 14.364 8.50789C13.8644 8.68648 13.4165 9.00127 13.0777 9.41687C12.6545 9.93595 12.4215 10.5913 12.4215 11.2622C12.4215 11.4852 12.447 11.7079 12.4971 11.9241C12.5914 12.3322 12.4983 12.7604 12.2418 13.0991C11.7162 13.7958 11.4452 14.6352 11.4548 15.4866C11.3824 15.9217 11.1081 15.9579 10.8762 15.7051C10.831 14.9302 10.9924 14.162 11.3105 13.5028C11.3508 13.4183 11.4751 13.1829 11.6507 12.9178C11.6908 12.8596 11.7319 12.8019 11.7748 12.7452C11.9261 12.5454 11.9814 12.2942 11.9263 12.0561C11.8662 11.7968 11.8356 11.5296 11.8356 11.2621C11.8356 10.8281 11.9176 10.3999 12.072 9.99938C12.1557 9.74129 12.431 9.13676 12.8625 8.78331Z" fill="#F7F7F6"/>
<path id="Vector_3" d="M3.28081 7.89482C3.09141 7.89482 2.93785 8.04838 2.93785 8.23778V19.6238C2.93785 19.8132 3.09141 19.9668 3.28081 19.9668C3.47021 19.9668 3.62376 19.8132 3.62376 19.6238V8.23778C3.62376 8.04838 3.47021 7.89482 3.28081 7.89482Z" fill="#DFA935" stroke="#DFA935" stroke-width="0.1"/>
<path id="Vector_4" d="M0.646243 3.67466L0.646145 3.67503C0.606639 3.81747 0.690199 3.965 0.832098 4.00437L5.82735 5.38918L5.82738 5.38919C5.89622 5.40831 5.96814 5.39941 6.03034 5.36423C6.03035 5.36423 6.03035 5.36423 6.03035 5.36423L0.646243 3.67466ZM0.646243 3.67466L0.647288 3.67078C0.666389 3.60201 0.710972 3.54496 0.77312 3.5098L0.773129 3.5098M0.646243 3.67466L0.773129 3.5098M0.773129 3.5098C0.835301 3.47461 0.907217 3.46575 0.976102 3.48486L0.976109 3.48486M0.773129 3.5098L0.976109 3.48486M0.976109 3.48486L5.97137 4.86968L5.98473 4.82149M0.976109 3.48486L5.98473 4.82149M5.98473 4.82149L5.97138 4.86968C6.11326 4.909 6.19683 5.05656 6.15732 5.19901L6.15722 5.19937M5.98473 4.82149L6.15722 5.19937M6.15722 5.19937L6.15622 5.20309M6.15722 5.19937L6.15622 5.20309M6.15622 5.20309C6.15621 5.20313 6.1562 5.20318 6.15618 5.20322L6.15622 5.20309ZM6.36816 5.96121L6.36817 5.9612C6.58967 5.83585 6.74926 5.63156 6.81737 5.38584L6.81747 5.38548L6.81846 5.38178C6.81848 5.38172 6.81849 5.38166 6.81851 5.38161C6.88644 5.13642 6.85478 4.87921 6.7295 4.65778C6.60419 4.43628 6.39987 4.27668 6.1546 4.20869L1.15934 2.82387L1.15933 2.82387C0.914155 2.75596 0.656797 2.78751 0.435336 2.91283L0.435334 2.91283C0.213834 3.03819 0.0542408 3.24247 -0.013866 3.4882L-0.0138673 3.4882L-0.0139631 3.48856L-0.0150087 3.49244C-0.0829373 3.73762 -0.0512799 3.99483 0.0739987 4.21626C0.199314 4.43776 0.403632 4.59736 0.648899 4.66535L2.93788 5.29993V6.87088C2.93788 7.06029 3.09144 7.21384 3.28084 7.21384C3.47024 7.21384 3.62379 7.06029 3.62379 6.87088V5.49006L5.64412 6.05016C5.7286 6.07359 5.81461 6.08522 5.90013 6.08522C6.06263 6.08522 6.22317 6.04324 6.36816 5.96121Z" fill="#DFA935" stroke="#DFA935" stroke-width="0.1"/>
<path id="Vector_5" d="M16.786 16.8936H14.2201C14.0584 16.8936 13.9272 17.0247 13.9272 17.1865C13.9272 17.3483 14.0584 17.4795 14.2201 17.4795H16.786C16.9478 17.4795 17.079 17.3483 17.079 17.1865C17.079 17.0247 16.9478 16.8936 16.786 16.8936Z" fill="#DFA935"/>
</g>
<circle id="Ellipse 3988" cx="9.76471" cy="14.3733" r="1.83911" fill="#F7F7F6"/>
<rect id="Rectangle 351655" x="0.77594" y="3.1665" width="5.70911" height="1.16895" transform="rotate(14.1169 0.77594 3.1665)" fill="#DFA935"/>
<circle id="Ellipse 3991" cx="15.3998" cy="13.9239" r="1.33795" fill="#F7F7F6"/>
</g>
<defs>
<clipPath id="clip0_1762_4743">
<rect width="20" height="20" fill="white"/>
</clipPath>
</defs>
</svg>
