<svg width="20" height="21" viewBox="0 0 20 21" fill="none" xmlns="http://www.w3.org/2000/svg">
<g id="fi_4472616" clip-path="url(#clip0_1762_4733)">
<g id="Group">
<g id="Vector">
<mask id="path-1-outside-1_1762_4733" maskUnits="userSpaceOnUse" x="3.19519" y="-0.125" width="17" height="22" fill="black">
<rect fill="white" x="3.19519" y="-0.125" width="17" height="22"/>
<path d="M19.099 13.6993C18.9457 13.4963 18.8903 13.2339 18.9471 12.9801C19.0131 12.6869 19.0411 12.3848 19.0302 12.0824C18.9764 10.5614 17.9501 9.26053 16.5044 8.84031V4.43451L17.0164 3.51339C17.0406 3.46983 17.0533 3.42085 17.0533 3.37105V1.59758C17.0533 1.19916 16.7292 0.875 16.3307 0.875H14.7158C14.3174 0.875 13.9933 1.19912 13.9933 1.59758V3.37101C13.9933 3.42081 14.006 3.4698 14.0302 3.51335L14.5423 4.43471V8.83992C13.977 9.00484 13.4586 9.31264 13.0409 9.73027V8.77364H13.3323C13.4941 8.77364 13.6252 8.64247 13.6252 8.48068C13.6252 8.31889 13.4941 8.18773 13.3323 8.18773H5.91585C5.75406 8.18773 5.62289 8.31889 5.62289 8.48068C5.62289 8.64247 5.75406 8.77364 5.91585 8.77364H6.18298V10.9913C4.91793 12.0522 4.19519 13.5972 4.19519 15.2527C4.19519 16.5994 4.67646 17.8358 5.47587 18.7992L4.55779 20.374C4.47631 20.5138 4.52357 20.6931 4.66333 20.7746C4.70974 20.8016 4.76048 20.8145 4.81063 20.8145C4.91144 20.8145 5.00956 20.7624 5.06398 20.669L5.89226 19.2482C6.89369 20.2172 8.25683 20.8145 9.75703 20.8145C10.4045 20.8145 11.0389 20.7041 11.6427 20.4865C11.7949 20.4317 11.8738 20.2638 11.819 20.1116C11.7641 19.9594 11.5963 19.8805 11.444 19.9353C10.9042 20.1299 10.3366 20.2285 9.75703 20.2285C7.0133 20.2285 4.7811 17.9964 4.7811 15.2526C4.72684 12.573 7.0754 10.2336 9.75703 10.2767C10.6384 10.2767 11.4951 10.508 12.2503 10.9463C12.0959 11.3468 12.014 11.7751 12.014 12.209C12.014 12.4765 12.0445 12.7438 12.1047 13.0031C12.1597 13.2412 12.1045 13.4924 11.9532 13.6921C11.9102 13.7488 11.8691 13.8065 11.8291 13.8648C11.3716 13.1866 10.594 12.7579 9.75703 12.7579C8.38139 12.7579 7.26223 13.877 7.26223 15.2527C7.26223 16.6283 8.38139 17.7475 9.75703 17.7475C10.2529 17.7475 10.7368 17.5966 11.1445 17.3243C11.5748 19.3497 13.3789 20.869 15.5237 20.869C18.0584 20.8721 20.0125 18.7731 19.9999 16.3924C19.9999 15.4117 19.6884 14.4804 19.099 13.6993ZM15.5233 12.9971C15.3873 12.9971 15.2552 13.0135 15.1283 13.0436V12.2985H15.9185V13.0436C15.7915 13.0135 15.6593 12.9971 15.5233 12.9971ZM15.9184 4.65169L15.9184 12.2932H15.1283L15.1283 4.65169H15.9184ZM15.9184 7.25194L15.9184 7.24727H15.1283L15.1283 7.25194H15.9184ZM14.5792 1.59758C14.5792 1.52223 14.6405 1.46091 14.7158 1.46091H16.3307C16.4061 1.46091 16.4674 1.52219 16.4674 1.59758V3.29508L16.0391 4.06566H15.0075L14.5792 3.29512V1.59758ZM12.4549 10.3885C12.0031 10.1373 11.5201 9.95214 11.0191 9.83581V8.77376H12.4549V10.3885ZM8.15828 8.77376V9.92229C7.6699 10.0682 7.20372 10.2818 6.76889 10.5604V8.77379L8.15828 8.77376ZM8.74419 9.78203V8.77379H10.4332V9.73261C10.2099 9.70547 9.98424 9.69094 9.75703 9.69094C9.4131 9.6909 9.07468 9.72176 8.74419 9.78203ZM9.75703 17.1616C8.70446 17.1616 7.84814 16.3053 7.84814 15.2527C7.84814 14.2002 8.70446 13.3438 9.75703 13.3438C10.4984 13.3438 11.1788 13.7835 11.4889 14.4498C11.1707 15.109 11.0094 15.8772 11.0545 16.6521C10.701 16.9814 10.245 17.1616 9.75703 17.1616ZM18.2867 19.1314C17.5764 19.8531 16.5584 20.2889 15.5237 20.2832C13.3968 20.283 11.6548 18.5638 11.6331 16.4336C11.6235 15.5822 11.8945 14.7428 12.4201 14.0461C12.6767 13.7073 12.7698 13.2791 12.6755 12.871C12.6253 12.6548 12.5999 12.4321 12.5999 12.2091C12.5999 11.5383 12.8329 10.8829 13.256 10.3638C13.5949 9.94823 14.0428 9.63344 14.5423 9.45485V13.3071C14.1005 13.6172 13.8108 14.13 13.8108 14.7096C13.8108 15.3403 14.1559 15.9182 14.7114 16.2178C14.8539 16.2946 15.0315 16.2414 15.1083 16.0989C15.1851 15.9565 15.1319 15.7788 14.9895 15.702C14.6238 15.5049 14.3967 15.1246 14.3967 14.7096C14.3967 14.0884 14.9021 13.583 15.5233 13.583C16.1445 13.583 16.6499 14.0884 16.6499 14.7096C16.6499 15.13 16.4184 15.5126 16.0457 15.7081C15.9024 15.7833 15.8471 15.9604 15.9223 16.1036C15.9747 16.2035 16.0765 16.2606 16.1819 16.2606C16.2278 16.2606 16.2743 16.2498 16.3178 16.227C16.8841 15.93 17.2358 15.3486 17.2358 14.7096C17.2358 14.1301 16.9462 13.6172 16.5044 13.3072V9.45497C17.6219 9.85214 18.4019 10.8944 18.4447 12.1032C18.4537 12.3556 18.4305 12.6073 18.3754 12.8518C18.281 13.2742 18.3743 13.7118 18.6313 14.0523C19.1433 14.7308 19.414 15.5401 19.414 16.3926C19.414 17.4253 19.0136 18.3979 18.2867 19.1314Z"/>
</mask>
<path d="M19.099 13.6993C18.9457 13.4963 18.8903 13.2339 18.9471 12.9801C19.0131 12.6869 19.0411 12.3848 19.0302 12.0824C18.9764 10.5614 17.9501 9.26053 16.5044 8.84031V4.43451L17.0164 3.51339C17.0406 3.46983 17.0533 3.42085 17.0533 3.37105V1.59758C17.0533 1.19916 16.7292 0.875 16.3307 0.875H14.7158C14.3174 0.875 13.9933 1.19912 13.9933 1.59758V3.37101C13.9933 3.42081 14.006 3.4698 14.0302 3.51335L14.5423 4.43471V8.83992C13.977 9.00484 13.4586 9.31264 13.0409 9.73027V8.77364H13.3323C13.4941 8.77364 13.6252 8.64247 13.6252 8.48068C13.6252 8.31889 13.4941 8.18773 13.3323 8.18773H5.91585C5.75406 8.18773 5.62289 8.31889 5.62289 8.48068C5.62289 8.64247 5.75406 8.77364 5.91585 8.77364H6.18298V10.9913C4.91793 12.0522 4.19519 13.5972 4.19519 15.2527C4.19519 16.5994 4.67646 17.8358 5.47587 18.7992L4.55779 20.374C4.47631 20.5138 4.52357 20.6931 4.66333 20.7746C4.70974 20.8016 4.76048 20.8145 4.81063 20.8145C4.91144 20.8145 5.00956 20.7624 5.06398 20.669L5.89226 19.2482C6.89369 20.2172 8.25683 20.8145 9.75703 20.8145C10.4045 20.8145 11.0389 20.7041 11.6427 20.4865C11.7949 20.4317 11.8738 20.2638 11.819 20.1116C11.7641 19.9594 11.5963 19.8805 11.444 19.9353C10.9042 20.1299 10.3366 20.2285 9.75703 20.2285C7.0133 20.2285 4.7811 17.9964 4.7811 15.2526C4.72684 12.573 7.0754 10.2336 9.75703 10.2767C10.6384 10.2767 11.4951 10.508 12.2503 10.9463C12.0959 11.3468 12.014 11.7751 12.014 12.209C12.014 12.4765 12.0445 12.7438 12.1047 13.0031C12.1597 13.2412 12.1045 13.4924 11.9532 13.6921C11.9102 13.7488 11.8691 13.8065 11.8291 13.8648C11.3716 13.1866 10.594 12.7579 9.75703 12.7579C8.38139 12.7579 7.26223 13.877 7.26223 15.2527C7.26223 16.6283 8.38139 17.7475 9.75703 17.7475C10.2529 17.7475 10.7368 17.5966 11.1445 17.3243C11.5748 19.3497 13.3789 20.869 15.5237 20.869C18.0584 20.8721 20.0125 18.7731 19.9999 16.3924C19.9999 15.4117 19.6884 14.4804 19.099 13.6993ZM15.5233 12.9971C15.3873 12.9971 15.2552 13.0135 15.1283 13.0436V12.2985H15.9185V13.0436C15.7915 13.0135 15.6593 12.9971 15.5233 12.9971ZM15.9184 4.65169L15.9184 12.2932H15.1283L15.1283 4.65169H15.9184ZM15.9184 7.25194L15.9184 7.24727H15.1283L15.1283 7.25194H15.9184ZM14.5792 1.59758C14.5792 1.52223 14.6405 1.46091 14.7158 1.46091H16.3307C16.4061 1.46091 16.4674 1.52219 16.4674 1.59758V3.29508L16.0391 4.06566H15.0075L14.5792 3.29512V1.59758ZM12.4549 10.3885C12.0031 10.1373 11.5201 9.95214 11.0191 9.83581V8.77376H12.4549V10.3885ZM8.15828 8.77376V9.92229C7.6699 10.0682 7.20372 10.2818 6.76889 10.5604V8.77379L8.15828 8.77376ZM8.74419 9.78203V8.77379H10.4332V9.73261C10.2099 9.70547 9.98424 9.69094 9.75703 9.69094C9.4131 9.6909 9.07468 9.72176 8.74419 9.78203ZM9.75703 17.1616C8.70446 17.1616 7.84814 16.3053 7.84814 15.2527C7.84814 14.2002 8.70446 13.3438 9.75703 13.3438C10.4984 13.3438 11.1788 13.7835 11.4889 14.4498C11.1707 15.109 11.0094 15.8772 11.0545 16.6521C10.701 16.9814 10.245 17.1616 9.75703 17.1616ZM18.2867 19.1314C17.5764 19.8531 16.5584 20.2889 15.5237 20.2832C13.3968 20.283 11.6548 18.5638 11.6331 16.4336C11.6235 15.5822 11.8945 14.7428 12.4201 14.0461C12.6767 13.7073 12.7698 13.2791 12.6755 12.871C12.6253 12.6548 12.5999 12.4321 12.5999 12.2091C12.5999 11.5383 12.8329 10.8829 13.256 10.3638C13.5949 9.94823 14.0428 9.63344 14.5423 9.45485V13.3071C14.1005 13.6172 13.8108 14.13 13.8108 14.7096C13.8108 15.3403 14.1559 15.9182 14.7114 16.2178C14.8539 16.2946 15.0315 16.2414 15.1083 16.0989C15.1851 15.9565 15.1319 15.7788 14.9895 15.702C14.6238 15.5049 14.3967 15.1246 14.3967 14.7096C14.3967 14.0884 14.9021 13.583 15.5233 13.583C16.1445 13.583 16.6499 14.0884 16.6499 14.7096C16.6499 15.13 16.4184 15.5126 16.0457 15.7081C15.9024 15.7833 15.8471 15.9604 15.9223 16.1036C15.9747 16.2035 16.0765 16.2606 16.1819 16.2606C16.2278 16.2606 16.2743 16.2498 16.3178 16.227C16.8841 15.93 17.2358 15.3486 17.2358 14.7096C17.2358 14.1301 16.9462 13.6172 16.5044 13.3072V9.45497C17.6219 9.85214 18.4019 10.8944 18.4447 12.1032C18.4537 12.3556 18.4305 12.6073 18.3754 12.8518C18.281 13.2742 18.3743 13.7118 18.6313 14.0523C19.1433 14.7308 19.414 15.5401 19.414 16.3926C19.414 17.4253 19.0136 18.3979 18.2867 19.1314Z" fill="black"/>
<path d="M15.1283 9.37178H15.9184V9.27178H15.1283V9.37178ZM19.099 13.6993L19.1788 13.6391L19.1788 13.6391L19.099 13.6993ZM18.9471 12.9801L18.8495 12.9581L18.8495 12.9583L18.9471 12.9801ZM19.0302 12.0824L18.9303 12.0859L18.9303 12.086L19.0302 12.0824ZM16.5044 8.84031H16.4044V8.91539L16.4764 8.93634L16.5044 8.84031ZM16.5044 4.43451L16.417 4.38593L16.4044 4.40859V4.43451H16.5044ZM17.0164 3.51339L16.929 3.46479L16.929 3.4648L17.0164 3.51339ZM14.0302 3.51335L14.1176 3.46476L14.1176 3.46475L14.0302 3.51335ZM14.5423 4.43471H14.6423V4.40878L14.6297 4.38612L14.5423 4.43471ZM14.5423 8.83992L14.5703 8.93592L14.6423 8.91492V8.83992H14.5423ZM13.0409 9.73027H12.9409V9.97164L13.1116 9.80099L13.0409 9.73027ZM13.0409 8.77364V8.67364H12.9409V8.77364H13.0409ZM6.18298 8.77364H6.28298V8.67364H6.18298V8.77364ZM6.18298 10.9913L6.24724 11.0679L6.28298 11.0379V10.9913H6.18298ZM5.47587 18.7992L5.56226 18.8495L5.59748 18.7891L5.55282 18.7353L5.47587 18.7992ZM4.55779 20.374L4.4714 20.3236L4.47139 20.3236L4.55779 20.374ZM4.66333 20.7746L4.61295 20.861L4.613 20.861L4.66333 20.7746ZM5.06398 20.669L4.97758 20.6187L4.97757 20.6187L5.06398 20.669ZM5.89226 19.2482L5.96179 19.1764L5.87011 19.0877L5.80586 19.1979L5.89226 19.2482ZM11.6427 20.4865L11.6088 20.3925L11.6088 20.3925L11.6427 20.4865ZM11.819 20.1116L11.913 20.0777L11.913 20.0777L11.819 20.1116ZM11.444 19.9353L11.4101 19.8412L11.4101 19.8412L11.444 19.9353ZM4.7811 15.2526H4.88112L4.88108 15.2506L4.7811 15.2526ZM9.75703 10.2767L9.75542 10.3767H9.75703V10.2767ZM12.2503 10.9463L12.3436 10.9823L12.3743 10.9027L12.3005 10.8599L12.2503 10.9463ZM12.1047 13.0031L12.2021 12.9806L12.2021 12.9805L12.1047 13.0031ZM11.9532 13.6921L12.0329 13.7526L12.0329 13.7525L11.9532 13.6921ZM11.8291 13.8648L11.7462 13.9207L11.8283 14.0424L11.9115 13.9214L11.8291 13.8648ZM11.1445 17.3243L11.2423 17.3035L11.2117 17.1592L11.089 17.2411L11.1445 17.3243ZM15.5237 20.869L15.5238 20.769H15.5237L15.5237 20.869ZM19.9999 16.3924L19.8999 16.3924L19.8999 16.393L19.9999 16.3924ZM15.1283 13.0436H15.0283V13.1701L15.1514 13.1409L15.1283 13.0436ZM15.1283 12.2985V12.1985H15.0283V12.2985H15.1283ZM15.9185 12.2985H16.0185V12.1985H15.9185V12.2985ZM15.9185 13.0436L15.8954 13.1409L16.0185 13.1701V13.0436H15.9185ZM15.9184 4.65169H16.0184V4.55169H15.9184V4.65169ZM15.9184 12.2932V12.3932H16.0184V12.2932H15.9184ZM15.1283 12.2932H15.0283V12.3932H15.1283V12.2932ZM15.1283 4.65169V4.55169H15.0283V4.65169H15.1283ZM15.9184 7.25194V7.35194H16.0185L16.0184 7.25192L15.9184 7.25194ZM15.9184 7.24727L16.0184 7.24725L16.0184 7.14727H15.9184V7.24727ZM15.1283 7.24727V7.14727H15.0282L15.0283 7.24729L15.1283 7.24727ZM15.1283 7.25194L15.0283 7.25196L15.0283 7.35194H15.1283V7.25194ZM16.4674 3.29508L16.5548 3.34366L16.5674 3.321V3.29508H16.4674ZM16.0391 4.06566V4.16566H16.0979L16.1265 4.11425L16.0391 4.06566ZM15.0075 4.06566L14.9201 4.11425L14.9487 4.16566H15.0075V4.06566ZM14.5792 3.29512H14.4792V3.32104L14.4918 3.3437L14.5792 3.29512ZM12.4549 10.3885L12.4064 10.4759L12.5549 10.5585V10.3885H12.4549ZM11.0191 9.83581H10.9191V9.91526L10.9965 9.93322L11.0191 9.83581ZM11.0191 8.77376V8.67376H10.9191V8.77376H11.0191ZM12.4549 8.77376H12.5549V8.67376H12.4549V8.77376ZM8.15828 8.77376H8.25828V8.67375L8.15828 8.67376L8.15828 8.77376ZM8.15828 9.92229L8.1869 10.0181L8.25828 9.99679V9.92229H8.15828ZM6.76889 10.5604H6.66889V10.7432L6.82283 10.6446L6.76889 10.5604ZM6.76889 8.77379L6.76889 8.67379L6.66889 8.6738V8.77379H6.76889ZM8.74419 9.78203H8.64419V9.90191L8.76213 9.8804L8.74419 9.78203ZM8.74419 8.77379V8.67379H8.64419V8.77379H8.74419ZM10.4332 8.77379H10.5332V8.67379H10.4332V8.77379ZM10.4332 9.73261L10.4211 9.83188L10.5332 9.84551V9.73261H10.4332ZM9.75703 9.69094L9.75702 9.79094H9.75703V9.69094ZM11.4889 14.4498L11.5789 14.4933L11.5995 14.4506L11.5795 14.4076L11.4889 14.4498ZM11.0545 16.6521L11.1227 16.7253L11.1571 16.6932L11.1544 16.6463L11.0545 16.6521ZM18.2867 19.1314L18.2156 19.061L18.2154 19.0612L18.2867 19.1314ZM15.5237 20.2832L15.5243 20.1832H15.5238L15.5237 20.2832ZM11.6331 16.4336L11.7331 16.4326L11.7331 16.4325L11.6331 16.4336ZM12.4201 14.0461L12.3404 13.9857L12.3403 13.9858L12.4201 14.0461ZM12.6755 12.871L12.7729 12.8485L12.7729 12.8484L12.6755 12.871ZM13.256 10.3638L13.1785 10.3006L13.1785 10.3006L13.256 10.3638ZM14.5423 9.45485H14.6423V9.31291L14.5087 9.36069L14.5423 9.45485ZM14.5423 13.3071L14.5998 13.389L14.6423 13.3591V13.3071H14.5423ZM14.7114 16.2178L14.7589 16.1298L14.7589 16.1297L14.7114 16.2178ZM14.9895 15.702L15.037 15.614L15.037 15.614L14.9895 15.702ZM16.0457 15.7081L15.9992 15.6196L15.9992 15.6196L16.0457 15.7081ZM15.9223 16.1036L16.0108 16.0572L16.0108 16.0572L15.9223 16.1036ZM16.3178 16.227L16.3642 16.3156L16.3642 16.3156L16.3178 16.227ZM16.5044 13.3072H16.4044V13.3592L16.4469 13.3891L16.5044 13.3072ZM16.5044 9.45497L16.5378 9.36075L16.4044 9.31331V9.45497H16.5044ZM18.4447 12.1032L18.3448 12.1068L18.3448 12.1068L18.4447 12.1032ZM18.3754 12.8518L18.2778 12.8299L18.2778 12.83L18.3754 12.8518ZM18.6313 14.0523L18.7111 13.9921L18.7111 13.9921L18.6313 14.0523ZM19.1788 13.6391C19.0436 13.46 18.9942 13.2279 19.0447 13.0019L18.8495 12.9583C18.7865 13.24 18.8477 13.5325 19.0192 13.7596L19.1788 13.6391ZM19.0446 13.002C19.1126 12.7004 19.1413 12.3898 19.1301 12.0788L18.9303 12.086C18.9408 12.3799 18.9136 12.6734 18.8495 12.9581L19.0446 13.002ZM19.1301 12.0788C19.0748 10.5144 18.0191 9.17646 16.5323 8.74429L16.4764 8.93634C17.881 9.34459 18.878 10.6084 18.9303 12.0859L19.1301 12.0788ZM16.6044 8.84031V4.43451H16.4044V8.84031H16.6044ZM16.5918 4.4831L17.1038 3.56197L16.929 3.4648L16.417 4.38593L16.5918 4.4831ZM17.1038 3.56198C17.1362 3.50356 17.1533 3.43786 17.1533 3.37105H16.9533C16.9533 3.40385 16.9449 3.4361 16.929 3.46479L17.1038 3.56198ZM17.1533 3.37105V1.59758H16.9533V3.37105H17.1533ZM17.1533 1.59758C17.1533 1.14394 16.7844 0.775 16.3307 0.775V0.975C16.6739 0.975 16.9533 1.25439 16.9533 1.59758H17.1533ZM16.3307 0.775H14.7158V0.975H16.3307V0.775ZM14.7158 0.775C14.2622 0.775 13.8933 1.1439 13.8933 1.59758H14.0933C14.0933 1.25435 14.3726 0.975 14.7158 0.975V0.775ZM13.8933 1.59758V3.37101H14.0933V1.59758H13.8933ZM13.8933 3.37101C13.8933 3.43781 13.9103 3.50352 13.9428 3.56195L14.1176 3.46475C14.1016 3.43607 14.0933 3.40381 14.0933 3.37101H13.8933ZM13.9428 3.56193L14.4549 4.48329L14.6297 4.38612L14.1176 3.46476L13.9428 3.56193ZM14.4423 4.43471V8.83992H14.6423V4.43471H14.4423ZM14.5143 8.74392C13.9327 8.91358 13.3997 9.23012 12.9702 9.65955L13.1116 9.80099C13.5175 9.39515 14.0212 9.0961 14.5703 8.93592L14.5143 8.74392ZM13.1409 9.73027V8.77364H12.9409V9.73027H13.1409ZM13.0409 8.87364H13.3323V8.67364H13.0409V8.87364ZM13.3323 8.87364C13.5493 8.87364 13.7252 8.6977 13.7252 8.48068H13.5252C13.5252 8.58724 13.4388 8.67364 13.3323 8.67364V8.87364ZM13.7252 8.48068C13.7252 8.26367 13.5493 8.08773 13.3323 8.08773V8.28773C13.4388 8.28773 13.5252 8.37412 13.5252 8.48068H13.7252ZM13.3323 8.08773H5.91585V8.28773H13.3323V8.08773ZM5.91585 8.08773C5.69883 8.08773 5.52289 8.26367 5.52289 8.48068H5.72289C5.72289 8.37412 5.80929 8.28773 5.91585 8.28773V8.08773ZM5.52289 8.48068C5.52289 8.6977 5.69883 8.87364 5.91585 8.87364V8.67364C5.80929 8.67364 5.72289 8.58724 5.72289 8.48068H5.52289ZM5.91585 8.87364H6.18298V8.67364H5.91585V8.87364ZM6.08298 8.77364V10.9913H6.28298V8.77364H6.08298ZM6.11872 10.9146C4.83105 11.9946 4.09519 13.5675 4.09519 15.2527H4.29519C4.29519 13.6268 5.00481 12.1099 6.24724 11.0679L6.11872 10.9146ZM4.09519 15.2527C4.09519 16.6237 4.58521 17.8825 5.39892 18.863L5.55282 18.7353C4.7677 17.7892 4.29519 16.5752 4.29519 15.2527H4.09519ZM5.38948 18.7488L4.4714 20.3236L4.64418 20.4243L5.56226 18.8495L5.38948 18.7488ZM4.47139 20.3236C4.3621 20.5111 4.42551 20.7517 4.61295 20.861L4.71372 20.6882C4.62164 20.6345 4.59052 20.5164 4.64419 20.4243L4.47139 20.3236ZM4.613 20.861C4.6751 20.8972 4.74328 20.9145 4.81063 20.9145V20.7145C4.77767 20.7145 4.74437 20.7061 4.71366 20.6882L4.613 20.861ZM4.81063 20.9145C4.94554 20.9145 5.07732 20.8448 5.15038 20.7194L4.97757 20.6187C4.94181 20.6801 4.87735 20.7145 4.81063 20.7145V20.9145ZM5.15037 20.7194L5.97865 19.2986L5.80586 19.1979L4.97758 20.6187L5.15037 20.7194ZM5.82272 19.3201C6.84198 20.3063 8.22975 20.9145 9.75703 20.9145V20.7145C8.28391 20.7145 6.94541 20.1281 5.96179 19.1764L5.82272 19.3201ZM9.75703 20.9145C10.416 20.9145 11.0619 20.8022 11.6766 20.5806L11.6088 20.3925C11.016 20.6061 10.393 20.7145 9.75703 20.7145V20.9145ZM11.6766 20.5806C11.8808 20.5071 11.9866 20.2819 11.913 20.0777L11.7249 20.1455C11.761 20.2458 11.709 20.3563 11.6088 20.3925L11.6766 20.5806ZM11.913 20.0777C11.8395 19.8736 11.6143 19.7677 11.4101 19.8412L11.4779 20.0294C11.5782 19.9933 11.6888 20.0453 11.7249 20.1455L11.913 20.0777ZM11.4101 19.8412C10.8812 20.0318 10.3251 20.1285 9.75703 20.1285V20.3285C10.348 20.3285 10.9271 20.2279 11.4779 20.0294L11.4101 19.8412ZM9.75703 20.1285C7.06852 20.1285 4.8811 17.9411 4.8811 15.2526H4.6811C4.6811 18.0516 6.95807 20.3285 9.75703 20.3285V20.1285ZM4.88108 15.2506C4.82798 12.6282 7.12992 10.3345 9.75542 10.3767L9.75864 10.1767C7.02088 10.1327 4.62571 12.5179 4.68112 15.2546L4.88108 15.2506ZM9.75703 10.3767C10.6208 10.3767 11.4602 10.6033 12.2001 11.0328L12.3005 10.8599C11.53 10.4126 10.656 10.1767 9.75703 10.1767V10.3767ZM12.157 10.9104C11.9983 11.3221 11.914 11.7625 11.914 12.209H12.114C12.114 11.7877 12.1935 11.3716 12.3436 10.9823L12.157 10.9104ZM11.914 12.209C11.914 12.4841 11.9454 12.7589 12.0073 13.0257L12.2021 12.9805C12.1437 12.7286 12.114 12.469 12.114 12.209H11.914ZM12.0073 13.0256C12.0554 13.234 12.0074 13.455 11.8735 13.6318L12.0329 13.7525C12.2015 13.5298 12.264 13.2484 12.2021 12.9806L12.0073 13.0256ZM11.8735 13.6317C11.8293 13.69 11.7873 13.749 11.7467 13.8081L11.9115 13.9214C11.9509 13.8641 11.9911 13.8077 12.0329 13.7526L11.8735 13.6317ZM11.912 13.8088C11.4364 13.1038 10.6281 12.6579 9.75703 12.6579V12.8579C10.5599 12.8579 11.3068 13.2694 11.7462 13.9207L11.912 13.8088ZM9.75703 12.6579C8.32616 12.6579 7.16223 13.8218 7.16223 15.2527H7.36223C7.36223 13.9322 8.43662 12.8579 9.75703 12.8579V12.6579ZM7.16223 15.2527C7.16223 16.6835 8.32616 17.8475 9.75703 17.8475V17.6475C8.43662 17.6475 7.36223 16.5731 7.36223 15.2527H7.16223ZM9.75703 17.8475C10.2731 17.8475 10.7763 17.6905 11.2 17.4074L11.089 17.2411C10.6973 17.5028 10.2327 17.6475 9.75703 17.6475V17.8475ZM11.0467 17.3451C11.4866 19.4157 13.3308 20.969 15.5237 20.969L15.5237 20.769C13.4271 20.769 11.663 19.2836 11.2423 17.3035L11.0467 17.3451ZM15.5236 20.969C18.1155 20.9722 20.1128 18.8263 20.0999 16.3919L19.8999 16.393C19.9123 18.7199 18.0013 20.772 15.5238 20.769L15.5236 20.969ZM20.0999 16.3924C20.0999 15.39 19.7813 14.4376 19.1788 13.6391L19.0192 13.7596C19.5954 14.5232 19.8999 15.4334 19.8999 16.3924L20.0999 16.3924ZM15.5233 12.8971C15.3793 12.8971 15.2394 12.9145 15.1052 12.9463L15.1514 13.1409C15.271 13.1125 15.3954 13.0971 15.5233 13.0971V12.8971ZM15.2283 13.0436V12.2985H15.0283V13.0436H15.2283ZM15.1283 12.3985H15.9185V12.1985H15.1283V12.3985ZM15.8185 12.2985V13.0436H16.0185V12.2985H15.8185ZM15.9416 12.9463C15.8073 12.9145 15.6674 12.8971 15.5233 12.8971V13.0971C15.6512 13.0971 15.7757 13.1125 15.8954 13.1409L15.9416 12.9463ZM15.8184 4.65169L15.8184 12.2932H16.0184L16.0184 4.65169H15.8184ZM15.9184 12.1932H15.1283V12.3932H15.9184V12.1932ZM15.2283 12.2932L15.2283 4.65169H15.0283L15.0283 12.2932H15.2283ZM15.1283 4.75169H15.9184V4.55169H15.1283V4.75169ZM16.0184 7.25192L16.0184 7.24725L15.8184 7.24729L15.8184 7.25196L16.0184 7.25192ZM15.9184 7.14727H15.1283V7.34727H15.9184V7.14727ZM15.0283 7.24729L15.0283 7.25196L15.2283 7.25192L15.2283 7.24725L15.0283 7.24729ZM15.1283 7.35194H15.9184V7.15194H15.1283V7.35194ZM14.6792 1.59758C14.6792 1.57743 14.6958 1.56091 14.7158 1.56091V1.36091C14.5852 1.36091 14.4792 1.46704 14.4792 1.59758H14.6792ZM14.7158 1.56091H16.3307V1.36091H14.7158V1.56091ZM16.3307 1.56091C16.3509 1.56091 16.3674 1.57744 16.3674 1.59758H16.5674C16.5674 1.46695 16.4613 1.36091 16.3307 1.36091V1.56091ZM16.3674 1.59758V3.29508H16.5674V1.59758H16.3674ZM16.38 3.24649L15.9517 4.01708L16.1265 4.11425L16.5548 3.34366L16.38 3.24649ZM16.0391 3.96566H15.0075V4.16566H16.0391V3.96566ZM15.0949 4.01708L14.6666 3.24653L14.4918 3.3437L14.9201 4.11425L15.0949 4.01708ZM14.6792 3.29512V1.59758H14.4792V3.29512H14.6792ZM12.5035 10.3011C12.0435 10.0453 11.5518 9.85682 11.0417 9.7384L10.9965 9.93322C11.4885 10.0475 11.9627 10.2293 12.4064 10.4759L12.5035 10.3011ZM11.1191 9.83581V8.77376H10.9191V9.83581H11.1191ZM11.0191 8.87375H12.4549V8.67376H11.0191V8.87375ZM12.3549 8.77376V10.3885H12.5549V8.77376H12.3549ZM8.05828 8.77376V9.92229H8.25828V8.77376H8.05828ZM8.12966 9.82648C7.6323 9.97505 7.15759 10.1926 6.71495 10.4762L6.82283 10.6446C7.24984 10.3711 7.70751 10.1613 8.1869 10.0181L8.12966 9.82648ZM6.86889 10.5604V8.77379H6.66889V10.5604H6.86889ZM6.7689 8.87379L8.15828 8.87375L8.15828 8.67376L6.76889 8.67379L6.7689 8.87379ZM8.84419 9.78203V8.77379H8.64419V9.78203H8.84419ZM8.74419 8.87379H10.4332V8.67379H8.74419V8.87379ZM10.3332 8.77379V9.73261H10.5332V8.77379H10.3332ZM10.4452 9.63335C10.2182 9.60574 9.98851 9.59094 9.75703 9.59094V9.79094C9.97998 9.79094 10.2016 9.80519 10.4211 9.83188L10.4452 9.63335ZM9.75704 9.59094C9.40711 9.5909 9.06268 9.6223 8.72625 9.68365L8.76213 9.8804C9.08668 9.82122 9.41909 9.7909 9.75702 9.79094L9.75704 9.59094ZM9.75703 17.0616C8.75969 17.0616 7.94814 16.2501 7.94814 15.2527H7.74814C7.74814 16.3605 8.64923 17.2616 9.75703 17.2616V17.0616ZM7.94814 15.2527C7.94814 14.2554 8.75969 13.4438 9.75703 13.4438V13.2438C8.64923 13.2438 7.74814 14.1449 7.74814 15.2527H7.94814ZM9.75703 13.4438C10.4592 13.4438 11.1044 13.8606 11.3982 14.492L11.5795 14.4076C11.2532 13.7064 10.5376 13.2438 9.75703 13.2438V13.4438ZM11.3988 14.4063C11.0734 15.0805 10.9085 15.8657 10.9547 16.6579L11.1544 16.6463C11.1102 15.8887 11.268 15.1374 11.5789 14.4933L11.3988 14.4063ZM10.9864 16.5789C10.6513 16.8909 10.2197 17.0616 9.75703 17.0616V17.2616C10.2703 17.2616 10.7506 17.0718 11.1227 16.7253L10.9864 16.5789ZM18.2154 19.0612C17.5237 19.7641 16.5314 20.1887 15.5243 20.1832L15.5232 20.3832C16.5853 20.389 17.6291 19.9421 18.3579 19.2015L18.2154 19.0612ZM15.5238 20.1832C13.4515 20.183 11.7543 18.5078 11.7331 16.4326L11.5331 16.4346C11.5554 18.6198 13.3421 20.383 15.5237 20.3832L15.5238 20.1832ZM11.7331 16.4325C11.7238 15.6031 11.9878 14.7852 12.5 14.1063L12.3403 13.9858C11.8013 14.7003 11.5233 15.5613 11.5331 16.4347L11.7331 16.4325ZM12.4999 14.1065C12.774 13.7445 12.874 13.286 12.7729 12.8485L12.578 12.8935C12.6656 13.2723 12.5794 13.6702 12.3404 13.9857L12.4999 14.1065ZM12.7729 12.8484C12.7245 12.6397 12.6999 12.4245 12.6999 12.2091H12.4999C12.4999 12.4397 12.5262 12.67 12.5781 12.8936L12.7729 12.8484ZM12.6999 12.2091C12.6999 11.5612 12.925 10.9282 13.3335 10.427L13.1785 10.3006C12.7408 10.8376 12.4999 11.5153 12.4999 12.2091H12.6999ZM13.3335 10.427C13.6608 10.0256 14.0935 9.72149 14.576 9.54902L14.5087 9.36069C13.992 9.54538 13.5289 9.87085 13.1785 10.3006L13.3335 10.427ZM14.4423 9.45485V13.3071H14.6423V9.45485H14.4423ZM14.4849 13.2253C14.0176 13.5531 13.7108 14.0959 13.7108 14.7096H13.9108C13.9108 14.1641 14.1833 13.6812 14.5998 13.389L14.4849 13.2253ZM13.7108 14.7096C13.7108 15.3771 14.0761 15.9888 14.664 16.3058L14.7589 16.1297C14.2357 15.8476 13.9108 15.3035 13.9108 14.7096H13.7108ZM14.664 16.3058C14.8551 16.4088 15.0934 16.3374 15.1964 16.1464L15.0203 16.0515C14.9697 16.1453 14.8527 16.1804 14.7589 16.1298L14.664 16.3058ZM15.1964 16.1464C15.2994 15.9554 15.228 15.717 15.037 15.614L14.942 15.7901C15.0359 15.8407 15.0709 15.9577 15.0203 16.0515L15.1964 16.1464ZM15.037 15.614C14.7036 15.4343 14.4967 15.0878 14.4967 14.7096H14.2967C14.2967 15.1614 14.544 15.5755 14.942 15.7901L15.037 15.614ZM14.4967 14.7096C14.4967 14.1436 14.9573 13.683 15.5233 13.683V13.483C14.8469 13.483 14.2967 14.0331 14.2967 14.7096H14.4967ZM15.5233 13.683C16.0893 13.683 16.5499 14.1436 16.5499 14.7096H16.7499C16.7499 14.0331 16.1998 13.483 15.5233 13.483V13.683ZM16.5499 14.7096C16.5499 15.0928 16.3391 15.4413 15.9992 15.6196L16.0921 15.7967C16.4977 15.584 16.7499 15.1673 16.7499 14.7096H16.5499ZM15.9992 15.6196C15.8071 15.7204 15.7329 15.9579 15.8337 16.1501L16.0108 16.0572C15.9614 15.9629 15.9977 15.8462 16.0921 15.7967L15.9992 15.6196ZM15.8337 16.1501C15.904 16.2842 16.0408 16.3606 16.1819 16.3606V16.1606C16.1122 16.1606 16.0453 16.1228 16.0108 16.0572L15.8337 16.1501ZM16.1819 16.3606C16.2436 16.3606 16.3061 16.3461 16.3642 16.3156L16.2713 16.1385C16.2426 16.1535 16.212 16.1606 16.1819 16.1606V16.3606ZM16.3642 16.3156C16.9634 16.0013 17.3358 15.3858 17.3358 14.7096H17.1358C17.1358 15.3113 16.8047 15.8587 16.2713 16.1385L16.3642 16.3156ZM17.3358 14.7096C17.3358 14.096 17.029 13.5532 16.5618 13.2253L16.4469 13.3891C16.8633 13.6813 17.1358 14.1642 17.1358 14.7096H17.3358ZM16.6044 13.3072V9.45497H16.4044V13.3072H16.6044ZM16.4709 9.5492C17.5502 9.93278 18.3034 10.9394 18.3448 12.1068L18.5446 12.0997C18.5004 10.8494 17.6936 9.7715 16.5378 9.36075L16.4709 9.5492ZM18.3448 12.1068C18.3535 12.3507 18.331 12.5938 18.2778 12.8299L18.473 12.8738C18.5299 12.6208 18.554 12.3605 18.5446 12.0997L18.3448 12.1068ZM18.2778 12.83C18.1771 13.2806 18.2765 13.7483 18.5515 14.1126L18.7111 13.9921C18.4721 13.6754 18.3849 13.2679 18.473 12.8736L18.2778 12.83ZM18.5515 14.1126C19.0504 14.7737 19.314 15.5617 19.314 16.3926H19.514C19.514 15.5184 19.2363 14.688 18.7111 13.9921L18.5515 14.1126ZM19.314 16.3926C19.314 17.3989 18.924 18.3463 18.2156 19.061L18.3577 19.2018C19.1032 18.4496 19.514 17.4517 19.514 16.3926H19.314Z" fill="black" mask="url(#path-1-outside-1_1762_4733)"/>
</g>
<path id="Vector_2" d="M3.28081 8.76689C3.09141 8.76689 2.93785 8.92045 2.93785 9.10985V20.4959C2.93785 20.6853 3.09141 20.8389 3.28081 20.8389C3.47021 20.8389 3.62376 20.6853 3.62376 20.4959V9.10985C3.62376 8.92045 3.47021 8.76689 3.28081 8.76689Z" fill="black" stroke="black" stroke-width="0.1"/>
<path id="Vector_3" d="M0.646243 4.54673L0.646145 4.5471C0.606639 4.68954 0.690199 4.83707 0.832098 4.87644L5.82735 6.26125L5.82738 6.26126C5.89622 6.28038 5.96814 6.27148 6.03034 6.2363C6.03035 6.2363 6.03035 6.2363 6.03035 6.2363L0.646243 4.54673ZM0.646243 4.54673L0.647288 4.54285C0.666389 4.47408 0.710972 4.41703 0.77312 4.38188L0.773129 4.38187M0.646243 4.54673L0.773129 4.38187M0.773129 4.38187C0.835301 4.34668 0.907217 4.33782 0.976102 4.35693L0.976109 4.35693M0.773129 4.38187L0.976109 4.35693M0.976109 4.35693L5.97137 5.74175L5.98473 5.69356M0.976109 4.35693L5.98473 5.69356M5.98473 5.69356L5.97138 5.74175C6.11326 5.78107 6.19683 5.92863 6.15732 6.07108L6.15722 6.07144M5.98473 5.69356L6.15722 6.07144M6.15722 6.07144L6.15622 6.07516M6.15722 6.07144L6.15622 6.07516M6.15622 6.07516C6.15621 6.0752 6.1562 6.07525 6.15618 6.0753L6.15622 6.07516ZM6.36816 6.83328L6.36817 6.83327C6.58967 6.70792 6.74926 6.50363 6.81737 6.25791L6.81747 6.25755L6.81846 6.25385C6.81848 6.25379 6.81849 6.25373 6.81851 6.25368C6.88644 6.0085 6.85478 5.75128 6.7295 5.52985C6.60419 5.30835 6.39987 5.14875 6.1546 5.08076L1.15934 3.69594L1.15933 3.69594C0.914155 3.62803 0.656797 3.65959 0.435336 3.7849L0.435334 3.78491C0.213834 3.91026 0.0542408 4.11454 -0.013866 4.36027L-0.0138673 4.36027L-0.0139631 4.36063L-0.0150087 4.36451C-0.0829373 4.60969 -0.0512799 4.8669 0.0739987 5.08833C0.199314 5.30983 0.403632 5.46943 0.648899 5.53742L2.93788 6.172V7.74296C2.93788 7.93236 3.09144 8.08591 3.28084 8.08591C3.47024 8.08591 3.62379 7.93236 3.62379 7.74296V6.36213L5.64412 6.92223C5.7286 6.94566 5.81461 6.95729 5.90013 6.95729C6.06263 6.95729 6.22317 6.91531 6.36816 6.83328Z" fill="black" stroke="black" stroke-width="0.1"/>
<path id="Vector_4" d="M16.786 17.7656H14.2201C14.0584 17.7656 13.9272 17.8968 13.9272 18.0586C13.9272 18.2204 14.0584 18.3515 14.2201 18.3515H16.786C16.9478 18.3515 17.079 18.2204 17.079 18.0586C17.079 17.8968 16.9478 17.7656 16.786 17.7656Z" fill="black"/>
</g>
</g>
<defs>
<clipPath id="clip0_1762_4733">
<rect width="20" height="20" fill="white" transform="translate(0 0.87207)"/>
</clipPath>
</defs>
</svg>
