<svg width="20" height="20" viewBox="0 0 20 20" fill="none" xmlns="http://www.w3.org/2000/svg">
<g id="fi_2995035" clip-path="url(#clip0_1762_4723)">
<g id="Group">
<path id="Vector" d="M19.2029 3.68708L19.1832 3.64112L19.2029 3.68708ZM19.2029 3.68708L10.9998 7.2027C10.9998 7.2027 10.9998 7.2027 10.9998 7.2027C10.8028 7.28717 10.675 7.48093 10.675 7.6953V15.7771V15.8652L10.5994 15.82C10.104 15.5241 9.50016 15.3625 8.86719 15.3625C8.12479 15.3625 7.42218 15.5841 6.88836 15.9845C6.31392 16.4154 5.9875 17.0252 5.9875 17.6562C5.9875 18.2872 6.31392 18.8971 6.88836 19.328L6.85836 19.368L6.88836 19.328C7.42218 19.7283 8.12479 19.95 8.86719 19.95C9.60958 19.95 10.3122 19.7283 10.846 19.328C11.4205 18.8971 11.7469 18.2872 11.7469 17.6562V10.4254V10.3924L11.7772 10.3795L18.8084 7.36606L18.8781 7.33619V7.41202V12.2615V12.3496L18.8025 12.3044C18.3072 12.0085 17.7033 11.8469 17.0703 11.8469C16.3279 11.8469 15.6253 12.0685 15.0915 12.4689C14.517 12.8997 14.1906 13.5096 14.1906 14.1406C14.1906 14.7716 14.517 15.3815 15.0915 15.8123C15.6253 16.2127 16.3279 16.4344 17.0703 16.4344C17.8127 16.4344 18.5153 16.2127 19.0491 15.8123C19.6236 15.3815 19.95 14.7716 19.95 14.1406H20L19.95 14.1405V14.1403V14.1398V14.1392V14.1384V14.1375V14.1364V14.1351V14.1336V14.132V14.1302V14.1283V14.1261V14.1238V14.1214V14.1188V14.116V14.113V14.1099V14.1066V14.1032V14.0996V14.0959V14.0919V14.0879V14.0837V14.0793V14.0747V14.07V14.0652V14.0602V14.055V14.0497V14.0443V14.0386V14.0329V14.027V14.0209V14.0147V14.0083V14.0018V13.9952V13.9884V13.9814V13.9744V13.9671V13.9597V13.9522V13.9446V13.9368V13.9288V13.9208V13.9125V13.9042V13.8957V13.887V13.8783V13.8694V13.8603V13.8512V13.8419V13.8324V13.8229V13.8131V13.8033V13.7934V13.7833V13.773V13.7627V13.7522V13.7416V13.7309V13.72V13.709V13.6979V13.6867V13.6754V13.6639V13.6523V13.6406V13.6287V13.6168V13.6047V13.5925V13.5802V13.5678V13.5553V13.5426V13.5298V13.517V13.504V13.4908V13.4776V13.4643V13.4509V13.4373V13.4236V13.4099V13.396V13.382V13.3679V13.3537V13.3394V13.325V13.3105V13.2959V13.2812V13.2664V13.2515V13.2364V13.2213V13.2061V13.1908V13.1754V13.1599V13.1443V13.1286V13.1128V13.0969V13.0809V13.0649V13.0487V13.0324V13.0161V12.9997V12.9831V12.9665V12.9498V12.933V12.9161V12.8992V12.8821V12.865V12.8478V12.8305V12.8131V12.7956V12.7781V12.7605V12.7428V12.725V12.7071V12.6892V12.6712V12.6531V12.6349V12.6167V12.5984V12.58V12.5615V12.543V12.5244V12.5057V12.4869V12.4681V12.4492V12.4303V12.4112V12.3922V12.373V12.3538V12.3345V12.3151V12.2957V12.2763V12.2567V12.2371V12.2175V12.1977V12.178V12.1581V12.1382V12.1183V12.0983V12.0782V12.0581V12.0379V12.0177V11.9974V11.9771V11.9567V11.9362V11.9157V11.8952V11.8746V11.854V11.8333V11.8126V11.7918V11.771V11.7501V11.7292V11.7082V11.6872V11.6662V11.6451V11.624V11.6028V11.5816V11.5604V11.5391V11.5178V11.4964V11.4751V11.4536V11.4322V11.4107V11.3891V11.3676V11.346V11.3244V11.3027V11.281V11.2593V11.2376V11.2158V11.194V11.1722V11.1503V11.1285V11.1066V11.0846V11.0627V11.0407V11.0187V10.9967V10.9747V10.9526V10.9306V10.9085V10.8864V10.8642V10.8421V10.8199V10.7978V10.7756V10.7534V10.7312V10.7089V10.6867V10.6645V10.6422V10.6199V10.5977V10.5754V10.5531V10.5308V10.5085V10.4862V10.4638V10.4415V10.4192V10.3969V10.3746V10.3522V10.3299V10.3076V10.2852V10.2629V10.2406V10.2183V10.1959V10.1736V10.1513V10.129V10.1067V10.0844V10.0621V10.0399V10.0176V9.99532V9.97307V9.95084V9.92861V9.9064V9.8842V9.86201V9.83984V9.81768V9.79554V9.77341V9.7513V9.72921V9.70714V9.68508V9.66305V9.64104V9.61904V9.59707V9.57512V9.5532V9.5313V9.50942V9.48757V9.46574V9.44394V9.42217V9.40043V9.37871V9.35702V9.33537V9.31374V9.29215V9.27059V9.24906V9.22756V9.2061V9.18467V9.16328V9.14192V9.1206V9.09932V9.07808V9.05687V9.0357V9.01458V8.99349V8.97245V8.95145V8.93049V8.90958V8.88871V8.86788V8.8471V8.82637V8.80569V8.78505V8.76446V8.74392V8.72342V8.70298V8.68259V8.66225V8.64197V8.62174V8.60156V8.58143V8.56136V8.54135V8.52139V8.50149V8.48165V8.46187V8.44215V8.42248V8.40288V8.38334V8.36386V8.34444V8.32508V8.30579V8.28657V8.26741V8.24831V8.22929V8.21033V8.19144V8.17261V8.15386V8.13518V8.11656V8.09802V8.07955V8.06116V8.04284V8.02459V8.00641V7.98832V7.97029V7.95235V7.93448V7.9167V7.89899V7.88136V7.86381V7.84634V7.82895V7.81165V7.79443V7.77729V7.76024V7.74327V7.72639V7.70959V7.69288V7.67626V7.65973V7.64329V7.62694V7.61067V7.5945V7.57842V7.56244V7.54655V7.53075V7.51504V7.49943V7.48392V7.4685V7.45319V7.43796V7.42284V7.40782V7.3929V7.37808V7.36336V7.34874V7.33422V7.31981V7.3055V7.2913V7.2772V7.26321V7.24933V7.23555V7.22189V7.20833V7.19488V7.18154V7.16831V7.1552V7.14219V7.1293V7.11653V7.10386V7.09132V7.07888V7.06657V7.05437V7.04229V7.03033V7.01849V7.00677V6.99516V6.98368V6.97232V6.96109V6.94998V6.93899V6.92812V6.91738V6.90677V6.89628V6.88593V6.8757V6.86559V6.85562V6.84578V6.83607V6.82649V6.81704V6.80772V6.79854V6.78949V6.78058V6.7718V6.76316V6.75466V6.74629V6.73807V6.72998V6.72203V6.71422V6.70655V6.69902V6.69164V6.6844V6.6773V6.67035V6.66354V6.65688V6.65036V6.64399V6.63777V6.6317V6.62578V6.62V6.61438V6.60891V6.60359V6.59842V6.59341V6.58855V6.58384V6.57929V6.5749V6.57066V6.56658V6.56266V6.5589V6.5553V6.55185V6.54857V6.54545V6.54249V6.53969V6.53706V6.53459V6.53229V6.53015V6.52818V6.52637V6.52473V6.52326V6.52196V6.52083V6.51987V6.51908V6.51846V6.51802V6.51774V6.51765V4.17968C19.95 3.99953 19.8595 3.83142 19.7091 3.73228C19.5587 3.63309 19.3685 3.61612 19.2029 3.68708ZM11.7469 9.15046V9.22629L11.8166 9.19642L18.8478 6.18302L18.8781 6.17003V6.13706V5.06827V4.99244L18.8084 5.02231L11.7772 8.03571L11.7469 8.0487V8.08167V9.15046ZM7.05938 17.6562C7.05938 17.9964 7.27458 18.3029 7.60323 18.522C7.93258 18.7416 8.38189 18.8781 8.86719 18.8781C9.35249 18.8781 9.8018 18.7416 10.1311 18.522C10.4598 18.3029 10.675 17.9964 10.675 17.6562C10.675 17.3161 10.4598 17.0096 10.1311 16.7905C9.8018 16.5709 9.35249 16.4344 8.86719 16.4344C8.38189 16.4344 7.93258 16.5709 7.60323 16.7905C7.27458 17.0096 7.05938 17.3161 7.05938 17.6562ZM15.2625 14.1406C15.2625 14.4807 15.4777 14.7873 15.8064 15.0064C16.1357 15.2259 16.585 15.3625 17.0703 15.3625C17.5556 15.3625 18.0049 15.2259 18.3343 15.0064C18.6629 14.7873 18.8781 14.4807 18.8781 14.1406C18.8781 13.8005 18.6629 13.494 18.3343 13.2749C18.0049 13.0553 17.5556 12.9187 17.0703 12.9187C16.585 12.9187 16.1357 13.0553 15.8064 13.2749C15.4777 13.494 15.2625 13.8005 15.2625 14.1406Z" fill="black" stroke="white" stroke-width="0.1"/>
<path id="Vector_2" d="M7.23825 8.41003L7.23839 8.40989C7.37971 8.26743 7.63225 7.971 7.84979 7.61451C8.0666 7.25925 8.25313 6.83715 8.25313 6.44522C8.25313 5.80288 7.92525 5.02188 7.4706 4.24919C7.01483 3.4746 6.42701 2.70076 5.89766 2.07071L5.80937 1.96564V2.10287V10.5468C5.80937 11.1778 5.48296 11.7877 4.90852 12.2185C4.3747 12.6189 3.67208 12.8405 2.92969 12.8405C2.18729 12.8405 1.48468 12.6189 0.950861 12.2185L0.920859 12.2585L0.95086 12.2185C0.376417 11.7877 0.05 11.1778 0.05 10.5468C0.05 9.91578 0.376417 9.3059 0.95086 8.87506C1.48468 8.47467 2.18729 8.25303 2.92969 8.25303C3.56266 8.25303 4.16653 8.41469 4.66186 8.71057L4.7375 8.75575V8.66764V0.585844C4.7375 0.107596 5.318 -0.127733 5.65252 0.207008L5.65253 0.207019C5.68975 0.244239 6.56891 1.12699 7.46004 2.3151C8.70266 3.97189 9.32504 5.36052 9.32504 6.44526C9.32504 7.1189 9.02918 7.7644 8.71268 8.26143C8.39668 8.75768 8.06354 9.1006 7.99617 9.16794L7.99616 9.16795C7.78687 9.37729 7.44751 9.37725 7.23825 9.16795L7.20289 9.2033L7.23825 9.16795C7.02894 8.95865 7.02894 8.61933 7.23825 8.41003ZM1.12188 10.5468C1.12188 10.8869 1.33708 11.1934 1.66573 11.4125C1.99508 11.6321 2.44439 11.7687 2.92969 11.7687C3.41499 11.7687 3.8643 11.6321 4.19365 11.4125C4.52229 11.1934 4.7375 10.8869 4.7375 10.5468C4.7375 10.2067 4.52229 9.90012 4.19365 9.68103C3.8643 9.46146 3.41499 9.32491 2.92969 9.32491C2.44439 9.32491 1.99508 9.46146 1.66573 9.68103C1.33708 9.90012 1.12188 10.2067 1.12188 10.5468Z" fill="black" stroke="white" stroke-width="0.1"/>
</g>
</g>
<defs>
<clipPath id="clip0_1762_4723">
<rect width="20" height="20" fill="white"/>
</clipPath>
</defs>
</svg>
