<svg width="20" height="20" viewBox="0 0 20 20" fill="none" xmlns="http://www.w3.org/2000/svg">
<g id="fi_96421">
<g id="Group">
<path id="Vector" d="M4.46717 12.8657C4.35712 12.7557 4.17874 12.7557 4.06866 12.8657C3.95862 12.9758 3.95862 13.1542 4.06866 13.2642L6.73602 15.9316C6.79106 15.9866 6.86315 16.0141 6.93529 16.0141C7.00738 16.0141 7.07952 15.9866 7.13456 15.9316C7.2446 15.8215 7.2446 15.6431 7.13456 15.5331L4.46717 12.8657Z" fill="black"/>
<path id="Vector_2" d="M18.712 3.27103C18.7196 3.2385 18.889 2.46677 18.2111 1.78882C17.5331 1.11091 16.7615 1.28024 16.7289 1.2879C16.6776 1.29978 16.6306 1.32589 16.5933 1.36312L16.4851 1.47132L16.4187 1.4049C16.3086 1.29489 16.1303 1.29485 16.0202 1.40493C15.9102 1.51498 15.9102 1.6934 16.0203 1.8034L16.0867 1.86979L15.7866 2.16982L15.7202 2.1034C15.6101 1.99339 15.4318 1.99335 15.3217 2.10343C15.2117 2.21348 15.2117 2.3919 15.3218 2.5019L15.3882 2.56829L15.0881 2.86832L15.0217 2.8019C14.9116 2.69189 14.7332 2.69189 14.6232 2.8019C14.5132 2.91198 14.5132 3.09036 14.6232 3.2004L14.7453 3.32247L14.3238 4.16546L11.2894 7.08641C10.6679 6.60687 9.44002 5.9107 8.16103 6.59533C7.30849 7.05049 7.08149 7.6305 6.88124 8.1422C6.72168 8.54995 6.58388 8.90205 6.15261 9.22162C5.95203 9.3701 5.5817 9.44392 5.15288 9.5294C4.08157 9.74294 2.61439 10.0354 1.65027 11.8176C0.50168 13.9412 2.2048 15.9996 2.99125 16.7869L3.21438 17.0096C3.81219 17.6074 5.14566 18.7364 6.68494 18.7364C7.16922 18.7363 7.67389 18.6246 8.1824 18.3494C9.96465 17.3853 10.2571 15.9185 10.4706 14.8474C10.5561 14.4187 10.6299 14.0485 10.7784 13.8479C11.0979 13.4166 11.45 13.2787 11.8578 13.1191C12.3696 12.9187 12.9498 12.6916 13.4045 11.8393C14.0892 10.5601 13.3929 9.33223 12.9132 8.71071L15.8337 5.67679L16.6776 5.25484L16.7994 5.37668C16.8545 5.43168 16.9266 5.45918 16.9987 5.45918C17.0708 5.45918 17.1429 5.43168 17.1979 5.37664C17.308 5.2666 17.308 5.08818 17.1979 4.97817L17.1315 4.91179L17.4316 4.61175L17.4979 4.67814C17.553 4.73314 17.6251 4.76064 17.6972 4.76064C17.7693 4.76064 17.8414 4.73314 17.8965 4.67814C18.0065 4.56806 18.0065 4.38968 17.8965 4.27964L17.8301 4.21325L18.1301 3.91325L18.1965 3.97964C18.2515 4.03464 18.3237 4.06214 18.3958 4.06214C18.4678 4.06214 18.54 4.03464 18.595 3.97964C18.7051 3.86956 18.7051 3.69118 18.595 3.58114L18.5286 3.51475L18.6368 3.40659C18.674 3.36932 18.7001 3.32235 18.712 3.27103ZM12.9075 11.5737C12.5506 12.2427 12.1343 12.4057 11.6524 12.5944C11.2255 12.7615 10.7415 12.951 10.3255 13.5127C10.102 13.8146 10.0167 14.2422 9.91798 14.7373C9.7156 15.7524 9.46373 17.0156 7.91423 17.8538C6.12278 18.8233 4.30943 17.3077 3.61326 16.6116L3.38904 16.3878C2.69268 15.6907 1.17764 13.8761 2.14589 12.0858C2.98408 10.5364 4.24763 10.2846 5.26299 10.0821C5.7582 9.98343 6.18586 9.89818 6.48796 9.67453C7.04952 9.25837 7.23887 8.7745 7.40598 8.34763C7.59455 7.8658 7.75741 7.44971 8.42665 7.09239C9.38366 6.58008 10.3444 7.08739 10.8783 7.48217L9.05188 9.24026C9.02517 9.23909 8.99838 9.23831 8.97148 9.23831C8.49142 9.23831 8.04054 9.42484 7.70207 9.76327C7.36364 10.101 7.17729 10.551 7.17741 11.0305C7.17748 11.5099 7.36402 11.9599 7.70218 12.2971C8.04024 12.6356 8.49051 12.8221 8.97013 12.8221C9.44975 12.8221 9.89984 12.6356 10.2368 12.2976C10.575 11.9609 10.7616 11.5114 10.7621 11.032C10.7622 11.0037 10.7614 10.9755 10.7602 10.9474L12.5175 9.12184C12.9124 9.65563 13.4199 10.6165 12.9075 11.5737ZM9.1268 9.81185C9.39621 9.84544 9.645 9.96573 9.83909 10.1594C10.0336 10.3541 10.1544 10.603 10.1884 10.8726C10.1887 10.8755 10.1891 10.8783 10.1894 10.8812C10.1953 10.9306 10.1986 10.9807 10.1986 11.0313C10.1981 11.36 10.0705 11.6678 9.83845 11.899C9.60728 12.1308 9.29887 12.2585 8.97009 12.2585C8.64117 12.2585 8.3325 12.1308 8.1005 11.8984C7.86869 11.6673 7.74099 11.359 7.74096 11.0304C7.74088 10.7017 7.86847 10.3934 8.10031 10.162C8.33257 9.92978 8.64192 9.80189 8.97148 9.80189C9.021 9.80189 9.06996 9.80512 9.11835 9.81083C9.12113 9.81117 9.12394 9.81155 9.1268 9.81185ZM10.6058 10.2952C10.5178 10.0987 10.3941 9.91764 10.2374 9.76083C10.0812 9.60487 9.90066 9.48183 9.70466 9.39415L14.5502 4.72972L15.2697 5.45013L10.6058 10.2952ZM18.1717 3.07469L17.9316 3.3148C17.9313 3.31507 17.9311 3.31525 17.9308 3.31548C17.9306 3.31574 17.9304 3.316 17.9301 3.31623L17.2331 4.0133C17.2328 4.01357 17.2326 4.01375 17.2323 4.01398C17.2321 4.01424 17.2319 4.0145 17.2316 4.01473L16.5655 4.68085L15.7201 5.10354L14.8969 4.27934L15.3197 3.43371L16.925 1.82839C17.0797 1.81704 17.4581 1.83274 17.8126 2.18729C18.168 2.54274 18.183 2.92212 18.1717 3.07469Z" fill="#222222" stroke="#222222" stroke-width="0.35" stroke-linecap="round" stroke-linejoin="round"/>
</g>
</g>
</svg>
