<svg width="20" height="21" viewBox="0 0 20 21" fill="none" xmlns="http://www.w3.org/2000/svg">
<g id="vuesax/linear/message-question">
<g id="message-question">
<path id="Vector" d="M14.1667 16.2308H10.8333L7.12498 18.6975C6.57498 19.0641 5.83332 18.6725 5.83332 18.0058V16.2308C3.33332 16.2308 1.66666 14.5642 1.66666 12.0642V7.06413C1.66666 4.56413 3.33332 2.89746 5.83332 2.89746H14.1667C16.6667 2.89746 18.3333 4.56413 18.3333 7.06413V12.0642C18.3333 14.5642 16.6667 16.2308 14.1667 16.2308Z" fill="#DFA935" stroke="#DFA935" stroke-linecap="round" stroke-linejoin="round"/>
<path id="Vector_2" d="M10 10.3389V10.1639C10 9.59723 10.3501 9.29722 10.7001 9.05555C11.0417 8.82222 11.3834 8.52223 11.3834 7.97223C11.3834 7.20556 10.7667 6.58887 10 6.58887C9.23337 6.58887 8.61673 7.20556 8.61673 7.97223" stroke="white" stroke-linecap="round" stroke-linejoin="round"/>
<path id="Vector_3" d="M9.99626 12.3302H10.0038" stroke="white" stroke-linecap="round" stroke-linejoin="round"/>
</g>
</g>
</svg>
