<svg width="20" height="21" viewBox="0 0 20 21" fill="none" xmlns="http://www.w3.org/2000/svg">
<g id="Frame">
<path id="Vector" d="M1.66666 7.53874L2.75332 8.4079C3.13189 8.7107 3.57195 8.92727 4.04282 9.04253C4.51368 9.1578 5.00402 9.16897 5.47965 9.07527C5.95527 8.98157 6.40474 8.78526 6.79671 8.50003C7.18868 8.21479 7.51371 7.84749 7.74916 7.42374L9.99999 3.37207L12.2508 7.42374C12.4863 7.84742 12.8114 8.21465 13.2034 8.4998C13.5954 8.78495 14.0449 8.98118 14.5205 9.0748C14.9962 9.16841 15.4865 9.15717 15.9573 9.04185C16.4281 8.92652 16.8681 8.7099 17.2467 8.40707L18.3333 7.53874L16.8717 14.8471C16.8078 15.166 16.672 15.4662 16.4746 15.7247C16.2772 15.9832 16.0234 16.1932 15.7325 16.3387C13.9526 17.2287 11.99 17.6921 9.99999 17.6921C8.01001 17.6921 6.04736 17.2287 4.26749 16.3387C3.9766 16.1932 3.72277 15.9832 3.52535 15.7247C3.32793 15.4662 3.19214 15.166 3.12832 14.8471L1.66666 7.53874Z" fill="#DFA935" stroke="#DFA935" stroke-linecap="round" stroke-linejoin="round"/>
<path id="Vector_2" d="M6.66666 13.3721C8.82999 14.4829 11.17 14.4829 13.3333 13.3721" stroke="white" stroke-linecap="round" stroke-linejoin="round"/>
</g>
</svg>
