<svg width="20" height="21" viewBox="0 0 20 21" fill="none" xmlns="http://www.w3.org/2000/svg">
<g id="Frame">
<path id="Vector" d="M1.66667 7.53874L2.75334 8.4079C3.13191 8.7107 3.57197 8.92727 4.04283 9.04253C4.5137 9.1578 5.00404 9.16897 5.47966 9.07527C5.95529 8.98157 6.40476 8.78526 6.79672 8.50003C7.18869 8.21479 7.51373 7.84749 7.74917 7.42374L10 3.37207L12.2508 7.42374C12.4864 7.84742 12.8114 8.21465 13.2034 8.4998C13.5955 8.78495 14.0449 8.98118 14.5205 9.0748C14.9962 9.16841 15.4865 9.15717 15.9573 9.04185C16.4281 8.92652 16.8682 8.7099 17.2467 8.40707L18.3333 7.53874L16.8717 14.8471C16.8079 15.166 16.6721 15.4662 16.4746 15.7247C16.2772 15.9832 16.0234 16.1932 15.7325 16.3387C13.9526 17.2287 11.99 17.6921 10 17.6921C8.01002 17.6921 6.04737 17.2287 4.2675 16.3387C3.97661 16.1932 3.72278 15.9832 3.52536 15.7247C3.32795 15.4662 3.19216 15.166 3.12834 14.8471L1.66667 7.53874Z" stroke="#222222" stroke-linecap="round" stroke-linejoin="round"/>
<path id="Vector_2" d="M6.66667 13.3721C8.83 14.4829 11.17 14.4829 13.3333 13.3721" stroke="#222222" stroke-linecap="round" stroke-linejoin="round"/>
</g>
</svg>
