<svg width="20" height="20" viewBox="0 0 20 20" fill="none" xmlns="http://www.w3.org/2000/svg">
<g id="fi_657629">
<g id="Group">
<g id="Group_2">
<path id="Vector" d="M17.5267 3.39276H15.923V3.15755C15.923 2.90967 15.7219 2.70852 15.474 2.70852H12.737C12.4891 2.70852 12.288 2.90967 12.288 3.15755V3.39276H11.8175V3.15755C11.8175 2.90967 11.6164 2.70852 11.3685 2.70852H8.6315C8.38362 2.70852 8.18247 2.90967 8.18247 3.15755V3.39276H7.71205V3.15755C7.71205 2.90967 7.51089 2.70852 7.26301 2.70852H4.52602C4.27813 2.70852 4.07698 2.90967 4.07698 3.15755V3.39276H2.47327C1.84835 3.39276 1.33999 3.90113 1.33999 4.52605V16.1583C1.33999 16.7832 1.84835 17.2916 2.47327 17.2916H5.89451H10H14.1055H17.5267C18.1517 17.2916 18.66 16.7832 18.66 16.1583V4.52605C18.66 3.90113 18.1517 3.39276 17.5267 3.39276ZM5.44547 16.3935H2.47327C2.34362 16.3935 2.23806 16.2875 2.23806 16.1583V4.52605C2.23806 4.39679 2.34362 4.29084 2.47327 4.29084H4.07698V11.3685C4.07698 11.6164 4.27813 11.8176 4.52602 11.8176H5.44547V16.3935ZM9.55096 16.3935H6.34355V11.8176H7.26301C7.51089 11.8176 7.71205 11.6164 7.71205 11.3685V4.29084H8.18247V11.3685C8.18247 11.6164 8.38362 11.8176 8.6315 11.8176H9.55096V16.3935ZM13.6565 16.3935H10.449V11.8176H11.3685C11.6164 11.8176 11.8175 11.6164 11.8175 11.3685V4.29084H12.288V11.3685C12.288 11.6164 12.4891 11.8176 12.737 11.8176H13.6565V16.3935ZM17.7619 16.1583C17.7619 16.2875 17.6564 16.3935 17.5267 16.3935H14.5545V11.8176H15.474C15.7219 11.8176 15.923 11.6164 15.923 11.3685V4.29084H17.5267C17.6564 4.29084 17.7619 4.39679 17.7619 4.52605V16.1583Z" fill="black" stroke="black" stroke-width="0.213828"/>
</g>
</g>
<rect id="Rectangle 351522" x="4.85487" y="3.38525" width="2.12575" height="7.61969" fill="#FEF8EC"/>
<rect id="Rectangle 351523" x="8.93713" y="3.38525" width="2.12575" height="7.61969" fill="#FEF8EC"/>
<rect id="Rectangle 351524" x="13.019" y="3.38525" width="2.12575" height="7.61969" fill="#FEF8EC"/>
</g>
</svg>
