<svg width="21" height="21" viewBox="0 0 21 21" fill="none" xmlns="http://www.w3.org/2000/svg">
<path d="M1.98621 7.94043H18.1116L17.2701 17.1934C17.2246 17.6942 16.9935 18.1599 16.6222 18.4991C16.251 18.8383 15.7663 19.0265 15.2635 19.0266H4.83436C4.33148 19.0265 3.84685 18.8383 3.47559 18.4991C3.10433 18.1599 2.87326 17.6942 2.82775 17.1934L1.98621 7.94043Z" stroke="#222222" stroke-linecap="round" stroke-linejoin="round"/>
<path d="M5.98608 7.94057V6.42881C5.98608 5.35963 6.41081 4.33424 7.16684 3.57822C7.92286 2.82219 8.94826 2.39746 10.0174 2.39746C11.0866 2.39746 12.112 2.82219 12.868 3.57822C13.6241 4.33424 14.0488 5.35963 14.0488 6.42881V7.94057" stroke="#222222" stroke-linecap="round" stroke-linejoin="round"/>
</svg>
