<svg width="21" height="21" viewBox="0 0 21 21" fill="none" xmlns="http://www.w3.org/2000/svg">
<path d="M1.98621 7.06836H18.1116L17.2701 16.3213C17.2246 16.8221 16.9935 17.2878 16.6222 17.627C16.251 17.9662 15.7663 18.1544 15.2635 18.1546H4.83436C4.33148 18.1544 3.84685 17.9662 3.47559 17.627C3.10433 17.2878 2.87326 16.8221 2.82775 16.3213L1.98621 7.06836Z" fill="#DFA935" stroke="#DFA935" stroke-linecap="round" stroke-linejoin="round"/>
<path d="M5.98608 7.0685V5.55674C5.98608 4.48756 6.41081 3.46217 7.16684 2.70615C7.92286 1.95012 8.94826 1.52539 10.0174 1.52539C11.0866 1.52539 12.112 1.95012 12.868 2.70615C13.6241 3.46217 14.0488 4.48756 14.0488 5.55674V7.0685" stroke="#DFA935" stroke-linecap="round" stroke-linejoin="round"/>
</svg>
