<svg width="20" height="20" viewBox="0 0 20 20" fill="none" xmlns="http://www.w3.org/2000/svg">
<g id="vuesax/linear/user-square">
<g id="vuesax/linear/user-square_2">
<g id="user-square">
<circle id="Ellipse 3983" cx="10.0001" cy="10.0001" r="8.9361" stroke="#292D32" stroke-width="1.25" stroke-linecap="round" stroke-linejoin="round"/>
<path id="Vector" d="M13.986 15.6858C15.074 16.7753 14.0397 18.3333 12.5 18.3333V18.3333H7.50003V18.3333C5.96032 18.3333 4.92607 16.7753 6.01409 15.6858C6.9552 14.7435 8.39247 14.1416 10 14.1416C11.6076 14.1416 13.0449 14.7435 13.986 15.6858Z" stroke="#292D32" stroke-linecap="round" stroke-linejoin="round"/>
<path id="Vector_2" d="M12.9834 8.81684C12.9834 10.4668 11.6501 11.8085 10.0001 11.8085C8.35006 11.8085 7.01672 10.4668 7.01672 8.81684C7.01672 7.16684 8.35006 5.8335 10.0001 5.8335C11.6501 5.8335 12.9834 7.16684 12.9834 8.81684Z" stroke="#292D32" stroke-width="1.25" stroke-linecap="round" stroke-linejoin="round"/>
</g>
</g>
</g>
</svg>
