<svg width="20" height="21" viewBox="0 0 20 21" fill="none" xmlns="http://www.w3.org/2000/svg">
<g id="vuesax/linear/user-square">
<g id="vuesax/linear/user-square_2">
<g id="user-square">
<circle id="Ellipse 3983" cx="10.0001" cy="10.0001" r="8.9361" fill="#DFA935" stroke="#DFA935" stroke-width="1.25" stroke-linecap="round" stroke-linejoin="round"/>
<path id="Vector" d="M14.4157 17.0003C15.1554 18.4167 14.098 20 12.5 20V20H7.50003V20C5.90209 20 4.84466 18.4167 5.58433 17.0003C6.47832 15.2883 8.12311 14.1416 10 14.1416C11.8769 14.1416 13.5217 15.2883 14.4157 17.0003Z" stroke="#F7F7F6" stroke-linecap="round" stroke-linejoin="round"/>
<path id="Vector_2" d="M12.9834 8.81684C12.9834 10.4668 11.6501 11.8085 10.0001 11.8085C8.35006 11.8085 7.01672 10.4668 7.01672 8.81684C7.01672 7.16684 8.35006 5.8335 10.0001 5.8335C11.6501 5.8335 12.9834 7.16684 12.9834 8.81684Z" stroke="#F7F7F6" stroke-width="1.25" stroke-linecap="round" stroke-linejoin="round"/>
</g>
</g>
</g>
</svg>
