<svg width="20" height="20" viewBox="0 0 20 20" fill="none" xmlns="http://www.w3.org/2000/svg">
<g id="vuesax/linear/user-square">
<g id="user-square">
<path id="Vector" d="M15.1167 18.0166C14.3834 18.2333 13.5167 18.3333 12.5 18.3333H7.50003C6.48336 18.3333 5.6167 18.2333 4.88336 18.0166C5.0667 15.85 7.29169 14.1416 10 14.1416C12.7084 14.1416 14.9334 15.85 15.1167 18.0166Z" stroke="#292D32" stroke-linecap="round" stroke-linejoin="round"/>
<path id="Vector_2" d="M12.5 1.66699H7.50004C3.33337 1.66699 1.6667 3.33366 1.6667 7.50033V12.5003C1.6667 15.6503 2.6167 17.3753 4.88337 18.017C5.0667 15.8503 7.2917 14.142 10 14.142C12.7084 14.142 14.9334 15.8503 15.1167 18.017C17.3834 17.3753 18.3334 15.6503 18.3334 12.5003V7.50033C18.3334 3.33366 16.6667 1.66699 12.5 1.66699ZM10 11.8086C8.35004 11.8086 7.0167 10.467 7.0167 8.81701C7.0167 7.16701 8.35004 5.83366 10 5.83366C11.65 5.83366 12.9834 7.16701 12.9834 8.81701C12.9834 10.467 11.65 11.8086 10 11.8086Z" stroke="#292D32" stroke-linecap="round" stroke-linejoin="round"/>
<path id="Vector_3" d="M12.9834 8.81684C12.9834 10.4668 11.6501 11.8085 10.0001 11.8085C8.35007 11.8085 7.01674 10.4668 7.01674 8.81684C7.01674 7.16684 8.35007 5.8335 10.0001 5.8335C11.6501 5.8335 12.9834 7.16684 12.9834 8.81684Z" stroke="#292D32" stroke-width="1.25" stroke-linecap="round" stroke-linejoin="round"/>
</g>
</g>
</svg>
