<svg width="20" height="20" viewBox="0 0 20 20" fill="none" xmlns="http://www.w3.org/2000/svg">
<path d="M14.9864 1.979L9.6438 3.15852L11.2862 4.59364L11.1131 6.33659C12.9766 8.42043 14.058 9.47211 17.192 7.5739L17.5148 5.33239L19.1108 4.91996L14.9864 1.979Z" fill="#DFA935"/>
<path d="M19.8709 4.83025L15.3226 1.50227C15.2477 1.44708 15.152 1.42817 15.0617 1.4507L9.59792 2.83659C9.43067 2.87921 9.32965 3.04933 9.37227 3.21654C9.39014 3.28665 9.43179 3.34841 9.49011 3.39122L10.9369 4.44741L10.6244 6.03169C10.4541 6.91602 11.8743 8.31596 13.7883 8.68779C14.124 8.75261 14.4651 8.78505 14.807 8.78468C15.3311 8.78796 15.8524 8.7067 16.3506 8.54407C17.1162 8.28941 17.6271 7.8644 17.7162 7.40975L18.0287 5.83013L19.7645 5.3911C19.9318 5.34848 20.0328 5.17836 19.9902 5.01115C19.9723 4.94104 19.9307 4.87928 19.8723 4.83647L19.8709 4.83025ZM17.1069 7.28949C17.071 7.47229 16.7319 7.7582 16.1554 7.9504C15.4274 8.17828 14.6539 8.2202 13.9055 8.07227C12.1478 7.73008 11.1666 6.54109 11.2494 6.1505L11.501 4.85527L14.0383 6.71766C14.0918 6.75704 14.1563 6.77837 14.2227 6.7786C14.2491 6.77878 14.2755 6.77509 14.3008 6.76767L17.3569 5.99429L17.1069 7.28949ZM14.2946 6.12705L10.3963 3.27718L15.0726 2.09285L18.9662 4.94115L14.2946 6.12705Z" fill="#DFA935"/>
<path d="M8.18804 9.77606L8.18805 9.77606C8.18912 9.68005 8.24069 9.59171 8.32374 9.54358C8.40483 9.49429 8.50574 9.49076 8.59006 9.53431L8.59025 9.53441L8.59025 9.53441L12.587 11.6284L12.5871 11.6284C12.6358 11.6541 12.6756 11.6938 12.7012 11.7426C12.7012 11.7426 12.7012 11.7426 12.7012 11.7426L8.18804 9.77606ZM8.18804 9.77606V9.77648M8.18804 9.77606V9.77648M8.18804 9.77648L8.18804 13.9621L8.18805 13.9625M8.18804 9.77648L8.18805 13.9625M8.18805 13.9625C8.18912 14.0585 8.24066 14.1468 8.32365 14.195L8.18805 13.9625ZM8.73586 13.513L8.73246 10.2245L11.874 11.8693L8.73586 13.513Z" fill="#DFA935" stroke="#DFA935" stroke-width="0.0750826"/>
<path d="M12.2472 11.9213L8.73054 13.5129L8.73053 10.0703L12.2472 11.9213Z" fill="#DFA935"/>
<path d="M3.13217 6.08838C2.64604 6.08667 2.2501 6.48699 2.24674 6.98363M3.13217 6.08838H8.89283C9.06174 6.08838 9.19869 6.2283 9.19869 6.40088C9.19869 6.57347 9.06174 6.71338 8.89283 6.71338H3.13209C2.98347 6.71081 2.86095 6.83182 2.85843 6.98367M3.13217 6.08838L3.13234 6.03838C3.13231 6.03838 3.13228 6.03838 3.13225 6.03838H3.13217V6.08838ZM2.24674 6.98363L2.85843 6.98367M2.24674 6.98363V16.4425V6.98363ZM2.85843 6.98367L2.90842 6.9845C2.90842 6.98437 2.90842 6.98424 2.90843 6.9841V6.98367H2.85843ZM2.90843 16.4422C2.90842 16.4421 2.90842 16.4419 2.90842 16.4418L2.85843 16.4426H2.90843V16.4422ZM2.22257 16.6628H0.717557C0.520019 16.6628 0.361697 16.8261 0.361697 17.0253V17.1034C0.361697 17.467 0.501306 17.8489 0.734096 18.1405C0.967032 18.4322 1.29719 18.6377 1.67941 18.6377H18.1063C18.4885 18.6377 18.8187 18.4322 19.0516 18.1405C19.2844 17.8489 19.424 17.467 19.424 17.1034V17.0253C19.424 16.8262 19.2657 16.6629 19.0682 16.6629H17.5631C17.5801 16.5908 17.5888 16.5169 17.5889 16.4427V16.4426V9.21327C17.5889 9.01409 17.4306 8.85077 17.2331 8.85077C17.0356 8.85077 16.8772 9.01409 16.8772 9.21327V16.4421L2.22257 16.6628ZM18.1063 17.9128H1.67941C1.56518 17.9128 1.44384 17.8502 1.33782 17.7419C1.24629 17.6484 1.1697 17.5241 1.12299 17.3879H18.6627C18.616 17.5241 18.5394 17.6484 18.4479 17.7419C18.3419 17.8502 18.2205 17.9128 18.1063 17.9128Z" fill="#DFA935" stroke="#DFA935" stroke-width="0.1"/>
<rect x="1.13463" y="17.2383" width="17.5131" height="0.901367" fill="#DFA935"/>
</svg>
