<svg width="20" height="21" viewBox="0 0 20 21" fill="none" xmlns="http://www.w3.org/2000/svg">
<g clip-path="url(#clip0_4305_6513)">
<path d="M19.9169 5.74916C19.9767 5.79808 20.0195 5.865 20.0386 5.9402C20.0881 6.13418 19.9709 6.33152 19.7769 6.38096L19.7768 6.38098L18.0716 6.81226L17.7653 8.36077L19.9169 5.74916ZM19.9169 5.74916L19.9152 5.74215L19.9004 5.7313L15.3523 2.40341C15.3523 2.40339 15.3522 2.40337 15.3522 2.40335C15.2653 2.33938 15.1543 2.31747 15.0496 2.34359L15.0494 2.34364L9.58563 3.72953L9.58557 3.72954C9.39157 3.77898 9.27438 3.97632 9.32382 4.1703L19.9169 5.74916ZM9.46063 4.37301L9.46053 4.37293C9.39286 4.32326 9.34454 4.25163 9.32382 4.1703L9.46063 4.37301ZM9.46063 4.37301L10.8817 5.41041L10.5753 6.96342L10.5753 6.96364M9.46063 4.37301L10.5753 6.96364M10.5753 6.96364C10.5298 7.19976 10.5913 7.46494 10.7336 7.73239C10.8762 8.00028 11.1018 8.27434 11.3916 8.53078C11.9713 9.04368 12.813 9.49066 13.7788 9.67828L13.7788 9.67829M10.5753 6.96364L13.7788 9.67829M13.7788 9.67829C14.1176 9.7437 14.4618 9.77645 14.8068 9.77608M13.7788 9.67829L16.3664 9.53292M16.3664 9.53292L16.3662 9.53301C15.8628 9.69729 15.3363 9.77938 14.8068 9.77608M16.3664 9.53292C16.7536 9.40413 17.0786 9.23156 17.3191 9.03177M16.3664 9.53292L17.3191 9.03177M14.8068 9.77608C14.8068 9.77608 14.8067 9.77608 14.8067 9.77608L14.807 9.72608L14.807 9.77608C14.807 9.77608 14.8069 9.77608 14.8068 9.77608ZM13.9151 8.96459L13.9152 8.96462C14.6552 9.11091 15.4201 9.0695 16.14 8.84423C16.4241 8.74949 16.648 8.6322 16.8043 8.51751C16.8825 8.46012 16.943 8.40398 16.9856 8.35241C17.0286 8.30031 17.0511 8.25571 17.0578 8.22131C17.0578 8.22129 17.0578 8.22127 17.0578 8.22124L17.2929 7.00347L14.3139 7.75733C14.2842 7.76594 14.2534 7.77022 14.2223 7.77L14.2227 7.72M13.9151 8.96459L14.3008 7.70908C14.2755 7.7165 14.2491 7.72019 14.2227 7.72M13.9151 8.96459C13.0451 8.79523 12.3682 8.41645 11.9197 8.03294C11.6954 7.8411 11.5292 7.64888 11.4246 7.48226C11.3723 7.39893 11.3361 7.32298 11.3153 7.2575C11.2944 7.19141 11.2904 7.13948 11.2983 7.10228L11.2985 7.10144L11.535 5.88368M13.9151 8.96459L11.4904 5.85096M14.2227 7.72L14.2225 7.77C14.1455 7.76974 14.0707 7.745 14.0087 7.69932M14.2227 7.72C14.1563 7.71978 14.0918 7.69845 14.0383 7.65907M14.0087 7.69932L14.0383 7.65907M14.0087 7.69932L14.0087 7.69938L14.0383 7.65907M14.0087 7.69932L11.535 5.88368M14.0383 7.65907L11.5455 5.82939L11.535 5.88368M11.535 5.88368L11.4904 5.85096M11.4904 5.85096L11.2494 7.09191L11.4904 5.85096ZM17.3191 9.03177C17.5592 8.83225 17.7178 8.60303 17.7653 8.36086L17.3191 9.03177ZM15.0621 3.0885L18.851 5.86022L14.3051 7.0142L10.5116 4.24096L15.0621 3.0885Z" fill="black" stroke="black" stroke-width="0.1"/>
<path d="M7.79646 15.9399C7.84696 15.9403 7.89681 15.9286 7.94175 15.9055L7.48396 15.6274C7.48519 15.7378 7.5446 15.8394 7.64021 15.8946C7.6872 15.9236 7.74123 15.9393 7.79646 15.9399ZM7.43397 15.628C7.43539 15.7558 7.50404 15.8734 7.61456 15.9375L13.4449 12.6713C13.4449 12.6713 13.4449 12.6713 13.4449 12.6713C13.4108 12.6064 13.3577 12.5534 13.2929 12.5193L13.2928 12.5192L7.96965 9.7303L7.96965 9.7303L7.96939 9.73016C7.8571 9.67216 7.72269 9.67686 7.61469 9.74252C7.50408 9.80661 7.43539 9.92427 7.43397 10.0521L7.43396 10.0521V10.0527L7.43396 15.6274L7.43397 15.628ZM8.16358 15.0292L8.15905 10.6494L12.3431 12.84L8.16358 15.0292Z" fill="black" stroke="black" stroke-width="0.1"/>
<path d="M3.13217 7.05909C2.64604 7.05737 2.2501 7.45769 2.24674 7.95434M3.13217 7.05909H8.89283C9.06174 7.05909 9.19869 7.199 9.19869 7.37159C9.19869 7.54417 9.06174 7.68409 8.89283 7.68409H3.13209C2.98347 7.68151 2.86095 7.80252 2.85843 7.95437M3.13217 7.05909L3.13234 7.00909C3.13231 7.00909 3.13228 7.00909 3.13225 7.00909H3.13217V7.05909ZM2.24674 7.95434L2.85843 7.95437M2.24674 7.95434V17.4132V7.95434ZM2.85843 7.95437L2.90842 7.9552C2.90842 7.95507 2.90842 7.95494 2.90843 7.95481V7.95437H2.85843ZM2.90843 17.4129C2.90842 17.4128 2.90842 17.4126 2.90842 17.4125L2.85843 17.4134H2.90843V17.4129ZM2.22257 17.6335H0.717557C0.520019 17.6335 0.361697 17.7968 0.361697 17.996V18.0742C0.361697 18.4377 0.501306 18.8196 0.734096 19.1112C0.967032 19.4029 1.29719 19.6085 1.67941 19.6085H18.1063C18.4885 19.6085 18.8187 19.4029 19.0516 19.1112C19.2844 18.8196 19.424 18.4377 19.424 18.0742V17.996C19.424 17.7969 19.2657 17.6336 19.0682 17.6336H17.5631C17.5801 17.5615 17.5888 17.4876 17.5889 17.4134V17.4133V10.184C17.5889 9.9848 17.4306 9.82148 17.2331 9.82148C17.0356 9.82148 16.8772 9.9848 16.8772 10.184V17.4128L2.22257 17.6335ZM18.1063 18.8835H1.67941C1.56518 18.8835 1.44384 18.821 1.33782 18.7126C1.24629 18.6191 1.1697 18.4948 1.12299 18.3586H18.6627C18.616 18.4948 18.5394 18.6191 18.4479 18.7126C18.3419 18.821 18.2205 18.8835 18.1063 18.8835Z" fill="black" stroke="black" stroke-width="0.1"/>
</g>
<defs>
<clipPath id="clip0_4305_6513">
<rect width="20" height="20" fill="white" transform="translate(0 0.970703)"/>
</clipPath>
</defs>
</svg>
